<svg width="24" height="24" stroke="none" viewBox="0 0 24 24" xmlns="http://www.w3.org/2000/svg">
<path d="M12 2c5.523 0 10 4.477 10 10a10 10 0 1 1-20 0C2 6.477 6.477 2 12 2ZM8.065 7C7.477 7 7 7.477 7 8.065v7.87a1.066 1.066 0 0 0 1.974.557l2.09-3.103a.223.223 0 0 0-.33-.292l-2.057 1.785a.084.084 0 0 1-.14-.064V9.23a.084.084 0 0 1 .148-.052l6.218 7.446c.203.239.5.377.814.377h.217c.588 0 1.065-.476 1.066-1.065v-7.87C17 7.477 16.523 7 15.935 7l-.138.009c-.317.04-.6.223-.77.499l-2.091 3.103a.222.222 0 0 0 .33.292l2.057-1.785a.084.084 0 0 1 .14.064v5.587a.084.084 0 0 1-.084.083.083.083 0 0 1-.064-.03l-6.22-7.445A1.068 1.068 0 0 0 8.283 7h-.217Z" fill="#9CA3AF" /></svg>