<svg id="SvgjsSvg1144" width="288" height="288" xmlns="http://www.w3.org/2000/svg" version="1.1" xmlns:xlink="http://www.w3.org/1999/xlink" xmlns:svgjs="http://svgjs.com/svgjs"><defs id="SvgjsDefs1145"></defs><g id="SvgjsG1146"><svg xmlns="http://www.w3.org/2000/svg" width="288" height="288" class="highcharts-root" font-family="&quot;Lucida Grande&quot;,&quot;Lucida Sans Unicode&quot;,Arial,Helvetica,sans-serif" font-size="12" viewBox="0 0 600 550"><defs><linearGradient id="b" x1="0" x2="0" y1="0" y2="1"><stop offset="0" stop-color="#0173cd" stop-opacity=".8" class="stopColor2D8F44 svgShape"></stop><stop offset="1" stop-color="#0173cd" stop-opacity="0" class="stopColor2D8F44 svgShape"></stop></linearGradient><clipPath id="a"><rect width="523" height="456" fill="none"></rect></clipPath></defs><rect width="600" height="550" fill="none" class="highcharts-background colorfff svgShape" rx="0" ry="0"></rect><rect width="523" height="456" x="67" y="59" fill="none" class="highcharts-plot-background"></rect><g class="highcharts-grid highcharts-xaxis-grid color000 svgShape" data-z-index="1" fill="#000000"><path fill="none" d="M126.5 59L126.5 515M202.5 59L202.5 515M277.5 59L277.5 515M353.5 59L353.5 515M429.5 59L429.5 515M504.5 59L504.5 515M580.5 59L580.5 515" class="highcharts-grid-line" data-z-index="1"></path></g><g class="highcharts-grid highcharts-yaxis-grid color000 svgShape" data-z-index="1" fill="#000000"><path fill="none" stroke="#e6e6e6" d="M67 515.5L590 515.5M67 464.5L590 464.5M67 414.5L590 414.5M67 363.5L590 363.5M67 312.5L590 312.5M67 262.5L590 262.5M67 211.5L590 211.5M67 160.5L590 160.5M67 110.5L590 110.5M67 58.5L590 58.5" class="highcharts-grid-line colorStrokee6e6e6 svgStroke" data-z-index="1"></path></g><rect width="523" height="456" x="67" y="59" fill="none" class="highcharts-plot-border" data-z-index="1"></rect><g class="highcharts-axis highcharts-xaxis color000 svgShape" data-z-index="2" fill="#000000"><path fill="none" stroke="#ccd6eb" d="M126.5 515L126.5 525M202.5 515L202.5 525M277.5 515L277.5 525M353.5 515L353.5 525M429.5 515L429.5 525M504.5 515L504.5 525M580.5 515L580.5 525" class="highcharts-tick colorStrokeccd6eb svgStroke"></path><path fill="none" stroke="#ccd6eb" d="M 67 515.5 L 590 515.5" class="highcharts-axis-line colorStrokeccd6eb svgStroke" data-z-index="7"></path></g><g class="highcharts-axis highcharts-yaxis color000 svgShape" data-z-index="2" fill="#000000"><text x="23.75" y="287" fill="#666" class="highcharts-axis-title" color="#666" data-z-index="7" text-anchor="middle" transform="rotate(-90 23.75 287)" svgjs:data="{&quot;leading&quot;:&quot;1.3&quot;}">Active Near Addresses</text><path fill="none" d="M 67 59 L 67 515" class="highcharts-axis-line" data-z-index="7"></path></g><g class="highcharts-series-group color000 svgShape" data-z-index="3" fill="#000000"><g class="highcharts-series highcharts-series-0 highcharts-area-series color000 svgShape" clip-path="url(#a)" data-z-index=".1" transform="translate(67 59)" fill="#000000"><path fill="url(#b)" d="M 5.1274509803922 453.2690666666667 L 10.524767801858 451.97706666666664 L 15.922084623323 452.05813333333333 L 21.319401444788 451.85546666666664 L 26.716718266254 451.8301333333333 L 32.114035087719 451.85546666666664 L 37.511351909185 451.52613333333335 L 42.90866873065 451.5312 L 48.305985552116 451.5768 L 53.703302373581 451.3792 L 59.100619195046 451.288 L 64.497936016512 451.1005333333333 L 69.895252837977 451.33866666666665 L 75.292569659443 450.984 L 80.689886480908 451.1714666666667 L 86.087203302374 450.6698666666667 L 91.484520123839 450.60906666666665 L 96.881836945304 450.8016 L 102.27915376677 450.68506666666667 L 107.67647058824 449.8693333333333 L 113.0737874097 450.4216 L 118.47110423117 450.05173333333335 L 123.86842105263 450.0973333333333 L 129.2657378741 449.95546666666667 L 134.66305469556 450.01626666666664 L 140.06037151703 449.8845333333333 L 145.45768833849 449.8541333333333 L 150.85500515996 449.72746666666666 L 156.25232198142 449.7477333333333 L 161.64963880289 449.45386666666667 L 167.04695562436 449.2309333333333 L 172.44427244582 448.6432 L 177.84158926729 448.48106666666666 L 183.23890608875 447.9896 L 188.63622291022 447.8072 L 194.03353973168 446.96613333333335 L 199.43085655315 446.7026666666667 L 204.82817337461 446.32773333333336 L 210.22549019608 446.0946666666667 L 215.62280701754 447.1688 L 221.02012383901 446.3530666666667 L 226.41744066047 445.2536 L 231.81475748194 445.9173333333333 L 237.21207430341 446.25173333333333 L 242.60939112487 446.41386666666665 L 248.00670794634 381.444 L 253.4040247678 350.6994666666667 L 258.80134158927 394.2474666666667 L 264.19865841073 398.0930666666667 L 269.5959752322 380.8816 L 274.99329205366 391.72933333333333 L 280.39060887513 420.92853333333335 L 285.78792569659 389.99653333333333 L 291.18524251806 379.696 L 296.58255933953 307.9216 L 301.97987616099 227.41226666666668 L 307.37719298246 68.15173333333337 L 312.77450980392 226.97653333333335 L 318.17182662539 240.45893333333333 L 323.56914344685 157.6848 L 328.96646026832 203.94853333333336 L 334.36377708978 184.23920000000004 L 339.76109391125 239.5672 L 345.15841073271 213.15466666666669 L 350.55572755418 293.58293333333336 L 355.95304437564 252.76080000000002 L 361.35036119711 226.54080000000002 L 366.74767801858 224.82826666666668 L 372.14499484004 199.47466666666668 L 377.54231166151 228.81573333333336 L 382.93962848297 268.9893333333333 L 388.33694530444 274.27386666666666 L 393.7342621259 293.51706666666666 L 399.13157894737 267.12986666666666 L 404.52889576883 305.05386666666664 L 409.9262125903 296.8661333333333 L 415.32352941176 268.1128 L 420.72084623323 255.53733333333335 L 426.1181630547 242.40453333333335 L 431.51547987616 226.15066666666667 L 436.91279669763 217.15733333333336 L 442.31011351909 272.90586666666667 L 447.70743034056 290.29973333333334 L 453.10474716202 293.0458666666667 L 458.50206398349 295.04213333333337 L 463.89938080495 304.5168 L 469.29669762642 313.68746666666664 L 474.69401444788 310.61199999999997 L 480.09133126935 262.47866666666664 L 485.48864809082 275.4594666666667 L 490.88596491228 296.0301333333333 L 496.28328173375 311.00213333333335 L 501.68059855521 279.50773333333336 L 507.07791537668 309.8824 L 512.47523219814 252.48213333333334 L 517.87254901961 266.5978666666667 L 517.87254901961 456 L 512.47523219814 456 L 507.07791537668 456 L 501.68059855521 456 L 496.28328173375 456 L 490.88596491228 456 L 485.48864809082 456 L 480.09133126935 456 L 474.69401444788 456 L 469.29669762642 456 L 463.89938080495 456 L 458.50206398349 456 L 453.10474716202 456 L 447.70743034056 456 L 442.31011351909 456 L 436.91279669763 456 L 431.51547987616 456 L 426.1181630547 456 L 420.72084623323 456 L 415.32352941176 456 L 409.9262125903 456 L 404.52889576883 456 L 399.13157894737 456 L 393.7342621259 456 L 388.33694530444 456 L 382.93962848297 456 L 377.54231166151 456 L 372.14499484004 456 L 366.74767801858 456 L 361.35036119711 456 L 355.95304437564 456 L 350.55572755418 456 L 345.15841073271 456 L 339.76109391125 456 L 334.36377708978 456 L 328.96646026832 456 L 323.56914344685 456 L 318.17182662539 456 L 312.77450980392 456 L 307.37719298246 456 L 301.97987616099 456 L 296.58255933953 456 L 291.18524251806 456 L 285.78792569659 456 L 280.39060887513 456 L 274.99329205366 456 L 269.5959752322 456 L 264.19865841073 456 L 258.80134158927 456 L 253.4040247678 456 L 248.00670794634 456 L 242.60939112487 456 L 237.21207430341 456 L 231.81475748194 456 L 226.41744066047 456 L 221.02012383901 456 L 215.62280701754 456 L 210.22549019608 456 L 204.82817337461 456 L 199.43085655315 456 L 194.03353973168 456 L 188.63622291022 456 L 183.23890608875 456 L 177.84158926729 456 L 172.44427244582 456 L 167.04695562436 456 L 161.64963880289 456 L 156.25232198142 456 L 150.85500515996 456 L 145.45768833849 456 L 140.06037151703 456 L 134.66305469556 456 L 129.2657378741 456 L 123.86842105263 456 L 118.47110423117 456 L 113.0737874097 456 L 107.67647058824 456 L 102.27915376677 456 L 96.881836945304 456 L 91.484520123839 456 L 86.087203302374 456 L 80.689886480908 456 L 75.292569659443 456 L 69.895252837977 456 L 64.497936016512 456 L 59.100619195046 456 L 53.703302373581 456 L 48.305985552116 456 L 42.90866873065 456 L 37.511351909185 456 L 32.114035087719 456 L 26.716718266254 456 L 21.319401444788 456 L 15.922084623323 456 L 10.524767801858 456 L 5.1274509803922 456 Z" class="highcharts-area" data-z-index="0"></path><path fill="none" stroke="#0173cd" stroke-linecap="round" stroke-linejoin="round" stroke-opacity=" 1" d="M 5.1274509803922 453.2690666666667 L 10.524767801858 451.97706666666664 L 15.922084623323 452.05813333333333 L 21.319401444788 451.85546666666664 L 26.716718266254 451.8301333333333 L 32.114035087719 451.85546666666664 L 37.511351909185 451.52613333333335 L 42.90866873065 451.5312 L 48.305985552116 451.5768 L 53.703302373581 451.3792 L 59.100619195046 451.288 L 64.497936016512 451.1005333333333 L 69.895252837977 451.33866666666665 L 75.292569659443 450.984 L 80.689886480908 451.1714666666667 L 86.087203302374 450.6698666666667 L 91.484520123839 450.60906666666665 L 96.881836945304 450.8016 L 102.27915376677 450.68506666666667 L 107.67647058824 449.8693333333333 L 113.0737874097 450.4216 L 118.47110423117 450.05173333333335 L 123.86842105263 450.0973333333333 L 129.2657378741 449.95546666666667 L 134.66305469556 450.01626666666664 L 140.06037151703 449.8845333333333 L 145.45768833849 449.8541333333333 L 150.85500515996 449.72746666666666 L 156.25232198142 449.7477333333333 L 161.64963880289 449.45386666666667 L 167.04695562436 449.2309333333333 L 172.44427244582 448.6432 L 177.84158926729 448.48106666666666 L 183.23890608875 447.9896 L 188.63622291022 447.8072 L 194.03353973168 446.96613333333335 L 199.43085655315 446.7026666666667 L 204.82817337461 446.32773333333336 L 210.22549019608 446.0946666666667 L 215.62280701754 447.1688 L 221.02012383901 446.3530666666667 L 226.41744066047 445.2536 L 231.81475748194 445.9173333333333 L 237.21207430341 446.25173333333333 L 242.60939112487 446.41386666666665 L 248.00670794634 381.444 L 253.4040247678 350.6994666666667 L 258.80134158927 394.2474666666667 L 264.19865841073 398.0930666666667 L 269.5959752322 380.8816 L 274.99329205366 391.72933333333333 L 280.39060887513 420.92853333333335 L 285.78792569659 389.99653333333333 L 291.18524251806 379.696 L 296.58255933953 307.9216 L 301.97987616099 227.41226666666668 L 307.37719298246 68.15173333333337 L 312.77450980392 226.97653333333335 L 318.17182662539 240.45893333333333 L 323.56914344685 157.6848 L 328.96646026832 203.94853333333336 L 334.36377708978 184.23920000000004 L 339.76109391125 239.5672 L 345.15841073271 213.15466666666669 L 350.55572755418 293.58293333333336 L 355.95304437564 252.76080000000002 L 361.35036119711 226.54080000000002 L 366.74767801858 224.82826666666668 L 372.14499484004 199.47466666666668 L 377.54231166151 228.81573333333336 L 382.93962848297 268.9893333333333 L 388.33694530444 274.27386666666666 L 393.7342621259 293.51706666666666 L 399.13157894737 267.12986666666666 L 404.52889576883 305.05386666666664 L 409.9262125903 296.8661333333333 L 415.32352941176 268.1128 L 420.72084623323 255.53733333333335 L 426.1181630547 242.40453333333335 L 431.51547987616 226.15066666666667 L 436.91279669763 217.15733333333336 L 442.31011351909 272.90586666666667 L 447.70743034056 290.29973333333334 L 453.10474716202 293.0458666666667 L 458.50206398349 295.04213333333337 L 463.89938080495 304.5168 L 469.29669762642 313.68746666666664 L 474.69401444788 310.61199999999997 L 480.09133126935 262.47866666666664 L 485.48864809082 275.4594666666667 L 490.88596491228 296.0301333333333 L 496.28328173375 311.00213333333335 L 501.68059855521 279.50773333333336 L 507.07791537668 309.8824 L 512.47523219814 252.48213333333334 L 517.87254901961 266.5978666666667" class="highcharts-graph colorStroke2D8F44 svgStroke" data-z-index="1"></path></g></g><text x="300" y="24" fill="#333" class="highcharts-title" color="#333" data-z-index="4" font-size="18" text-anchor="middle" svgjs:data="{&quot;leading&quot;:&quot;1.3&quot;}">Active Near Addresses Chart</text><text x="300" y="44" fill="#666" class="highcharts-subtitle" color="#666" data-z-index="4" text-anchor="middle" svgjs:data="{&quot;leading&quot;:&quot;1.3&quot;}">Source: NearBlocks.io</text><g class="highcharts-axis-labels highcharts-xaxis-labels color000 svgShape" data-z-index="7" fill="#000000"><text x="127.338" y="534" fill="#666" color="#666" cursor="default" font-size="11" text-anchor="middle" svgjs:data="{&quot;leading&quot;:&quot;1.3&quot;}">29. Mar</text><text x="202.9" y="534" fill="#666" color="#666" cursor="default" font-size="11" text-anchor="middle" svgjs:data="{&quot;leading&quot;:&quot;1.3&quot;}">12. Apr</text><text x="278.462" y="534" fill="#666" color="#666" cursor="default" font-size="11" text-anchor="middle" svgjs:data="{&quot;leading&quot;:&quot;1.3&quot;}">26. Apr</text><text x="354.025" y="534" fill="#666" color="#666" cursor="default" font-size="11" text-anchor="middle" svgjs:data="{&quot;leading&quot;:&quot;1.3&quot;}">10. May</text><text x="429.587" y="534" fill="#666" color="#666" cursor="default" font-size="11" text-anchor="middle" svgjs:data="{&quot;leading&quot;:&quot;1.3&quot;}">24. May</text><text x="505.15" y="534" fill="#666" color="#666" cursor="default" font-size="11" text-anchor="middle" svgjs:data="{&quot;leading&quot;:&quot;1.3&quot;}">7. Jun</text><text x="571.953" y="534" fill="#666" color="#666" cursor="default" font-size="11" text-anchor="middle" svgjs:data="{&quot;leading&quot;:&quot;1.3&quot;}">21. Jun</text></g><g class="highcharts-axis-labels highcharts-yaxis-labels color000 svgShape" data-z-index="7" fill="#000000"><text x="52" y="520" fill="#666" color="#666" cursor="default" font-size="11" text-anchor="end" svgjs:data="{&quot;leading&quot;:&quot;1.3&quot;}">0</text><text x="52" y="469" fill="#666" color="#666" cursor="default" font-size="11" text-anchor="end" svgjs:data="{&quot;leading&quot;:&quot;1.3&quot;}">10k</text><text x="52" y="419" fill="#666" color="#666" cursor="default" font-size="11" text-anchor="end" svgjs:data="{&quot;leading&quot;:&quot;1.3&quot;}">20k</text><text x="52" y="368" fill="#666" color="#666" cursor="default" font-size="11" text-anchor="end" svgjs:data="{&quot;leading&quot;:&quot;1.3&quot;}">30k</text><text x="52" y="317" fill="#666" color="#666" cursor="default" font-size="11" text-anchor="end" svgjs:data="{&quot;leading&quot;:&quot;1.3&quot;}">40k</text><text x="52" y="267" fill="#666" color="#666" cursor="default" font-size="11" text-anchor="end" svgjs:data="{&quot;leading&quot;:&quot;1.3&quot;}">50k</text><text x="52" y="216" fill="#666" color="#666" cursor="default" font-size="11" text-anchor="end" svgjs:data="{&quot;leading&quot;:&quot;1.3&quot;}">60k</text><text x="52" y="165" fill="#666" color="#666" cursor="default" font-size="11" text-anchor="end" svgjs:data="{&quot;leading&quot;:&quot;1.3&quot;}">70k</text><text x="52" y="115" fill="#666" color="#666" cursor="default" font-size="11" text-anchor="end" svgjs:data="{&quot;leading&quot;:&quot;1.3&quot;}">80k</text><text x="52" y="64" fill="#666" color="#666" cursor="default" font-size="11" text-anchor="end" svgjs:data="{&quot;leading&quot;:&quot;1.3&quot;}">90k</text></g></svg></g></svg>