<?xml version="1.0" standalone="no"?><!DOCTYPE svg PUBLIC "-//W3C//DTD SVG 1.1//EN" "http://www.w3.org/Graphics/SVG/1.1/DTD/svg11.dtd"><svg xmlns:xlink="http://www.w3.org/1999/xlink" version="1.1" class="highcharts-root" style="font-family: &quot;Lucida Grande&quot;, &quot;Lucida Sans Unicode&quot;, Arial, Helvetica, sans-serif; font-size: 12px;" xmlns="http://www.w3.org/2000/svg" width="600" height="550" viewBox="0 0 600 550"><desc>Created with Highcharts 10.1.0</desc><defs><clipPath id="highcharts-3snow7p-1159-"><rect x="0" y="0" width="510" height="456" fill="none"></rect></clipPath><clipPath id="highcharts-3snow7p-1732-"><rect x="0" y="0" width="510" height="456" fill="none"></rect></clipPath><linearGradient x1="0" y1="0" x2="0" y2="1" id="highcharts-3snow7p-1733"><stop offset="0" stop-color="rgb(3,63,64)" stop-opacity="0.8"></stop><stop offset="1" stop-color="rgb(3,63,64)" stop-opacity="0"></stop></linearGradient></defs><rect fill="none" class="highcharts-background" x="0" y="0" width="600" height="550" rx="0" ry="0"></rect><rect fill="none" class="highcharts-plot-background" x="80" y="59" width="510" height="456"></rect><g class="highcharts-grid highcharts-xaxis-grid" data-z-index="1"><path fill="none" stroke-dasharray="none" data-z-index="1" class="highcharts-grid-line" d="M 110.5 59 L 110.5 515" opacity="1"></path><path fill="none" stroke-dasharray="none" data-z-index="1" class="highcharts-grid-line" d="M 218.5 59 L 218.5 515" opacity="1"></path><path fill="none" stroke-dasharray="none" data-z-index="1" class="highcharts-grid-line" d="M 325.5 59 L 325.5 515" opacity="1"></path><path fill="none" stroke-dasharray="none" data-z-index="1" class="highcharts-grid-line" d="M 430.5 59 L 430.5 515" opacity="1"></path><path fill="none" stroke-dasharray="none" data-z-index="1" class="highcharts-grid-line" d="M 538.5 59 L 538.5 515" opacity="1"></path></g><g class="highcharts-grid highcharts-yaxis-grid" data-z-index="1"><path fill="none" stroke="#e6e6e6" stroke-width="1" stroke-dasharray="none" data-z-index="1" class="highcharts-grid-line" d="M 80 515.5 L 590 515.5" opacity="1"></path><path fill="none" stroke="#e6e6e6" stroke-width="1" stroke-dasharray="none" data-z-index="1" class="highcharts-grid-line" d="M 80 464.5 L 590 464.5" opacity="1"></path><path fill="none" stroke="#e6e6e6" stroke-width="1" stroke-dasharray="none" data-z-index="1" class="highcharts-grid-line" d="M 80 414.5 L 590 414.5" opacity="1"></path><path fill="none" stroke="#e6e6e6" stroke-width="1" stroke-dasharray="none" data-z-index="1" class="highcharts-grid-line" d="M 80 363.5 L 590 363.5" opacity="1"></path><path fill="none" stroke="#e6e6e6" stroke-width="1" stroke-dasharray="none" data-z-index="1" class="highcharts-grid-line" d="M 80 312.5 L 590 312.5" opacity="1"></path><path fill="none" stroke="#e6e6e6" stroke-width="1" stroke-dasharray="none" data-z-index="1" class="highcharts-grid-line" d="M 80 262.5 L 590 262.5" opacity="1"></path><path fill="none" stroke="#e6e6e6" stroke-width="1" stroke-dasharray="none" data-z-index="1" class="highcharts-grid-line" d="M 80 211.5 L 590 211.5" opacity="1"></path><path fill="none" stroke="#e6e6e6" stroke-width="1" stroke-dasharray="none" data-z-index="1" class="highcharts-grid-line" d="M 80 160.5 L 590 160.5" opacity="1"></path><path fill="none" stroke="#e6e6e6" stroke-width="1" stroke-dasharray="none" data-z-index="1" class="highcharts-grid-line" d="M 80 110.5 L 590 110.5" opacity="1"></path><path fill="none" stroke="#e6e6e6" stroke-width="1" stroke-dasharray="none" data-z-index="1" class="highcharts-grid-line" d="M 80 58.5 L 590 58.5" opacity="1"></path></g><rect fill="none" class="highcharts-plot-border" data-z-index="1" x="80" y="59" width="510" height="456"></rect><g class="highcharts-axis highcharts-xaxis" data-z-index="2"><path fill="none" class="highcharts-tick" stroke="#ccd6eb" stroke-width="1" d="M 110.5 515 L 110.5 525" opacity="1"></path><path fill="none" class="highcharts-tick" stroke="#ccd6eb" stroke-width="1" d="M 218.5 515 L 218.5 525" opacity="1"></path><path fill="none" class="highcharts-tick" stroke="#ccd6eb" stroke-width="1" d="M 325.5 515 L 325.5 525" opacity="1"></path><path fill="none" class="highcharts-tick" stroke="#ccd6eb" stroke-width="1" d="M 430.5 515 L 430.5 525" opacity="1"></path><path fill="none" class="highcharts-tick" stroke="#ccd6eb" stroke-width="1" d="M 538.5 515 L 538.5 525" opacity="1"></path><path fill="none" class="highcharts-axis-line" stroke="#ccd6eb" stroke-width="1" data-z-index="7" d="M 80 515.5 L 590 515.5"></path></g><g class="highcharts-axis highcharts-yaxis" data-z-index="2"><text x="24.421875" data-z-index="7" text-anchor="middle" transform="translate(0,0) rotate(270 24.421875 287)" class="highcharts-axis-title" style="color: rgb(102, 102, 102); fill: rgb(102, 102, 102);" y="287">Near Cumulative Accounts Growth</text><path fill="none" class="highcharts-axis-line" data-z-index="7" d="M 80 59 L 80 515"></path></g><g class="highcharts-series-group" data-z-index="3"><g class="highcharts-series highcharts-series-0 highcharts-area-series" data-z-index="0.1" opacity="1" transform="translate(80,59) scale(1 1)" clip-path="url(#highcharts-3snow7p-1732-)"><path fill="url(#highcharts-3snow7p-1733)" d="M 5 455.99469013333334 L 5.8756567425569 455.9801184 L 6.7513134851138 455.9769973333333 L 7.6269702276708 455.9739776 L 8.5026269702277 455.96949866666665 L 9.3782837127846 455.9561834666667 L 10.253940455342 455.928256 L 11.129597197898 455.912448 L 12.005253940455 455.8246528 L 12.880910683012 455.7939285333333 L 13.756567425569 455.76138026666666 L 14.632224168126 455.66750506666665 L 15.507880910683 455.52304426666666 L 16.38353765324 455.3936416 L 17.259194395797 455.3146218666667 L 18.134851138354 455.27218346666666 L 19.010507880911 455.2350954666667 L 19.886164623468 455.219632 L 20.761821366025 455.19648746666667 L 21.637478108581 455.16166933333335 L 22.513134851138 455.1380992 L 23.388791593695 455.06049813333334 L 24.264448336252 454.9813973333333 L 25.140105078809 454.9495584 L 26.015761821366 454.8965205333333 L 26.891418563923 454.7819733333333 L 27.76707530648 454.6120981333333 L 28.642732049037 454.4388992 L 29.518388791594 454.2686389333333 L 30.394045534151 454.1921930666667 L 31.269702276708 454.1383445333333 L 32.145359019264 454.1049653333333 L 33.021015761821 454.0723968 L 33.896672504378 454.0442869333333 L 34.772329246935 454.0130154666667 L 35.647985989492 453.9819466666667 L 36.523642732049 453.954384 L 37.399299474606 453.9265173333333 L 38.274956217163 453.9027242666667 L 39.15061295972 453.8807754666667 L 40.026269702277 453.8584213333333 L 40.901926444834 453.8394517333333 L 41.777583187391 453.8238869333333 L 42.653239929947 453.7816309333333 L 43.528896672504 453.7299914666667 L 44.404553415061 453.7021045333333 L 45.280210157618 453.6392373333333 L 46.155866900175 453.5642506666667 L 47.031523642732 453.3890048 L 47.907180385289 453.3357642666667 L 48.782837127846 453.2524277333333 L 49.658493870403 453.2186634666667 L 50.53415061296 453.20472 L 51.409807355517 453.1926613333333 L 52.285464098074 453.1749482666667 L 53.16112084063 453.1526954666667 L 54.036777583187 453.1297130666667 L 54.912434325744 453.1071765333333 L 55.788091068301 453.0779925333333 L 56.663747810858 453.0461130666667 L 57.539404553415 452.9612362666667 L 58.415061295972 452.9106709333333 L 59.290718038529 452.8567210666667 L 60.166374781086 452.7958602666667 L 61.042031523643 452.6767733333333 L 61.9176882662 452.3646666666667 L 62.793345008757 452.2280896 L 63.669001751313 452.1421184 L 64.54465849387 452.0781770666667 L 65.420315236427 451.9264810666667 L 66.295971978984 451.787776 L 67.171628721541 451.5939658666667 L 68.047285464098 451.5411914666667 L 68.922942206655 451.4961386666667 L 69.798598949212 451.4568213333333 L 70.674255691769 451.4155786666667 L 71.549912434326 451.3446453333333 L 72.425569176883 451.2017856 L 73.30122591944 451.0056448 L 74.176882661997 450.8914218666667 L 75.052539404553 450.5995413333333 L 75.92819614711 450.4282272 L 76.803852889667 450.3910378666667 L 77.679509632224 450.3582666666667 L 78.555166374781 450.3218474666667 L 79.430823117338 450.2880426666667 L 80.306479859895 450.2591221333333 L 81.182136602452 450.2240810666667 L 82.057793345009 450.1901952 L 82.933450087566 450.1558432 L 83.809106830123 450.1276522666667 L 84.68476357268 450.0977994666667 L 85.560420315236 450.0640757333333 L 86.436077057793 450.0365536 L 87.31173380035 450.0064981333333 L 88.187390542907 449.9677482666667 L 89.063047285464 449.9248842666667 L 89.938704028021 449.885344 L 90.814360770578 449.8532416 L 91.690017513135 449.837008 L 92.565674255692 449.7969002666667 L 93.441330998249 449.778944 L 94.316987740806 449.7617578666667 L 95.192644483363 449.7355530666667 L 96.068301225919 449.6617216 L 96.943957968476 449.6268629333333 L 97.819614711033 449.5933216 L 98.69527145359 449.5479648 L 99.570928196147 449.5156597333333 L 100.4465849387 449.4866986666667 L 101.32224168126 449.4568458666667 L 102.19789842382 449.423264 L 103.07355516637 449.3617344 L 103.94921190893 449.3022314666667 L 104.82486865149 449.2546048 L 105.70052539405 449.1963989333333 L 106.5761821366 449.1267424 L 107.45183887916 449.0605109333333 L 108.32749562172 448.9797685333333 L 109.20315236427 448.8859338666667 L 110.07880910683 448.778176 L 110.95446584939 448.6651893333333 L 111.83012259194 448.5657205333333 L 112.7057793345 448.4620768 L 113.58143607706 448.3595477333333 L 114.45709281961 448.2487296 L 115.33274956217 448.1264608 L 116.20840630473 447.9985376 L 117.08406304729 447.8405589333333 L 117.95971978984 447.6768853333333 L 118.8353765324 447.5356469333333 L 119.71103327496 447.329616 L 120.58669001751 447.1127424 L 121.46234676007 446.810384 L 122.33800350263 446.6386848 L 123.21366024518 446.6195125333333 L 124.08931698774 446.6019413333333 L 124.9649737303 446.5837621333333 L 125.84063047285 446.5537472 L 126.71628721541 446.4819424 L 127.59194395797 446.4515829333333 L 128.46760070053 446.4220746666667 L 129.34325744308 446.3933162666667 L 130.21891418564 446.3551338666667 L 131.0945709282 446.3267808 L 131.97022767075 446.2926112 L 132.84588441331 446.26413653333327 L 133.72154115587 446.2225290666667 L 134.59719789842 445.86741653333297 L 135.47285464098 445.408558933333 L 136.34851138354 445.078293333333 L 137.22416812609 444.6471808 L 138.09982486865 444.338174933333 L 138.97548161121 444.036465066667 L 139.85113835377 443.6127296 L 140.72679509632 443.190757333333 L 141.60245183888 442.666337066667 L 142.47810858144 442.125277866667 L 143.35376532399 441.651098666667 L 144.22942206655 441.1047904 L 145.10507880911 440.65464746666703 L 145.98073555166 440.130206933333 L 146.85639229422 439.669586133333 L 147.73204903678 439.3500416 L 148.60770577933 438.91368 L 149.48336252189 438.451620266667 L 150.35901926445 437.877506133333 L 151.23467600701 437.24775999999997 L 152.11033274956 436.605408 L 152.98598949212 436.404200533333 L 153.86164623468 436.263671466667 L 154.73730297723 436.127682133333 L 155.61295971979 435.9868896 L 156.48861646235 435.913179733333 L 157.3642732049 435.837341866667 L 158.23992994746 435.767259733333 L 159.11558669002 435.6965088 L 159.99124343257 435.5406176 L 160.86690017513 435.441169066667 L 161.74255691769 435.350759466667 L 162.61821366025 435.241745066667 L 163.4938704028 435.161630933333 L 164.36952714536 435.075984 L 165.24518388792 434.975441066667 L 166.12084063047 434.876174933333 L 166.99649737303 434.800235733333 L 167.87215411559 434.709096533333 L 168.74781085814 434.593860266667 L 169.6234676007 434.506551466667 L 170.49912434326 434.390180266667 L 171.37478108581 434.28448960000003 L 172.25043782837 434.142298666667 L 173.12609457093 434.032554666667 L 174.00175131349 433.9159808 L 174.87740805604 433.809013333333 L 175.7530647986 433.710416 L 176.62872154116 433.5734944 L 177.50437828371 433.453515733333 L 178.38003502627 433.2420736 L 179.25569176883 433.0934176 L 180.13134851138 432.9414784 L 181.00700525394 432.802834133333 L 181.8826619965 432.650672 L 182.75831873905 432.5400768 L 183.63397548161 432.418760533333 L 184.50963222417 432.283966933333 L 185.38528896673 432.145464533333 L 186.26094570928 431.955099733333 L 187.13660245184 431.636426666667 L 188.0122591944 431.4461024 L 188.88791593695 431.288670933333 L 189.76357267951 431.121856 L 190.63922942207 430.924843733333 L 191.51488616462 430.745504 L 192.39054290718 430.606434133333 L 193.26619964974 430.4666144 L 194.14185639229 430.307744 L 195.01751313485 430.1491168 L 195.89316987741 429.994826666667 L 196.76882661996 429.8279712 L 197.64448336252 429.598187733333 L 198.52014010508 429.350914133333 L 199.39579684764 429.052325333333 L 200.27145359019 428.741819733333 L 201.14711033275 428.393435733333 L 202.02276707531 428.030398933333 L 202.89842381786 427.7086048 L 203.77408056042 427.359876266667 L 204.64973730298 427.229115733333 L 205.52539404553 427.136578133333 L 206.40105078809 426.923474133333 L 207.27670753065 426.558167466667 L 208.1523642732 426.2804736 L 209.02802101576 425.8725056 L 209.90367775832 425.367764266667 L 210.77933450088 424.8477216 L 211.65499124343 424.3439936 L 212.53064798599 423.981949866667 L 213.40630472855 423.7497952 L 214.2819614711 423.428244266667 L 215.15761821366 423.2042368 L 216.03327495622 423.038192 L 216.90893169877 422.857453866667 L 217.78458844133 422.464381866667 L 218.66024518389 422.326669866667 L 219.53590192644 422.205495466667 L 220.411558669 421.895557333333 L 221.28721541156 421.3596864 L 222.16287215412 421.021922133333 L 223.03852889667 420.6936832 L 223.91418563923 420.370794666667 L 224.78984238179 419.913153066667 L 225.66549912434 419.6870784 L 226.5411558669 419.424625066667 L 227.41681260946 419.136574933333 L 228.29246935201 418.833405866667 L 229.16812609457 418.463397333333 L 230.04378283713 417.9804832 L 230.91943957968 417.707693866667 L 231.79509632224 417.351912533333 L 232.6707530648 416.879152 L 233.54640980736 416.682362666667 L 234.42206654991 416.6482944 L 235.29772329247 416.3281824 L 236.17338003503 415.788987733333 L 237.04903677758 415.337345066667 L 237.92469352014 415.089524266667 L 238.8003502627 414.406436266667 L 239.67600700525 414.093822933333 L 240.55166374781 413.517256533333 L 241.42732049037 413.103755733333 L 242.30297723292 413.031464533333 L 243.17863397548 412.9769472 L 244.05429071804 412.924922666667 L 244.9299474606 412.8844704 L 245.80560420315 412.838404266667 L 246.68126094571 412.785690666667 L 247.55691768827 412.739421866667 L 248.43257443082 412.671994666667 L 249.30823117338 412.600270933333 L 250.18388791594 412.518312533333 L 251.05954465849 412.450277333333 L 251.93520140105 412.3615904 L 252.81085814361 412.2891776 L 253.68651488616 412.192769066667 L 254.56217162872 412.011463466667 L 255.43782837128 411.84552 L 256.31348511384 411.472491733333 L 257.18914185639 405.8223072 L 258.06479859895 398.110050133333 L 258.94045534151 386.58285653333303 L 259.81611208406 380.2770048 L 260.69176882662 380.150885333333 L 261.56742556918 376.456778666667 L 262.44308231173 376.33984 L 263.31873905429 376.237473066667 L 264.19439579685 376.113137066667 L 265.0700525394 375.968676266667 L 265.94570928196 375.8536224 L 266.82136602452 375.683605333333 L 267.69702276708 375.473054933333 L 268.57267950963 375.239501866667 L 269.44833625219 375.080104533333 L 270.32399299475 374.950174933333 L 271.1996497373 374.792317866667 L 272.07530647986 374.670535466667 L 272.95096322242 374.5250816 L 273.82661996497 374.341870933333 L 274.70227670753 374.147736533333 L 275.57793345009 373.808573866667 L 276.45359019264 373.602036266667 L 277.3292469352 373.4380992 L 278.20490367776 373.278174933333 L 279.08056042032 373.1343424 L 279.95621716287 373.013796266667 L 280.83187390543 372.931493333333 L 281.70753064799 372.848237866667 L 282.58318739054 372.78778239999997 L 283.4588441331 372.723841066667 L 284.33450087566 372.66703359999997 L 285.21015761821 372.61476586666697 L 286.08581436077 372.556114133333 L 286.96147110333 372.502103466667 L 287.83712784588 372.42164479999997 L 288.71278458844 372.29457279999997 L 289.588441331 372.1563136 L 290.46409807356 372.092189866667 L 291.33975481611 372.03669973333297 L 292.21541155867 371.9630912 L 293.09106830123 371.91303253333297 L 293.96672504378 371.8738976 L 294.84238178634 371.83453973333303 L 295.7180385289 371.76419413333304 L 296.59369527145 371.71354773333303 L 297.46935201401 371.6440736 L 298.34500875657 371.570465066667 L 299.22066549912 371.504618666667 L 300.09632224168 371.450648533333 L 300.97197898424 371.384964266667 L 301.8476357268 371.347349333333 L 302.72329246935 371.301485866667 L 303.59894921191 371.259371733333 L 304.47460595447 371.201186133333 L 305.35026269702 371.150904533333 L 306.22591943958 371.0460448 L 307.10157618214 370.768877866667 L 307.97723292469 369.8547296 L 308.85288966725 368.9209632 L 309.72854640981 367.341521066667 L 310.60420315236 364.9034208 L 311.47985989492 362.739528533333 L 312.35551663748 361.1310848 L 313.23117338004 359.62950720000003 L 314.10683012259 354.08858026666996 L 314.98248686515 350.9264736 L 315.85814360771 350.8989312 L 316.73380035026 350.85791146667 L 317.60945709282 350.79601706667 L 318.48511383538 350.74427626667 L 319.36077057793 350.69877759999997 L 320.23642732049 350.65905493333 L 321.11208406305 350.618096 L 321.9877408056 350.56688213333 L 322.86339754816 350.51568853333004 L 323.73905429072 350.45663146667 L 324.61471103327 350.3999456 L 325.49036777583 350.33857813333 L 326.36602451839 350.29054613333 L 327.24168126095 350.23467093333 L 328.1173380035 350.19689386667 L 328.99299474606 350.14861866667 L 329.86865148862 350.09529706667 L 330.74430823117 349.99797653333 L 331.61996497373 349.92882666667003 L 332.49562171629 349.8593728 L 333.37127845884 349.67488533333 L 334.2469352014 347.22075413333 L 335.12259194396 345.19025706667003 L 335.99824868651 343.29232426667 L 336.87390542907 341.58315519999996 L 337.74956217163 339.97254293333003 L 338.62521891419 338.3316928 L 339.50087565674 336.19064106666997 L 340.3765323993 334.20077866667 L 341.25218914186 332.3946336 L 342.12784588441 330.61657813333 L 343.00350262697 328.940464 L 343.87915936953 327.44395306667 L 344.75481611208 326.04004053333 L 345.63047285464 324.42590186666996 L 346.5061295972 322.75870506667 L 347.38178633975 321.22776106667004 L 348.25744308231 319.4523808 L 349.13309982487 317.80457920000003 L 350.00875656743 316.20697813333004 L 350.88441330998 314.11709973333 L 351.76007005254 310.50977493333 L 352.6357267951 306.95881173333 L 353.51138353765 296.3245472 L 354.38704028021 287.06330879999996 L 355.26269702277 272.92698453333 L 356.13835376532 268.37456426667 L 357.01401050788 264.52235733333 L 357.88966725044 260.11099306667 L 358.76532399299 255.35462933333 L 359.64098073555 250.93215893333 L 360.51663747811 246.79317866667 L 361.39229422067 243.26813653333 L 362.26795096322 240.24866666667 L 363.14360770578 237.42021013333 L 364.01926444834 234.2341888 L 364.89492119089 231.2680608 L 365.77057793345 228.5327296 L 366.64623467601 226.0967168 L 367.52189141856 223.96496746667 L 368.39754816112 221.90161813333 L 369.27320490368 219.9277664 L 370.14886164623 217.70797866667 L 371.02451838879 215.3941536 L 371.90017513135 212.99646506667 L 372.77583187391 209.704976 L 373.65148861646 205.60934613333 L 374.52714535902 201.68395626667 L 375.40280210158 197.98719466667 L 376.27845884413 193.93568533333 L 377.15411558669 190.25663680000002 L 378.02977232925 187.17590080000002 L 378.9054290718 184.31749013333 L 379.78108581436 182.13341226667 L 380.65674255692 180.46214186666998 L 381.53239929947 178.79259413333 L 382.40805604203 176.92074453332998 L 383.28371278459 175.01924480000002 L 384.15936952715 172.41175573332998 L 385.0350262697 170.76332586667002 L 385.91068301226 169.05861546667 L 386.78633975482 167.57126506666998 L 387.66199649737 166.1470048 L 388.53765323993 164.61626346666998 L 389.41330998249 163.00670506667 L 390.28896672504 161.3853312 L 391.1646234676 159.82123093333 L 392.04028021016 158.69101973333 L 392.91593695271 157.46401493333002 L 393.79159369527 156.10762773333 L 394.66725043783 154.77312853333 L 395.54290718039 153.33281706666997 L 396.41856392294 151.69283840000003 L 397.2942206655 149.8960768 L 398.16987740806 148.42050133332998 L 399.04553415061 147.05570346667002 L 399.92119089317 145.75077333333002 L 400.79684763573 144.37071466666998 L 401.67250437828 142.95749973333 L 402.54816112084 141.5544992 L 403.4238178634 140.44056213333 L 404.29947460595 139.45317013333 L 405.17513134851 138.4971104 L 406.05078809107 137.4979232 L 406.92644483363 136.43749013333002 L 407.80210157618 135.40478186667002 L 408.67775831874 134.29931626667002 L 409.5534150613 133.34589119999998 L 410.42907180385 132.35021013333 L 411.30472854641 131.26156586667003 L 412.18038528897 130.10687253332998 L 413.05604203152 128.79863893332998 L 413.93169877408 127.52321706666999 L 414.80735551664 126.08626986667002 L 415.68301225919 124.95184319999998 L 416.55866900175 124.01671893333003 L 417.43432574431 123.07739946666999 L 418.30998248687 122.09807360000002 L 419.18563922942 121.06690559999998 L 420.06129597198 120.01747733333002 L 420.93695271454 118.98308693333001 L 421.81260945709 118.06504746667002 L 422.68826619965 117.23703253333002 L 423.56392294221 116.37227413333 L 424.43957968476 115.53078186667 L 425.31523642732 114.59413760000001 L 426.19089316988 113.50908053333 L 427.06654991243 112.49886826667 L 427.94220665499 111.48514986666999 L 428.81786339755 110.50442559999999 L 429.69352014011 109.62779093333 L 430.56917688266 108.7062656 L 431.44483362522 107.72369706667001 L 432.32049036778 106.78133759999997 L 433.19614711033 105.80103893333 L 434.07180385289 104.52190826666998 L 434.94746059545 103.36190506666998 L 435.823117338 102.43448213333 L 436.69877408056 101.49159573332997 L 437.57443082312 100.58964800000001 L 438.45008756567 99.73798186667 L 439.32574430823 98.82865706667002 L 440.20140105079 97.97583573332997 L 441.07705779334 97.19650133332999 L 441.9527145359 96.48114880000003 L 442.82837127846 95.71885866666997 L 443.70402802102 94.77718826667001 L 444.57968476357 93.92985920000001 L 445.45534150613 93.13528426667 L 446.33099824869 92.36188800000002 L 447.20665499124 91.65265599999998 L 448.0823117338 90.95071999999999 L 448.95796847636 90.91316586667 L 449.83362521891 90.05811519999997 L 450.70928196147 89.15503253332997 L 451.58493870403 88.29343573333 L 452.46059544658 87.44126293333 L 453.33625218914 86.52672960000001 L 454.2119089317 85.47480853333002 L 455.08756567426 84.49059840000001 L 455.96322241681 83.36320426666998 L 456.83887915937 82.23812053333 L 457.71453590193 81.10251840000001 L 458.59019264448 79.97958293333 L 459.46584938704 78.9005856 L 460.3415061296 77.97208853333001 L 461.21716287215 77.09954773332998 L 462.09281961471 76.13615146667001 L 462.96847635727 75.10960426666998 L 463.84413309982 73.91393173333 L 464.71978984238 72.63001813333 L 465.59544658494 71.31811626667002 L 466.4711033275 69.71214506667002 L 467.34676007005 68.13537813333 L 468.22241681261 66.12054719999998 L 469.09807355517 63.470417066669995 L 469.97373029772 61.778434133329995 L 470.84938704028 60.11920213333002 L 471.72504378284 58.54806933332998 L 472.60070052539 57.03739200000001 L 473.47635726795 55.60277546666998 L 474.35201401051 54.26604693333002 L 475.22767075306 53.135653333330026 L 476.10332749562 51.930333866670026 L 476.97898423818 50.79586666667001 L 477.85464098074 49.74171626666998 L 478.73029772329 48.67098773332998 L 479.60595446585 47.573223466670015 L 480.48161120841 46.57476586667002 L 481.35726795096 45.67062933333 L 482.23292469352 44.753218133329995 L 483.10858143608 43.851108266669996 L 483.98423817863 42.96346879999999 L 484.85989492119 42.09224533333003 L 485.73555166375 41.21694826666999 L 486.6112084063 40.375820799999985 L 487.48686514886 39.89229866667 L 488.36252189142 39.157246933329986 L 489.23817863398 38.38956586667001 L 490.11383537653 37.67277439999998 L 490.98949211909 36.982836266670006 L 491.86514886165 36.21610773332998 L 492.7408056042 35.558434133330024 L 493.61646234676 34.87567039999999 L 494.49211908932 34.182793600000025 L 495.36777583187 33.488599466669996 L 496.24343257443 32.825778133330004 L 497.11908931699 32.15335040000002 L 497.99474605954 31.480699733330027 L 498.8704028021 30.774183466670024 L 499.74605954466 29.977987199999973 L 500.62171628722 29.214947199999983 L 501.49737302977 28.505451733330005 L 502.37302977233 27.809575466670026 L 503.24868651489 27.136499200000003 L 504.12434325744 26.40067733333001 L 505 25.68137280000002 L 505 456 L 504.12434325744 456 L 503.24868651489 456 L 502.37302977233 456 L 501.49737302977 456 L 500.62171628722 456 L 499.74605954466 456 L 498.8704028021 456 L 497.99474605954 456 L 497.11908931699 456 L 496.24343257443 456 L 495.36777583187 456 L 494.49211908932 456 L 493.61646234676 456 L 492.7408056042 456 L 491.86514886165 456 L 490.98949211909 456 L 490.11383537653 456 L 489.23817863398 456 L 488.36252189142 456 L 487.48686514886 456 L 486.6112084063 456 L 485.73555166375 456 L 484.85989492119 456 L 483.98423817863 456 L 483.10858143608 456 L 482.23292469352 456 L 481.35726795096 456 L 480.48161120841 456 L 479.60595446585 456 L 478.73029772329 456 L 477.85464098074 456 L 476.97898423818 456 L 476.10332749562 456 L 475.22767075306 456 L 474.35201401051 456 L 473.47635726795 456 L 472.60070052539 456 L 471.72504378284 456 L 470.84938704028 456 L 469.97373029772 456 L 469.09807355517 456 L 468.22241681261 456 L 467.34676007005 456 L 466.4711033275 456 L 465.59544658494 456 L 464.71978984238 456 L 463.84413309982 456 L 462.96847635727 456 L 462.09281961471 456 L 461.21716287215 456 L 460.3415061296 456 L 459.46584938704 456 L 458.59019264448 456 L 457.71453590193 456 L 456.83887915937 456 L 455.96322241681 456 L 455.08756567426 456 L 454.2119089317 456 L 453.33625218914 456 L 452.46059544658 456 L 451.58493870403 456 L 450.70928196147 456 L 449.83362521891 456 L 448.95796847636 456 L 448.0823117338 456 L 447.20665499124 456 L 446.33099824869 456 L 445.45534150613 456 L 444.57968476357 456 L 443.70402802102 456 L 442.82837127846 456 L 441.9527145359 456 L 441.07705779334 456 L 440.20140105079 456 L 439.32574430823 456 L 438.45008756567 456 L 437.57443082312 456 L 436.69877408056 456 L 435.823117338 456 L 434.94746059545 456 L 434.07180385289 456 L 433.19614711033 456 L 432.32049036778 456 L 431.44483362522 456 L 430.56917688266 456 L 429.69352014011 456 L 428.81786339755 456 L 427.94220665499 456 L 427.06654991243 456 L 426.19089316988 456 L 425.31523642732 456 L 424.43957968476 456 L 423.56392294221 456 L 422.68826619965 456 L 421.81260945709 456 L 420.93695271454 456 L 420.06129597198 456 L 419.18563922942 456 L 418.30998248687 456 L 417.43432574431 456 L 416.55866900175 456 L 415.68301225919 456 L 414.80735551664 456 L 413.93169877408 456 L 413.05604203152 456 L 412.18038528897 456 L 411.30472854641 456 L 410.42907180385 456 L 409.5534150613 456 L 408.67775831874 456 L 407.80210157618 456 L 406.92644483363 456 L 406.05078809107 456 L 405.17513134851 456 L 404.29947460595 456 L 403.4238178634 456 L 402.54816112084 456 L 401.67250437828 456 L 400.79684763573 456 L 399.92119089317 456 L 399.04553415061 456 L 398.16987740806 456 L 397.2942206655 456 L 396.41856392294 456 L 395.54290718039 456 L 394.66725043783 456 L 393.79159369527 456 L 392.91593695271 456 L 392.04028021016 456 L 391.1646234676 456 L 390.28896672504 456 L 389.41330998249 456 L 388.53765323993 456 L 387.66199649737 456 L 386.78633975482 456 L 385.91068301226 456 L 385.0350262697 456 L 384.15936952715 456 L 383.28371278459 456 L 382.40805604203 456 L 381.53239929947 456 L 380.65674255692 456 L 379.78108581436 456 L 378.9054290718 456 L 378.02977232925 456 L 377.15411558669 456 L 376.27845884413 456 L 375.40280210158 456 L 374.52714535902 456 L 373.65148861646 456 L 372.77583187391 456 L 371.90017513135 456 L 371.02451838879 456 L 370.14886164623 456 L 369.27320490368 456 L 368.39754816112 456 L 367.52189141856 456 L 366.64623467601 456 L 365.77057793345 456 L 364.89492119089 456 L 364.01926444834 456 L 363.14360770578 456 L 362.26795096322 456 L 361.39229422067 456 L 360.51663747811 456 L 359.64098073555 456 L 358.76532399299 456 L 357.88966725044 456 L 357.01401050788 456 L 356.13835376532 456 L 355.26269702277 456 L 354.38704028021 456 L 353.51138353765 456 L 352.6357267951 456 L 351.76007005254 456 L 350.88441330998 456 L 350.00875656743 456 L 349.13309982487 456 L 348.25744308231 456 L 347.38178633975 456 L 346.5061295972 456 L 345.63047285464 456 L 344.75481611208 456 L 343.87915936953 456 L 343.00350262697 456 L 342.12784588441 456 L 341.25218914186 456 L 340.3765323993 456 L 339.50087565674 456 L 338.62521891419 456 L 337.74956217163 456 L 336.87390542907 456 L 335.99824868651 456 L 335.12259194396 456 L 334.2469352014 456 L 333.37127845884 456 L 332.49562171629 456 L 331.61996497373 456 L 330.74430823117 456 L 329.86865148862 456 L 328.99299474606 456 L 328.1173380035 456 L 327.24168126095 456 L 326.36602451839 456 L 325.49036777583 456 L 324.61471103327 456 L 323.73905429072 456 L 322.86339754816 456 L 321.9877408056 456 L 321.11208406305 456 L 320.23642732049 456 L 319.36077057793 456 L 318.48511383538 456 L 317.60945709282 456 L 316.73380035026 456 L 315.85814360771 456 L 314.98248686515 456 L 314.10683012259 456 L 313.23117338004 456 L 312.35551663748 456 L 311.47985989492 456 L 310.60420315236 456 L 309.72854640981 456 L 308.85288966725 456 L 307.97723292469 456 L 307.10157618214 456 L 306.22591943958 456 L 305.35026269702 456 L 304.47460595447 456 L 303.59894921191 456 L 302.72329246935 456 L 301.8476357268 456 L 300.97197898424 456 L 300.09632224168 456 L 299.22066549912 456 L 298.34500875657 456 L 297.46935201401 456 L 296.59369527145 456 L 295.7180385289 456 L 294.84238178634 456 L 293.96672504378 456 L 293.09106830123 456 L 292.21541155867 456 L 291.33975481611 456 L 290.46409807356 456 L 289.588441331 456 L 288.71278458844 456 L 287.83712784588 456 L 286.96147110333 456 L 286.08581436077 456 L 285.21015761821 456 L 284.33450087566 456 L 283.4588441331 456 L 282.58318739054 456 L 281.70753064799 456 L 280.83187390543 456 L 279.95621716287 456 L 279.08056042032 456 L 278.20490367776 456 L 277.3292469352 456 L 276.45359019264 456 L 275.57793345009 456 L 274.70227670753 456 L 273.82661996497 456 L 272.95096322242 456 L 272.07530647986 456 L 271.1996497373 456 L 270.32399299475 456 L 269.44833625219 456 L 268.57267950963 456 L 267.69702276708 456 L 266.82136602452 456 L 265.94570928196 456 L 265.0700525394 456 L 264.19439579685 456 L 263.31873905429 456 L 262.44308231173 456 L 261.56742556918 456 L 260.69176882662 456 L 259.81611208406 456 L 258.94045534151 456 L 258.06479859895 456 L 257.18914185639 456 L 256.31348511384 456 L 255.43782837128 456 L 254.56217162872 456 L 253.68651488616 456 L 252.81085814361 456 L 251.93520140105 456 L 251.05954465849 456 L 250.18388791594 456 L 249.30823117338 456 L 248.43257443082 456 L 247.55691768827 456 L 246.68126094571 456 L 245.80560420315 456 L 244.9299474606 456 L 244.05429071804 456 L 243.17863397548 456 L 242.30297723292 456 L 241.42732049037 456 L 240.55166374781 456 L 239.67600700525 456 L 238.8003502627 456 L 237.92469352014 456 L 237.04903677758 456 L 236.17338003503 456 L 235.29772329247 456 L 234.42206654991 456 L 233.54640980736 456 L 232.6707530648 456 L 231.79509632224 456 L 230.91943957968 456 L 230.04378283713 456 L 229.16812609457 456 L 228.29246935201 456 L 227.41681260946 456 L 226.5411558669 456 L 225.66549912434 456 L 224.78984238179 456 L 223.91418563923 456 L 223.03852889667 456 L 222.16287215412 456 L 221.28721541156 456 L 220.411558669 456 L 219.53590192644 456 L 218.66024518389 456 L 217.78458844133 456 L 216.90893169877 456 L 216.03327495622 456 L 215.15761821366 456 L 214.2819614711 456 L 213.40630472855 456 L 212.53064798599 456 L 211.65499124343 456 L 210.77933450088 456 L 209.90367775832 456 L 209.02802101576 456 L 208.1523642732 456 L 207.27670753065 456 L 206.40105078809 456 L 205.52539404553 456 L 204.64973730298 456 L 203.77408056042 456 L 202.89842381786 456 L 202.02276707531 456 L 201.14711033275 456 L 200.27145359019 456 L 199.39579684764 456 L 198.52014010508 456 L 197.64448336252 456 L 196.76882661996 456 L 195.89316987741 456 L 195.01751313485 456 L 194.14185639229 456 L 193.26619964974 456 L 192.39054290718 456 L 191.51488616462 456 L 190.63922942207 456 L 189.76357267951 456 L 188.88791593695 456 L 188.0122591944 456 L 187.13660245184 456 L 186.26094570928 456 L 185.38528896673 456 L 184.50963222417 456 L 183.63397548161 456 L 182.75831873905 456 L 181.8826619965 456 L 181.00700525394 456 L 180.13134851138 456 L 179.25569176883 456 L 178.38003502627 456 L 177.50437828371 456 L 176.62872154116 456 L 175.7530647986 456 L 174.87740805604 456 L 174.00175131349 456 L 173.12609457093 456 L 172.25043782837 456 L 171.37478108581 456 L 170.49912434326 456 L 169.6234676007 456 L 168.74781085814 456 L 167.87215411559 456 L 166.99649737303 456 L 166.12084063047 456 L 165.24518388792 456 L 164.36952714536 456 L 163.4938704028 456 L 162.61821366025 456 L 161.74255691769 456 L 160.86690017513 456 L 159.99124343257 456 L 159.11558669002 456 L 158.23992994746 456 L 157.3642732049 456 L 156.48861646235 456 L 155.61295971979 456 L 154.73730297723 456 L 153.86164623468 456 L 152.98598949212 456 L 152.11033274956 456 L 151.23467600701 456 L 150.35901926445 456 L 149.48336252189 456 L 148.60770577933 456 L 147.73204903678 456 L 146.85639229422 456 L 145.98073555166 456 L 145.10507880911 456 L 144.22942206655 456 L 143.35376532399 456 L 142.47810858144 456 L 141.60245183888 456 L 140.72679509632 456 L 139.85113835377 456 L 138.97548161121 456 L 138.09982486865 456 L 137.22416812609 456 L 136.34851138354 456 L 135.47285464098 456 L 134.59719789842 456 L 133.72154115587 456 L 132.84588441331 456 L 131.97022767075 456 L 131.0945709282 456 L 130.21891418564 456 L 129.34325744308 456 L 128.46760070053 456 L 127.59194395797 456 L 126.71628721541 456 L 125.84063047285 456 L 124.9649737303 456 L 124.08931698774 456 L 123.21366024518 456 L 122.33800350263 456 L 121.46234676007 456 L 120.58669001751 456 L 119.71103327496 456 L 118.8353765324 456 L 117.95971978984 456 L 117.08406304729 456 L 116.20840630473 456 L 115.33274956217 456 L 114.45709281961 456 L 113.58143607706 456 L 112.7057793345 456 L 111.83012259194 456 L 110.95446584939 456 L 110.07880910683 456 L 109.20315236427 456 L 108.32749562172 456 L 107.45183887916 456 L 106.5761821366 456 L 105.70052539405 456 L 104.82486865149 456 L 103.94921190893 456 L 103.07355516637 456 L 102.19789842382 456 L 101.32224168126 456 L 100.4465849387 456 L 99.570928196147 456 L 98.69527145359 456 L 97.819614711033 456 L 96.943957968476 456 L 96.068301225919 456 L 95.192644483363 456 L 94.316987740806 456 L 93.441330998249 456 L 92.565674255692 456 L 91.690017513135 456 L 90.814360770578 456 L 89.938704028021 456 L 89.063047285464 456 L 88.187390542907 456 L 87.31173380035 456 L 86.436077057793 456 L 85.560420315236 456 L 84.68476357268 456 L 83.809106830123 456 L 82.933450087566 456 L 82.057793345009 456 L 81.182136602452 456 L 80.306479859895 456 L 79.430823117338 456 L 78.555166374781 456 L 77.679509632224 456 L 76.803852889667 456 L 75.92819614711 456 L 75.052539404553 456 L 74.176882661997 456 L 73.30122591944 456 L 72.425569176883 456 L 71.549912434326 456 L 70.674255691769 456 L 69.798598949212 456 L 68.922942206655 456 L 68.047285464098 456 L 67.171628721541 456 L 66.295971978984 456 L 65.420315236427 456 L 64.54465849387 456 L 63.669001751313 456 L 62.793345008757 456 L 61.9176882662 456 L 61.042031523643 456 L 60.166374781086 456 L 59.290718038529 456 L 58.415061295972 456 L 57.539404553415 456 L 56.663747810858 456 L 55.788091068301 456 L 54.912434325744 456 L 54.036777583187 456 L 53.16112084063 456 L 52.285464098074 456 L 51.409807355517 456 L 50.53415061296 456 L 49.658493870403 456 L 48.782837127846 456 L 47.907180385289 456 L 47.031523642732 456 L 46.155866900175 456 L 45.280210157618 456 L 44.404553415061 456 L 43.528896672504 456 L 42.653239929947 456 L 41.777583187391 456 L 40.901926444834 456 L 40.026269702277 456 L 39.15061295972 456 L 38.274956217163 456 L 37.399299474606 456 L 36.523642732049 456 L 35.647985989492 456 L 34.772329246935 456 L 33.896672504378 456 L 33.021015761821 456 L 32.145359019264 456 L 31.269702276708 456 L 30.394045534151 456 L 29.518388791594 456 L 28.642732049037 456 L 27.76707530648 456 L 26.891418563923 456 L 26.015761821366 456 L 25.140105078809 456 L 24.264448336252 456 L 23.388791593695 456 L 22.513134851138 456 L 21.637478108581 456 L 20.761821366025 456 L 19.886164623468 456 L 19.010507880911 456 L 18.134851138354 456 L 17.259194395797 456 L 16.38353765324 456 L 15.507880910683 456 L 14.632224168126 456 L 13.756567425569 456 L 12.880910683012 456 L 12.005253940455 456 L 11.129597197898 456 L 10.253940455342 456 L 9.3782837127846 456 L 8.5026269702277 456 L 7.6269702276708 456 L 6.7513134851138 456 L 5.8756567425569 456 L 5 456 Z" class="highcharts-area" data-z-index="0"></path><path fill="none" d="M 5 455.99469013333334 L 5.8756567425569 455.9801184 L 6.7513134851138 455.9769973333333 L 7.6269702276708 455.9739776 L 8.5026269702277 455.96949866666665 L 9.3782837127846 455.9561834666667 L 10.253940455342 455.928256 L 11.129597197898 455.912448 L 12.005253940455 455.8246528 L 12.880910683012 455.7939285333333 L 13.756567425569 455.76138026666666 L 14.632224168126 455.66750506666665 L 15.507880910683 455.52304426666666 L 16.38353765324 455.3936416 L 17.259194395797 455.3146218666667 L 18.134851138354 455.27218346666666 L 19.010507880911 455.2350954666667 L 19.886164623468 455.219632 L 20.761821366025 455.19648746666667 L 21.637478108581 455.16166933333335 L 22.513134851138 455.1380992 L 23.388791593695 455.06049813333334 L 24.264448336252 454.9813973333333 L 25.140105078809 454.9495584 L 26.015761821366 454.8965205333333 L 26.891418563923 454.7819733333333 L 27.76707530648 454.6120981333333 L 28.642732049037 454.4388992 L 29.518388791594 454.2686389333333 L 30.394045534151 454.1921930666667 L 31.269702276708 454.1383445333333 L 32.145359019264 454.1049653333333 L 33.021015761821 454.0723968 L 33.896672504378 454.0442869333333 L 34.772329246935 454.0130154666667 L 35.647985989492 453.9819466666667 L 36.523642732049 453.954384 L 37.399299474606 453.9265173333333 L 38.274956217163 453.9027242666667 L 39.15061295972 453.8807754666667 L 40.026269702277 453.8584213333333 L 40.901926444834 453.8394517333333 L 41.777583187391 453.8238869333333 L 42.653239929947 453.7816309333333 L 43.528896672504 453.7299914666667 L 44.404553415061 453.7021045333333 L 45.280210157618 453.6392373333333 L 46.155866900175 453.5642506666667 L 47.031523642732 453.3890048 L 47.907180385289 453.3357642666667 L 48.782837127846 453.2524277333333 L 49.658493870403 453.2186634666667 L 50.53415061296 453.20472 L 51.409807355517 453.1926613333333 L 52.285464098074 453.1749482666667 L 53.16112084063 453.1526954666667 L 54.036777583187 453.1297130666667 L 54.912434325744 453.1071765333333 L 55.788091068301 453.0779925333333 L 56.663747810858 453.0461130666667 L 57.539404553415 452.9612362666667 L 58.415061295972 452.9106709333333 L 59.290718038529 452.8567210666667 L 60.166374781086 452.7958602666667 L 61.042031523643 452.6767733333333 L 61.9176882662 452.3646666666667 L 62.793345008757 452.2280896 L 63.669001751313 452.1421184 L 64.54465849387 452.0781770666667 L 65.420315236427 451.9264810666667 L 66.295971978984 451.787776 L 67.171628721541 451.5939658666667 L 68.047285464098 451.5411914666667 L 68.922942206655 451.4961386666667 L 69.798598949212 451.4568213333333 L 70.674255691769 451.4155786666667 L 71.549912434326 451.3446453333333 L 72.425569176883 451.2017856 L 73.30122591944 451.0056448 L 74.176882661997 450.8914218666667 L 75.052539404553 450.5995413333333 L 75.92819614711 450.4282272 L 76.803852889667 450.3910378666667 L 77.679509632224 450.3582666666667 L 78.555166374781 450.3218474666667 L 79.430823117338 450.2880426666667 L 80.306479859895 450.2591221333333 L 81.182136602452 450.2240810666667 L 82.057793345009 450.1901952 L 82.933450087566 450.1558432 L 83.809106830123 450.1276522666667 L 84.68476357268 450.0977994666667 L 85.560420315236 450.0640757333333 L 86.436077057793 450.0365536 L 87.31173380035 450.0064981333333 L 88.187390542907 449.9677482666667 L 89.063047285464 449.9248842666667 L 89.938704028021 449.885344 L 90.814360770578 449.8532416 L 91.690017513135 449.837008 L 92.565674255692 449.7969002666667 L 93.441330998249 449.778944 L 94.316987740806 449.7617578666667 L 95.192644483363 449.7355530666667 L 96.068301225919 449.6617216 L 96.943957968476 449.6268629333333 L 97.819614711033 449.5933216 L 98.69527145359 449.5479648 L 99.570928196147 449.5156597333333 L 100.4465849387 449.4866986666667 L 101.32224168126 449.4568458666667 L 102.19789842382 449.423264 L 103.07355516637 449.3617344 L 103.94921190893 449.3022314666667 L 104.82486865149 449.2546048 L 105.70052539405 449.1963989333333 L 106.5761821366 449.1267424 L 107.45183887916 449.0605109333333 L 108.32749562172 448.9797685333333 L 109.20315236427 448.8859338666667 L 110.07880910683 448.778176 L 110.95446584939 448.6651893333333 L 111.83012259194 448.5657205333333 L 112.7057793345 448.4620768 L 113.58143607706 448.3595477333333 L 114.45709281961 448.2487296 L 115.33274956217 448.1264608 L 116.20840630473 447.9985376 L 117.08406304729 447.8405589333333 L 117.95971978984 447.6768853333333 L 118.8353765324 447.5356469333333 L 119.71103327496 447.329616 L 120.58669001751 447.1127424 L 121.46234676007 446.810384 L 122.33800350263 446.6386848 L 123.21366024518 446.6195125333333 L 124.08931698774 446.6019413333333 L 124.9649737303 446.5837621333333 L 125.84063047285 446.5537472 L 126.71628721541 446.4819424 L 127.59194395797 446.4515829333333 L 128.46760070053 446.4220746666667 L 129.34325744308 446.3933162666667 L 130.21891418564 446.3551338666667 L 131.0945709282 446.3267808 L 131.97022767075 446.2926112 L 132.84588441331 446.26413653333327 L 133.72154115587 446.2225290666667 L 134.59719789842 445.86741653333297 L 135.47285464098 445.408558933333 L 136.34851138354 445.078293333333 L 137.22416812609 444.6471808 L 138.09982486865 444.338174933333 L 138.97548161121 444.036465066667 L 139.85113835377 443.6127296 L 140.72679509632 443.190757333333 L 141.60245183888 442.666337066667 L 142.47810858144 442.125277866667 L 143.35376532399 441.651098666667 L 144.22942206655 441.1047904 L 145.10507880911 440.65464746666703 L 145.98073555166 440.130206933333 L 146.85639229422 439.669586133333 L 147.73204903678 439.3500416 L 148.60770577933 438.91368 L 149.48336252189 438.451620266667 L 150.35901926445 437.877506133333 L 151.23467600701 437.24775999999997 L 152.11033274956 436.605408 L 152.98598949212 436.404200533333 L 153.86164623468 436.263671466667 L 154.73730297723 436.127682133333 L 155.61295971979 435.9868896 L 156.48861646235 435.913179733333 L 157.3642732049 435.837341866667 L 158.23992994746 435.767259733333 L 159.11558669002 435.6965088 L 159.99124343257 435.5406176 L 160.86690017513 435.441169066667 L 161.74255691769 435.350759466667 L 162.61821366025 435.241745066667 L 163.4938704028 435.161630933333 L 164.36952714536 435.075984 L 165.24518388792 434.975441066667 L 166.12084063047 434.876174933333 L 166.99649737303 434.800235733333 L 167.87215411559 434.709096533333 L 168.74781085814 434.593860266667 L 169.6234676007 434.506551466667 L 170.49912434326 434.390180266667 L 171.37478108581 434.28448960000003 L 172.25043782837 434.142298666667 L 173.12609457093 434.032554666667 L 174.00175131349 433.9159808 L 174.87740805604 433.809013333333 L 175.7530647986 433.710416 L 176.62872154116 433.5734944 L 177.50437828371 433.453515733333 L 178.38003502627 433.2420736 L 179.25569176883 433.0934176 L 180.13134851138 432.9414784 L 181.00700525394 432.802834133333 L 181.8826619965 432.650672 L 182.75831873905 432.5400768 L 183.63397548161 432.418760533333 L 184.50963222417 432.283966933333 L 185.38528896673 432.145464533333 L 186.26094570928 431.955099733333 L 187.13660245184 431.636426666667 L 188.0122591944 431.4461024 L 188.88791593695 431.288670933333 L 189.76357267951 431.121856 L 190.63922942207 430.924843733333 L 191.51488616462 430.745504 L 192.39054290718 430.606434133333 L 193.26619964974 430.4666144 L 194.14185639229 430.307744 L 195.01751313485 430.1491168 L 195.89316987741 429.994826666667 L 196.76882661996 429.8279712 L 197.64448336252 429.598187733333 L 198.52014010508 429.350914133333 L 199.39579684764 429.052325333333 L 200.27145359019 428.741819733333 L 201.14711033275 428.393435733333 L 202.02276707531 428.030398933333 L 202.89842381786 427.7086048 L 203.77408056042 427.359876266667 L 204.64973730298 427.229115733333 L 205.52539404553 427.136578133333 L 206.40105078809 426.923474133333 L 207.27670753065 426.558167466667 L 208.1523642732 426.2804736 L 209.02802101576 425.8725056 L 209.90367775832 425.367764266667 L 210.77933450088 424.8477216 L 211.65499124343 424.3439936 L 212.53064798599 423.981949866667 L 213.40630472855 423.7497952 L 214.2819614711 423.428244266667 L 215.15761821366 423.2042368 L 216.03327495622 423.038192 L 216.90893169877 422.857453866667 L 217.78458844133 422.464381866667 L 218.66024518389 422.326669866667 L 219.53590192644 422.205495466667 L 220.411558669 421.895557333333 L 221.28721541156 421.3596864 L 222.16287215412 421.021922133333 L 223.03852889667 420.6936832 L 223.91418563923 420.370794666667 L 224.78984238179 419.913153066667 L 225.66549912434 419.6870784 L 226.5411558669 419.424625066667 L 227.41681260946 419.136574933333 L 228.29246935201 418.833405866667 L 229.16812609457 418.463397333333 L 230.04378283713 417.9804832 L 230.91943957968 417.707693866667 L 231.79509632224 417.351912533333 L 232.6707530648 416.879152 L 233.54640980736 416.682362666667 L 234.42206654991 416.6482944 L 235.29772329247 416.3281824 L 236.17338003503 415.788987733333 L 237.04903677758 415.337345066667 L 237.92469352014 415.089524266667 L 238.8003502627 414.406436266667 L 239.67600700525 414.093822933333 L 240.55166374781 413.517256533333 L 241.42732049037 413.103755733333 L 242.30297723292 413.031464533333 L 243.17863397548 412.9769472 L 244.05429071804 412.924922666667 L 244.9299474606 412.8844704 L 245.80560420315 412.838404266667 L 246.68126094571 412.785690666667 L 247.55691768827 412.739421866667 L 248.43257443082 412.671994666667 L 249.30823117338 412.600270933333 L 250.18388791594 412.518312533333 L 251.05954465849 412.450277333333 L 251.93520140105 412.3615904 L 252.81085814361 412.2891776 L 253.68651488616 412.192769066667 L 254.56217162872 412.011463466667 L 255.43782837128 411.84552 L 256.31348511384 411.472491733333 L 257.18914185639 405.8223072 L 258.06479859895 398.110050133333 L 258.94045534151 386.58285653333303 L 259.81611208406 380.2770048 L 260.69176882662 380.150885333333 L 261.56742556918 376.456778666667 L 262.44308231173 376.33984 L 263.31873905429 376.237473066667 L 264.19439579685 376.113137066667 L 265.0700525394 375.968676266667 L 265.94570928196 375.8536224 L 266.82136602452 375.683605333333 L 267.69702276708 375.473054933333 L 268.57267950963 375.239501866667 L 269.44833625219 375.080104533333 L 270.32399299475 374.950174933333 L 271.1996497373 374.792317866667 L 272.07530647986 374.670535466667 L 272.95096322242 374.5250816 L 273.82661996497 374.341870933333 L 274.70227670753 374.147736533333 L 275.57793345009 373.808573866667 L 276.45359019264 373.602036266667 L 277.3292469352 373.4380992 L 278.20490367776 373.278174933333 L 279.08056042032 373.1343424 L 279.95621716287 373.013796266667 L 280.83187390543 372.931493333333 L 281.70753064799 372.848237866667 L 282.58318739054 372.78778239999997 L 283.4588441331 372.723841066667 L 284.33450087566 372.66703359999997 L 285.21015761821 372.61476586666697 L 286.08581436077 372.556114133333 L 286.96147110333 372.502103466667 L 287.83712784588 372.42164479999997 L 288.71278458844 372.29457279999997 L 289.588441331 372.1563136 L 290.46409807356 372.092189866667 L 291.33975481611 372.03669973333297 L 292.21541155867 371.9630912 L 293.09106830123 371.91303253333297 L 293.96672504378 371.8738976 L 294.84238178634 371.83453973333303 L 295.7180385289 371.76419413333304 L 296.59369527145 371.71354773333303 L 297.46935201401 371.6440736 L 298.34500875657 371.570465066667 L 299.22066549912 371.504618666667 L 300.09632224168 371.450648533333 L 300.97197898424 371.384964266667 L 301.8476357268 371.347349333333 L 302.72329246935 371.301485866667 L 303.59894921191 371.259371733333 L 304.47460595447 371.201186133333 L 305.35026269702 371.150904533333 L 306.22591943958 371.0460448 L 307.10157618214 370.768877866667 L 307.97723292469 369.8547296 L 308.85288966725 368.9209632 L 309.72854640981 367.341521066667 L 310.60420315236 364.9034208 L 311.47985989492 362.739528533333 L 312.35551663748 361.1310848 L 313.23117338004 359.62950720000003 L 314.10683012259 354.08858026666996 L 314.98248686515 350.9264736 L 315.85814360771 350.8989312 L 316.73380035026 350.85791146667 L 317.60945709282 350.79601706667 L 318.48511383538 350.74427626667 L 319.36077057793 350.69877759999997 L 320.23642732049 350.65905493333 L 321.11208406305 350.618096 L 321.9877408056 350.56688213333 L 322.86339754816 350.51568853333004 L 323.73905429072 350.45663146667 L 324.61471103327 350.3999456 L 325.49036777583 350.33857813333 L 326.36602451839 350.29054613333 L 327.24168126095 350.23467093333 L 328.1173380035 350.19689386667 L 328.99299474606 350.14861866667 L 329.86865148862 350.09529706667 L 330.74430823117 349.99797653333 L 331.61996497373 349.92882666667003 L 332.49562171629 349.8593728 L 333.37127845884 349.67488533333 L 334.2469352014 347.22075413333 L 335.12259194396 345.19025706667003 L 335.99824868651 343.29232426667 L 336.87390542907 341.58315519999996 L 337.74956217163 339.97254293333003 L 338.62521891419 338.3316928 L 339.50087565674 336.19064106666997 L 340.3765323993 334.20077866667 L 341.25218914186 332.3946336 L 342.12784588441 330.61657813333 L 343.00350262697 328.940464 L 343.87915936953 327.44395306667 L 344.75481611208 326.04004053333 L 345.63047285464 324.42590186666996 L 346.5061295972 322.75870506667 L 347.38178633975 321.22776106667004 L 348.25744308231 319.4523808 L 349.13309982487 317.80457920000003 L 350.00875656743 316.20697813333004 L 350.88441330998 314.11709973333 L 351.76007005254 310.50977493333 L 352.6357267951 306.95881173333 L 353.51138353765 296.3245472 L 354.38704028021 287.06330879999996 L 355.26269702277 272.92698453333 L 356.13835376532 268.37456426667 L 357.01401050788 264.52235733333 L 357.88966725044 260.11099306667 L 358.76532399299 255.35462933333 L 359.64098073555 250.93215893333 L 360.51663747811 246.79317866667 L 361.39229422067 243.26813653333 L 362.26795096322 240.24866666667 L 363.14360770578 237.42021013333 L 364.01926444834 234.2341888 L 364.89492119089 231.2680608 L 365.77057793345 228.5327296 L 366.64623467601 226.0967168 L 367.52189141856 223.96496746667 L 368.39754816112 221.90161813333 L 369.27320490368 219.9277664 L 370.14886164623 217.70797866667 L 371.02451838879 215.3941536 L 371.90017513135 212.99646506667 L 372.77583187391 209.704976 L 373.65148861646 205.60934613333 L 374.52714535902 201.68395626667 L 375.40280210158 197.98719466667 L 376.27845884413 193.93568533333 L 377.15411558669 190.25663680000002 L 378.02977232925 187.17590080000002 L 378.9054290718 184.31749013333 L 379.78108581436 182.13341226667 L 380.65674255692 180.46214186666998 L 381.53239929947 178.79259413333 L 382.40805604203 176.92074453332998 L 383.28371278459 175.01924480000002 L 384.15936952715 172.41175573332998 L 385.0350262697 170.76332586667002 L 385.91068301226 169.05861546667 L 386.78633975482 167.57126506666998 L 387.66199649737 166.1470048 L 388.53765323993 164.61626346666998 L 389.41330998249 163.00670506667 L 390.28896672504 161.3853312 L 391.1646234676 159.82123093333 L 392.04028021016 158.69101973333 L 392.91593695271 157.46401493333002 L 393.79159369527 156.10762773333 L 394.66725043783 154.77312853333 L 395.54290718039 153.33281706666997 L 396.41856392294 151.69283840000003 L 397.2942206655 149.8960768 L 398.16987740806 148.42050133332998 L 399.04553415061 147.05570346667002 L 399.92119089317 145.75077333333002 L 400.79684763573 144.37071466666998 L 401.67250437828 142.95749973333 L 402.54816112084 141.5544992 L 403.4238178634 140.44056213333 L 404.29947460595 139.45317013333 L 405.17513134851 138.4971104 L 406.05078809107 137.4979232 L 406.92644483363 136.43749013333002 L 407.80210157618 135.40478186667002 L 408.67775831874 134.29931626667002 L 409.5534150613 133.34589119999998 L 410.42907180385 132.35021013333 L 411.30472854641 131.26156586667003 L 412.18038528897 130.10687253332998 L 413.05604203152 128.79863893332998 L 413.93169877408 127.52321706666999 L 414.80735551664 126.08626986667002 L 415.68301225919 124.95184319999998 L 416.55866900175 124.01671893333003 L 417.43432574431 123.07739946666999 L 418.30998248687 122.09807360000002 L 419.18563922942 121.06690559999998 L 420.06129597198 120.01747733333002 L 420.93695271454 118.98308693333001 L 421.81260945709 118.06504746667002 L 422.68826619965 117.23703253333002 L 423.56392294221 116.37227413333 L 424.43957968476 115.53078186667 L 425.31523642732 114.59413760000001 L 426.19089316988 113.50908053333 L 427.06654991243 112.49886826667 L 427.94220665499 111.48514986666999 L 428.81786339755 110.50442559999999 L 429.69352014011 109.62779093333 L 430.56917688266 108.7062656 L 431.44483362522 107.72369706667001 L 432.32049036778 106.78133759999997 L 433.19614711033 105.80103893333 L 434.07180385289 104.52190826666998 L 434.94746059545 103.36190506666998 L 435.823117338 102.43448213333 L 436.69877408056 101.49159573332997 L 437.57443082312 100.58964800000001 L 438.45008756567 99.73798186667 L 439.32574430823 98.82865706667002 L 440.20140105079 97.97583573332997 L 441.07705779334 97.19650133332999 L 441.9527145359 96.48114880000003 L 442.82837127846 95.71885866666997 L 443.70402802102 94.77718826667001 L 444.57968476357 93.92985920000001 L 445.45534150613 93.13528426667 L 446.33099824869 92.36188800000002 L 447.20665499124 91.65265599999998 L 448.0823117338 90.95071999999999 L 448.95796847636 90.91316586667 L 449.83362521891 90.05811519999997 L 450.70928196147 89.15503253332997 L 451.58493870403 88.29343573333 L 452.46059544658 87.44126293333 L 453.33625218914 86.52672960000001 L 454.2119089317 85.47480853333002 L 455.08756567426 84.49059840000001 L 455.96322241681 83.36320426666998 L 456.83887915937 82.23812053333 L 457.71453590193 81.10251840000001 L 458.59019264448 79.97958293333 L 459.46584938704 78.9005856 L 460.3415061296 77.97208853333001 L 461.21716287215 77.09954773332998 L 462.09281961471 76.13615146667001 L 462.96847635727 75.10960426666998 L 463.84413309982 73.91393173333 L 464.71978984238 72.63001813333 L 465.59544658494 71.31811626667002 L 466.4711033275 69.71214506667002 L 467.34676007005 68.13537813333 L 468.22241681261 66.12054719999998 L 469.09807355517 63.470417066669995 L 469.97373029772 61.778434133329995 L 470.84938704028 60.11920213333002 L 471.72504378284 58.54806933332998 L 472.60070052539 57.03739200000001 L 473.47635726795 55.60277546666998 L 474.35201401051 54.26604693333002 L 475.22767075306 53.135653333330026 L 476.10332749562 51.930333866670026 L 476.97898423818 50.79586666667001 L 477.85464098074 49.74171626666998 L 478.73029772329 48.67098773332998 L 479.60595446585 47.573223466670015 L 480.48161120841 46.57476586667002 L 481.35726795096 45.67062933333 L 482.23292469352 44.753218133329995 L 483.10858143608 43.851108266669996 L 483.98423817863 42.96346879999999 L 484.85989492119 42.09224533333003 L 485.73555166375 41.21694826666999 L 486.6112084063 40.375820799999985 L 487.48686514886 39.89229866667 L 488.36252189142 39.157246933329986 L 489.23817863398 38.38956586667001 L 490.11383537653 37.67277439999998 L 490.98949211909 36.982836266670006 L 491.86514886165 36.21610773332998 L 492.7408056042 35.558434133330024 L 493.61646234676 34.87567039999999 L 494.49211908932 34.182793600000025 L 495.36777583187 33.488599466669996 L 496.24343257443 32.825778133330004 L 497.11908931699 32.15335040000002 L 497.99474605954 31.480699733330027 L 498.8704028021 30.774183466670024 L 499.74605954466 29.977987199999973 L 500.62171628722 29.214947199999983 L 501.49737302977 28.505451733330005 L 502.37302977233 27.809575466670026 L 503.24868651489 27.136499200000003 L 504.12434325744 26.40067733333001 L 505 25.68137280000002" class="highcharts-graph" data-z-index="1" stroke="rgb(3, 63, 64)" stroke-opacity=" 1" stroke-width="1" stroke-linejoin="round" stroke-linecap="round"></path></g><g class="highcharts-markers highcharts-series-0 highcharts-area-series" data-z-index="0.1" opacity="1" transform="translate(80,59) scale(1 1)" clip-path="none"></g></g><text x="300" text-anchor="middle" class="highcharts-title" data-z-index="4" style="color: rgb(51, 51, 51); font-size: 18px; fill: rgb(51, 51, 51);" y="24">Near Unique Accounts Chart</text><text x="300" text-anchor="middle" class="highcharts-subtitle" data-z-index="4" style="color: rgb(102, 102, 102); fill: rgb(102, 102, 102);" y="44">Source: NearBlocks.io</text><text x="10" text-anchor="start" class="highcharts-caption" data-z-index="4" style="color: rgb(102, 102, 102); fill: rgb(102, 102, 102);" y="547"></text><g class="highcharts-axis-labels highcharts-xaxis-labels" data-z-index="7"><text x="111.47037361354" text-anchor="middle" transform="translate(0,0)" style="color: rgb(102, 102, 102); cursor: default; font-size: 11px; fill: rgb(102, 102, 102);" y="534" opacity="1">May '21</text><text x="219.17615294804" text-anchor="middle" transform="translate(0,0)" style="color: rgb(102, 102, 102); cursor: default; font-size: 11px; fill: rgb(102, 102, 102);" y="534" opacity="1">Sep '21</text><text x="326.00627553999" text-anchor="middle" transform="translate(0,0)" style="color: rgb(102, 102, 102); cursor: default; font-size: 11px; fill: rgb(102, 102, 102);" y="534" opacity="1">Jan '22</text><text x="431.08508464682" text-anchor="middle" transform="translate(0,0)" style="color: rgb(102, 102, 102); cursor: default; font-size: 11px; fill: rgb(102, 102, 102);" y="534" opacity="1">May '22</text><text x="538.79086398132" text-anchor="middle" transform="translate(0,0)" style="color: rgb(102, 102, 102); cursor: default; font-size: 11px; fill: rgb(102, 102, 102);" y="534" opacity="1">Sep '22</text></g><g class="highcharts-axis-labels highcharts-yaxis-labels" data-z-index="7"><text x="65" text-anchor="end" transform="translate(0,0)" style="color: rgb(102, 102, 102); cursor: default; font-size: 11px; fill: rgb(102, 102, 102);" y="520" opacity="1">0</text><text x="65" text-anchor="end" transform="translate(0,0)" style="color: rgb(102, 102, 102); cursor: default; font-size: 11px; fill: rgb(102, 102, 102);" y="469" opacity="1">2.5M</text><text x="65" text-anchor="end" transform="translate(0,0)" style="color: rgb(102, 102, 102); cursor: default; font-size: 11px; fill: rgb(102, 102, 102);" y="419" opacity="1">5M</text><text x="65" text-anchor="end" transform="translate(0,0)" style="color: rgb(102, 102, 102); cursor: default; font-size: 11px; fill: rgb(102, 102, 102);" y="368" opacity="1">7.5M</text><text x="65" text-anchor="end" transform="translate(0,0)" style="color: rgb(102, 102, 102); cursor: default; font-size: 11px; fill: rgb(102, 102, 102);" y="317" opacity="1">10M</text><text x="65" text-anchor="end" transform="translate(0,0)" style="color: rgb(102, 102, 102); cursor: default; font-size: 11px; fill: rgb(102, 102, 102);" y="267" opacity="1">12.5M</text><text x="65" text-anchor="end" transform="translate(0,0)" style="color: rgb(102, 102, 102); cursor: default; font-size: 11px; fill: rgb(102, 102, 102);" y="216" opacity="1">15M</text><text x="65" text-anchor="end" transform="translate(0,0)" style="color: rgb(102, 102, 102); cursor: default; font-size: 11px; fill: rgb(102, 102, 102);" y="165" opacity="1">17.5M</text><text x="65" text-anchor="end" transform="translate(0,0)" style="color: rgb(102, 102, 102); cursor: default; font-size: 11px; fill: rgb(102, 102, 102);" y="115" opacity="1">20M</text><text x="65" text-anchor="end" transform="translate(0,0)" style="color: rgb(102, 102, 102); cursor: default; font-size: 11px; fill: rgb(102, 102, 102);" y="64" opacity="1">22.5M</text></g></svg>