<svg id="SvgjsSvg1489" width="288" height="288" xmlns="http://www.w3.org/2000/svg" version="1.1" xmlns:xlink="http://www.w3.org/1999/xlink" xmlns:svgjs="http://svgjs.com/svgjs"><defs id="SvgjsDefs1490"></defs><g id="SvgjsG1491"><svg xmlns="http://www.w3.org/2000/svg" width="288" height="288" class="highcharts-root" font-family="&quot;Lucida Grande&quot;,&quot;Lucida Sans Unicode&quot;,Arial,Helvetica,sans-serif" font-size="12" viewBox="0 0 600 550"><defs><linearGradient id="b" x1="0" x2="0" y1="0" y2="1"><stop offset="0" stop-color="#0173cd" stop-opacity=".8" class="stopColor2D8F44 svgShape"></stop><stop offset="1" stop-color="#0173cd" stop-opacity="0" class="stopColor2D8F44 svgShape"></stop></linearGradient><clipPath id="a"><rect width="510" height="456" fill="none"></rect></clipPath></defs><rect width="600" height="550" fill="#ffffff" class="highcharts-background colorfff svgShape" rx="0" ry="0"></rect><rect width="510" height="456" x="80" y="59" fill="none" class="highcharts-plot-background"></rect><g class="highcharts-grid highcharts-xaxis-grid color000 svgShape" data-z-index="1" fill="#000000"><path fill="none" d="M138.5 59L138.5 515M212.5 59L212.5 515M285.5 59L285.5 515M359.5 59L359.5 515M433.5 59L433.5 515M506.5 59L506.5 515M580.5 59L580.5 515" class="highcharts-grid-line" data-z-index="1"></path></g><g class="highcharts-grid highcharts-yaxis-grid color000 svgShape" data-z-index="1" fill="#000000"><path fill="none" stroke="#e6e6e6" d="M80 515.5L590 515.5M80 464.5L590 464.5M80 414.5L590 414.5M80 363.5L590 363.5M80 312.5L590 312.5M80 262.5L590 262.5M80 211.5L590 211.5M80 160.5L590 160.5M80 110.5L590 110.5M80 58.5L590 58.5" class="highcharts-grid-line colorStrokee6e6e6 svgStroke" data-z-index="1"></path></g><rect width="510" height="456" x="80" y="59" fill="none" class="highcharts-plot-border" data-z-index="1"></rect><g class="highcharts-axis highcharts-xaxis color000 svgShape" data-z-index="2" fill="#000000"><path fill="none" stroke="#ccd6eb" d="M138.5 515L138.5 525M212.5 515L212.5 525M285.5 515L285.5 525M359.5 515L359.5 525M433.5 515L433.5 525M506.5 515L506.5 525M580.5 515L580.5 525" class="highcharts-tick colorStrokeccd6eb svgStroke"></path><path fill="none" stroke="#ccd6eb" d="M 80 515.5 L 590 515.5" class="highcharts-axis-line colorStrokeccd6eb svgStroke" data-z-index="7"></path></g><g class="highcharts-axis highcharts-yaxis color000 svgShape" data-z-index="2" fill="#000000"><text x="24.422" y="287" fill="#666" class="highcharts-axis-title" color="#666" data-z-index="7" text-anchor="middle" transform="rotate(-90 24.422 287)" svgjs:data="{&quot;leading&quot;:&quot;1.3&quot;}">New Near supply per Day</text><path fill="none" d="M 80 59 L 80 515" class="highcharts-axis-line" data-z-index="7"></path></g><g class="highcharts-series-group color000 svgShape" data-z-index="3" fill="#000000"><g class="highcharts-series highcharts-series-0 highcharts-area-series color000 svgShape" clip-path="url(#a)" data-z-index=".1" transform="translate(80 59)" fill="#000000"><path fill="url(#b)" d="M 5 30.31212373333335 L 10.263157894737 455.7889024 L 15.526315789474 455.8023189333333 L 20.789473684211 455.7934016 L 26.052631578947 455.7970901333333 L 31.315789473684 455.8029269333333 L 36.578947368421 455.7936853333333 L 41.842105263158 455.8028864 L 47.105263157895 455.8042645333333 L 52.368421052632 455.7949824 L 57.631578947368 455.8065344 L 62.894736842105 455.79761706666665 L 68.157894736842 455.7988736 L 73.421052631579 455.80479146666664 L 78.684210526316 455.8038997333333 L 83.947368421053 455.79445546666665 L 89.210526315789 455.78934826666665 L 94.473684210526 455.8060885333333 L 99.736842105263 455.8098176 L 105 455.76916266666666 L 110.26315789474 455.80868266666664 L 115.52631578947 455.79761706666665 L 120.78947368421 455.8018325333333 L 126.05263157895 455.8037376 L 131.31578947368 455.8006165333333 L 136.57894736842 455.8081557333333 L 141.84210526316 455.8037376 L 147.10526315789 455.8029269333333 L 152.36842105263 455.80296746666664 L 157.63157894737 455.8030485333333 L 162.89473684211 455.80150826666664 L 168.15789473684 455.7973333333333 L 173.42105263158 455.79263146666665 L 178.68421052632 455.7850517333333 L 183.94736842105 455.8026432 L 189.21052631579 455.7868757333333 L 194.47368421053 455.7947392 L 199.73684210526 455.790848 L 205 455.7842005333333 L 210.26315789474 455.81366826666664 L 215.52631578947 455.7935637333333 L 220.78947368421 455.7745941333333 L 226.05263157895 455.7888213333333 L 231.31578947368 455.79226666666665 L 236.57894736842 455.7902805333333 L 241.84210526316 455.80890590017924 L 247.10526315789 455.7851257655439 L 252.36842105263 455.78178701888373 L 257.63157894737 455.7909835846507 L 262.89473684211 455.80171477285234 L 268.15789473684 455.79398776815884 L 273.42105263158 455.85360519556235 L 278.68421052632 455.79529562510953 L 283.94736842105 455.7782984019164 L 289.21052631579 455.7891380026558 L 294.47368421053 455.79316902793437 L 299.73684210526 455.79534685450386 L 305 455.7979123801004 L 310.26315789474 455.7934562181951 L 315.52631578947 455.7983762870495 L 320.78947368421 455.8010753339977 L 326.05263157895 455.8032302721018 L 331.31578947368 455.80663063986754 L 336.57894736842 455.7955904224114 L 341.84210526316 455.7929600467312 L 347.10526315789 455.79421365620726 L 352.36842105263 455.8052473770962 L 357.63157894737 455.799638339722 L 362.89473684211 455.7973360087746 L 368.15789473684 455.8095357200799 L 373.42105263158 455.79744521899806 L 378.68421052632 455.8105335260914 L 383.94736842105 455.80632770915406 L 389.21052631579 455.80047643115415 L 394.47368421053 455.80455294036244 L 399.73684210526 455.7961029461705 L 405 455.80590023947946 L 410.26315789474 455.80715153182604 L 415.52631578947 455.80702512960977 L 420.78947368421 455.80279018997095 L 426.05263157895 455.8091241968547 L 431.31578947368 455.80589911271977 L 436.57894736842 455.81315947607317 L 441.84210526316 455.80408941592657 L 447.10526315789 455.8177807544917 L 452.36842105263 455.8073438722078 L 457.63157894737 455.8072177955986 L 462.89473684211 455.8087472250183 L 468.15789473684 455.80645821751426 L 473.42105263158 455.81402578946927 L 478.68421052632 455.80914453778985 L 483.94736842105 455.8126908758731 L 489.21052631579 455.8073765252874 L 494.47368421053 455.79464162611305 L 499.73684210526 455.8172749251102 L 505 455.8094660394276 L 505 456 L 499.73684210526 456 L 494.47368421053 456 L 489.21052631579 456 L 483.94736842105 456 L 478.68421052632 456 L 473.42105263158 456 L 468.15789473684 456 L 462.89473684211 456 L 457.63157894737 456 L 452.36842105263 456 L 447.10526315789 456 L 441.84210526316 456 L 436.57894736842 456 L 431.31578947368 456 L 426.05263157895 456 L 420.78947368421 456 L 415.52631578947 456 L 410.26315789474 456 L 405 456 L 399.73684210526 456 L 394.47368421053 456 L 389.21052631579 456 L 383.94736842105 456 L 378.68421052632 456 L 373.42105263158 456 L 368.15789473684 456 L 362.89473684211 456 L 357.63157894737 456 L 352.36842105263 456 L 347.10526315789 456 L 341.84210526316 456 L 336.57894736842 456 L 331.31578947368 456 L 326.05263157895 456 L 320.78947368421 456 L 315.52631578947 456 L 310.26315789474 456 L 305 456 L 299.73684210526 456 L 294.47368421053 456 L 289.21052631579 456 L 283.94736842105 456 L 278.68421052632 456 L 273.42105263158 456 L 268.15789473684 456 L 262.89473684211 456 L 257.63157894737 456 L 252.36842105263 456 L 247.10526315789 456 L 241.84210526316 456 L 236.57894736842 456 L 231.31578947368 456 L 226.05263157895 456 L 220.78947368421 456 L 215.52631578947 456 L 210.26315789474 456 L 205 456 L 199.73684210526 456 L 194.47368421053 456 L 189.21052631579 456 L 183.94736842105 456 L 178.68421052632 456 L 173.42105263158 456 L 168.15789473684 456 L 162.89473684211 456 L 157.63157894737 456 L 152.36842105263 456 L 147.10526315789 456 L 141.84210526316 456 L 136.57894736842 456 L 131.31578947368 456 L 126.05263157895 456 L 120.78947368421 456 L 115.52631578947 456 L 110.26315789474 456 L 105 456 L 99.736842105263 456 L 94.473684210526 456 L 89.210526315789 456 L 83.947368421053 456 L 78.684210526316 456 L 73.421052631579 456 L 68.157894736842 456 L 62.894736842105 456 L 57.631578947368 456 L 52.368421052632 456 L 47.105263157895 456 L 41.842105263158 456 L 36.578947368421 456 L 31.315789473684 456 L 26.052631578947 456 L 20.789473684211 456 L 15.526315789474 456 L 10.263157894737 456 L 5 456 Z" class="highcharts-area" data-z-index="0"></path><path fill="none" stroke="#0173cd" stroke-linecap="round" stroke-linejoin="round" stroke-opacity=" 1" d="M 5 30.31212373333335 L 10.263157894737 455.7889024 L 15.526315789474 455.8023189333333 L 20.789473684211 455.7934016 L 26.052631578947 455.7970901333333 L 31.315789473684 455.8029269333333 L 36.578947368421 455.7936853333333 L 41.842105263158 455.8028864 L 47.105263157895 455.8042645333333 L 52.368421052632 455.7949824 L 57.631578947368 455.8065344 L 62.894736842105 455.79761706666665 L 68.157894736842 455.7988736 L 73.421052631579 455.80479146666664 L 78.684210526316 455.8038997333333 L 83.947368421053 455.79445546666665 L 89.210526315789 455.78934826666665 L 94.473684210526 455.8060885333333 L 99.736842105263 455.8098176 L 105 455.76916266666666 L 110.26315789474 455.80868266666664 L 115.52631578947 455.79761706666665 L 120.78947368421 455.8018325333333 L 126.05263157895 455.8037376 L 131.31578947368 455.8006165333333 L 136.57894736842 455.8081557333333 L 141.84210526316 455.8037376 L 147.10526315789 455.8029269333333 L 152.36842105263 455.80296746666664 L 157.63157894737 455.8030485333333 L 162.89473684211 455.80150826666664 L 168.15789473684 455.7973333333333 L 173.42105263158 455.79263146666665 L 178.68421052632 455.7850517333333 L 183.94736842105 455.8026432 L 189.21052631579 455.7868757333333 L 194.47368421053 455.7947392 L 199.73684210526 455.790848 L 205 455.7842005333333 L 210.26315789474 455.81366826666664 L 215.52631578947 455.7935637333333 L 220.78947368421 455.7745941333333 L 226.05263157895 455.7888213333333 L 231.31578947368 455.79226666666665 L 236.57894736842 455.7902805333333 L 241.84210526316 455.80890590017924 L 247.10526315789 455.7851257655439 L 252.36842105263 455.78178701888373 L 257.63157894737 455.7909835846507 L 262.89473684211 455.80171477285234 L 268.15789473684 455.79398776815884 L 273.42105263158 455.85360519556235 L 278.68421052632 455.79529562510953 L 283.94736842105 455.7782984019164 L 289.21052631579 455.7891380026558 L 294.47368421053 455.79316902793437 L 299.73684210526 455.79534685450386 L 305 455.7979123801004 L 310.26315789474 455.7934562181951 L 315.52631578947 455.7983762870495 L 320.78947368421 455.8010753339977 L 326.05263157895 455.8032302721018 L 331.31578947368 455.80663063986754 L 336.57894736842 455.7955904224114 L 341.84210526316 455.7929600467312 L 347.10526315789 455.79421365620726 L 352.36842105263 455.8052473770962 L 357.63157894737 455.799638339722 L 362.89473684211 455.7973360087746 L 368.15789473684 455.8095357200799 L 373.42105263158 455.79744521899806 L 378.68421052632 455.8105335260914 L 383.94736842105 455.80632770915406 L 389.21052631579 455.80047643115415 L 394.47368421053 455.80455294036244 L 399.73684210526 455.7961029461705 L 405 455.80590023947946 L 410.26315789474 455.80715153182604 L 415.52631578947 455.80702512960977 L 420.78947368421 455.80279018997095 L 426.05263157895 455.8091241968547 L 431.31578947368 455.80589911271977 L 436.57894736842 455.81315947607317 L 441.84210526316 455.80408941592657 L 447.10526315789 455.8177807544917 L 452.36842105263 455.8073438722078 L 457.63157894737 455.8072177955986 L 462.89473684211 455.8087472250183 L 468.15789473684 455.80645821751426 L 473.42105263158 455.81402578946927 L 478.68421052632 455.80914453778985 L 483.94736842105 455.8126908758731 L 489.21052631579 455.8073765252874 L 494.47368421053 455.79464162611305 L 499.73684210526 455.8172749251102 L 505 455.8094660394276" class="highcharts-graph colorStroke2D8F44 svgStroke" data-z-index="1"></path></g></g><text x="300" y="24" fill="#333" class="highcharts-title" color="#333" data-z-index="4" font-size="18" text-anchor="middle" svgjs:data="{&quot;leading&quot;:&quot;1.3&quot;}">Near Daily Block Rewards Chart</text><text x="300" y="44" fill="#666" class="highcharts-subtitle" color="#666" data-z-index="4" text-anchor="middle" svgjs:data="{&quot;leading&quot;:&quot;1.3&quot;}">Source: NearBlocks.io</text><g class="highcharts-axis-labels highcharts-xaxis-labels color000 svgShape" data-z-index="7" fill="#000000"><text x="138.838" y="534" fill="#666" color="#666" cursor="default" font-size="11" text-anchor="middle" svgjs:data="{&quot;leading&quot;:&quot;1.3&quot;}">29. Mar</text><text x="212.522" y="534" fill="#666" color="#666" cursor="default" font-size="11" text-anchor="middle" svgjs:data="{&quot;leading&quot;:&quot;1.3&quot;}">12. Apr</text><text x="286.206" y="534" fill="#666" color="#666" cursor="default" font-size="11" text-anchor="middle" svgjs:data="{&quot;leading&quot;:&quot;1.3&quot;}">26. Apr</text><text x="359.89" y="534" fill="#666" color="#666" cursor="default" font-size="11" text-anchor="middle" svgjs:data="{&quot;leading&quot;:&quot;1.3&quot;}">10. May</text><text x="433.575" y="534" fill="#666" color="#666" cursor="default" font-size="11" text-anchor="middle" svgjs:data="{&quot;leading&quot;:&quot;1.3&quot;}">24. May</text><text x="507.259" y="534" fill="#666" color="#666" cursor="default" font-size="11" text-anchor="middle" svgjs:data="{&quot;leading&quot;:&quot;1.3&quot;}">7. Jun</text><text x="571.953" y="534" fill="#666" color="#666" cursor="default" font-size="11" text-anchor="middle" svgjs:data="{&quot;leading&quot;:&quot;1.3&quot;}">21. Jun</text></g><g class="highcharts-axis-labels highcharts-yaxis-labels color000 svgShape" data-z-index="7" fill="#000000"><text x="65" y="520" fill="#666" color="#666" cursor="default" font-size="11" text-anchor="end" svgjs:data="{&quot;leading&quot;:&quot;1.3&quot;}">0</text><text x="65" y="469" fill="#666" color="#666" cursor="default" font-size="11" text-anchor="end" svgjs:data="{&quot;leading&quot;:&quot;1.3&quot;}">2.5M</text><text x="65" y="419" fill="#666" color="#666" cursor="default" font-size="11" text-anchor="end" svgjs:data="{&quot;leading&quot;:&quot;1.3&quot;}">5M</text><text x="65" y="368" fill="#666" color="#666" cursor="default" font-size="11" text-anchor="end" svgjs:data="{&quot;leading&quot;:&quot;1.3&quot;}">7.5M</text><text x="65" y="317" fill="#666" color="#666" cursor="default" font-size="11" text-anchor="end" svgjs:data="{&quot;leading&quot;:&quot;1.3&quot;}">10M</text><text x="65" y="267" fill="#666" color="#666" cursor="default" font-size="11" text-anchor="end" svgjs:data="{&quot;leading&quot;:&quot;1.3&quot;}">12.5M</text><text x="65" y="216" fill="#666" color="#666" cursor="default" font-size="11" text-anchor="end" svgjs:data="{&quot;leading&quot;:&quot;1.3&quot;}">15M</text><text x="65" y="165" fill="#666" color="#666" cursor="default" font-size="11" text-anchor="end" svgjs:data="{&quot;leading&quot;:&quot;1.3&quot;}">17.5M</text><text x="65" y="115" fill="#666" color="#666" cursor="default" font-size="11" text-anchor="end" svgjs:data="{&quot;leading&quot;:&quot;1.3&quot;}">20M</text><text x="65" y="64" fill="#666" color="#666" cursor="default" font-size="11" text-anchor="end" svgjs:data="{&quot;leading&quot;:&quot;1.3&quot;}">22.5M</text></g></svg></g></svg>