<?xml version="1.0" standalone="no"?><!DOCTYPE svg PUBLIC "-//W3C//DTD SVG 1.1//EN" "http://www.w3.org/Graphics/SVG/1.1/DTD/svg11.dtd"><svg xmlns:xlink="http://www.w3.org/1999/xlink" version="1.1" class="highcharts-root" style="font-family: &quot;Lucida Grande&quot;, &quot;Lucida Sans Unicode&quot;, Arial, Helvetica, sans-serif; font-size: 12px;" xmlns="http://www.w3.org/2000/svg" width="600" height="550" viewBox="0 0 600 550"><desc>Created with Highcharts 10.1.0</desc><defs><clipPath id="highcharts-w84e1ns-1159-"><rect x="0" y="0" width="517" height="456" fill="none"></rect></clipPath><clipPath id="highcharts-w84e1ns-1732-"><rect x="0" y="0" width="517" height="456" fill="none"></rect></clipPath><linearGradient x1="0" y1="0" x2="0" y2="1" id="highcharts-w84e1ns-1733"><stop offset="0" stop-color="rgb(3,63,64)" stop-opacity="0.8"></stop><stop offset="1" stop-color="rgb(3,63,64)" stop-opacity="0"></stop></linearGradient></defs><rect fill="#ffffff" class="highcharts-background" x="0" y="0" width="600" height="550" rx="0" ry="0"></rect><rect fill="none" class="highcharts-plot-background" x="73" y="59" width="517" height="456"></rect><g class="highcharts-grid highcharts-xaxis-grid" data-z-index="1"><path fill="none" stroke-dasharray="none" data-z-index="1" class="highcharts-grid-line" d="M 104.5 59 L 104.5 515" opacity="1"></path><path fill="none" stroke-dasharray="none" data-z-index="1" class="highcharts-grid-line" d="M 213.5 59 L 213.5 515" opacity="1"></path><path fill="none" stroke-dasharray="none" data-z-index="1" class="highcharts-grid-line" d="M 321.5 59 L 321.5 515" opacity="1"></path><path fill="none" stroke-dasharray="none" data-z-index="1" class="highcharts-grid-line" d="M 428.5 59 L 428.5 515" opacity="1"></path><path fill="none" stroke-dasharray="none" data-z-index="1" class="highcharts-grid-line" d="M 537.5 59 L 537.5 515" opacity="1"></path></g><g class="highcharts-grid highcharts-yaxis-grid" data-z-index="1"><path fill="none" stroke="#e6e6e6" stroke-width="1" stroke-dasharray="none" data-z-index="1" class="highcharts-grid-line" d="M 73 515.5 L 590 515.5" opacity="1"></path><path fill="none" stroke="#e6e6e6" stroke-width="1" stroke-dasharray="none" data-z-index="1" class="highcharts-grid-line" d="M 73 469.5 L 590 469.5" opacity="1"></path><path fill="none" stroke="#e6e6e6" stroke-width="1" stroke-dasharray="none" data-z-index="1" class="highcharts-grid-line" d="M 73 424.5 L 590 424.5" opacity="1"></path><path fill="none" stroke="#e6e6e6" stroke-width="1" stroke-dasharray="none" data-z-index="1" class="highcharts-grid-line" d="M 73 378.5 L 590 378.5" opacity="1"></path><path fill="none" stroke="#e6e6e6" stroke-width="1" stroke-dasharray="none" data-z-index="1" class="highcharts-grid-line" d="M 73 333.5 L 590 333.5" opacity="1"></path><path fill="none" stroke="#e6e6e6" stroke-width="1" stroke-dasharray="none" data-z-index="1" class="highcharts-grid-line" d="M 73 287.5 L 590 287.5" opacity="1"></path><path fill="none" stroke="#e6e6e6" stroke-width="1" stroke-dasharray="none" data-z-index="1" class="highcharts-grid-line" d="M 73 241.5 L 590 241.5" opacity="1"></path><path fill="none" stroke="#e6e6e6" stroke-width="1" stroke-dasharray="none" data-z-index="1" class="highcharts-grid-line" d="M 73 196.5 L 590 196.5" opacity="1"></path><path fill="none" stroke="#e6e6e6" stroke-width="1" stroke-dasharray="none" data-z-index="1" class="highcharts-grid-line" d="M 73 150.5 L 590 150.5" opacity="1"></path><path fill="none" stroke="#e6e6e6" stroke-width="1" stroke-dasharray="none" data-z-index="1" class="highcharts-grid-line" d="M 73 105.5 L 590 105.5" opacity="1"></path><path fill="none" stroke="#e6e6e6" stroke-width="1" stroke-dasharray="none" data-z-index="1" class="highcharts-grid-line" d="M 73 58.5 L 590 58.5" opacity="1"></path></g><rect fill="none" class="highcharts-plot-border" data-z-index="1" x="73" y="59" width="517" height="456"></rect><g class="highcharts-axis highcharts-xaxis" data-z-index="2"><path fill="none" class="highcharts-tick" stroke="#ccd6eb" stroke-width="1" d="M 104.5 515 L 104.5 525" opacity="1"></path><path fill="none" class="highcharts-tick" stroke="#ccd6eb" stroke-width="1" d="M 213.5 515 L 213.5 525" opacity="1"></path><path fill="none" class="highcharts-tick" stroke="#ccd6eb" stroke-width="1" d="M 321.5 515 L 321.5 525" opacity="1"></path><path fill="none" class="highcharts-tick" stroke="#ccd6eb" stroke-width="1" d="M 428.5 515 L 428.5 525" opacity="1"></path><path fill="none" class="highcharts-tick" stroke="#ccd6eb" stroke-width="1" d="M 537.5 515 L 537.5 525" opacity="1"></path><path fill="none" class="highcharts-axis-line" stroke="#ccd6eb" stroke-width="1" data-z-index="7" d="M 73 515.5 L 590 515.5"></path></g><g class="highcharts-axis highcharts-yaxis" data-z-index="2"><text x="23.64697265625" data-z-index="7" text-anchor="middle" transform="translate(0,0) rotate(270 23.64697265625 287)" class="highcharts-axis-title" style="color: rgb(102, 102, 102); fill: rgb(102, 102, 102);" y="287">Blocks per Day</text><path fill="none" class="highcharts-axis-line" data-z-index="7" d="M 73 59 L 73 515"></path></g><g class="highcharts-series-group" data-z-index="3"><g class="highcharts-series highcharts-series-0 highcharts-area-series" data-z-index="0.1" opacity="1" transform="translate(73,59) scale(1 1)" clip-path="url(#highcharts-w84e1ns-1732-)"><path fill="url(#highcharts-w84e1ns-1733)" d="M 5.0686274509804 76.04712 L 5.9563030115724 64.75200000000001 L 6.8439785721644 59.106719999999996 L 7.7316541327564 61.90199999999999 L 8.6193296933484 61.436879999999974 L 9.5070052539405 57.583680000000015 L 10.394680814532 62.230320000000006 L 11.282356375124 62.09352000000001 L 12.170031935716 64.31423999999998 L 13.057707496309 56.59415999999999 L 13.945383056901 55.773360000000025 L 14.833058617493 59.61288000000002 L 15.720734178085 60.324239999999975 L 16.608409738677 60.52032000000003 L 17.496085299269 59.51711999999998 L 18.383760859861 73.42056000000002 L 19.271436420453 62.896079999999984 L 20.159111981045 62.704560000000015 L 21.046787541637 64.08168 L 21.934463102229 67.18248 L 22.822138662821 62.896079999999984 L 23.709814223413 69.35759999999999 L 24.597489784005 67.77528000000001 L 25.485165344597 69.66768000000002 L 26.372840905189 66.07440000000003 L 27.260516465781 67.05936000000003 L 28.148192026373 70.19664 L 29.035867586965 63.30648000000002 L 29.923543147557 63.13319999999999 L 30.811218708149 61.081200000000024 L 31.698894268741 59.51256000000001 L 32.586569829333 56.270399999999995 L 33.474245389925 58.31783999999999 L 34.361920950517 60.319680000000005 L 35.249596511109 69.47160000000002 L 36.137272071701 69.07488000000001 L 37.024947632293 64.86144000000002 L 37.912623192885 67.3512 L 38.800298753477 61.82904000000002 L 39.687974314069 65.29007999999999 L 40.575649874661 66.41183999999998 L 41.463325435253 68.65535999999997 L 42.351000995845 67.84823999999998 L 43.238676556437 76.02431999999999 L 44.126352117029 79.52640000000002 L 45.014027677621 67.67952000000002 L 45.901703238213 87.20999999999998 L 46.789378798805 74.32799999999997 L 47.677054359397 61.163279999999986 L 48.564729919989 60.98088000000001 L 49.452405480581 69.63119999999998 L 50.340081041173 64.99367999999998 L 51.227756601765 60.762 L 52.115432162357 64.20936 L 53.003107722949 64.01783999999998 L 53.890783283541 68.17656 L 54.778458844133 69.63576 L 55.666134404725 63.16968000000003 L 56.553809965317 63.41592000000003 L 57.441485525909 60.648000000000025 L 58.329161086501 60.917039999999986 L 59.216836647093 60.8304 L 60.104512207685 59.932079999999985 L 60.992187768277 62.973599999999976 L 61.879863328869 61.65120000000002 L 62.767538889461 61.95672000000002 L 63.655214450053 58.82855999999998 L 64.542890010645 63.096720000000005 L 65.430565571237 64.0224 L 66.318241131829 63.055679999999995 L 67.205916692421 61.01280000000003 L 68.093592253013 61.10856000000001 L 68.981267813605 61.17696000000001 L 69.868943374197 59.585519999999974 L 70.756618934789 60.898799999999994 L 71.644294495381 62.97816 L 72.531970055973 62.025120000000015 L 73.419645616565 62.78663999999998 L 74.307321177157 70.57056 L 75.194996737749 62.234879999999976 L 76.082672298341 62.11631999999997 L 76.970347858933 60.00959999999998 L 77.858023419525 61.683119999999974 L 78.745698980117 59.32103999999998 L 79.633374540709 59.55815999999999 L 80.521050101301 58.70544000000001 L 81.408725661893 57.21431999999999 L 82.296401222485 58.016880000000015 L 83.184076783078 57.71591999999998 L 84.07175234367 59.36664000000002 L 84.959427904262 63.94943999999998 L 85.847103464854 64.92072000000002 L 86.734779025446 63.406799999999976 L 87.622454586038 63.46152000000001 L 88.51013014663 64.59696000000002 L 89.397805707222 66.46656000000002 L 90.285481267814 66.29784000000001 L 91.173156828406 81.65591999999998 L 92.060832388998 75.98327999999998 L 92.94850794959 62.26224000000002 L 93.836183510182 60.67536000000001 L 94.723859070774 60.757439999999974 L 95.611534631366 63.27911999999998 L 96.499210191958 57.33287999999999 L 97.38688575255 60.19200000000001 L 98.274561313142 61.15872000000002 L 99.162236873734 61.099440000000016 L 100.04991243433 61.309199999999976 L 100.93758799492 60.88511999999997 L 101.82526355551 62.581439999999986 L 102.7129391161 63.43416000000002 L 103.60061467669 65.38128 L 104.48829023729 63.86736000000002 L 105.37596579788 62.54951999999997 L 106.26364135847 62.14823999999999 L 107.15131691906 62.49023999999997 L 108.03899247965 64.98000000000002 L 108.92666804025 74.11367999999999 L 109.81434360084 78.28608000000003 L 110.70201916143 78.57335999999998 L 111.58969472202 72.618 L 112.47737028261 72.54503999999997 L 113.36504584321 70.22856000000002 L 114.2527214038 75.21264000000002 L 115.14039696439 76.43928 L 116.02807252498 156.57672000000002 L 116.91574808557 77.83463999999998 L 117.80342364617 70.14648 L 118.69109920676 77.32848000000001 L 119.57877476735 71.38224000000002 L 120.46645032794 64.73831999999999 L 121.35412588853 67.67039999999997 L 122.24180144913 70.15104000000002 L 123.12947700972 70.78032000000002 L 124.01715257031 68.82864000000001 L 124.9048281309 68.83776 L 125.79250369149 68.46384 L 126.68017925209 69.81815999999998 L 127.56785481268 71.21352000000002 L 128.45553037327 72.36720000000003 L 129.34320593386 73.33391999999998 L 130.23088149445 76.82231999999999 L 131.11855705505 73.83551999999997 L 132.00623261564 75.52728000000002 L 132.89390817623 78.36360000000002 L 133.78158373682 76.85879999999997 L 134.66925929741 78.13103999999998 L 135.55693485801 75.01656000000003 L 136.4446104186 76.56696 L 137.33228597919 76.55327999999997 L 138.21996153978 89.16624000000002 L 139.10763710037 80.10095999999999 L 139.99531266097 85.22183999999999 L 140.88298822156 90.57528000000002 L 141.77066378215 89.68151999999998 L 142.65833934274 95.83296000000001 L 143.54601490333 96.65832 L 144.43369046393 94.62 L 145.32136602452 97.53384 L 146.20904158511 98.50056000000001 L 147.0967171457 94.392 L 147.98439270629 86.61720000000003 L 148.87206826689 86.97287999999998 L 149.75974382748 86.96832 L 150.64741938807 86.84976 L 151.53509494866 99.04775999999998 L 152.42277050925 87.07319999999999 L 153.31044606985 90.31079999999997 L 154.19812163044 89.08872000000002 L 155.08579719103 91.7244 L 155.97347275162 90.51600000000002 L 156.86114831221 89.1252 L 157.74882387281 90.08735999999999 L 158.6364994334 96.98208 L 159.52417499399 88.86527999999998 L 160.41185055458 91.12248 L 161.29952611517 83.25191999999998 L 162.18720167577 85.51823999999999 L 163.07487723636 87.57024000000001 L 163.96255279695 84.71568000000002 L 164.85022835754 83.01936 L 165.73790391813 87.19632000000001 L 166.62557947873 87.38783999999998 L 167.51325503932 83.75808 L 168.40093059991 87.38328000000001 L 169.2886061605 87.34224 L 170.17628172109 89.53559999999999 L 171.06395728169 91.95240000000001 L 171.95163284228 90.21960000000001 L 172.83930840287 102.44495999999998 L 173.72698396346 82.38551999999999 L 174.61465952405 82.48128000000003 L 175.50233508465 77.37407999999999 L 176.39001064524 77.62488000000002 L 177.27768620583 76.3116 L 178.16536176642 91.60127999999997 L 179.05303732701 90.83064000000002 L 179.94071288761 73.74432000000002 L 180.8283884482 72.27600000000001 L 181.71606400879 68.60064 L 182.60373956938 71.68776000000003 L 183.49141512997 95.418 L 184.37909069057 81.55560000000003 L 185.26676625116 92.8872 L 186.15444181175 91.30032 L 187.04211737234 93.85847999999999 L 187.92979293293 102.01632000000001 L 188.81746849353 92.91912000000002 L 189.70514405412 105.71447999999998 L 190.59281961471 87.52008000000001 L 191.4804951753 107.92608000000001 L 192.3681707359 87.55200000000002 L 193.25584629649 108.33192000000003 L 194.14352185708 97.81200000000001 L 195.03119741767 95.28575999999998 L 195.91887297826 90.88535999999999 L 196.80654853886 86.93184000000002 L 197.69422409945 92.62272000000002 L 198.58189966004 94.43759999999997 L 199.46957522063 99.93696 L 200.35725078122 84.61991999999998 L 201.24492634182 86.61720000000003 L 202.13260190241 93.30216000000001 L 203.020277463 93.594 L 203.90795302359 96.43943999999999 L 204.79562858418 108.73775999999998 L 205.68330414478 95.90591999999998 L 206.57097970537 104.62920000000003 L 207.45865526596 98.09928000000002 L 208.34633082655 99.6816 L 209.23400638714 112.46784000000002 L 210.12168194774 98.69207999999998 L 211.00935750833 83.04672 L 211.89703306892 80.46120000000002 L 212.78470862951 79.45344 L 213.6723841901 72.16656 L 214.5600597507 82.32168000000001 L 215.44773531129 81.33672000000001 L 216.33541087188 73.95407999999998 L 217.22308643247 72.17111999999997 L 218.11076199306 71.05392 L 218.99843755366 72.02519999999998 L 219.88611311425 72.24864000000002 L 220.77378867484 74.98919999999998 L 221.66146423543 74.72016000000002 L 222.54913979602 65.74151999999998 L 223.43681535662 73.11504000000002 L 224.32449091721 72.62711999999999 L 225.2121664778 72.13463999999999 L 226.09984203839 72.79584 L 226.98751759898 79.14792 L 227.87519315958 75.16703999999999 L 228.76286872017 71.37768 L 229.65054428076 73.89024 L 230.53821984135 72.64992000000001 L 231.42589540194 73.20623999999998 L 232.31357096254 78.20855999999998 L 233.20124652313 83.06952000000001 L 234.08892208372 115.82400000000001 L 234.97659764431 85.23552000000001 L 235.8642732049 97.94423999999998 L 236.7519487655 99.47640000000001 L 237.63962432609 105.76463999999999 L 238.52729988668 137.11007999999998 L 239.41497544727 121.35984000000002 L 240.30265100786 121.19112000000001 L 241.19032656846 130.66224 L 242.07800212905 134.92128000000002 L 242.96567768964 135.92448000000002 L 243.85335325023 133.38 L 244.74102881082 129.3216 L 245.62870437142 129.89159999999998 L 246.51637993201 130.27463999999998 L 247.4040554926 121.12272000000002 L 248.29173105319 120.66215999999997 L 249.17940661378 124.56551999999999 L 250.06708217438 127.32888000000003 L 250.95475773497 129.19392 L 251.84243329556 137.25599999999997 L 252.73010885615 130.35672 L 253.61778441674 127.30151999999998 L 254.50545997734 132.18072 L 255.39313553793 135.39096 L 256.28081109852 142.2948 L 257.16848665911 123.32064000000003 L 258.0561622197 121.59696000000002 L 258.9438377803 126.79536000000002 L 259.83151334089 133.29336 L 260.71918890148 153.18864000000002 L 261.60686446207 183.73608000000002 L 262.49454002266 182.7192 L 263.38221558326 245.76576 L 264.26989114385 151.46952 L 265.15756670444 155.70119999999997 L 266.04524226503 166.54944 L 266.93291782562 153.73584 L 267.82059338622 141.85703999999998 L 268.70826894681 138.59663999999998 L 269.5959445074 134.69783999999999 L 270.48362006799 139.40375999999998 L 271.37129562858 137.38368000000003 L 272.25897118918 140.64864 L 273.14664674977 137.49311999999998 L 274.03432231036 136.51728000000003 L 274.92199787095 139.51776 L 275.80967343154 137.58888000000002 L 276.69734899214 137.79408 L 277.58502455273 139.07544000000001 L 278.47270011332 138.19080000000002 L 279.36037567391 141.91176000000002 L 280.2480512345 143.68104 L 281.1357267951 142.78728 L 282.02340235569 137.94 L 282.91107791628 137.89896 L 283.79875347687 138.16343999999998 L 284.68642903746 137.49311999999998 L 285.57410459806 134.60664000000003 L 286.46178015865 135.54144000000002 L 287.34945571924 133.32528000000002 L 288.23713127983 135.29520000000002 L 289.12480684042 139.23504000000003 L 290.01248240102 145.23144000000002 L 290.90015796161 152.67336 L 291.7878335222 163.2024 L 292.67550908279 173.68128000000002 L 293.56318464338 162.75096000000002 L 294.45086020398 151.18223999999998 L 295.33853576457 145.85616 L 296.22621132516 143.44392 L 297.11388688575 141.21864 L 298.00156244634 140.13792 L 298.88923800694 136.37592 L 299.77691356753 139.78680000000003 L 300.66458912812 136.01112 L 301.55226468871 138.20448 L 302.4399402493 142.97424 L 303.3276158099 140.72160000000002 L 304.21529137049 141.14568000000003 L 305.10296693108 140.31576 L 305.99064249167 142.90127999999999 L 306.87831805226 142.81464 L 307.76599361286 142.53192 L 308.65366917345 145.28616 L 309.54134473404 144.3924 L 310.42902029463 142.272 L 311.31669585522 141.78408000000002 L 312.20437141582 146.1252 L 313.09204697641 160.20648 L 313.979722537 153.89999999999998 L 314.86739809759 166.42631999999998 L 315.75507365818 170.94984 L 316.64274921878 161.11847999999998 L 317.53042477937 155.04000000000002 L 318.41810033996 168.94344 L 319.30577590055 171.68856 L 320.19345146114 153.22055999999998 L 321.08112702174 157.13304 L 321.96880258233 146.29847999999998 L 322.85647814292 144.77087999999998 L 323.74415370351 139.55880000000002 L 324.6318292641 138.4644 L 325.5195048247 146.08872000000002 L 326.40718038529 149.75952 L 327.29485594588 148.86576000000002 L 328.18253150647 139.91904 L 329.07020706706 138.56016 L 329.95788262766 146.57208000000003 L 330.84555818825 161.57448 L 331.73323374884 140.65776 L 332.62090930943 139.52231999999998 L 333.50858487003 141.54696 L 334.39626043062 140.01024 L 335.28393599121 141.4968 L 336.1716115518 142.19448 L 337.05928711239 135.7056 L 337.94696267299 140.53464000000002 L 338.83463823358 136.01112 L 339.72231379417 136.91856 L 340.60998935476 136.11599999999999 L 341.49766491535 135.16752000000002 L 342.38534047595 134.91215999999997 L 343.27301603654 157.42487999999997 L 344.16069159713 150.76728000000003 L 345.04836715772 135.69648 L 345.93604271831 135.49128000000002 L 346.82371827891 139.78680000000003 L 347.7113938395 140.22456 L 348.59906940009 139.61352 L 349.48674496068 144.3924 L 350.37442052127 147.67559999999997 L 351.26209608187 144.01391999999998 L 352.14977164246 146.81376 L 353.03744720305 149.62727999999998 L 353.92512276364 151.00896 L 354.81279832423 152.03496 L 355.70047388483 150.35688 L 356.58814944542 155.87903999999997 L 357.47582500601 236.91024 L 358.3635005666 136.75896 L 359.25117612719 143.07912 L 360.13885168779 137.65728000000001 L 361.02652724838 134.63400000000001 L 361.91420280897 138.66503999999998 L 362.80187836956 146.31216 L 363.68955393015 143.3664 L 364.57722949075 155.42304000000001 L 365.46490505134 143.13384000000002 L 366.35258061193 138.76080000000002 L 367.24025617252 137.65272 L 368.12793173311 133.82688000000002 L 369.01560729371 135.29976 L 369.9032828543 135.2724 L 370.79095841489 138.91584 L 371.67863397548 136.78176000000002 L 372.56630953607 130.37040000000002 L 373.45398509667 127.11455999999998 L 374.34166065726 127.84872000000001 L 375.22933621785 136.23000000000002 L 376.11701177844 149.94191999999998 L 377.00468733903 144.07776 L 377.89236289963 144.61128000000002 L 378.78003846022 145.66464000000002 L 379.66771402081 142.50912 L 380.5553895814 145.24512 L 381.44306514199 145.61903999999998 L 382.33074070259 163.56264 L 383.21841626318 149.78688 L 384.10609182377 154.87583999999998 L 384.99376738436 151.10016000000002 L 385.88144294495 151.26888000000002 L 386.76911850555 148.16807999999997 L 387.65679406614 148.51008000000002 L 388.54446962673 152.42255999999998 L 389.43214518732 157.75776000000002 L 390.31982074791 146.89584000000002 L 391.20749630851 136.74984 L 392.0951718691 138.09048 L 392.98284742969 130.21992 L 393.87052299028 129.34895999999998 L 394.75819855087 129.07536 L 395.64587411147 130.21535999999998 L 396.53354967206 133.40735999999998 L 397.42122523265 161.52432 L 398.30890079324 134.42424 L 399.19657635383 134.68872 L 400.08425191443 133.05624 L 400.97192747502 133.95456000000001 L 401.85960303561 140.43432 L 402.7472785962 130.05576000000002 L 403.63495415679 127.50671999999997 L 404.52262971739 127.36991999999998 L 405.41030527798 127.37448 L 406.29798083857 146.77728000000002 L 407.18565639916 145.48680000000002 L 408.07333195975 149.3856 L 408.96100752035 131.79768 L 409.84868308094 146.11608 L 410.73635864153 137.40192000000002 L 411.62403420212 136.06128 L 412.51170976271 149.37192 L 413.39938532331 141.17759999999998 L 414.2870608839 152.14440000000002 L 415.17473644449 148.54656 L 416.06241200508 127.47935999999999 L 416.95008756567 124.91663999999997 L 417.83776312627 123.22032000000002 L 418.72543868686 122.322 L 419.61311424745 121.0908 L 420.50078980804 122.13504 L 421.38846536863 124.22352000000001 L 422.27614092923 127.83048000000002 L 423.16381648982 125.51855999999998 L 424.05149205041 124.36488000000003 L 424.939167611 126.12047999999999 L 425.82684317159 124.65215999999998 L 426.71451873219 136.4352 L 427.60219429278 135.96096 L 428.48986985337 130.63031999999998 L 429.37754541396 128.42784 L 430.26522097455 130.1424 L 431.15289653515 132.46800000000002 L 432.04057209574 134.406 L 432.92824765633 139.97376000000003 L 433.81592321692 162.07152000000002 L 434.70359877751 144.61584 L 435.59127433811 134.20535999999998 L 436.4789498987 147.20592 L 437.36662545929 138.61032 L 438.25430101988 146.17991999999998 L 439.14197658047 152.71895999999998 L 440.02965214107 151.16856 L 440.91732770166 159.69119999999998 L 441.80500326225 151.848 L 442.69267882284 153.1476 L 443.58035438343 159.49512 L 444.46802994403 138.50544000000002 L 445.35570550462 138.71064 L 446.24338106521 139.16208 L 447.1310566258 135.33168 L 448.01873218639 136.55831999999998 L 448.90640774699 126.12504000000001 L 449.79408330758 126.56279999999998 L 450.68175886817 127.42464000000001 L 451.56943442876 129.11183999999997 L 452.45710998935 131.18664 L 453.34478554995 135.6828 L 454.23246111054 154.98072000000002 L 455.12013667113 431.15256 L 456.00781223172 135.66456 L 456.89548779231 141.03168 L 457.78316335291 129.05256000000003 L 458.6708389135 135.08544 L 459.55851447409 130.18344000000002 L 460.44619003468 131.38272 L 461.33386559527 134.85744 L 462.22154115587 135.94272 L 463.10921671646 142.15800000000002 L 463.99689227705 141.80687999999998 L 464.88456783764 147.34728 L 465.77224339823 143.04264 L 466.65991895883 132.31752 L 467.54759451942 132.25367999999997 L 468.43527008001 133.17023999999998 L 469.3229456406 147.24696 L 470.2106212012 158.09064 L 471.09829676179 154.86672 L 471.98597232238 162.95159999999998 L 472.87364788297 154.3788 L 473.76132344356 141.02256 L 474.64899900416 167.84904 L 475.53667456475 163.88639999999998 L 476.42435012534 232.71504 L 477.31202568593 169.18511999999998 L 478.19970124652 158.30496 L 479.08737680712 177.62568 L 479.97505236771 152.50920000000002 L 480.8627279283 150.55752 L 481.75040348889 198.71112 L 482.63807904948 147.61631999999997 L 483.52575461008 145.97472 L 484.41343017067 142.0668 L 485.30110573126 135.4092 L 486.18878129185 131.20488 L 487.07645685244 130.40688 L 487.96413241304 127.16471999999999 L 488.85180797363 122.95128 L 489.73948353422 173.40768000000003 L 490.62715909481 147.29255999999998 L 491.5148346554 129.72287999999998 L 492.402510216 159.35832 L 493.29018577659 120.39312000000001 L 494.17786133718 251.42016 L 495.06553689777 159.89640000000003 L 495.95321245836 136.98696 L 496.84088801896 141.30984 L 497.72856357955 147.10559999999998 L 498.61623914014 135.14472 L 499.50391470073 136.2072 L 500.39159026132 133.5852 L 501.27926582192 134.20535999999998 L 502.16694138251 134.01384000000002 L 503.0546169431 129.85512 L 503.94229250369 118.77431999999999 L 504.82996806428 116.94119999999998 L 505.71764362488 133.22951999999998 L 506.60531918547 127.10543999999999 L 507.49299474606 138.41424 L 508.38067030665 127.83048000000002 L 509.26834586724 130.37040000000002 L 510.15602142784 149.26247999999998 L 511.04369698843 125.5824 L 511.93137254902 131.87063999999998 L 511.93137254902 456 L 511.04369698843 456 L 510.15602142784 456 L 509.26834586724 456 L 508.38067030665 456 L 507.49299474606 456 L 506.60531918547 456 L 505.71764362488 456 L 504.82996806428 456 L 503.94229250369 456 L 503.0546169431 456 L 502.16694138251 456 L 501.27926582192 456 L 500.39159026132 456 L 499.50391470073 456 L 498.61623914014 456 L 497.72856357955 456 L 496.84088801896 456 L 495.95321245836 456 L 495.06553689777 456 L 494.17786133718 456 L 493.29018577659 456 L 492.402510216 456 L 491.5148346554 456 L 490.62715909481 456 L 489.73948353422 456 L 488.85180797363 456 L 487.96413241304 456 L 487.07645685244 456 L 486.18878129185 456 L 485.30110573126 456 L 484.41343017067 456 L 483.52575461008 456 L 482.63807904948 456 L 481.75040348889 456 L 480.8627279283 456 L 479.97505236771 456 L 479.08737680712 456 L 478.19970124652 456 L 477.31202568593 456 L 476.42435012534 456 L 475.53667456475 456 L 474.64899900416 456 L 473.76132344356 456 L 472.87364788297 456 L 471.98597232238 456 L 471.09829676179 456 L 470.2106212012 456 L 469.3229456406 456 L 468.43527008001 456 L 467.54759451942 456 L 466.65991895883 456 L 465.77224339823 456 L 464.88456783764 456 L 463.99689227705 456 L 463.10921671646 456 L 462.22154115587 456 L 461.33386559527 456 L 460.44619003468 456 L 459.55851447409 456 L 458.6708389135 456 L 457.78316335291 456 L 456.89548779231 456 L 456.00781223172 456 L 455.12013667113 456 L 454.23246111054 456 L 453.34478554995 456 L 452.45710998935 456 L 451.56943442876 456 L 450.68175886817 456 L 449.79408330758 456 L 448.90640774699 456 L 448.01873218639 456 L 447.1310566258 456 L 446.24338106521 456 L 445.35570550462 456 L 444.46802994403 456 L 443.58035438343 456 L 442.69267882284 456 L 441.80500326225 456 L 440.91732770166 456 L 440.02965214107 456 L 439.14197658047 456 L 438.25430101988 456 L 437.36662545929 456 L 436.4789498987 456 L 435.59127433811 456 L 434.70359877751 456 L 433.81592321692 456 L 432.92824765633 456 L 432.04057209574 456 L 431.15289653515 456 L 430.26522097455 456 L 429.37754541396 456 L 428.48986985337 456 L 427.60219429278 456 L 426.71451873219 456 L 425.82684317159 456 L 424.939167611 456 L 424.05149205041 456 L 423.16381648982 456 L 422.27614092923 456 L 421.38846536863 456 L 420.50078980804 456 L 419.61311424745 456 L 418.72543868686 456 L 417.83776312627 456 L 416.95008756567 456 L 416.06241200508 456 L 415.17473644449 456 L 414.2870608839 456 L 413.39938532331 456 L 412.51170976271 456 L 411.62403420212 456 L 410.73635864153 456 L 409.84868308094 456 L 408.96100752035 456 L 408.07333195975 456 L 407.18565639916 456 L 406.29798083857 456 L 405.41030527798 456 L 404.52262971739 456 L 403.63495415679 456 L 402.7472785962 456 L 401.85960303561 456 L 400.97192747502 456 L 400.08425191443 456 L 399.19657635383 456 L 398.30890079324 456 L 397.42122523265 456 L 396.53354967206 456 L 395.64587411147 456 L 394.75819855087 456 L 393.87052299028 456 L 392.98284742969 456 L 392.0951718691 456 L 391.20749630851 456 L 390.31982074791 456 L 389.43214518732 456 L 388.54446962673 456 L 387.65679406614 456 L 386.76911850555 456 L 385.88144294495 456 L 384.99376738436 456 L 384.10609182377 456 L 383.21841626318 456 L 382.33074070259 456 L 381.44306514199 456 L 380.5553895814 456 L 379.66771402081 456 L 378.78003846022 456 L 377.89236289963 456 L 377.00468733903 456 L 376.11701177844 456 L 375.22933621785 456 L 374.34166065726 456 L 373.45398509667 456 L 372.56630953607 456 L 371.67863397548 456 L 370.79095841489 456 L 369.9032828543 456 L 369.01560729371 456 L 368.12793173311 456 L 367.24025617252 456 L 366.35258061193 456 L 365.46490505134 456 L 364.57722949075 456 L 363.68955393015 456 L 362.80187836956 456 L 361.91420280897 456 L 361.02652724838 456 L 360.13885168779 456 L 359.25117612719 456 L 358.3635005666 456 L 357.47582500601 456 L 356.58814944542 456 L 355.70047388483 456 L 354.81279832423 456 L 353.92512276364 456 L 353.03744720305 456 L 352.14977164246 456 L 351.26209608187 456 L 350.37442052127 456 L 349.48674496068 456 L 348.59906940009 456 L 347.7113938395 456 L 346.82371827891 456 L 345.93604271831 456 L 345.04836715772 456 L 344.16069159713 456 L 343.27301603654 456 L 342.38534047595 456 L 341.49766491535 456 L 340.60998935476 456 L 339.72231379417 456 L 338.83463823358 456 L 337.94696267299 456 L 337.05928711239 456 L 336.1716115518 456 L 335.28393599121 456 L 334.39626043062 456 L 333.50858487003 456 L 332.62090930943 456 L 331.73323374884 456 L 330.84555818825 456 L 329.95788262766 456 L 329.07020706706 456 L 328.18253150647 456 L 327.29485594588 456 L 326.40718038529 456 L 325.5195048247 456 L 324.6318292641 456 L 323.74415370351 456 L 322.85647814292 456 L 321.96880258233 456 L 321.08112702174 456 L 320.19345146114 456 L 319.30577590055 456 L 318.41810033996 456 L 317.53042477937 456 L 316.64274921878 456 L 315.75507365818 456 L 314.86739809759 456 L 313.979722537 456 L 313.09204697641 456 L 312.20437141582 456 L 311.31669585522 456 L 310.42902029463 456 L 309.54134473404 456 L 308.65366917345 456 L 307.76599361286 456 L 306.87831805226 456 L 305.99064249167 456 L 305.10296693108 456 L 304.21529137049 456 L 303.3276158099 456 L 302.4399402493 456 L 301.55226468871 456 L 300.66458912812 456 L 299.77691356753 456 L 298.88923800694 456 L 298.00156244634 456 L 297.11388688575 456 L 296.22621132516 456 L 295.33853576457 456 L 294.45086020398 456 L 293.56318464338 456 L 292.67550908279 456 L 291.7878335222 456 L 290.90015796161 456 L 290.01248240102 456 L 289.12480684042 456 L 288.23713127983 456 L 287.34945571924 456 L 286.46178015865 456 L 285.57410459806 456 L 284.68642903746 456 L 283.79875347687 456 L 282.91107791628 456 L 282.02340235569 456 L 281.1357267951 456 L 280.2480512345 456 L 279.36037567391 456 L 278.47270011332 456 L 277.58502455273 456 L 276.69734899214 456 L 275.80967343154 456 L 274.92199787095 456 L 274.03432231036 456 L 273.14664674977 456 L 272.25897118918 456 L 271.37129562858 456 L 270.48362006799 456 L 269.5959445074 456 L 268.70826894681 456 L 267.82059338622 456 L 266.93291782562 456 L 266.04524226503 456 L 265.15756670444 456 L 264.26989114385 456 L 263.38221558326 456 L 262.49454002266 456 L 261.60686446207 456 L 260.71918890148 456 L 259.83151334089 456 L 258.9438377803 456 L 258.0561622197 456 L 257.16848665911 456 L 256.28081109852 456 L 255.39313553793 456 L 254.50545997734 456 L 253.61778441674 456 L 252.73010885615 456 L 251.84243329556 456 L 250.95475773497 456 L 250.06708217438 456 L 249.17940661378 456 L 248.29173105319 456 L 247.4040554926 456 L 246.51637993201 456 L 245.62870437142 456 L 244.74102881082 456 L 243.85335325023 456 L 242.96567768964 456 L 242.07800212905 456 L 241.19032656846 456 L 240.30265100786 456 L 239.41497544727 456 L 238.52729988668 456 L 237.63962432609 456 L 236.7519487655 456 L 235.8642732049 456 L 234.97659764431 456 L 234.08892208372 456 L 233.20124652313 456 L 232.31357096254 456 L 231.42589540194 456 L 230.53821984135 456 L 229.65054428076 456 L 228.76286872017 456 L 227.87519315958 456 L 226.98751759898 456 L 226.09984203839 456 L 225.2121664778 456 L 224.32449091721 456 L 223.43681535662 456 L 222.54913979602 456 L 221.66146423543 456 L 220.77378867484 456 L 219.88611311425 456 L 218.99843755366 456 L 218.11076199306 456 L 217.22308643247 456 L 216.33541087188 456 L 215.44773531129 456 L 214.5600597507 456 L 213.6723841901 456 L 212.78470862951 456 L 211.89703306892 456 L 211.00935750833 456 L 210.12168194774 456 L 209.23400638714 456 L 208.34633082655 456 L 207.45865526596 456 L 206.57097970537 456 L 205.68330414478 456 L 204.79562858418 456 L 203.90795302359 456 L 203.020277463 456 L 202.13260190241 456 L 201.24492634182 456 L 200.35725078122 456 L 199.46957522063 456 L 198.58189966004 456 L 197.69422409945 456 L 196.80654853886 456 L 195.91887297826 456 L 195.03119741767 456 L 194.14352185708 456 L 193.25584629649 456 L 192.3681707359 456 L 191.4804951753 456 L 190.59281961471 456 L 189.70514405412 456 L 188.81746849353 456 L 187.92979293293 456 L 187.04211737234 456 L 186.15444181175 456 L 185.26676625116 456 L 184.37909069057 456 L 183.49141512997 456 L 182.60373956938 456 L 181.71606400879 456 L 180.8283884482 456 L 179.94071288761 456 L 179.05303732701 456 L 178.16536176642 456 L 177.27768620583 456 L 176.39001064524 456 L 175.50233508465 456 L 174.61465952405 456 L 173.72698396346 456 L 172.83930840287 456 L 171.95163284228 456 L 171.06395728169 456 L 170.17628172109 456 L 169.2886061605 456 L 168.40093059991 456 L 167.51325503932 456 L 166.62557947873 456 L 165.73790391813 456 L 164.85022835754 456 L 163.96255279695 456 L 163.07487723636 456 L 162.18720167577 456 L 161.29952611517 456 L 160.41185055458 456 L 159.52417499399 456 L 158.6364994334 456 L 157.74882387281 456 L 156.86114831221 456 L 155.97347275162 456 L 155.08579719103 456 L 154.19812163044 456 L 153.31044606985 456 L 152.42277050925 456 L 151.53509494866 456 L 150.64741938807 456 L 149.75974382748 456 L 148.87206826689 456 L 147.98439270629 456 L 147.0967171457 456 L 146.20904158511 456 L 145.32136602452 456 L 144.43369046393 456 L 143.54601490333 456 L 142.65833934274 456 L 141.77066378215 456 L 140.88298822156 456 L 139.99531266097 456 L 139.10763710037 456 L 138.21996153978 456 L 137.33228597919 456 L 136.4446104186 456 L 135.55693485801 456 L 134.66925929741 456 L 133.78158373682 456 L 132.89390817623 456 L 132.00623261564 456 L 131.11855705505 456 L 130.23088149445 456 L 129.34320593386 456 L 128.45553037327 456 L 127.56785481268 456 L 126.68017925209 456 L 125.79250369149 456 L 124.9048281309 456 L 124.01715257031 456 L 123.12947700972 456 L 122.24180144913 456 L 121.35412588853 456 L 120.46645032794 456 L 119.57877476735 456 L 118.69109920676 456 L 117.80342364617 456 L 116.91574808557 456 L 116.02807252498 456 L 115.14039696439 456 L 114.2527214038 456 L 113.36504584321 456 L 112.47737028261 456 L 111.58969472202 456 L 110.70201916143 456 L 109.81434360084 456 L 108.92666804025 456 L 108.03899247965 456 L 107.15131691906 456 L 106.26364135847 456 L 105.37596579788 456 L 104.48829023729 456 L 103.60061467669 456 L 102.7129391161 456 L 101.82526355551 456 L 100.93758799492 456 L 100.04991243433 456 L 99.162236873734 456 L 98.274561313142 456 L 97.38688575255 456 L 96.499210191958 456 L 95.611534631366 456 L 94.723859070774 456 L 93.836183510182 456 L 92.94850794959 456 L 92.060832388998 456 L 91.173156828406 456 L 90.285481267814 456 L 89.397805707222 456 L 88.51013014663 456 L 87.622454586038 456 L 86.734779025446 456 L 85.847103464854 456 L 84.959427904262 456 L 84.07175234367 456 L 83.184076783078 456 L 82.296401222485 456 L 81.408725661893 456 L 80.521050101301 456 L 79.633374540709 456 L 78.745698980117 456 L 77.858023419525 456 L 76.970347858933 456 L 76.082672298341 456 L 75.194996737749 456 L 74.307321177157 456 L 73.419645616565 456 L 72.531970055973 456 L 71.644294495381 456 L 70.756618934789 456 L 69.868943374197 456 L 68.981267813605 456 L 68.093592253013 456 L 67.205916692421 456 L 66.318241131829 456 L 65.430565571237 456 L 64.542890010645 456 L 63.655214450053 456 L 62.767538889461 456 L 61.879863328869 456 L 60.992187768277 456 L 60.104512207685 456 L 59.216836647093 456 L 58.329161086501 456 L 57.441485525909 456 L 56.553809965317 456 L 55.666134404725 456 L 54.778458844133 456 L 53.890783283541 456 L 53.003107722949 456 L 52.115432162357 456 L 51.227756601765 456 L 50.340081041173 456 L 49.452405480581 456 L 48.564729919989 456 L 47.677054359397 456 L 46.789378798805 456 L 45.901703238213 456 L 45.014027677621 456 L 44.126352117029 456 L 43.238676556437 456 L 42.351000995845 456 L 41.463325435253 456 L 40.575649874661 456 L 39.687974314069 456 L 38.800298753477 456 L 37.912623192885 456 L 37.024947632293 456 L 36.137272071701 456 L 35.249596511109 456 L 34.361920950517 456 L 33.474245389925 456 L 32.586569829333 456 L 31.698894268741 456 L 30.811218708149 456 L 29.923543147557 456 L 29.035867586965 456 L 28.148192026373 456 L 27.260516465781 456 L 26.372840905189 456 L 25.485165344597 456 L 24.597489784005 456 L 23.709814223413 456 L 22.822138662821 456 L 21.934463102229 456 L 21.046787541637 456 L 20.159111981045 456 L 19.271436420453 456 L 18.383760859861 456 L 17.496085299269 456 L 16.608409738677 456 L 15.720734178085 456 L 14.833058617493 456 L 13.945383056901 456 L 13.057707496309 456 L 12.170031935716 456 L 11.282356375124 456 L 10.394680814532 456 L 9.5070052539405 456 L 8.6193296933484 456 L 7.7316541327564 456 L 6.8439785721644 456 L 5.9563030115724 456 L 5.0686274509804 456 Z" class="highcharts-area" data-z-index="0"></path><path fill="none" d="M 5.0686274509804 76.04712 L 5.9563030115724 64.75200000000001 L 6.8439785721644 59.106719999999996 L 7.7316541327564 61.90199999999999 L 8.6193296933484 61.436879999999974 L 9.5070052539405 57.583680000000015 L 10.394680814532 62.230320000000006 L 11.282356375124 62.09352000000001 L 12.170031935716 64.31423999999998 L 13.057707496309 56.59415999999999 L 13.945383056901 55.773360000000025 L 14.833058617493 59.61288000000002 L 15.720734178085 60.324239999999975 L 16.608409738677 60.52032000000003 L 17.496085299269 59.51711999999998 L 18.383760859861 73.42056000000002 L 19.271436420453 62.896079999999984 L 20.159111981045 62.704560000000015 L 21.046787541637 64.08168 L 21.934463102229 67.18248 L 22.822138662821 62.896079999999984 L 23.709814223413 69.35759999999999 L 24.597489784005 67.77528000000001 L 25.485165344597 69.66768000000002 L 26.372840905189 66.07440000000003 L 27.260516465781 67.05936000000003 L 28.148192026373 70.19664 L 29.035867586965 63.30648000000002 L 29.923543147557 63.13319999999999 L 30.811218708149 61.081200000000024 L 31.698894268741 59.51256000000001 L 32.586569829333 56.270399999999995 L 33.474245389925 58.31783999999999 L 34.361920950517 60.319680000000005 L 35.249596511109 69.47160000000002 L 36.137272071701 69.07488000000001 L 37.024947632293 64.86144000000002 L 37.912623192885 67.3512 L 38.800298753477 61.82904000000002 L 39.687974314069 65.29007999999999 L 40.575649874661 66.41183999999998 L 41.463325435253 68.65535999999997 L 42.351000995845 67.84823999999998 L 43.238676556437 76.02431999999999 L 44.126352117029 79.52640000000002 L 45.014027677621 67.67952000000002 L 45.901703238213 87.20999999999998 L 46.789378798805 74.32799999999997 L 47.677054359397 61.163279999999986 L 48.564729919989 60.98088000000001 L 49.452405480581 69.63119999999998 L 50.340081041173 64.99367999999998 L 51.227756601765 60.762 L 52.115432162357 64.20936 L 53.003107722949 64.01783999999998 L 53.890783283541 68.17656 L 54.778458844133 69.63576 L 55.666134404725 63.16968000000003 L 56.553809965317 63.41592000000003 L 57.441485525909 60.648000000000025 L 58.329161086501 60.917039999999986 L 59.216836647093 60.8304 L 60.104512207685 59.932079999999985 L 60.992187768277 62.973599999999976 L 61.879863328869 61.65120000000002 L 62.767538889461 61.95672000000002 L 63.655214450053 58.82855999999998 L 64.542890010645 63.096720000000005 L 65.430565571237 64.0224 L 66.318241131829 63.055679999999995 L 67.205916692421 61.01280000000003 L 68.093592253013 61.10856000000001 L 68.981267813605 61.17696000000001 L 69.868943374197 59.585519999999974 L 70.756618934789 60.898799999999994 L 71.644294495381 62.97816 L 72.531970055973 62.025120000000015 L 73.419645616565 62.78663999999998 L 74.307321177157 70.57056 L 75.194996737749 62.234879999999976 L 76.082672298341 62.11631999999997 L 76.970347858933 60.00959999999998 L 77.858023419525 61.683119999999974 L 78.745698980117 59.32103999999998 L 79.633374540709 59.55815999999999 L 80.521050101301 58.70544000000001 L 81.408725661893 57.21431999999999 L 82.296401222485 58.016880000000015 L 83.184076783078 57.71591999999998 L 84.07175234367 59.36664000000002 L 84.959427904262 63.94943999999998 L 85.847103464854 64.92072000000002 L 86.734779025446 63.406799999999976 L 87.622454586038 63.46152000000001 L 88.51013014663 64.59696000000002 L 89.397805707222 66.46656000000002 L 90.285481267814 66.29784000000001 L 91.173156828406 81.65591999999998 L 92.060832388998 75.98327999999998 L 92.94850794959 62.26224000000002 L 93.836183510182 60.67536000000001 L 94.723859070774 60.757439999999974 L 95.611534631366 63.27911999999998 L 96.499210191958 57.33287999999999 L 97.38688575255 60.19200000000001 L 98.274561313142 61.15872000000002 L 99.162236873734 61.099440000000016 L 100.04991243433 61.309199999999976 L 100.93758799492 60.88511999999997 L 101.82526355551 62.581439999999986 L 102.7129391161 63.43416000000002 L 103.60061467669 65.38128 L 104.48829023729 63.86736000000002 L 105.37596579788 62.54951999999997 L 106.26364135847 62.14823999999999 L 107.15131691906 62.49023999999997 L 108.03899247965 64.98000000000002 L 108.92666804025 74.11367999999999 L 109.81434360084 78.28608000000003 L 110.70201916143 78.57335999999998 L 111.58969472202 72.618 L 112.47737028261 72.54503999999997 L 113.36504584321 70.22856000000002 L 114.2527214038 75.21264000000002 L 115.14039696439 76.43928 L 116.02807252498 156.57672000000002 L 116.91574808557 77.83463999999998 L 117.80342364617 70.14648 L 118.69109920676 77.32848000000001 L 119.57877476735 71.38224000000002 L 120.46645032794 64.73831999999999 L 121.35412588853 67.67039999999997 L 122.24180144913 70.15104000000002 L 123.12947700972 70.78032000000002 L 124.01715257031 68.82864000000001 L 124.9048281309 68.83776 L 125.79250369149 68.46384 L 126.68017925209 69.81815999999998 L 127.56785481268 71.21352000000002 L 128.45553037327 72.36720000000003 L 129.34320593386 73.33391999999998 L 130.23088149445 76.82231999999999 L 131.11855705505 73.83551999999997 L 132.00623261564 75.52728000000002 L 132.89390817623 78.36360000000002 L 133.78158373682 76.85879999999997 L 134.66925929741 78.13103999999998 L 135.55693485801 75.01656000000003 L 136.4446104186 76.56696 L 137.33228597919 76.55327999999997 L 138.21996153978 89.16624000000002 L 139.10763710037 80.10095999999999 L 139.99531266097 85.22183999999999 L 140.88298822156 90.57528000000002 L 141.77066378215 89.68151999999998 L 142.65833934274 95.83296000000001 L 143.54601490333 96.65832 L 144.43369046393 94.62 L 145.32136602452 97.53384 L 146.20904158511 98.50056000000001 L 147.0967171457 94.392 L 147.98439270629 86.61720000000003 L 148.87206826689 86.97287999999998 L 149.75974382748 86.96832 L 150.64741938807 86.84976 L 151.53509494866 99.04775999999998 L 152.42277050925 87.07319999999999 L 153.31044606985 90.31079999999997 L 154.19812163044 89.08872000000002 L 155.08579719103 91.7244 L 155.97347275162 90.51600000000002 L 156.86114831221 89.1252 L 157.74882387281 90.08735999999999 L 158.6364994334 96.98208 L 159.52417499399 88.86527999999998 L 160.41185055458 91.12248 L 161.29952611517 83.25191999999998 L 162.18720167577 85.51823999999999 L 163.07487723636 87.57024000000001 L 163.96255279695 84.71568000000002 L 164.85022835754 83.01936 L 165.73790391813 87.19632000000001 L 166.62557947873 87.38783999999998 L 167.51325503932 83.75808 L 168.40093059991 87.38328000000001 L 169.2886061605 87.34224 L 170.17628172109 89.53559999999999 L 171.06395728169 91.95240000000001 L 171.95163284228 90.21960000000001 L 172.83930840287 102.44495999999998 L 173.72698396346 82.38551999999999 L 174.61465952405 82.48128000000003 L 175.50233508465 77.37407999999999 L 176.39001064524 77.62488000000002 L 177.27768620583 76.3116 L 178.16536176642 91.60127999999997 L 179.05303732701 90.83064000000002 L 179.94071288761 73.74432000000002 L 180.8283884482 72.27600000000001 L 181.71606400879 68.60064 L 182.60373956938 71.68776000000003 L 183.49141512997 95.418 L 184.37909069057 81.55560000000003 L 185.26676625116 92.8872 L 186.15444181175 91.30032 L 187.04211737234 93.85847999999999 L 187.92979293293 102.01632000000001 L 188.81746849353 92.91912000000002 L 189.70514405412 105.71447999999998 L 190.59281961471 87.52008000000001 L 191.4804951753 107.92608000000001 L 192.3681707359 87.55200000000002 L 193.25584629649 108.33192000000003 L 194.14352185708 97.81200000000001 L 195.03119741767 95.28575999999998 L 195.91887297826 90.88535999999999 L 196.80654853886 86.93184000000002 L 197.69422409945 92.62272000000002 L 198.58189966004 94.43759999999997 L 199.46957522063 99.93696 L 200.35725078122 84.61991999999998 L 201.24492634182 86.61720000000003 L 202.13260190241 93.30216000000001 L 203.020277463 93.594 L 203.90795302359 96.43943999999999 L 204.79562858418 108.73775999999998 L 205.68330414478 95.90591999999998 L 206.57097970537 104.62920000000003 L 207.45865526596 98.09928000000002 L 208.34633082655 99.6816 L 209.23400638714 112.46784000000002 L 210.12168194774 98.69207999999998 L 211.00935750833 83.04672 L 211.89703306892 80.46120000000002 L 212.78470862951 79.45344 L 213.6723841901 72.16656 L 214.5600597507 82.32168000000001 L 215.44773531129 81.33672000000001 L 216.33541087188 73.95407999999998 L 217.22308643247 72.17111999999997 L 218.11076199306 71.05392 L 218.99843755366 72.02519999999998 L 219.88611311425 72.24864000000002 L 220.77378867484 74.98919999999998 L 221.66146423543 74.72016000000002 L 222.54913979602 65.74151999999998 L 223.43681535662 73.11504000000002 L 224.32449091721 72.62711999999999 L 225.2121664778 72.13463999999999 L 226.09984203839 72.79584 L 226.98751759898 79.14792 L 227.87519315958 75.16703999999999 L 228.76286872017 71.37768 L 229.65054428076 73.89024 L 230.53821984135 72.64992000000001 L 231.42589540194 73.20623999999998 L 232.31357096254 78.20855999999998 L 233.20124652313 83.06952000000001 L 234.08892208372 115.82400000000001 L 234.97659764431 85.23552000000001 L 235.8642732049 97.94423999999998 L 236.7519487655 99.47640000000001 L 237.63962432609 105.76463999999999 L 238.52729988668 137.11007999999998 L 239.41497544727 121.35984000000002 L 240.30265100786 121.19112000000001 L 241.19032656846 130.66224 L 242.07800212905 134.92128000000002 L 242.96567768964 135.92448000000002 L 243.85335325023 133.38 L 244.74102881082 129.3216 L 245.62870437142 129.89159999999998 L 246.51637993201 130.27463999999998 L 247.4040554926 121.12272000000002 L 248.29173105319 120.66215999999997 L 249.17940661378 124.56551999999999 L 250.06708217438 127.32888000000003 L 250.95475773497 129.19392 L 251.84243329556 137.25599999999997 L 252.73010885615 130.35672 L 253.61778441674 127.30151999999998 L 254.50545997734 132.18072 L 255.39313553793 135.39096 L 256.28081109852 142.2948 L 257.16848665911 123.32064000000003 L 258.0561622197 121.59696000000002 L 258.9438377803 126.79536000000002 L 259.83151334089 133.29336 L 260.71918890148 153.18864000000002 L 261.60686446207 183.73608000000002 L 262.49454002266 182.7192 L 263.38221558326 245.76576 L 264.26989114385 151.46952 L 265.15756670444 155.70119999999997 L 266.04524226503 166.54944 L 266.93291782562 153.73584 L 267.82059338622 141.85703999999998 L 268.70826894681 138.59663999999998 L 269.5959445074 134.69783999999999 L 270.48362006799 139.40375999999998 L 271.37129562858 137.38368000000003 L 272.25897118918 140.64864 L 273.14664674977 137.49311999999998 L 274.03432231036 136.51728000000003 L 274.92199787095 139.51776 L 275.80967343154 137.58888000000002 L 276.69734899214 137.79408 L 277.58502455273 139.07544000000001 L 278.47270011332 138.19080000000002 L 279.36037567391 141.91176000000002 L 280.2480512345 143.68104 L 281.1357267951 142.78728 L 282.02340235569 137.94 L 282.91107791628 137.89896 L 283.79875347687 138.16343999999998 L 284.68642903746 137.49311999999998 L 285.57410459806 134.60664000000003 L 286.46178015865 135.54144000000002 L 287.34945571924 133.32528000000002 L 288.23713127983 135.29520000000002 L 289.12480684042 139.23504000000003 L 290.01248240102 145.23144000000002 L 290.90015796161 152.67336 L 291.7878335222 163.2024 L 292.67550908279 173.68128000000002 L 293.56318464338 162.75096000000002 L 294.45086020398 151.18223999999998 L 295.33853576457 145.85616 L 296.22621132516 143.44392 L 297.11388688575 141.21864 L 298.00156244634 140.13792 L 298.88923800694 136.37592 L 299.77691356753 139.78680000000003 L 300.66458912812 136.01112 L 301.55226468871 138.20448 L 302.4399402493 142.97424 L 303.3276158099 140.72160000000002 L 304.21529137049 141.14568000000003 L 305.10296693108 140.31576 L 305.99064249167 142.90127999999999 L 306.87831805226 142.81464 L 307.76599361286 142.53192 L 308.65366917345 145.28616 L 309.54134473404 144.3924 L 310.42902029463 142.272 L 311.31669585522 141.78408000000002 L 312.20437141582 146.1252 L 313.09204697641 160.20648 L 313.979722537 153.89999999999998 L 314.86739809759 166.42631999999998 L 315.75507365818 170.94984 L 316.64274921878 161.11847999999998 L 317.53042477937 155.04000000000002 L 318.41810033996 168.94344 L 319.30577590055 171.68856 L 320.19345146114 153.22055999999998 L 321.08112702174 157.13304 L 321.96880258233 146.29847999999998 L 322.85647814292 144.77087999999998 L 323.74415370351 139.55880000000002 L 324.6318292641 138.4644 L 325.5195048247 146.08872000000002 L 326.40718038529 149.75952 L 327.29485594588 148.86576000000002 L 328.18253150647 139.91904 L 329.07020706706 138.56016 L 329.95788262766 146.57208000000003 L 330.84555818825 161.57448 L 331.73323374884 140.65776 L 332.62090930943 139.52231999999998 L 333.50858487003 141.54696 L 334.39626043062 140.01024 L 335.28393599121 141.4968 L 336.1716115518 142.19448 L 337.05928711239 135.7056 L 337.94696267299 140.53464000000002 L 338.83463823358 136.01112 L 339.72231379417 136.91856 L 340.60998935476 136.11599999999999 L 341.49766491535 135.16752000000002 L 342.38534047595 134.91215999999997 L 343.27301603654 157.42487999999997 L 344.16069159713 150.76728000000003 L 345.04836715772 135.69648 L 345.93604271831 135.49128000000002 L 346.82371827891 139.78680000000003 L 347.7113938395 140.22456 L 348.59906940009 139.61352 L 349.48674496068 144.3924 L 350.37442052127 147.67559999999997 L 351.26209608187 144.01391999999998 L 352.14977164246 146.81376 L 353.03744720305 149.62727999999998 L 353.92512276364 151.00896 L 354.81279832423 152.03496 L 355.70047388483 150.35688 L 356.58814944542 155.87903999999997 L 357.47582500601 236.91024 L 358.3635005666 136.75896 L 359.25117612719 143.07912 L 360.13885168779 137.65728000000001 L 361.02652724838 134.63400000000001 L 361.91420280897 138.66503999999998 L 362.80187836956 146.31216 L 363.68955393015 143.3664 L 364.57722949075 155.42304000000001 L 365.46490505134 143.13384000000002 L 366.35258061193 138.76080000000002 L 367.24025617252 137.65272 L 368.12793173311 133.82688000000002 L 369.01560729371 135.29976 L 369.9032828543 135.2724 L 370.79095841489 138.91584 L 371.67863397548 136.78176000000002 L 372.56630953607 130.37040000000002 L 373.45398509667 127.11455999999998 L 374.34166065726 127.84872000000001 L 375.22933621785 136.23000000000002 L 376.11701177844 149.94191999999998 L 377.00468733903 144.07776 L 377.89236289963 144.61128000000002 L 378.78003846022 145.66464000000002 L 379.66771402081 142.50912 L 380.5553895814 145.24512 L 381.44306514199 145.61903999999998 L 382.33074070259 163.56264 L 383.21841626318 149.78688 L 384.10609182377 154.87583999999998 L 384.99376738436 151.10016000000002 L 385.88144294495 151.26888000000002 L 386.76911850555 148.16807999999997 L 387.65679406614 148.51008000000002 L 388.54446962673 152.42255999999998 L 389.43214518732 157.75776000000002 L 390.31982074791 146.89584000000002 L 391.20749630851 136.74984 L 392.0951718691 138.09048 L 392.98284742969 130.21992 L 393.87052299028 129.34895999999998 L 394.75819855087 129.07536 L 395.64587411147 130.21535999999998 L 396.53354967206 133.40735999999998 L 397.42122523265 161.52432 L 398.30890079324 134.42424 L 399.19657635383 134.68872 L 400.08425191443 133.05624 L 400.97192747502 133.95456000000001 L 401.85960303561 140.43432 L 402.7472785962 130.05576000000002 L 403.63495415679 127.50671999999997 L 404.52262971739 127.36991999999998 L 405.41030527798 127.37448 L 406.29798083857 146.77728000000002 L 407.18565639916 145.48680000000002 L 408.07333195975 149.3856 L 408.96100752035 131.79768 L 409.84868308094 146.11608 L 410.73635864153 137.40192000000002 L 411.62403420212 136.06128 L 412.51170976271 149.37192 L 413.39938532331 141.17759999999998 L 414.2870608839 152.14440000000002 L 415.17473644449 148.54656 L 416.06241200508 127.47935999999999 L 416.95008756567 124.91663999999997 L 417.83776312627 123.22032000000002 L 418.72543868686 122.322 L 419.61311424745 121.0908 L 420.50078980804 122.13504 L 421.38846536863 124.22352000000001 L 422.27614092923 127.83048000000002 L 423.16381648982 125.51855999999998 L 424.05149205041 124.36488000000003 L 424.939167611 126.12047999999999 L 425.82684317159 124.65215999999998 L 426.71451873219 136.4352 L 427.60219429278 135.96096 L 428.48986985337 130.63031999999998 L 429.37754541396 128.42784 L 430.26522097455 130.1424 L 431.15289653515 132.46800000000002 L 432.04057209574 134.406 L 432.92824765633 139.97376000000003 L 433.81592321692 162.07152000000002 L 434.70359877751 144.61584 L 435.59127433811 134.20535999999998 L 436.4789498987 147.20592 L 437.36662545929 138.61032 L 438.25430101988 146.17991999999998 L 439.14197658047 152.71895999999998 L 440.02965214107 151.16856 L 440.91732770166 159.69119999999998 L 441.80500326225 151.848 L 442.69267882284 153.1476 L 443.58035438343 159.49512 L 444.46802994403 138.50544000000002 L 445.35570550462 138.71064 L 446.24338106521 139.16208 L 447.1310566258 135.33168 L 448.01873218639 136.55831999999998 L 448.90640774699 126.12504000000001 L 449.79408330758 126.56279999999998 L 450.68175886817 127.42464000000001 L 451.56943442876 129.11183999999997 L 452.45710998935 131.18664 L 453.34478554995 135.6828 L 454.23246111054 154.98072000000002 L 455.12013667113 431.15256 L 456.00781223172 135.66456 L 456.89548779231 141.03168 L 457.78316335291 129.05256000000003 L 458.6708389135 135.08544 L 459.55851447409 130.18344000000002 L 460.44619003468 131.38272 L 461.33386559527 134.85744 L 462.22154115587 135.94272 L 463.10921671646 142.15800000000002 L 463.99689227705 141.80687999999998 L 464.88456783764 147.34728 L 465.77224339823 143.04264 L 466.65991895883 132.31752 L 467.54759451942 132.25367999999997 L 468.43527008001 133.17023999999998 L 469.3229456406 147.24696 L 470.2106212012 158.09064 L 471.09829676179 154.86672 L 471.98597232238 162.95159999999998 L 472.87364788297 154.3788 L 473.76132344356 141.02256 L 474.64899900416 167.84904 L 475.53667456475 163.88639999999998 L 476.42435012534 232.71504 L 477.31202568593 169.18511999999998 L 478.19970124652 158.30496 L 479.08737680712 177.62568 L 479.97505236771 152.50920000000002 L 480.8627279283 150.55752 L 481.75040348889 198.71112 L 482.63807904948 147.61631999999997 L 483.52575461008 145.97472 L 484.41343017067 142.0668 L 485.30110573126 135.4092 L 486.18878129185 131.20488 L 487.07645685244 130.40688 L 487.96413241304 127.16471999999999 L 488.85180797363 122.95128 L 489.73948353422 173.40768000000003 L 490.62715909481 147.29255999999998 L 491.5148346554 129.72287999999998 L 492.402510216 159.35832 L 493.29018577659 120.39312000000001 L 494.17786133718 251.42016 L 495.06553689777 159.89640000000003 L 495.95321245836 136.98696 L 496.84088801896 141.30984 L 497.72856357955 147.10559999999998 L 498.61623914014 135.14472 L 499.50391470073 136.2072 L 500.39159026132 133.5852 L 501.27926582192 134.20535999999998 L 502.16694138251 134.01384000000002 L 503.0546169431 129.85512 L 503.94229250369 118.77431999999999 L 504.82996806428 116.94119999999998 L 505.71764362488 133.22951999999998 L 506.60531918547 127.10543999999999 L 507.49299474606 138.41424 L 508.38067030665 127.83048000000002 L 509.26834586724 130.37040000000002 L 510.15602142784 149.26247999999998 L 511.04369698843 125.5824 L 511.93137254902 131.87063999999998" class="highcharts-graph" data-z-index="1" stroke="rgb(3, 63, 64)" stroke-opacity=" 1" stroke-width="1" stroke-linejoin="round" stroke-linecap="round"></path></g><g class="highcharts-markers highcharts-series-0 highcharts-area-series" data-z-index="0.1" opacity="1" transform="translate(73,59) scale(1 1)" clip-path="none"></g></g><text x="300" text-anchor="middle" class="highcharts-title" data-z-index="4" style="color: rgb(51, 51, 51); font-size: 18px; fill: rgb(51, 51, 51);" y="24">Near Block Count</text><text x="300" text-anchor="middle" class="highcharts-subtitle" data-z-index="4" style="color: rgb(102, 102, 102); fill: rgb(102, 102, 102);" y="44">Source: NearBlocks.io</text><text x="10" text-anchor="start" class="highcharts-caption" data-z-index="4" style="color: rgb(102, 102, 102); fill: rgb(102, 102, 102);" y="547"></text><g class="highcharts-axis-labels highcharts-xaxis-labels" data-z-index="7"><text x="104.90231991804" text-anchor="middle" transform="translate(0,0)" style="color: rgb(102, 102, 102); cursor: default; font-size: 11px; fill: rgb(102, 102, 102);" y="534" opacity="1">May '21</text><text x="214.08641387086" text-anchor="middle" transform="translate(0,0)" style="color: rgb(102, 102, 102); cursor: default; font-size: 11px; fill: rgb(102, 102, 102);" y="534" opacity="1">Sep '21</text><text x="322.38283226309" text-anchor="middle" transform="translate(0,0)" style="color: rgb(102, 102, 102); cursor: default; font-size: 11px; fill: rgb(102, 102, 102);" y="534" opacity="1">Jan '22</text><text x="428.90389953413" text-anchor="middle" transform="translate(0,0)" style="color: rgb(102, 102, 102); cursor: default; font-size: 11px; fill: rgb(102, 102, 102);" y="534" opacity="1">May '22</text><text x="538.08799348695" text-anchor="middle" transform="translate(0,0)" style="color: rgb(102, 102, 102); cursor: default; font-size: 11px; fill: rgb(102, 102, 102);" y="534" opacity="1">Sep '22</text></g><g class="highcharts-axis-labels highcharts-yaxis-labels" data-z-index="7"><text x="58" text-anchor="end" transform="translate(0,0)" style="color: rgb(102, 102, 102); cursor: default; font-size: 11px; fill: rgb(102, 102, 102);" y="520" opacity="1">0</text><text x="58" text-anchor="end" transform="translate(0,0)" style="color: rgb(102, 102, 102); cursor: default; font-size: 11px; fill: rgb(102, 102, 102);" y="474" opacity="1">10k</text><text x="58" text-anchor="end" transform="translate(0,0)" style="color: rgb(102, 102, 102); cursor: default; font-size: 11px; fill: rgb(102, 102, 102);" y="429" opacity="1">20k</text><text x="58" text-anchor="end" transform="translate(0,0)" style="color: rgb(102, 102, 102); cursor: default; font-size: 11px; fill: rgb(102, 102, 102);" y="383" opacity="1">30k</text><text x="58" text-anchor="end" transform="translate(0,0)" style="color: rgb(102, 102, 102); cursor: default; font-size: 11px; fill: rgb(102, 102, 102);" y="338" opacity="1">40k</text><text x="58" text-anchor="end" transform="translate(0,0)" style="color: rgb(102, 102, 102); cursor: default; font-size: 11px; fill: rgb(102, 102, 102);" y="292" opacity="1">50k</text><text x="58" text-anchor="end" transform="translate(0,0)" style="color: rgb(102, 102, 102); cursor: default; font-size: 11px; fill: rgb(102, 102, 102);" y="246" opacity="1">60k</text><text x="58" text-anchor="end" transform="translate(0,0)" style="color: rgb(102, 102, 102); cursor: default; font-size: 11px; fill: rgb(102, 102, 102);" y="201" opacity="1">70k</text><text x="58" text-anchor="end" transform="translate(0,0)" style="color: rgb(102, 102, 102); cursor: default; font-size: 11px; fill: rgb(102, 102, 102);" y="155" opacity="1">80k</text><text x="58" text-anchor="end" transform="translate(0,0)" style="color: rgb(102, 102, 102); cursor: default; font-size: 11px; fill: rgb(102, 102, 102);" y="110" opacity="1">90k</text><text x="58" text-anchor="end" transform="translate(0,0)" style="color: rgb(102, 102, 102); cursor: default; font-size: 11px; fill: rgb(102, 102, 102);" y="64" opacity="1">100k</text></g></svg>