<?xml version="1.0" standalone="no"?><!DOCTYPE svg PUBLIC "-//W3C//DTD SVG 1.1//EN" "http://www.w3.org/Graphics/SVG/1.1/DTD/svg11.dtd"><svg xmlns:xlink="http://www.w3.org/1999/xlink" version="1.1" class="highcharts-root" style="font-family: &quot;Lucida Grande&quot;, &quot;Lucida Sans Unicode&quot;, Arial, Helvetica, sans-serif; font-size: 12px;" xmlns="http://www.w3.org/2000/svg" width="600" height="550" viewBox="0 0 600 550"><desc>Created with Highcharts 10.1.0</desc><defs><clipPath id="highcharts-ild5lm2-1159-"><rect x="0" y="0" width="520" height="456" fill="none"></rect></clipPath><clipPath id="highcharts-ild5lm2-1732-"><rect x="0" y="0" width="520" height="456" fill="none"></rect></clipPath><linearGradient x1="0" y1="0" x2="0" y2="1" id="highcharts-ild5lm2-1733"><stop offset="0" stop-color="rgb(3,63,64)" stop-opacity="0.8"></stop><stop offset="1" stop-color="rgb(3,63,64)" stop-opacity="0"></stop></linearGradient></defs><rect fill="none" class="highcharts-background" x="0" y="0" width="600" height="550" rx="0" ry="0"></rect><rect fill="none" class="highcharts-plot-background" x="70" y="59" width="520" height="456"></rect><g class="highcharts-grid highcharts-xaxis-grid" data-z-index="1"><path fill="none" stroke-dasharray="none" data-z-index="1" class="highcharts-grid-line" d="M 101.5 59 L 101.5 515" opacity="1"></path><path fill="none" stroke-dasharray="none" data-z-index="1" class="highcharts-grid-line" d="M 211.5 59 L 211.5 515" opacity="1"></path><path fill="none" stroke-dasharray="none" data-z-index="1" class="highcharts-grid-line" d="M 320.5 59 L 320.5 515" opacity="1"></path><path fill="none" stroke-dasharray="none" data-z-index="1" class="highcharts-grid-line" d="M 427.5 59 L 427.5 515" opacity="1"></path><path fill="none" stroke-dasharray="none" data-z-index="1" class="highcharts-grid-line" d="M 537.5 59 L 537.5 515" opacity="1"></path></g><g class="highcharts-grid highcharts-yaxis-grid" data-z-index="1"><path fill="none" stroke="#e6e6e6" stroke-width="1" stroke-dasharray="none" data-z-index="1" class="highcharts-grid-line" d="M 70 515.5 L 590 515.5" opacity="1"></path><path fill="none" stroke="#e6e6e6" stroke-width="1" stroke-dasharray="none" data-z-index="1" class="highcharts-grid-line" d="M 70 450.5 L 590 450.5" opacity="1"></path><path fill="none" stroke="#e6e6e6" stroke-width="1" stroke-dasharray="none" data-z-index="1" class="highcharts-grid-line" d="M 70 385.5 L 590 385.5" opacity="1"></path><path fill="none" stroke="#e6e6e6" stroke-width="1" stroke-dasharray="none" data-z-index="1" class="highcharts-grid-line" d="M 70 320.5 L 590 320.5" opacity="1"></path><path fill="none" stroke="#e6e6e6" stroke-width="1" stroke-dasharray="none" data-z-index="1" class="highcharts-grid-line" d="M 70 254.5 L 590 254.5" opacity="1"></path><path fill="none" stroke="#e6e6e6" stroke-width="1" stroke-dasharray="none" data-z-index="1" class="highcharts-grid-line" d="M 70 189.5 L 590 189.5" opacity="1"></path><path fill="none" stroke="#e6e6e6" stroke-width="1" stroke-dasharray="none" data-z-index="1" class="highcharts-grid-line" d="M 70 124.5 L 590 124.5" opacity="1"></path><path fill="none" stroke="#e6e6e6" stroke-width="1" stroke-dasharray="none" data-z-index="1" class="highcharts-grid-line" d="M 70 58.5 L 590 58.5" opacity="1"></path></g><rect fill="none" class="highcharts-plot-border" data-z-index="1" x="70" y="59" width="520" height="456"></rect><g class="highcharts-axis highcharts-xaxis" data-z-index="2"><path fill="none" class="highcharts-tick" stroke="#ccd6eb" stroke-width="1" d="M 101.5 515 L 101.5 525" opacity="1"></path><path fill="none" class="highcharts-tick" stroke="#ccd6eb" stroke-width="1" d="M 211.5 515 L 211.5 525" opacity="1"></path><path fill="none" class="highcharts-tick" stroke="#ccd6eb" stroke-width="1" d="M 320.5 515 L 320.5 525" opacity="1"></path><path fill="none" class="highcharts-tick" stroke="#ccd6eb" stroke-width="1" d="M 427.5 515 L 427.5 525" opacity="1"></path><path fill="none" class="highcharts-tick" stroke="#ccd6eb" stroke-width="1" d="M 537.5 515 L 537.5 525" opacity="1"></path><path fill="none" class="highcharts-axis-line" stroke="#ccd6eb" stroke-width="1" data-z-index="7" d="M 70 515.5 L 590 515.5"></path></g><g class="highcharts-axis highcharts-yaxis" data-z-index="2"><text x="24.203125" data-z-index="7" text-anchor="middle" transform="translate(0,0) rotate(270 24.203125 287)" class="highcharts-axis-title" style="color: rgb(102, 102, 102); fill: rgb(102, 102, 102);" y="287">Near Market Cap (USD)</text><path fill="none" class="highcharts-axis-line" data-z-index="7" d="M 70 59 L 70 515"></path></g><g class="highcharts-series-group" data-z-index="3"><g class="highcharts-series highcharts-series-0 highcharts-area-series" data-z-index="0.1" opacity="1" transform="translate(70,59) scale(1 1)" clip-path="url(#highcharts-ild5lm2-1732-)"><path fill="url(#highcharts-ild5lm2-1733)" d="M 5.0980392156863 456 L 5.9908656982933 456 L 6.8836921809004 456 L 7.7765186635074 456 L 8.6693451461145 456 L 9.5621716287215 456 L 10.454998111329 456 L 11.347824593936 456 L 12.240651076543 456 L 13.13347755915 456 L 14.026304041757 456 L 14.919130524364 456 L 15.811957006971 456 L 16.704783489578 456 L 17.597609972185 456 L 18.490436454792 456 L 19.383262937399 456 L 20.276089420006 456 L 21.168915902613 456 L 22.06174238522 456 L 22.954568867827 456 L 23.847395350434 456 L 24.740221833041 456 L 25.633048315649 456 L 26.525874798256 456 L 27.418701280863 456 L 28.31152776347 456 L 29.204354246077 456 L 30.097180728684 456 L 30.990007211291 456 L 31.882833693898 456 L 32.775660176505 456 L 33.668486659112 456 L 34.561313141719 456 L 35.454139624326 456 L 36.346966106933 456 L 37.23979258954 456 L 38.132619072147 456 L 39.025445554754 456 L 39.918272037361 456 L 40.811098519968 456 L 41.703925002575 456 L 42.596751485183 456 L 43.48957796779 456 L 44.382404450397 456 L 45.275230933004 456 L 46.168057415611 456 L 47.060883898218 456 L 47.953710380825 456 L 48.846536863432 456 L 49.739363346039 456 L 50.632189828646 456 L 51.525016311253 456 L 52.41784279386 456 L 53.310669276467 456 L 54.203495759074 456 L 55.096322241681 456 L 55.989148724288 456 L 56.881975206895 456 L 57.774801689502 456 L 58.667628172109 456 L 59.560454654717 456 L 60.453281137324 456 L 61.346107619931 456 L 62.238934102538 456 L 63.131760585145 456 L 64.024587067752 456 L 64.917413550359 456 L 65.810240032966 456 L 66.703066515573 456 L 67.59589299818 456 L 68.488719480787 456 L 69.381545963394 456 L 70.274372446001 456 L 71.167198928608 456 L 72.060025411215 456 L 72.952851893822 456 L 73.845678376429 456 L 74.738504859036 456 L 75.631331341643 456 L 76.524157824251 456 L 77.416984306858 456 L 78.309810789465 456 L 79.202637272072 456 L 80.095463754679 456 L 80.988290237286 456 L 81.881116719893 456 L 82.7739432025 456 L 83.666769685107 456 L 84.559596167714 456 L 85.452422650321 456 L 86.345249132928 456 L 87.238075615535 456 L 88.130902098142 456 L 89.023728580749 456 L 89.916555063356 456 L 90.809381545963 456 L 91.70220802857 456 L 92.595034511178 456 L 93.487860993785 456 L 94.380687476392 456 L 95.273513958999 456 L 96.166340441606 456 L 97.059166924213 456 L 97.95199340682 456 L 98.844819889427 456 L 99.737646372034 456 L 100.63047285464 456 L 101.52329933725 456 L 102.41612581986 456 L 103.30895230246 456 L 104.20177878507 456 L 105.09460526768 456 L 105.98743175028 456 L 106.88025823289 456 L 107.7730847155 456 L 108.6659111981 456 L 109.55873768071 456 L 110.45156416332 456 L 111.34439064593 456 L 112.23721712853 456 L 113.13004361114 456 L 114.02287009375 456 L 114.91569657635 456 L 115.80852305896 456 L 116.70134954157 456 L 117.59417602417 456 L 118.48700250678 456 L 119.37982898939 456 L 120.272655472 456 L 121.1654819546 456 L 122.05830843721 456 L 122.95113491982 456 L 123.84396140242 456 L 124.73678788503 456 L 125.62961436764 456 L 126.52244085025 456 L 127.41526733285 456 L 128.30809381546 456 L 129.20092029807 456 L 130.09374678067 456 L 130.98657326328 456 L 131.87939974589 456 L 132.77222622849 456 L 133.6650527111 456 L 134.55787919371 456 L 135.45070567632 456 L 136.34353215892 456 L 137.23635864153 456 L 138.12918512414 456 L 139.02201160674 456 L 139.91483808935 456 L 140.80766457196 456 L 141.70049105457 456 L 142.59331753717 456 L 143.48614401978 456 L 144.37897050239 456 L 145.27179698499 456 L 146.1646234676 456 L 147.05744995021 456 L 147.95027643281 456 L 148.84310291542 456 L 149.73592939803 456 L 150.62875588064 456 L 151.52158236324 456 L 152.41440884585 456 L 153.30723532846 456 L 154.20006181106 456 L 155.09288829367 456 L 155.98571477628 456 L 156.87854125889 456 L 157.77136774149 456 L 158.6641942241 456 L 159.55702070671 456 L 160.44984718931 456 L 161.34267367192 456 L 162.23550015453 456 L 163.12832663713 456 L 164.02115311974 456 L 164.91397960235 456 L 165.80680608496 456 L 166.69963256756 456 L 167.59245905017 456 L 168.48528553278 456 L 169.37811201538 456 L 170.27093849799 456 L 171.1637649806 456 L 172.05659146321 456 L 172.94941794581 456 L 173.84224442842 456 L 174.73507091103 456 L 175.62789739363 456 L 176.52072387624 456 L 177.41355035885 456 L 178.30637684145 456 L 179.19920332406 456 L 180.09202980667 456 L 180.98485628928 456 L 181.87768277188 456 L 182.77050925449 456 L 183.6633357371 456 L 184.5561622197 456 L 185.44898870231 456 L 186.34181518492 456 L 187.23464166753 456 L 188.12746815013 456 L 189.02029463274 456 L 189.91312111535 456 L 190.80594759795 456 L 191.69877408056 456 L 192.59160056317 456 L 193.48442704577 456 L 194.37725352838 456 L 195.27008001099 456 L 196.1629064936 456 L 197.0557329762 456 L 197.94855945881 456 L 198.84138594142 456 L 199.73421242402 456 L 200.62703890663 456 L 201.51986538924 456 L 202.41269187185 456 L 203.30551835445 456 L 204.19834483706 456 L 205.09117131967 456 L 205.98399780227 456 L 206.87682428488 456 L 207.76965076749 456 L 208.66247725009 456 L 209.5553037327 258.04220230961 L 210.44813021531 282.00648978115 L 211.34095669792 288.47271600219 L 212.23378318052 299.52216799654 L 213.12660966313 283.80386758103 L 214.01943614574 276.54635766161 L 214.91226262834 276.30657622149 L 215.80508911095 285.89003306595 L 216.69791559356 273.92391675787997 L 217.59074207616 286.89149744784004 L 218.48356855877 285.89766645808004 L 219.37639504138 304.70953149545 L 220.26922152399 304.46299361495 L 221.16204800659 301.74010771759004 L 222.0548744892 300.31590191345003 L 222.94770097181 294.08625732511 L 223.84052745441 299.57685739735996 L 224.73335393702 303.42958275086 L 225.62618041963 285.65209892612 L 226.51900690224 308.67514050609 L 227.41183338484 320.28158145842997 L 228.30465986745 320.66062075557 L 229.19748635006 314.76719034559 L 230.09031283266 281.28146551026 L 230.98313931527 274.83255516785 L 231.87596579788 267.16553337205 L 232.76879228048 244.02589037714 L 233.66161876309 258.71727655732 L 234.5544452457 285.3837858645 L 235.44727172831 280.78590952594004 L 236.34009821091 268.59354231073996 L 237.23292469352 281.79095601789004 L 238.12575117613 296.16081215183 L 239.01857765873 296.45270387577 L 239.91140414134 284.13946321052003 L 240.80423062395 289.38320457627003 L 241.69705710656 276.16712194636 L 242.58988358916 245.89093520121 L 243.48271007177 188.46056338859 L 244.37553655438 167.66464690837 L 245.26836303698 160.07494377202 L 246.16118951959 144.47908204752002 L 247.0540160022 169.54334159303 L 247.9468424848 194.06025211723 L 248.83966896741 166.64301136670002 L 249.73249545002 153.66368412906002 L 250.62532193263 167.60706127910998 L 251.51814841523 158.15405385781003 L 252.41097489784 173.01211598427 L 253.30380138045 138.27824774099997 L 254.19662786305 133.19344627202003 L 255.08945434566 151.21252929793002 L 255.98228082827 141.2510506622 L 256.87510731088 158.6010155289 L 257.76793379348 181.26461273386002 L 258.66076027609 189.16469455511998 L 259.5535867587 152.98716647331997 L 260.4464132413 96.72097015676002 L 261.33923972391 108.15506478268998 L 262.23206620652 68.85160119763998 L 263.12489268912 50.07692975622001 L 264.01771917173 68.28510334651997 L 264.91054565434 55.35997424200002 L 265.80337213695 100.44392899827 L 266.69619861955 99.88370195761001 L 267.58902510216 129.50212593148 L 268.48185158477 145.44799812753 L 269.37467806737 190.6849390392 L 270.26750454998 227.3435320911 L 271.16033103259 221.02471662918 L 272.0531575152 238.5131897539 L 272.9459839978 209.56694807356 L 273.83881048041 226.49531221696 L 274.73163696302 245.92980752019 L 275.62446344562 237.52729389006 L 276.51728992823 231.58368877754 L 277.41011641084 244.37827892141 L 278.30294289344 229.18560263062 L 279.19576937605 225.15305193041 L 280.08859585866 228.78414609188 L 280.98142234127 232.88096699813 L 281.87424882387 189.87780204998 L 282.76707530648 189.91967613338 L 283.65990178909 177.93111279446998 L 284.55272827169 177.15833395745 L 285.4455547543 192.00582947925 L 286.33838123691 187.74019625963 L 287.23120771952 211.73945412584 L 288.12403420212 232.41501401176 L 289.01686068473 235.4681863408 L 289.90968716734 240.00796721449 L 290.80251364994 238.10513918034 L 291.69534013255 217.09815385051 L 292.58816661516 222.47402556153 L 293.48099309776 238.29274668175 L 294.37381958037 242.35252196889 L 295.26664606298 247.63288030431 L 296.15947254559 260.94609178069004 L 297.05229902819 277.93719508716003 L 297.9451255108 269.585314304 L 298.83795199341 277.34602179496 L 299.73077847601 279.34281380800996 L 300.62360495862 268.9939588384 L 301.51643144123 266.49873197504996 L 302.40925792384 278.54115814830004 L 303.30208440644 255.46254291141 L 304.19491088905 209.99302172669 L 305.08773737166 224.21998518344 L 305.98056385426 224.45711970039 L 306.87339033687 237.38089248519 L 307.76621681948 235.56040425196 L 308.65904330208 240.99771546492 L 309.55186978469 251.86309092742 L 310.4446962673 251.5824181878 L 311.33752274991 213.5536137427 L 312.23034923251 223.5909958715 L 313.12317571512 238.57989525993 L 314.01600219773 238.33019040455 L 314.90882868033 248.26084063321 L 315.80165516294 242.55404537456 L 316.69448164555 239.85530737636 L 317.58730812815 227.65783900057 L 318.48013461076 226.3589511605 L 319.37296109337 211.4483693764 L 320.26578757598 214.6411660714 L 321.15861405858 228.72776449747 L 322.05144054119 223.41062523427 L 322.9442670238 219.25301225735 L 323.8370935064 188.83975991015 L 324.72991998901 178.26374626760003 L 325.62274647162 193.79216067902001 L 326.51557295423 182.10323040624002 L 327.40839943683 172.83862713833997 L 328.30122591944 181.42835578541002 L 329.19405240205 151.70701264273998 L 330.08687888465 152.12129422913 L 330.97970536726 171.5038783321 L 331.87253184987 146.22563529360002 L 332.76535833247 136.16771695126 L 333.65818481508 96.58232198055998 L 334.55101129769 85.45402984549997 L 335.4438377803 105.97288656008999 L 336.3366642629 124.02263968879998 L 337.22949074551 83.56571913022998 L 338.12231722812 78.23723071928998 L 339.01514371072 80.13207835779002 L 339.90797019333 109.69419729045 L 340.80079667594 111.81846519032001 L 341.69362315855 98.69083508047999 L 342.58644964115 89.44865345660003 L 343.47927612376 98.71328939927002 L 344.37210260637 105.74814191568998 L 345.26492908897 104.45480955753999 L 346.15775557158 112.07408698517997 L 347.05058205419 99.42795986433998 L 347.94340853679 71.87955179881999 L 348.8362350194 89.72264703481 L 349.72906150201 113.60818587201999 L 350.62188798462 111.63028454711002 L 351.51471446722 116.69629831174001 L 352.40754094983 121.37205504884002 L 353.30036743244 140.52974173556998 L 354.19319391504 176.74372045762 L 355.08602039765 170.94342803849003 L 355.97884688026 181.43931885744 L 356.87167336287 208.95144437302 L 357.76449984547 229.03399869625 L 358.65732632808 195.55785669556002 L 359.55015281069 197.44438361736002 L 360.44297929329 195.54343658852002 L 361.3358057759 169.78933832643997 L 362.22863225851 208.74606574861 L 363.12145874111 216.97417894434 L 364.01428522372 224.03287814446 L 364.90711170633 209.99448516593 L 365.79993818894 241.82364390532 L 366.69276467154 243.81601616254 L 367.58559115415 316.34150230252 L 368.47841763676 311.24726710851996 L 369.37124411936 310.89173010698 L 370.26407060197 305.71970769457 L 371.15689708458 291.43929188641 L 372.04972356719 309.33416715843 L 372.94255004979 305.55736306594997 L 373.8353765324 322.14417628602 L 374.72820301501 317.81847945089 L 375.62102949761 326.35475769447 L 376.51385598022 317.84246973846996 L 377.40668246283 314.33588643767996 L 378.29950894543 323.76612519420996 L 379.19233542804 320.59475244474004 L 380.08516191065 325.70820903641004 L 380.97798839326 336.83834056531 L 381.87081487586 346.99862215059 L 382.76364135847 341.33311758136 L 383.65646784108 337.67749873395996 L 384.54929432368 324.41245861519997 L 385.44212080629 319.07260550007004 L 386.3349472889 333.2310572732 L 387.22777377151 327.22533564593 L 388.12060025411 336.3756247499 L 389.01342673672 334.47340633043 L 389.90625321933 333.43520146675 L 390.79907970193 329.42074733149 L 391.69190618454 335.37851371335 L 392.58473266715 338.77188390482 L 393.47755914975 338.96971056957 L 394.37038563236 352.06827787349 L 395.26321211497 361.632772122814 L 396.15603859758 369.007544691837 L 397.04886508018 376.22262110310203 L 397.94169156279 377.68130643720303 L 398.8345180454 368.660634990294 L 399.727344528 379.82951914943897 L 400.62017101061 377.232543120543 L 401.51299749322 383.37926061293 L 402.40582397583 379.245177198998 L 403.29865045843 375.865483234197 L 404.19147694104 373.597880035242 L 405.08430342365 378.769417285951 L 405.97712990625 372.165793672302 L 406.86995638886 360.794640955927 L 407.76278287147 358.042248264824 L 408.65560935407 366.871629523605 L 409.54843583668 368.104163328127 L 410.44126231929 375.618221084192 L 411.3340888019 375.398578913052 L 412.2269152845 378.25509009253904 L 413.11974176711 375.824302767166 L 414.01256824972 377.697177182323 L 414.90539473232 377.473095463321 L 415.79822121493 372.760808201434 L 416.69104769754 375.614105809657 L 417.58387418014 372.788324217652 L 418.47670066275 367.45652187621897 L 419.36952714536 369.570372054101 L 420.26235362797 365.383506621118 L 421.15518011057 372.007551050413 L 422.04800659318 378.922273545592 L 422.94083307579 378.834264630026 L 423.83365955839 376.623099430122 L 424.726486041 372.337004057674 L 425.61931252361 371.86717060287003 L 426.51213900622 367.960579060477 L 427.40496548882 370.467045919215 L 428.29779197143 358.624260665573 L 429.19061845404 345.66396967605 L 430.08344493664 354.2017685353 L 430.97627141925 350.03084492181 L 431.86909790186 351.35118700941 L 432.76192438446 351.60575422716 L 433.65475086707 350.23749756978 L 434.54757734968 363.09504302196 L 435.44040383229 364.986507414922 L 436.33323031489 355.23087082013 L 437.2260567975 349.82899947427 L 438.11888328011 347.74424396034 L 439.01170976271 350.14084784825 L 439.90453624532 352.0705444806 L 440.79736272793 351.82290782175 L 441.69018921054 349.28405500192 L 442.58301569314 345.41259080271 L 443.47584217575 347.60285296211 L 444.36866865836 329.15739566099 L 445.26149514096 335.42743441782 L 446.15432162357 333.56354457915 L 447.04714810618 320.54413981664004 L 447.93997458878 323.81322961267 L 448.83280107139 311.52586826772 L 449.725627554 314.37434477354 L 450.61845403661 308.29142114074 L 451.51128051921 311.14198628117003 L 452.40410700182 316.60960545805 L 453.29693348443 321.49766315131 L 454.18975996703 324.6305711219 L 455.08258644964 332.16291283915 L 455.97541293225 334.74392361976 L 456.86823941486 349.6035868506 L 457.76106589746 352.47431374948997 L 458.65389238007 349.89849575390997 L 459.54671886268 353.42659276534 L 460.43954534528 348.34200639138 L 461.33237182789 349.02557431667003 L 462.2251983105 347.35573780438 L 463.1180247931 357.75121841052203 L 464.01085127571 357.3983643492 L 464.90367775832 361.062640917783 L 465.79650424093 354.26469590146 L 466.68933072353 349.89585669971 L 467.58215720614 346.16098756724 L 468.47498368875 346.68968314304 L 469.36781017135 350.77344509654 L 470.26063665396 350.82353663444997 L 471.15346313657 348.98415159440003 L 472.04628961918 349.07870677659 L 472.93911610178 352.57746263822 L 473.83194258439 344.85413270516 L 474.724769067 337.41642563182 L 475.6175955496 333.29333798465 L 476.51042203221 333.59478844474 L 477.40324851482 331.57844612913 L 478.29607499742 327.66742476778 L 479.18890148003 343.1212238549 L 480.08172796264 340.53362952435 L 480.97455444525 348.928822507 L 481.86738092785 348.64011421869 L 482.76020741046 343.60315822742 L 483.65303389307 355.88128946804 L 484.54586037567 351.77717787944 L 485.43868685828 357.912793724419 L 486.33151334089 362.45571390483997 L 487.2243398235 356.696997036035 L 488.1171663061 358.750387119496 L 489.00999278871 360.97896129984497 L 489.90281927132 362.592164764596 L 490.79564575392 362.056375253074 L 491.68847223653 362.866661581802 L 492.58129871914 364.219746472322 L 493.47412520174 364.169867230374 L 494.36695168435 363.272724716077 L 495.25977816696 363.596129974206 L 496.15260464957 364.91907662266703 L 497.04543113217 363.46481753277897 L 497.93825761478 361.300580507053 L 498.83108409739 359.803622660217 L 499.72391057999 361.67193980974 L 500.6167370626 363.455642454271 L 501.50956354521 364.569910236342 L 502.40239002781 364.110504134833 L 503.29521651042 370.683977775164 L 504.18804299303 372.958101716727 L 505.08086947564 373.213252722786 L 505.97369595824 375.948905865746 L 506.86652244085 376.692147727281 L 507.75934892346 378.49357014013503 L 508.65217540606 376.634312289766 L 509.54500188867 374.942323622151 L 510.43782837128 377.383088268389 L 511.33065485389 381.180737432043 L 512.22348133649 380.075830061984 L 513.1163078191 379.387543750348 L 514.00913430171 378.58210458824897 L 514.90196078431 377.032709092907 L 514.90196078431 456 L 514.00913430171 456 L 513.1163078191 456 L 512.22348133649 456 L 511.33065485389 456 L 510.43782837128 456 L 509.54500188867 456 L 508.65217540606 456 L 507.75934892346 456 L 506.86652244085 456 L 505.97369595824 456 L 505.08086947564 456 L 504.18804299303 456 L 503.29521651042 456 L 502.40239002781 456 L 501.50956354521 456 L 500.6167370626 456 L 499.72391057999 456 L 498.83108409739 456 L 497.93825761478 456 L 497.04543113217 456 L 496.15260464957 456 L 495.25977816696 456 L 494.36695168435 456 L 493.47412520174 456 L 492.58129871914 456 L 491.68847223653 456 L 490.79564575392 456 L 489.90281927132 456 L 489.00999278871 456 L 488.1171663061 456 L 487.2243398235 456 L 486.33151334089 456 L 485.43868685828 456 L 484.54586037567 456 L 483.65303389307 456 L 482.76020741046 456 L 481.86738092785 456 L 480.97455444525 456 L 480.08172796264 456 L 479.18890148003 456 L 478.29607499742 456 L 477.40324851482 456 L 476.51042203221 456 L 475.6175955496 456 L 474.724769067 456 L 473.83194258439 456 L 472.93911610178 456 L 472.04628961918 456 L 471.15346313657 456 L 470.26063665396 456 L 469.36781017135 456 L 468.47498368875 456 L 467.58215720614 456 L 466.68933072353 456 L 465.79650424093 456 L 464.90367775832 456 L 464.01085127571 456 L 463.1180247931 456 L 462.2251983105 456 L 461.33237182789 456 L 460.43954534528 456 L 459.54671886268 456 L 458.65389238007 456 L 457.76106589746 456 L 456.86823941486 456 L 455.97541293225 456 L 455.08258644964 456 L 454.18975996703 456 L 453.29693348443 456 L 452.40410700182 456 L 451.51128051921 456 L 450.61845403661 456 L 449.725627554 456 L 448.83280107139 456 L 447.93997458878 456 L 447.04714810618 456 L 446.15432162357 456 L 445.26149514096 456 L 444.36866865836 456 L 443.47584217575 456 L 442.58301569314 456 L 441.69018921054 456 L 440.79736272793 456 L 439.90453624532 456 L 439.01170976271 456 L 438.11888328011 456 L 437.2260567975 456 L 436.33323031489 456 L 435.44040383229 456 L 434.54757734968 456 L 433.65475086707 456 L 432.76192438446 456 L 431.86909790186 456 L 430.97627141925 456 L 430.08344493664 456 L 429.19061845404 456 L 428.29779197143 456 L 427.40496548882 456 L 426.51213900622 456 L 425.61931252361 456 L 424.726486041 456 L 423.83365955839 456 L 422.94083307579 456 L 422.04800659318 456 L 421.15518011057 456 L 420.26235362797 456 L 419.36952714536 456 L 418.47670066275 456 L 417.58387418014 456 L 416.69104769754 456 L 415.79822121493 456 L 414.90539473232 456 L 414.01256824972 456 L 413.11974176711 456 L 412.2269152845 456 L 411.3340888019 456 L 410.44126231929 456 L 409.54843583668 456 L 408.65560935407 456 L 407.76278287147 456 L 406.86995638886 456 L 405.97712990625 456 L 405.08430342365 456 L 404.19147694104 456 L 403.29865045843 456 L 402.40582397583 456 L 401.51299749322 456 L 400.62017101061 456 L 399.727344528 456 L 398.8345180454 456 L 397.94169156279 456 L 397.04886508018 456 L 396.15603859758 456 L 395.26321211497 456 L 394.37038563236 456 L 393.47755914975 456 L 392.58473266715 456 L 391.69190618454 456 L 390.79907970193 456 L 389.90625321933 456 L 389.01342673672 456 L 388.12060025411 456 L 387.22777377151 456 L 386.3349472889 456 L 385.44212080629 456 L 384.54929432368 456 L 383.65646784108 456 L 382.76364135847 456 L 381.87081487586 456 L 380.97798839326 456 L 380.08516191065 456 L 379.19233542804 456 L 378.29950894543 456 L 377.40668246283 456 L 376.51385598022 456 L 375.62102949761 456 L 374.72820301501 456 L 373.8353765324 456 L 372.94255004979 456 L 372.04972356719 456 L 371.15689708458 456 L 370.26407060197 456 L 369.37124411936 456 L 368.47841763676 456 L 367.58559115415 456 L 366.69276467154 456 L 365.79993818894 456 L 364.90711170633 456 L 364.01428522372 456 L 363.12145874111 456 L 362.22863225851 456 L 361.3358057759 456 L 360.44297929329 456 L 359.55015281069 456 L 358.65732632808 456 L 357.76449984547 456 L 356.87167336287 456 L 355.97884688026 456 L 355.08602039765 456 L 354.19319391504 456 L 353.30036743244 456 L 352.40754094983 456 L 351.51471446722 456 L 350.62188798462 456 L 349.72906150201 456 L 348.8362350194 456 L 347.94340853679 456 L 347.05058205419 456 L 346.15775557158 456 L 345.26492908897 456 L 344.37210260637 456 L 343.47927612376 456 L 342.58644964115 456 L 341.69362315855 456 L 340.80079667594 456 L 339.90797019333 456 L 339.01514371072 456 L 338.12231722812 456 L 337.22949074551 456 L 336.3366642629 456 L 335.4438377803 456 L 334.55101129769 456 L 333.65818481508 456 L 332.76535833247 456 L 331.87253184987 456 L 330.97970536726 456 L 330.08687888465 456 L 329.19405240205 456 L 328.30122591944 456 L 327.40839943683 456 L 326.51557295423 456 L 325.62274647162 456 L 324.72991998901 456 L 323.8370935064 456 L 322.9442670238 456 L 322.05144054119 456 L 321.15861405858 456 L 320.26578757598 456 L 319.37296109337 456 L 318.48013461076 456 L 317.58730812815 456 L 316.69448164555 456 L 315.80165516294 456 L 314.90882868033 456 L 314.01600219773 456 L 313.12317571512 456 L 312.23034923251 456 L 311.33752274991 456 L 310.4446962673 456 L 309.55186978469 456 L 308.65904330208 456 L 307.76621681948 456 L 306.87339033687 456 L 305.98056385426 456 L 305.08773737166 456 L 304.19491088905 456 L 303.30208440644 456 L 302.40925792384 456 L 301.51643144123 456 L 300.62360495862 456 L 299.73077847601 456 L 298.83795199341 456 L 297.9451255108 456 L 297.05229902819 456 L 296.15947254559 456 L 295.26664606298 456 L 294.37381958037 456 L 293.48099309776 456 L 292.58816661516 456 L 291.69534013255 456 L 290.80251364994 456 L 289.90968716734 456 L 289.01686068473 456 L 288.12403420212 456 L 287.23120771952 456 L 286.33838123691 456 L 285.4455547543 456 L 284.55272827169 456 L 283.65990178909 456 L 282.76707530648 456 L 281.87424882387 456 L 280.98142234127 456 L 280.08859585866 456 L 279.19576937605 456 L 278.30294289344 456 L 277.41011641084 456 L 276.51728992823 456 L 275.62446344562 456 L 274.73163696302 456 L 273.83881048041 456 L 272.9459839978 456 L 272.0531575152 456 L 271.16033103259 456 L 270.26750454998 456 L 269.37467806737 456 L 268.48185158477 456 L 267.58902510216 456 L 266.69619861955 456 L 265.80337213695 456 L 264.91054565434 456 L 264.01771917173 456 L 263.12489268912 456 L 262.23206620652 456 L 261.33923972391 456 L 260.4464132413 456 L 259.5535867587 456 L 258.66076027609 456 L 257.76793379348 456 L 256.87510731088 456 L 255.98228082827 456 L 255.08945434566 456 L 254.19662786305 456 L 253.30380138045 456 L 252.41097489784 456 L 251.51814841523 456 L 250.62532193263 456 L 249.73249545002 456 L 248.83966896741 456 L 247.9468424848 456 L 247.0540160022 456 L 246.16118951959 456 L 245.26836303698 456 L 244.37553655438 456 L 243.48271007177 456 L 242.58988358916 456 L 241.69705710656 456 L 240.80423062395 456 L 239.91140414134 456 L 239.01857765873 456 L 238.12575117613 456 L 237.23292469352 456 L 236.34009821091 456 L 235.44727172831 456 L 234.5544452457 456 L 233.66161876309 456 L 232.76879228048 456 L 231.87596579788 456 L 230.98313931527 456 L 230.09031283266 456 L 229.19748635006 456 L 228.30465986745 456 L 227.41183338484 456 L 226.51900690224 456 L 225.62618041963 456 L 224.73335393702 456 L 223.84052745441 456 L 222.94770097181 456 L 222.0548744892 456 L 221.16204800659 456 L 220.26922152399 456 L 219.37639504138 456 L 218.48356855877 456 L 217.59074207616 456 L 216.69791559356 456 L 215.80508911095 456 L 214.91226262834 456 L 214.01943614574 456 L 213.12660966313 456 L 212.23378318052 456 L 211.34095669792 456 L 210.44813021531 456 L 209.5553037327 456 L 208.66247725009 456 L 207.76965076749 456 L 206.87682428488 456 L 205.98399780227 456 L 205.09117131967 456 L 204.19834483706 456 L 203.30551835445 456 L 202.41269187185 456 L 201.51986538924 456 L 200.62703890663 456 L 199.73421242402 456 L 198.84138594142 456 L 197.94855945881 456 L 197.0557329762 456 L 196.1629064936 456 L 195.27008001099 456 L 194.37725352838 456 L 193.48442704577 456 L 192.59160056317 456 L 191.69877408056 456 L 190.80594759795 456 L 189.91312111535 456 L 189.02029463274 456 L 188.12746815013 456 L 187.23464166753 456 L 186.34181518492 456 L 185.44898870231 456 L 184.5561622197 456 L 183.6633357371 456 L 182.77050925449 456 L 181.87768277188 456 L 180.98485628928 456 L 180.09202980667 456 L 179.19920332406 456 L 178.30637684145 456 L 177.41355035885 456 L 176.52072387624 456 L 175.62789739363 456 L 174.73507091103 456 L 173.84224442842 456 L 172.94941794581 456 L 172.05659146321 456 L 171.1637649806 456 L 170.27093849799 456 L 169.37811201538 456 L 168.48528553278 456 L 167.59245905017 456 L 166.69963256756 456 L 165.80680608496 456 L 164.91397960235 456 L 164.02115311974 456 L 163.12832663713 456 L 162.23550015453 456 L 161.34267367192 456 L 160.44984718931 456 L 159.55702070671 456 L 158.6641942241 456 L 157.77136774149 456 L 156.87854125889 456 L 155.98571477628 456 L 155.09288829367 456 L 154.20006181106 456 L 153.30723532846 456 L 152.41440884585 456 L 151.52158236324 456 L 150.62875588064 456 L 149.73592939803 456 L 148.84310291542 456 L 147.95027643281 456 L 147.05744995021 456 L 146.1646234676 456 L 145.27179698499 456 L 144.37897050239 456 L 143.48614401978 456 L 142.59331753717 456 L 141.70049105457 456 L 140.80766457196 456 L 139.91483808935 456 L 139.02201160674 456 L 138.12918512414 456 L 137.23635864153 456 L 136.34353215892 456 L 135.45070567632 456 L 134.55787919371 456 L 133.6650527111 456 L 132.77222622849 456 L 131.87939974589 456 L 130.98657326328 456 L 130.09374678067 456 L 129.20092029807 456 L 128.30809381546 456 L 127.41526733285 456 L 126.52244085025 456 L 125.62961436764 456 L 124.73678788503 456 L 123.84396140242 456 L 122.95113491982 456 L 122.05830843721 456 L 121.1654819546 456 L 120.272655472 456 L 119.37982898939 456 L 118.48700250678 456 L 117.59417602417 456 L 116.70134954157 456 L 115.80852305896 456 L 114.91569657635 456 L 114.02287009375 456 L 113.13004361114 456 L 112.23721712853 456 L 111.34439064593 456 L 110.45156416332 456 L 109.55873768071 456 L 108.6659111981 456 L 107.7730847155 456 L 106.88025823289 456 L 105.98743175028 456 L 105.09460526768 456 L 104.20177878507 456 L 103.30895230246 456 L 102.41612581986 456 L 101.52329933725 456 L 100.63047285464 456 L 99.737646372034 456 L 98.844819889427 456 L 97.95199340682 456 L 97.059166924213 456 L 96.166340441606 456 L 95.273513958999 456 L 94.380687476392 456 L 93.487860993785 456 L 92.595034511178 456 L 91.70220802857 456 L 90.809381545963 456 L 89.916555063356 456 L 89.023728580749 456 L 88.130902098142 456 L 87.238075615535 456 L 86.345249132928 456 L 85.452422650321 456 L 84.559596167714 456 L 83.666769685107 456 L 82.7739432025 456 L 81.881116719893 456 L 80.988290237286 456 L 80.095463754679 456 L 79.202637272072 456 L 78.309810789465 456 L 77.416984306858 456 L 76.524157824251 456 L 75.631331341643 456 L 74.738504859036 456 L 73.845678376429 456 L 72.952851893822 456 L 72.060025411215 456 L 71.167198928608 456 L 70.274372446001 456 L 69.381545963394 456 L 68.488719480787 456 L 67.59589299818 456 L 66.703066515573 456 L 65.810240032966 456 L 64.917413550359 456 L 64.024587067752 456 L 63.131760585145 456 L 62.238934102538 456 L 61.346107619931 456 L 60.453281137324 456 L 59.560454654717 456 L 58.667628172109 456 L 57.774801689502 456 L 56.881975206895 456 L 55.989148724288 456 L 55.096322241681 456 L 54.203495759074 456 L 53.310669276467 456 L 52.41784279386 456 L 51.525016311253 456 L 50.632189828646 456 L 49.739363346039 456 L 48.846536863432 456 L 47.953710380825 456 L 47.060883898218 456 L 46.168057415611 456 L 45.275230933004 456 L 44.382404450397 456 L 43.48957796779 456 L 42.596751485183 456 L 41.703925002575 456 L 40.811098519968 456 L 39.918272037361 456 L 39.025445554754 456 L 38.132619072147 456 L 37.23979258954 456 L 36.346966106933 456 L 35.454139624326 456 L 34.561313141719 456 L 33.668486659112 456 L 32.775660176505 456 L 31.882833693898 456 L 30.990007211291 456 L 30.097180728684 456 L 29.204354246077 456 L 28.31152776347 456 L 27.418701280863 456 L 26.525874798256 456 L 25.633048315649 456 L 24.740221833041 456 L 23.847395350434 456 L 22.954568867827 456 L 22.06174238522 456 L 21.168915902613 456 L 20.276089420006 456 L 19.383262937399 456 L 18.490436454792 456 L 17.597609972185 456 L 16.704783489578 456 L 15.811957006971 456 L 14.919130524364 456 L 14.026304041757 456 L 13.13347755915 456 L 12.240651076543 456 L 11.347824593936 456 L 10.454998111329 456 L 9.5621716287215 456 L 8.6693451461145 456 L 7.7765186635074 456 L 6.8836921809004 456 L 5.9908656982933 456 L 5.0980392156863 456 Z" class="highcharts-area" data-z-index="0"></path><path fill="none" d="M 5.0980392156863 456 L 5.9908656982933 456 L 6.8836921809004 456 L 7.7765186635074 456 L 8.6693451461145 456 L 9.5621716287215 456 L 10.454998111329 456 L 11.347824593936 456 L 12.240651076543 456 L 13.13347755915 456 L 14.026304041757 456 L 14.919130524364 456 L 15.811957006971 456 L 16.704783489578 456 L 17.597609972185 456 L 18.490436454792 456 L 19.383262937399 456 L 20.276089420006 456 L 21.168915902613 456 L 22.06174238522 456 L 22.954568867827 456 L 23.847395350434 456 L 24.740221833041 456 L 25.633048315649 456 L 26.525874798256 456 L 27.418701280863 456 L 28.31152776347 456 L 29.204354246077 456 L 30.097180728684 456 L 30.990007211291 456 L 31.882833693898 456 L 32.775660176505 456 L 33.668486659112 456 L 34.561313141719 456 L 35.454139624326 456 L 36.346966106933 456 L 37.23979258954 456 L 38.132619072147 456 L 39.025445554754 456 L 39.918272037361 456 L 40.811098519968 456 L 41.703925002575 456 L 42.596751485183 456 L 43.48957796779 456 L 44.382404450397 456 L 45.275230933004 456 L 46.168057415611 456 L 47.060883898218 456 L 47.953710380825 456 L 48.846536863432 456 L 49.739363346039 456 L 50.632189828646 456 L 51.525016311253 456 L 52.41784279386 456 L 53.310669276467 456 L 54.203495759074 456 L 55.096322241681 456 L 55.989148724288 456 L 56.881975206895 456 L 57.774801689502 456 L 58.667628172109 456 L 59.560454654717 456 L 60.453281137324 456 L 61.346107619931 456 L 62.238934102538 456 L 63.131760585145 456 L 64.024587067752 456 L 64.917413550359 456 L 65.810240032966 456 L 66.703066515573 456 L 67.59589299818 456 L 68.488719480787 456 L 69.381545963394 456 L 70.274372446001 456 L 71.167198928608 456 L 72.060025411215 456 L 72.952851893822 456 L 73.845678376429 456 L 74.738504859036 456 L 75.631331341643 456 L 76.524157824251 456 L 77.416984306858 456 L 78.309810789465 456 L 79.202637272072 456 L 80.095463754679 456 L 80.988290237286 456 L 81.881116719893 456 L 82.7739432025 456 L 83.666769685107 456 L 84.559596167714 456 L 85.452422650321 456 L 86.345249132928 456 L 87.238075615535 456 L 88.130902098142 456 L 89.023728580749 456 L 89.916555063356 456 L 90.809381545963 456 L 91.70220802857 456 L 92.595034511178 456 L 93.487860993785 456 L 94.380687476392 456 L 95.273513958999 456 L 96.166340441606 456 L 97.059166924213 456 L 97.95199340682 456 L 98.844819889427 456 L 99.737646372034 456 L 100.63047285464 456 L 101.52329933725 456 L 102.41612581986 456 L 103.30895230246 456 L 104.20177878507 456 L 105.09460526768 456 L 105.98743175028 456 L 106.88025823289 456 L 107.7730847155 456 L 108.6659111981 456 L 109.55873768071 456 L 110.45156416332 456 L 111.34439064593 456 L 112.23721712853 456 L 113.13004361114 456 L 114.02287009375 456 L 114.91569657635 456 L 115.80852305896 456 L 116.70134954157 456 L 117.59417602417 456 L 118.48700250678 456 L 119.37982898939 456 L 120.272655472 456 L 121.1654819546 456 L 122.05830843721 456 L 122.95113491982 456 L 123.84396140242 456 L 124.73678788503 456 L 125.62961436764 456 L 126.52244085025 456 L 127.41526733285 456 L 128.30809381546 456 L 129.20092029807 456 L 130.09374678067 456 L 130.98657326328 456 L 131.87939974589 456 L 132.77222622849 456 L 133.6650527111 456 L 134.55787919371 456 L 135.45070567632 456 L 136.34353215892 456 L 137.23635864153 456 L 138.12918512414 456 L 139.02201160674 456 L 139.91483808935 456 L 140.80766457196 456 L 141.70049105457 456 L 142.59331753717 456 L 143.48614401978 456 L 144.37897050239 456 L 145.27179698499 456 L 146.1646234676 456 L 147.05744995021 456 L 147.95027643281 456 L 148.84310291542 456 L 149.73592939803 456 L 150.62875588064 456 L 151.52158236324 456 L 152.41440884585 456 L 153.30723532846 456 L 154.20006181106 456 L 155.09288829367 456 L 155.98571477628 456 L 156.87854125889 456 L 157.77136774149 456 L 158.6641942241 456 L 159.55702070671 456 L 160.44984718931 456 L 161.34267367192 456 L 162.23550015453 456 L 163.12832663713 456 L 164.02115311974 456 L 164.91397960235 456 L 165.80680608496 456 L 166.69963256756 456 L 167.59245905017 456 L 168.48528553278 456 L 169.37811201538 456 L 170.27093849799 456 L 171.1637649806 456 L 172.05659146321 456 L 172.94941794581 456 L 173.84224442842 456 L 174.73507091103 456 L 175.62789739363 456 L 176.52072387624 456 L 177.41355035885 456 L 178.30637684145 456 L 179.19920332406 456 L 180.09202980667 456 L 180.98485628928 456 L 181.87768277188 456 L 182.77050925449 456 L 183.6633357371 456 L 184.5561622197 456 L 185.44898870231 456 L 186.34181518492 456 L 187.23464166753 456 L 188.12746815013 456 L 189.02029463274 456 L 189.91312111535 456 L 190.80594759795 456 L 191.69877408056 456 L 192.59160056317 456 L 193.48442704577 456 L 194.37725352838 456 L 195.27008001099 456 L 196.1629064936 456 L 197.0557329762 456 L 197.94855945881 456 L 198.84138594142 456 L 199.73421242402 456 L 200.62703890663 456 L 201.51986538924 456 L 202.41269187185 456 L 203.30551835445 456 L 204.19834483706 456 L 205.09117131967 456 L 205.98399780227 456 L 206.87682428488 456 L 207.76965076749 456 L 208.66247725009 456 L 209.5553037327 258.04220230961 L 210.44813021531 282.00648978115 L 211.34095669792 288.47271600219 L 212.23378318052 299.52216799654 L 213.12660966313 283.80386758103 L 214.01943614574 276.54635766161 L 214.91226262834 276.30657622149 L 215.80508911095 285.89003306595 L 216.69791559356 273.92391675787997 L 217.59074207616 286.89149744784004 L 218.48356855877 285.89766645808004 L 219.37639504138 304.70953149545 L 220.26922152399 304.46299361495 L 221.16204800659 301.74010771759004 L 222.0548744892 300.31590191345003 L 222.94770097181 294.08625732511 L 223.84052745441 299.57685739735996 L 224.73335393702 303.42958275086 L 225.62618041963 285.65209892612 L 226.51900690224 308.67514050609 L 227.41183338484 320.28158145842997 L 228.30465986745 320.66062075557 L 229.19748635006 314.76719034559 L 230.09031283266 281.28146551026 L 230.98313931527 274.83255516785 L 231.87596579788 267.16553337205 L 232.76879228048 244.02589037714 L 233.66161876309 258.71727655732 L 234.5544452457 285.3837858645 L 235.44727172831 280.78590952594004 L 236.34009821091 268.59354231073996 L 237.23292469352 281.79095601789004 L 238.12575117613 296.16081215183 L 239.01857765873 296.45270387577 L 239.91140414134 284.13946321052003 L 240.80423062395 289.38320457627003 L 241.69705710656 276.16712194636 L 242.58988358916 245.89093520121 L 243.48271007177 188.46056338859 L 244.37553655438 167.66464690837 L 245.26836303698 160.07494377202 L 246.16118951959 144.47908204752002 L 247.0540160022 169.54334159303 L 247.9468424848 194.06025211723 L 248.83966896741 166.64301136670002 L 249.73249545002 153.66368412906002 L 250.62532193263 167.60706127910998 L 251.51814841523 158.15405385781003 L 252.41097489784 173.01211598427 L 253.30380138045 138.27824774099997 L 254.19662786305 133.19344627202003 L 255.08945434566 151.21252929793002 L 255.98228082827 141.2510506622 L 256.87510731088 158.6010155289 L 257.76793379348 181.26461273386002 L 258.66076027609 189.16469455511998 L 259.5535867587 152.98716647331997 L 260.4464132413 96.72097015676002 L 261.33923972391 108.15506478268998 L 262.23206620652 68.85160119763998 L 263.12489268912 50.07692975622001 L 264.01771917173 68.28510334651997 L 264.91054565434 55.35997424200002 L 265.80337213695 100.44392899827 L 266.69619861955 99.88370195761001 L 267.58902510216 129.50212593148 L 268.48185158477 145.44799812753 L 269.37467806737 190.6849390392 L 270.26750454998 227.3435320911 L 271.16033103259 221.02471662918 L 272.0531575152 238.5131897539 L 272.9459839978 209.56694807356 L 273.83881048041 226.49531221696 L 274.73163696302 245.92980752019 L 275.62446344562 237.52729389006 L 276.51728992823 231.58368877754 L 277.41011641084 244.37827892141 L 278.30294289344 229.18560263062 L 279.19576937605 225.15305193041 L 280.08859585866 228.78414609188 L 280.98142234127 232.88096699813 L 281.87424882387 189.87780204998 L 282.76707530648 189.91967613338 L 283.65990178909 177.93111279446998 L 284.55272827169 177.15833395745 L 285.4455547543 192.00582947925 L 286.33838123691 187.74019625963 L 287.23120771952 211.73945412584 L 288.12403420212 232.41501401176 L 289.01686068473 235.4681863408 L 289.90968716734 240.00796721449 L 290.80251364994 238.10513918034 L 291.69534013255 217.09815385051 L 292.58816661516 222.47402556153 L 293.48099309776 238.29274668175 L 294.37381958037 242.35252196889 L 295.26664606298 247.63288030431 L 296.15947254559 260.94609178069004 L 297.05229902819 277.93719508716003 L 297.9451255108 269.585314304 L 298.83795199341 277.34602179496 L 299.73077847601 279.34281380800996 L 300.62360495862 268.9939588384 L 301.51643144123 266.49873197504996 L 302.40925792384 278.54115814830004 L 303.30208440644 255.46254291141 L 304.19491088905 209.99302172669 L 305.08773737166 224.21998518344 L 305.98056385426 224.45711970039 L 306.87339033687 237.38089248519 L 307.76621681948 235.56040425196 L 308.65904330208 240.99771546492 L 309.55186978469 251.86309092742 L 310.4446962673 251.5824181878 L 311.33752274991 213.5536137427 L 312.23034923251 223.5909958715 L 313.12317571512 238.57989525993 L 314.01600219773 238.33019040455 L 314.90882868033 248.26084063321 L 315.80165516294 242.55404537456 L 316.69448164555 239.85530737636 L 317.58730812815 227.65783900057 L 318.48013461076 226.3589511605 L 319.37296109337 211.4483693764 L 320.26578757598 214.6411660714 L 321.15861405858 228.72776449747 L 322.05144054119 223.41062523427 L 322.9442670238 219.25301225735 L 323.8370935064 188.83975991015 L 324.72991998901 178.26374626760003 L 325.62274647162 193.79216067902001 L 326.51557295423 182.10323040624002 L 327.40839943683 172.83862713833997 L 328.30122591944 181.42835578541002 L 329.19405240205 151.70701264273998 L 330.08687888465 152.12129422913 L 330.97970536726 171.5038783321 L 331.87253184987 146.22563529360002 L 332.76535833247 136.16771695126 L 333.65818481508 96.58232198055998 L 334.55101129769 85.45402984549997 L 335.4438377803 105.97288656008999 L 336.3366642629 124.02263968879998 L 337.22949074551 83.56571913022998 L 338.12231722812 78.23723071928998 L 339.01514371072 80.13207835779002 L 339.90797019333 109.69419729045 L 340.80079667594 111.81846519032001 L 341.69362315855 98.69083508047999 L 342.58644964115 89.44865345660003 L 343.47927612376 98.71328939927002 L 344.37210260637 105.74814191568998 L 345.26492908897 104.45480955753999 L 346.15775557158 112.07408698517997 L 347.05058205419 99.42795986433998 L 347.94340853679 71.87955179881999 L 348.8362350194 89.72264703481 L 349.72906150201 113.60818587201999 L 350.62188798462 111.63028454711002 L 351.51471446722 116.69629831174001 L 352.40754094983 121.37205504884002 L 353.30036743244 140.52974173556998 L 354.19319391504 176.74372045762 L 355.08602039765 170.94342803849003 L 355.97884688026 181.43931885744 L 356.87167336287 208.95144437302 L 357.76449984547 229.03399869625 L 358.65732632808 195.55785669556002 L 359.55015281069 197.44438361736002 L 360.44297929329 195.54343658852002 L 361.3358057759 169.78933832643997 L 362.22863225851 208.74606574861 L 363.12145874111 216.97417894434 L 364.01428522372 224.03287814446 L 364.90711170633 209.99448516593 L 365.79993818894 241.82364390532 L 366.69276467154 243.81601616254 L 367.58559115415 316.34150230252 L 368.47841763676 311.24726710851996 L 369.37124411936 310.89173010698 L 370.26407060197 305.71970769457 L 371.15689708458 291.43929188641 L 372.04972356719 309.33416715843 L 372.94255004979 305.55736306594997 L 373.8353765324 322.14417628602 L 374.72820301501 317.81847945089 L 375.62102949761 326.35475769447 L 376.51385598022 317.84246973846996 L 377.40668246283 314.33588643767996 L 378.29950894543 323.76612519420996 L 379.19233542804 320.59475244474004 L 380.08516191065 325.70820903641004 L 380.97798839326 336.83834056531 L 381.87081487586 346.99862215059 L 382.76364135847 341.33311758136 L 383.65646784108 337.67749873395996 L 384.54929432368 324.41245861519997 L 385.44212080629 319.07260550007004 L 386.3349472889 333.2310572732 L 387.22777377151 327.22533564593 L 388.12060025411 336.3756247499 L 389.01342673672 334.47340633043 L 389.90625321933 333.43520146675 L 390.79907970193 329.42074733149 L 391.69190618454 335.37851371335 L 392.58473266715 338.77188390482 L 393.47755914975 338.96971056957 L 394.37038563236 352.06827787349 L 395.26321211497 361.632772122814 L 396.15603859758 369.007544691837 L 397.04886508018 376.22262110310203 L 397.94169156279 377.68130643720303 L 398.8345180454 368.660634990294 L 399.727344528 379.82951914943897 L 400.62017101061 377.232543120543 L 401.51299749322 383.37926061293 L 402.40582397583 379.245177198998 L 403.29865045843 375.865483234197 L 404.19147694104 373.597880035242 L 405.08430342365 378.769417285951 L 405.97712990625 372.165793672302 L 406.86995638886 360.794640955927 L 407.76278287147 358.042248264824 L 408.65560935407 366.871629523605 L 409.54843583668 368.104163328127 L 410.44126231929 375.618221084192 L 411.3340888019 375.398578913052 L 412.2269152845 378.25509009253904 L 413.11974176711 375.824302767166 L 414.01256824972 377.697177182323 L 414.90539473232 377.473095463321 L 415.79822121493 372.760808201434 L 416.69104769754 375.614105809657 L 417.58387418014 372.788324217652 L 418.47670066275 367.45652187621897 L 419.36952714536 369.570372054101 L 420.26235362797 365.383506621118 L 421.15518011057 372.007551050413 L 422.04800659318 378.922273545592 L 422.94083307579 378.834264630026 L 423.83365955839 376.623099430122 L 424.726486041 372.337004057674 L 425.61931252361 371.86717060287003 L 426.51213900622 367.960579060477 L 427.40496548882 370.467045919215 L 428.29779197143 358.624260665573 L 429.19061845404 345.66396967605 L 430.08344493664 354.2017685353 L 430.97627141925 350.03084492181 L 431.86909790186 351.35118700941 L 432.76192438446 351.60575422716 L 433.65475086707 350.23749756978 L 434.54757734968 363.09504302196 L 435.44040383229 364.986507414922 L 436.33323031489 355.23087082013 L 437.2260567975 349.82899947427 L 438.11888328011 347.74424396034 L 439.01170976271 350.14084784825 L 439.90453624532 352.0705444806 L 440.79736272793 351.82290782175 L 441.69018921054 349.28405500192 L 442.58301569314 345.41259080271 L 443.47584217575 347.60285296211 L 444.36866865836 329.15739566099 L 445.26149514096 335.42743441782 L 446.15432162357 333.56354457915 L 447.04714810618 320.54413981664004 L 447.93997458878 323.81322961267 L 448.83280107139 311.52586826772 L 449.725627554 314.37434477354 L 450.61845403661 308.29142114074 L 451.51128051921 311.14198628117003 L 452.40410700182 316.60960545805 L 453.29693348443 321.49766315131 L 454.18975996703 324.6305711219 L 455.08258644964 332.16291283915 L 455.97541293225 334.74392361976 L 456.86823941486 349.6035868506 L 457.76106589746 352.47431374948997 L 458.65389238007 349.89849575390997 L 459.54671886268 353.42659276534 L 460.43954534528 348.34200639138 L 461.33237182789 349.02557431667003 L 462.2251983105 347.35573780438 L 463.1180247931 357.75121841052203 L 464.01085127571 357.3983643492 L 464.90367775832 361.062640917783 L 465.79650424093 354.26469590146 L 466.68933072353 349.89585669971 L 467.58215720614 346.16098756724 L 468.47498368875 346.68968314304 L 469.36781017135 350.77344509654 L 470.26063665396 350.82353663444997 L 471.15346313657 348.98415159440003 L 472.04628961918 349.07870677659 L 472.93911610178 352.57746263822 L 473.83194258439 344.85413270516 L 474.724769067 337.41642563182 L 475.6175955496 333.29333798465 L 476.51042203221 333.59478844474 L 477.40324851482 331.57844612913 L 478.29607499742 327.66742476778 L 479.18890148003 343.1212238549 L 480.08172796264 340.53362952435 L 480.97455444525 348.928822507 L 481.86738092785 348.64011421869 L 482.76020741046 343.60315822742 L 483.65303389307 355.88128946804 L 484.54586037567 351.77717787944 L 485.43868685828 357.912793724419 L 486.33151334089 362.45571390483997 L 487.2243398235 356.696997036035 L 488.1171663061 358.750387119496 L 489.00999278871 360.97896129984497 L 489.90281927132 362.592164764596 L 490.79564575392 362.056375253074 L 491.68847223653 362.866661581802 L 492.58129871914 364.219746472322 L 493.47412520174 364.169867230374 L 494.36695168435 363.272724716077 L 495.25977816696 363.596129974206 L 496.15260464957 364.91907662266703 L 497.04543113217 363.46481753277897 L 497.93825761478 361.300580507053 L 498.83108409739 359.803622660217 L 499.72391057999 361.67193980974 L 500.6167370626 363.455642454271 L 501.50956354521 364.569910236342 L 502.40239002781 364.110504134833 L 503.29521651042 370.683977775164 L 504.18804299303 372.958101716727 L 505.08086947564 373.213252722786 L 505.97369595824 375.948905865746 L 506.86652244085 376.692147727281 L 507.75934892346 378.49357014013503 L 508.65217540606 376.634312289766 L 509.54500188867 374.942323622151 L 510.43782837128 377.383088268389 L 511.33065485389 381.180737432043 L 512.22348133649 380.075830061984 L 513.1163078191 379.387543750348 L 514.00913430171 378.58210458824897 L 514.90196078431 377.032709092907" class="highcharts-graph" data-z-index="1" stroke="rgb(3, 63, 64)" stroke-opacity=" 1" stroke-width="1" stroke-linejoin="round" stroke-linecap="round"></path></g><g class="highcharts-markers highcharts-series-0 highcharts-area-series" data-z-index="0.1" opacity="1" transform="translate(70,59) scale(1 1)" clip-path="none"></g></g><text x="300" text-anchor="middle" class="highcharts-title" data-z-index="4" style="color: rgb(51, 51, 51); font-size: 18px; fill: rgb(51, 51, 51);" y="24">Near Market Capitalization Chart</text><text x="300" text-anchor="middle" class="highcharts-subtitle" data-z-index="4" style="color: rgb(102, 102, 102); fill: rgb(102, 102, 102);" y="44">Source: NearBlocks.io</text><text x="10" text-anchor="start" class="highcharts-caption" data-z-index="4" style="color: rgb(102, 102, 102); fill: rgb(102, 102, 102);" y="547"></text><g class="highcharts-axis-labels highcharts-xaxis-labels" data-z-index="7"><text x="102.08743976283" text-anchor="middle" transform="translate(0,0)" style="color: rgb(102, 102, 102); cursor: default; font-size: 11px; fill: rgb(102, 102, 102);" y="534" opacity="1">May '21</text><text x="211.9050971235" text-anchor="middle" transform="translate(0,0)" style="color: rgb(102, 102, 102); cursor: default; font-size: 11px; fill: rgb(102, 102, 102);" y="534" opacity="1">Sep '21</text><text x="320.82992800156" text-anchor="middle" transform="translate(0,0)" style="color: rgb(102, 102, 102); cursor: default; font-size: 11px; fill: rgb(102, 102, 102);" y="534" opacity="1">Jan '22</text><text x="427.9691059144" text-anchor="middle" transform="translate(0,0)" style="color: rgb(102, 102, 102); cursor: default; font-size: 11px; fill: rgb(102, 102, 102);" y="534" opacity="1">May '22</text><text x="537.78676327507" text-anchor="middle" transform="translate(0,0)" style="color: rgb(102, 102, 102); cursor: default; font-size: 11px; fill: rgb(102, 102, 102);" y="534" opacity="1">Sep '22</text></g><g class="highcharts-axis-labels highcharts-yaxis-labels" data-z-index="7"><text x="55" text-anchor="end" transform="translate(0,0)" style="color: rgb(102, 102, 102); cursor: default; font-size: 11px; fill: rgb(102, 102, 102);" y="520" opacity="1">0</text><text x="55" text-anchor="end" transform="translate(0,0)" style="color: rgb(102, 102, 102); cursor: default; font-size: 11px; fill: rgb(102, 102, 102);" y="455" opacity="1">2G</text><text x="55" text-anchor="end" transform="translate(0,0)" style="color: rgb(102, 102, 102); cursor: default; font-size: 11px; fill: rgb(102, 102, 102);" y="390" opacity="1">4G</text><text x="55" text-anchor="end" transform="translate(0,0)" style="color: rgb(102, 102, 102); cursor: default; font-size: 11px; fill: rgb(102, 102, 102);" y="325" opacity="1">6G</text><text x="55" text-anchor="end" transform="translate(0,0)" style="color: rgb(102, 102, 102); cursor: default; font-size: 11px; fill: rgb(102, 102, 102);" y="259" opacity="1">8G</text><text x="55" text-anchor="end" transform="translate(0,0)" style="color: rgb(102, 102, 102); cursor: default; font-size: 11px; fill: rgb(102, 102, 102);" y="194" opacity="1">10G</text><text x="55" text-anchor="end" transform="translate(0,0)" style="color: rgb(102, 102, 102); cursor: default; font-size: 11px; fill: rgb(102, 102, 102);" y="129" opacity="1">12G</text><text x="55" text-anchor="end" transform="translate(0,0)" style="color: rgb(102, 102, 102); cursor: default; font-size: 11px; fill: rgb(102, 102, 102);" y="64" opacity="1">14G</text></g></svg>