<?xml version="1.0" standalone="no"?><!DOCTYPE svg PUBLIC "-//W3C//DTD SVG 1.1//EN" "http://www.w3.org/Graphics/SVG/1.1/DTD/svg11.dtd"><svg xmlns:xlink="http://www.w3.org/1999/xlink" version="1.1" class="highcharts-root" style="font-family: &quot;Lucida Grande&quot;, &quot;Lucida Sans Unicode&quot;, Arial, Helvetica, sans-serif; font-size: 12px;" xmlns="http://www.w3.org/2000/svg" width="600" height="550" viewBox="0 0 600 550"><desc>Created with Highcharts 10.1.0</desc><defs><clipPath id="highcharts-n3ot61p-2355-"><rect x="0" y="0" width="529" height="456" fill="none"></rect></clipPath><clipPath id="highcharts-n3ot61p-2928-"><rect x="0" y="0" width="529" height="456" fill="none"></rect></clipPath><linearGradient x1="0" y1="0" x2="0" y2="1" id="highcharts-n3ot61p-2929"><stop offset="0" stop-color="rgb(3,63,64)" stop-opacity="0.8"></stop><stop offset="1" stop-color="rgb(3,63,64)" stop-opacity="0"></stop></linearGradient></defs><rect fill="#ffffff" class="highcharts-background" x="0" y="0" width="600" height="550" rx="0" ry="0"></rect><rect fill="none" class="highcharts-plot-background" x="61" y="59" width="529" height="456"></rect><g class="highcharts-grid highcharts-xaxis-grid" data-z-index="1"><path fill="none" stroke-dasharray="none" data-z-index="1" class="highcharts-grid-line" d="M 93.5 59 L 93.5 515" opacity="1"></path><path fill="none" stroke-dasharray="none" data-z-index="1" class="highcharts-grid-line" d="M 204.5 59 L 204.5 515" opacity="1"></path><path fill="none" stroke-dasharray="none" data-z-index="1" class="highcharts-grid-line" d="M 315.5 59 L 315.5 515" opacity="1"></path><path fill="none" stroke-dasharray="none" data-z-index="1" class="highcharts-grid-line" d="M 424.5 59 L 424.5 515" opacity="1"></path><path fill="none" stroke-dasharray="none" data-z-index="1" class="highcharts-grid-line" d="M 536.5 59 L 536.5 515" opacity="1"></path></g><g class="highcharts-grid highcharts-yaxis-grid" data-z-index="1"><path fill="none" stroke="#e6e6e6" stroke-width="1" stroke-dasharray="none" data-z-index="1" class="highcharts-grid-line" d="M 61 515.5 L 590 515.5" opacity="1"></path><path fill="none" stroke="#e6e6e6" stroke-width="1" stroke-dasharray="none" data-z-index="1" class="highcharts-grid-line" d="M 61 474.5 L 590 474.5" opacity="1"></path><path fill="none" stroke="#e6e6e6" stroke-width="1" stroke-dasharray="none" data-z-index="1" class="highcharts-grid-line" d="M 61 432.5 L 590 432.5" opacity="1"></path><path fill="none" stroke="#e6e6e6" stroke-width="1" stroke-dasharray="none" data-z-index="1" class="highcharts-grid-line" d="M 61 391.5 L 590 391.5" opacity="1"></path><path fill="none" stroke="#e6e6e6" stroke-width="1" stroke-dasharray="none" data-z-index="1" class="highcharts-grid-line" d="M 61 349.5 L 590 349.5" opacity="1"></path><path fill="none" stroke="#e6e6e6" stroke-width="1" stroke-dasharray="none" data-z-index="1" class="highcharts-grid-line" d="M 61 308.5 L 590 308.5" opacity="1"></path><path fill="none" stroke="#e6e6e6" stroke-width="1" stroke-dasharray="none" data-z-index="1" class="highcharts-grid-line" d="M 61 266.5 L 590 266.5" opacity="1"></path><path fill="none" stroke="#e6e6e6" stroke-width="1" stroke-dasharray="none" data-z-index="1" class="highcharts-grid-line" d="M 61 225.5 L 590 225.5" opacity="1"></path><path fill="none" stroke="#e6e6e6" stroke-width="1" stroke-dasharray="none" data-z-index="1" class="highcharts-grid-line" d="M 61 183.5 L 590 183.5" opacity="1"></path><path fill="none" stroke="#e6e6e6" stroke-width="1" stroke-dasharray="none" data-z-index="1" class="highcharts-grid-line" d="M 61 142.5 L 590 142.5" opacity="1"></path><path fill="none" stroke="#e6e6e6" stroke-width="1" stroke-dasharray="none" data-z-index="1" class="highcharts-grid-line" d="M 61 100.5 L 590 100.5" opacity="1"></path><path fill="none" stroke="#e6e6e6" stroke-width="1" stroke-dasharray="none" data-z-index="1" class="highcharts-grid-line" d="M 61 58.5 L 590 58.5" opacity="1"></path></g><rect fill="none" class="highcharts-plot-border" data-z-index="1" x="61" y="59" width="529" height="456"></rect><g class="highcharts-axis highcharts-xaxis" data-z-index="2"><path fill="none" class="highcharts-tick" stroke="#ccd6eb" stroke-width="1" d="M 93.5 515 L 93.5 525" opacity="1"></path><path fill="none" class="highcharts-tick" stroke="#ccd6eb" stroke-width="1" d="M 204.5 515 L 204.5 525" opacity="1"></path><path fill="none" class="highcharts-tick" stroke="#ccd6eb" stroke-width="1" d="M 315.5 515 L 315.5 525" opacity="1"></path><path fill="none" class="highcharts-tick" stroke="#ccd6eb" stroke-width="1" d="M 424.5 515 L 424.5 525" opacity="1"></path><path fill="none" class="highcharts-tick" stroke="#ccd6eb" stroke-width="1" d="M 536.5 515 L 536.5 525" opacity="1"></path><path fill="none" class="highcharts-axis-line" stroke="#ccd6eb" stroke-width="1" data-z-index="7" d="M 61 515.5 L 590 515.5"></path></g><g class="highcharts-axis highcharts-yaxis" data-z-index="2"><text x="23.75" data-z-index="7" text-anchor="middle" transform="translate(0,0) rotate(270 23.75 287)" class="highcharts-axis-title" style="color: rgb(102, 102, 102); fill: rgb(102, 102, 102);" y="287">Near Price (USD)</text><path fill="none" class="highcharts-axis-line" data-z-index="7" d="M 61 59 L 61 515"></path></g><g class="highcharts-series-group" data-z-index="3"><g class="highcharts-series highcharts-series-0 highcharts-area-series" data-z-index="0.1" opacity="1" transform="translate(61,59) scale(1 1)" clip-path="url(#highcharts-n3ot61p-2928-)"><path fill="url(#highcharts-n3ot61p-2929)" d="M 5.1862745098039 456 L 6.0945537584561 456 L 7.0028330071083 456 L 7.9111122557604 456 L 8.8193915044126 456 L 9.7276707530648 456 L 10.635950001717 456 L 11.544229250369 456 L 12.452508499021 456 L 13.360787747674 456 L 14.269066996326 456 L 15.177346244978 456 L 16.08562549363 456 L 16.993904742282 456 L 17.902183990934 456 L 18.810463239587 456 L 19.718742488239 456 L 20.627021736891 456 L 21.535300985543 456 L 22.443580234195 456 L 23.351859482847 456 L 24.2601387315 456 L 25.168417980152 456 L 26.076697228804 456 L 26.984976477456 456 L 27.893255726108 456 L 28.80153497476 456 L 29.709814223413 456 L 30.618093472065 456 L 31.526372720717 456 L 32.434651969369 456 L 33.342931218021 456 L 34.251210466674 456 L 35.159489715326 456 L 36.067768963978 456 L 36.97604821263 456 L 37.884327461282 456 L 38.792606709934 456 L 39.700885958587 456 L 40.609165207239 456 L 41.517444455891 456 L 42.425723704543 456 L 43.334002953195 456 L 44.242282201847 456 L 45.1505614505 456 L 46.058840699152 456 L 46.967119947804 456 L 47.875399196456 456 L 48.783678445108 456 L 49.691957693761 456 L 50.600236942413 456 L 51.508516191065 456 L 52.416795439717 456 L 53.325074688369 456 L 54.233353937021 456 L 55.141633185674 456 L 56.049912434326 456 L 56.958191682978 456 L 57.86647093163 456 L 58.774750180282 456 L 59.683029428934 456 L 60.591308677587 456 L 61.499587926239 456 L 62.407867174891 456 L 63.316146423543 456 L 64.224425672195 456 L 65.132704920848 456 L 66.0409841695 456 L 66.949263418152 456 L 67.857542666804 456 L 68.765821915456 456 L 69.674101164108 456 L 70.582380412761 456 L 71.490659661413 456 L 72.398938910065 456 L 73.307218158717 456 L 74.215497407369 456 L 75.123776656021 456 L 76.032055904674 456 L 76.940335153326 456 L 77.848614401978 456 L 78.75689365063 456 L 79.665172899282 456 L 80.573452147934 456 L 81.481731396587 456 L 82.390010645239 456 L 83.298289893891 456 L 84.206569142543 456 L 85.114848391195 456 L 86.023127639848 456 L 86.9314068885 456 L 87.839686137152 456 L 88.747965385804 456 L 89.656244634456 456 L 90.564523883108 456 L 91.472803131761 456 L 92.381082380413 456 L 93.289361629065 456 L 94.197640877717 456 L 95.105920126369 456 L 96.014199375021 456 L 96.922478623674 456 L 97.830757872326 456 L 98.739037120978 456 L 99.64731636963 456 L 100.55559561828 456 L 101.46387486693 456 L 102.37215411559 456 L 103.28043336424 456 L 104.18871261289 456 L 105.09699186154 456 L 106.0052711102 456 L 106.91355035885 456 L 107.8218296075 456 L 108.73010885615 456 L 109.6383881048 456 L 110.54666735346 456 L 111.45494660211 456 L 112.36322585076 456 L 113.27150509941 456 L 114.17978434806 456 L 115.08806359672 456 L 115.99634284537 456 L 116.90462209402 456 L 117.81290134267 456 L 118.72118059133 456 L 119.62945983998 456 L 120.53773908863 456 L 121.44601833728 456 L 122.35429758593 456 L 123.26257683459 456 L 124.17085608324 456 L 125.07913533189 456 L 125.98741458054 456 L 126.8956938292 456 L 127.80397307785 456 L 128.7122523265 456 L 129.62053157515 456 L 130.5288108238 456 L 131.43709007246 456 L 132.34536932111 456 L 133.25364856976 456 L 134.16192781841 456 L 135.07020706707 456 L 135.97848631572 456 L 136.88676556437 456 L 137.79504481302 456 L 138.70332406167 456 L 139.61160331033 456 L 140.51988255898 456 L 141.42816180763 456 L 142.33644105628 456 L 143.24472030493 456 L 144.15299955359 456 L 145.06127880224 456 L 145.96955805089 456 L 146.87783729954 456 L 147.7861165482 456 L 148.69439579685 456 L 149.6026750455 456 L 150.51095429415 456 L 151.4192335428 456 L 152.32751279146 456 L 153.23579204011 456 L 154.14407128876 456 L 155.05235053741 456 L 155.96062978607 456 L 156.86890903472 456 L 157.77718828337 456 L 158.68546753202 456 L 159.59374678067 456 L 160.50202602933 456 L 161.41030527798 456 L 162.31858452663 456 L 163.22686377528 456 L 164.13514302393 456 L 165.04342227259 456 L 165.95170152124 456 L 166.85998076989 456 L 167.76826001854 456 L 168.6765392672 456 L 169.58481851585 456 L 170.4930977645 456 L 171.40137701315 456 L 172.3096562618 456 L 173.21793551046 456 L 174.12621475911 456 L 175.03449400776 456 L 175.94277325641 456 L 176.85105250507 456 L 177.75933175372 456 L 178.66761100237 456 L 179.57589025102 456 L 180.48416949967 456 L 181.39244874833 456 L 182.30072799698 456 L 183.20900724563 456 L 184.11728649428 456 L 185.02556574293 456 L 185.93384499159 456 L 186.84212424024 456 L 187.75040348889 456 L 188.65868273754 456 L 189.5669619862 456 L 190.47524123485 456 L 191.3835204835 456 L 192.29179973215 456 L 193.2000789808 456 L 194.10835822946 456 L 195.01663747811 456 L 195.92491672676 456 L 196.83319597541 456 L 197.74147522407 456 L 198.64975447272 456 L 199.55803372137 456 L 200.46631297002 456 L 201.37459221867 456 L 202.28287146733 456 L 203.19115071598 456 L 204.09942996463 456 L 205.00770921328 456 L 205.91598846193 456 L 206.82426771059 456 L 207.73254695924 456 L 208.64082620789 456 L 209.54910545654 456 L 210.4573847052 456 L 211.36566395385 456 L 212.2739432025 456 L 213.18222245115 225.63278872996 L 214.0905016998 253.82438610595 L 214.99878094846 260.50859489392997 L 215.90706019711 274.06548638385 L 216.81533944576 259.54521785553004 L 217.72361869441 251.99588542722 L 218.63189794307 253.77326608727 L 219.54017719172 263.51753743913 L 220.44845644037 249.63731586996 L 221.35673568902 264.48301882563 L 222.26501493767 263.91706025342 L 223.17329418633 285.60365906898 L 224.08157343498 285.05078420872997 L 224.98985268363 282.58084025887 L 225.89813193228 281.29678723561 L 226.80641118093 275.31836449318 L 227.71469042959 279.97526134867996 L 228.62296967824 285.29180199538996 L 229.53124892689 266.37347807180004 L 230.43952817554 290.91907110869 L 231.3478074242 304.41546247384997 L 232.25608667285 304.68643054612 L 233.1643659215 298.28043613171997 L 234.07264517015 261.47627906222 L 234.9809244188 251.34295003337 L 235.88920366746 247.26683033042 L 236.79748291611 217.64250515275 L 237.70576216476 236.67306826214 L 238.61404141341 267.16885817140997 L 239.52232066207 263.35210661452004 L 240.43059991072 252.08587323512 L 241.33887915937 264.3800563945 L 242.24715840802 281.5787811636 L 243.15543765667 281.46967343817 L 244.06371690533 269.75959012206 L 244.97199615398 278.71274193453996 L 245.88027540263 263.90674676713 L 246.78855465128 231.44878823662 L 247.69683389993 170.98452632031 L 248.60511314859 148.32828180139 L 249.51339239724 140.40413457958 L 250.42167164589 121.22672532586 L 251.32995089454 151.32607902605997 L 252.2382301432 179.05966876902 L 253.14650939185 145.13042195363 L 254.0547886405 136.47057437426002 L 254.96306788915 153.18956382906998 L 255.8713471378 140.29220176741 L 256.77962638646 156.78854989345 L 257.68790563511 115.51816608026002 L 258.59618488376 123.68102585790001 L 259.50446413241 135.9740405696 L 260.41274338107 125.04927296736997 L 261.32102262972 144.33761513595 L 262.22930187837 168.86074923771002 L 263.13758112702 175.47809483736 L 264.04586037567 135.14508718264 L 264.95413962433 80.91494398871998 L 265.86241887298 92.24941639298999 L 266.77069812163 50.04554653998002 L 267.67897737028 36.54713018558999 L 268.58725661893 54.15241267161002 L 269.49553586759 40.294559583900025 L 270.40381511624 87.61850324892998 L 271.31209436489 88.67778130686997 L 272.22037361354 120.10138698485002 L 273.1286528622 139.85556065585 L 274.03693211085 183.70873785792003 L 274.9452113595 220.55053943512 L 275.85349060815 212.90995585907 L 276.7617698568 233.78936996902 L 277.67004910546 204.00223943044 L 278.57832835411 221.61416182781 L 279.48660760276 237.08588726406 L 280.39488685141 232.44910597808 L 281.30316610007 226.65779183253 L 282.21144534872 241.46843006436 L 283.11972459737 225.30835635235 L 284.02800384602 223.13684539057 L 284.93628309467 226.50223400175 L 285.84456234333 229.73585064223 L 286.75284159198 185.71933939917 L 287.66112084063 189.16320981917 L 288.56940008928 175.68494191057 L 289.47767933793 175.9596211035 L 290.38595858659 190.41074197720002 L 291.29423783524 186.72225112545 L 292.20251708389 210.93179262673 L 293.11079633254 230.62655328807 L 294.0190755812 232.62648575911 L 294.92735482985 239.92287409476 L 295.8356340785 237.66035535881 L 296.74391332715 217.44697366764 L 297.6521925758 223.64376885417 L 298.56047182446 239.46082684692 L 299.46875107311 242.6321759656 L 300.37703032176 247.44662568973 L 301.28530957041 263.00462433603 L 302.19358881907 278.53906776119004 L 303.10186806772 270.15706072417004 L 304.01014731637 278.02193527609 L 304.91842656502 280.09579766594004 L 305.82670581367 270.45654164316 L 306.73498506233 267.18856974345 L 307.64326431098 279.7258901855 L 308.55154355963 254.34087805963 L 309.45982280828 210.34384858509 L 310.36810205693 226.57499382116 L 311.27638130559 227.06134792227 L 312.18466055424 239.93683945226 L 313.09293980289 238.10577692955 L 314.00121905154 244.50260699613 L 314.9094983002 254.7130987575 L 315.81777754885 254.44064186261 L 316.7260567975 214.8165228783 L 317.63433604615 226.65917859779 L 318.5426152948 243.40153065694 L 319.45089454346 241.32030340558 L 320.35917379211 251.04221127766 L 321.26745304076 245.73425978138 L 322.17573228941 246.16494420225 L 323.08401153807 231.77322693106 L 323.99229078672 233.48023831326 L 324.90057003537 219.43508671913 L 325.80884928402 221.96403828792 L 326.71712853267 235.50529939891 L 327.62540778133 230.66453614399 L 328.53368702998 226.99992492939 L 329.44196627863 197.25007170048002 L 330.35024552728 188.89532805404002 L 331.25852477593 202.55386142825 L 332.16680402459 192.4676120304 L 333.07508327324 183.1301009463 L 333.98336252189 195.12138394552 L 334.89164177054 163.42917548623 L 335.7999210192 165.24745087472002 L 336.70820026785 182.44669092343997 L 337.6164795165 152.74214228736997 L 338.52475876515 149.23979539609002 L 339.4330380138 108.37974392976997 L 340.34131726246 100.22883589729997 L 341.24959651111 122.25335172368 L 342.15787575976 140.06199651551998 L 343.06615500841 94.74283732367002 L 343.97443425707 92.05031780256002 L 344.88271350572 94.54612512789998 L 345.79099275437 128.22729202498 L 346.69927200302 125.16123063531 L 347.60755125167 112.49757260697999 L 348.51583050033 106.59844006220999 L 349.42410974898 116.34584651284001 L 350.33238899763 124.33540902529 L 351.24066824628 124.97860425575999 L 352.14894749493 130.13818429431 L 353.05722674359 119.45997730772001 L 353.96550599224 95.23539894822 L 354.87378524089 111.08113315261 L 355.78206448954 133.15050981134 L 356.6903437382 132.6281432669 L 357.59862298685 138.07761322081 L 358.5069022355 144.34296077443997 L 359.41518148415 159.72109563592 L 360.3234607328 194.36362335709998 L 361.23173998146 189.92089229057 L 362.14001923011 199.17401044666002 L 363.04829847876 222.18703600056 L 363.95657772741 240.96599892163 L 364.86485697607 210.30434888655 L 365.77313622472 212.18713465083 L 366.68141547337 208.65463615002 L 367.58969472202 186.60481637837 L 368.49797397067 223.03529954748 L 369.40625321933 231.62238474854 L 370.31453246798 239.06798360729 L 371.22281171663 224.48633392879 L 372.13109096528 258.39284510518996 L 373.03937021393 256.73886191545 L 373.94764946259 324.22873712308 L 374.85592871124 322.74022853648 L 375.76420795989 320.81611436758 L 376.67248720854 316.74349996664 L 377.5807664572 303.44768073058003 L 378.48904570585 320.74156683374997 L 379.3973249545 317.56793635744 L 380.30560420315 333.80570439541 L 381.2138834518 328.95023991179 L 382.12216270046 336.32385597595 L 383.03044194911 328.69478764126 L 383.93872119776 326.24431569057003 L 384.84700044641 335.27020076741 L 385.75527969507 332.17305590133003 L 386.66355894372 336.96941086208 L 387.57183819237 347.09602160095 L 388.48011744102 356.708430210595 L 389.38839668967 352.05676233844997 L 390.29667593833 348.66419151191997 L 391.20495518698 336.61687407753 L 392.11323443563 332.72112245169 L 393.02151368428 345.0487311671 L 393.92979293294 339.73958494625003 L 394.83807218159 347.18264291042 L 395.74635143024 345.45868224765 L 396.65463067889 345.55486771592 L 397.56290992754 342.15465947834 L 398.4711891762 347.93737529733 L 399.37946842485 350.80805953869003 L 400.2877476735 350.76561122662997 L 401.19602692215 362.736769074161 L 402.1043061708 371.341486605394 L 403.01258541946 378.615975655227 L 403.92086466811 383.430067958105 L 404.82914391676 385.629257787958 L 405.73742316541 376.614772366195 L 406.64570241407 389.780458680546 L 407.55398166272 385.889313223717 L 408.46226091137 391.739521327908 L 409.37054016002 387.950822698607 L 410.27881940867 384.976989545427 L 411.18709865733 383.267747671172 L 412.09537790598 388.100486900803 L 413.00365715463 382.187484056942 L 413.91193640328 372.907817194688 L 414.82021565194 369.598164109891 L 415.72849490059 377.322224187489 L 416.63677414924 378.540123690241 L 417.54505339789 385.316061545285 L 418.45333264654 385.32893911485 L 419.3616118952 387.456022806257 L 420.26989114385 386.019549196689 L 421.1781703925 387.26708734400097 L 422.08644964115 387.00835711350703 L 422.9947288898 383.116043820455 L 423.90300813846 385.647965234891 L 424.81128738711 383.393218486482 L 425.71956663576 378.83809689421 L 426.62784588441 380.57178126771 L 427.53612513307 377.059175797651 L 428.44440438172 382.855625355874 L 429.35268363037 389.003811535871 L 430.26096287902 389.622784791563 L 431.16924212767 386.94361634813697 L 432.07752137633 383.652384418045 L 432.98580062498 383.41756715873703 L 433.89407987363 380.418823984428 L 434.80235912228 382.580301322169 L 435.71063837094 371.579225263195 L 436.61891761959 361.688612094674 L 437.52719686824 369.014759828732 L 438.43547611689 365.295737074455 L 439.34375536554 366.217224219229 L 440.2520346142 366.450784614139 L 441.16031386285 365.650403379982 L 442.0685931115 377.367555772182 L 442.97687236015 378.312136607645 L 443.8851516088 370.107437414184 L 444.79343085746 365.663469379543 L 445.70171010611 364.782311516243 L 446.60998935476 365.77404845677097 L 447.51826860341 367.866986175885 L 448.42654785207 367.106768208321 L 449.33482710072 366.431205472427 L 450.24310634937 362.06773814382 L 451.15138559802 364.090344589726 L 452.05966484667 348.20751788299003 L 452.96794409533 354.07581560729 L 453.87622334398 352.56145063223 L 454.78450259263 341.94542852377003 L 455.69278184128 344.53757629093 L 456.60106108994 334.03251381356 L 457.50934033859 336.68628075116 L 458.41761958724 331.73241824479 L 459.32589883589 334.30264810111 L 460.23417808454 339.68200519449 L 461.1424573332 343.7369047907 L 462.05073658185 346.44366088391 L 462.9590158305 352.93274076715 L 463.86729507915 355.27611073275 L 464.7755743278 367.57278981690797 L 465.68385357646 369.80960133786 L 466.59213282511 368.095931634068 L 467.50041207376 370.525929873376 L 468.40869132241 366.768724067987 L 469.31697057107 367.401395250468 L 470.22524981972 366.328220007544 L 471.13352906837 374.39515725574597 L 472.04180831702 374.60523918906597 L 472.95008756567 377.75429467687 L 473.85836681433 372.277470681103 L 474.76664606298 368.76795687112303 L 475.67492531163 365.53496733122597 L 476.58320456028 365.918310111442 L 477.49148380894 369.39913469946 L 478.39976305759 369.747633837019 L 479.30804230624 368.204796609323 L 480.21632155489 368.271325000419 L 481.12460080354 371.428828805065 L 482.0328800522 365.266781077934 L 482.94115930085 359.015143162798 L 483.8494385495 356.06444957312203 L 484.75771779815 356.20046166343 L 485.6659970468 354.80112206532 L 486.57427629546 351.18038367416 L 487.48255554411 364.22911132574 L 488.39083479276 362.43041862393 L 489.29911404141 369.407217652509 L 490.20739329007 369.05153764377997 L 491.11567253872 365.184150111387 L 492.02395178737 375.002648787162 L 492.93223103602 371.811517073081 L 493.84051028467 376.979677486389 L 494.74878953333 380.066959498907 L 495.65706878198 375.707319117096 L 496.56534803063 377.369391273714 L 497.47362727928 379.210397880824 L 498.38190652794 380.410503139057 L 499.29018577659 379.947814973389 L 500.19846502524 380.874697837745 L 501.10674427389 381.780551835649 L 502.01502352254 381.76969114025997 L 502.9233027712 382.17715052568303 L 503.83158201985 382.338370477043 L 504.7398612685 383.778925861175 L 505.64814051715 382.478487585744 L 506.5564197658 380.84873399238097 L 507.46469901446 379.444716662046 L 508.37297826311 380.99350897965303 L 509.28125751176 382.524745741681 L 510.18953676041 383.544132226988 L 511.09781600907 383.107956301517 L 512.00609525772 388.907653807522 L 512.91437450637 390.229347602175 L 513.82265375502 390.617589529231 L 514.73093300367 392.882193684663 L 515.63921225233 393.603539742475 L 516.54749150098 395.363205640825 L 517.45577074963 393.794793393503 L 518.36404999828 392.47159075587797 L 519.27232924694 394.407980419112 L 520.18060849559 397.499169343415 L 521.08888774424 396.588423391726 L 521.99716699289 396.136248313137 L 522.90544624154 395.504506815791 L 523.8137254902 394.237026498884 L 523.8137254902 456 L 522.90544624154 456 L 521.99716699289 456 L 521.08888774424 456 L 520.18060849559 456 L 519.27232924694 456 L 518.36404999828 456 L 517.45577074963 456 L 516.54749150098 456 L 515.63921225233 456 L 514.73093300367 456 L 513.82265375502 456 L 512.91437450637 456 L 512.00609525772 456 L 511.09781600907 456 L 510.18953676041 456 L 509.28125751176 456 L 508.37297826311 456 L 507.46469901446 456 L 506.5564197658 456 L 505.64814051715 456 L 504.7398612685 456 L 503.83158201985 456 L 502.9233027712 456 L 502.01502352254 456 L 501.10674427389 456 L 500.19846502524 456 L 499.29018577659 456 L 498.38190652794 456 L 497.47362727928 456 L 496.56534803063 456 L 495.65706878198 456 L 494.74878953333 456 L 493.84051028467 456 L 492.93223103602 456 L 492.02395178737 456 L 491.11567253872 456 L 490.20739329007 456 L 489.29911404141 456 L 488.39083479276 456 L 487.48255554411 456 L 486.57427629546 456 L 485.6659970468 456 L 484.75771779815 456 L 483.8494385495 456 L 482.94115930085 456 L 482.0328800522 456 L 481.12460080354 456 L 480.21632155489 456 L 479.30804230624 456 L 478.39976305759 456 L 477.49148380894 456 L 476.58320456028 456 L 475.67492531163 456 L 474.76664606298 456 L 473.85836681433 456 L 472.95008756567 456 L 472.04180831702 456 L 471.13352906837 456 L 470.22524981972 456 L 469.31697057107 456 L 468.40869132241 456 L 467.50041207376 456 L 466.59213282511 456 L 465.68385357646 456 L 464.7755743278 456 L 463.86729507915 456 L 462.9590158305 456 L 462.05073658185 456 L 461.1424573332 456 L 460.23417808454 456 L 459.32589883589 456 L 458.41761958724 456 L 457.50934033859 456 L 456.60106108994 456 L 455.69278184128 456 L 454.78450259263 456 L 453.87622334398 456 L 452.96794409533 456 L 452.05966484667 456 L 451.15138559802 456 L 450.24310634937 456 L 449.33482710072 456 L 448.42654785207 456 L 447.51826860341 456 L 446.60998935476 456 L 445.70171010611 456 L 444.79343085746 456 L 443.8851516088 456 L 442.97687236015 456 L 442.0685931115 456 L 441.16031386285 456 L 440.2520346142 456 L 439.34375536554 456 L 438.43547611689 456 L 437.52719686824 456 L 436.61891761959 456 L 435.71063837094 456 L 434.80235912228 456 L 433.89407987363 456 L 432.98580062498 456 L 432.07752137633 456 L 431.16924212767 456 L 430.26096287902 456 L 429.35268363037 456 L 428.44440438172 456 L 427.53612513307 456 L 426.62784588441 456 L 425.71956663576 456 L 424.81128738711 456 L 423.90300813846 456 L 422.9947288898 456 L 422.08644964115 456 L 421.1781703925 456 L 420.26989114385 456 L 419.3616118952 456 L 418.45333264654 456 L 417.54505339789 456 L 416.63677414924 456 L 415.72849490059 456 L 414.82021565194 456 L 413.91193640328 456 L 413.00365715463 456 L 412.09537790598 456 L 411.18709865733 456 L 410.27881940867 456 L 409.37054016002 456 L 408.46226091137 456 L 407.55398166272 456 L 406.64570241407 456 L 405.73742316541 456 L 404.82914391676 456 L 403.92086466811 456 L 403.01258541946 456 L 402.1043061708 456 L 401.19602692215 456 L 400.2877476735 456 L 399.37946842485 456 L 398.4711891762 456 L 397.56290992754 456 L 396.65463067889 456 L 395.74635143024 456 L 394.83807218159 456 L 393.92979293294 456 L 393.02151368428 456 L 392.11323443563 456 L 391.20495518698 456 L 390.29667593833 456 L 389.38839668967 456 L 388.48011744102 456 L 387.57183819237 456 L 386.66355894372 456 L 385.75527969507 456 L 384.84700044641 456 L 383.93872119776 456 L 383.03044194911 456 L 382.12216270046 456 L 381.2138834518 456 L 380.30560420315 456 L 379.3973249545 456 L 378.48904570585 456 L 377.5807664572 456 L 376.67248720854 456 L 375.76420795989 456 L 374.85592871124 456 L 373.94764946259 456 L 373.03937021393 456 L 372.13109096528 456 L 371.22281171663 456 L 370.31453246798 456 L 369.40625321933 456 L 368.49797397067 456 L 367.58969472202 456 L 366.68141547337 456 L 365.77313622472 456 L 364.86485697607 456 L 363.95657772741 456 L 363.04829847876 456 L 362.14001923011 456 L 361.23173998146 456 L 360.3234607328 456 L 359.41518148415 456 L 358.5069022355 456 L 357.59862298685 456 L 356.6903437382 456 L 355.78206448954 456 L 354.87378524089 456 L 353.96550599224 456 L 353.05722674359 456 L 352.14894749493 456 L 351.24066824628 456 L 350.33238899763 456 L 349.42410974898 456 L 348.51583050033 456 L 347.60755125167 456 L 346.69927200302 456 L 345.79099275437 456 L 344.88271350572 456 L 343.97443425707 456 L 343.06615500841 456 L 342.15787575976 456 L 341.24959651111 456 L 340.34131726246 456 L 339.4330380138 456 L 338.52475876515 456 L 337.6164795165 456 L 336.70820026785 456 L 335.7999210192 456 L 334.89164177054 456 L 333.98336252189 456 L 333.07508327324 456 L 332.16680402459 456 L 331.25852477593 456 L 330.35024552728 456 L 329.44196627863 456 L 328.53368702998 456 L 327.62540778133 456 L 326.71712853267 456 L 325.80884928402 456 L 324.90057003537 456 L 323.99229078672 456 L 323.08401153807 456 L 322.17573228941 456 L 321.26745304076 456 L 320.35917379211 456 L 319.45089454346 456 L 318.5426152948 456 L 317.63433604615 456 L 316.7260567975 456 L 315.81777754885 456 L 314.9094983002 456 L 314.00121905154 456 L 313.09293980289 456 L 312.18466055424 456 L 311.27638130559 456 L 310.36810205693 456 L 309.45982280828 456 L 308.55154355963 456 L 307.64326431098 456 L 306.73498506233 456 L 305.82670581367 456 L 304.91842656502 456 L 304.01014731637 456 L 303.10186806772 456 L 302.19358881907 456 L 301.28530957041 456 L 300.37703032176 456 L 299.46875107311 456 L 298.56047182446 456 L 297.6521925758 456 L 296.74391332715 456 L 295.8356340785 456 L 294.92735482985 456 L 294.0190755812 456 L 293.11079633254 456 L 292.20251708389 456 L 291.29423783524 456 L 290.38595858659 456 L 289.47767933793 456 L 288.56940008928 456 L 287.66112084063 456 L 286.75284159198 456 L 285.84456234333 456 L 284.93628309467 456 L 284.02800384602 456 L 283.11972459737 456 L 282.21144534872 456 L 281.30316610007 456 L 280.39488685141 456 L 279.48660760276 456 L 278.57832835411 456 L 277.67004910546 456 L 276.7617698568 456 L 275.85349060815 456 L 274.9452113595 456 L 274.03693211085 456 L 273.1286528622 456 L 272.22037361354 456 L 271.31209436489 456 L 270.40381511624 456 L 269.49553586759 456 L 268.58725661893 456 L 267.67897737028 456 L 266.77069812163 456 L 265.86241887298 456 L 264.95413962433 456 L 264.04586037567 456 L 263.13758112702 456 L 262.22930187837 456 L 261.32102262972 456 L 260.41274338107 456 L 259.50446413241 456 L 258.59618488376 456 L 257.68790563511 456 L 256.77962638646 456 L 255.8713471378 456 L 254.96306788915 456 L 254.0547886405 456 L 253.14650939185 456 L 252.2382301432 456 L 251.32995089454 456 L 250.42167164589 456 L 249.51339239724 456 L 248.60511314859 456 L 247.69683389993 456 L 246.78855465128 456 L 245.88027540263 456 L 244.97199615398 456 L 244.06371690533 456 L 243.15543765667 456 L 242.24715840802 456 L 241.33887915937 456 L 240.43059991072 456 L 239.52232066207 456 L 238.61404141341 456 L 237.70576216476 456 L 236.79748291611 456 L 235.88920366746 456 L 234.9809244188 456 L 234.07264517015 456 L 233.1643659215 456 L 232.25608667285 456 L 231.3478074242 456 L 230.43952817554 456 L 229.53124892689 456 L 228.62296967824 456 L 227.71469042959 456 L 226.80641118093 456 L 225.89813193228 456 L 224.98985268363 456 L 224.08157343498 456 L 223.17329418633 456 L 222.26501493767 456 L 221.35673568902 456 L 220.44845644037 456 L 219.54017719172 456 L 218.63189794307 456 L 217.72361869441 456 L 216.81533944576 456 L 215.90706019711 456 L 214.99878094846 456 L 214.0905016998 456 L 213.18222245115 456 L 212.2739432025 456 L 211.36566395385 456 L 210.4573847052 456 L 209.54910545654 456 L 208.64082620789 456 L 207.73254695924 456 L 206.82426771059 456 L 205.91598846193 456 L 205.00770921328 456 L 204.09942996463 456 L 203.19115071598 456 L 202.28287146733 456 L 201.37459221867 456 L 200.46631297002 456 L 199.55803372137 456 L 198.64975447272 456 L 197.74147522407 456 L 196.83319597541 456 L 195.92491672676 456 L 195.01663747811 456 L 194.10835822946 456 L 193.2000789808 456 L 192.29179973215 456 L 191.3835204835 456 L 190.47524123485 456 L 189.5669619862 456 L 188.65868273754 456 L 187.75040348889 456 L 186.84212424024 456 L 185.93384499159 456 L 185.02556574293 456 L 184.11728649428 456 L 183.20900724563 456 L 182.30072799698 456 L 181.39244874833 456 L 180.48416949967 456 L 179.57589025102 456 L 178.66761100237 456 L 177.75933175372 456 L 176.85105250507 456 L 175.94277325641 456 L 175.03449400776 456 L 174.12621475911 456 L 173.21793551046 456 L 172.3096562618 456 L 171.40137701315 456 L 170.4930977645 456 L 169.58481851585 456 L 168.6765392672 456 L 167.76826001854 456 L 166.85998076989 456 L 165.95170152124 456 L 165.04342227259 456 L 164.13514302393 456 L 163.22686377528 456 L 162.31858452663 456 L 161.41030527798 456 L 160.50202602933 456 L 159.59374678067 456 L 158.68546753202 456 L 157.77718828337 456 L 156.86890903472 456 L 155.96062978607 456 L 155.05235053741 456 L 154.14407128876 456 L 153.23579204011 456 L 152.32751279146 456 L 151.4192335428 456 L 150.51095429415 456 L 149.6026750455 456 L 148.69439579685 456 L 147.7861165482 456 L 146.87783729954 456 L 145.96955805089 456 L 145.06127880224 456 L 144.15299955359 456 L 143.24472030493 456 L 142.33644105628 456 L 141.42816180763 456 L 140.51988255898 456 L 139.61160331033 456 L 138.70332406167 456 L 137.79504481302 456 L 136.88676556437 456 L 135.97848631572 456 L 135.07020706707 456 L 134.16192781841 456 L 133.25364856976 456 L 132.34536932111 456 L 131.43709007246 456 L 130.5288108238 456 L 129.62053157515 456 L 128.7122523265 456 L 127.80397307785 456 L 126.8956938292 456 L 125.98741458054 456 L 125.07913533189 456 L 124.17085608324 456 L 123.26257683459 456 L 122.35429758593 456 L 121.44601833728 456 L 120.53773908863 456 L 119.62945983998 456 L 118.72118059133 456 L 117.81290134267 456 L 116.90462209402 456 L 115.99634284537 456 L 115.08806359672 456 L 114.17978434806 456 L 113.27150509941 456 L 112.36322585076 456 L 111.45494660211 456 L 110.54666735346 456 L 109.6383881048 456 L 108.73010885615 456 L 107.8218296075 456 L 106.91355035885 456 L 106.0052711102 456 L 105.09699186154 456 L 104.18871261289 456 L 103.28043336424 456 L 102.37215411559 456 L 101.46387486693 456 L 100.55559561828 456 L 99.64731636963 456 L 98.739037120978 456 L 97.830757872326 456 L 96.922478623674 456 L 96.014199375021 456 L 95.105920126369 456 L 94.197640877717 456 L 93.289361629065 456 L 92.381082380413 456 L 91.472803131761 456 L 90.564523883108 456 L 89.656244634456 456 L 88.747965385804 456 L 87.839686137152 456 L 86.9314068885 456 L 86.023127639848 456 L 85.114848391195 456 L 84.206569142543 456 L 83.298289893891 456 L 82.390010645239 456 L 81.481731396587 456 L 80.573452147934 456 L 79.665172899282 456 L 78.75689365063 456 L 77.848614401978 456 L 76.940335153326 456 L 76.032055904674 456 L 75.123776656021 456 L 74.215497407369 456 L 73.307218158717 456 L 72.398938910065 456 L 71.490659661413 456 L 70.582380412761 456 L 69.674101164108 456 L 68.765821915456 456 L 67.857542666804 456 L 66.949263418152 456 L 66.0409841695 456 L 65.132704920848 456 L 64.224425672195 456 L 63.316146423543 456 L 62.407867174891 456 L 61.499587926239 456 L 60.591308677587 456 L 59.683029428934 456 L 58.774750180282 456 L 57.86647093163 456 L 56.958191682978 456 L 56.049912434326 456 L 55.141633185674 456 L 54.233353937021 456 L 53.325074688369 456 L 52.416795439717 456 L 51.508516191065 456 L 50.600236942413 456 L 49.691957693761 456 L 48.783678445108 456 L 47.875399196456 456 L 46.967119947804 456 L 46.058840699152 456 L 45.1505614505 456 L 44.242282201847 456 L 43.334002953195 456 L 42.425723704543 456 L 41.517444455891 456 L 40.609165207239 456 L 39.700885958587 456 L 38.792606709934 456 L 37.884327461282 456 L 36.97604821263 456 L 36.067768963978 456 L 35.159489715326 456 L 34.251210466674 456 L 33.342931218021 456 L 32.434651969369 456 L 31.526372720717 456 L 30.618093472065 456 L 29.709814223413 456 L 28.80153497476 456 L 27.893255726108 456 L 26.984976477456 456 L 26.076697228804 456 L 25.168417980152 456 L 24.2601387315 456 L 23.351859482847 456 L 22.443580234195 456 L 21.535300985543 456 L 20.627021736891 456 L 19.718742488239 456 L 18.810463239587 456 L 17.902183990934 456 L 16.993904742282 456 L 16.08562549363 456 L 15.177346244978 456 L 14.269066996326 456 L 13.360787747674 456 L 12.452508499021 456 L 11.544229250369 456 L 10.635950001717 456 L 9.7276707530648 456 L 8.8193915044126 456 L 7.9111122557604 456 L 7.0028330071083 456 L 6.0945537584561 456 L 5.1862745098039 456 Z" class="highcharts-area" data-z-index="0"></path><path fill="none" d="M 5.1862745098039 456 L 6.0945537584561 456 L 7.0028330071083 456 L 7.9111122557604 456 L 8.8193915044126 456 L 9.7276707530648 456 L 10.635950001717 456 L 11.544229250369 456 L 12.452508499021 456 L 13.360787747674 456 L 14.269066996326 456 L 15.177346244978 456 L 16.08562549363 456 L 16.993904742282 456 L 17.902183990934 456 L 18.810463239587 456 L 19.718742488239 456 L 20.627021736891 456 L 21.535300985543 456 L 22.443580234195 456 L 23.351859482847 456 L 24.2601387315 456 L 25.168417980152 456 L 26.076697228804 456 L 26.984976477456 456 L 27.893255726108 456 L 28.80153497476 456 L 29.709814223413 456 L 30.618093472065 456 L 31.526372720717 456 L 32.434651969369 456 L 33.342931218021 456 L 34.251210466674 456 L 35.159489715326 456 L 36.067768963978 456 L 36.97604821263 456 L 37.884327461282 456 L 38.792606709934 456 L 39.700885958587 456 L 40.609165207239 456 L 41.517444455891 456 L 42.425723704543 456 L 43.334002953195 456 L 44.242282201847 456 L 45.1505614505 456 L 46.058840699152 456 L 46.967119947804 456 L 47.875399196456 456 L 48.783678445108 456 L 49.691957693761 456 L 50.600236942413 456 L 51.508516191065 456 L 52.416795439717 456 L 53.325074688369 456 L 54.233353937021 456 L 55.141633185674 456 L 56.049912434326 456 L 56.958191682978 456 L 57.86647093163 456 L 58.774750180282 456 L 59.683029428934 456 L 60.591308677587 456 L 61.499587926239 456 L 62.407867174891 456 L 63.316146423543 456 L 64.224425672195 456 L 65.132704920848 456 L 66.0409841695 456 L 66.949263418152 456 L 67.857542666804 456 L 68.765821915456 456 L 69.674101164108 456 L 70.582380412761 456 L 71.490659661413 456 L 72.398938910065 456 L 73.307218158717 456 L 74.215497407369 456 L 75.123776656021 456 L 76.032055904674 456 L 76.940335153326 456 L 77.848614401978 456 L 78.75689365063 456 L 79.665172899282 456 L 80.573452147934 456 L 81.481731396587 456 L 82.390010645239 456 L 83.298289893891 456 L 84.206569142543 456 L 85.114848391195 456 L 86.023127639848 456 L 86.9314068885 456 L 87.839686137152 456 L 88.747965385804 456 L 89.656244634456 456 L 90.564523883108 456 L 91.472803131761 456 L 92.381082380413 456 L 93.289361629065 456 L 94.197640877717 456 L 95.105920126369 456 L 96.014199375021 456 L 96.922478623674 456 L 97.830757872326 456 L 98.739037120978 456 L 99.64731636963 456 L 100.55559561828 456 L 101.46387486693 456 L 102.37215411559 456 L 103.28043336424 456 L 104.18871261289 456 L 105.09699186154 456 L 106.0052711102 456 L 106.91355035885 456 L 107.8218296075 456 L 108.73010885615 456 L 109.6383881048 456 L 110.54666735346 456 L 111.45494660211 456 L 112.36322585076 456 L 113.27150509941 456 L 114.17978434806 456 L 115.08806359672 456 L 115.99634284537 456 L 116.90462209402 456 L 117.81290134267 456 L 118.72118059133 456 L 119.62945983998 456 L 120.53773908863 456 L 121.44601833728 456 L 122.35429758593 456 L 123.26257683459 456 L 124.17085608324 456 L 125.07913533189 456 L 125.98741458054 456 L 126.8956938292 456 L 127.80397307785 456 L 128.7122523265 456 L 129.62053157515 456 L 130.5288108238 456 L 131.43709007246 456 L 132.34536932111 456 L 133.25364856976 456 L 134.16192781841 456 L 135.07020706707 456 L 135.97848631572 456 L 136.88676556437 456 L 137.79504481302 456 L 138.70332406167 456 L 139.61160331033 456 L 140.51988255898 456 L 141.42816180763 456 L 142.33644105628 456 L 143.24472030493 456 L 144.15299955359 456 L 145.06127880224 456 L 145.96955805089 456 L 146.87783729954 456 L 147.7861165482 456 L 148.69439579685 456 L 149.6026750455 456 L 150.51095429415 456 L 151.4192335428 456 L 152.32751279146 456 L 153.23579204011 456 L 154.14407128876 456 L 155.05235053741 456 L 155.96062978607 456 L 156.86890903472 456 L 157.77718828337 456 L 158.68546753202 456 L 159.59374678067 456 L 160.50202602933 456 L 161.41030527798 456 L 162.31858452663 456 L 163.22686377528 456 L 164.13514302393 456 L 165.04342227259 456 L 165.95170152124 456 L 166.85998076989 456 L 167.76826001854 456 L 168.6765392672 456 L 169.58481851585 456 L 170.4930977645 456 L 171.40137701315 456 L 172.3096562618 456 L 173.21793551046 456 L 174.12621475911 456 L 175.03449400776 456 L 175.94277325641 456 L 176.85105250507 456 L 177.75933175372 456 L 178.66761100237 456 L 179.57589025102 456 L 180.48416949967 456 L 181.39244874833 456 L 182.30072799698 456 L 183.20900724563 456 L 184.11728649428 456 L 185.02556574293 456 L 185.93384499159 456 L 186.84212424024 456 L 187.75040348889 456 L 188.65868273754 456 L 189.5669619862 456 L 190.47524123485 456 L 191.3835204835 456 L 192.29179973215 456 L 193.2000789808 456 L 194.10835822946 456 L 195.01663747811 456 L 195.92491672676 456 L 196.83319597541 456 L 197.74147522407 456 L 198.64975447272 456 L 199.55803372137 456 L 200.46631297002 456 L 201.37459221867 456 L 202.28287146733 456 L 203.19115071598 456 L 204.09942996463 456 L 205.00770921328 456 L 205.91598846193 456 L 206.82426771059 456 L 207.73254695924 456 L 208.64082620789 456 L 209.54910545654 456 L 210.4573847052 456 L 211.36566395385 456 L 212.2739432025 456 L 213.18222245115 225.63278872996 L 214.0905016998 253.82438610595 L 214.99878094846 260.50859489392997 L 215.90706019711 274.06548638385 L 216.81533944576 259.54521785553004 L 217.72361869441 251.99588542722 L 218.63189794307 253.77326608727 L 219.54017719172 263.51753743913 L 220.44845644037 249.63731586996 L 221.35673568902 264.48301882563 L 222.26501493767 263.91706025342 L 223.17329418633 285.60365906898 L 224.08157343498 285.05078420872997 L 224.98985268363 282.58084025887 L 225.89813193228 281.29678723561 L 226.80641118093 275.31836449318 L 227.71469042959 279.97526134867996 L 228.62296967824 285.29180199538996 L 229.53124892689 266.37347807180004 L 230.43952817554 290.91907110869 L 231.3478074242 304.41546247384997 L 232.25608667285 304.68643054612 L 233.1643659215 298.28043613171997 L 234.07264517015 261.47627906222 L 234.9809244188 251.34295003337 L 235.88920366746 247.26683033042 L 236.79748291611 217.64250515275 L 237.70576216476 236.67306826214 L 238.61404141341 267.16885817140997 L 239.52232066207 263.35210661452004 L 240.43059991072 252.08587323512 L 241.33887915937 264.3800563945 L 242.24715840802 281.5787811636 L 243.15543765667 281.46967343817 L 244.06371690533 269.75959012206 L 244.97199615398 278.71274193453996 L 245.88027540263 263.90674676713 L 246.78855465128 231.44878823662 L 247.69683389993 170.98452632031 L 248.60511314859 148.32828180139 L 249.51339239724 140.40413457958 L 250.42167164589 121.22672532586 L 251.32995089454 151.32607902605997 L 252.2382301432 179.05966876902 L 253.14650939185 145.13042195363 L 254.0547886405 136.47057437426002 L 254.96306788915 153.18956382906998 L 255.8713471378 140.29220176741 L 256.77962638646 156.78854989345 L 257.68790563511 115.51816608026002 L 258.59618488376 123.68102585790001 L 259.50446413241 135.9740405696 L 260.41274338107 125.04927296736997 L 261.32102262972 144.33761513595 L 262.22930187837 168.86074923771002 L 263.13758112702 175.47809483736 L 264.04586037567 135.14508718264 L 264.95413962433 80.91494398871998 L 265.86241887298 92.24941639298999 L 266.77069812163 50.04554653998002 L 267.67897737028 36.54713018558999 L 268.58725661893 54.15241267161002 L 269.49553586759 40.294559583900025 L 270.40381511624 87.61850324892998 L 271.31209436489 88.67778130686997 L 272.22037361354 120.10138698485002 L 273.1286528622 139.85556065585 L 274.03693211085 183.70873785792003 L 274.9452113595 220.55053943512 L 275.85349060815 212.90995585907 L 276.7617698568 233.78936996902 L 277.67004910546 204.00223943044 L 278.57832835411 221.61416182781 L 279.48660760276 237.08588726406 L 280.39488685141 232.44910597808 L 281.30316610007 226.65779183253 L 282.21144534872 241.46843006436 L 283.11972459737 225.30835635235 L 284.02800384602 223.13684539057 L 284.93628309467 226.50223400175 L 285.84456234333 229.73585064223 L 286.75284159198 185.71933939917 L 287.66112084063 189.16320981917 L 288.56940008928 175.68494191057 L 289.47767933793 175.9596211035 L 290.38595858659 190.41074197720002 L 291.29423783524 186.72225112545 L 292.20251708389 210.93179262673 L 293.11079633254 230.62655328807 L 294.0190755812 232.62648575911 L 294.92735482985 239.92287409476 L 295.8356340785 237.66035535881 L 296.74391332715 217.44697366764 L 297.6521925758 223.64376885417 L 298.56047182446 239.46082684692 L 299.46875107311 242.6321759656 L 300.37703032176 247.44662568973 L 301.28530957041 263.00462433603 L 302.19358881907 278.53906776119004 L 303.10186806772 270.15706072417004 L 304.01014731637 278.02193527609 L 304.91842656502 280.09579766594004 L 305.82670581367 270.45654164316 L 306.73498506233 267.18856974345 L 307.64326431098 279.7258901855 L 308.55154355963 254.34087805963 L 309.45982280828 210.34384858509 L 310.36810205693 226.57499382116 L 311.27638130559 227.06134792227 L 312.18466055424 239.93683945226 L 313.09293980289 238.10577692955 L 314.00121905154 244.50260699613 L 314.9094983002 254.7130987575 L 315.81777754885 254.44064186261 L 316.7260567975 214.8165228783 L 317.63433604615 226.65917859779 L 318.5426152948 243.40153065694 L 319.45089454346 241.32030340558 L 320.35917379211 251.04221127766 L 321.26745304076 245.73425978138 L 322.17573228941 246.16494420225 L 323.08401153807 231.77322693106 L 323.99229078672 233.48023831326 L 324.90057003537 219.43508671913 L 325.80884928402 221.96403828792 L 326.71712853267 235.50529939891 L 327.62540778133 230.66453614399 L 328.53368702998 226.99992492939 L 329.44196627863 197.25007170048002 L 330.35024552728 188.89532805404002 L 331.25852477593 202.55386142825 L 332.16680402459 192.4676120304 L 333.07508327324 183.1301009463 L 333.98336252189 195.12138394552 L 334.89164177054 163.42917548623 L 335.7999210192 165.24745087472002 L 336.70820026785 182.44669092343997 L 337.6164795165 152.74214228736997 L 338.52475876515 149.23979539609002 L 339.4330380138 108.37974392976997 L 340.34131726246 100.22883589729997 L 341.24959651111 122.25335172368 L 342.15787575976 140.06199651551998 L 343.06615500841 94.74283732367002 L 343.97443425707 92.05031780256002 L 344.88271350572 94.54612512789998 L 345.79099275437 128.22729202498 L 346.69927200302 125.16123063531 L 347.60755125167 112.49757260697999 L 348.51583050033 106.59844006220999 L 349.42410974898 116.34584651284001 L 350.33238899763 124.33540902529 L 351.24066824628 124.97860425575999 L 352.14894749493 130.13818429431 L 353.05722674359 119.45997730772001 L 353.96550599224 95.23539894822 L 354.87378524089 111.08113315261 L 355.78206448954 133.15050981134 L 356.6903437382 132.6281432669 L 357.59862298685 138.07761322081 L 358.5069022355 144.34296077443997 L 359.41518148415 159.72109563592 L 360.3234607328 194.36362335709998 L 361.23173998146 189.92089229057 L 362.14001923011 199.17401044666002 L 363.04829847876 222.18703600056 L 363.95657772741 240.96599892163 L 364.86485697607 210.30434888655 L 365.77313622472 212.18713465083 L 366.68141547337 208.65463615002 L 367.58969472202 186.60481637837 L 368.49797397067 223.03529954748 L 369.40625321933 231.62238474854 L 370.31453246798 239.06798360729 L 371.22281171663 224.48633392879 L 372.13109096528 258.39284510518996 L 373.03937021393 256.73886191545 L 373.94764946259 324.22873712308 L 374.85592871124 322.74022853648 L 375.76420795989 320.81611436758 L 376.67248720854 316.74349996664 L 377.5807664572 303.44768073058003 L 378.48904570585 320.74156683374997 L 379.3973249545 317.56793635744 L 380.30560420315 333.80570439541 L 381.2138834518 328.95023991179 L 382.12216270046 336.32385597595 L 383.03044194911 328.69478764126 L 383.93872119776 326.24431569057003 L 384.84700044641 335.27020076741 L 385.75527969507 332.17305590133003 L 386.66355894372 336.96941086208 L 387.57183819237 347.09602160095 L 388.48011744102 356.708430210595 L 389.38839668967 352.05676233844997 L 390.29667593833 348.66419151191997 L 391.20495518698 336.61687407753 L 392.11323443563 332.72112245169 L 393.02151368428 345.0487311671 L 393.92979293294 339.73958494625003 L 394.83807218159 347.18264291042 L 395.74635143024 345.45868224765 L 396.65463067889 345.55486771592 L 397.56290992754 342.15465947834 L 398.4711891762 347.93737529733 L 399.37946842485 350.80805953869003 L 400.2877476735 350.76561122662997 L 401.19602692215 362.736769074161 L 402.1043061708 371.341486605394 L 403.01258541946 378.615975655227 L 403.92086466811 383.430067958105 L 404.82914391676 385.629257787958 L 405.73742316541 376.614772366195 L 406.64570241407 389.780458680546 L 407.55398166272 385.889313223717 L 408.46226091137 391.739521327908 L 409.37054016002 387.950822698607 L 410.27881940867 384.976989545427 L 411.18709865733 383.267747671172 L 412.09537790598 388.100486900803 L 413.00365715463 382.187484056942 L 413.91193640328 372.907817194688 L 414.82021565194 369.598164109891 L 415.72849490059 377.322224187489 L 416.63677414924 378.540123690241 L 417.54505339789 385.316061545285 L 418.45333264654 385.32893911485 L 419.3616118952 387.456022806257 L 420.26989114385 386.019549196689 L 421.1781703925 387.26708734400097 L 422.08644964115 387.00835711350703 L 422.9947288898 383.116043820455 L 423.90300813846 385.647965234891 L 424.81128738711 383.393218486482 L 425.71956663576 378.83809689421 L 426.62784588441 380.57178126771 L 427.53612513307 377.059175797651 L 428.44440438172 382.855625355874 L 429.35268363037 389.003811535871 L 430.26096287902 389.622784791563 L 431.16924212767 386.94361634813697 L 432.07752137633 383.652384418045 L 432.98580062498 383.41756715873703 L 433.89407987363 380.418823984428 L 434.80235912228 382.580301322169 L 435.71063837094 371.579225263195 L 436.61891761959 361.688612094674 L 437.52719686824 369.014759828732 L 438.43547611689 365.295737074455 L 439.34375536554 366.217224219229 L 440.2520346142 366.450784614139 L 441.16031386285 365.650403379982 L 442.0685931115 377.367555772182 L 442.97687236015 378.312136607645 L 443.8851516088 370.107437414184 L 444.79343085746 365.663469379543 L 445.70171010611 364.782311516243 L 446.60998935476 365.77404845677097 L 447.51826860341 367.866986175885 L 448.42654785207 367.106768208321 L 449.33482710072 366.431205472427 L 450.24310634937 362.06773814382 L 451.15138559802 364.090344589726 L 452.05966484667 348.20751788299003 L 452.96794409533 354.07581560729 L 453.87622334398 352.56145063223 L 454.78450259263 341.94542852377003 L 455.69278184128 344.53757629093 L 456.60106108994 334.03251381356 L 457.50934033859 336.68628075116 L 458.41761958724 331.73241824479 L 459.32589883589 334.30264810111 L 460.23417808454 339.68200519449 L 461.1424573332 343.7369047907 L 462.05073658185 346.44366088391 L 462.9590158305 352.93274076715 L 463.86729507915 355.27611073275 L 464.7755743278 367.57278981690797 L 465.68385357646 369.80960133786 L 466.59213282511 368.095931634068 L 467.50041207376 370.525929873376 L 468.40869132241 366.768724067987 L 469.31697057107 367.401395250468 L 470.22524981972 366.328220007544 L 471.13352906837 374.39515725574597 L 472.04180831702 374.60523918906597 L 472.95008756567 377.75429467687 L 473.85836681433 372.277470681103 L 474.76664606298 368.76795687112303 L 475.67492531163 365.53496733122597 L 476.58320456028 365.918310111442 L 477.49148380894 369.39913469946 L 478.39976305759 369.747633837019 L 479.30804230624 368.204796609323 L 480.21632155489 368.271325000419 L 481.12460080354 371.428828805065 L 482.0328800522 365.266781077934 L 482.94115930085 359.015143162798 L 483.8494385495 356.06444957312203 L 484.75771779815 356.20046166343 L 485.6659970468 354.80112206532 L 486.57427629546 351.18038367416 L 487.48255554411 364.22911132574 L 488.39083479276 362.43041862393 L 489.29911404141 369.407217652509 L 490.20739329007 369.05153764377997 L 491.11567253872 365.184150111387 L 492.02395178737 375.002648787162 L 492.93223103602 371.811517073081 L 493.84051028467 376.979677486389 L 494.74878953333 380.066959498907 L 495.65706878198 375.707319117096 L 496.56534803063 377.369391273714 L 497.47362727928 379.210397880824 L 498.38190652794 380.410503139057 L 499.29018577659 379.947814973389 L 500.19846502524 380.874697837745 L 501.10674427389 381.780551835649 L 502.01502352254 381.76969114025997 L 502.9233027712 382.17715052568303 L 503.83158201985 382.338370477043 L 504.7398612685 383.778925861175 L 505.64814051715 382.478487585744 L 506.5564197658 380.84873399238097 L 507.46469901446 379.444716662046 L 508.37297826311 380.99350897965303 L 509.28125751176 382.524745741681 L 510.18953676041 383.544132226988 L 511.09781600907 383.107956301517 L 512.00609525772 388.907653807522 L 512.91437450637 390.229347602175 L 513.82265375502 390.617589529231 L 514.73093300367 392.882193684663 L 515.63921225233 393.603539742475 L 516.54749150098 395.363205640825 L 517.45577074963 393.794793393503 L 518.36404999828 392.47159075587797 L 519.27232924694 394.407980419112 L 520.18060849559 397.499169343415 L 521.08888774424 396.588423391726 L 521.99716699289 396.136248313137 L 522.90544624154 395.504506815791 L 523.8137254902 394.237026498884" class="highcharts-graph" data-z-index="1" stroke="rgb(3, 63, 64)" stroke-opacity=" 1" stroke-width="1" stroke-linejoin="round" stroke-linecap="round"></path></g><g class="highcharts-markers highcharts-series-0 highcharts-area-series" data-z-index="0.1" opacity="1" transform="translate(61,59) scale(1 1)" clip-path="none"></g></g><text x="300" text-anchor="middle" class="highcharts-title" data-z-index="4" style="color: rgb(51, 51, 51); font-size: 18px; fill: rgb(51, 51, 51);" y="24">Near Daily Price (USD) Chart</text><text x="300" text-anchor="middle" class="highcharts-subtitle" data-z-index="4" style="color: rgb(102, 102, 102); fill: rgb(102, 102, 102);" y="44">Source: NearBlocks.io</text><text x="10" text-anchor="start" class="highcharts-caption" data-z-index="4" style="color: rgb(102, 102, 102); fill: rgb(102, 102, 102);" y="547"></text><g class="highcharts-axis-labels highcharts-xaxis-labels" data-z-index="7"><text x="93.642799297185" text-anchor="middle" transform="translate(0,0)" style="color: rgb(102, 102, 102); cursor: default; font-size: 11px; fill: rgb(102, 102, 102);" y="534" opacity="1">May '21</text><text x="205.3611468814" text-anchor="middle" transform="translate(0,0)" style="color: rgb(102, 102, 102); cursor: default; font-size: 11px; fill: rgb(102, 102, 102);" y="534" opacity="1">Sep '21</text><text x="316.17121521697" text-anchor="middle" transform="translate(0,0)" style="color: rgb(102, 102, 102); cursor: default; font-size: 11px; fill: rgb(102, 102, 102);" y="534" opacity="1">Jan '22</text><text x="425.16472505523" text-anchor="middle" transform="translate(0,0)" style="color: rgb(102, 102, 102); cursor: default; font-size: 11px; fill: rgb(102, 102, 102);" y="534" opacity="1">May '22</text><text x="536.88307263945" text-anchor="middle" transform="translate(0,0)" style="color: rgb(102, 102, 102); cursor: default; font-size: 11px; fill: rgb(102, 102, 102);" y="534" opacity="1">Sep '22</text></g><g class="highcharts-axis-labels highcharts-yaxis-labels" data-z-index="7"><text x="46" text-anchor="end" transform="translate(0,0)" style="color: rgb(102, 102, 102); cursor: default; font-size: 11px; fill: rgb(102, 102, 102);" y="520" opacity="1">0</text><text x="46" text-anchor="end" transform="translate(0,0)" style="color: rgb(102, 102, 102); cursor: default; font-size: 11px; fill: rgb(102, 102, 102);" y="479" opacity="1">2</text><text x="46" text-anchor="end" transform="translate(0,0)" style="color: rgb(102, 102, 102); cursor: default; font-size: 11px; fill: rgb(102, 102, 102);" y="437" opacity="1">4</text><text x="46" text-anchor="end" transform="translate(0,0)" style="color: rgb(102, 102, 102); cursor: default; font-size: 11px; fill: rgb(102, 102, 102);" y="396" opacity="1">6</text><text x="46" text-anchor="end" transform="translate(0,0)" style="color: rgb(102, 102, 102); cursor: default; font-size: 11px; fill: rgb(102, 102, 102);" y="354" opacity="1">8</text><text x="46" text-anchor="end" transform="translate(0,0)" style="color: rgb(102, 102, 102); cursor: default; font-size: 11px; fill: rgb(102, 102, 102);" y="313" opacity="1">10</text><text x="46" text-anchor="end" transform="translate(0,0)" style="color: rgb(102, 102, 102); cursor: default; font-size: 11px; fill: rgb(102, 102, 102);" y="271" opacity="1">12</text><text x="46" text-anchor="end" transform="translate(0,0)" style="color: rgb(102, 102, 102); cursor: default; font-size: 11px; fill: rgb(102, 102, 102);" y="230" opacity="1">14</text><text x="46" text-anchor="end" transform="translate(0,0)" style="color: rgb(102, 102, 102); cursor: default; font-size: 11px; fill: rgb(102, 102, 102);" y="188" opacity="1">16</text><text x="46" text-anchor="end" transform="translate(0,0)" style="color: rgb(102, 102, 102); cursor: default; font-size: 11px; fill: rgb(102, 102, 102);" y="147" opacity="1">18</text><text x="46" text-anchor="end" transform="translate(0,0)" style="color: rgb(102, 102, 102); cursor: default; font-size: 11px; fill: rgb(102, 102, 102);" y="105" opacity="1">20</text><text x="46" text-anchor="end" transform="translate(0,0)" style="color: rgb(102, 102, 102); cursor: default; font-size: 11px; fill: rgb(102, 102, 102);" y="64" opacity="1">22</text></g></svg>