<?xml version="1.0" standalone="no"?><!DOCTYPE svg PUBLIC "-//W3C//DTD SVG 1.1//EN" "http://www.w3.org/Graphics/SVG/1.1/DTD/svg11.dtd"><svg xmlns:xlink="http://www.w3.org/1999/xlink" version="1.1" class="highcharts-root" style="font-family: &quot;Lucida Grande&quot;, &quot;Lucida Sans Unicode&quot;, Arial, Helvetica, sans-serif; font-size: 12px;" xmlns="http://www.w3.org/2000/svg" width="600" height="550" viewBox="0 0 600 550"><desc>Created with Highcharts 10.1.0</desc><defs><clipPath id="highcharts-bncsirc-1159-"><rect x="0" y="0" width="504" height="456" fill="none"></rect></clipPath><clipPath id="highcharts-bncsirc-1732-"><rect x="0" y="0" width="504" height="456" fill="none"></rect></clipPath><linearGradient x1="0" y1="0" x2="0" y2="1" id="highcharts-bncsirc-1733"><stop offset="0" stop-color="rgb(3,63,64)" stop-opacity="0.8"></stop><stop offset="1" stop-color="rgb(3,63,64)" stop-opacity="0"></stop></linearGradient></defs><rect fill="none" class="highcharts-background" x="0" y="0" width="600" height="550" rx="0" ry="0"></rect><rect fill="none" class="highcharts-plot-background" x="86" y="59" width="504" height="456"></rect><g class="highcharts-grid highcharts-xaxis-grid" data-z-index="1"><path fill="none" stroke-dasharray="none" data-z-index="1" class="highcharts-grid-line" d="M 116.5 59 L 116.5 515" opacity="1"></path><path fill="none" stroke-dasharray="none" data-z-index="1" class="highcharts-grid-line" d="M 223.5 59 L 223.5 515" opacity="1"></path><path fill="none" stroke-dasharray="none" data-z-index="1" class="highcharts-grid-line" d="M 328.5 59 L 328.5 515" opacity="1"></path><path fill="none" stroke-dasharray="none" data-z-index="1" class="highcharts-grid-line" d="M 432.5 59 L 432.5 515" opacity="1"></path><path fill="none" stroke-dasharray="none" data-z-index="1" class="highcharts-grid-line" d="M 538.5 59 L 538.5 515" opacity="1"></path></g><g class="highcharts-grid highcharts-yaxis-grid" data-z-index="1"><path fill="none" stroke="#e6e6e6" stroke-width="1" stroke-dasharray="none" data-z-index="1" class="highcharts-grid-line" d="M 86 515.5 L 590 515.5" opacity="1"></path><path fill="none" stroke="#e6e6e6" stroke-width="1" stroke-dasharray="none" data-z-index="1" class="highcharts-grid-line" d="M 86 469.5 L 590 469.5" opacity="1"></path><path fill="none" stroke="#e6e6e6" stroke-width="1" stroke-dasharray="none" data-z-index="1" class="highcharts-grid-line" d="M 86 424.5 L 590 424.5" opacity="1"></path><path fill="none" stroke="#e6e6e6" stroke-width="1" stroke-dasharray="none" data-z-index="1" class="highcharts-grid-line" d="M 86 378.5 L 590 378.5" opacity="1"></path><path fill="none" stroke="#e6e6e6" stroke-width="1" stroke-dasharray="none" data-z-index="1" class="highcharts-grid-line" d="M 86 333.5 L 590 333.5" opacity="1"></path><path fill="none" stroke="#e6e6e6" stroke-width="1" stroke-dasharray="none" data-z-index="1" class="highcharts-grid-line" d="M 86 287.5 L 590 287.5" opacity="1"></path><path fill="none" stroke="#e6e6e6" stroke-width="1" stroke-dasharray="none" data-z-index="1" class="highcharts-grid-line" d="M 86 241.5 L 590 241.5" opacity="1"></path><path fill="none" stroke="#e6e6e6" stroke-width="1" stroke-dasharray="none" data-z-index="1" class="highcharts-grid-line" d="M 86 196.5 L 590 196.5" opacity="1"></path><path fill="none" stroke="#e6e6e6" stroke-width="1" stroke-dasharray="none" data-z-index="1" class="highcharts-grid-line" d="M 86 150.5 L 590 150.5" opacity="1"></path><path fill="none" stroke="#e6e6e6" stroke-width="1" stroke-dasharray="none" data-z-index="1" class="highcharts-grid-line" d="M 86 105.5 L 590 105.5" opacity="1"></path><path fill="none" stroke="#e6e6e6" stroke-width="1" stroke-dasharray="none" data-z-index="1" class="highcharts-grid-line" d="M 86 58.5 L 590 58.5" opacity="1"></path></g><rect fill="none" class="highcharts-plot-border" data-z-index="1" x="86" y="59" width="504" height="456"></rect><g class="highcharts-axis highcharts-xaxis" data-z-index="2"><path fill="none" class="highcharts-tick" stroke="#ccd6eb" stroke-width="1" d="M 116.5 515 L 116.5 525" opacity="1"></path><path fill="none" class="highcharts-tick" stroke="#ccd6eb" stroke-width="1" d="M 223.5 515 L 223.5 525" opacity="1"></path><path fill="none" class="highcharts-tick" stroke="#ccd6eb" stroke-width="1" d="M 328.5 515 L 328.5 525" opacity="1"></path><path fill="none" class="highcharts-tick" stroke="#ccd6eb" stroke-width="1" d="M 432.5 515 L 432.5 525" opacity="1"></path><path fill="none" class="highcharts-tick" stroke="#ccd6eb" stroke-width="1" d="M 538.5 515 L 538.5 525" opacity="1"></path><path fill="none" class="highcharts-axis-line" stroke="#ccd6eb" stroke-width="1" data-z-index="7" d="M 86 515.5 L 590 515.5"></path></g><g class="highcharts-axis highcharts-yaxis" data-z-index="2"><text x="24.296875" data-z-index="7" text-anchor="middle" transform="translate(0,0) rotate(270 24.296875 287)" class="highcharts-axis-title" style="color: rgb(102, 102, 102); fill: rgb(102, 102, 102);" y="287">Near Supply</text><path fill="none" class="highcharts-axis-line" data-z-index="7" d="M 86 59 L 86 515"></path></g><g class="highcharts-series-group" data-z-index="3"><g class="highcharts-series highcharts-series-0 highcharts-area-series" data-z-index="0.1" opacity="1" transform="translate(86,59) scale(1 1)" clip-path="url(#highcharts-bncsirc-1732-)"><path fill="url(#highcharts-bncsirc-1733)" d="M 4.9411764705882 401.912015793526 L 5.8065313691151 401.277105863988 L 6.6718862676419 400.639380854438 L 7.5372411661687 400.000983371612 L 8.4025960646956 399.362510300022 L 9.2679509632224 398.723958251044 L 10.133305861749 398.085727261086 L 10.998660760276 397.447003269141 L 11.864015658803 396.808242245234 L 12.72937055733 396.169379694989 L 13.594725455857 395.530443363792 L 14.460080354383 394.891538860252 L 15.32543525291 394.252776240476 L 16.190790151437 393.61377435532097 L 17.056145049964 392.97459418226697 L 17.921499948491 392.3355122231 L 18.786854847018 391.696081691136 L 19.652209745544 391.05652103611 L 20.517564644071 390.41703221723697 L 21.382919542598 389.777340012524 L 22.248274441125 389.137581461338 L 23.113629339652 388.497776290177 L 23.978984238179 387.86072730213 L 24.844339136705 387.544535778106 L 25.709694035232 386.905627958435 L 26.575048933759 386.26582198701703 L 27.440403832286 385.62585334773803 L 28.305758730813 384.985804036681 L 29.17111362934 384.345497387333 L 30.036468527866 383.705056035818 L 30.901823426393 383.06452610298 L 31.76717832492 382.423883054779 L 32.632533223447 381.783180714889 L 33.497888121974 381.142472457379 L 34.363243020501 380.501773980078 L 35.228597919028 379.861196306613 L 36.093952817554 379.220187768909 L 36.959307716081 378.579607404708 L 37.824662614608 377.93838015922 L 38.690017513135 377.297025585407 L 39.555372411662 376.6556432748 L 40.420727310189 376.015850205356 L 41.286082208715 375.374283822833 L 42.151437107242 374.732699611271 L 43.016792005769 374.091884674827 L 43.882146904296 373.450065076705 L 44.747501802823 372.817575571322 L 45.61285670135 372.200456845977 L 46.478211599876 371.558748577006 L 47.343566498403 370.91676749903297 L 48.20892139693 370.285802299805 L 49.074276295457 369.646546792032 L 49.939631193984 369.004199915316 L 50.804986092511 368.362055130211 L 51.670340991037 367.71968212069 L 52.535695889564 367.078146700452 L 53.401050788091 366.435700617841 L 54.266405686618 365.79153156386997 L 55.131760585145 365.148179821113 L 55.997115483672 364.507277688629 L 56.862470382198 363.866979619071 L 57.727825280725 363.225607823427 L 58.593180179252 362.585410806759 L 59.458535077779 361.941442581792 L 60.323889976306 361.298807610621 L 61.189244874833 360.656193553093 L 62.054599773359 360.016384369827 L 62.919954671886 359.373774557349 L 63.785309570413 358.726042717685 L 64.65066446894 358.08112933708003 L 65.516019367467 357.438943065363 L 66.381374265994 356.796911060955 L 67.24672916452 356.153758900655 L 68.112084063047 355.51453087524 L 68.977438961574 354.87207530863 L 69.842793860101 354.22712016901 L 70.708148758628 353.58190790887 L 71.573503657155 352.93763059795003 L 72.438858555681 352.28288453051 L 73.304213454208 351.63865985309997 L 74.169568352735 350.99342512481 L 75.034923251262 350.35155663672003 L 75.900278149789 349.7085829389 L 76.765633048316 349.0676916282 L 77.630987946842 348.42654440613 L 78.496342845369 347.78620823129 L 79.361697743896 347.14909922187 L 80.227052642423 346.51062246693 L 81.09240754095 345.87126914835 L 81.957762439477 345.23109551515 L 82.823117338003 344.58953388686 L 83.68847223653 343.94156333604997 L 84.553827135057 343.29410837608 L 85.419182033584 342.64688871808 L 86.284536932111 341.99650130179 L 87.149891830638 341.34440612507 L 88.015246729165 340.69169065226 L 88.880601627691 340.02577276201 L 89.745956526218 339.35546811045003 L 90.611311424745 338.70877563376 L 91.476666323272 338.06499621942 L 92.342021221799 337.42085250173 L 93.207376120326 336.77220404034 L 94.072731018852 336.13262355861 L 94.938085917379 335.48966534819 L 95.803440815906 334.84444644793 L 96.668795714433 334.19904235827 L 97.53415061296 333.55362699309 L 98.399505511487 332.90833674871 L 99.264860410013 332.26133987997 L 100.13021530854 331.61195577105 L 100.99557020707 330.96043674084 L 101.86092510559 330.31037946393997 L 102.72628000412 329.66259751358 L 103.59163490265 329.01425803708 L 104.45698980117 328.36669682808997 L 105.3223446997 327.71544694022 L 106.18769959823 327.04924413068 L 107.05305449675 326.37897230625003 L 107.91840939528 326.04137895305996 L 108.78376429381 325.37607326866 L 109.64911919234 324.70977163399 L 110.51447409086 324.04695943648 L 111.37982898939 323.38596764829003 L 112.24518388792 322.71298634574 L 113.11053878644 322.03536244694 L 113.97589368497 321.37322441109 L 114.8412485835 320.71172520171 L 115.70660348202 320.0487235321 L 116.57195838055 319.39006248889 L 117.43731327908 318.73688402850996 L 118.3026681776 318.07924973090996 L 119.16802307613 317.41668792008 L 120.03337797466 316.75375159721 L 120.89873287318 316.42514475021 L 121.76408777171 315.76358297683 L 122.62944267024 315.10461452384004 L 123.49479756876 314.44224448302 L 124.36015246729 313.77906924412 L 125.22550736582 313.11251128306003 L 126.09086226435 312.44423876902 L 126.95621716287 311.77361232380997 L 127.8215720614 311.10241158364 L 128.68692695993 310.42927225417 L 129.55228185845 309.75444294914 L 130.41763675698 309.07715746913 L 131.28299165551 308.40167087824 L 132.14834655403 307.72881470615 L 133.01370145256 307.05481089117 L 133.87905635109 306.38255572487003 L 134.74441124961 306.04116763941 L 135.60976614814 305.35809220223996 L 136.47512104667 304.67020017543 L 137.34047594519 303.97436844392996 L 138.20583084372 303.27451292252 L 139.07118574225 302.56751417825 L 139.93654064077 301.85639645684 L 140.8018955393 301.50140979255 L 141.66725043783 300.7951742852 L 142.53260533636 300.07221934938 L 143.39796023488 299.36483486253996 L 144.26331513341 298.66686516451 L 145.12867003194 297.97261241098 L 145.99402493046 297.27746882279996 L 146.85937982899 296.9297431316 L 147.72473472752 296.23236529229 L 148.59008962604 295.52579681033 L 149.45544452457 294.82630170433004 L 150.3207994231 294.12912162465 L 151.18615432162 293.4247377037 L 152.05150922015 292.72157398838 L 152.91686411868 292.37612127016 L 153.7822190172 291.66800810672 L 154.64757391573 290.96171615757 L 155.51292881426 290.27182387846 L 156.37828371278 289.56872576217 L 157.24363861131 288.87827689479 L 158.10899350984 288.18451399624 L 158.97434840837 287.83613403461004 L 159.83970330689 287.14224061517 L 160.70505820542 286.44836417624003 L 161.57041310395 285.75733165508 L 162.43576800247 285.0601144551 L 163.301122901 284.36622799431 L 164.16647779953 283.66876453931 L 165.03183269805 282.97089799129003 L 165.89718759658 282.62147081302 L 166.76254249511 281.91721114546 L 167.62789739363 281.20720728432 L 168.49325229216 280.49782211787 L 169.35860719069 279.80460045345 L 170.22396208921 279.11657468401 L 171.08931698774 278.43516216552996 L 171.95467188627 277.75370632991996 L 172.82002678479 277.07494715613 L 173.68538168332 276.74596849482 L 174.55073658185 276.03946862899 L 175.41609148037 275.36313147193 L 176.2814463789 274.69190682059 L 177.14680127743 274.02551926461 L 178.01215617596 273.35684790569996 L 178.87751107448 272.66076378439004 L 179.74286597301 271.96989361198 L 180.60822087154 271.27362740678 L 181.47357577006 270.57131925927 L 182.33893066859 270.22653305096003 L 183.20428556712 269.49934629541997 L 184.06964046564 268.80499077779996 L 184.93499536417 268.07344493776 L 185.8003502627 267.37776326813 L 186.66570516122 267.01639384148 L 187.53106005975 266.30749136871 L 188.39641495828 265.59180809617 L 189.2617698568 264.86908862929 L 190.12712475533 264.15438544283 L 190.99247965386 263.44821300715 L 191.85783455238 262.74807944837 L 192.72318945091 262.39017626909003 L 193.58854434944 261.69944727615996 L 194.45389924797 260.96704537163 L 195.31925414649 260.27058932426996 L 196.18460904502 259.57441591541 L 197.04996394355 258.86206766673 L 197.91531884207 258.51022613819 L 198.7806737406 257.79138411298004 L 199.64602863913 257.06699114509 L 200.51138353765 256.3443828408 L 201.37673843618 255.62443267608 L 202.24209333471 254.91116682122 L 203.10744823323 254.54890417119 L 203.97280313176 253.82471935861 L 204.83815803029 253.11951510929 L 205.70351292881 252.42639652968 L 206.56886782734 251.73869279022 L 207.43422272587 251.05098329858 L 208.29957762439 250.3754598455 L 209.16493252292 250.04456067296 L 210.03028742145 249.33822137755 L 210.89564231998 248.66147123485 L 211.7609972185 247.98699192816 L 212.62635211703 247.31223597633 L 213.49170701556 246.6377402354 L 214.35706191408 245.96619960467 L 215.22241681261 245.28535309086 L 216.08777171114 244.60729717676 L 216.95312660966 243.94035608484 L 217.81848150819 243.26877018104 L 218.68383640672 242.59221624906 L 219.54919130524 241.91661121748 L 220.41454620377 241.24380264561 L 221.2799011023 240.55886821178 L 222.14525600082 239.87736381236 L 223.01061089935 239.20395676211 L 223.87596579788 238.52523259667 L 224.7413206964 238.1928140097 L 225.60667559493 237.5170484513 L 226.47203049346 236.83770083845 L 227.33738539199 236.14312405907 L 228.20274029051 235.45970886023 L 229.06809518904 234.7845429308 L 229.93345008757 234.13010162656 L 230.79880498609 233.57684871813 L 231.66415988462 233.30975846286 L 232.52951478315 232.71185700015 L 233.39486968167 231.97654042995 L 234.2602245802 231.60060262931 L 235.12557947873 230.83185240059 L 235.99093437725 230.06985822158 L 236.85628927578 229.68667663994 L 237.72164417431 228.91814776028 L 238.58699907283 228.14489628565 L 239.45235397136 227.75947489162 L 240.31770886989 226.97912908799 L 241.18306376841 226.2117316285 L 242.04841866694 225.83150140254 L 242.91377356547 225.06350434083 L 243.779128464 224.2874347886 L 244.64448336252 223.89869064686 L 245.50983826105 223.11691781581 L 246.37519315958 222.34009046911 L 247.2405480581 221.96007651555 L 248.10590295663 221.17784669579 L 248.97125785516 220.39488328415 L 249.83661275368 219.98516891303 L 250.70196765221 219.21820724828 L 251.56732255074 218.44819557431 L 252.43267744926 218.06203968067 L 253.29803234779 217.28557794419 L 254.16338724632 216.88153522708 L 255.02874214484 216.03399429316 L 255.89409704337 215.61026409307 L 256.7594519419 214.7834370446 L 257.62480684042 214.3750768299 L 258.49016173895 213.54936698435 L 259.35551663748 213.1402755552 L 260.220871536 212.31979923288 L 261.08622643453 211.91905387062 L 261.95158133306 211.10208313544 L 262.81693623159 210.29271426977 L 263.68229113011 209.88110294538 L 264.54764602864 209.06704817486 L 265.41300092717 208.6618380753 L 266.27835582569 207.83958638073 L 267.14371072422 207.02252083476 L 268.00906562275 206.61295491475 L 268.87442052127 205.79093264604 L 269.7397754198 205.38852262762 L 270.60513031833 204.56927668024 L 271.47048521685 203.75261562806 L 272.33584011538 203.34584675208 L 273.20119501391 202.51895420893 L 274.06654991243 202.11824304105 L 274.93190481096 201.29297236922 L 275.79725970949 200.47117002036 L 276.66261460801 200.06213885173 L 277.52796950654 199.24286680413002 L 278.39332440507 198.42934687188 L 279.2586793036 198.0239529338 L 280.12403420212 197.21279471116998 L 280.98938910065 196.80514102303 L 281.85474399918 195.98317837400998 L 282.7200988977 195.14928557798999 L 283.58545379623 194.72387156572 L 284.45080869476 193.85761436035 L 285.31616359328 193.41927924643 L 286.18151849181 192.58664512562 L 287.04687339034 192.16494473883 L 287.91222828886 191.31400585628 L 288.77758318739 190.90365821164 L 289.64293808592 190.0634471258 L 290.50829298444 189.23290823662 L 291.37364788297 188.8207809347 L 292.2390027815 187.99922435050001 L 293.10435768002 187.59076793994 L 293.96971257855 186.76935473476 L 294.83506747708 185.93548302276997 L 295.70042237561 185.52117937209 L 296.56577727413 184.68945234236998 L 297.43113217266 184.27357042623998 L 298.29648707119 183.43858403173 L 299.16184196971 182.60312303661 L 300.02719686824 182.18790530481 L 300.89255176677 181.34320640843998 L 301.75790666529 180.92218386889 L 302.62326156382 180.08275211489 L 303.48861646235 179.24605402434003 L 304.35397136087 178.82639054999999 L 305.2193262594 177.96633005276 L 306.08468115793 177.53968483300002 L 306.95003605645 176.67855396420998 L 307.81539095498 176.24475065408 L 308.68074585351 175.34635898626 L 309.54610075203 174.91793284158 L 310.41145565056 174.03334998690002 L 311.27681054909 173.58896349025002 L 312.14216544762 172.71690157570998 L 313.00752034614 172.28460128286002 L 313.87287524467 171.43234897112 L 314.7382301432 171.00207573844 L 315.60358504172 170.16885156352998 L 316.46893994025 169.75979372061 L 317.33429483878 168.92579790052002 L 318.1996497373 168.07123457786003 L 319.06500463583 167.64756196423002 L 319.93035953436 166.80910170613998 L 320.79571443288 166.39859240432003 L 321.66106933141 165.56616041284002 L 322.52642422994 165.13356831047003 L 323.39177912846 164.28301862579002 L 324.25713402699 163.45312888051 L 325.12248892552 163.03804553903 L 325.98784382404 162.20467962753997 L 326.85319872257 161.78623641264 L 327.7185536211 160.95382717176 L 328.58390851963 160.13022920162 L 329.44926341815 159.71739511224 L 330.31461831668 158.89113265823 L 331.17997321521 158.06488718524002 L 332.04532811373 157.65642912605 L 332.91068301226 156.83419027280002 L 333.77603791079 156.42645025951998 L 334.64139280931 155.57316541372 L 335.50674770784 155.14041632037998 L 336.37210260637 154.30955664977 L 337.23745750489 153.48566379751003 L 338.10281240342 153.0790359376 L 338.96816730195 152.24353742969998 L 339.83352220047 151.41165389904 L 340.698877099 150.99472523672 L 341.56423199753 150.15134762898998 L 342.42958689605 149.74087473403 L 343.29494179458 148.88800356593998 L 344.16029669311 148.46102771296 L 345.02565159163 147.60322064547 L 345.89100649016 146.74349593647003 L 346.75636138869 146.32381183913998 L 347.62171628722 145.44910489776998 L 348.48707118574 145.01219676742 L 349.35242608427 144.18038479583998 L 350.2177809828 143.76128654375998 L 351.08313588132 142.9295294743 L 351.94849077985 142.10322324241002 L 352.81384567838 141.68662584776 L 353.6792005769 140.84466862033003 L 354.54455547543 140.43160412997997 L 355.40991037396 139.57205502823 L 356.27526527248 139.15254549933002 L 357.14062017101 138.31182673597 L 358.00597506954 137.48339163115003 L 358.87132996806 137.07798846308998 L 359.73668486659 136.25661139737002 L 360.60203976512 135.42848681833 L 361.46739466364 135.01913458372002 L 362.33274956217 134.18355405849002 L 363.1981044607 133.78009693399002 L 364.06345935923 132.97116059074 L 364.92881425775 132.1680696944 L 365.79416915628 131.76529393503 L 366.65952405481 130.92704820630001 L 367.52487895333 130.07990311274 L 368.39023385186 129.66960163744 L 369.25558875039 128.81392559352003 L 370.12094364891 128.39375470395998 L 370.98629854744 127.54682863608002 L 371.85165344597 126.69254449882999 L 372.71700834449 126.25278029010002 L 373.58236324302 125.38503370032998 L 374.44771814155 124.95680141087001 L 375.31307304007 124.08658989612002 L 376.1784279386 123.6572257432 L 377.04378283713 122.79813863945998 L 377.90913773565 122.37748743531 L 378.77449263418 121.51988117539003 L 379.63984753271 121.08394926859 L 380.50520243124 120.22214278219002 L 381.37055732976 119.38902194935997 L 382.23591222829 118.97972035473998 L 383.10126712682 118.16017806297998 L 383.96662202534 117.34599502006 L 384.83197692387 116.94008760598001 L 385.6973318224 116.12492858223999 L 386.56268672092 115.71726002726001 L 387.42804161945 114.89047043922 L 388.29339651798 114.06650732808998 L 389.1587514165 113.65126529142998 L 390.02410631503 112.82617080354999 L 390.88946121356 111.99868695589998 L 391.75481611208 111.58104284609999 L 392.62017101061 110.75968147565999 L 393.48552590914 109.94725866046002 L 394.35088080766 109.54049559628999 L 395.21623570619 108.7382961641 L 396.08159060472 107.90472350161002 L 396.94694550325 107.49673084965002 L 397.81230040177 106.64655821424998 L 398.6776553003 106.24132457303 L 399.54301019883 105.39925320704998 L 400.40836509735 104.56267824827 L 401.27371999588 104.15845598291997 L 402.13907489441 103.2982268911 L 403.00442979293 102.89254799806997 L 403.86978469146 102.0581613022 L 404.73513958999 101.61917083869997 L 405.60049448851 100.79123629361999 L 406.46584938704 99.98252282673002 L 407.33120428557 99.17704382199997 L 408.19655918409 98.77836903059 L 409.06191408262 97.97762936197 L 409.92726898115 97.17749373981002 L 410.79262387967 96.77737542072998 L 411.6579787782 95.96525811512998 L 412.52333367673 95.15690488221998 L 413.38868857525 94.75734698511002 L 414.25404347378 93.95139145599 L 415.11939837231 93.14623237103001 L 415.98475327084 92.73985304231002 L 416.85010816936 91.90806225571998 L 417.71546306789 91.08042372505003 L 418.58081796642 90.67329942892002 L 419.44617286494 89.85185298804998 L 420.31152776347 89.02551252939003 L 421.176882662 88.61155546947998 L 422.04223756052 87.77956625259998 L 422.90759245905 87.35631601902003 L 423.77294735758 86.51478197053001 L 424.6383022561 85.67744460416998 L 425.50365715463 85.25628141127999 L 426.36901205316 84.42628969679998 L 427.23436695168 84.00856760123997 L 428.09972185021 83.13714338697997 L 428.96507674874 82.71139524425001 L 429.83043164726 81.83811917321998 L 430.69578654579 81.39562104264002 L 431.56114144432 80.52695671149002 L 432.42649634285 79.63767152450998 L 433.29185124137 79.21854139297 L 434.1572061399 78.37183777523 L 435.02256103843 77.95342468338998 L 435.88791593695 77.10885786072998 L 436.75327083548 76.26998417963 L 437.61862573401 75.86269030085998 L 438.48398063253 75.04800206475 L 439.34933553106 74.23082897179 L 440.21469042959 73.82114787501001 L 441.08004532811 72.99721183892001 L 441.94540022664 72.16083267045002 L 442.81075512517 71.74008524191999 L 443.67611002369 71.74156819077001 L 444.54146492222 70.42755893467 L 445.40681982075 69.58624164705998 L 446.27217471927 68.75468931101 L 447.1375296178 68.33806185271999 L 448.00288451633 67.50979980588 L 448.86823941486 66.68313629743 L 449.73359431338 66.26664880483003 L 450.59894921191 65.43167789345 L 451.46430411044 65.00871529296 L 452.32965900896 64.15522069495 L 453.19501390749 63.31137947932001 L 454.06036880602 62.891035112190025 L 454.92572370454 62.051656131280026 L 455.79107860307 61.63876502659002 L 456.6564335016 60.80884162988002 L 457.52178840012 59.96130142930002 L 458.38714329865 59.535349813669995 L 459.25249819718 58.68544569206 L 460.1178530957 58.25485276966998 L 460.98320799423 57.389284352000004 L 461.84856289276 56.967602994130004 L 462.71391779128 56.110343685960004 L 463.57927268981 55.68654263651001 L 464.44462758834 54.825355879250026 L 465.30998248687 54.381161233440025 L 466.17533738539 53.52375174612001 L 467.04069228392 53.090209016510016 L 467.90604718245 52.210063639190025 L 468.77140208097 51.33223468548999 L 469.6367569795 50.90172822003001 L 470.50211187803 50.032634091960006 L 471.36746677655 49.602188031189996 L 472.23282167508 48.75346746426999 L 473.09817657361 47.91017320077998 L 473.96353147213 47.50022305944998 L 474.82888637066 46.672051906340016 L 475.69424126919 45.851195091880015 L 476.55959616771 45.45125563199002 L 477.42495106624 44.61173190200998 L 478.29030596477 44.187959612090026 L 479.15566086329 43.379553638699974 L 480.02101576182 42.50051616321002 L 480.88637066035 42.10281135703002 L 481.75172555888 41.701199626619996 L 482.6170804574 40.9025498295 L 483.48243535593 40.05431715384998 L 484.34779025446 39.22881287138 L 485.21314515298 38.79793013418998 L 486.07850005151 37.970421090579975 L 486.94385495004 37.55483701796999 L 487.80920984856 36.723520080829985 L 488.67456474709 35.887685514869986 L 489.53991964562 35.476160567429986 L 490.40527454414 34.64295377991999 L 491.27062944267 33.83935901396001 L 492.1359843412 33.44766216271 L 493.00133923972 32.636735013090004 L 493.86669413825 31.81796751536001 L 494.73204903678 31.403589507639992 L 495.5974039353 30.568927611989977 L 496.46275883383 29.74235205030999 L 497.32811373236 29.32827806695002 L 498.19346863088 28.511290490520025 L 499.05882352941 27.679619983199984 L 499.05882352941 456 L 498.19346863088 456 L 497.32811373236 456 L 496.46275883383 456 L 495.5974039353 456 L 494.73204903678 456 L 493.86669413825 456 L 493.00133923972 456 L 492.1359843412 456 L 491.27062944267 456 L 490.40527454414 456 L 489.53991964562 456 L 488.67456474709 456 L 487.80920984856 456 L 486.94385495004 456 L 486.07850005151 456 L 485.21314515298 456 L 484.34779025446 456 L 483.48243535593 456 L 482.6170804574 456 L 481.75172555888 456 L 480.88637066035 456 L 480.02101576182 456 L 479.15566086329 456 L 478.29030596477 456 L 477.42495106624 456 L 476.55959616771 456 L 475.69424126919 456 L 474.82888637066 456 L 473.96353147213 456 L 473.09817657361 456 L 472.23282167508 456 L 471.36746677655 456 L 470.50211187803 456 L 469.6367569795 456 L 468.77140208097 456 L 467.90604718245 456 L 467.04069228392 456 L 466.17533738539 456 L 465.30998248687 456 L 464.44462758834 456 L 463.57927268981 456 L 462.71391779128 456 L 461.84856289276 456 L 460.98320799423 456 L 460.1178530957 456 L 459.25249819718 456 L 458.38714329865 456 L 457.52178840012 456 L 456.6564335016 456 L 455.79107860307 456 L 454.92572370454 456 L 454.06036880602 456 L 453.19501390749 456 L 452.32965900896 456 L 451.46430411044 456 L 450.59894921191 456 L 449.73359431338 456 L 448.86823941486 456 L 448.00288451633 456 L 447.1375296178 456 L 446.27217471927 456 L 445.40681982075 456 L 444.54146492222 456 L 443.67611002369 456 L 442.81075512517 456 L 441.94540022664 456 L 441.08004532811 456 L 440.21469042959 456 L 439.34933553106 456 L 438.48398063253 456 L 437.61862573401 456 L 436.75327083548 456 L 435.88791593695 456 L 435.02256103843 456 L 434.1572061399 456 L 433.29185124137 456 L 432.42649634285 456 L 431.56114144432 456 L 430.69578654579 456 L 429.83043164726 456 L 428.96507674874 456 L 428.09972185021 456 L 427.23436695168 456 L 426.36901205316 456 L 425.50365715463 456 L 424.6383022561 456 L 423.77294735758 456 L 422.90759245905 456 L 422.04223756052 456 L 421.176882662 456 L 420.31152776347 456 L 419.44617286494 456 L 418.58081796642 456 L 417.71546306789 456 L 416.85010816936 456 L 415.98475327084 456 L 415.11939837231 456 L 414.25404347378 456 L 413.38868857525 456 L 412.52333367673 456 L 411.6579787782 456 L 410.79262387967 456 L 409.92726898115 456 L 409.06191408262 456 L 408.19655918409 456 L 407.33120428557 456 L 406.46584938704 456 L 405.60049448851 456 L 404.73513958999 456 L 403.86978469146 456 L 403.00442979293 456 L 402.13907489441 456 L 401.27371999588 456 L 400.40836509735 456 L 399.54301019883 456 L 398.6776553003 456 L 397.81230040177 456 L 396.94694550325 456 L 396.08159060472 456 L 395.21623570619 456 L 394.35088080766 456 L 393.48552590914 456 L 392.62017101061 456 L 391.75481611208 456 L 390.88946121356 456 L 390.02410631503 456 L 389.1587514165 456 L 388.29339651798 456 L 387.42804161945 456 L 386.56268672092 456 L 385.6973318224 456 L 384.83197692387 456 L 383.96662202534 456 L 383.10126712682 456 L 382.23591222829 456 L 381.37055732976 456 L 380.50520243124 456 L 379.63984753271 456 L 378.77449263418 456 L 377.90913773565 456 L 377.04378283713 456 L 376.1784279386 456 L 375.31307304007 456 L 374.44771814155 456 L 373.58236324302 456 L 372.71700834449 456 L 371.85165344597 456 L 370.98629854744 456 L 370.12094364891 456 L 369.25558875039 456 L 368.39023385186 456 L 367.52487895333 456 L 366.65952405481 456 L 365.79416915628 456 L 364.92881425775 456 L 364.06345935923 456 L 363.1981044607 456 L 362.33274956217 456 L 361.46739466364 456 L 360.60203976512 456 L 359.73668486659 456 L 358.87132996806 456 L 358.00597506954 456 L 357.14062017101 456 L 356.27526527248 456 L 355.40991037396 456 L 354.54455547543 456 L 353.6792005769 456 L 352.81384567838 456 L 351.94849077985 456 L 351.08313588132 456 L 350.2177809828 456 L 349.35242608427 456 L 348.48707118574 456 L 347.62171628722 456 L 346.75636138869 456 L 345.89100649016 456 L 345.02565159163 456 L 344.16029669311 456 L 343.29494179458 456 L 342.42958689605 456 L 341.56423199753 456 L 340.698877099 456 L 339.83352220047 456 L 338.96816730195 456 L 338.10281240342 456 L 337.23745750489 456 L 336.37210260637 456 L 335.50674770784 456 L 334.64139280931 456 L 333.77603791079 456 L 332.91068301226 456 L 332.04532811373 456 L 331.17997321521 456 L 330.31461831668 456 L 329.44926341815 456 L 328.58390851963 456 L 327.7185536211 456 L 326.85319872257 456 L 325.98784382404 456 L 325.12248892552 456 L 324.25713402699 456 L 323.39177912846 456 L 322.52642422994 456 L 321.66106933141 456 L 320.79571443288 456 L 319.93035953436 456 L 319.06500463583 456 L 318.1996497373 456 L 317.33429483878 456 L 316.46893994025 456 L 315.60358504172 456 L 314.7382301432 456 L 313.87287524467 456 L 313.00752034614 456 L 312.14216544762 456 L 311.27681054909 456 L 310.41145565056 456 L 309.54610075203 456 L 308.68074585351 456 L 307.81539095498 456 L 306.95003605645 456 L 306.08468115793 456 L 305.2193262594 456 L 304.35397136087 456 L 303.48861646235 456 L 302.62326156382 456 L 301.75790666529 456 L 300.89255176677 456 L 300.02719686824 456 L 299.16184196971 456 L 298.29648707119 456 L 297.43113217266 456 L 296.56577727413 456 L 295.70042237561 456 L 294.83506747708 456 L 293.96971257855 456 L 293.10435768002 456 L 292.2390027815 456 L 291.37364788297 456 L 290.50829298444 456 L 289.64293808592 456 L 288.77758318739 456 L 287.91222828886 456 L 287.04687339034 456 L 286.18151849181 456 L 285.31616359328 456 L 284.45080869476 456 L 283.58545379623 456 L 282.7200988977 456 L 281.85474399918 456 L 280.98938910065 456 L 280.12403420212 456 L 279.2586793036 456 L 278.39332440507 456 L 277.52796950654 456 L 276.66261460801 456 L 275.79725970949 456 L 274.93190481096 456 L 274.06654991243 456 L 273.20119501391 456 L 272.33584011538 456 L 271.47048521685 456 L 270.60513031833 456 L 269.7397754198 456 L 268.87442052127 456 L 268.00906562275 456 L 267.14371072422 456 L 266.27835582569 456 L 265.41300092717 456 L 264.54764602864 456 L 263.68229113011 456 L 262.81693623159 456 L 261.95158133306 456 L 261.08622643453 456 L 260.220871536 456 L 259.35551663748 456 L 258.49016173895 456 L 257.62480684042 456 L 256.7594519419 456 L 255.89409704337 456 L 255.02874214484 456 L 254.16338724632 456 L 253.29803234779 456 L 252.43267744926 456 L 251.56732255074 456 L 250.70196765221 456 L 249.83661275368 456 L 248.97125785516 456 L 248.10590295663 456 L 247.2405480581 456 L 246.37519315958 456 L 245.50983826105 456 L 244.64448336252 456 L 243.779128464 456 L 242.91377356547 456 L 242.04841866694 456 L 241.18306376841 456 L 240.31770886989 456 L 239.45235397136 456 L 238.58699907283 456 L 237.72164417431 456 L 236.85628927578 456 L 235.99093437725 456 L 235.12557947873 456 L 234.2602245802 456 L 233.39486968167 456 L 232.52951478315 456 L 231.66415988462 456 L 230.79880498609 456 L 229.93345008757 456 L 229.06809518904 456 L 228.20274029051 456 L 227.33738539199 456 L 226.47203049346 456 L 225.60667559493 456 L 224.7413206964 456 L 223.87596579788 456 L 223.01061089935 456 L 222.14525600082 456 L 221.2799011023 456 L 220.41454620377 456 L 219.54919130524 456 L 218.68383640672 456 L 217.81848150819 456 L 216.95312660966 456 L 216.08777171114 456 L 215.22241681261 456 L 214.35706191408 456 L 213.49170701556 456 L 212.62635211703 456 L 211.7609972185 456 L 210.89564231998 456 L 210.03028742145 456 L 209.16493252292 456 L 208.29957762439 456 L 207.43422272587 456 L 206.56886782734 456 L 205.70351292881 456 L 204.83815803029 456 L 203.97280313176 456 L 203.10744823323 456 L 202.24209333471 456 L 201.37673843618 456 L 200.51138353765 456 L 199.64602863913 456 L 198.7806737406 456 L 197.91531884207 456 L 197.04996394355 456 L 196.18460904502 456 L 195.31925414649 456 L 194.45389924797 456 L 193.58854434944 456 L 192.72318945091 456 L 191.85783455238 456 L 190.99247965386 456 L 190.12712475533 456 L 189.2617698568 456 L 188.39641495828 456 L 187.53106005975 456 L 186.66570516122 456 L 185.8003502627 456 L 184.93499536417 456 L 184.06964046564 456 L 183.20428556712 456 L 182.33893066859 456 L 181.47357577006 456 L 180.60822087154 456 L 179.74286597301 456 L 178.87751107448 456 L 178.01215617596 456 L 177.14680127743 456 L 176.2814463789 456 L 175.41609148037 456 L 174.55073658185 456 L 173.68538168332 456 L 172.82002678479 456 L 171.95467188627 456 L 171.08931698774 456 L 170.22396208921 456 L 169.35860719069 456 L 168.49325229216 456 L 167.62789739363 456 L 166.76254249511 456 L 165.89718759658 456 L 165.03183269805 456 L 164.16647779953 456 L 163.301122901 456 L 162.43576800247 456 L 161.57041310395 456 L 160.70505820542 456 L 159.83970330689 456 L 158.97434840837 456 L 158.10899350984 456 L 157.24363861131 456 L 156.37828371278 456 L 155.51292881426 456 L 154.64757391573 456 L 153.7822190172 456 L 152.91686411868 456 L 152.05150922015 456 L 151.18615432162 456 L 150.3207994231 456 L 149.45544452457 456 L 148.59008962604 456 L 147.72473472752 456 L 146.85937982899 456 L 145.99402493046 456 L 145.12867003194 456 L 144.26331513341 456 L 143.39796023488 456 L 142.53260533636 456 L 141.66725043783 456 L 140.8018955393 456 L 139.93654064077 456 L 139.07118574225 456 L 138.20583084372 456 L 137.34047594519 456 L 136.47512104667 456 L 135.60976614814 456 L 134.74441124961 456 L 133.87905635109 456 L 133.01370145256 456 L 132.14834655403 456 L 131.28299165551 456 L 130.41763675698 456 L 129.55228185845 456 L 128.68692695993 456 L 127.8215720614 456 L 126.95621716287 456 L 126.09086226435 456 L 125.22550736582 456 L 124.36015246729 456 L 123.49479756876 456 L 122.62944267024 456 L 121.76408777171 456 L 120.89873287318 456 L 120.03337797466 456 L 119.16802307613 456 L 118.3026681776 456 L 117.43731327908 456 L 116.57195838055 456 L 115.70660348202 456 L 114.8412485835 456 L 113.97589368497 456 L 113.11053878644 456 L 112.24518388792 456 L 111.37982898939 456 L 110.51447409086 456 L 109.64911919234 456 L 108.78376429381 456 L 107.91840939528 456 L 107.05305449675 456 L 106.18769959823 456 L 105.3223446997 456 L 104.45698980117 456 L 103.59163490265 456 L 102.72628000412 456 L 101.86092510559 456 L 100.99557020707 456 L 100.13021530854 456 L 99.264860410013 456 L 98.399505511487 456 L 97.53415061296 456 L 96.668795714433 456 L 95.803440815906 456 L 94.938085917379 456 L 94.072731018852 456 L 93.207376120326 456 L 92.342021221799 456 L 91.476666323272 456 L 90.611311424745 456 L 89.745956526218 456 L 88.880601627691 456 L 88.015246729165 456 L 87.149891830638 456 L 86.284536932111 456 L 85.419182033584 456 L 84.553827135057 456 L 83.68847223653 456 L 82.823117338003 456 L 81.957762439477 456 L 81.09240754095 456 L 80.227052642423 456 L 79.361697743896 456 L 78.496342845369 456 L 77.630987946842 456 L 76.765633048316 456 L 75.900278149789 456 L 75.034923251262 456 L 74.169568352735 456 L 73.304213454208 456 L 72.438858555681 456 L 71.573503657155 456 L 70.708148758628 456 L 69.842793860101 456 L 68.977438961574 456 L 68.112084063047 456 L 67.24672916452 456 L 66.381374265994 456 L 65.516019367467 456 L 64.65066446894 456 L 63.785309570413 456 L 62.919954671886 456 L 62.054599773359 456 L 61.189244874833 456 L 60.323889976306 456 L 59.458535077779 456 L 58.593180179252 456 L 57.727825280725 456 L 56.862470382198 456 L 55.997115483672 456 L 55.131760585145 456 L 54.266405686618 456 L 53.401050788091 456 L 52.535695889564 456 L 51.670340991037 456 L 50.804986092511 456 L 49.939631193984 456 L 49.074276295457 456 L 48.20892139693 456 L 47.343566498403 456 L 46.478211599876 456 L 45.61285670135 456 L 44.747501802823 456 L 43.882146904296 456 L 43.016792005769 456 L 42.151437107242 456 L 41.286082208715 456 L 40.420727310189 456 L 39.555372411662 456 L 38.690017513135 456 L 37.824662614608 456 L 36.959307716081 456 L 36.093952817554 456 L 35.228597919028 456 L 34.363243020501 456 L 33.497888121974 456 L 32.632533223447 456 L 31.76717832492 456 L 30.901823426393 456 L 30.036468527866 456 L 29.17111362934 456 L 28.305758730813 456 L 27.440403832286 456 L 26.575048933759 456 L 25.709694035232 456 L 24.844339136705 456 L 23.978984238179 456 L 23.113629339652 456 L 22.248274441125 456 L 21.382919542598 456 L 20.517564644071 456 L 19.652209745544 456 L 18.786854847018 456 L 17.921499948491 456 L 17.056145049964 456 L 16.190790151437 456 L 15.32543525291 456 L 14.460080354383 456 L 13.594725455857 456 L 12.72937055733 456 L 11.864015658803 456 L 10.998660760276 456 L 10.133305861749 456 L 9.2679509632224 456 L 8.4025960646956 456 L 7.5372411661687 456 L 6.6718862676419 456 L 5.8065313691151 456 L 4.9411764705882 456 Z" class="highcharts-area" data-z-index="0"></path><path fill="none" d="M 4.9411764705882 401.912015793526 L 5.8065313691151 401.277105863988 L 6.6718862676419 400.639380854438 L 7.5372411661687 400.000983371612 L 8.4025960646956 399.362510300022 L 9.2679509632224 398.723958251044 L 10.133305861749 398.085727261086 L 10.998660760276 397.447003269141 L 11.864015658803 396.808242245234 L 12.72937055733 396.169379694989 L 13.594725455857 395.530443363792 L 14.460080354383 394.891538860252 L 15.32543525291 394.252776240476 L 16.190790151437 393.61377435532097 L 17.056145049964 392.97459418226697 L 17.921499948491 392.3355122231 L 18.786854847018 391.696081691136 L 19.652209745544 391.05652103611 L 20.517564644071 390.41703221723697 L 21.382919542598 389.777340012524 L 22.248274441125 389.137581461338 L 23.113629339652 388.497776290177 L 23.978984238179 387.86072730213 L 24.844339136705 387.544535778106 L 25.709694035232 386.905627958435 L 26.575048933759 386.26582198701703 L 27.440403832286 385.62585334773803 L 28.305758730813 384.985804036681 L 29.17111362934 384.345497387333 L 30.036468527866 383.705056035818 L 30.901823426393 383.06452610298 L 31.76717832492 382.423883054779 L 32.632533223447 381.783180714889 L 33.497888121974 381.142472457379 L 34.363243020501 380.501773980078 L 35.228597919028 379.861196306613 L 36.093952817554 379.220187768909 L 36.959307716081 378.579607404708 L 37.824662614608 377.93838015922 L 38.690017513135 377.297025585407 L 39.555372411662 376.6556432748 L 40.420727310189 376.015850205356 L 41.286082208715 375.374283822833 L 42.151437107242 374.732699611271 L 43.016792005769 374.091884674827 L 43.882146904296 373.450065076705 L 44.747501802823 372.817575571322 L 45.61285670135 372.200456845977 L 46.478211599876 371.558748577006 L 47.343566498403 370.91676749903297 L 48.20892139693 370.285802299805 L 49.074276295457 369.646546792032 L 49.939631193984 369.004199915316 L 50.804986092511 368.362055130211 L 51.670340991037 367.71968212069 L 52.535695889564 367.078146700452 L 53.401050788091 366.435700617841 L 54.266405686618 365.79153156386997 L 55.131760585145 365.148179821113 L 55.997115483672 364.507277688629 L 56.862470382198 363.866979619071 L 57.727825280725 363.225607823427 L 58.593180179252 362.585410806759 L 59.458535077779 361.941442581792 L 60.323889976306 361.298807610621 L 61.189244874833 360.656193553093 L 62.054599773359 360.016384369827 L 62.919954671886 359.373774557349 L 63.785309570413 358.726042717685 L 64.65066446894 358.08112933708003 L 65.516019367467 357.438943065363 L 66.381374265994 356.796911060955 L 67.24672916452 356.153758900655 L 68.112084063047 355.51453087524 L 68.977438961574 354.87207530863 L 69.842793860101 354.22712016901 L 70.708148758628 353.58190790887 L 71.573503657155 352.93763059795003 L 72.438858555681 352.28288453051 L 73.304213454208 351.63865985309997 L 74.169568352735 350.99342512481 L 75.034923251262 350.35155663672003 L 75.900278149789 349.7085829389 L 76.765633048316 349.0676916282 L 77.630987946842 348.42654440613 L 78.496342845369 347.78620823129 L 79.361697743896 347.14909922187 L 80.227052642423 346.51062246693 L 81.09240754095 345.87126914835 L 81.957762439477 345.23109551515 L 82.823117338003 344.58953388686 L 83.68847223653 343.94156333604997 L 84.553827135057 343.29410837608 L 85.419182033584 342.64688871808 L 86.284536932111 341.99650130179 L 87.149891830638 341.34440612507 L 88.015246729165 340.69169065226 L 88.880601627691 340.02577276201 L 89.745956526218 339.35546811045003 L 90.611311424745 338.70877563376 L 91.476666323272 338.06499621942 L 92.342021221799 337.42085250173 L 93.207376120326 336.77220404034 L 94.072731018852 336.13262355861 L 94.938085917379 335.48966534819 L 95.803440815906 334.84444644793 L 96.668795714433 334.19904235827 L 97.53415061296 333.55362699309 L 98.399505511487 332.90833674871 L 99.264860410013 332.26133987997 L 100.13021530854 331.61195577105 L 100.99557020707 330.96043674084 L 101.86092510559 330.31037946393997 L 102.72628000412 329.66259751358 L 103.59163490265 329.01425803708 L 104.45698980117 328.36669682808997 L 105.3223446997 327.71544694022 L 106.18769959823 327.04924413068 L 107.05305449675 326.37897230625003 L 107.91840939528 326.04137895305996 L 108.78376429381 325.37607326866 L 109.64911919234 324.70977163399 L 110.51447409086 324.04695943648 L 111.37982898939 323.38596764829003 L 112.24518388792 322.71298634574 L 113.11053878644 322.03536244694 L 113.97589368497 321.37322441109 L 114.8412485835 320.71172520171 L 115.70660348202 320.0487235321 L 116.57195838055 319.39006248889 L 117.43731327908 318.73688402850996 L 118.3026681776 318.07924973090996 L 119.16802307613 317.41668792008 L 120.03337797466 316.75375159721 L 120.89873287318 316.42514475021 L 121.76408777171 315.76358297683 L 122.62944267024 315.10461452384004 L 123.49479756876 314.44224448302 L 124.36015246729 313.77906924412 L 125.22550736582 313.11251128306003 L 126.09086226435 312.44423876902 L 126.95621716287 311.77361232380997 L 127.8215720614 311.10241158364 L 128.68692695993 310.42927225417 L 129.55228185845 309.75444294914 L 130.41763675698 309.07715746913 L 131.28299165551 308.40167087824 L 132.14834655403 307.72881470615 L 133.01370145256 307.05481089117 L 133.87905635109 306.38255572487003 L 134.74441124961 306.04116763941 L 135.60976614814 305.35809220223996 L 136.47512104667 304.67020017543 L 137.34047594519 303.97436844392996 L 138.20583084372 303.27451292252 L 139.07118574225 302.56751417825 L 139.93654064077 301.85639645684 L 140.8018955393 301.50140979255 L 141.66725043783 300.7951742852 L 142.53260533636 300.07221934938 L 143.39796023488 299.36483486253996 L 144.26331513341 298.66686516451 L 145.12867003194 297.97261241098 L 145.99402493046 297.27746882279996 L 146.85937982899 296.9297431316 L 147.72473472752 296.23236529229 L 148.59008962604 295.52579681033 L 149.45544452457 294.82630170433004 L 150.3207994231 294.12912162465 L 151.18615432162 293.4247377037 L 152.05150922015 292.72157398838 L 152.91686411868 292.37612127016 L 153.7822190172 291.66800810672 L 154.64757391573 290.96171615757 L 155.51292881426 290.27182387846 L 156.37828371278 289.56872576217 L 157.24363861131 288.87827689479 L 158.10899350984 288.18451399624 L 158.97434840837 287.83613403461004 L 159.83970330689 287.14224061517 L 160.70505820542 286.44836417624003 L 161.57041310395 285.75733165508 L 162.43576800247 285.0601144551 L 163.301122901 284.36622799431 L 164.16647779953 283.66876453931 L 165.03183269805 282.97089799129003 L 165.89718759658 282.62147081302 L 166.76254249511 281.91721114546 L 167.62789739363 281.20720728432 L 168.49325229216 280.49782211787 L 169.35860719069 279.80460045345 L 170.22396208921 279.11657468401 L 171.08931698774 278.43516216552996 L 171.95467188627 277.75370632991996 L 172.82002678479 277.07494715613 L 173.68538168332 276.74596849482 L 174.55073658185 276.03946862899 L 175.41609148037 275.36313147193 L 176.2814463789 274.69190682059 L 177.14680127743 274.02551926461 L 178.01215617596 273.35684790569996 L 178.87751107448 272.66076378439004 L 179.74286597301 271.96989361198 L 180.60822087154 271.27362740678 L 181.47357577006 270.57131925927 L 182.33893066859 270.22653305096003 L 183.20428556712 269.49934629541997 L 184.06964046564 268.80499077779996 L 184.93499536417 268.07344493776 L 185.8003502627 267.37776326813 L 186.66570516122 267.01639384148 L 187.53106005975 266.30749136871 L 188.39641495828 265.59180809617 L 189.2617698568 264.86908862929 L 190.12712475533 264.15438544283 L 190.99247965386 263.44821300715 L 191.85783455238 262.74807944837 L 192.72318945091 262.39017626909003 L 193.58854434944 261.69944727615996 L 194.45389924797 260.96704537163 L 195.31925414649 260.27058932426996 L 196.18460904502 259.57441591541 L 197.04996394355 258.86206766673 L 197.91531884207 258.51022613819 L 198.7806737406 257.79138411298004 L 199.64602863913 257.06699114509 L 200.51138353765 256.3443828408 L 201.37673843618 255.62443267608 L 202.24209333471 254.91116682122 L 203.10744823323 254.54890417119 L 203.97280313176 253.82471935861 L 204.83815803029 253.11951510929 L 205.70351292881 252.42639652968 L 206.56886782734 251.73869279022 L 207.43422272587 251.05098329858 L 208.29957762439 250.3754598455 L 209.16493252292 250.04456067296 L 210.03028742145 249.33822137755 L 210.89564231998 248.66147123485 L 211.7609972185 247.98699192816 L 212.62635211703 247.31223597633 L 213.49170701556 246.6377402354 L 214.35706191408 245.96619960467 L 215.22241681261 245.28535309086 L 216.08777171114 244.60729717676 L 216.95312660966 243.94035608484 L 217.81848150819 243.26877018104 L 218.68383640672 242.59221624906 L 219.54919130524 241.91661121748 L 220.41454620377 241.24380264561 L 221.2799011023 240.55886821178 L 222.14525600082 239.87736381236 L 223.01061089935 239.20395676211 L 223.87596579788 238.52523259667 L 224.7413206964 238.1928140097 L 225.60667559493 237.5170484513 L 226.47203049346 236.83770083845 L 227.33738539199 236.14312405907 L 228.20274029051 235.45970886023 L 229.06809518904 234.7845429308 L 229.93345008757 234.13010162656 L 230.79880498609 233.57684871813 L 231.66415988462 233.30975846286 L 232.52951478315 232.71185700015 L 233.39486968167 231.97654042995 L 234.2602245802 231.60060262931 L 235.12557947873 230.83185240059 L 235.99093437725 230.06985822158 L 236.85628927578 229.68667663994 L 237.72164417431 228.91814776028 L 238.58699907283 228.14489628565 L 239.45235397136 227.75947489162 L 240.31770886989 226.97912908799 L 241.18306376841 226.2117316285 L 242.04841866694 225.83150140254 L 242.91377356547 225.06350434083 L 243.779128464 224.2874347886 L 244.64448336252 223.89869064686 L 245.50983826105 223.11691781581 L 246.37519315958 222.34009046911 L 247.2405480581 221.96007651555 L 248.10590295663 221.17784669579 L 248.97125785516 220.39488328415 L 249.83661275368 219.98516891303 L 250.70196765221 219.21820724828 L 251.56732255074 218.44819557431 L 252.43267744926 218.06203968067 L 253.29803234779 217.28557794419 L 254.16338724632 216.88153522708 L 255.02874214484 216.03399429316 L 255.89409704337 215.61026409307 L 256.7594519419 214.7834370446 L 257.62480684042 214.3750768299 L 258.49016173895 213.54936698435 L 259.35551663748 213.1402755552 L 260.220871536 212.31979923288 L 261.08622643453 211.91905387062 L 261.95158133306 211.10208313544 L 262.81693623159 210.29271426977 L 263.68229113011 209.88110294538 L 264.54764602864 209.06704817486 L 265.41300092717 208.6618380753 L 266.27835582569 207.83958638073 L 267.14371072422 207.02252083476 L 268.00906562275 206.61295491475 L 268.87442052127 205.79093264604 L 269.7397754198 205.38852262762 L 270.60513031833 204.56927668024 L 271.47048521685 203.75261562806 L 272.33584011538 203.34584675208 L 273.20119501391 202.51895420893 L 274.06654991243 202.11824304105 L 274.93190481096 201.29297236922 L 275.79725970949 200.47117002036 L 276.66261460801 200.06213885173 L 277.52796950654 199.24286680413002 L 278.39332440507 198.42934687188 L 279.2586793036 198.0239529338 L 280.12403420212 197.21279471116998 L 280.98938910065 196.80514102303 L 281.85474399918 195.98317837400998 L 282.7200988977 195.14928557798999 L 283.58545379623 194.72387156572 L 284.45080869476 193.85761436035 L 285.31616359328 193.41927924643 L 286.18151849181 192.58664512562 L 287.04687339034 192.16494473883 L 287.91222828886 191.31400585628 L 288.77758318739 190.90365821164 L 289.64293808592 190.0634471258 L 290.50829298444 189.23290823662 L 291.37364788297 188.8207809347 L 292.2390027815 187.99922435050001 L 293.10435768002 187.59076793994 L 293.96971257855 186.76935473476 L 294.83506747708 185.93548302276997 L 295.70042237561 185.52117937209 L 296.56577727413 184.68945234236998 L 297.43113217266 184.27357042623998 L 298.29648707119 183.43858403173 L 299.16184196971 182.60312303661 L 300.02719686824 182.18790530481 L 300.89255176677 181.34320640843998 L 301.75790666529 180.92218386889 L 302.62326156382 180.08275211489 L 303.48861646235 179.24605402434003 L 304.35397136087 178.82639054999999 L 305.2193262594 177.96633005276 L 306.08468115793 177.53968483300002 L 306.95003605645 176.67855396420998 L 307.81539095498 176.24475065408 L 308.68074585351 175.34635898626 L 309.54610075203 174.91793284158 L 310.41145565056 174.03334998690002 L 311.27681054909 173.58896349025002 L 312.14216544762 172.71690157570998 L 313.00752034614 172.28460128286002 L 313.87287524467 171.43234897112 L 314.7382301432 171.00207573844 L 315.60358504172 170.16885156352998 L 316.46893994025 169.75979372061 L 317.33429483878 168.92579790052002 L 318.1996497373 168.07123457786003 L 319.06500463583 167.64756196423002 L 319.93035953436 166.80910170613998 L 320.79571443288 166.39859240432003 L 321.66106933141 165.56616041284002 L 322.52642422994 165.13356831047003 L 323.39177912846 164.28301862579002 L 324.25713402699 163.45312888051 L 325.12248892552 163.03804553903 L 325.98784382404 162.20467962753997 L 326.85319872257 161.78623641264 L 327.7185536211 160.95382717176 L 328.58390851963 160.13022920162 L 329.44926341815 159.71739511224 L 330.31461831668 158.89113265823 L 331.17997321521 158.06488718524002 L 332.04532811373 157.65642912605 L 332.91068301226 156.83419027280002 L 333.77603791079 156.42645025951998 L 334.64139280931 155.57316541372 L 335.50674770784 155.14041632037998 L 336.37210260637 154.30955664977 L 337.23745750489 153.48566379751003 L 338.10281240342 153.0790359376 L 338.96816730195 152.24353742969998 L 339.83352220047 151.41165389904 L 340.698877099 150.99472523672 L 341.56423199753 150.15134762898998 L 342.42958689605 149.74087473403 L 343.29494179458 148.88800356593998 L 344.16029669311 148.46102771296 L 345.02565159163 147.60322064547 L 345.89100649016 146.74349593647003 L 346.75636138869 146.32381183913998 L 347.62171628722 145.44910489776998 L 348.48707118574 145.01219676742 L 349.35242608427 144.18038479583998 L 350.2177809828 143.76128654375998 L 351.08313588132 142.9295294743 L 351.94849077985 142.10322324241002 L 352.81384567838 141.68662584776 L 353.6792005769 140.84466862033003 L 354.54455547543 140.43160412997997 L 355.40991037396 139.57205502823 L 356.27526527248 139.15254549933002 L 357.14062017101 138.31182673597 L 358.00597506954 137.48339163115003 L 358.87132996806 137.07798846308998 L 359.73668486659 136.25661139737002 L 360.60203976512 135.42848681833 L 361.46739466364 135.01913458372002 L 362.33274956217 134.18355405849002 L 363.1981044607 133.78009693399002 L 364.06345935923 132.97116059074 L 364.92881425775 132.1680696944 L 365.79416915628 131.76529393503 L 366.65952405481 130.92704820630001 L 367.52487895333 130.07990311274 L 368.39023385186 129.66960163744 L 369.25558875039 128.81392559352003 L 370.12094364891 128.39375470395998 L 370.98629854744 127.54682863608002 L 371.85165344597 126.69254449882999 L 372.71700834449 126.25278029010002 L 373.58236324302 125.38503370032998 L 374.44771814155 124.95680141087001 L 375.31307304007 124.08658989612002 L 376.1784279386 123.6572257432 L 377.04378283713 122.79813863945998 L 377.90913773565 122.37748743531 L 378.77449263418 121.51988117539003 L 379.63984753271 121.08394926859 L 380.50520243124 120.22214278219002 L 381.37055732976 119.38902194935997 L 382.23591222829 118.97972035473998 L 383.10126712682 118.16017806297998 L 383.96662202534 117.34599502006 L 384.83197692387 116.94008760598001 L 385.6973318224 116.12492858223999 L 386.56268672092 115.71726002726001 L 387.42804161945 114.89047043922 L 388.29339651798 114.06650732808998 L 389.1587514165 113.65126529142998 L 390.02410631503 112.82617080354999 L 390.88946121356 111.99868695589998 L 391.75481611208 111.58104284609999 L 392.62017101061 110.75968147565999 L 393.48552590914 109.94725866046002 L 394.35088080766 109.54049559628999 L 395.21623570619 108.7382961641 L 396.08159060472 107.90472350161002 L 396.94694550325 107.49673084965002 L 397.81230040177 106.64655821424998 L 398.6776553003 106.24132457303 L 399.54301019883 105.39925320704998 L 400.40836509735 104.56267824827 L 401.27371999588 104.15845598291997 L 402.13907489441 103.2982268911 L 403.00442979293 102.89254799806997 L 403.86978469146 102.0581613022 L 404.73513958999 101.61917083869997 L 405.60049448851 100.79123629361999 L 406.46584938704 99.98252282673002 L 407.33120428557 99.17704382199997 L 408.19655918409 98.77836903059 L 409.06191408262 97.97762936197 L 409.92726898115 97.17749373981002 L 410.79262387967 96.77737542072998 L 411.6579787782 95.96525811512998 L 412.52333367673 95.15690488221998 L 413.38868857525 94.75734698511002 L 414.25404347378 93.95139145599 L 415.11939837231 93.14623237103001 L 415.98475327084 92.73985304231002 L 416.85010816936 91.90806225571998 L 417.71546306789 91.08042372505003 L 418.58081796642 90.67329942892002 L 419.44617286494 89.85185298804998 L 420.31152776347 89.02551252939003 L 421.176882662 88.61155546947998 L 422.04223756052 87.77956625259998 L 422.90759245905 87.35631601902003 L 423.77294735758 86.51478197053001 L 424.6383022561 85.67744460416998 L 425.50365715463 85.25628141127999 L 426.36901205316 84.42628969679998 L 427.23436695168 84.00856760123997 L 428.09972185021 83.13714338697997 L 428.96507674874 82.71139524425001 L 429.83043164726 81.83811917321998 L 430.69578654579 81.39562104264002 L 431.56114144432 80.52695671149002 L 432.42649634285 79.63767152450998 L 433.29185124137 79.21854139297 L 434.1572061399 78.37183777523 L 435.02256103843 77.95342468338998 L 435.88791593695 77.10885786072998 L 436.75327083548 76.26998417963 L 437.61862573401 75.86269030085998 L 438.48398063253 75.04800206475 L 439.34933553106 74.23082897179 L 440.21469042959 73.82114787501001 L 441.08004532811 72.99721183892001 L 441.94540022664 72.16083267045002 L 442.81075512517 71.74008524191999 L 443.67611002369 71.74156819077001 L 444.54146492222 70.42755893467 L 445.40681982075 69.58624164705998 L 446.27217471927 68.75468931101 L 447.1375296178 68.33806185271999 L 448.00288451633 67.50979980588 L 448.86823941486 66.68313629743 L 449.73359431338 66.26664880483003 L 450.59894921191 65.43167789345 L 451.46430411044 65.00871529296 L 452.32965900896 64.15522069495 L 453.19501390749 63.31137947932001 L 454.06036880602 62.891035112190025 L 454.92572370454 62.051656131280026 L 455.79107860307 61.63876502659002 L 456.6564335016 60.80884162988002 L 457.52178840012 59.96130142930002 L 458.38714329865 59.535349813669995 L 459.25249819718 58.68544569206 L 460.1178530957 58.25485276966998 L 460.98320799423 57.389284352000004 L 461.84856289276 56.967602994130004 L 462.71391779128 56.110343685960004 L 463.57927268981 55.68654263651001 L 464.44462758834 54.825355879250026 L 465.30998248687 54.381161233440025 L 466.17533738539 53.52375174612001 L 467.04069228392 53.090209016510016 L 467.90604718245 52.210063639190025 L 468.77140208097 51.33223468548999 L 469.6367569795 50.90172822003001 L 470.50211187803 50.032634091960006 L 471.36746677655 49.602188031189996 L 472.23282167508 48.75346746426999 L 473.09817657361 47.91017320077998 L 473.96353147213 47.50022305944998 L 474.82888637066 46.672051906340016 L 475.69424126919 45.851195091880015 L 476.55959616771 45.45125563199002 L 477.42495106624 44.61173190200998 L 478.29030596477 44.187959612090026 L 479.15566086329 43.379553638699974 L 480.02101576182 42.50051616321002 L 480.88637066035 42.10281135703002 L 481.75172555888 41.701199626619996 L 482.6170804574 40.9025498295 L 483.48243535593 40.05431715384998 L 484.34779025446 39.22881287138 L 485.21314515298 38.79793013418998 L 486.07850005151 37.970421090579975 L 486.94385495004 37.55483701796999 L 487.80920984856 36.723520080829985 L 488.67456474709 35.887685514869986 L 489.53991964562 35.476160567429986 L 490.40527454414 34.64295377991999 L 491.27062944267 33.83935901396001 L 492.1359843412 33.44766216271 L 493.00133923972 32.636735013090004 L 493.86669413825 31.81796751536001 L 494.73204903678 31.403589507639992 L 495.5974039353 30.568927611989977 L 496.46275883383 29.74235205030999 L 497.32811373236 29.32827806695002 L 498.19346863088 28.511290490520025 L 499.05882352941 27.679619983199984" class="highcharts-graph" data-z-index="1" stroke="rgb(3, 63, 64)" stroke-opacity=" 1" stroke-width="1" stroke-linejoin="round" stroke-linecap="round"></path></g><g class="highcharts-markers highcharts-series-0 highcharts-area-series" data-z-index="0.1" opacity="1" transform="translate(86,59) scale(1 1)" clip-path="none"></g></g><text x="300" text-anchor="middle" class="highcharts-title" data-z-index="4" style="color: rgb(51, 51, 51); font-size: 18px; fill: rgb(51, 51, 51);" y="24">Near Supply Growth Chart</text><text x="300" text-anchor="middle" class="highcharts-subtitle" data-z-index="4" style="color: rgb(102, 102, 102); fill: rgb(102, 102, 102);" y="44">Source: NearBlocks.io</text><text x="10" text-anchor="start" class="highcharts-caption" data-z-index="4" style="color: rgb(102, 102, 102); fill: rgb(102, 102, 102);" y="547"></text><g class="highcharts-axis-labels highcharts-xaxis-labels" data-z-index="7"><text x="117.10013392397" text-anchor="middle" transform="translate(0,0)" style="color: rgb(102, 102, 102); cursor: default; font-size: 11px; fill: rgb(102, 102, 102);" y="534" opacity="1">May '21</text><text x="223.53878644277" text-anchor="middle" transform="translate(0,0)" style="color: rgb(102, 102, 102); cursor: default; font-size: 11px; fill: rgb(102, 102, 102);" y="534" opacity="1">Sep '21</text><text x="329.11208406305" text-anchor="middle" transform="translate(0,0)" style="color: rgb(102, 102, 102); cursor: default; font-size: 11px; fill: rgb(102, 102, 102);" y="534" opacity="1">Jan '22</text><text x="432.95467188627" text-anchor="middle" transform="translate(0,0)" style="color: rgb(102, 102, 102); cursor: default; font-size: 11px; fill: rgb(102, 102, 102);" y="534" opacity="1">May '22</text><text x="539.39332440507" text-anchor="middle" transform="translate(0,0)" style="color: rgb(102, 102, 102); cursor: default; font-size: 11px; fill: rgb(102, 102, 102);" y="534" opacity="1">Sep '22</text></g><g class="highcharts-axis-labels highcharts-yaxis-labels" data-z-index="7"><text x="71" text-anchor="end" transform="translate(0,0)" style="color: rgb(102, 102, 102); cursor: default; font-size: 11px; fill: rgb(102, 102, 102);" y="520" opacity="1">1 010M</text><text x="71" text-anchor="end" transform="translate(0,0)" style="color: rgb(102, 102, 102); cursor: default; font-size: 11px; fill: rgb(102, 102, 102);" y="474" opacity="1">1 020M</text><text x="71" text-anchor="end" transform="translate(0,0)" style="color: rgb(102, 102, 102); cursor: default; font-size: 11px; fill: rgb(102, 102, 102);" y="429" opacity="1">1 030M</text><text x="71" text-anchor="end" transform="translate(0,0)" style="color: rgb(102, 102, 102); cursor: default; font-size: 11px; fill: rgb(102, 102, 102);" y="383" opacity="1">1 040M</text><text x="71" text-anchor="end" transform="translate(0,0)" style="color: rgb(102, 102, 102); cursor: default; font-size: 11px; fill: rgb(102, 102, 102);" y="338" opacity="1">1 050M</text><text x="71" text-anchor="end" transform="translate(0,0)" style="color: rgb(102, 102, 102); cursor: default; font-size: 11px; fill: rgb(102, 102, 102);" y="292" opacity="1">1 060M</text><text x="71" text-anchor="end" transform="translate(0,0)" style="color: rgb(102, 102, 102); cursor: default; font-size: 11px; fill: rgb(102, 102, 102);" y="246" opacity="1">1 070M</text><text x="71" text-anchor="end" transform="translate(0,0)" style="color: rgb(102, 102, 102); cursor: default; font-size: 11px; fill: rgb(102, 102, 102);" y="201" opacity="1">1 080M</text><text x="71" text-anchor="end" transform="translate(0,0)" style="color: rgb(102, 102, 102); cursor: default; font-size: 11px; fill: rgb(102, 102, 102);" y="155" opacity="1">1 090M</text><text x="71" text-anchor="end" transform="translate(0,0)" style="color: rgb(102, 102, 102); cursor: default; font-size: 11px; fill: rgb(102, 102, 102);" y="110" opacity="1">1 100M</text><text x="71" text-anchor="end" transform="translate(0,0)" style="color: rgb(102, 102, 102); cursor: default; font-size: 11px; fill: rgb(102, 102, 102);" y="64" opacity="1">1 110M</text></g></svg>