<svg id="SvgjsSvg1350" width="288" height="288" xmlns="http://www.w3.org/2000/svg" version="1.1" xmlns:xlink="http://www.w3.org/1999/xlink" xmlns:svgjs="http://svgjs.com/svgjs"><defs id="SvgjsDefs1351"></defs><g id="SvgjsG1352"><svg xmlns="http://www.w3.org/2000/svg" width="288" height="288" class="highcharts-root" font-family="&quot;Lucida Grande&quot;,&quot;Lucida Sans Unicode&quot;,Arial,Helvetica,sans-serif" font-size="12" viewBox="0 0 600 550"><defs><linearGradient id="b" x1="0" x2="0" y1="0" y2="1"><stop offset="0" stop-color="#0173cd" stop-opacity=".8" class="stopColor2D8F44 svgShape"></stop><stop offset="1" stop-color="#0173cd" stop-opacity="0" class="stopColor2D8F44 svgShape"></stop></linearGradient><clipPath id="a"><rect width="521" height="456" fill="none"></rect></clipPath></defs><rect width="600" height="550" fill="#ffffff" class="highcharts-background colorfff svgShape" rx="0" ry="0"></rect><rect width="521" height="456" x="69" y="59" fill="none" class="highcharts-plot-background"></rect><g class="highcharts-grid highcharts-xaxis-grid color000 svgShape" data-z-index="1" fill="#000000"><path fill="none" d="M128.5 59L128.5 515M203.5 59L203.5 515M279.5 59L279.5 515M354.5 59L354.5 515M429.5 59L429.5 515M504.5 59L504.5 515M580.5 59L580.5 515" class="highcharts-grid-line" data-z-index="1"></path></g><g class="highcharts-grid highcharts-yaxis-grid color000 svgShape" data-z-index="1" fill="#000000"><path fill="none" stroke="#e6e6e6" d="M69 515.5L590 515.5M69 450.5L590 450.5M69 385.5L590 385.5M69 320.5L590 320.5M69 254.5L590 254.5M69 189.5L590 189.5M69 124.5L590 124.5M69 58.5L590 58.5" class="highcharts-grid-line colorStrokee6e6e6 svgStroke" data-z-index="1"></path></g><rect width="521" height="456" x="69" y="59" fill="none" class="highcharts-plot-border" data-z-index="1"></rect><g class="highcharts-axis highcharts-xaxis color000 svgShape" data-z-index="2" fill="#000000"><path fill="none" stroke="#ccd6eb" d="M128.5 515L128.5 525M203.5 515L203.5 525M279.5 515L279.5 525M354.5 515L354.5 525M429.5 515L429.5 525M504.5 515L504.5 525M580.5 515L580.5 525" class="highcharts-tick colorStrokeccd6eb svgStroke"></path><path fill="none" stroke="#ccd6eb" d="M 69 515.5 L 590 515.5" class="highcharts-axis-line colorStrokeccd6eb svgStroke" data-z-index="7"></path></g><g class="highcharts-axis highcharts-yaxis color000 svgShape" data-z-index="2" fill="#000000"><text x="24.422" y="287" fill="#666" class="highcharts-axis-title" color="#666" data-z-index="7" text-anchor="middle" transform="rotate(-90 24.422 287)" svgjs:data="{&quot;leading&quot;:&quot;1.3&quot;}">Network Space</text><path fill="none" d="M 69 59 L 69 515" class="highcharts-axis-line" data-z-index="7"></path></g><g class="highcharts-series-group color000 svgShape" data-z-index="3" fill="#000000"><g class="highcharts-series highcharts-series-0 highcharts-area-series color000 svgShape" clip-path="url(#a)" data-z-index=".1" transform="translate(69 59)" fill="#000000"><path fill="url(#b)" d="M 5.1078431372549 454.2954349434014 L 10.484520123839 454.18768298550975 L 15.861197110423 454.180486071287 L 21.237874097007 454.10474129758495 L 26.614551083591 453.965904762539 L 31.991228070175 453.96959365512583 L 37.36790505676 453.84975528923036 L 42.744582043344 453.7641560767756 L 48.121259029928 453.7767855998546 L 53.497936016512 453.62886758305007 L 58.874613003096 453.5802933975934 L 64.25128998968 453.4383597699765 L 69.627966976264 453.3752787512205 L 75.004643962848 453.3104914510007 L 80.381320949432 453.2945641191518 L 85.757997936017 453.1331103708547 L 91.134674922601 453.01469289797086 L 96.511351909185 453.03793051911725 L 101.88802889577 453.02998345244356 L 107.26470588235 452.5278104481272 L 112.64138286894 452.6047645755504 L 118.01805985552 452.34091734673416 L 123.39473684211 452.2055584726878 L 128.77141382869 452.07784743109954 L 134.14809081527 451.85941652811283 L 139.52476780186 451.6515345313418 L 144.90144478844 451.6213531772717 L 150.27812177503 451.36704553097525 L 155.65479876161 451.1074365894266 L 161.03147574819 450.8665638243915 L 166.40815273478 450.5615914302298 L 171.78482972136 450.26963783235516 L 177.16150670795 449.8112011662095 L 182.53818369453 448.8948012902201 L 187.91486068111 448.5124812723331 L 193.2915376677 447.45898130903714 L 198.66821465428 446.5590653170072 L 204.04489164087 445.2879082928711 L 209.42156862745 443.43300655926606 L 214.79824561404 442.95141476101315 L 220.17492260062 440.8741705163857 L 225.5515995872 438.85665463361954 L 230.92827657379 436.5457645101291 L 236.30495356037 433.85625146214096 L 241.68163054696 430.93973558360153 L 247.05830753354 430.2116605085851 L 252.43498452012 424.9763208841491 L 257.81166150671 420.7542170768411 L 263.18833849329 416.80153395047915 L 268.56501547988 415.0551464221405 L 273.94169246646 410.02220073253795 L 279.31836945304 414.5805559874463 L 284.69504643963 409.45619939427803 L 290.07172342621 401.9614911413292 L 295.4484004128 395.5859985957012 L 300.82507739938 390.2210020992271 L 306.20175438596 384.3670090571366 L 311.57843137255 377.90827768718987 L 316.95510835913 370.0163642692336 L 322.33178534572 363.12868821105644 L 327.7084623323 358.11686039116955 L 333.08513931889 351.25075094411415 L 338.46181630547 346.47107372429144 L 343.83849329205 335.3059073574006 L 349.21517027864 323.84833702489766 L 354.59184726522 308.9079572773517 L 359.96852425181 303.55659012526235 L 365.34520123839 291.98672803095974 L 370.72187822497 275.23310113978107 L 376.09855521156 275.12370260052717 L 381.47523219814 260.0894259141006 L 386.85190918473 251.35877272717653 L 392.22858617131 243.7137385156859 L 397.60526315789 226.36887964363086 L 402.98194014448 227.06720534699681 L 408.35861713106 211.5617329378636 L 413.73529411765 206.69603461538702 L 419.11197110423 192.52542784576417 L 424.48864809082 185.89334025598708 L 429.8653250774 172.20768540754705 L 435.24200206398 170.15510631903283 L 440.61867905057 154.69424961339342 L 445.99535603715 158.6697499957295 L 451.37203302374 138.17869040219614 L 456.74871001032 137.55406758874818 L 462.1253869969 121.07890887316972 L 467.50206398349 116.15768657242933 L 472.87874097007 108.54094996552135 L 478.25541795666 93.64583340203836 L 483.63209494324 97.19818055264705 L 489.00877192982 95.46930425371738 L 494.38544891641 86.96572544971792 L 499.76212590299 78.48059015904158 L 505.13880288958 47.75224110466661 L 510.51547987616 64.62069496267554 L 515.89215686275 58.148733742577065 L 515.89215686275 456 L 510.51547987616 456 L 505.13880288958 456 L 499.76212590299 456 L 494.38544891641 456 L 489.00877192982 456 L 483.63209494324 456 L 478.25541795666 456 L 472.87874097007 456 L 467.50206398349 456 L 462.1253869969 456 L 456.74871001032 456 L 451.37203302374 456 L 445.99535603715 456 L 440.61867905057 456 L 435.24200206398 456 L 429.8653250774 456 L 424.48864809082 456 L 419.11197110423 456 L 413.73529411765 456 L 408.35861713106 456 L 402.98194014448 456 L 397.60526315789 456 L 392.22858617131 456 L 386.85190918473 456 L 381.47523219814 456 L 376.09855521156 456 L 370.72187822497 456 L 365.34520123839 456 L 359.96852425181 456 L 354.59184726522 456 L 349.21517027864 456 L 343.83849329205 456 L 338.46181630547 456 L 333.08513931889 456 L 327.7084623323 456 L 322.33178534572 456 L 316.95510835913 456 L 311.57843137255 456 L 306.20175438596 456 L 300.82507739938 456 L 295.4484004128 456 L 290.07172342621 456 L 284.69504643963 456 L 279.31836945304 456 L 273.94169246646 456 L 268.56501547988 456 L 263.18833849329 456 L 257.81166150671 456 L 252.43498452012 456 L 247.05830753354 456 L 241.68163054696 456 L 236.30495356037 456 L 230.92827657379 456 L 225.5515995872 456 L 220.17492260062 456 L 214.79824561404 456 L 209.42156862745 456 L 204.04489164087 456 L 198.66821465428 456 L 193.2915376677 456 L 187.91486068111 456 L 182.53818369453 456 L 177.16150670795 456 L 171.78482972136 456 L 166.40815273478 456 L 161.03147574819 456 L 155.65479876161 456 L 150.27812177503 456 L 144.90144478844 456 L 139.52476780186 456 L 134.14809081527 456 L 128.77141382869 456 L 123.39473684211 456 L 118.01805985552 456 L 112.64138286894 456 L 107.26470588235 456 L 101.88802889577 456 L 96.511351909185 456 L 91.134674922601 456 L 85.757997936017 456 L 80.381320949432 456 L 75.004643962848 456 L 69.627966976264 456 L 64.25128998968 456 L 58.874613003096 456 L 53.497936016512 456 L 48.121259029928 456 L 42.744582043344 456 L 37.36790505676 456 L 31.991228070175 456 L 26.614551083591 456 L 21.237874097007 456 L 15.861197110423 456 L 10.484520123839 456 L 5.1078431372549 456 Z" class="highcharts-area" data-z-index="0"></path><path fill="none" stroke="#0173cd" stroke-linecap="round" stroke-linejoin="round" stroke-opacity=" 1" d="M 5.1078431372549 454.2954349434014 L 10.484520123839 454.18768298550975 L 15.861197110423 454.180486071287 L 21.237874097007 454.10474129758495 L 26.614551083591 453.965904762539 L 31.991228070175 453.96959365512583 L 37.36790505676 453.84975528923036 L 42.744582043344 453.7641560767756 L 48.121259029928 453.7767855998546 L 53.497936016512 453.62886758305007 L 58.874613003096 453.5802933975934 L 64.25128998968 453.4383597699765 L 69.627966976264 453.3752787512205 L 75.004643962848 453.3104914510007 L 80.381320949432 453.2945641191518 L 85.757997936017 453.1331103708547 L 91.134674922601 453.01469289797086 L 96.511351909185 453.03793051911725 L 101.88802889577 453.02998345244356 L 107.26470588235 452.5278104481272 L 112.64138286894 452.6047645755504 L 118.01805985552 452.34091734673416 L 123.39473684211 452.2055584726878 L 128.77141382869 452.07784743109954 L 134.14809081527 451.85941652811283 L 139.52476780186 451.6515345313418 L 144.90144478844 451.6213531772717 L 150.27812177503 451.36704553097525 L 155.65479876161 451.1074365894266 L 161.03147574819 450.8665638243915 L 166.40815273478 450.5615914302298 L 171.78482972136 450.26963783235516 L 177.16150670795 449.8112011662095 L 182.53818369453 448.8948012902201 L 187.91486068111 448.5124812723331 L 193.2915376677 447.45898130903714 L 198.66821465428 446.5590653170072 L 204.04489164087 445.2879082928711 L 209.42156862745 443.43300655926606 L 214.79824561404 442.95141476101315 L 220.17492260062 440.8741705163857 L 225.5515995872 438.85665463361954 L 230.92827657379 436.5457645101291 L 236.30495356037 433.85625146214096 L 241.68163054696 430.93973558360153 L 247.05830753354 430.2116605085851 L 252.43498452012 424.9763208841491 L 257.81166150671 420.7542170768411 L 263.18833849329 416.80153395047915 L 268.56501547988 415.0551464221405 L 273.94169246646 410.02220073253795 L 279.31836945304 414.5805559874463 L 284.69504643963 409.45619939427803 L 290.07172342621 401.9614911413292 L 295.4484004128 395.5859985957012 L 300.82507739938 390.2210020992271 L 306.20175438596 384.3670090571366 L 311.57843137255 377.90827768718987 L 316.95510835913 370.0163642692336 L 322.33178534572 363.12868821105644 L 327.7084623323 358.11686039116955 L 333.08513931889 351.25075094411415 L 338.46181630547 346.47107372429144 L 343.83849329205 335.3059073574006 L 349.21517027864 323.84833702489766 L 354.59184726522 308.9079572773517 L 359.96852425181 303.55659012526235 L 365.34520123839 291.98672803095974 L 370.72187822497 275.23310113978107 L 376.09855521156 275.12370260052717 L 381.47523219814 260.0894259141006 L 386.85190918473 251.35877272717653 L 392.22858617131 243.7137385156859 L 397.60526315789 226.36887964363086 L 402.98194014448 227.06720534699681 L 408.35861713106 211.5617329378636 L 413.73529411765 206.69603461538702 L 419.11197110423 192.52542784576417 L 424.48864809082 185.89334025598708 L 429.8653250774 172.20768540754705 L 435.24200206398 170.15510631903283 L 440.61867905057 154.69424961339342 L 445.99535603715 158.6697499957295 L 451.37203302374 138.17869040219614 L 456.74871001032 137.55406758874818 L 462.1253869969 121.07890887316972 L 467.50206398349 116.15768657242933 L 472.87874097007 108.54094996552135 L 478.25541795666 93.64583340203836 L 483.63209494324 97.19818055264705 L 489.00877192982 95.46930425371738 L 494.38544891641 86.96572544971792 L 499.76212590299 78.48059015904158 L 505.13880288958 47.75224110466661 L 510.51547987616 64.62069496267554 L 515.89215686275 58.148733742577065" class="highcharts-graph colorStroke2D8F44 svgStroke" data-z-index="1"></path></g></g><text x="300" y="24" fill="#333" class="highcharts-title" color="#333" data-z-index="4" font-size="18" text-anchor="middle" svgjs:data="{&quot;leading&quot;:&quot;1.3&quot;}">Near Network Space Chart</text><text x="300" y="44" fill="#666" class="highcharts-subtitle" color="#666" data-z-index="4" text-anchor="middle" svgjs:data="{&quot;leading&quot;:&quot;1.3&quot;}">Source: NearBlocks.io</text><g class="highcharts-axis-labels highcharts-xaxis-labels color000 svgShape" data-z-index="7" fill="#000000"><text x="129.107" y="534" fill="#666" color="#666" cursor="default" font-size="11" text-anchor="middle" svgjs:data="{&quot;leading&quot;:&quot;1.3&quot;}">29. Mar</text><text x="204.38" y="534" fill="#666" color="#666" cursor="default" font-size="11" text-anchor="middle" svgjs:data="{&quot;leading&quot;:&quot;1.3&quot;}">12. Apr</text><text x="279.654" y="534" fill="#666" color="#666" cursor="default" font-size="11" text-anchor="middle" svgjs:data="{&quot;leading&quot;:&quot;1.3&quot;}">26. Apr</text><text x="354.927" y="534" fill="#666" color="#666" cursor="default" font-size="11" text-anchor="middle" svgjs:data="{&quot;leading&quot;:&quot;1.3&quot;}">10. May</text><text x="430.201" y="534" fill="#666" color="#666" cursor="default" font-size="11" text-anchor="middle" svgjs:data="{&quot;leading&quot;:&quot;1.3&quot;}">24. May</text><text x="505.474" y="534" fill="#666" color="#666" cursor="default" font-size="11" text-anchor="middle" svgjs:data="{&quot;leading&quot;:&quot;1.3&quot;}">7. Jun</text><text x="571.953" y="534" fill="#666" color="#666" cursor="default" font-size="11" text-anchor="middle" svgjs:data="{&quot;leading&quot;:&quot;1.3&quot;}">21. Jun</text></g><g class="highcharts-axis-labels highcharts-yaxis-labels color000 svgShape" data-z-index="7" fill="#000000"><text x="54" y="520" fill="#666" color="#666" cursor="default" font-size="11" text-anchor="end" svgjs:data="{&quot;leading&quot;:&quot;1.3&quot;}">0</text><text x="54" y="455" fill="#666" color="#666" cursor="default" font-size="11" text-anchor="end" svgjs:data="{&quot;leading&quot;:&quot;1.3&quot;}">5E</text><text x="54" y="390" fill="#666" color="#666" cursor="default" font-size="11" text-anchor="end" svgjs:data="{&quot;leading&quot;:&quot;1.3&quot;}">10E</text><text x="54" y="325" fill="#666" color="#666" cursor="default" font-size="11" text-anchor="end" svgjs:data="{&quot;leading&quot;:&quot;1.3&quot;}">15E</text><text x="54" y="259" fill="#666" color="#666" cursor="default" font-size="11" text-anchor="end" svgjs:data="{&quot;leading&quot;:&quot;1.3&quot;}">20E</text><text x="54" y="194" fill="#666" color="#666" cursor="default" font-size="11" text-anchor="end" svgjs:data="{&quot;leading&quot;:&quot;1.3&quot;}">25E</text><text x="54" y="129" fill="#666" color="#666" cursor="default" font-size="11" text-anchor="end" svgjs:data="{&quot;leading&quot;:&quot;1.3&quot;}">30E</text><text x="54" y="64" fill="#666" color="#666" cursor="default" font-size="11" text-anchor="end" svgjs:data="{&quot;leading&quot;:&quot;1.3&quot;}">35E</text></g></svg></g></svg>