<?xml version="1.0" standalone="no"?><!DOCTYPE svg PUBLIC "-//W3C//DTD SVG 1.1//EN" "http://www.w3.org/Graphics/SVG/1.1/DTD/svg11.dtd"><svg xmlns:xlink="http://www.w3.org/1999/xlink" version="1.1" class="highcharts-root" style="font-family: &quot;Lucida Grande&quot;, &quot;Lucida Sans Unicode&quot;, Arial, Helvetica, sans-serif; font-size: 12px;" xmlns="http://www.w3.org/2000/svg" width="600" height="550" viewBox="0 0 600 550"><desc>Created with Highcharts 10.1.0</desc><defs><clipPath id="highcharts-ul8vzjh-1159-"><rect x="0" y="0" width="523" height="456" fill="none"></rect></clipPath><clipPath id="highcharts-ul8vzjh-1732-"><rect x="0" y="0" width="523" height="456" fill="none"></rect></clipPath><linearGradient x1="0" y1="0" x2="0" y2="1" id="highcharts-ul8vzjh-1733"><stop offset="0" stop-color="rgb(3,63,64)" stop-opacity="0.8"></stop><stop offset="1" stop-color="rgb(3,63,64)" stop-opacity="0"></stop></linearGradient></defs><rect fill="#ffffff" class="highcharts-background" x="0" y="0" width="600" height="550" rx="0" ry="0"></rect><rect fill="none" class="highcharts-plot-background" x="67" y="59" width="523" height="456"></rect><g class="highcharts-grid highcharts-xaxis-grid" data-z-index="1"><path fill="none" stroke-dasharray="none" data-z-index="1" class="highcharts-grid-line" d="M 98.5 59 L 98.5 515" opacity="1"></path><path fill="none" stroke-dasharray="none" data-z-index="1" class="highcharts-grid-line" d="M 209.5 59 L 209.5 515" opacity="1"></path><path fill="none" stroke-dasharray="none" data-z-index="1" class="highcharts-grid-line" d="M 318.5 59 L 318.5 515" opacity="1"></path><path fill="none" stroke-dasharray="none" data-z-index="1" class="highcharts-grid-line" d="M 426.5 59 L 426.5 515" opacity="1"></path><path fill="none" stroke-dasharray="none" data-z-index="1" class="highcharts-grid-line" d="M 536.5 59 L 536.5 515" opacity="1"></path></g><g class="highcharts-grid highcharts-yaxis-grid" data-z-index="1"><path fill="none" stroke="#e6e6e6" stroke-width="1" stroke-dasharray="none" data-z-index="1" class="highcharts-grid-line" d="M 67 515.5 L 590 515.5" opacity="1"></path><path fill="none" stroke="#e6e6e6" stroke-width="1" stroke-dasharray="none" data-z-index="1" class="highcharts-grid-line" d="M 67 458.5 L 590 458.5" opacity="1"></path><path fill="none" stroke="#e6e6e6" stroke-width="1" stroke-dasharray="none" data-z-index="1" class="highcharts-grid-line" d="M 67 401.5 L 590 401.5" opacity="1"></path><path fill="none" stroke="#e6e6e6" stroke-width="1" stroke-dasharray="none" data-z-index="1" class="highcharts-grid-line" d="M 67 344.5 L 590 344.5" opacity="1"></path><path fill="none" stroke="#e6e6e6" stroke-width="1" stroke-dasharray="none" data-z-index="1" class="highcharts-grid-line" d="M 67 287.5 L 590 287.5" opacity="1"></path><path fill="none" stroke="#e6e6e6" stroke-width="1" stroke-dasharray="none" data-z-index="1" class="highcharts-grid-line" d="M 67 230.5 L 590 230.5" opacity="1"></path><path fill="none" stroke="#e6e6e6" stroke-width="1" stroke-dasharray="none" data-z-index="1" class="highcharts-grid-line" d="M 67 173.5 L 590 173.5" opacity="1"></path><path fill="none" stroke="#e6e6e6" stroke-width="1" stroke-dasharray="none" data-z-index="1" class="highcharts-grid-line" d="M 67 116.5 L 590 116.5" opacity="1"></path><path fill="none" stroke="#e6e6e6" stroke-width="1" stroke-dasharray="none" data-z-index="1" class="highcharts-grid-line" d="M 67 58.5 L 590 58.5" opacity="1"></path></g><rect fill="none" class="highcharts-plot-border" data-z-index="1" x="67" y="59" width="523" height="456"></rect><g class="highcharts-axis highcharts-xaxis" data-z-index="2"><path fill="none" class="highcharts-tick" stroke="#ccd6eb" stroke-width="1" d="M 98.5 515 L 98.5 525" opacity="1"></path><path fill="none" class="highcharts-tick" stroke="#ccd6eb" stroke-width="1" d="M 209.5 515 L 209.5 525" opacity="1"></path><path fill="none" class="highcharts-tick" stroke="#ccd6eb" stroke-width="1" d="M 318.5 515 L 318.5 525" opacity="1"></path><path fill="none" class="highcharts-tick" stroke="#ccd6eb" stroke-width="1" d="M 426.5 515 L 426.5 525" opacity="1"></path><path fill="none" class="highcharts-tick" stroke="#ccd6eb" stroke-width="1" d="M 536.5 515 L 536.5 525" opacity="1"></path><path fill="none" class="highcharts-axis-line" stroke="#ccd6eb" stroke-width="1" data-z-index="7" d="M 67 515.5 L 590 515.5"></path></g><g class="highcharts-axis highcharts-yaxis" data-z-index="2"><text x="23.7646484375" data-z-index="7" text-anchor="middle" transform="translate(0,0) rotate(270 23.7646484375 287)" class="highcharts-axis-title" style="color: rgb(102, 102, 102); fill: rgb(102, 102, 102);" y="287">Transaction Fee (USD)</text><path fill="none" class="highcharts-axis-line" data-z-index="7" d="M 67 59 L 67 515"></path></g><g class="highcharts-series-group" data-z-index="3"><g class="highcharts-series highcharts-series-0 highcharts-area-series" data-z-index="0.1" opacity="1" transform="translate(67,59) scale(1 1)" clip-path="url(#highcharts-ul8vzjh-1732-)"><path fill="url(#highcharts-ul8vzjh-1733)" d="M 5.1274509803922 456 L 6.0254283850143 456 L 6.9234057896363 456 L 7.8213831942584 456 L 8.7193605988805 456 L 9.6173380035026 456 L 10.515315408125 456 L 11.413292812747 456 L 12.311270217369 456 L 13.209247621991 456 L 14.107225026613 456 L 15.005202431235 456 L 15.903179835857 456 L 16.801157240479 456 L 17.699134645101 456 L 18.597112049724 456 L 19.495089454346 456 L 20.393066858968 456 L 21.29104426359 456 L 22.189021668212 456 L 23.086999072834 456 L 23.984976477456 456 L 24.882953882078 456 L 25.7809312867 456 L 26.678908691322 456 L 27.576886095945 456 L 28.474863500567 456 L 29.372840905189 456 L 30.270818309811 456 L 31.168795714433 456 L 32.066773119055 456 L 32.964750523677 456 L 33.862727928299 456 L 34.760705332921 456 L 35.658682737543 456 L 36.556660142165 456 L 37.454637546788 456 L 38.35261495141 456 L 39.250592356032 456 L 40.148569760654 456 L 41.046547165276 456 L 41.944524569898 456 L 42.84250197452 456 L 43.740479379142 456 L 44.638456783764 456 L 45.536434188386 456 L 46.434411593008 456 L 47.332388997631 456 L 48.230366402253 456 L 49.128343806875 456 L 50.026321211497 456 L 50.924298616119 456 L 51.822276020741 456 L 52.720253425363 456 L 53.618230829985 456 L 54.516208234607 456 L 55.414185639229 456 L 56.312163043852 456 L 57.210140448474 456 L 58.108117853096 456 L 59.006095257718 456 L 59.90407266234 456 L 60.802050066962 456 L 61.700027471584 456 L 62.598004876206 456 L 63.495982280828 456 L 64.39395968545 456 L 65.291937090072 456 L 66.189914494695 456 L 67.087891899317 456 L 67.985869303939 456 L 68.883846708561 456 L 69.781824113183 456 L 70.679801517805 456 L 71.577778922427 456 L 72.475756327049 456 L 73.373733731671 456 L 74.271711136293 456 L 75.169688540915 456 L 76.067665945538 456 L 76.96564335016 456 L 77.863620754782 456 L 78.761598159404 456 L 79.659575564026 456 L 80.557552968648 456 L 81.45553037327 456 L 82.353507777892 456 L 83.251485182514 456 L 84.149462587136 456 L 85.047439991759 456 L 85.945417396381 456 L 86.843394801003 456 L 87.741372205625 456 L 88.639349610247 456 L 89.537327014869 456 L 90.435304419491 456 L 91.333281824113 456 L 92.231259228735 456 L 93.129236633357 456 L 94.027214037979 456 L 94.925191442602 456 L 95.823168847224 456 L 96.721146251846 456 L 97.619123656468 456 L 98.51710106109 456 L 99.415078465712 456 L 100.31305587033 456 L 101.21103327496 456 L 102.10901067958 456 L 103.0069880842 456 L 103.90496548882 456 L 104.80294289344 456 L 105.70092029807 456 L 106.59889770269 456 L 107.49687510731 456 L 108.39485251193 456 L 109.29282991656 456 L 110.19080732118 456 L 111.0887847258 456 L 111.98676213042 456 L 112.88473953504 456 L 113.78271693967 456 L 114.68069434429 456 L 115.57867174891 456 L 116.47664915353 456 L 117.37462655815 456 L 118.27260396278 456 L 119.1705813674 456 L 120.06855877202 456 L 120.96653617664 456 L 121.86451358126 456 L 122.76249098589 456 L 123.66046839051 456 L 124.55844579513 456 L 125.45642319975 456 L 126.35440060437 456 L 127.252378009 456 L 128.15035541362 456 L 129.04833281824 456 L 129.94631022286 456 L 130.84428762749 456 L 131.74226503211 456 L 132.64024243673 456 L 133.53821984135 456 L 134.43619724597 456 L 135.3341746506 456 L 136.23215205522 456 L 137.13012945984 456 L 138.02810686446 456 L 138.92608426908 456 L 139.82406167371 456 L 140.72203907833 456 L 141.62001648295 456 L 142.51799388757 456 L 143.41597129219 456 L 144.31394869682 456 L 145.21192610144 456 L 146.10990350606 456 L 147.00788091068 456 L 147.90585831531 456 L 148.80383571993 456 L 149.70181312455 456 L 150.59979052917 456 L 151.49776793379 456 L 152.39574533842 456 L 153.29372274304 456 L 154.19170014766 456 L 155.08967755228 456 L 155.9876549569 456 L 156.88563236153 456 L 157.78360976615 456 L 158.68158717077 456 L 159.57956457539 456 L 160.47754198001 456 L 161.37551938464 456 L 162.27349678926 456 L 163.17147419388 456 L 164.0694515985 456 L 164.96742900312 456 L 165.86540640775 456 L 166.76338381237 456 L 167.66136121699 456 L 168.55933862161 456 L 169.45731602624 456 L 170.35529343086 456 L 171.25327083548 456 L 172.1512482401 456 L 173.04922564472 456 L 173.94720304935 456 L 174.84518045397 456 L 175.74315785859 456 L 176.64113526321 456 L 177.53911266783 456 L 178.43709007246 456 L 179.33506747708 456 L 180.2330448817 456 L 181.13102228632 456 L 182.02899969094 456 L 182.92697709557 456 L 183.82495450019 456 L 184.72293190481 456 L 185.62090930943 456 L 186.51888671406 456 L 187.41686411868 456 L 188.3148415233 456 L 189.21281892792 456 L 190.11079633254 456 L 191.00877373717 456 L 191.90675114179 456 L 192.80472854641 456 L 193.70270595103 456 L 194.60068335565 456 L 195.49866076028 456 L 196.3966381649 456 L 197.29461556952 456 L 198.19259297414 456 L 199.09057037876 456 L 199.98854778339 456 L 200.88652518801 456 L 201.78450259263 456 L 202.68247999725 456 L 203.58045740187 456 L 204.4784348065 456 L 205.37641221112 456 L 206.27438961574 456 L 207.17236702036 456 L 208.07034442499 456 L 208.96832182961 456 L 209.86629923423 456 L 210.76427663885 427.193450967168 L 211.66225404347 433.306798888821 L 212.5602314481 428.987323615174 L 213.45820885272 431.834508758512 L 214.35618625734 430.923913968052 L 215.25416366196 433.954502968714 L 216.15214106658 433.494552525918 L 217.05011847121 433.637231639938 L 217.94809587583 431.381660169719 L 218.84607328045 435.163589120731 L 219.74405068507 435.536357778637 L 220.64202808969 438.894090832458 L 221.54000549432 438.823109986601 L 222.43798289894 434.618381930068 L 223.33596030356 436.373419259713 L 224.23393770818 435.928040789038 L 225.13191511281 436.675991733319 L 226.02989251743 434.492300361535 L 226.92786992205 431.076515977028 L 227.82584732667 436.175012728494 L 228.72382473129 435.927501486752 L 229.62180213592 436.336012599807 L 230.51977954054 431.234945857503 L 231.41775694516 423.364010431307 L 232.31573434978 423.617488512551 L 233.2137117544 419.328563489818 L 234.11168915903 415.18173914952 L 235.00966656365 418.835635968112 L 235.90764396827 420.700265243486 L 236.80562137289 416.667964535037 L 237.70359877751 415.39942344225 L 238.60157618214 420.653314924344 L 239.49955358676 430.750750214738 L 240.39753099138 429.135993034198 L 241.295508396 427.708506808752 L 242.19348580062 426.39589557281 L 243.09146320525 413.410380976422 L 243.98944060987 391.04283371984 L 244.88741801449 348.54803690091 L 245.78539541911 364.423240941551 L 246.68337282374 347.25854345549 L 247.58135022836 341.02018963316 L 248.47932763298 352.02370224575 L 249.3773050376 352.31683730814 L 250.27528244222 336.36999281731 L 251.17325984685 328.03359929933004 L 252.07123725147 344.17474776429003 L 252.96921465609 336.58126958689 L 253.86719206071 298.6658534533 L 254.76516946533 252.78063330305 L 255.66314686996 221.86244117293 L 256.56112427458 248.80294522407 L 257.4591016792 275.36845897843 L 258.35707908382 289.21164508984 L 259.25505648844 321.76345345401 L 260.15303389307 300.52068133706996 L 261.05101129769 260.41137983006 L 261.94898870231 253.16120559617 L 262.84696610693 252.91805069983 L 263.74494351156 190.76122768707 L 264.64292091618 146.70401893386997 L 265.5408983208 28.698909219159987 L 266.43887572542 107.40440228436 L 267.33685313004 160.66180166945003 L 268.23483053467 242.10918066363 L 269.13280793929 270.85362184870996 L 270.03078534391 306.73012547789 L 270.92876274853 347.26674772389003 L 271.82674015315 377.936953049796 L 272.72471755778 332.59799507834 L 273.6226949624 348.16955982325 L 274.52067236702 357.629727609477 L 275.41864977164 352.51988546918 L 276.31662717626 387.734529447279 L 277.21460458089 382.264375697428 L 278.11258198551 385.535502289327 L 279.01055939013 384.811252540094 L 279.90853679475 383.583850025419 L 280.80651419937 312.69175728512 L 281.704491604 279.67091327513003 L 282.60246900862 257.54681312687 L 283.50044641324 182.028603557 L 284.39842381786 201.44803109053 L 285.29640122249 386.151766428388 L 286.19437862711 369.056412160881 L 287.09235603173 354.75255449149 L 287.99033343635 352.04985148474 L 288.88831084097 376.97902536085 L 289.7862882456 395.293237240454 L 290.68426565022 405.463514382522 L 291.58224305484 403.246404044199 L 292.48022045946 404.617025389281 L 293.37819786408 392.472868407121 L 294.27617526871 383.95107991132 L 295.17415267333 377.8390074948 L 296.07213007795 383.107671605789 L 296.97010748257 392.200331653179 L 297.86808488719 410.473473824846 L 298.76606229182 417.829193320593 L 299.66403969644 419.952864916168 L 300.56201710106 426.893753699936 L 301.45999450568 432.879607954483 L 302.35797191031 432.422265331839 L 303.25594931493 426.85987211115 L 304.15392671955 432.845216387264 L 305.05190412417 422.882182733734 L 305.94988152879 421.930056714796 L 306.84785893342 424.420554683708 L 307.74583633804 423.97167047077403 L 308.64381374266 431.205931052522 L 309.54179114728 428.580531164682 L 310.4397685519 426.769456222178 L 311.33774595653 430.851530446498 L 312.23572336115 426.878997199436 L 313.13370076577 413.088225112526 L 314.03167817039 419.723901265893 L 314.92965557501 416.813300171712 L 315.82763297964 387.89212294268 L 316.72561038426 365.904094506295 L 317.62358778888 356.947705907509 L 318.5215651935 342.53561160074 L 319.41954259813 338.19023049641 L 320.31752000275 327.87950213677 L 321.21549740737 379.162403189073 L 322.11347481199 335.2539144608 L 323.01145221661 367.718851024147 L 323.90942962124 428.156458225699 L 324.80740702586 422.173485976993 L 325.70538443048 414.714576609148 L 326.6033618351 422.23367479256 L 327.50133923972 422.929980468387 L 328.39931664435 411.931088475183 L 329.29729404897 305.96492446198 L 330.19527145359 267.23832390754 L 331.09324885821 266.05229560737996 L 331.99122626283 400.748128909711 L 332.88920366746 385.442101989159 L 333.78718107208 339.40929183218 L 334.6851584767 371.709863844812 L 335.58313588132 344.35345022494 L 336.48111328594 368.288359163945 L 337.37909069057 332.73261736923 L 338.27706809519 347.80190082354 L 339.17504549981 228.73457117718 L 340.07302290443 320.27104371773 L 340.97100030906 340.84488554065 L 341.86897771368 313.44786344008 L 342.7669551183 331.28329865579 L 343.66493252292 345.86325608916 L 344.56290992754 349.12580459941 L 345.46088733217 372.69499710017203 L 346.35886473679 391.661301870861 L 347.25684214141 385.51730242035603 L 348.15481954603 376.846830294965 L 349.05279695065 351.35950723285 L 349.95077435528 330.29226544883 L 350.8487517599 297.85166023278 L 351.74672916452 295.57430679955996 L 352.64470656914 295.20920596365 L 353.54268397376 279.19105027142 L 354.44066137839 268.82744843181 L 355.33863878301 320.26703891089 L 356.23661618763 306.94846334221 L 357.13459359225 282.54349437469 L 358.03257099688 297.43863583198004 L 358.9305484015 286.18424128345 L 359.82852580612 312.09760260861003 L 360.72650321074 255.21915650746 L 361.62448061536 325.46401105892 L 362.52245801999 390.155828623759 L 363.42043542461 380.796892845953 L 364.31841282923 393.809907948946 L 365.21639023385 404.877522969727 L 366.11436763847 392.100287305324 L 367.0123450431 350.62528297292 L 367.91032244772 351.77789495937 L 368.80829985234 342.84535348688 L 369.70627725696 393.876584309323 L 370.60425466158 400.213944551518 L 371.50223206621 412.880072125524 L 372.40020947083 408.439654619385 L 373.29818687545 406.87625584246 L 374.19616428007 413.135331602469 L 375.09414168469 398.033071457284 L 375.99211908932 410.404777973594 L 376.89009649394 412.917825120626 L 377.78807389856 423.909809558401 L 378.68605130318 420.721338342215 L 379.58402870781 413.741151717516 L 380.48200611243 413.676514261396 L 381.37998351705 418.467322921925 L 382.27796092167 420.139272025372 L 383.17593832629 421.793216630764 L 384.07391573092 428.17306747512 L 384.97189313554 412.428223101938 L 385.86987054016 403.10279056204 L 386.76784794478 398.189801775 L 387.6658253494 382.428169247706 L 388.56380275403 397.708298651615 L 389.46178015865 397.600392995901 L 390.35975756327 397.85655998305 L 391.25773496789 392.194624417971 L 392.15571237251 389.128536176556 L 393.05368977714 371.91027253228503 L 393.95166718176 370.25992327338497 L 394.84964458638 371.172701113858 L 395.747621991 404.887241963657 L 396.64559939563 438.445279408887 L 397.54357680025 443.991916099761 L 398.44155420487 443.13324783161397 L 399.33953160949 447.3917368386905 L 400.23750901411 446.2200299367556 L 401.13548641874 447.3101429161675 L 402.03346382336 449.2693695053937 L 402.93144122798 447.3173650248193 L 403.8294186326 449.0692405832162 L 404.72739603722 448.4524846450425 L 405.62537344185 448.3416703840091 L 406.52335084647 447.7217800098893 L 407.42132825109 449.3349776371583 L 408.31930565571 447.5308763968566 L 409.21728306033 447.4308637071613 L 410.11526046496 447.3960492696397 L 411.01323786958 448.1160190458381 L 411.9112152742 447.5932822089847 L 412.80919267882 448.0100741057662 L 413.70717008344 448.4787840406629 L 414.60514748807 449.7721155990037 L 415.50312489269 450.3630053712691 L 416.40110229731 450.5663741124439 L 417.29907970193 449.8154402790731 L 418.19705710656 450.032868411134 L 419.09503451118 450.4530534961594 L 419.9930119158 450.2155584860545 L 420.89098932042 449.9091959354283 L 421.78896672504 450.3565255627474 L 422.68694412967 450.5368394676547 L 423.58492153429 449.9663702663456 L 424.48289893891 450.7213684763425 L 425.38087634353 449.9012483924021 L 426.27885374815 450.1461940842625 L 427.17683115278 444.15118149365003 L 428.0748085574 430.907032886372 L 428.97278596202 432.257241198375 L 429.87076336664 429.832097821568 L 430.76874077126 434.6919192641 L 431.66671817589 422.642902147144 L 432.56469558051 428.47862786925 L 433.46267298513 448.3201960993087 L 434.36065038975 448.9885118121355 L 435.25862779438 449.690396863131 L 436.156605199 448.1793983612991 L 437.05458260362 449.0474545971707 L 437.95256000824 448.9625733897009 L 438.85053741286 448.0204136000958 L 439.74851481749 448.4816063298598 L 440.64649222211 449.6406046689452 L 441.54446962673 450.4617688455047 L 442.44244703135 448.4209928731805 L 443.34042443597 448.7806900387206 L 444.2384018406 448.7344098364505 L 445.13637924522 448.8182641961565 L 446.03435664984 446.8929755287549 L 446.93233405446 447.581292888242 L 447.83031145908 448.4005157792089 L 448.72828886371 445.796974982242 L 449.62626626833 445.846829405394 L 450.52424367295 444.608875217746 L 451.42222107757 445.534995173834 L 452.32019848219 445.727192243091 L 453.21817588682 443.575206118236 L 454.11615329144 447.5524265468699 L 455.01413069606 446.2888624246602 L 455.91210810068 447.0036314881167 L 456.81008550531 447.1182838927317 L 457.70806290993 447.3327847929346 L 458.60604031455 446.3019083766629 L 459.50401771917 393.503450400306 L 460.40199512379 446.8866754737422 L 461.29997252842 449.2123105438516 L 462.19794993304 448.6151639642919 L 463.09592733766 449.4225171652701 L 463.99390474228 447.425103927893 L 464.8918821469 448.9643903551845 L 465.78985955153 450.085817487991 L 466.68783695615 450.5877207291187 L 467.58581436077 449.9166721184677 L 468.48379176539 447.8193576274759 L 469.38176917001 449.1474185442667 L 470.27974657464 449.0607659700276 L 471.17772397926 449.47888167901 L 472.07570138388 450.3154640033164 L 472.9736787885 450.4561434532255 L 473.87165619313 449.5703711645841 L 474.76963359775 448.7192949400097 L 475.66761100237 449.6331174380588 L 476.56558840699 448.2004515008504 L 477.46356581161 446.8281103944595 L 478.36154321624 446.8308235317253 L 479.25952062086 446.3689796075297 L 480.15749802548 441.295864980149 L 481.0554754301 399.876258307554 L 481.95345283472 431.233059457585 L 482.85143023935 412.832236090103 L 483.74940764397 425.643018664849 L 484.64738504859 433.309438678972 L 485.54536245321 431.147379863274 L 486.44333985783 432.606578650633 L 487.34131726246 436.701556072613 L 488.23929466708 433.159713471655 L 489.1372720717 434.475169746236 L 490.03524947632 433.589488177015 L 490.93322688095 436.844285269171 L 491.83120428557 436.960733288545 L 492.72918169019 437.177471550664 L 493.62715909481 438.591609209964 L 494.52513649943 439.500203371383 L 495.42311390406 438.752632052972 L 496.32109130868 438.905142676379 L 497.2190687133 441.314005378227 L 498.11704611792 441.742977072289 L 499.01502352254 440.998284841406 L 499.91300092717 446.7498811923383 L 500.81097833179 439.853701467466 L 501.70895573641 439.733291656296 L 502.60693314103 439.81354196897 L 503.50491054565 443.878786630814 L 504.40288795028 442.159061085856 L 505.3008653549 439.986636128644 L 506.19884275952 441.189155921671 L 507.09682016414 442.326505938925 L 507.99479756876 441.268154656467 L 508.89277497339 442.264840364902 L 509.79075237801 443.770393476874 L 510.68872978263 444.843750999252 L 511.58670718725 443.459366886035 L 512.48468459188 442.753095795611 L 513.3826619965 443.216831544365 L 514.28063940112 444.084887297235 L 515.17861680574 443.871759245683 L 516.07659421036 444.776297482863 L 516.97457161499 444.613373004664 L 517.87254901961 442.961324125563 L 517.87254901961 456 L 516.97457161499 456 L 516.07659421036 456 L 515.17861680574 456 L 514.28063940112 456 L 513.3826619965 456 L 512.48468459188 456 L 511.58670718725 456 L 510.68872978263 456 L 509.79075237801 456 L 508.89277497339 456 L 507.99479756876 456 L 507.09682016414 456 L 506.19884275952 456 L 505.3008653549 456 L 504.40288795028 456 L 503.50491054565 456 L 502.60693314103 456 L 501.70895573641 456 L 500.81097833179 456 L 499.91300092717 456 L 499.01502352254 456 L 498.11704611792 456 L 497.2190687133 456 L 496.32109130868 456 L 495.42311390406 456 L 494.52513649943 456 L 493.62715909481 456 L 492.72918169019 456 L 491.83120428557 456 L 490.93322688095 456 L 490.03524947632 456 L 489.1372720717 456 L 488.23929466708 456 L 487.34131726246 456 L 486.44333985783 456 L 485.54536245321 456 L 484.64738504859 456 L 483.74940764397 456 L 482.85143023935 456 L 481.95345283472 456 L 481.0554754301 456 L 480.15749802548 456 L 479.25952062086 456 L 478.36154321624 456 L 477.46356581161 456 L 476.56558840699 456 L 475.66761100237 456 L 474.76963359775 456 L 473.87165619313 456 L 472.9736787885 456 L 472.07570138388 456 L 471.17772397926 456 L 470.27974657464 456 L 469.38176917001 456 L 468.48379176539 456 L 467.58581436077 456 L 466.68783695615 456 L 465.78985955153 456 L 464.8918821469 456 L 463.99390474228 456 L 463.09592733766 456 L 462.19794993304 456 L 461.29997252842 456 L 460.40199512379 456 L 459.50401771917 456 L 458.60604031455 456 L 457.70806290993 456 L 456.81008550531 456 L 455.91210810068 456 L 455.01413069606 456 L 454.11615329144 456 L 453.21817588682 456 L 452.32019848219 456 L 451.42222107757 456 L 450.52424367295 456 L 449.62626626833 456 L 448.72828886371 456 L 447.83031145908 456 L 446.93233405446 456 L 446.03435664984 456 L 445.13637924522 456 L 444.2384018406 456 L 443.34042443597 456 L 442.44244703135 456 L 441.54446962673 456 L 440.64649222211 456 L 439.74851481749 456 L 438.85053741286 456 L 437.95256000824 456 L 437.05458260362 456 L 436.156605199 456 L 435.25862779438 456 L 434.36065038975 456 L 433.46267298513 456 L 432.56469558051 456 L 431.66671817589 456 L 430.76874077126 456 L 429.87076336664 456 L 428.97278596202 456 L 428.0748085574 456 L 427.17683115278 456 L 426.27885374815 456 L 425.38087634353 456 L 424.48289893891 456 L 423.58492153429 456 L 422.68694412967 456 L 421.78896672504 456 L 420.89098932042 456 L 419.9930119158 456 L 419.09503451118 456 L 418.19705710656 456 L 417.29907970193 456 L 416.40110229731 456 L 415.50312489269 456 L 414.60514748807 456 L 413.70717008344 456 L 412.80919267882 456 L 411.9112152742 456 L 411.01323786958 456 L 410.11526046496 456 L 409.21728306033 456 L 408.31930565571 456 L 407.42132825109 456 L 406.52335084647 456 L 405.62537344185 456 L 404.72739603722 456 L 403.8294186326 456 L 402.93144122798 456 L 402.03346382336 456 L 401.13548641874 456 L 400.23750901411 456 L 399.33953160949 456 L 398.44155420487 456 L 397.54357680025 456 L 396.64559939563 456 L 395.747621991 456 L 394.84964458638 456 L 393.95166718176 456 L 393.05368977714 456 L 392.15571237251 456 L 391.25773496789 456 L 390.35975756327 456 L 389.46178015865 456 L 388.56380275403 456 L 387.6658253494 456 L 386.76784794478 456 L 385.86987054016 456 L 384.97189313554 456 L 384.07391573092 456 L 383.17593832629 456 L 382.27796092167 456 L 381.37998351705 456 L 380.48200611243 456 L 379.58402870781 456 L 378.68605130318 456 L 377.78807389856 456 L 376.89009649394 456 L 375.99211908932 456 L 375.09414168469 456 L 374.19616428007 456 L 373.29818687545 456 L 372.40020947083 456 L 371.50223206621 456 L 370.60425466158 456 L 369.70627725696 456 L 368.80829985234 456 L 367.91032244772 456 L 367.0123450431 456 L 366.11436763847 456 L 365.21639023385 456 L 364.31841282923 456 L 363.42043542461 456 L 362.52245801999 456 L 361.62448061536 456 L 360.72650321074 456 L 359.82852580612 456 L 358.9305484015 456 L 358.03257099688 456 L 357.13459359225 456 L 356.23661618763 456 L 355.33863878301 456 L 354.44066137839 456 L 353.54268397376 456 L 352.64470656914 456 L 351.74672916452 456 L 350.8487517599 456 L 349.95077435528 456 L 349.05279695065 456 L 348.15481954603 456 L 347.25684214141 456 L 346.35886473679 456 L 345.46088733217 456 L 344.56290992754 456 L 343.66493252292 456 L 342.7669551183 456 L 341.86897771368 456 L 340.97100030906 456 L 340.07302290443 456 L 339.17504549981 456 L 338.27706809519 456 L 337.37909069057 456 L 336.48111328594 456 L 335.58313588132 456 L 334.6851584767 456 L 333.78718107208 456 L 332.88920366746 456 L 331.99122626283 456 L 331.09324885821 456 L 330.19527145359 456 L 329.29729404897 456 L 328.39931664435 456 L 327.50133923972 456 L 326.6033618351 456 L 325.70538443048 456 L 324.80740702586 456 L 323.90942962124 456 L 323.01145221661 456 L 322.11347481199 456 L 321.21549740737 456 L 320.31752000275 456 L 319.41954259813 456 L 318.5215651935 456 L 317.62358778888 456 L 316.72561038426 456 L 315.82763297964 456 L 314.92965557501 456 L 314.03167817039 456 L 313.13370076577 456 L 312.23572336115 456 L 311.33774595653 456 L 310.4397685519 456 L 309.54179114728 456 L 308.64381374266 456 L 307.74583633804 456 L 306.84785893342 456 L 305.94988152879 456 L 305.05190412417 456 L 304.15392671955 456 L 303.25594931493 456 L 302.35797191031 456 L 301.45999450568 456 L 300.56201710106 456 L 299.66403969644 456 L 298.76606229182 456 L 297.86808488719 456 L 296.97010748257 456 L 296.07213007795 456 L 295.17415267333 456 L 294.27617526871 456 L 293.37819786408 456 L 292.48022045946 456 L 291.58224305484 456 L 290.68426565022 456 L 289.7862882456 456 L 288.88831084097 456 L 287.99033343635 456 L 287.09235603173 456 L 286.19437862711 456 L 285.29640122249 456 L 284.39842381786 456 L 283.50044641324 456 L 282.60246900862 456 L 281.704491604 456 L 280.80651419937 456 L 279.90853679475 456 L 279.01055939013 456 L 278.11258198551 456 L 277.21460458089 456 L 276.31662717626 456 L 275.41864977164 456 L 274.52067236702 456 L 273.6226949624 456 L 272.72471755778 456 L 271.82674015315 456 L 270.92876274853 456 L 270.03078534391 456 L 269.13280793929 456 L 268.23483053467 456 L 267.33685313004 456 L 266.43887572542 456 L 265.5408983208 456 L 264.64292091618 456 L 263.74494351156 456 L 262.84696610693 456 L 261.94898870231 456 L 261.05101129769 456 L 260.15303389307 456 L 259.25505648844 456 L 258.35707908382 456 L 257.4591016792 456 L 256.56112427458 456 L 255.66314686996 456 L 254.76516946533 456 L 253.86719206071 456 L 252.96921465609 456 L 252.07123725147 456 L 251.17325984685 456 L 250.27528244222 456 L 249.3773050376 456 L 248.47932763298 456 L 247.58135022836 456 L 246.68337282374 456 L 245.78539541911 456 L 244.88741801449 456 L 243.98944060987 456 L 243.09146320525 456 L 242.19348580062 456 L 241.295508396 456 L 240.39753099138 456 L 239.49955358676 456 L 238.60157618214 456 L 237.70359877751 456 L 236.80562137289 456 L 235.90764396827 456 L 235.00966656365 456 L 234.11168915903 456 L 233.2137117544 456 L 232.31573434978 456 L 231.41775694516 456 L 230.51977954054 456 L 229.62180213592 456 L 228.72382473129 456 L 227.82584732667 456 L 226.92786992205 456 L 226.02989251743 456 L 225.13191511281 456 L 224.23393770818 456 L 223.33596030356 456 L 222.43798289894 456 L 221.54000549432 456 L 220.64202808969 456 L 219.74405068507 456 L 218.84607328045 456 L 217.94809587583 456 L 217.05011847121 456 L 216.15214106658 456 L 215.25416366196 456 L 214.35618625734 456 L 213.45820885272 456 L 212.5602314481 456 L 211.66225404347 456 L 210.76427663885 456 L 209.86629923423 456 L 208.96832182961 456 L 208.07034442499 456 L 207.17236702036 456 L 206.27438961574 456 L 205.37641221112 456 L 204.4784348065 456 L 203.58045740187 456 L 202.68247999725 456 L 201.78450259263 456 L 200.88652518801 456 L 199.98854778339 456 L 199.09057037876 456 L 198.19259297414 456 L 197.29461556952 456 L 196.3966381649 456 L 195.49866076028 456 L 194.60068335565 456 L 193.70270595103 456 L 192.80472854641 456 L 191.90675114179 456 L 191.00877373717 456 L 190.11079633254 456 L 189.21281892792 456 L 188.3148415233 456 L 187.41686411868 456 L 186.51888671406 456 L 185.62090930943 456 L 184.72293190481 456 L 183.82495450019 456 L 182.92697709557 456 L 182.02899969094 456 L 181.13102228632 456 L 180.2330448817 456 L 179.33506747708 456 L 178.43709007246 456 L 177.53911266783 456 L 176.64113526321 456 L 175.74315785859 456 L 174.84518045397 456 L 173.94720304935 456 L 173.04922564472 456 L 172.1512482401 456 L 171.25327083548 456 L 170.35529343086 456 L 169.45731602624 456 L 168.55933862161 456 L 167.66136121699 456 L 166.76338381237 456 L 165.86540640775 456 L 164.96742900312 456 L 164.0694515985 456 L 163.17147419388 456 L 162.27349678926 456 L 161.37551938464 456 L 160.47754198001 456 L 159.57956457539 456 L 158.68158717077 456 L 157.78360976615 456 L 156.88563236153 456 L 155.9876549569 456 L 155.08967755228 456 L 154.19170014766 456 L 153.29372274304 456 L 152.39574533842 456 L 151.49776793379 456 L 150.59979052917 456 L 149.70181312455 456 L 148.80383571993 456 L 147.90585831531 456 L 147.00788091068 456 L 146.10990350606 456 L 145.21192610144 456 L 144.31394869682 456 L 143.41597129219 456 L 142.51799388757 456 L 141.62001648295 456 L 140.72203907833 456 L 139.82406167371 456 L 138.92608426908 456 L 138.02810686446 456 L 137.13012945984 456 L 136.23215205522 456 L 135.3341746506 456 L 134.43619724597 456 L 133.53821984135 456 L 132.64024243673 456 L 131.74226503211 456 L 130.84428762749 456 L 129.94631022286 456 L 129.04833281824 456 L 128.15035541362 456 L 127.252378009 456 L 126.35440060437 456 L 125.45642319975 456 L 124.55844579513 456 L 123.66046839051 456 L 122.76249098589 456 L 121.86451358126 456 L 120.96653617664 456 L 120.06855877202 456 L 119.1705813674 456 L 118.27260396278 456 L 117.37462655815 456 L 116.47664915353 456 L 115.57867174891 456 L 114.68069434429 456 L 113.78271693967 456 L 112.88473953504 456 L 111.98676213042 456 L 111.0887847258 456 L 110.19080732118 456 L 109.29282991656 456 L 108.39485251193 456 L 107.49687510731 456 L 106.59889770269 456 L 105.70092029807 456 L 104.80294289344 456 L 103.90496548882 456 L 103.0069880842 456 L 102.10901067958 456 L 101.21103327496 456 L 100.31305587033 456 L 99.415078465712 456 L 98.51710106109 456 L 97.619123656468 456 L 96.721146251846 456 L 95.823168847224 456 L 94.925191442602 456 L 94.027214037979 456 L 93.129236633357 456 L 92.231259228735 456 L 91.333281824113 456 L 90.435304419491 456 L 89.537327014869 456 L 88.639349610247 456 L 87.741372205625 456 L 86.843394801003 456 L 85.945417396381 456 L 85.047439991759 456 L 84.149462587136 456 L 83.251485182514 456 L 82.353507777892 456 L 81.45553037327 456 L 80.557552968648 456 L 79.659575564026 456 L 78.761598159404 456 L 77.863620754782 456 L 76.96564335016 456 L 76.067665945538 456 L 75.169688540915 456 L 74.271711136293 456 L 73.373733731671 456 L 72.475756327049 456 L 71.577778922427 456 L 70.679801517805 456 L 69.781824113183 456 L 68.883846708561 456 L 67.985869303939 456 L 67.087891899317 456 L 66.189914494695 456 L 65.291937090072 456 L 64.39395968545 456 L 63.495982280828 456 L 62.598004876206 456 L 61.700027471584 456 L 60.802050066962 456 L 59.90407266234 456 L 59.006095257718 456 L 58.108117853096 456 L 57.210140448474 456 L 56.312163043852 456 L 55.414185639229 456 L 54.516208234607 456 L 53.618230829985 456 L 52.720253425363 456 L 51.822276020741 456 L 50.924298616119 456 L 50.026321211497 456 L 49.128343806875 456 L 48.230366402253 456 L 47.332388997631 456 L 46.434411593008 456 L 45.536434188386 456 L 44.638456783764 456 L 43.740479379142 456 L 42.84250197452 456 L 41.944524569898 456 L 41.046547165276 456 L 40.148569760654 456 L 39.250592356032 456 L 38.35261495141 456 L 37.454637546788 456 L 36.556660142165 456 L 35.658682737543 456 L 34.760705332921 456 L 33.862727928299 456 L 32.964750523677 456 L 32.066773119055 456 L 31.168795714433 456 L 30.270818309811 456 L 29.372840905189 456 L 28.474863500567 456 L 27.576886095945 456 L 26.678908691322 456 L 25.7809312867 456 L 24.882953882078 456 L 23.984976477456 456 L 23.086999072834 456 L 22.189021668212 456 L 21.29104426359 456 L 20.393066858968 456 L 19.495089454346 456 L 18.597112049724 456 L 17.699134645101 456 L 16.801157240479 456 L 15.903179835857 456 L 15.005202431235 456 L 14.107225026613 456 L 13.209247621991 456 L 12.311270217369 456 L 11.413292812747 456 L 10.515315408125 456 L 9.6173380035026 456 L 8.7193605988805 456 L 7.8213831942584 456 L 6.9234057896363 456 L 6.0254283850143 456 L 5.1274509803922 456 Z" class="highcharts-area" data-z-index="0"></path><path fill="none" d="M 5.1274509803922 456 L 6.0254283850143 456 L 6.9234057896363 456 L 7.8213831942584 456 L 8.7193605988805 456 L 9.6173380035026 456 L 10.515315408125 456 L 11.413292812747 456 L 12.311270217369 456 L 13.209247621991 456 L 14.107225026613 456 L 15.005202431235 456 L 15.903179835857 456 L 16.801157240479 456 L 17.699134645101 456 L 18.597112049724 456 L 19.495089454346 456 L 20.393066858968 456 L 21.29104426359 456 L 22.189021668212 456 L 23.086999072834 456 L 23.984976477456 456 L 24.882953882078 456 L 25.7809312867 456 L 26.678908691322 456 L 27.576886095945 456 L 28.474863500567 456 L 29.372840905189 456 L 30.270818309811 456 L 31.168795714433 456 L 32.066773119055 456 L 32.964750523677 456 L 33.862727928299 456 L 34.760705332921 456 L 35.658682737543 456 L 36.556660142165 456 L 37.454637546788 456 L 38.35261495141 456 L 39.250592356032 456 L 40.148569760654 456 L 41.046547165276 456 L 41.944524569898 456 L 42.84250197452 456 L 43.740479379142 456 L 44.638456783764 456 L 45.536434188386 456 L 46.434411593008 456 L 47.332388997631 456 L 48.230366402253 456 L 49.128343806875 456 L 50.026321211497 456 L 50.924298616119 456 L 51.822276020741 456 L 52.720253425363 456 L 53.618230829985 456 L 54.516208234607 456 L 55.414185639229 456 L 56.312163043852 456 L 57.210140448474 456 L 58.108117853096 456 L 59.006095257718 456 L 59.90407266234 456 L 60.802050066962 456 L 61.700027471584 456 L 62.598004876206 456 L 63.495982280828 456 L 64.39395968545 456 L 65.291937090072 456 L 66.189914494695 456 L 67.087891899317 456 L 67.985869303939 456 L 68.883846708561 456 L 69.781824113183 456 L 70.679801517805 456 L 71.577778922427 456 L 72.475756327049 456 L 73.373733731671 456 L 74.271711136293 456 L 75.169688540915 456 L 76.067665945538 456 L 76.96564335016 456 L 77.863620754782 456 L 78.761598159404 456 L 79.659575564026 456 L 80.557552968648 456 L 81.45553037327 456 L 82.353507777892 456 L 83.251485182514 456 L 84.149462587136 456 L 85.047439991759 456 L 85.945417396381 456 L 86.843394801003 456 L 87.741372205625 456 L 88.639349610247 456 L 89.537327014869 456 L 90.435304419491 456 L 91.333281824113 456 L 92.231259228735 456 L 93.129236633357 456 L 94.027214037979 456 L 94.925191442602 456 L 95.823168847224 456 L 96.721146251846 456 L 97.619123656468 456 L 98.51710106109 456 L 99.415078465712 456 L 100.31305587033 456 L 101.21103327496 456 L 102.10901067958 456 L 103.0069880842 456 L 103.90496548882 456 L 104.80294289344 456 L 105.70092029807 456 L 106.59889770269 456 L 107.49687510731 456 L 108.39485251193 456 L 109.29282991656 456 L 110.19080732118 456 L 111.0887847258 456 L 111.98676213042 456 L 112.88473953504 456 L 113.78271693967 456 L 114.68069434429 456 L 115.57867174891 456 L 116.47664915353 456 L 117.37462655815 456 L 118.27260396278 456 L 119.1705813674 456 L 120.06855877202 456 L 120.96653617664 456 L 121.86451358126 456 L 122.76249098589 456 L 123.66046839051 456 L 124.55844579513 456 L 125.45642319975 456 L 126.35440060437 456 L 127.252378009 456 L 128.15035541362 456 L 129.04833281824 456 L 129.94631022286 456 L 130.84428762749 456 L 131.74226503211 456 L 132.64024243673 456 L 133.53821984135 456 L 134.43619724597 456 L 135.3341746506 456 L 136.23215205522 456 L 137.13012945984 456 L 138.02810686446 456 L 138.92608426908 456 L 139.82406167371 456 L 140.72203907833 456 L 141.62001648295 456 L 142.51799388757 456 L 143.41597129219 456 L 144.31394869682 456 L 145.21192610144 456 L 146.10990350606 456 L 147.00788091068 456 L 147.90585831531 456 L 148.80383571993 456 L 149.70181312455 456 L 150.59979052917 456 L 151.49776793379 456 L 152.39574533842 456 L 153.29372274304 456 L 154.19170014766 456 L 155.08967755228 456 L 155.9876549569 456 L 156.88563236153 456 L 157.78360976615 456 L 158.68158717077 456 L 159.57956457539 456 L 160.47754198001 456 L 161.37551938464 456 L 162.27349678926 456 L 163.17147419388 456 L 164.0694515985 456 L 164.96742900312 456 L 165.86540640775 456 L 166.76338381237 456 L 167.66136121699 456 L 168.55933862161 456 L 169.45731602624 456 L 170.35529343086 456 L 171.25327083548 456 L 172.1512482401 456 L 173.04922564472 456 L 173.94720304935 456 L 174.84518045397 456 L 175.74315785859 456 L 176.64113526321 456 L 177.53911266783 456 L 178.43709007246 456 L 179.33506747708 456 L 180.2330448817 456 L 181.13102228632 456 L 182.02899969094 456 L 182.92697709557 456 L 183.82495450019 456 L 184.72293190481 456 L 185.62090930943 456 L 186.51888671406 456 L 187.41686411868 456 L 188.3148415233 456 L 189.21281892792 456 L 190.11079633254 456 L 191.00877373717 456 L 191.90675114179 456 L 192.80472854641 456 L 193.70270595103 456 L 194.60068335565 456 L 195.49866076028 456 L 196.3966381649 456 L 197.29461556952 456 L 198.19259297414 456 L 199.09057037876 456 L 199.98854778339 456 L 200.88652518801 456 L 201.78450259263 456 L 202.68247999725 456 L 203.58045740187 456 L 204.4784348065 456 L 205.37641221112 456 L 206.27438961574 456 L 207.17236702036 456 L 208.07034442499 456 L 208.96832182961 456 L 209.86629923423 456 L 210.76427663885 427.193450967168 L 211.66225404347 433.306798888821 L 212.5602314481 428.987323615174 L 213.45820885272 431.834508758512 L 214.35618625734 430.923913968052 L 215.25416366196 433.954502968714 L 216.15214106658 433.494552525918 L 217.05011847121 433.637231639938 L 217.94809587583 431.381660169719 L 218.84607328045 435.163589120731 L 219.74405068507 435.536357778637 L 220.64202808969 438.894090832458 L 221.54000549432 438.823109986601 L 222.43798289894 434.618381930068 L 223.33596030356 436.373419259713 L 224.23393770818 435.928040789038 L 225.13191511281 436.675991733319 L 226.02989251743 434.492300361535 L 226.92786992205 431.076515977028 L 227.82584732667 436.175012728494 L 228.72382473129 435.927501486752 L 229.62180213592 436.336012599807 L 230.51977954054 431.234945857503 L 231.41775694516 423.364010431307 L 232.31573434978 423.617488512551 L 233.2137117544 419.328563489818 L 234.11168915903 415.18173914952 L 235.00966656365 418.835635968112 L 235.90764396827 420.700265243486 L 236.80562137289 416.667964535037 L 237.70359877751 415.39942344225 L 238.60157618214 420.653314924344 L 239.49955358676 430.750750214738 L 240.39753099138 429.135993034198 L 241.295508396 427.708506808752 L 242.19348580062 426.39589557281 L 243.09146320525 413.410380976422 L 243.98944060987 391.04283371984 L 244.88741801449 348.54803690091 L 245.78539541911 364.423240941551 L 246.68337282374 347.25854345549 L 247.58135022836 341.02018963316 L 248.47932763298 352.02370224575 L 249.3773050376 352.31683730814 L 250.27528244222 336.36999281731 L 251.17325984685 328.03359929933004 L 252.07123725147 344.17474776429003 L 252.96921465609 336.58126958689 L 253.86719206071 298.6658534533 L 254.76516946533 252.78063330305 L 255.66314686996 221.86244117293 L 256.56112427458 248.80294522407 L 257.4591016792 275.36845897843 L 258.35707908382 289.21164508984 L 259.25505648844 321.76345345401 L 260.15303389307 300.52068133706996 L 261.05101129769 260.41137983006 L 261.94898870231 253.16120559617 L 262.84696610693 252.91805069983 L 263.74494351156 190.76122768707 L 264.64292091618 146.70401893386997 L 265.5408983208 28.698909219159987 L 266.43887572542 107.40440228436 L 267.33685313004 160.66180166945003 L 268.23483053467 242.10918066363 L 269.13280793929 270.85362184870996 L 270.03078534391 306.73012547789 L 270.92876274853 347.26674772389003 L 271.82674015315 377.936953049796 L 272.72471755778 332.59799507834 L 273.6226949624 348.16955982325 L 274.52067236702 357.629727609477 L 275.41864977164 352.51988546918 L 276.31662717626 387.734529447279 L 277.21460458089 382.264375697428 L 278.11258198551 385.535502289327 L 279.01055939013 384.811252540094 L 279.90853679475 383.583850025419 L 280.80651419937 312.69175728512 L 281.704491604 279.67091327513003 L 282.60246900862 257.54681312687 L 283.50044641324 182.028603557 L 284.39842381786 201.44803109053 L 285.29640122249 386.151766428388 L 286.19437862711 369.056412160881 L 287.09235603173 354.75255449149 L 287.99033343635 352.04985148474 L 288.88831084097 376.97902536085 L 289.7862882456 395.293237240454 L 290.68426565022 405.463514382522 L 291.58224305484 403.246404044199 L 292.48022045946 404.617025389281 L 293.37819786408 392.472868407121 L 294.27617526871 383.95107991132 L 295.17415267333 377.8390074948 L 296.07213007795 383.107671605789 L 296.97010748257 392.200331653179 L 297.86808488719 410.473473824846 L 298.76606229182 417.829193320593 L 299.66403969644 419.952864916168 L 300.56201710106 426.893753699936 L 301.45999450568 432.879607954483 L 302.35797191031 432.422265331839 L 303.25594931493 426.85987211115 L 304.15392671955 432.845216387264 L 305.05190412417 422.882182733734 L 305.94988152879 421.930056714796 L 306.84785893342 424.420554683708 L 307.74583633804 423.97167047077403 L 308.64381374266 431.205931052522 L 309.54179114728 428.580531164682 L 310.4397685519 426.769456222178 L 311.33774595653 430.851530446498 L 312.23572336115 426.878997199436 L 313.13370076577 413.088225112526 L 314.03167817039 419.723901265893 L 314.92965557501 416.813300171712 L 315.82763297964 387.89212294268 L 316.72561038426 365.904094506295 L 317.62358778888 356.947705907509 L 318.5215651935 342.53561160074 L 319.41954259813 338.19023049641 L 320.31752000275 327.87950213677 L 321.21549740737 379.162403189073 L 322.11347481199 335.2539144608 L 323.01145221661 367.718851024147 L 323.90942962124 428.156458225699 L 324.80740702586 422.173485976993 L 325.70538443048 414.714576609148 L 326.6033618351 422.23367479256 L 327.50133923972 422.929980468387 L 328.39931664435 411.931088475183 L 329.29729404897 305.96492446198 L 330.19527145359 267.23832390754 L 331.09324885821 266.05229560737996 L 331.99122626283 400.748128909711 L 332.88920366746 385.442101989159 L 333.78718107208 339.40929183218 L 334.6851584767 371.709863844812 L 335.58313588132 344.35345022494 L 336.48111328594 368.288359163945 L 337.37909069057 332.73261736923 L 338.27706809519 347.80190082354 L 339.17504549981 228.73457117718 L 340.07302290443 320.27104371773 L 340.97100030906 340.84488554065 L 341.86897771368 313.44786344008 L 342.7669551183 331.28329865579 L 343.66493252292 345.86325608916 L 344.56290992754 349.12580459941 L 345.46088733217 372.69499710017203 L 346.35886473679 391.661301870861 L 347.25684214141 385.51730242035603 L 348.15481954603 376.846830294965 L 349.05279695065 351.35950723285 L 349.95077435528 330.29226544883 L 350.8487517599 297.85166023278 L 351.74672916452 295.57430679955996 L 352.64470656914 295.20920596365 L 353.54268397376 279.19105027142 L 354.44066137839 268.82744843181 L 355.33863878301 320.26703891089 L 356.23661618763 306.94846334221 L 357.13459359225 282.54349437469 L 358.03257099688 297.43863583198004 L 358.9305484015 286.18424128345 L 359.82852580612 312.09760260861003 L 360.72650321074 255.21915650746 L 361.62448061536 325.46401105892 L 362.52245801999 390.155828623759 L 363.42043542461 380.796892845953 L 364.31841282923 393.809907948946 L 365.21639023385 404.877522969727 L 366.11436763847 392.100287305324 L 367.0123450431 350.62528297292 L 367.91032244772 351.77789495937 L 368.80829985234 342.84535348688 L 369.70627725696 393.876584309323 L 370.60425466158 400.213944551518 L 371.50223206621 412.880072125524 L 372.40020947083 408.439654619385 L 373.29818687545 406.87625584246 L 374.19616428007 413.135331602469 L 375.09414168469 398.033071457284 L 375.99211908932 410.404777973594 L 376.89009649394 412.917825120626 L 377.78807389856 423.909809558401 L 378.68605130318 420.721338342215 L 379.58402870781 413.741151717516 L 380.48200611243 413.676514261396 L 381.37998351705 418.467322921925 L 382.27796092167 420.139272025372 L 383.17593832629 421.793216630764 L 384.07391573092 428.17306747512 L 384.97189313554 412.428223101938 L 385.86987054016 403.10279056204 L 386.76784794478 398.189801775 L 387.6658253494 382.428169247706 L 388.56380275403 397.708298651615 L 389.46178015865 397.600392995901 L 390.35975756327 397.85655998305 L 391.25773496789 392.194624417971 L 392.15571237251 389.128536176556 L 393.05368977714 371.91027253228503 L 393.95166718176 370.25992327338497 L 394.84964458638 371.172701113858 L 395.747621991 404.887241963657 L 396.64559939563 438.445279408887 L 397.54357680025 443.991916099761 L 398.44155420487 443.13324783161397 L 399.33953160949 447.3917368386905 L 400.23750901411 446.2200299367556 L 401.13548641874 447.3101429161675 L 402.03346382336 449.2693695053937 L 402.93144122798 447.3173650248193 L 403.8294186326 449.0692405832162 L 404.72739603722 448.4524846450425 L 405.62537344185 448.3416703840091 L 406.52335084647 447.7217800098893 L 407.42132825109 449.3349776371583 L 408.31930565571 447.5308763968566 L 409.21728306033 447.4308637071613 L 410.11526046496 447.3960492696397 L 411.01323786958 448.1160190458381 L 411.9112152742 447.5932822089847 L 412.80919267882 448.0100741057662 L 413.70717008344 448.4787840406629 L 414.60514748807 449.7721155990037 L 415.50312489269 450.3630053712691 L 416.40110229731 450.5663741124439 L 417.29907970193 449.8154402790731 L 418.19705710656 450.032868411134 L 419.09503451118 450.4530534961594 L 419.9930119158 450.2155584860545 L 420.89098932042 449.9091959354283 L 421.78896672504 450.3565255627474 L 422.68694412967 450.5368394676547 L 423.58492153429 449.9663702663456 L 424.48289893891 450.7213684763425 L 425.38087634353 449.9012483924021 L 426.27885374815 450.1461940842625 L 427.17683115278 444.15118149365003 L 428.0748085574 430.907032886372 L 428.97278596202 432.257241198375 L 429.87076336664 429.832097821568 L 430.76874077126 434.6919192641 L 431.66671817589 422.642902147144 L 432.56469558051 428.47862786925 L 433.46267298513 448.3201960993087 L 434.36065038975 448.9885118121355 L 435.25862779438 449.690396863131 L 436.156605199 448.1793983612991 L 437.05458260362 449.0474545971707 L 437.95256000824 448.9625733897009 L 438.85053741286 448.0204136000958 L 439.74851481749 448.4816063298598 L 440.64649222211 449.6406046689452 L 441.54446962673 450.4617688455047 L 442.44244703135 448.4209928731805 L 443.34042443597 448.7806900387206 L 444.2384018406 448.7344098364505 L 445.13637924522 448.8182641961565 L 446.03435664984 446.8929755287549 L 446.93233405446 447.581292888242 L 447.83031145908 448.4005157792089 L 448.72828886371 445.796974982242 L 449.62626626833 445.846829405394 L 450.52424367295 444.608875217746 L 451.42222107757 445.534995173834 L 452.32019848219 445.727192243091 L 453.21817588682 443.575206118236 L 454.11615329144 447.5524265468699 L 455.01413069606 446.2888624246602 L 455.91210810068 447.0036314881167 L 456.81008550531 447.1182838927317 L 457.70806290993 447.3327847929346 L 458.60604031455 446.3019083766629 L 459.50401771917 393.503450400306 L 460.40199512379 446.8866754737422 L 461.29997252842 449.2123105438516 L 462.19794993304 448.6151639642919 L 463.09592733766 449.4225171652701 L 463.99390474228 447.425103927893 L 464.8918821469 448.9643903551845 L 465.78985955153 450.085817487991 L 466.68783695615 450.5877207291187 L 467.58581436077 449.9166721184677 L 468.48379176539 447.8193576274759 L 469.38176917001 449.1474185442667 L 470.27974657464 449.0607659700276 L 471.17772397926 449.47888167901 L 472.07570138388 450.3154640033164 L 472.9736787885 450.4561434532255 L 473.87165619313 449.5703711645841 L 474.76963359775 448.7192949400097 L 475.66761100237 449.6331174380588 L 476.56558840699 448.2004515008504 L 477.46356581161 446.8281103944595 L 478.36154321624 446.8308235317253 L 479.25952062086 446.3689796075297 L 480.15749802548 441.295864980149 L 481.0554754301 399.876258307554 L 481.95345283472 431.233059457585 L 482.85143023935 412.832236090103 L 483.74940764397 425.643018664849 L 484.64738504859 433.309438678972 L 485.54536245321 431.147379863274 L 486.44333985783 432.606578650633 L 487.34131726246 436.701556072613 L 488.23929466708 433.159713471655 L 489.1372720717 434.475169746236 L 490.03524947632 433.589488177015 L 490.93322688095 436.844285269171 L 491.83120428557 436.960733288545 L 492.72918169019 437.177471550664 L 493.62715909481 438.591609209964 L 494.52513649943 439.500203371383 L 495.42311390406 438.752632052972 L 496.32109130868 438.905142676379 L 497.2190687133 441.314005378227 L 498.11704611792 441.742977072289 L 499.01502352254 440.998284841406 L 499.91300092717 446.7498811923383 L 500.81097833179 439.853701467466 L 501.70895573641 439.733291656296 L 502.60693314103 439.81354196897 L 503.50491054565 443.878786630814 L 504.40288795028 442.159061085856 L 505.3008653549 439.986636128644 L 506.19884275952 441.189155921671 L 507.09682016414 442.326505938925 L 507.99479756876 441.268154656467 L 508.89277497339 442.264840364902 L 509.79075237801 443.770393476874 L 510.68872978263 444.843750999252 L 511.58670718725 443.459366886035 L 512.48468459188 442.753095795611 L 513.3826619965 443.216831544365 L 514.28063940112 444.084887297235 L 515.17861680574 443.871759245683 L 516.07659421036 444.776297482863 L 516.97457161499 444.613373004664 L 517.87254901961 442.961324125563" class="highcharts-graph" data-z-index="1" stroke="rgb(3, 63, 64)" stroke-opacity=" 1" stroke-width="1" stroke-linejoin="round" stroke-linecap="round"></path></g><g class="highcharts-markers highcharts-series-0 highcharts-area-series" data-z-index="0.1" opacity="1" transform="translate(67,59) scale(1 1)" clip-path="none"></g></g><text x="300" text-anchor="middle" class="highcharts-title" data-z-index="4" style="color: rgb(51, 51, 51); font-size: 18px; fill: rgb(51, 51, 51);" y="24">Transaction Fee Chart</text><text x="300" text-anchor="middle" class="highcharts-subtitle" data-z-index="4" style="color: rgb(102, 102, 102); fill: rgb(102, 102, 102);" y="44">Source: NearBlocks.io</text><text x="10" text-anchor="start" class="highcharts-caption" data-z-index="4" style="color: rgb(102, 102, 102); fill: rgb(102, 102, 102);" y="547"></text><g class="highcharts-axis-labels highcharts-xaxis-labels" data-z-index="7"><text x="99.272559607614" text-anchor="middle" transform="translate(0,0)" style="color: rgb(102, 102, 102); cursor: default; font-size: 11px; fill: rgb(102, 102, 102);" y="534" opacity="1">May '21</text><text x="209.72378037613" text-anchor="middle" transform="translate(0,0)" style="color: rgb(102, 102, 102); cursor: default; font-size: 11px; fill: rgb(102, 102, 102);" y="534" opacity="1">Sep '21</text><text x="319.27702374003" text-anchor="middle" transform="translate(0,0)" style="color: rgb(102, 102, 102); cursor: default; font-size: 11px; fill: rgb(102, 102, 102);" y="534" opacity="1">Jan '22</text><text x="427.03431229468" text-anchor="middle" transform="translate(0,0)" style="color: rgb(102, 102, 102); cursor: default; font-size: 11px; fill: rgb(102, 102, 102);" y="534" opacity="1">May '22</text><text x="537.4855330632" text-anchor="middle" transform="translate(0,0)" style="color: rgb(102, 102, 102); cursor: default; font-size: 11px; fill: rgb(102, 102, 102);" y="534" opacity="1">Sep '22</text></g><g class="highcharts-axis-labels highcharts-yaxis-labels" data-z-index="7"><text x="52" text-anchor="end" transform="translate(0,0)" style="color: rgb(102, 102, 102); cursor: default; font-size: 11px; fill: rgb(102, 102, 102);" y="520" opacity="1">0</text><text x="52" text-anchor="end" transform="translate(0,0)" style="color: rgb(102, 102, 102); cursor: default; font-size: 11px; fill: rgb(102, 102, 102);" y="463" opacity="1">10k</text><text x="52" text-anchor="end" transform="translate(0,0)" style="color: rgb(102, 102, 102); cursor: default; font-size: 11px; fill: rgb(102, 102, 102);" y="406" opacity="1">20k</text><text x="52" text-anchor="end" transform="translate(0,0)" style="color: rgb(102, 102, 102); cursor: default; font-size: 11px; fill: rgb(102, 102, 102);" y="349" opacity="1">30k</text><text x="52" text-anchor="end" transform="translate(0,0)" style="color: rgb(102, 102, 102); cursor: default; font-size: 11px; fill: rgb(102, 102, 102);" y="292" opacity="1">40k</text><text x="52" text-anchor="end" transform="translate(0,0)" style="color: rgb(102, 102, 102); cursor: default; font-size: 11px; fill: rgb(102, 102, 102);" y="235" opacity="1">50k</text><text x="52" text-anchor="end" transform="translate(0,0)" style="color: rgb(102, 102, 102); cursor: default; font-size: 11px; fill: rgb(102, 102, 102);" y="178" opacity="1">60k</text><text x="52" text-anchor="end" transform="translate(0,0)" style="color: rgb(102, 102, 102); cursor: default; font-size: 11px; fill: rgb(102, 102, 102);" y="121" opacity="1">70k</text><text x="52" text-anchor="end" transform="translate(0,0)" style="color: rgb(102, 102, 102); cursor: default; font-size: 11px; fill: rgb(102, 102, 102);" y="64" opacity="1">80k</text></g></svg>