<?xml version="1.0" standalone="no"?><!DOCTYPE svg PUBLIC "-//W3C//DTD SVG 1.1//EN" "http://www.w3.org/Graphics/SVG/1.1/DTD/svg11.dtd"><svg xmlns:xlink="http://www.w3.org/1999/xlink" version="1.1" class="highcharts-root" style="font-family: &quot;Lucida Grande&quot;, &quot;Lucida Sans Unicode&quot;, Arial, Helvetica, sans-serif; font-size: 12px;" xmlns="http://www.w3.org/2000/svg" width="600" height="550" viewBox="0 0 600 550"><desc>Created with Highcharts 10.1.0</desc><defs><clipPath id="highcharts-dxxoijb-1159-"><rect x="0" y="0" width="504" height="456" fill="none"></rect></clipPath><clipPath id="highcharts-dxxoijb-1732-"><rect x="0" y="0" width="504" height="456" fill="none"></rect></clipPath><linearGradient x1="0" y1="0" x2="0" y2="1" id="highcharts-dxxoijb-1733"><stop offset="0" stop-color="rgb(3,63,64)" stop-opacity="0.8"></stop><stop offset="1" stop-color="rgb(3,63,64)" stop-opacity="0"></stop></linearGradient></defs><rect fill="none" class="highcharts-background" x="0" y="0" width="600" height="550" rx="0" ry="0"></rect><rect fill="none" class="highcharts-plot-background" x="86" y="59" width="504" height="456"></rect><g class="highcharts-grid highcharts-xaxis-grid" data-z-index="1"><path fill="none" stroke-dasharray="none" data-z-index="1" class="highcharts-grid-line" d="M 116.5 59 L 116.5 515" opacity="1"></path><path fill="none" stroke-dasharray="none" data-z-index="1" class="highcharts-grid-line" d="M 223.5 59 L 223.5 515" opacity="1"></path><path fill="none" stroke-dasharray="none" data-z-index="1" class="highcharts-grid-line" d="M 328.5 59 L 328.5 515" opacity="1"></path><path fill="none" stroke-dasharray="none" data-z-index="1" class="highcharts-grid-line" d="M 432.5 59 L 432.5 515" opacity="1"></path><path fill="none" stroke-dasharray="none" data-z-index="1" class="highcharts-grid-line" d="M 538.5 59 L 538.5 515" opacity="1"></path></g><g class="highcharts-grid highcharts-yaxis-grid" data-z-index="1"><path fill="none" stroke="#e6e6e6" stroke-width="1" stroke-dasharray="none" data-z-index="1" class="highcharts-grid-line" d="M 86 515.5 L 590 515.5" opacity="1"></path><path fill="none" stroke="#e6e6e6" stroke-width="1" stroke-dasharray="none" data-z-index="1" class="highcharts-grid-line" d="M 86 450.5 L 590 450.5" opacity="1"></path><path fill="none" stroke="#e6e6e6" stroke-width="1" stroke-dasharray="none" data-z-index="1" class="highcharts-grid-line" d="M 86 385.5 L 590 385.5" opacity="1"></path><path fill="none" stroke="#e6e6e6" stroke-width="1" stroke-dasharray="none" data-z-index="1" class="highcharts-grid-line" d="M 86 320.5 L 590 320.5" opacity="1"></path><path fill="none" stroke="#e6e6e6" stroke-width="1" stroke-dasharray="none" data-z-index="1" class="highcharts-grid-line" d="M 86 254.5 L 590 254.5" opacity="1"></path><path fill="none" stroke="#e6e6e6" stroke-width="1" stroke-dasharray="none" data-z-index="1" class="highcharts-grid-line" d="M 86 189.5 L 590 189.5" opacity="1"></path><path fill="none" stroke="#e6e6e6" stroke-width="1" stroke-dasharray="none" data-z-index="1" class="highcharts-grid-line" d="M 86 124.5 L 590 124.5" opacity="1"></path><path fill="none" stroke="#e6e6e6" stroke-width="1" stroke-dasharray="none" data-z-index="1" class="highcharts-grid-line" d="M 86 58.5 L 590 58.5" opacity="1"></path></g><rect fill="none" class="highcharts-plot-border" data-z-index="1" x="86" y="59" width="504" height="456"></rect><g class="highcharts-axis highcharts-xaxis" data-z-index="2"><path fill="none" class="highcharts-tick" stroke="#ccd6eb" stroke-width="1" d="M 116.5 515 L 116.5 525" opacity="1"></path><path fill="none" class="highcharts-tick" stroke="#ccd6eb" stroke-width="1" d="M 223.5 515 L 223.5 525" opacity="1"></path><path fill="none" class="highcharts-tick" stroke="#ccd6eb" stroke-width="1" d="M 328.5 515 L 328.5 525" opacity="1"></path><path fill="none" class="highcharts-tick" stroke="#ccd6eb" stroke-width="1" d="M 432.5 515 L 432.5 525" opacity="1"></path><path fill="none" class="highcharts-tick" stroke="#ccd6eb" stroke-width="1" d="M 538.5 515 L 538.5 525" opacity="1"></path><path fill="none" class="highcharts-axis-line" stroke="#ccd6eb" stroke-width="1" data-z-index="7" d="M 86 515.5 L 590 515.5"></path></g><g class="highcharts-axis highcharts-yaxis" data-z-index="2"><text x="24.296875" data-z-index="7" text-anchor="middle" transform="translate(0,0) rotate(270 24.296875 287)" class="highcharts-axis-title" style="color: rgb(102, 102, 102); fill: rgb(102, 102, 102);" y="287">Transaction Volume (USD)</text><path fill="none" class="highcharts-axis-line" data-z-index="7" d="M 86 59 L 86 515"></path></g><g class="highcharts-series-group" data-z-index="3"><g class="highcharts-series highcharts-series-0 highcharts-area-series" data-z-index="0.1" opacity="1" transform="translate(86,59) scale(1 1)" clip-path="url(#highcharts-dxxoijb-1732-)"><path fill="url(#highcharts-dxxoijb-1733)" d="M 4.9411764705882 456 L 5.8065313691151 456 L 6.6718862676419 456 L 7.5372411661687 456 L 8.4025960646956 456 L 9.2679509632224 456 L 10.133305861749 456 L 10.998660760276 456 L 11.864015658803 456 L 12.72937055733 456 L 13.594725455857 456 L 14.460080354383 456 L 15.32543525291 456 L 16.190790151437 456 L 17.056145049964 456 L 17.921499948491 456 L 18.786854847018 456 L 19.652209745544 456 L 20.517564644071 456 L 21.382919542598 456 L 22.248274441125 456 L 23.113629339652 456 L 23.978984238179 456 L 24.844339136705 456 L 25.709694035232 456 L 26.575048933759 456 L 27.440403832286 456 L 28.305758730813 456 L 29.17111362934 456 L 30.036468527866 456 L 30.901823426393 456 L 31.76717832492 456 L 32.632533223447 456 L 33.497888121974 456 L 34.363243020501 456 L 35.228597919028 456 L 36.093952817554 456 L 36.959307716081 456 L 37.824662614608 456 L 38.690017513135 456 L 39.555372411662 456 L 40.420727310189 456 L 41.286082208715 456 L 42.151437107242 456 L 43.016792005769 456 L 43.882146904296 456 L 44.747501802823 456 L 45.61285670135 456 L 46.478211599876 456 L 47.343566498403 456 L 48.20892139693 456 L 49.074276295457 456 L 49.939631193984 456 L 50.804986092511 456 L 51.670340991037 456 L 52.535695889564 456 L 53.401050788091 456 L 54.266405686618 456 L 55.131760585145 456 L 55.997115483672 456 L 56.862470382198 456 L 57.727825280725 456 L 58.593180179252 456 L 59.458535077779 456 L 60.323889976306 456 L 61.189244874833 456 L 62.054599773359 456 L 62.919954671886 456 L 63.785309570413 456 L 64.65066446894 456 L 65.516019367467 456 L 66.381374265994 456 L 67.24672916452 456 L 68.112084063047 456 L 68.977438961574 456 L 69.842793860101 456 L 70.708148758628 456 L 71.573503657155 456 L 72.438858555681 456 L 73.304213454208 456 L 74.169568352735 456 L 75.034923251262 456 L 75.900278149789 456 L 76.765633048316 456 L 77.630987946842 456 L 78.496342845369 456 L 79.361697743896 456 L 80.227052642423 456 L 81.09240754095 456 L 81.957762439477 456 L 82.823117338003 456 L 83.68847223653 456 L 84.553827135057 456 L 85.419182033584 456 L 86.284536932111 456 L 87.149891830638 456 L 88.015246729165 456 L 88.880601627691 456 L 89.745956526218 456 L 90.611311424745 456 L 91.476666323272 456 L 92.342021221799 456 L 93.207376120326 456 L 94.072731018852 456 L 94.938085917379 456 L 95.803440815906 456 L 96.668795714433 456 L 97.53415061296 456 L 98.399505511487 456 L 99.264860410013 456 L 100.13021530854 456 L 100.99557020707 456 L 101.86092510559 456 L 102.72628000412 456 L 103.59163490265 456 L 104.45698980117 456 L 105.3223446997 456 L 106.18769959823 456 L 107.05305449675 456 L 107.91840939528 456 L 108.78376429381 456 L 109.64911919234 456 L 110.51447409086 456 L 111.37982898939 456 L 112.24518388792 456 L 113.11053878644 456 L 113.97589368497 456 L 114.8412485835 456 L 115.70660348202 456 L 116.57195838055 456 L 117.43731327908 456 L 118.3026681776 456 L 119.16802307613 456 L 120.03337797466 456 L 120.89873287318 456 L 121.76408777171 456 L 122.62944267024 456 L 123.49479756876 456 L 124.36015246729 456 L 125.22550736582 456 L 126.09086226435 456 L 126.95621716287 456 L 127.8215720614 456 L 128.68692695993 456 L 129.55228185845 456 L 130.41763675698 456 L 131.28299165551 456 L 132.14834655403 456 L 133.01370145256 456 L 133.87905635109 456 L 134.74441124961 456 L 135.60976614814 456 L 136.47512104667 456 L 137.34047594519 456 L 138.20583084372 456 L 139.07118574225 456 L 139.93654064077 456 L 140.8018955393 456 L 141.66725043783 456 L 142.53260533636 456 L 143.39796023488 456 L 144.26331513341 456 L 145.12867003194 456 L 145.99402493046 456 L 146.85937982899 456 L 147.72473472752 456 L 148.59008962604 456 L 149.45544452457 456 L 150.3207994231 456 L 151.18615432162 456 L 152.05150922015 456 L 152.91686411868 456 L 153.7822190172 456 L 154.64757391573 456 L 155.51292881426 456 L 156.37828371278 456 L 157.24363861131 456 L 158.10899350984 456 L 158.97434840837 456 L 159.83970330689 456 L 160.70505820542 456 L 161.57041310395 456 L 162.43576800247 456 L 163.301122901 456 L 164.16647779953 456 L 165.03183269805 456 L 165.89718759658 456 L 166.76254249511 456 L 167.62789739363 456 L 168.49325229216 456 L 169.35860719069 456 L 170.22396208921 456 L 171.08931698774 456 L 171.95467188627 456 L 172.82002678479 456 L 173.68538168332 456 L 174.55073658185 456 L 175.41609148037 456 L 176.2814463789 456 L 177.14680127743 456 L 178.01215617596 456 L 178.87751107448 456 L 179.74286597301 456 L 180.60822087154 456 L 181.47357577006 456 L 182.33893066859 456 L 183.20428556712 456 L 184.06964046564 456 L 184.93499536417 456 L 185.8003502627 456 L 186.66570516122 456 L 187.53106005975 456 L 188.39641495828 456 L 189.2617698568 456 L 190.12712475533 456 L 190.99247965386 456 L 191.85783455238 456 L 192.72318945091 456 L 193.58854434944 456 L 194.45389924797 456 L 195.31925414649 456 L 196.18460904502 456 L 197.04996394355 456 L 197.91531884207 456 L 198.7806737406 456 L 199.64602863913 456 L 200.51138353765 456 L 201.37673843618 456 L 202.24209333471 456 L 203.10744823323 442.570258585527 L 203.97280313176 445.836307012331 L 204.83815803029 448.9917066495386 L 205.70351292881 451.6091527975283 L 206.56886782734 451.1621452990661 L 207.43422272587 453.9773426148853 L 208.29957762439 447.4328180152613 L 209.16493252292 446.8583782781587 L 210.03028742145 451.9763853849534 L 210.89564231998 447.1531588739598 L 211.7609972185 450.0937645855042 L 212.62635211703 454.1075600028788 L 213.49170701556 452.5116680332748 L 214.35706191408 448.2022555304704 L 215.22241681261 451.2037099643113 L 216.08777171114 447.874968384304 L 216.95312660966 452.1682415764735 L 217.81848150819 358.798731852702 L 218.68383640672 439.967686643032 L 219.54919130524 451.6361519062851 L 220.41454620377 449.8693500527836 L 221.2799011023 446.1359637679811 L 222.14525600082 444.312864137097 L 223.01061089935 439.201304298167 L 223.87596579788 445.07311965735 L 224.7413206964 435.403389073945 L 225.60667559493 439.510258466871 L 226.47203049346 437.575801403278 L 227.33738539199 441.183832179573 L 228.20274029051 341.98747036090003 L 229.06809518904 436.54960795415 L 229.93345008757 424.211966246367 L 230.79880498609 451.262036200149 L 231.66415988462 443.888818681182 L 232.52951478315 444.495738917522 L 233.39486968167 426.275234256779 L 234.2602245802 428.16171929382 L 235.12557947873 374.83535170441 L 235.99093437725 324.64266113367 L 236.85628927578 426.521365049918 L 237.72164417431 380.064354950128 L 238.58699907283 306.90343710771003 L 239.45235397136 187.32395247428002 L 240.31770886989 380.795633282485 L 241.18306376841 331.81259779902 L 242.04841866694 408.525199978294 L 242.91377356547 436.777677085391 L 243.779128464 432.901020688177 L 244.64448336252 407.497376828694 L 245.50983826105 397.936713933229 L 246.37519315958 386.44137627662496 L 247.2405480581 406.938254414989 L 248.10590295663 409.964811773378 L 248.97125785516 427.061270833785 L 249.83661275368 431.935034425737 L 250.70196765221 414.73371568689197 L 251.56732255074 403.458541467096 L 252.43267744926 410.296816243648 L 253.29803234779 405.601598582015 L 254.16338724632 425.451999735268 L 255.02874214484 421.72456169032 L 255.89409704337 413.587371393063 L 256.7594519419 405.388346158802 L 257.62480684042 418.919685463916 L 258.49016173895 413.566884555795 L 259.35551663748 425.067170376033 L 260.220871536 277.05614831492 L 261.08622643453 409.266886231426 L 261.95158133306 438.356818311811 L 262.81693623159 412.088850917721 L 263.68229113011 434.71797914442 L 264.54764602864 440.332155553131 L 265.41300092717 427.355695870256 L 266.27835582569 447.5038270771041 L 267.14371072422 450.9670295168338 L 268.00906562275 447.6945163540999 L 268.87442052127 447.5281153768987 L 269.7397754198 444.716435944766 L 270.60513031833 444.741751683228 L 271.47048521685 434.135310297921 L 272.33584011538 429.53151069503 L 273.20119501391 432.212126787479 L 274.06654991243 437.488029314763 L 274.93190481096 430.041370135365 L 275.79725970949 428.383361321278 L 276.66261460801 444.096912133445 L 277.52796950654 440.134092087163 L 278.39332440507 438.196203396799 L 279.2586793036 442.43490030817 L 280.12403420212 441.410328036584 L 280.98938910065 446.4810334190689 L 281.85474399918 447.7245155892252 L 282.7200988977 429.944111284129 L 283.58545379623 396.27407947020697 L 284.45080869476 410.03971842122803 L 285.31616359328 447.8309188839013 L 286.18151849181 452.2420830193785 L 287.04687339034 446.6311746824339 L 287.91222828886 447.5468727604888 L 288.77758318739 445.208572778853 L 289.64293808592 437.991324650918 L 290.50829298444 450.2379348335319 L 291.37364788297 451.0295586111023 L 292.2390027815 449.222843882362 L 293.10435768002 444.385114913548 L 293.96971257855 429.414673327382 L 294.83506747708 436.48397836351603 L 295.70042237561 445.535149561868 L 296.56577727413 440.103427109567 L 297.43113217266 448.7283006294568 L 298.29648707119 447.0769377345635 L 299.16184196971 435.433296351629 L 300.02719686824 444.783511753004 L 300.89255176677 432.42849374073 L 301.75790666529 429.814851229116 L 302.62326156382 417.046353209644 L 303.48861646235 443.001338180629 L 304.35397136087 447.5941316040627 L 305.2193262594 447.674739801701 L 306.08468115793 448.7277847736507 L 306.95003605645 438.066106335306 L 307.81539095498 443.370286949995 L 308.68074585351 449.3560321128881 L 309.54610075203 451.2451475016641 L 310.41145565056 454.3923315739197 L 311.27681054909 445.317275733523 L 312.14216544762 379.154645944673 L 313.00752034614 431.673652567765 L 313.87287524467 431.42261699471 L 314.7382301432 394.794969057882 L 315.60358504172 432.098363715621 L 316.46893994025 447.0241741382303 L 317.33429483878 417.075593461038 L 318.1996497373 441.795056803012 L 319.06500463583 432.029670886673 L 319.93035953436 436.226252667948 L 320.79571443288 408.396015945771 L 321.66106933141 425.473889706765 L 322.52642422994 433.537208146842 L 323.39177912846 365.263301739044 L 324.25713402699 420.029762761858 L 325.12248892552 370.448680265931 L 325.98784382404 381.38380720441 L 326.85319872257 406.436928392906 L 327.7185536211 351.04578323553 L 328.58390851963 423.421238322668 L 329.44926341815 401.400448125384 L 330.31461831668 406.041198143844 L 331.17997321521 425.774290093476 L 332.04532811373 434.83729445135 L 332.91068301226 403.509463936157 L 333.77603791079 431.596713530246 L 334.64139280931 430.831147975206 L 335.50674770784 430.294870281427 L 336.37210260637 418.531630300191 L 337.23745750489 55.595649094270016 L 338.10281240342 419.468387988902 L 338.96816730195 394.910882108736 L 339.83352220047 435.674784424899 L 340.698877099 424.956388903109 L 341.56423199753 339.58219022327 L 342.42958689605 396.833705818686 L 343.29494179458 429.121954301845 L 344.16029669311 421.885293858932 L 345.02565159163 438.811589272178 L 345.89100649016 440.225315031921 L 346.75636138869 425.646968913566 L 347.62171628722 436.904519966774 L 348.48707118574 443.298817675619 L 349.35242608427 420.977016029751 L 350.2177809828 412.917221267989 L 351.08313588132 440.246045730643 L 351.94849077985 443.301484744504 L 352.81384567838 437.176590804878 L 353.6792005769 365.971576332172 L 354.54455547543 428.234024164755 L 355.40991037396 267.40350611761 L 356.27526527248 384.57367122804897 L 357.14062017101 401.75084396259797 L 358.00597506954 432.554106821522 L 358.87132996806 425.652797700425 L 359.73668486659 440.829085471531 L 360.60203976512 439.805997188279 L 361.46739466364 435.641564142762 L 362.33274956217 434.765057839026 L 363.1981044607 427.729848940711 L 364.06345935923 448.9896239893016 L 364.92881425775 445.289163165048 L 365.79416915628 431.380634885173 L 366.65952405481 447.392087011194 L 367.52487895333 448.5070060677835 L 368.39023385186 445.58211046059 L 369.25558875039 443.096047128285 L 370.12094364891 451.49689521992 L 370.98629854744 448.2016823498789 L 371.85165344597 447.6726347796594 L 372.71700834449 435.074900587598 L 373.58236324302 439.182968060571 L 374.44771814155 447.4227618807542 L 375.31307304007 451.8289785133965 L 376.1784279386 451.5583894551879 L 377.04378283713 453.7407601775217 L 377.90913773565 450.4233086875284 L 378.77449263418 449.2023935568233 L 379.63984753271 450.4916586116746 L 380.50520243124 449.4604561921706 L 381.37055732976 440.806262959906 L 382.23591222829 448.4563722985528 L 383.10126712682 446.0824822214314 L 383.96662202534 435.319833467156 L 384.83197692387 444.989251160888 L 385.6973318224 445.494526914589 L 386.56268672092 432.431575388074 L 387.42804161945 443.368656982366 L 388.29339651798 449.933812962398 L 389.1587514165 453.4026730004884 L 390.02410631503 437.762531328858 L 390.88946121356 448.2795510391671 L 391.75481611208 450.6929087332461 L 392.62017101061 449.7112433659888 L 393.48552590914 448.5321880882383 L 394.35088080766 441.50681058387 L 395.21623570619 445.459131805346 L 396.08159060472 450.487218876166 L 396.94694550325 448.2040940568735 L 397.81230040177 452.0482368327454 L 398.6776553003 444.6408311404 L 399.54301019883 451.2393332156308 L 400.40836509735 450.9258693394109 L 401.27371999588 453.6604513872981 L 402.13907489441 451.361583141443 L 403.00442979293 417.407799473608 L 403.86978469146 451.1642884715374 L 404.73513958999 451.1757951799287 L 405.60049448851 450.1745871536344 L 406.46584938704 451.383108270846 L 407.33120428557 452.8292573345331 L 408.19655918409 451.1139008790542 L 409.06191408262 453.7125341460788 L 409.92726898115 449.414312776785 L 410.79262387967 452.697594171803 L 411.6579787782 452.231054272562 L 412.52333367673 452.7941961403545 L 413.38868857525 451.6614749622093 L 414.25404347378 446.0724502610812 L 415.11939837231 441.938581699889 L 415.98475327084 441.417058105753 L 416.85010816936 450.738860678455 L 417.71546306789 449.6864033796736 L 418.58081796642 452.438328176699 L 419.44617286494 451.3829214411805 L 420.31152776347 450.2644106434739 L 421.176882662 450.5321372607671 L 422.04223756052 449.3156865744807 L 422.90759245905 451.346414733364 L 423.77294735758 448.656306373511 L 424.6383022561 449.3770775492846 L 425.50365715463 449.7886328398638 L 426.36901205316 451.6958955411958 L 427.23436695168 447.8490025640765 L 428.09972185021 447.9946184132945 L 428.96507674874 448.4880627693648 L 429.83043164726 440.08450352538 L 430.69578654579 446.5000092269756 L 431.56114144432 444.737004999357 L 432.42649634285 434.405360315218 L 433.29185124137 445.138319911227 L 434.1572061399 435.012281773284 L 435.02256103843 441.012078157593 L 435.88791593695 443.567999247385 L 436.75327083548 449.2432391758886 L 437.61862573401 437.3140725194 L 438.48398063253 442.55351348959 L 439.34933553106 449.300474274176 L 440.21469042959 449.7976535707029 L 441.08004532811 449.8933989478644 L 441.94540022664 430.727491496887 L 442.81075512517 449.6561987515271 L 443.67611002369 455.58063256733476 L 444.54146492222 446.4581452646848 L 445.40681982075 447.6921595163497 L 446.27217471927 439.749149931087 L 447.1375296178 448.6085863241853 L 448.00288451633 448.3178901032737 L 448.86823941486 450.1018015624917 L 449.73359431338 453.4580065612571 L 450.59894921191 453.095685473156 L 451.46430411044 449.156626621309 L 452.32965900896 408.78766249845603 L 453.19501390749 436.632507354417 L 454.06036880602 439.687721560586 L 454.92572370454 452.7133676244718 L 455.79107860307 452.0791097150357 L 456.6564335016 451.9569567454278 L 457.52178840012 446.910717061504 L 458.38714329865 450.5411379262924 L 459.25249819718 441.379456330286 L 460.1178530957 449.3234852613181 L 460.98320799423 452.522679234669 L 461.84856289276 451.905769716556 L 462.71391779128 444.536395323537 L 463.57927268981 443.889018057098 L 464.44462758834 453.0424556017328 L 465.30998248687 451.0471678934162 L 466.17533738539 453.7955469396607 L 467.04069228392 453.9614291578016 L 467.90604718245 452.8956184485681 L 468.77140208097 450.0575991262965 L 469.6367569795 451.5633852502305 L 470.50211187803 445.621441187017 L 471.36746677655 451.7704444208492 L 472.23282167508 442.010932705215 L 473.09817657361 453.8501017207966 L 473.96353147213 454.4520759797932 L 474.82888637066 444.218965017964 L 475.69424126919 448.6474727859173 L 476.55959616771 444.953317058151 L 477.42495106624 452.4875233085537 L 478.29030596477 448.2008682380637 L 479.15566086329 453.2132142886943 L 480.02101576182 453.9778033855994 L 480.88637066035 451.9534199084946 L 481.75172555888 453.510651482494 L 482.6170804574 447.5207437922577 L 483.48243535593 448.7015080881222 L 484.34779025446 446.2140105219309 L 485.21314515298 452.9137692696432 L 486.07850005151 453.2264310574077 L 486.94385495004 442.07094155012 L 487.80920984856 444.992965556669 L 488.67456474709 452.8589521992118 L 489.53991964562 437.475068997862 L 490.40527454414 449.7399386993913 L 491.27062944267 449.92925662884 L 492.1359843412 453.4085818794876 L 493.00133923972 453.544944877767 L 493.86669413825 448.6673808135339 L 494.73204903678 452.0081131781255 L 495.5974039353 452.6498684772115 L 496.46275883383 449.9480890327148 L 497.32811373236 453.4003196394556 L 498.19346863088 453.5257144331576 L 499.05882352941 451.5897288465865 L 499.05882352941 456 L 498.19346863088 456 L 497.32811373236 456 L 496.46275883383 456 L 495.5974039353 456 L 494.73204903678 456 L 493.86669413825 456 L 493.00133923972 456 L 492.1359843412 456 L 491.27062944267 456 L 490.40527454414 456 L 489.53991964562 456 L 488.67456474709 456 L 487.80920984856 456 L 486.94385495004 456 L 486.07850005151 456 L 485.21314515298 456 L 484.34779025446 456 L 483.48243535593 456 L 482.6170804574 456 L 481.75172555888 456 L 480.88637066035 456 L 480.02101576182 456 L 479.15566086329 456 L 478.29030596477 456 L 477.42495106624 456 L 476.55959616771 456 L 475.69424126919 456 L 474.82888637066 456 L 473.96353147213 456 L 473.09817657361 456 L 472.23282167508 456 L 471.36746677655 456 L 470.50211187803 456 L 469.6367569795 456 L 468.77140208097 456 L 467.90604718245 456 L 467.04069228392 456 L 466.17533738539 456 L 465.30998248687 456 L 464.44462758834 456 L 463.57927268981 456 L 462.71391779128 456 L 461.84856289276 456 L 460.98320799423 456 L 460.1178530957 456 L 459.25249819718 456 L 458.38714329865 456 L 457.52178840012 456 L 456.6564335016 456 L 455.79107860307 456 L 454.92572370454 456 L 454.06036880602 456 L 453.19501390749 456 L 452.32965900896 456 L 451.46430411044 456 L 450.59894921191 456 L 449.73359431338 456 L 448.86823941486 456 L 448.00288451633 456 L 447.1375296178 456 L 446.27217471927 456 L 445.40681982075 456 L 444.54146492222 456 L 443.67611002369 456 L 442.81075512517 456 L 441.94540022664 456 L 441.08004532811 456 L 440.21469042959 456 L 439.34933553106 456 L 438.48398063253 456 L 437.61862573401 456 L 436.75327083548 456 L 435.88791593695 456 L 435.02256103843 456 L 434.1572061399 456 L 433.29185124137 456 L 432.42649634285 456 L 431.56114144432 456 L 430.69578654579 456 L 429.83043164726 456 L 428.96507674874 456 L 428.09972185021 456 L 427.23436695168 456 L 426.36901205316 456 L 425.50365715463 456 L 424.6383022561 456 L 423.77294735758 456 L 422.90759245905 456 L 422.04223756052 456 L 421.176882662 456 L 420.31152776347 456 L 419.44617286494 456 L 418.58081796642 456 L 417.71546306789 456 L 416.85010816936 456 L 415.98475327084 456 L 415.11939837231 456 L 414.25404347378 456 L 413.38868857525 456 L 412.52333367673 456 L 411.6579787782 456 L 410.79262387967 456 L 409.92726898115 456 L 409.06191408262 456 L 408.19655918409 456 L 407.33120428557 456 L 406.46584938704 456 L 405.60049448851 456 L 404.73513958999 456 L 403.86978469146 456 L 403.00442979293 456 L 402.13907489441 456 L 401.27371999588 456 L 400.40836509735 456 L 399.54301019883 456 L 398.6776553003 456 L 397.81230040177 456 L 396.94694550325 456 L 396.08159060472 456 L 395.21623570619 456 L 394.35088080766 456 L 393.48552590914 456 L 392.62017101061 456 L 391.75481611208 456 L 390.88946121356 456 L 390.02410631503 456 L 389.1587514165 456 L 388.29339651798 456 L 387.42804161945 456 L 386.56268672092 456 L 385.6973318224 456 L 384.83197692387 456 L 383.96662202534 456 L 383.10126712682 456 L 382.23591222829 456 L 381.37055732976 456 L 380.50520243124 456 L 379.63984753271 456 L 378.77449263418 456 L 377.90913773565 456 L 377.04378283713 456 L 376.1784279386 456 L 375.31307304007 456 L 374.44771814155 456 L 373.58236324302 456 L 372.71700834449 456 L 371.85165344597 456 L 370.98629854744 456 L 370.12094364891 456 L 369.25558875039 456 L 368.39023385186 456 L 367.52487895333 456 L 366.65952405481 456 L 365.79416915628 456 L 364.92881425775 456 L 364.06345935923 456 L 363.1981044607 456 L 362.33274956217 456 L 361.46739466364 456 L 360.60203976512 456 L 359.73668486659 456 L 358.87132996806 456 L 358.00597506954 456 L 357.14062017101 456 L 356.27526527248 456 L 355.40991037396 456 L 354.54455547543 456 L 353.6792005769 456 L 352.81384567838 456 L 351.94849077985 456 L 351.08313588132 456 L 350.2177809828 456 L 349.35242608427 456 L 348.48707118574 456 L 347.62171628722 456 L 346.75636138869 456 L 345.89100649016 456 L 345.02565159163 456 L 344.16029669311 456 L 343.29494179458 456 L 342.42958689605 456 L 341.56423199753 456 L 340.698877099 456 L 339.83352220047 456 L 338.96816730195 456 L 338.10281240342 456 L 337.23745750489 456 L 336.37210260637 456 L 335.50674770784 456 L 334.64139280931 456 L 333.77603791079 456 L 332.91068301226 456 L 332.04532811373 456 L 331.17997321521 456 L 330.31461831668 456 L 329.44926341815 456 L 328.58390851963 456 L 327.7185536211 456 L 326.85319872257 456 L 325.98784382404 456 L 325.12248892552 456 L 324.25713402699 456 L 323.39177912846 456 L 322.52642422994 456 L 321.66106933141 456 L 320.79571443288 456 L 319.93035953436 456 L 319.06500463583 456 L 318.1996497373 456 L 317.33429483878 456 L 316.46893994025 456 L 315.60358504172 456 L 314.7382301432 456 L 313.87287524467 456 L 313.00752034614 456 L 312.14216544762 456 L 311.27681054909 456 L 310.41145565056 456 L 309.54610075203 456 L 308.68074585351 456 L 307.81539095498 456 L 306.95003605645 456 L 306.08468115793 456 L 305.2193262594 456 L 304.35397136087 456 L 303.48861646235 456 L 302.62326156382 456 L 301.75790666529 456 L 300.89255176677 456 L 300.02719686824 456 L 299.16184196971 456 L 298.29648707119 456 L 297.43113217266 456 L 296.56577727413 456 L 295.70042237561 456 L 294.83506747708 456 L 293.96971257855 456 L 293.10435768002 456 L 292.2390027815 456 L 291.37364788297 456 L 290.50829298444 456 L 289.64293808592 456 L 288.77758318739 456 L 287.91222828886 456 L 287.04687339034 456 L 286.18151849181 456 L 285.31616359328 456 L 284.45080869476 456 L 283.58545379623 456 L 282.7200988977 456 L 281.85474399918 456 L 280.98938910065 456 L 280.12403420212 456 L 279.2586793036 456 L 278.39332440507 456 L 277.52796950654 456 L 276.66261460801 456 L 275.79725970949 456 L 274.93190481096 456 L 274.06654991243 456 L 273.20119501391 456 L 272.33584011538 456 L 271.47048521685 456 L 270.60513031833 456 L 269.7397754198 456 L 268.87442052127 456 L 268.00906562275 456 L 267.14371072422 456 L 266.27835582569 456 L 265.41300092717 456 L 264.54764602864 456 L 263.68229113011 456 L 262.81693623159 456 L 261.95158133306 456 L 261.08622643453 456 L 260.220871536 456 L 259.35551663748 456 L 258.49016173895 456 L 257.62480684042 456 L 256.7594519419 456 L 255.89409704337 456 L 255.02874214484 456 L 254.16338724632 456 L 253.29803234779 456 L 252.43267744926 456 L 251.56732255074 456 L 250.70196765221 456 L 249.83661275368 456 L 248.97125785516 456 L 248.10590295663 456 L 247.2405480581 456 L 246.37519315958 456 L 245.50983826105 456 L 244.64448336252 456 L 243.779128464 456 L 242.91377356547 456 L 242.04841866694 456 L 241.18306376841 456 L 240.31770886989 456 L 239.45235397136 456 L 238.58699907283 456 L 237.72164417431 456 L 236.85628927578 456 L 235.99093437725 456 L 235.12557947873 456 L 234.2602245802 456 L 233.39486968167 456 L 232.52951478315 456 L 231.66415988462 456 L 230.79880498609 456 L 229.93345008757 456 L 229.06809518904 456 L 228.20274029051 456 L 227.33738539199 456 L 226.47203049346 456 L 225.60667559493 456 L 224.7413206964 456 L 223.87596579788 456 L 223.01061089935 456 L 222.14525600082 456 L 221.2799011023 456 L 220.41454620377 456 L 219.54919130524 456 L 218.68383640672 456 L 217.81848150819 456 L 216.95312660966 456 L 216.08777171114 456 L 215.22241681261 456 L 214.35706191408 456 L 213.49170701556 456 L 212.62635211703 456 L 211.7609972185 456 L 210.89564231998 456 L 210.03028742145 456 L 209.16493252292 456 L 208.29957762439 456 L 207.43422272587 456 L 206.56886782734 456 L 205.70351292881 456 L 204.83815803029 456 L 203.97280313176 456 L 203.10744823323 456 L 202.24209333471 456 L 201.37673843618 456 L 200.51138353765 456 L 199.64602863913 456 L 198.7806737406 456 L 197.91531884207 456 L 197.04996394355 456 L 196.18460904502 456 L 195.31925414649 456 L 194.45389924797 456 L 193.58854434944 456 L 192.72318945091 456 L 191.85783455238 456 L 190.99247965386 456 L 190.12712475533 456 L 189.2617698568 456 L 188.39641495828 456 L 187.53106005975 456 L 186.66570516122 456 L 185.8003502627 456 L 184.93499536417 456 L 184.06964046564 456 L 183.20428556712 456 L 182.33893066859 456 L 181.47357577006 456 L 180.60822087154 456 L 179.74286597301 456 L 178.87751107448 456 L 178.01215617596 456 L 177.14680127743 456 L 176.2814463789 456 L 175.41609148037 456 L 174.55073658185 456 L 173.68538168332 456 L 172.82002678479 456 L 171.95467188627 456 L 171.08931698774 456 L 170.22396208921 456 L 169.35860719069 456 L 168.49325229216 456 L 167.62789739363 456 L 166.76254249511 456 L 165.89718759658 456 L 165.03183269805 456 L 164.16647779953 456 L 163.301122901 456 L 162.43576800247 456 L 161.57041310395 456 L 160.70505820542 456 L 159.83970330689 456 L 158.97434840837 456 L 158.10899350984 456 L 157.24363861131 456 L 156.37828371278 456 L 155.51292881426 456 L 154.64757391573 456 L 153.7822190172 456 L 152.91686411868 456 L 152.05150922015 456 L 151.18615432162 456 L 150.3207994231 456 L 149.45544452457 456 L 148.59008962604 456 L 147.72473472752 456 L 146.85937982899 456 L 145.99402493046 456 L 145.12867003194 456 L 144.26331513341 456 L 143.39796023488 456 L 142.53260533636 456 L 141.66725043783 456 L 140.8018955393 456 L 139.93654064077 456 L 139.07118574225 456 L 138.20583084372 456 L 137.34047594519 456 L 136.47512104667 456 L 135.60976614814 456 L 134.74441124961 456 L 133.87905635109 456 L 133.01370145256 456 L 132.14834655403 456 L 131.28299165551 456 L 130.41763675698 456 L 129.55228185845 456 L 128.68692695993 456 L 127.8215720614 456 L 126.95621716287 456 L 126.09086226435 456 L 125.22550736582 456 L 124.36015246729 456 L 123.49479756876 456 L 122.62944267024 456 L 121.76408777171 456 L 120.89873287318 456 L 120.03337797466 456 L 119.16802307613 456 L 118.3026681776 456 L 117.43731327908 456 L 116.57195838055 456 L 115.70660348202 456 L 114.8412485835 456 L 113.97589368497 456 L 113.11053878644 456 L 112.24518388792 456 L 111.37982898939 456 L 110.51447409086 456 L 109.64911919234 456 L 108.78376429381 456 L 107.91840939528 456 L 107.05305449675 456 L 106.18769959823 456 L 105.3223446997 456 L 104.45698980117 456 L 103.59163490265 456 L 102.72628000412 456 L 101.86092510559 456 L 100.99557020707 456 L 100.13021530854 456 L 99.264860410013 456 L 98.399505511487 456 L 97.53415061296 456 L 96.668795714433 456 L 95.803440815906 456 L 94.938085917379 456 L 94.072731018852 456 L 93.207376120326 456 L 92.342021221799 456 L 91.476666323272 456 L 90.611311424745 456 L 89.745956526218 456 L 88.880601627691 456 L 88.015246729165 456 L 87.149891830638 456 L 86.284536932111 456 L 85.419182033584 456 L 84.553827135057 456 L 83.68847223653 456 L 82.823117338003 456 L 81.957762439477 456 L 81.09240754095 456 L 80.227052642423 456 L 79.361697743896 456 L 78.496342845369 456 L 77.630987946842 456 L 76.765633048316 456 L 75.900278149789 456 L 75.034923251262 456 L 74.169568352735 456 L 73.304213454208 456 L 72.438858555681 456 L 71.573503657155 456 L 70.708148758628 456 L 69.842793860101 456 L 68.977438961574 456 L 68.112084063047 456 L 67.24672916452 456 L 66.381374265994 456 L 65.516019367467 456 L 64.65066446894 456 L 63.785309570413 456 L 62.919954671886 456 L 62.054599773359 456 L 61.189244874833 456 L 60.323889976306 456 L 59.458535077779 456 L 58.593180179252 456 L 57.727825280725 456 L 56.862470382198 456 L 55.997115483672 456 L 55.131760585145 456 L 54.266405686618 456 L 53.401050788091 456 L 52.535695889564 456 L 51.670340991037 456 L 50.804986092511 456 L 49.939631193984 456 L 49.074276295457 456 L 48.20892139693 456 L 47.343566498403 456 L 46.478211599876 456 L 45.61285670135 456 L 44.747501802823 456 L 43.882146904296 456 L 43.016792005769 456 L 42.151437107242 456 L 41.286082208715 456 L 40.420727310189 456 L 39.555372411662 456 L 38.690017513135 456 L 37.824662614608 456 L 36.959307716081 456 L 36.093952817554 456 L 35.228597919028 456 L 34.363243020501 456 L 33.497888121974 456 L 32.632533223447 456 L 31.76717832492 456 L 30.901823426393 456 L 30.036468527866 456 L 29.17111362934 456 L 28.305758730813 456 L 27.440403832286 456 L 26.575048933759 456 L 25.709694035232 456 L 24.844339136705 456 L 23.978984238179 456 L 23.113629339652 456 L 22.248274441125 456 L 21.382919542598 456 L 20.517564644071 456 L 19.652209745544 456 L 18.786854847018 456 L 17.921499948491 456 L 17.056145049964 456 L 16.190790151437 456 L 15.32543525291 456 L 14.460080354383 456 L 13.594725455857 456 L 12.72937055733 456 L 11.864015658803 456 L 10.998660760276 456 L 10.133305861749 456 L 9.2679509632224 456 L 8.4025960646956 456 L 7.5372411661687 456 L 6.6718862676419 456 L 5.8065313691151 456 L 4.9411764705882 456 Z" class="highcharts-area" data-z-index="0"></path><path fill="none" d="M 4.9411764705882 456 L 5.8065313691151 456 L 6.6718862676419 456 L 7.5372411661687 456 L 8.4025960646956 456 L 9.2679509632224 456 L 10.133305861749 456 L 10.998660760276 456 L 11.864015658803 456 L 12.72937055733 456 L 13.594725455857 456 L 14.460080354383 456 L 15.32543525291 456 L 16.190790151437 456 L 17.056145049964 456 L 17.921499948491 456 L 18.786854847018 456 L 19.652209745544 456 L 20.517564644071 456 L 21.382919542598 456 L 22.248274441125 456 L 23.113629339652 456 L 23.978984238179 456 L 24.844339136705 456 L 25.709694035232 456 L 26.575048933759 456 L 27.440403832286 456 L 28.305758730813 456 L 29.17111362934 456 L 30.036468527866 456 L 30.901823426393 456 L 31.76717832492 456 L 32.632533223447 456 L 33.497888121974 456 L 34.363243020501 456 L 35.228597919028 456 L 36.093952817554 456 L 36.959307716081 456 L 37.824662614608 456 L 38.690017513135 456 L 39.555372411662 456 L 40.420727310189 456 L 41.286082208715 456 L 42.151437107242 456 L 43.016792005769 456 L 43.882146904296 456 L 44.747501802823 456 L 45.61285670135 456 L 46.478211599876 456 L 47.343566498403 456 L 48.20892139693 456 L 49.074276295457 456 L 49.939631193984 456 L 50.804986092511 456 L 51.670340991037 456 L 52.535695889564 456 L 53.401050788091 456 L 54.266405686618 456 L 55.131760585145 456 L 55.997115483672 456 L 56.862470382198 456 L 57.727825280725 456 L 58.593180179252 456 L 59.458535077779 456 L 60.323889976306 456 L 61.189244874833 456 L 62.054599773359 456 L 62.919954671886 456 L 63.785309570413 456 L 64.65066446894 456 L 65.516019367467 456 L 66.381374265994 456 L 67.24672916452 456 L 68.112084063047 456 L 68.977438961574 456 L 69.842793860101 456 L 70.708148758628 456 L 71.573503657155 456 L 72.438858555681 456 L 73.304213454208 456 L 74.169568352735 456 L 75.034923251262 456 L 75.900278149789 456 L 76.765633048316 456 L 77.630987946842 456 L 78.496342845369 456 L 79.361697743896 456 L 80.227052642423 456 L 81.09240754095 456 L 81.957762439477 456 L 82.823117338003 456 L 83.68847223653 456 L 84.553827135057 456 L 85.419182033584 456 L 86.284536932111 456 L 87.149891830638 456 L 88.015246729165 456 L 88.880601627691 456 L 89.745956526218 456 L 90.611311424745 456 L 91.476666323272 456 L 92.342021221799 456 L 93.207376120326 456 L 94.072731018852 456 L 94.938085917379 456 L 95.803440815906 456 L 96.668795714433 456 L 97.53415061296 456 L 98.399505511487 456 L 99.264860410013 456 L 100.13021530854 456 L 100.99557020707 456 L 101.86092510559 456 L 102.72628000412 456 L 103.59163490265 456 L 104.45698980117 456 L 105.3223446997 456 L 106.18769959823 456 L 107.05305449675 456 L 107.91840939528 456 L 108.78376429381 456 L 109.64911919234 456 L 110.51447409086 456 L 111.37982898939 456 L 112.24518388792 456 L 113.11053878644 456 L 113.97589368497 456 L 114.8412485835 456 L 115.70660348202 456 L 116.57195838055 456 L 117.43731327908 456 L 118.3026681776 456 L 119.16802307613 456 L 120.03337797466 456 L 120.89873287318 456 L 121.76408777171 456 L 122.62944267024 456 L 123.49479756876 456 L 124.36015246729 456 L 125.22550736582 456 L 126.09086226435 456 L 126.95621716287 456 L 127.8215720614 456 L 128.68692695993 456 L 129.55228185845 456 L 130.41763675698 456 L 131.28299165551 456 L 132.14834655403 456 L 133.01370145256 456 L 133.87905635109 456 L 134.74441124961 456 L 135.60976614814 456 L 136.47512104667 456 L 137.34047594519 456 L 138.20583084372 456 L 139.07118574225 456 L 139.93654064077 456 L 140.8018955393 456 L 141.66725043783 456 L 142.53260533636 456 L 143.39796023488 456 L 144.26331513341 456 L 145.12867003194 456 L 145.99402493046 456 L 146.85937982899 456 L 147.72473472752 456 L 148.59008962604 456 L 149.45544452457 456 L 150.3207994231 456 L 151.18615432162 456 L 152.05150922015 456 L 152.91686411868 456 L 153.7822190172 456 L 154.64757391573 456 L 155.51292881426 456 L 156.37828371278 456 L 157.24363861131 456 L 158.10899350984 456 L 158.97434840837 456 L 159.83970330689 456 L 160.70505820542 456 L 161.57041310395 456 L 162.43576800247 456 L 163.301122901 456 L 164.16647779953 456 L 165.03183269805 456 L 165.89718759658 456 L 166.76254249511 456 L 167.62789739363 456 L 168.49325229216 456 L 169.35860719069 456 L 170.22396208921 456 L 171.08931698774 456 L 171.95467188627 456 L 172.82002678479 456 L 173.68538168332 456 L 174.55073658185 456 L 175.41609148037 456 L 176.2814463789 456 L 177.14680127743 456 L 178.01215617596 456 L 178.87751107448 456 L 179.74286597301 456 L 180.60822087154 456 L 181.47357577006 456 L 182.33893066859 456 L 183.20428556712 456 L 184.06964046564 456 L 184.93499536417 456 L 185.8003502627 456 L 186.66570516122 456 L 187.53106005975 456 L 188.39641495828 456 L 189.2617698568 456 L 190.12712475533 456 L 190.99247965386 456 L 191.85783455238 456 L 192.72318945091 456 L 193.58854434944 456 L 194.45389924797 456 L 195.31925414649 456 L 196.18460904502 456 L 197.04996394355 456 L 197.91531884207 456 L 198.7806737406 456 L 199.64602863913 456 L 200.51138353765 456 L 201.37673843618 456 L 202.24209333471 456 L 203.10744823323 442.570258585527 L 203.97280313176 445.836307012331 L 204.83815803029 448.9917066495386 L 205.70351292881 451.6091527975283 L 206.56886782734 451.1621452990661 L 207.43422272587 453.9773426148853 L 208.29957762439 447.4328180152613 L 209.16493252292 446.8583782781587 L 210.03028742145 451.9763853849534 L 210.89564231998 447.1531588739598 L 211.7609972185 450.0937645855042 L 212.62635211703 454.1075600028788 L 213.49170701556 452.5116680332748 L 214.35706191408 448.2022555304704 L 215.22241681261 451.2037099643113 L 216.08777171114 447.874968384304 L 216.95312660966 452.1682415764735 L 217.81848150819 358.798731852702 L 218.68383640672 439.967686643032 L 219.54919130524 451.6361519062851 L 220.41454620377 449.8693500527836 L 221.2799011023 446.1359637679811 L 222.14525600082 444.312864137097 L 223.01061089935 439.201304298167 L 223.87596579788 445.07311965735 L 224.7413206964 435.403389073945 L 225.60667559493 439.510258466871 L 226.47203049346 437.575801403278 L 227.33738539199 441.183832179573 L 228.20274029051 341.98747036090003 L 229.06809518904 436.54960795415 L 229.93345008757 424.211966246367 L 230.79880498609 451.262036200149 L 231.66415988462 443.888818681182 L 232.52951478315 444.495738917522 L 233.39486968167 426.275234256779 L 234.2602245802 428.16171929382 L 235.12557947873 374.83535170441 L 235.99093437725 324.64266113367 L 236.85628927578 426.521365049918 L 237.72164417431 380.064354950128 L 238.58699907283 306.90343710771003 L 239.45235397136 187.32395247428002 L 240.31770886989 380.795633282485 L 241.18306376841 331.81259779902 L 242.04841866694 408.525199978294 L 242.91377356547 436.777677085391 L 243.779128464 432.901020688177 L 244.64448336252 407.497376828694 L 245.50983826105 397.936713933229 L 246.37519315958 386.44137627662496 L 247.2405480581 406.938254414989 L 248.10590295663 409.964811773378 L 248.97125785516 427.061270833785 L 249.83661275368 431.935034425737 L 250.70196765221 414.73371568689197 L 251.56732255074 403.458541467096 L 252.43267744926 410.296816243648 L 253.29803234779 405.601598582015 L 254.16338724632 425.451999735268 L 255.02874214484 421.72456169032 L 255.89409704337 413.587371393063 L 256.7594519419 405.388346158802 L 257.62480684042 418.919685463916 L 258.49016173895 413.566884555795 L 259.35551663748 425.067170376033 L 260.220871536 277.05614831492 L 261.08622643453 409.266886231426 L 261.95158133306 438.356818311811 L 262.81693623159 412.088850917721 L 263.68229113011 434.71797914442 L 264.54764602864 440.332155553131 L 265.41300092717 427.355695870256 L 266.27835582569 447.5038270771041 L 267.14371072422 450.9670295168338 L 268.00906562275 447.6945163540999 L 268.87442052127 447.5281153768987 L 269.7397754198 444.716435944766 L 270.60513031833 444.741751683228 L 271.47048521685 434.135310297921 L 272.33584011538 429.53151069503 L 273.20119501391 432.212126787479 L 274.06654991243 437.488029314763 L 274.93190481096 430.041370135365 L 275.79725970949 428.383361321278 L 276.66261460801 444.096912133445 L 277.52796950654 440.134092087163 L 278.39332440507 438.196203396799 L 279.2586793036 442.43490030817 L 280.12403420212 441.410328036584 L 280.98938910065 446.4810334190689 L 281.85474399918 447.7245155892252 L 282.7200988977 429.944111284129 L 283.58545379623 396.27407947020697 L 284.45080869476 410.03971842122803 L 285.31616359328 447.8309188839013 L 286.18151849181 452.2420830193785 L 287.04687339034 446.6311746824339 L 287.91222828886 447.5468727604888 L 288.77758318739 445.208572778853 L 289.64293808592 437.991324650918 L 290.50829298444 450.2379348335319 L 291.37364788297 451.0295586111023 L 292.2390027815 449.222843882362 L 293.10435768002 444.385114913548 L 293.96971257855 429.414673327382 L 294.83506747708 436.48397836351603 L 295.70042237561 445.535149561868 L 296.56577727413 440.103427109567 L 297.43113217266 448.7283006294568 L 298.29648707119 447.0769377345635 L 299.16184196971 435.433296351629 L 300.02719686824 444.783511753004 L 300.89255176677 432.42849374073 L 301.75790666529 429.814851229116 L 302.62326156382 417.046353209644 L 303.48861646235 443.001338180629 L 304.35397136087 447.5941316040627 L 305.2193262594 447.674739801701 L 306.08468115793 448.7277847736507 L 306.95003605645 438.066106335306 L 307.81539095498 443.370286949995 L 308.68074585351 449.3560321128881 L 309.54610075203 451.2451475016641 L 310.41145565056 454.3923315739197 L 311.27681054909 445.317275733523 L 312.14216544762 379.154645944673 L 313.00752034614 431.673652567765 L 313.87287524467 431.42261699471 L 314.7382301432 394.794969057882 L 315.60358504172 432.098363715621 L 316.46893994025 447.0241741382303 L 317.33429483878 417.075593461038 L 318.1996497373 441.795056803012 L 319.06500463583 432.029670886673 L 319.93035953436 436.226252667948 L 320.79571443288 408.396015945771 L 321.66106933141 425.473889706765 L 322.52642422994 433.537208146842 L 323.39177912846 365.263301739044 L 324.25713402699 420.029762761858 L 325.12248892552 370.448680265931 L 325.98784382404 381.38380720441 L 326.85319872257 406.436928392906 L 327.7185536211 351.04578323553 L 328.58390851963 423.421238322668 L 329.44926341815 401.400448125384 L 330.31461831668 406.041198143844 L 331.17997321521 425.774290093476 L 332.04532811373 434.83729445135 L 332.91068301226 403.509463936157 L 333.77603791079 431.596713530246 L 334.64139280931 430.831147975206 L 335.50674770784 430.294870281427 L 336.37210260637 418.531630300191 L 337.23745750489 55.595649094270016 L 338.10281240342 419.468387988902 L 338.96816730195 394.910882108736 L 339.83352220047 435.674784424899 L 340.698877099 424.956388903109 L 341.56423199753 339.58219022327 L 342.42958689605 396.833705818686 L 343.29494179458 429.121954301845 L 344.16029669311 421.885293858932 L 345.02565159163 438.811589272178 L 345.89100649016 440.225315031921 L 346.75636138869 425.646968913566 L 347.62171628722 436.904519966774 L 348.48707118574 443.298817675619 L 349.35242608427 420.977016029751 L 350.2177809828 412.917221267989 L 351.08313588132 440.246045730643 L 351.94849077985 443.301484744504 L 352.81384567838 437.176590804878 L 353.6792005769 365.971576332172 L 354.54455547543 428.234024164755 L 355.40991037396 267.40350611761 L 356.27526527248 384.57367122804897 L 357.14062017101 401.75084396259797 L 358.00597506954 432.554106821522 L 358.87132996806 425.652797700425 L 359.73668486659 440.829085471531 L 360.60203976512 439.805997188279 L 361.46739466364 435.641564142762 L 362.33274956217 434.765057839026 L 363.1981044607 427.729848940711 L 364.06345935923 448.9896239893016 L 364.92881425775 445.289163165048 L 365.79416915628 431.380634885173 L 366.65952405481 447.392087011194 L 367.52487895333 448.5070060677835 L 368.39023385186 445.58211046059 L 369.25558875039 443.096047128285 L 370.12094364891 451.49689521992 L 370.98629854744 448.2016823498789 L 371.85165344597 447.6726347796594 L 372.71700834449 435.074900587598 L 373.58236324302 439.182968060571 L 374.44771814155 447.4227618807542 L 375.31307304007 451.8289785133965 L 376.1784279386 451.5583894551879 L 377.04378283713 453.7407601775217 L 377.90913773565 450.4233086875284 L 378.77449263418 449.2023935568233 L 379.63984753271 450.4916586116746 L 380.50520243124 449.4604561921706 L 381.37055732976 440.806262959906 L 382.23591222829 448.4563722985528 L 383.10126712682 446.0824822214314 L 383.96662202534 435.319833467156 L 384.83197692387 444.989251160888 L 385.6973318224 445.494526914589 L 386.56268672092 432.431575388074 L 387.42804161945 443.368656982366 L 388.29339651798 449.933812962398 L 389.1587514165 453.4026730004884 L 390.02410631503 437.762531328858 L 390.88946121356 448.2795510391671 L 391.75481611208 450.6929087332461 L 392.62017101061 449.7112433659888 L 393.48552590914 448.5321880882383 L 394.35088080766 441.50681058387 L 395.21623570619 445.459131805346 L 396.08159060472 450.487218876166 L 396.94694550325 448.2040940568735 L 397.81230040177 452.0482368327454 L 398.6776553003 444.6408311404 L 399.54301019883 451.2393332156308 L 400.40836509735 450.9258693394109 L 401.27371999588 453.6604513872981 L 402.13907489441 451.361583141443 L 403.00442979293 417.407799473608 L 403.86978469146 451.1642884715374 L 404.73513958999 451.1757951799287 L 405.60049448851 450.1745871536344 L 406.46584938704 451.383108270846 L 407.33120428557 452.8292573345331 L 408.19655918409 451.1139008790542 L 409.06191408262 453.7125341460788 L 409.92726898115 449.414312776785 L 410.79262387967 452.697594171803 L 411.6579787782 452.231054272562 L 412.52333367673 452.7941961403545 L 413.38868857525 451.6614749622093 L 414.25404347378 446.0724502610812 L 415.11939837231 441.938581699889 L 415.98475327084 441.417058105753 L 416.85010816936 450.738860678455 L 417.71546306789 449.6864033796736 L 418.58081796642 452.438328176699 L 419.44617286494 451.3829214411805 L 420.31152776347 450.2644106434739 L 421.176882662 450.5321372607671 L 422.04223756052 449.3156865744807 L 422.90759245905 451.346414733364 L 423.77294735758 448.656306373511 L 424.6383022561 449.3770775492846 L 425.50365715463 449.7886328398638 L 426.36901205316 451.6958955411958 L 427.23436695168 447.8490025640765 L 428.09972185021 447.9946184132945 L 428.96507674874 448.4880627693648 L 429.83043164726 440.08450352538 L 430.69578654579 446.5000092269756 L 431.56114144432 444.737004999357 L 432.42649634285 434.405360315218 L 433.29185124137 445.138319911227 L 434.1572061399 435.012281773284 L 435.02256103843 441.012078157593 L 435.88791593695 443.567999247385 L 436.75327083548 449.2432391758886 L 437.61862573401 437.3140725194 L 438.48398063253 442.55351348959 L 439.34933553106 449.300474274176 L 440.21469042959 449.7976535707029 L 441.08004532811 449.8933989478644 L 441.94540022664 430.727491496887 L 442.81075512517 449.6561987515271 L 443.67611002369 455.58063256733476 L 444.54146492222 446.4581452646848 L 445.40681982075 447.6921595163497 L 446.27217471927 439.749149931087 L 447.1375296178 448.6085863241853 L 448.00288451633 448.3178901032737 L 448.86823941486 450.1018015624917 L 449.73359431338 453.4580065612571 L 450.59894921191 453.095685473156 L 451.46430411044 449.156626621309 L 452.32965900896 408.78766249845603 L 453.19501390749 436.632507354417 L 454.06036880602 439.687721560586 L 454.92572370454 452.7133676244718 L 455.79107860307 452.0791097150357 L 456.6564335016 451.9569567454278 L 457.52178840012 446.910717061504 L 458.38714329865 450.5411379262924 L 459.25249819718 441.379456330286 L 460.1178530957 449.3234852613181 L 460.98320799423 452.522679234669 L 461.84856289276 451.905769716556 L 462.71391779128 444.536395323537 L 463.57927268981 443.889018057098 L 464.44462758834 453.0424556017328 L 465.30998248687 451.0471678934162 L 466.17533738539 453.7955469396607 L 467.04069228392 453.9614291578016 L 467.90604718245 452.8956184485681 L 468.77140208097 450.0575991262965 L 469.6367569795 451.5633852502305 L 470.50211187803 445.621441187017 L 471.36746677655 451.7704444208492 L 472.23282167508 442.010932705215 L 473.09817657361 453.8501017207966 L 473.96353147213 454.4520759797932 L 474.82888637066 444.218965017964 L 475.69424126919 448.6474727859173 L 476.55959616771 444.953317058151 L 477.42495106624 452.4875233085537 L 478.29030596477 448.2008682380637 L 479.15566086329 453.2132142886943 L 480.02101576182 453.9778033855994 L 480.88637066035 451.9534199084946 L 481.75172555888 453.510651482494 L 482.6170804574 447.5207437922577 L 483.48243535593 448.7015080881222 L 484.34779025446 446.2140105219309 L 485.21314515298 452.9137692696432 L 486.07850005151 453.2264310574077 L 486.94385495004 442.07094155012 L 487.80920984856 444.992965556669 L 488.67456474709 452.8589521992118 L 489.53991964562 437.475068997862 L 490.40527454414 449.7399386993913 L 491.27062944267 449.92925662884 L 492.1359843412 453.4085818794876 L 493.00133923972 453.544944877767 L 493.86669413825 448.6673808135339 L 494.73204903678 452.0081131781255 L 495.5974039353 452.6498684772115 L 496.46275883383 449.9480890327148 L 497.32811373236 453.4003196394556 L 498.19346863088 453.5257144331576 L 499.05882352941 451.5897288465865" class="highcharts-graph" data-z-index="1" stroke="rgb(3, 63, 64)" stroke-opacity=" 1" stroke-width="1" stroke-linejoin="round" stroke-linecap="round"></path></g><g class="highcharts-markers highcharts-series-0 highcharts-area-series" data-z-index="0.1" opacity="1" transform="translate(86,59) scale(1 1)" clip-path="none"></g></g><text x="300" text-anchor="middle" class="highcharts-title" data-z-index="4" style="color: rgb(51, 51, 51); font-size: 18px; fill: rgb(51, 51, 51);" y="24">Transaction Volume Chart</text><text x="300" text-anchor="middle" class="highcharts-subtitle" data-z-index="4" style="color: rgb(102, 102, 102); fill: rgb(102, 102, 102);" y="44">Source: NearBlocks.io</text><text x="10" text-anchor="start" class="highcharts-caption" data-z-index="4" style="color: rgb(102, 102, 102); fill: rgb(102, 102, 102);" y="547"></text><g class="highcharts-axis-labels highcharts-xaxis-labels" data-z-index="7"><text x="117.10013392397" text-anchor="middle" transform="translate(0,0)" style="color: rgb(102, 102, 102); cursor: default; font-size: 11px; fill: rgb(102, 102, 102);" y="534" opacity="1">May '21</text><text x="223.53878644277" text-anchor="middle" transform="translate(0,0)" style="color: rgb(102, 102, 102); cursor: default; font-size: 11px; fill: rgb(102, 102, 102);" y="534" opacity="1">Sep '21</text><text x="329.11208406305" text-anchor="middle" transform="translate(0,0)" style="color: rgb(102, 102, 102); cursor: default; font-size: 11px; fill: rgb(102, 102, 102);" y="534" opacity="1">Jan '22</text><text x="432.95467188627" text-anchor="middle" transform="translate(0,0)" style="color: rgb(102, 102, 102); cursor: default; font-size: 11px; fill: rgb(102, 102, 102);" y="534" opacity="1">May '22</text><text x="539.39332440507" text-anchor="middle" transform="translate(0,0)" style="color: rgb(102, 102, 102); cursor: default; font-size: 11px; fill: rgb(102, 102, 102);" y="534" opacity="1">Sep '22</text></g><g class="highcharts-axis-labels highcharts-yaxis-labels" data-z-index="7"><text x="71" text-anchor="end" transform="translate(0,0)" style="color: rgb(102, 102, 102); cursor: default; font-size: 11px; fill: rgb(102, 102, 102);" y="520" opacity="1">0</text><text x="71" text-anchor="end" transform="translate(0,0)" style="color: rgb(102, 102, 102); cursor: default; font-size: 11px; fill: rgb(102, 102, 102);" y="455" opacity="1">200M</text><text x="71" text-anchor="end" transform="translate(0,0)" style="color: rgb(102, 102, 102); cursor: default; font-size: 11px; fill: rgb(102, 102, 102);" y="390" opacity="1">400M</text><text x="71" text-anchor="end" transform="translate(0,0)" style="color: rgb(102, 102, 102); cursor: default; font-size: 11px; fill: rgb(102, 102, 102);" y="325" opacity="1">600M</text><text x="71" text-anchor="end" transform="translate(0,0)" style="color: rgb(102, 102, 102); cursor: default; font-size: 11px; fill: rgb(102, 102, 102);" y="259" opacity="1">800M</text><text x="71" text-anchor="end" transform="translate(0,0)" style="color: rgb(102, 102, 102); cursor: default; font-size: 11px; fill: rgb(102, 102, 102);" y="194" opacity="1">1 000M</text><text x="71" text-anchor="end" transform="translate(0,0)" style="color: rgb(102, 102, 102); cursor: default; font-size: 11px; fill: rgb(102, 102, 102);" y="129" opacity="1">1 200M</text><text x="71" text-anchor="end" transform="translate(0,0)" style="color: rgb(102, 102, 102); cursor: default; font-size: 11px; fill: rgb(102, 102, 102);" y="64" opacity="1">1 400M</text></g></svg>