<?xml version="1.0" standalone="no"?><!DOCTYPE svg PUBLIC "-//W3C//DTD SVG 1.1//EN" "http://www.w3.org/Graphics/SVG/1.1/DTD/svg11.dtd"><svg xmlns:xlink="http://www.w3.org/1999/xlink" version="1.1" class="highcharts-root" style="font-family: &quot;Lucida Grande&quot;, &quot;Lucida Sans Unicode&quot;, Arial, Helvetica, sans-serif; font-size: 12px;" xmlns="http://www.w3.org/2000/svg" width="600" height="550" viewBox="0 0 600 550"><desc>Created with Highcharts 10.1.0</desc><defs><clipPath id="highcharts-iil2ug7-1159-"><rect x="0" y="0" width="507" height="456" fill="none"></rect></clipPath><clipPath id="highcharts-iil2ug7-1732-"><rect x="0" y="0" width="507" height="456" fill="none"></rect></clipPath><linearGradient x1="0" y1="0" x2="0" y2="1" id="highcharts-iil2ug7-1733"><stop offset="0" stop-color="rgb(3,63,64)" stop-opacity="0.8"></stop><stop offset="1" stop-color="rgb(3,63,64)" stop-opacity="0"></stop></linearGradient></defs><rect fill="none" class="highcharts-background" x="0" y="0" width="600" height="550" rx="0" ry="0"></rect><rect fill="none" class="highcharts-plot-background" x="83" y="59" width="507" height="456"></rect><g class="highcharts-grid highcharts-xaxis-grid" data-z-index="1"><path fill="none" stroke-dasharray="none" data-z-index="1" class="highcharts-grid-line" d="M 113.5 59 L 113.5 515" opacity="1"></path><path fill="none" stroke-dasharray="none" data-z-index="1" class="highcharts-grid-line" d="M 220.5 59 L 220.5 515" opacity="1"></path><path fill="none" stroke-dasharray="none" data-z-index="1" class="highcharts-grid-line" d="M 327.5 59 L 327.5 515" opacity="1"></path><path fill="none" stroke-dasharray="none" data-z-index="1" class="highcharts-grid-line" d="M 431.5 59 L 431.5 515" opacity="1"></path><path fill="none" stroke-dasharray="none" data-z-index="1" class="highcharts-grid-line" d="M 538.5 59 L 538.5 515" opacity="1"></path></g><g class="highcharts-grid highcharts-yaxis-grid" data-z-index="1"><path fill="none" stroke="#e6e6e6" stroke-width="1" stroke-dasharray="none" data-z-index="1" class="highcharts-grid-line" d="M 83 515.5 L 590 515.5" opacity="1"></path><path fill="none" stroke="#e6e6e6" stroke-width="1" stroke-dasharray="none" data-z-index="1" class="highcharts-grid-line" d="M 83 464.5 L 590 464.5" opacity="1"></path><path fill="none" stroke="#e6e6e6" stroke-width="1" stroke-dasharray="none" data-z-index="1" class="highcharts-grid-line" d="M 83 414.5 L 590 414.5" opacity="1"></path><path fill="none" stroke="#e6e6e6" stroke-width="1" stroke-dasharray="none" data-z-index="1" class="highcharts-grid-line" d="M 83 363.5 L 590 363.5" opacity="1"></path><path fill="none" stroke="#e6e6e6" stroke-width="1" stroke-dasharray="none" data-z-index="1" class="highcharts-grid-line" d="M 83 312.5 L 590 312.5" opacity="1"></path><path fill="none" stroke="#e6e6e6" stroke-width="1" stroke-dasharray="none" data-z-index="1" class="highcharts-grid-line" d="M 83 262.5 L 590 262.5" opacity="1"></path><path fill="none" stroke="#e6e6e6" stroke-width="1" stroke-dasharray="none" data-z-index="1" class="highcharts-grid-line" d="M 83 211.5 L 590 211.5" opacity="1"></path><path fill="none" stroke="#e6e6e6" stroke-width="1" stroke-dasharray="none" data-z-index="1" class="highcharts-grid-line" d="M 83 160.5 L 590 160.5" opacity="1"></path><path fill="none" stroke="#e6e6e6" stroke-width="1" stroke-dasharray="none" data-z-index="1" class="highcharts-grid-line" d="M 83 110.5 L 590 110.5" opacity="1"></path><path fill="none" stroke="#e6e6e6" stroke-width="1" stroke-dasharray="none" data-z-index="1" class="highcharts-grid-line" d="M 83 58.5 L 590 58.5" opacity="1"></path></g><rect fill="none" class="highcharts-plot-border" data-z-index="1" x="83" y="59" width="507" height="456"></rect><g class="highcharts-axis highcharts-xaxis" data-z-index="2"><path fill="none" class="highcharts-tick" stroke="#ccd6eb" stroke-width="1" d="M 113.5 515 L 113.5 525" opacity="1"></path><path fill="none" class="highcharts-tick" stroke="#ccd6eb" stroke-width="1" d="M 220.5 515 L 220.5 525" opacity="1"></path><path fill="none" class="highcharts-tick" stroke="#ccd6eb" stroke-width="1" d="M 327.5 515 L 327.5 525" opacity="1"></path><path fill="none" class="highcharts-tick" stroke="#ccd6eb" stroke-width="1" d="M 431.5 515 L 431.5 525" opacity="1"></path><path fill="none" class="highcharts-tick" stroke="#ccd6eb" stroke-width="1" d="M 538.5 515 L 538.5 525" opacity="1"></path><path fill="none" class="highcharts-axis-line" stroke="#ccd6eb" stroke-width="1" data-z-index="7" d="M 83 515.5 L 590 515.5"></path></g><g class="highcharts-axis highcharts-yaxis" data-z-index="2"><text x="24.47314453125" data-z-index="7" text-anchor="middle" transform="translate(0,0) rotate(270 24.47314453125 287)" class="highcharts-axis-title" style="color: rgb(102, 102, 102); fill: rgb(102, 102, 102);" y="287">Transactions per Day</text><path fill="none" class="highcharts-axis-line" data-z-index="7" d="M 83 59 L 83 515"></path></g><g class="highcharts-series-group" data-z-index="3"><g class="highcharts-series highcharts-series-0 highcharts-area-series" data-z-index="0.1" opacity="1" transform="translate(83,59) scale(1 1)" clip-path="url(#highcharts-iil2ug7-1732-)"><path fill="url(#highcharts-iil2ug7-1733)" d="M 4.9705882352941 453.7116906666667 L 5.841094055836 453.5852266666667 L 6.7115998763779 454.0144746666667 L 7.5821056969197 453.9439466666667 L 8.4526115174616 453.600832 L 9.3231173380035 452.9184533333333 L 10.193623158545 452.2622186666667 L 11.064128979087 452.6963306666667 L 11.934634799629 449.6662613333333 L 12.805140620171 451.3490026666667 L 13.675646440713 450.8133546666667 L 14.546152261255 445.760064 L 15.416658081797 443.191669333333 L 16.287163902339 442.910368 L 17.15766972288 446.565056 L 18.028175543422 449.2029653333333 L 18.898681363964 449.270656 L 19.769187184506 451.381632 L 20.639693005048 449.3571946666667 L 21.51019882559 449.0446826666667 L 22.380704646132 446.9193173333333 L 23.251210466674 446.467776 L 24.121716287215 444.605877333333 L 24.992222107757 448.20544 L 25.862727928299 446.5520853333333 L 26.733233748841 440.498026666667 L 27.603739569383 435.777312 L 28.474245389925 435.781973333333 L 29.344751210467 441.618368 L 30.215257031009 444.532917333333 L 31.08576285155 444.83529599999997 L 31.956268672092 445.361013333333 L 32.826774492634 443.798453333333 L 33.697280313176 443.753866666667 L 34.567786133718 443.695904 L 35.43829195426 441.98864 L 36.308797774802 440.953621333333 L 37.179303595344 443.097226666667 L 38.049809415885 442.943402666667 L 38.920315236427 445.627925333333 L 39.790821056969 441.548650666667 L 40.661326877511 441.777664 L 41.531832698053 442.060586666667 L 42.402338518595 440.716704 L 43.272844339137 421.864245333333 L 44.143350159679 442.515168 L 45.01385598022 436.942442666667 L 45.884361800762 425.188789333333 L 46.754867621304 416.956874666667 L 47.625373441846 429.001354666667 L 48.495879262388 431.790453333333 L 49.36638508293 428.020448 L 50.236890903472 436.546837333333 L 51.107396724014 434.773504 L 51.977902544555 433.805973333333 L 52.848408365097 430.388608 L 53.718914185639 430.318688 L 54.589420006181 432.586528 L 55.459925826723 430.000298666667 L 56.330431647265 431.537728 L 57.200937467807 429.561930666667 L 58.071443288349 430.4336 L 58.94194910889 429.454517333333 L 59.812454929432 428.642837333333 L 60.682960749974 427.723338666667 L 61.553466570516 420.429973333333 L 62.423972391058 426.871125333333 L 63.2944782116 426.92949333333297 L 64.164984032142 426.340138666667 L 65.035489852684 423.940768 L 65.905995673226 424.526677333333 L 66.776501493767 424.008661333333 L 67.647007314309 425.905013333333 L 68.517513134851 427.552490666667 L 69.388018955393 426.728650666667 L 70.258524775935 426.392629333333 L 71.129030596477 424.319146666667 L 71.999536417019 423.712768 L 72.870042237561 422.068128 L 73.740548058102 421.01000533333297 L 74.611053878644 420.946368 L 75.481559699186 418.79708800000003 L 76.352065519728 424.705834666667 L 77.22257134027 424.722858666667 L 78.093077160812 424.823584 L 78.963582981354 426.13504 L 79.834088801896 425.903392 L 80.704594622437 427.311114666667 L 81.575100442979 425.111573333333 L 82.445606263521 424.813653333333 L 83.316112084063 423.94928 L 84.186617904605 423.755328 L 85.057123725147 422.675317333333 L 85.927629545689 423.162122666667 L 86.798135366231 423.525301333333 L 87.668641186772 422.174528 L 88.539147007314 421.237802666667 L 89.409652827856 422.2256 L 90.280158648398 423.172864 L 91.15066446894 422.115754666667 L 92.021170289482 421.918154666667 L 92.891676110024 423.437344 L 93.762181930566 422.284576 L 94.632687751107 420.183125333333 L 95.503193571649 417.755989333333 L 96.373699392191 420.496853333333 L 97.244205212733 420.671146666667 L 98.114711033275 417.149610666667 L 98.985216853817 417.104010666667 L 99.855722674359 416.83770666666703 L 100.7262284949 416.715296 L 101.59673431544 417.073610666667 L 102.46724013598 408.852234666667 L 103.33774595653 408.344757333333 L 104.20825177707 407.902336 L 105.07875759761 409.236693333333 L 105.94926341815 403.863594666667 L 106.81976923869 402.381696 L 107.69027505924 401.183328 L 108.56078087978 404.334389333333 L 109.43128670032 406.708021333333 L 110.30179252086 406.499274666667 L 111.1722983414 405.813248 L 112.04280416194 407.510176 L 112.91330998249 410.216181333333 L 113.78381580303 422.278496 L 114.65432162357 411.672949333333 L 115.52482744411 411.508992 L 116.39533326465 407.783370666667 L 117.2658390852 406.335114666667 L 118.13634490574 406.289514666667 L 119.00685072628 399.889301333333 L 119.87735654682 397.252202666667 L 120.74786236736 396.025258666667 L 121.61836818791 397.81723733333297 L 122.48887400845 401.660810666667 L 123.35937982899 405.793994666667 L 124.22988564953 402.512213333333 L 125.10039147007 400.463050666667 L 125.97089729062 392.798602666667 L 126.84140311116 394.921738666667 L 127.7119089317 401.829429333333 L 128.58241475224 397.534112 L 129.45292057278 396.417621333333 L 130.32342639332 398.509546666667 L 131.19393221387 406.15008 L 132.06443803441 406.358421333333 L 132.93494385495 406.676202666667 L 133.80544967549 400.011509333333 L 134.67595549603 395.269717333333 L 135.54646131658 400.788938666667 L 136.41696713712 400.742122666667 L 137.28747295766 402.414325333333 L 138.1579787782 392.892437333333 L 139.02848459874 395.272352 L 139.89899041929 390.552245333333 L 140.76949623983 392.601002666667 L 141.64000206037 394.098912 L 142.51050788091 398.256010666667 L 143.38101370145 394.850602666667 L 144.25151952199 388.644544 L 145.12202534254 392.269642666667 L 145.99253116308 397.541408 L 146.86303698362 398.21041066666703 L 147.73354280416 399.143082666667 L 148.6040486247 398.601152 L 149.47455444525 388.658730666667 L 150.34506026579 384.662752 L 151.21556608633 389.886688 L 152.08607190687 397.537354666667 L 152.95657772741 399.335818666667 L 153.82708354796 400.548170666667 L 154.6975893685 395.493056 L 155.56809518904 400.602485333333 L 156.43860100958 402.953216 L 157.30910683012 398.849621333333 L 158.17961265066 400.473184 L 159.05011847121 398.067328 L 159.92062429175 397.310570666667 L 160.79113011229 395.567029333333 L 161.66163593283 398.415104 L 162.53214175337 404.015392 L 163.40264757392 404.51293866666697 L 164.27315339446 403.2104 L 165.143659215 399.369056 L 166.01416503554 395.175477333333 L 166.88467085608 392.87662933333297 L 167.75517667663 388.167264 L 168.62568249717 395.076373333333 L 169.49618831771 398.177984 L 170.36669413825 409.295061333333 L 171.23719995879 413.611050666667 L 172.10770577933 418.718858666667 L 172.97821159988 414.144672 L 173.84871742042 416.023594666667 L 174.71922324096 415.429173333333 L 175.5897290615 411.618837333333 L 176.46023488204 414.18784 L 177.33074070259 409.06685866666703 L 178.20124652313 421.108298666667 L 179.07175234367 414.559936 L 179.94225816421 411.270858666667 L 180.81276398475 406.408885333333 L 181.6832698053 408.923776 L 182.55377562584 407.753781333333 L 183.42428144638 405.582410666667 L 184.29478726692 386.199168 L 185.16529308746 383.910656 L 186.035798908 388.675349333333 L 186.90630472855 396.190229333333 L 187.77681054909 402.616992 L 188.64731636963 403.095893333333 L 189.51782219017 405.522826666667 L 190.38832801071 403.22256 L 191.25883383126 401.975552 L 192.1293396518 397.368128 L 192.99984547234 400.474602666667 L 193.87035129288 401.222442666667 L 194.74085711342 399.208544 L 195.61136293397 379.299178666667 L 196.48186875451 403.07664 L 197.35237457505 399.84512 L 198.22288039559 399.725952 L 199.09338621613 391.29380266666703 L 199.96389203667 386.144245333333 L 200.83439785722 400.550805333333 L 201.70490367776 401.661418666667 L 202.5754094983 400.752053333333 L 203.44591531884 398.751530666667 L 204.31642113938 396.641770666667 L 205.18692695993 405.265034666667 L 206.05743278047 386.454933333333 L 206.92793860101 395.363146666667 L 207.79844442155 396.276970666667 L 208.66895024209 396.761952 L 209.53945606264 391.623136 L 210.40996188318 392.443328 L 211.28046770372 393.225418666667 L 212.15097352426 398.764298666667 L 213.0214793448 399.897205333333 L 213.89198516534 408.017856 L 214.76249098589 408.154048 L 215.63299680643 403.125482666667 L 216.50350262697 396.551178666667 L 217.37400844751 402.499242666667 L 218.24451426805 410.117482666667 L 219.1150200886 396.81728 L 219.98552590914 390.67404799999997 L 220.85603172968 398.664384 L 221.72653755022 394.047434666667 L 222.59704337076 391.883157333333 L 223.46754919131 380.579829333333 L 224.33805501185 385.57232 L 225.20856083239 390.06908799999997 L 226.07906665293 388.167264 L 226.94957247347 388.33770666666703 L 227.82007829401 386.661856 L 228.69058411456 381.996266666667 L 229.5610899351 387.0224 L 230.43159575564 383.331637333333 L 231.30210157618 383.679210666667 L 232.17260739672 402.379264 L 233.04311321727 394.286176 L 233.91361903781 391.566186666667 L 234.78412485835 383.522549333333 L 235.65463067889 373.434005333333 L 236.52513649943 365.169461333333 L 237.39564231998 336.49314133333 L 238.26614814052 359.085813333333 L 239.13665396106 344.01511466667 L 240.0071597816 358.375872 L 240.87766560214 371.42274133333297 L 241.74817142268 371.289994666667 L 242.61867724323 375.944437333333 L 243.48918306377 382.4776 L 244.35968888431 386.389877333333 L 245.23019470485 371.795445333333 L 246.10070052539 344.46625066667 L 246.97120634594 335.56350933333 L 247.84171216648 318.64570666667 L 248.71221798702 325.61237333332997 L 249.58272380756 337.951328 L 250.4532296281 328.36478933333 L 251.32373544865 332.85547733333 L 252.19424126919 317.07341866667 L 253.06474708973 309.86497066667 L 253.93525291027 320.12051199999996 L 254.80575873081 327.68018133333 L 255.67626455135 269.852288 L 256.5467703719 221.67092266667 L 257.41727619244 96.83028266666997 L 258.28778201298 140.24128000000002 L 259.15828783352 186.401856 L 260.02879365406 288.18916266667 L 260.89929947461 313.77866666667 L 261.76980529515 342.21563733333 L 262.64031111569 350.79857066667 L 263.51081693623 357.74294399999997 L 264.38132275677 300.384224 L 265.25182857732 297.88534400000003 L 266.12233439786 332.40474666667 L 266.9928402184 319.46772266667 L 267.86334603894 349.59533866667 L 268.73385185948 345.187136 L 269.60435768002 349.20540800000003 L 270.47486350057 342.841472 L 271.34536932111 352.33863466667003 L 272.21587514165 330.872384 L 273.08638096219 308.49656533333 L 273.95688678273 306.54184533333 L 274.82739260328 283.34178133333 L 275.69789842382 301.23704533333 L 276.56840424436 374.494154666667 L 277.4389100649 368.917578666667 L 278.30941588544 362.167968 L 279.17992170599 376.59702400000003 L 280.05042752653 380.721493333333 L 280.92093334707 390.619328 L 281.79143916761 395.659445333333 L 282.66194498815 395.40064 L 283.53245080869 395.466912 L 284.40295662924 387.09860266666703 L 285.27346244978 377.871392 L 286.14396827032 358.339594666667 L 287.01447409086 363.86773333333304 L 287.8849799114 365.962496 L 288.75548573195 385.73161600000003 L 289.62599155249 380.837216 L 290.49649737303 374.861386666667 L 291.36700319357 389.21424 L 292.23750901411 396.609749333333 L 293.10801483466 396.152736 L 293.9785206552 378.510602666667 L 294.84902647574 394.758389333333 L 295.71953229628 385.698986666667 L 296.59003811682 389.321653333333 L 297.46054393736 389.322261333333 L 298.33104975791 388.208405333333 L 299.20155557845 396.006208 L 300.07206139899 398.47408 L 300.94256721953 393.015050666667 L 301.81307304007 394.300768 L 302.68357886062 390.07597866666697 L 303.55408468116 366.388906666667 L 304.4245905017 377.959146666667 L 305.29509632224 360.65344 L 306.16560214278 328.919488 L 307.03610796333 285.03850666667 L 307.90661378387 277.31143466667004 L 308.77711960441 243.11792 L 309.64762542495 255.09714133333 L 310.51813124549 247.08897066667 L 311.38863706603 323.45701333333 L 312.25914288658 236.18753066667 L 313.12964870712 283.73252266667 L 314.00015452766 393.687093333333 L 314.8706603482 387.678026666667 L 315.74116616874 386.040885333333 L 316.61167198929 394.409194666667 L 317.48217780983 397.030688 L 318.35268363037 394.38669866666703 L 319.22318945091 358.81728 L 320.09369527145 345.52923733333 L 320.964201092 346.057184 L 321.83470691254 376.410570666667 L 322.70521273308 317.28824533333 L 323.57571855362 248.88176 L 324.44622437416 355.50631466667 L 325.3167301947 338.48434133333 L 326.18723601525 360.651413333333 L 327.05774183579 345.67617066667003 L 327.92824765633 345.13728000000003 L 328.79875347687 286.831296 L 329.66925929741 327.111904 L 330.53976511796 329.515936 L 331.4102709385 291.29746133333003 L 332.28077675904 279.33262933333003 L 333.15128257958 294.01988266667 L 334.02178840012 300.49771733333 L 334.89229422067 330.24026666667 L 335.76280004121 348.780416 L 336.63330586175 334.20685866667 L 337.50381168229 334.334336 L 338.37431750283 313.35934933333 L 339.24482332337 314.94967466667003 L 340.11532914392 307.65934933333 L 340.98583496446 285.36378666666997 L 341.856340785 328.55995733333 L 342.72684660554 308.018272 L 343.59735242608 260.453824 L 344.46785824663 255.07383466667 L 345.33836406717 278.17986133333 L 346.20886988771 275.18343466667 L 347.07937570825 269.730688 L 347.94988152879 266.25454933333003 L 348.82038734934 246.02557866667 L 349.69089316988 223.28516266667 L 350.56139899042 304.06221866667 L 351.43190481096 219.508064 L 352.3024106315 227.54906666667 L 353.17291645204 209.050464 L 354.04342227259 303.266752 L 354.91392809313 252.03950933333 L 355.78443391367 174.49924266667 L 356.65493973421 146.26696533333 L 357.52544555475 218.86398933333 L 358.3959513753 260.33972266667 L 359.26645719584 297.74773333332996 L 360.13696301638 336.576032 L 361.00746883692 335.709024 L 361.87797465746 333.46894933333 L 362.74848047801 322.60520533333 L 363.61898629855 314.90427733333 L 364.48949211909 341.419968 L 365.35999793963 344.12090666667 L 366.23050376017 353.002368 L 367.10100958071 356.89296 L 367.97151540126 334.800672 L 368.8420212218 334.79013333333 L 369.71252704234 330.62695466667003 L 370.58303286288 317.144352 L 371.45353868342 309.287168 L 372.32404450397 321.80487466667 L 373.19455032451 317.730464 L 374.06505614505 307.83931733333 L 374.93556196559 307.89565866667 L 375.80606778613 305.475008 L 376.67657360668 312.403776 L 377.54707942722 325.42612266667004 L 378.41758524776 337.920928 L 379.2880910683 328.47281066667 L 380.15859688884 317.23940266667 L 381.02910270938 312.60826666667003 L 381.89960852993 288.97064533333 L 382.77011435047 309.52165333333 L 383.64062017101 335.75685333333 L 384.51112599155 369.539765333333 L 385.38163181209 366.510912 L 386.25213763264 347.45538133333 L 387.12264345318 371.81936 L 387.99314927372 357.166965333333 L 388.86365509426 380.796682666667 L 389.7341609148 390.811456 L 390.60466673535 374.880437333333 L 391.47517255589 383.11904 L 392.34567837643 379.734912 L 393.21618419697 378.083381333333 L 394.08669001751 380.32528 L 394.95719583805 378.254026666667 L 395.8277016586 371.402069333333 L 396.69820747914 379.706944 L 397.56871329968 387.316266666667 L 398.43921912022 390.775584 L 399.30972494076 383.724608 L 400.18023076131 379.29330133333303 L 401.05073658185 382.15232000000003 L 401.92124240239 388.009386666667 L 402.79174822293 393.15104 L 403.66225404347 393.61616 L 404.53275986402 382.356202666667 L 405.40326568456 390.66492800000003 L 406.2737715051 391.494645333333 L 407.14427732564 391.057290666667 L 408.01478314618 391.700352 L 408.88528896673 386.323402666667 L 409.75579478727 394.846346666667 L 410.62630060781 381.055285333333 L 411.49680642835 387.442325333333 L 412.36731224889 380.1672 L 413.23781806943 386.36535466666703 L 414.10832388998 388.910645333333 L 414.97882971052 379.838069333333 L 415.84933553106 383.775072 L 416.7198413516 362.7176 L 417.59034717214 365.011178666667 L 418.46085299269 365.328352 L 419.33135881323 377.725877333333 L 420.20186463377 389.588565333333 L 421.07237045431 395.611616 L 421.94287627485 399.392768 L 422.8133820954 387.09617066666704 L 423.68388791594 386.144245333333 L 424.55439373648 379.56041600000003 L 425.42489955702 378.541205333333 L 426.29540537756 390.426794666667 L 427.1659111981 402.817632 L 428.03641701865 410.277792 L 428.90692283919 390.461045333333 L 429.77742865973 393.980149333333 L 430.64793448027 393.104629333333 L 431.51844030081 392.542432 L 432.38894612136 373.420832 L 433.2594519419 388.954016 L 434.12995776244 392.939253333333 L 435.00046358298 373.267413333333 L 435.87096940352 383.978752 L 436.74147522407 374.457066666667 L 437.61198104461 383.688128 L 438.48248686515 390.137184 L 439.35299268569 391.995637333333 L 440.22349850623 398.521706666667 L 441.09400432677 387.962773333333 L 441.96451014732 393.103210666667 L 442.83501596786 388.31865600000003 L 443.7055217884 388.026208 L 444.57602760894 377.576714666667 L 445.44653342948 54.32216533333002 L 446.31703925003 400.901418666667 L 447.18754507057 390.354037333333 L 448.05805089111 383.577472 L 448.92855671165 394.879786666667 L 449.79906253219 377.794378666667 L 450.66956835274 396.284266666667 L 451.54007417328 392.683690666667 L 452.41057999382 400.3224 L 453.28108581436 390.934069333333 L 454.1515916349 387.85799466666697 L 455.02209745544 388.171722666667 L 455.89260327599 392.545877333333 L 456.76310909653 393.49070933333303 L 457.63361491707 399.887882666667 L 458.50412073761 399.824245333333 L 459.37462655815 389.952149333333 L 460.2451323787 388.76736 L 461.11563819924 389.640245333333 L 461.98614401978 386.679082666667 L 462.85664984032 383.534304 L 463.72715566086 379.918325333333 L 464.59766148141 380.81492266666703 L 465.46816730195 367.854794666667 L 466.33867312249 261.50363733333 L 467.20917894303 305.02934400000004 L 468.07968476357 271.60190933333 L 468.95019058411 292.23742933333 L 469.82069640466 312.387968 L 470.6912022252 309.02593066667 L 471.56170804574 309.950496 L 472.43221386628 333.83152 L 473.30271968682 311.72524799999997 L 474.17322550737 321.77710933333003 L 475.04373132791 323.145312 L 475.91423714845 336.85044266667 L 476.78474296899 332.707328 L 477.65524878953 334.265632 L 478.52575461008 337.395008 L 479.39626043062 342.5168 L 480.26676625116 335.80123733333 L 481.1372720717 332.91384533333 L 482.00777789224 354.45325866666997 L 482.87828371278 354.71794133333003 L 483.74878953333 351.418528 L 484.61929535387 391.661034666667 L 485.48980117441 349.154944 L 486.36030699495 351.57397333333 L 487.23081281549 349.71511466667 L 488.10131863604 358.797824 L 488.97182445658 339.14442666667003 L 489.84233027712 351.4392 L 490.71283609766 350.654272 L 491.5833419182 356.529984 L 492.45384773875 345.64536533333 L 493.32435355929 353.15274666667 L 494.19485937983 360.43557333333297 L 495.06536520037 366.85483733333297 L 495.93587102091 362.839402666667 L 496.80637684145 358.386005333333 L 497.676882662 363.80612266666697 L 498.54738848254 366.601098666667 L 499.41789430308 363.625546666667 L 500.28840012362 365.392394666667 L 501.15890594416 357.48190933333296 L 502.02941176471 350.03309866667 L 502.02941176471 456 L 501.15890594416 456 L 500.28840012362 456 L 499.41789430308 456 L 498.54738848254 456 L 497.676882662 456 L 496.80637684145 456 L 495.93587102091 456 L 495.06536520037 456 L 494.19485937983 456 L 493.32435355929 456 L 492.45384773875 456 L 491.5833419182 456 L 490.71283609766 456 L 489.84233027712 456 L 488.97182445658 456 L 488.10131863604 456 L 487.23081281549 456 L 486.36030699495 456 L 485.48980117441 456 L 484.61929535387 456 L 483.74878953333 456 L 482.87828371278 456 L 482.00777789224 456 L 481.1372720717 456 L 480.26676625116 456 L 479.39626043062 456 L 478.52575461008 456 L 477.65524878953 456 L 476.78474296899 456 L 475.91423714845 456 L 475.04373132791 456 L 474.17322550737 456 L 473.30271968682 456 L 472.43221386628 456 L 471.56170804574 456 L 470.6912022252 456 L 469.82069640466 456 L 468.95019058411 456 L 468.07968476357 456 L 467.20917894303 456 L 466.33867312249 456 L 465.46816730195 456 L 464.59766148141 456 L 463.72715566086 456 L 462.85664984032 456 L 461.98614401978 456 L 461.11563819924 456 L 460.2451323787 456 L 459.37462655815 456 L 458.50412073761 456 L 457.63361491707 456 L 456.76310909653 456 L 455.89260327599 456 L 455.02209745544 456 L 454.1515916349 456 L 453.28108581436 456 L 452.41057999382 456 L 451.54007417328 456 L 450.66956835274 456 L 449.79906253219 456 L 448.92855671165 456 L 448.05805089111 456 L 447.18754507057 456 L 446.31703925003 456 L 445.44653342948 456 L 444.57602760894 456 L 443.7055217884 456 L 442.83501596786 456 L 441.96451014732 456 L 441.09400432677 456 L 440.22349850623 456 L 439.35299268569 456 L 438.48248686515 456 L 437.61198104461 456 L 436.74147522407 456 L 435.87096940352 456 L 435.00046358298 456 L 434.12995776244 456 L 433.2594519419 456 L 432.38894612136 456 L 431.51844030081 456 L 430.64793448027 456 L 429.77742865973 456 L 428.90692283919 456 L 428.03641701865 456 L 427.1659111981 456 L 426.29540537756 456 L 425.42489955702 456 L 424.55439373648 456 L 423.68388791594 456 L 422.8133820954 456 L 421.94287627485 456 L 421.07237045431 456 L 420.20186463377 456 L 419.33135881323 456 L 418.46085299269 456 L 417.59034717214 456 L 416.7198413516 456 L 415.84933553106 456 L 414.97882971052 456 L 414.10832388998 456 L 413.23781806943 456 L 412.36731224889 456 L 411.49680642835 456 L 410.62630060781 456 L 409.75579478727 456 L 408.88528896673 456 L 408.01478314618 456 L 407.14427732564 456 L 406.2737715051 456 L 405.40326568456 456 L 404.53275986402 456 L 403.66225404347 456 L 402.79174822293 456 L 401.92124240239 456 L 401.05073658185 456 L 400.18023076131 456 L 399.30972494076 456 L 398.43921912022 456 L 397.56871329968 456 L 396.69820747914 456 L 395.8277016586 456 L 394.95719583805 456 L 394.08669001751 456 L 393.21618419697 456 L 392.34567837643 456 L 391.47517255589 456 L 390.60466673535 456 L 389.7341609148 456 L 388.86365509426 456 L 387.99314927372 456 L 387.12264345318 456 L 386.25213763264 456 L 385.38163181209 456 L 384.51112599155 456 L 383.64062017101 456 L 382.77011435047 456 L 381.89960852993 456 L 381.02910270938 456 L 380.15859688884 456 L 379.2880910683 456 L 378.41758524776 456 L 377.54707942722 456 L 376.67657360668 456 L 375.80606778613 456 L 374.93556196559 456 L 374.06505614505 456 L 373.19455032451 456 L 372.32404450397 456 L 371.45353868342 456 L 370.58303286288 456 L 369.71252704234 456 L 368.8420212218 456 L 367.97151540126 456 L 367.10100958071 456 L 366.23050376017 456 L 365.35999793963 456 L 364.48949211909 456 L 363.61898629855 456 L 362.74848047801 456 L 361.87797465746 456 L 361.00746883692 456 L 360.13696301638 456 L 359.26645719584 456 L 358.3959513753 456 L 357.52544555475 456 L 356.65493973421 456 L 355.78443391367 456 L 354.91392809313 456 L 354.04342227259 456 L 353.17291645204 456 L 352.3024106315 456 L 351.43190481096 456 L 350.56139899042 456 L 349.69089316988 456 L 348.82038734934 456 L 347.94988152879 456 L 347.07937570825 456 L 346.20886988771 456 L 345.33836406717 456 L 344.46785824663 456 L 343.59735242608 456 L 342.72684660554 456 L 341.856340785 456 L 340.98583496446 456 L 340.11532914392 456 L 339.24482332337 456 L 338.37431750283 456 L 337.50381168229 456 L 336.63330586175 456 L 335.76280004121 456 L 334.89229422067 456 L 334.02178840012 456 L 333.15128257958 456 L 332.28077675904 456 L 331.4102709385 456 L 330.53976511796 456 L 329.66925929741 456 L 328.79875347687 456 L 327.92824765633 456 L 327.05774183579 456 L 326.18723601525 456 L 325.3167301947 456 L 324.44622437416 456 L 323.57571855362 456 L 322.70521273308 456 L 321.83470691254 456 L 320.964201092 456 L 320.09369527145 456 L 319.22318945091 456 L 318.35268363037 456 L 317.48217780983 456 L 316.61167198929 456 L 315.74116616874 456 L 314.8706603482 456 L 314.00015452766 456 L 313.12964870712 456 L 312.25914288658 456 L 311.38863706603 456 L 310.51813124549 456 L 309.64762542495 456 L 308.77711960441 456 L 307.90661378387 456 L 307.03610796333 456 L 306.16560214278 456 L 305.29509632224 456 L 304.4245905017 456 L 303.55408468116 456 L 302.68357886062 456 L 301.81307304007 456 L 300.94256721953 456 L 300.07206139899 456 L 299.20155557845 456 L 298.33104975791 456 L 297.46054393736 456 L 296.59003811682 456 L 295.71953229628 456 L 294.84902647574 456 L 293.9785206552 456 L 293.10801483466 456 L 292.23750901411 456 L 291.36700319357 456 L 290.49649737303 456 L 289.62599155249 456 L 288.75548573195 456 L 287.8849799114 456 L 287.01447409086 456 L 286.14396827032 456 L 285.27346244978 456 L 284.40295662924 456 L 283.53245080869 456 L 282.66194498815 456 L 281.79143916761 456 L 280.92093334707 456 L 280.05042752653 456 L 279.17992170599 456 L 278.30941588544 456 L 277.4389100649 456 L 276.56840424436 456 L 275.69789842382 456 L 274.82739260328 456 L 273.95688678273 456 L 273.08638096219 456 L 272.21587514165 456 L 271.34536932111 456 L 270.47486350057 456 L 269.60435768002 456 L 268.73385185948 456 L 267.86334603894 456 L 266.9928402184 456 L 266.12233439786 456 L 265.25182857732 456 L 264.38132275677 456 L 263.51081693623 456 L 262.64031111569 456 L 261.76980529515 456 L 260.89929947461 456 L 260.02879365406 456 L 259.15828783352 456 L 258.28778201298 456 L 257.41727619244 456 L 256.5467703719 456 L 255.67626455135 456 L 254.80575873081 456 L 253.93525291027 456 L 253.06474708973 456 L 252.19424126919 456 L 251.32373544865 456 L 250.4532296281 456 L 249.58272380756 456 L 248.71221798702 456 L 247.84171216648 456 L 246.97120634594 456 L 246.10070052539 456 L 245.23019470485 456 L 244.35968888431 456 L 243.48918306377 456 L 242.61867724323 456 L 241.74817142268 456 L 240.87766560214 456 L 240.0071597816 456 L 239.13665396106 456 L 238.26614814052 456 L 237.39564231998 456 L 236.52513649943 456 L 235.65463067889 456 L 234.78412485835 456 L 233.91361903781 456 L 233.04311321727 456 L 232.17260739672 456 L 231.30210157618 456 L 230.43159575564 456 L 229.5610899351 456 L 228.69058411456 456 L 227.82007829401 456 L 226.94957247347 456 L 226.07906665293 456 L 225.20856083239 456 L 224.33805501185 456 L 223.46754919131 456 L 222.59704337076 456 L 221.72653755022 456 L 220.85603172968 456 L 219.98552590914 456 L 219.1150200886 456 L 218.24451426805 456 L 217.37400844751 456 L 216.50350262697 456 L 215.63299680643 456 L 214.76249098589 456 L 213.89198516534 456 L 213.0214793448 456 L 212.15097352426 456 L 211.28046770372 456 L 210.40996188318 456 L 209.53945606264 456 L 208.66895024209 456 L 207.79844442155 456 L 206.92793860101 456 L 206.05743278047 456 L 205.18692695993 456 L 204.31642113938 456 L 203.44591531884 456 L 202.5754094983 456 L 201.70490367776 456 L 200.83439785722 456 L 199.96389203667 456 L 199.09338621613 456 L 198.22288039559 456 L 197.35237457505 456 L 196.48186875451 456 L 195.61136293397 456 L 194.74085711342 456 L 193.87035129288 456 L 192.99984547234 456 L 192.1293396518 456 L 191.25883383126 456 L 190.38832801071 456 L 189.51782219017 456 L 188.64731636963 456 L 187.77681054909 456 L 186.90630472855 456 L 186.035798908 456 L 185.16529308746 456 L 184.29478726692 456 L 183.42428144638 456 L 182.55377562584 456 L 181.6832698053 456 L 180.81276398475 456 L 179.94225816421 456 L 179.07175234367 456 L 178.20124652313 456 L 177.33074070259 456 L 176.46023488204 456 L 175.5897290615 456 L 174.71922324096 456 L 173.84871742042 456 L 172.97821159988 456 L 172.10770577933 456 L 171.23719995879 456 L 170.36669413825 456 L 169.49618831771 456 L 168.62568249717 456 L 167.75517667663 456 L 166.88467085608 456 L 166.01416503554 456 L 165.143659215 456 L 164.27315339446 456 L 163.40264757392 456 L 162.53214175337 456 L 161.66163593283 456 L 160.79113011229 456 L 159.92062429175 456 L 159.05011847121 456 L 158.17961265066 456 L 157.30910683012 456 L 156.43860100958 456 L 155.56809518904 456 L 154.6975893685 456 L 153.82708354796 456 L 152.95657772741 456 L 152.08607190687 456 L 151.21556608633 456 L 150.34506026579 456 L 149.47455444525 456 L 148.6040486247 456 L 147.73354280416 456 L 146.86303698362 456 L 145.99253116308 456 L 145.12202534254 456 L 144.25151952199 456 L 143.38101370145 456 L 142.51050788091 456 L 141.64000206037 456 L 140.76949623983 456 L 139.89899041929 456 L 139.02848459874 456 L 138.1579787782 456 L 137.28747295766 456 L 136.41696713712 456 L 135.54646131658 456 L 134.67595549603 456 L 133.80544967549 456 L 132.93494385495 456 L 132.06443803441 456 L 131.19393221387 456 L 130.32342639332 456 L 129.45292057278 456 L 128.58241475224 456 L 127.7119089317 456 L 126.84140311116 456 L 125.97089729062 456 L 125.10039147007 456 L 124.22988564953 456 L 123.35937982899 456 L 122.48887400845 456 L 121.61836818791 456 L 120.74786236736 456 L 119.87735654682 456 L 119.00685072628 456 L 118.13634490574 456 L 117.2658390852 456 L 116.39533326465 456 L 115.52482744411 456 L 114.65432162357 456 L 113.78381580303 456 L 112.91330998249 456 L 112.04280416194 456 L 111.1722983414 456 L 110.30179252086 456 L 109.43128670032 456 L 108.56078087978 456 L 107.69027505924 456 L 106.81976923869 456 L 105.94926341815 456 L 105.07875759761 456 L 104.20825177707 456 L 103.33774595653 456 L 102.46724013598 456 L 101.59673431544 456 L 100.7262284949 456 L 99.855722674359 456 L 98.985216853817 456 L 98.114711033275 456 L 97.244205212733 456 L 96.373699392191 456 L 95.503193571649 456 L 94.632687751107 456 L 93.762181930566 456 L 92.891676110024 456 L 92.021170289482 456 L 91.15066446894 456 L 90.280158648398 456 L 89.409652827856 456 L 88.539147007314 456 L 87.668641186772 456 L 86.798135366231 456 L 85.927629545689 456 L 85.057123725147 456 L 84.186617904605 456 L 83.316112084063 456 L 82.445606263521 456 L 81.575100442979 456 L 80.704594622437 456 L 79.834088801896 456 L 78.963582981354 456 L 78.093077160812 456 L 77.22257134027 456 L 76.352065519728 456 L 75.481559699186 456 L 74.611053878644 456 L 73.740548058102 456 L 72.870042237561 456 L 71.999536417019 456 L 71.129030596477 456 L 70.258524775935 456 L 69.388018955393 456 L 68.517513134851 456 L 67.647007314309 456 L 66.776501493767 456 L 65.905995673226 456 L 65.035489852684 456 L 64.164984032142 456 L 63.2944782116 456 L 62.423972391058 456 L 61.553466570516 456 L 60.682960749974 456 L 59.812454929432 456 L 58.94194910889 456 L 58.071443288349 456 L 57.200937467807 456 L 56.330431647265 456 L 55.459925826723 456 L 54.589420006181 456 L 53.718914185639 456 L 52.848408365097 456 L 51.977902544555 456 L 51.107396724014 456 L 50.236890903472 456 L 49.36638508293 456 L 48.495879262388 456 L 47.625373441846 456 L 46.754867621304 456 L 45.884361800762 456 L 45.01385598022 456 L 44.143350159679 456 L 43.272844339137 456 L 42.402338518595 456 L 41.531832698053 456 L 40.661326877511 456 L 39.790821056969 456 L 38.920315236427 456 L 38.049809415885 456 L 37.179303595344 456 L 36.308797774802 456 L 35.43829195426 456 L 34.567786133718 456 L 33.697280313176 456 L 32.826774492634 456 L 31.956268672092 456 L 31.08576285155 456 L 30.215257031009 456 L 29.344751210467 456 L 28.474245389925 456 L 27.603739569383 456 L 26.733233748841 456 L 25.862727928299 456 L 24.992222107757 456 L 24.121716287215 456 L 23.251210466674 456 L 22.380704646132 456 L 21.51019882559 456 L 20.639693005048 456 L 19.769187184506 456 L 18.898681363964 456 L 18.028175543422 456 L 17.15766972288 456 L 16.287163902339 456 L 15.416658081797 456 L 14.546152261255 456 L 13.675646440713 456 L 12.805140620171 456 L 11.934634799629 456 L 11.064128979087 456 L 10.193623158545 456 L 9.3231173380035 456 L 8.4526115174616 456 L 7.5821056969197 456 L 6.7115998763779 456 L 5.841094055836 456 L 4.9705882352941 456 Z" class="highcharts-area" data-z-index="0"></path><path fill="none" d="M 4.9705882352941 453.7116906666667 L 5.841094055836 453.5852266666667 L 6.7115998763779 454.0144746666667 L 7.5821056969197 453.9439466666667 L 8.4526115174616 453.600832 L 9.3231173380035 452.9184533333333 L 10.193623158545 452.2622186666667 L 11.064128979087 452.6963306666667 L 11.934634799629 449.6662613333333 L 12.805140620171 451.3490026666667 L 13.675646440713 450.8133546666667 L 14.546152261255 445.760064 L 15.416658081797 443.191669333333 L 16.287163902339 442.910368 L 17.15766972288 446.565056 L 18.028175543422 449.2029653333333 L 18.898681363964 449.270656 L 19.769187184506 451.381632 L 20.639693005048 449.3571946666667 L 21.51019882559 449.0446826666667 L 22.380704646132 446.9193173333333 L 23.251210466674 446.467776 L 24.121716287215 444.605877333333 L 24.992222107757 448.20544 L 25.862727928299 446.5520853333333 L 26.733233748841 440.498026666667 L 27.603739569383 435.777312 L 28.474245389925 435.781973333333 L 29.344751210467 441.618368 L 30.215257031009 444.532917333333 L 31.08576285155 444.83529599999997 L 31.956268672092 445.361013333333 L 32.826774492634 443.798453333333 L 33.697280313176 443.753866666667 L 34.567786133718 443.695904 L 35.43829195426 441.98864 L 36.308797774802 440.953621333333 L 37.179303595344 443.097226666667 L 38.049809415885 442.943402666667 L 38.920315236427 445.627925333333 L 39.790821056969 441.548650666667 L 40.661326877511 441.777664 L 41.531832698053 442.060586666667 L 42.402338518595 440.716704 L 43.272844339137 421.864245333333 L 44.143350159679 442.515168 L 45.01385598022 436.942442666667 L 45.884361800762 425.188789333333 L 46.754867621304 416.956874666667 L 47.625373441846 429.001354666667 L 48.495879262388 431.790453333333 L 49.36638508293 428.020448 L 50.236890903472 436.546837333333 L 51.107396724014 434.773504 L 51.977902544555 433.805973333333 L 52.848408365097 430.388608 L 53.718914185639 430.318688 L 54.589420006181 432.586528 L 55.459925826723 430.000298666667 L 56.330431647265 431.537728 L 57.200937467807 429.561930666667 L 58.071443288349 430.4336 L 58.94194910889 429.454517333333 L 59.812454929432 428.642837333333 L 60.682960749974 427.723338666667 L 61.553466570516 420.429973333333 L 62.423972391058 426.871125333333 L 63.2944782116 426.92949333333297 L 64.164984032142 426.340138666667 L 65.035489852684 423.940768 L 65.905995673226 424.526677333333 L 66.776501493767 424.008661333333 L 67.647007314309 425.905013333333 L 68.517513134851 427.552490666667 L 69.388018955393 426.728650666667 L 70.258524775935 426.392629333333 L 71.129030596477 424.319146666667 L 71.999536417019 423.712768 L 72.870042237561 422.068128 L 73.740548058102 421.01000533333297 L 74.611053878644 420.946368 L 75.481559699186 418.79708800000003 L 76.352065519728 424.705834666667 L 77.22257134027 424.722858666667 L 78.093077160812 424.823584 L 78.963582981354 426.13504 L 79.834088801896 425.903392 L 80.704594622437 427.311114666667 L 81.575100442979 425.111573333333 L 82.445606263521 424.813653333333 L 83.316112084063 423.94928 L 84.186617904605 423.755328 L 85.057123725147 422.675317333333 L 85.927629545689 423.162122666667 L 86.798135366231 423.525301333333 L 87.668641186772 422.174528 L 88.539147007314 421.237802666667 L 89.409652827856 422.2256 L 90.280158648398 423.172864 L 91.15066446894 422.115754666667 L 92.021170289482 421.918154666667 L 92.891676110024 423.437344 L 93.762181930566 422.284576 L 94.632687751107 420.183125333333 L 95.503193571649 417.755989333333 L 96.373699392191 420.496853333333 L 97.244205212733 420.671146666667 L 98.114711033275 417.149610666667 L 98.985216853817 417.104010666667 L 99.855722674359 416.83770666666703 L 100.7262284949 416.715296 L 101.59673431544 417.073610666667 L 102.46724013598 408.852234666667 L 103.33774595653 408.344757333333 L 104.20825177707 407.902336 L 105.07875759761 409.236693333333 L 105.94926341815 403.863594666667 L 106.81976923869 402.381696 L 107.69027505924 401.183328 L 108.56078087978 404.334389333333 L 109.43128670032 406.708021333333 L 110.30179252086 406.499274666667 L 111.1722983414 405.813248 L 112.04280416194 407.510176 L 112.91330998249 410.216181333333 L 113.78381580303 422.278496 L 114.65432162357 411.672949333333 L 115.52482744411 411.508992 L 116.39533326465 407.783370666667 L 117.2658390852 406.335114666667 L 118.13634490574 406.289514666667 L 119.00685072628 399.889301333333 L 119.87735654682 397.252202666667 L 120.74786236736 396.025258666667 L 121.61836818791 397.81723733333297 L 122.48887400845 401.660810666667 L 123.35937982899 405.793994666667 L 124.22988564953 402.512213333333 L 125.10039147007 400.463050666667 L 125.97089729062 392.798602666667 L 126.84140311116 394.921738666667 L 127.7119089317 401.829429333333 L 128.58241475224 397.534112 L 129.45292057278 396.417621333333 L 130.32342639332 398.509546666667 L 131.19393221387 406.15008 L 132.06443803441 406.358421333333 L 132.93494385495 406.676202666667 L 133.80544967549 400.011509333333 L 134.67595549603 395.269717333333 L 135.54646131658 400.788938666667 L 136.41696713712 400.742122666667 L 137.28747295766 402.414325333333 L 138.1579787782 392.892437333333 L 139.02848459874 395.272352 L 139.89899041929 390.552245333333 L 140.76949623983 392.601002666667 L 141.64000206037 394.098912 L 142.51050788091 398.256010666667 L 143.38101370145 394.850602666667 L 144.25151952199 388.644544 L 145.12202534254 392.269642666667 L 145.99253116308 397.541408 L 146.86303698362 398.21041066666703 L 147.73354280416 399.143082666667 L 148.6040486247 398.601152 L 149.47455444525 388.658730666667 L 150.34506026579 384.662752 L 151.21556608633 389.886688 L 152.08607190687 397.537354666667 L 152.95657772741 399.335818666667 L 153.82708354796 400.548170666667 L 154.6975893685 395.493056 L 155.56809518904 400.602485333333 L 156.43860100958 402.953216 L 157.30910683012 398.849621333333 L 158.17961265066 400.473184 L 159.05011847121 398.067328 L 159.92062429175 397.310570666667 L 160.79113011229 395.567029333333 L 161.66163593283 398.415104 L 162.53214175337 404.015392 L 163.40264757392 404.51293866666697 L 164.27315339446 403.2104 L 165.143659215 399.369056 L 166.01416503554 395.175477333333 L 166.88467085608 392.87662933333297 L 167.75517667663 388.167264 L 168.62568249717 395.076373333333 L 169.49618831771 398.177984 L 170.36669413825 409.295061333333 L 171.23719995879 413.611050666667 L 172.10770577933 418.718858666667 L 172.97821159988 414.144672 L 173.84871742042 416.023594666667 L 174.71922324096 415.429173333333 L 175.5897290615 411.618837333333 L 176.46023488204 414.18784 L 177.33074070259 409.06685866666703 L 178.20124652313 421.108298666667 L 179.07175234367 414.559936 L 179.94225816421 411.270858666667 L 180.81276398475 406.408885333333 L 181.6832698053 408.923776 L 182.55377562584 407.753781333333 L 183.42428144638 405.582410666667 L 184.29478726692 386.199168 L 185.16529308746 383.910656 L 186.035798908 388.675349333333 L 186.90630472855 396.190229333333 L 187.77681054909 402.616992 L 188.64731636963 403.095893333333 L 189.51782219017 405.522826666667 L 190.38832801071 403.22256 L 191.25883383126 401.975552 L 192.1293396518 397.368128 L 192.99984547234 400.474602666667 L 193.87035129288 401.222442666667 L 194.74085711342 399.208544 L 195.61136293397 379.299178666667 L 196.48186875451 403.07664 L 197.35237457505 399.84512 L 198.22288039559 399.725952 L 199.09338621613 391.29380266666703 L 199.96389203667 386.144245333333 L 200.83439785722 400.550805333333 L 201.70490367776 401.661418666667 L 202.5754094983 400.752053333333 L 203.44591531884 398.751530666667 L 204.31642113938 396.641770666667 L 205.18692695993 405.265034666667 L 206.05743278047 386.454933333333 L 206.92793860101 395.363146666667 L 207.79844442155 396.276970666667 L 208.66895024209 396.761952 L 209.53945606264 391.623136 L 210.40996188318 392.443328 L 211.28046770372 393.225418666667 L 212.15097352426 398.764298666667 L 213.0214793448 399.897205333333 L 213.89198516534 408.017856 L 214.76249098589 408.154048 L 215.63299680643 403.125482666667 L 216.50350262697 396.551178666667 L 217.37400844751 402.499242666667 L 218.24451426805 410.117482666667 L 219.1150200886 396.81728 L 219.98552590914 390.67404799999997 L 220.85603172968 398.664384 L 221.72653755022 394.047434666667 L 222.59704337076 391.883157333333 L 223.46754919131 380.579829333333 L 224.33805501185 385.57232 L 225.20856083239 390.06908799999997 L 226.07906665293 388.167264 L 226.94957247347 388.33770666666703 L 227.82007829401 386.661856 L 228.69058411456 381.996266666667 L 229.5610899351 387.0224 L 230.43159575564 383.331637333333 L 231.30210157618 383.679210666667 L 232.17260739672 402.379264 L 233.04311321727 394.286176 L 233.91361903781 391.566186666667 L 234.78412485835 383.522549333333 L 235.65463067889 373.434005333333 L 236.52513649943 365.169461333333 L 237.39564231998 336.49314133333 L 238.26614814052 359.085813333333 L 239.13665396106 344.01511466667 L 240.0071597816 358.375872 L 240.87766560214 371.42274133333297 L 241.74817142268 371.289994666667 L 242.61867724323 375.944437333333 L 243.48918306377 382.4776 L 244.35968888431 386.389877333333 L 245.23019470485 371.795445333333 L 246.10070052539 344.46625066667 L 246.97120634594 335.56350933333 L 247.84171216648 318.64570666667 L 248.71221798702 325.61237333332997 L 249.58272380756 337.951328 L 250.4532296281 328.36478933333 L 251.32373544865 332.85547733333 L 252.19424126919 317.07341866667 L 253.06474708973 309.86497066667 L 253.93525291027 320.12051199999996 L 254.80575873081 327.68018133333 L 255.67626455135 269.852288 L 256.5467703719 221.67092266667 L 257.41727619244 96.83028266666997 L 258.28778201298 140.24128000000002 L 259.15828783352 186.401856 L 260.02879365406 288.18916266667 L 260.89929947461 313.77866666667 L 261.76980529515 342.21563733333 L 262.64031111569 350.79857066667 L 263.51081693623 357.74294399999997 L 264.38132275677 300.384224 L 265.25182857732 297.88534400000003 L 266.12233439786 332.40474666667 L 266.9928402184 319.46772266667 L 267.86334603894 349.59533866667 L 268.73385185948 345.187136 L 269.60435768002 349.20540800000003 L 270.47486350057 342.841472 L 271.34536932111 352.33863466667003 L 272.21587514165 330.872384 L 273.08638096219 308.49656533333 L 273.95688678273 306.54184533333 L 274.82739260328 283.34178133333 L 275.69789842382 301.23704533333 L 276.56840424436 374.494154666667 L 277.4389100649 368.917578666667 L 278.30941588544 362.167968 L 279.17992170599 376.59702400000003 L 280.05042752653 380.721493333333 L 280.92093334707 390.619328 L 281.79143916761 395.659445333333 L 282.66194498815 395.40064 L 283.53245080869 395.466912 L 284.40295662924 387.09860266666703 L 285.27346244978 377.871392 L 286.14396827032 358.339594666667 L 287.01447409086 363.86773333333304 L 287.8849799114 365.962496 L 288.75548573195 385.73161600000003 L 289.62599155249 380.837216 L 290.49649737303 374.861386666667 L 291.36700319357 389.21424 L 292.23750901411 396.609749333333 L 293.10801483466 396.152736 L 293.9785206552 378.510602666667 L 294.84902647574 394.758389333333 L 295.71953229628 385.698986666667 L 296.59003811682 389.321653333333 L 297.46054393736 389.322261333333 L 298.33104975791 388.208405333333 L 299.20155557845 396.006208 L 300.07206139899 398.47408 L 300.94256721953 393.015050666667 L 301.81307304007 394.300768 L 302.68357886062 390.07597866666697 L 303.55408468116 366.388906666667 L 304.4245905017 377.959146666667 L 305.29509632224 360.65344 L 306.16560214278 328.919488 L 307.03610796333 285.03850666667 L 307.90661378387 277.31143466667004 L 308.77711960441 243.11792 L 309.64762542495 255.09714133333 L 310.51813124549 247.08897066667 L 311.38863706603 323.45701333333 L 312.25914288658 236.18753066667 L 313.12964870712 283.73252266667 L 314.00015452766 393.687093333333 L 314.8706603482 387.678026666667 L 315.74116616874 386.040885333333 L 316.61167198929 394.409194666667 L 317.48217780983 397.030688 L 318.35268363037 394.38669866666703 L 319.22318945091 358.81728 L 320.09369527145 345.52923733333 L 320.964201092 346.057184 L 321.83470691254 376.410570666667 L 322.70521273308 317.28824533333 L 323.57571855362 248.88176 L 324.44622437416 355.50631466667 L 325.3167301947 338.48434133333 L 326.18723601525 360.651413333333 L 327.05774183579 345.67617066667003 L 327.92824765633 345.13728000000003 L 328.79875347687 286.831296 L 329.66925929741 327.111904 L 330.53976511796 329.515936 L 331.4102709385 291.29746133333003 L 332.28077675904 279.33262933333003 L 333.15128257958 294.01988266667 L 334.02178840012 300.49771733333 L 334.89229422067 330.24026666667 L 335.76280004121 348.780416 L 336.63330586175 334.20685866667 L 337.50381168229 334.334336 L 338.37431750283 313.35934933333 L 339.24482332337 314.94967466667003 L 340.11532914392 307.65934933333 L 340.98583496446 285.36378666666997 L 341.856340785 328.55995733333 L 342.72684660554 308.018272 L 343.59735242608 260.453824 L 344.46785824663 255.07383466667 L 345.33836406717 278.17986133333 L 346.20886988771 275.18343466667 L 347.07937570825 269.730688 L 347.94988152879 266.25454933333003 L 348.82038734934 246.02557866667 L 349.69089316988 223.28516266667 L 350.56139899042 304.06221866667 L 351.43190481096 219.508064 L 352.3024106315 227.54906666667 L 353.17291645204 209.050464 L 354.04342227259 303.266752 L 354.91392809313 252.03950933333 L 355.78443391367 174.49924266667 L 356.65493973421 146.26696533333 L 357.52544555475 218.86398933333 L 358.3959513753 260.33972266667 L 359.26645719584 297.74773333332996 L 360.13696301638 336.576032 L 361.00746883692 335.709024 L 361.87797465746 333.46894933333 L 362.74848047801 322.60520533333 L 363.61898629855 314.90427733333 L 364.48949211909 341.419968 L 365.35999793963 344.12090666667 L 366.23050376017 353.002368 L 367.10100958071 356.89296 L 367.97151540126 334.800672 L 368.8420212218 334.79013333333 L 369.71252704234 330.62695466667003 L 370.58303286288 317.144352 L 371.45353868342 309.287168 L 372.32404450397 321.80487466667 L 373.19455032451 317.730464 L 374.06505614505 307.83931733333 L 374.93556196559 307.89565866667 L 375.80606778613 305.475008 L 376.67657360668 312.403776 L 377.54707942722 325.42612266667004 L 378.41758524776 337.920928 L 379.2880910683 328.47281066667 L 380.15859688884 317.23940266667 L 381.02910270938 312.60826666667003 L 381.89960852993 288.97064533333 L 382.77011435047 309.52165333333 L 383.64062017101 335.75685333333 L 384.51112599155 369.539765333333 L 385.38163181209 366.510912 L 386.25213763264 347.45538133333 L 387.12264345318 371.81936 L 387.99314927372 357.166965333333 L 388.86365509426 380.796682666667 L 389.7341609148 390.811456 L 390.60466673535 374.880437333333 L 391.47517255589 383.11904 L 392.34567837643 379.734912 L 393.21618419697 378.083381333333 L 394.08669001751 380.32528 L 394.95719583805 378.254026666667 L 395.8277016586 371.402069333333 L 396.69820747914 379.706944 L 397.56871329968 387.316266666667 L 398.43921912022 390.775584 L 399.30972494076 383.724608 L 400.18023076131 379.29330133333303 L 401.05073658185 382.15232000000003 L 401.92124240239 388.009386666667 L 402.79174822293 393.15104 L 403.66225404347 393.61616 L 404.53275986402 382.356202666667 L 405.40326568456 390.66492800000003 L 406.2737715051 391.494645333333 L 407.14427732564 391.057290666667 L 408.01478314618 391.700352 L 408.88528896673 386.323402666667 L 409.75579478727 394.846346666667 L 410.62630060781 381.055285333333 L 411.49680642835 387.442325333333 L 412.36731224889 380.1672 L 413.23781806943 386.36535466666703 L 414.10832388998 388.910645333333 L 414.97882971052 379.838069333333 L 415.84933553106 383.775072 L 416.7198413516 362.7176 L 417.59034717214 365.011178666667 L 418.46085299269 365.328352 L 419.33135881323 377.725877333333 L 420.20186463377 389.588565333333 L 421.07237045431 395.611616 L 421.94287627485 399.392768 L 422.8133820954 387.09617066666704 L 423.68388791594 386.144245333333 L 424.55439373648 379.56041600000003 L 425.42489955702 378.541205333333 L 426.29540537756 390.426794666667 L 427.1659111981 402.817632 L 428.03641701865 410.277792 L 428.90692283919 390.461045333333 L 429.77742865973 393.980149333333 L 430.64793448027 393.104629333333 L 431.51844030081 392.542432 L 432.38894612136 373.420832 L 433.2594519419 388.954016 L 434.12995776244 392.939253333333 L 435.00046358298 373.267413333333 L 435.87096940352 383.978752 L 436.74147522407 374.457066666667 L 437.61198104461 383.688128 L 438.48248686515 390.137184 L 439.35299268569 391.995637333333 L 440.22349850623 398.521706666667 L 441.09400432677 387.962773333333 L 441.96451014732 393.103210666667 L 442.83501596786 388.31865600000003 L 443.7055217884 388.026208 L 444.57602760894 377.576714666667 L 445.44653342948 54.32216533333002 L 446.31703925003 400.901418666667 L 447.18754507057 390.354037333333 L 448.05805089111 383.577472 L 448.92855671165 394.879786666667 L 449.79906253219 377.794378666667 L 450.66956835274 396.284266666667 L 451.54007417328 392.683690666667 L 452.41057999382 400.3224 L 453.28108581436 390.934069333333 L 454.1515916349 387.85799466666697 L 455.02209745544 388.171722666667 L 455.89260327599 392.545877333333 L 456.76310909653 393.49070933333303 L 457.63361491707 399.887882666667 L 458.50412073761 399.824245333333 L 459.37462655815 389.952149333333 L 460.2451323787 388.76736 L 461.11563819924 389.640245333333 L 461.98614401978 386.679082666667 L 462.85664984032 383.534304 L 463.72715566086 379.918325333333 L 464.59766148141 380.81492266666703 L 465.46816730195 367.854794666667 L 466.33867312249 261.50363733333 L 467.20917894303 305.02934400000004 L 468.07968476357 271.60190933333 L 468.95019058411 292.23742933333 L 469.82069640466 312.387968 L 470.6912022252 309.02593066667 L 471.56170804574 309.950496 L 472.43221386628 333.83152 L 473.30271968682 311.72524799999997 L 474.17322550737 321.77710933333003 L 475.04373132791 323.145312 L 475.91423714845 336.85044266667 L 476.78474296899 332.707328 L 477.65524878953 334.265632 L 478.52575461008 337.395008 L 479.39626043062 342.5168 L 480.26676625116 335.80123733333 L 481.1372720717 332.91384533333 L 482.00777789224 354.45325866666997 L 482.87828371278 354.71794133333003 L 483.74878953333 351.418528 L 484.61929535387 391.661034666667 L 485.48980117441 349.154944 L 486.36030699495 351.57397333333 L 487.23081281549 349.71511466667 L 488.10131863604 358.797824 L 488.97182445658 339.14442666667003 L 489.84233027712 351.4392 L 490.71283609766 350.654272 L 491.5833419182 356.529984 L 492.45384773875 345.64536533333 L 493.32435355929 353.15274666667 L 494.19485937983 360.43557333333297 L 495.06536520037 366.85483733333297 L 495.93587102091 362.839402666667 L 496.80637684145 358.386005333333 L 497.676882662 363.80612266666697 L 498.54738848254 366.601098666667 L 499.41789430308 363.625546666667 L 500.28840012362 365.392394666667 L 501.15890594416 357.48190933333296 L 502.02941176471 350.03309866667" class="highcharts-graph" data-z-index="1" stroke="rgb(3, 63, 64)" stroke-opacity=" 1" stroke-width="1" stroke-linejoin="round" stroke-linecap="round"></path></g><g class="highcharts-markers highcharts-series-0 highcharts-area-series" data-z-index="0.1" opacity="1" transform="translate(83,59) scale(1 1)" clip-path="none"></g></g><text x="300" text-anchor="middle" class="highcharts-title" data-z-index="4" style="color: rgb(51, 51, 51); font-size: 18px; fill: rgb(51, 51, 51);" y="24">Near Daily Transactions Chart</text><text x="300" text-anchor="middle" class="highcharts-subtitle" data-z-index="4" style="color: rgb(102, 102, 102); fill: rgb(102, 102, 102);" y="44">Source: NearBlocks.io</text><text x="10" text-anchor="start" class="highcharts-caption" data-z-index="4" style="color: rgb(102, 102, 102); fill: rgb(102, 102, 102);" y="547"></text><g class="highcharts-axis-labels highcharts-xaxis-labels" data-z-index="7"><text x="114.28525376876" text-anchor="middle" transform="translate(0,0)" style="color: rgb(102, 102, 102); cursor: default; font-size: 11px; fill: rgb(102, 102, 102);" y="534" opacity="1">May '21</text><text x="221.35746969541" text-anchor="middle" transform="translate(0,0)" style="color: rgb(102, 102, 102); cursor: default; font-size: 11px; fill: rgb(102, 102, 102);" y="534" opacity="1">Sep '21</text><text x="327.55917980152" text-anchor="middle" transform="translate(0,0)" style="color: rgb(102, 102, 102); cursor: default; font-size: 11px; fill: rgb(102, 102, 102);" y="534" opacity="1">Jan '22</text><text x="432.01987826654" text-anchor="middle" transform="translate(0,0)" style="color: rgb(102, 102, 102); cursor: default; font-size: 11px; fill: rgb(102, 102, 102);" y="534" opacity="1">May '22</text><text x="539.09209419319" text-anchor="middle" transform="translate(0,0)" style="color: rgb(102, 102, 102); cursor: default; font-size: 11px; fill: rgb(102, 102, 102);" y="534" opacity="1">Sep '22</text></g><g class="highcharts-axis-labels highcharts-yaxis-labels" data-z-index="7"><text x="68" text-anchor="end" transform="translate(0,0)" style="color: rgb(102, 102, 102); cursor: default; font-size: 11px; fill: rgb(102, 102, 102);" y="520" opacity="1">0</text><text x="68" text-anchor="end" transform="translate(0,0)" style="color: rgb(102, 102, 102); cursor: default; font-size: 11px; fill: rgb(102, 102, 102);" y="469" opacity="1">250k</text><text x="68" text-anchor="end" transform="translate(0,0)" style="color: rgb(102, 102, 102); cursor: default; font-size: 11px; fill: rgb(102, 102, 102);" y="419" opacity="1">500k</text><text x="68" text-anchor="end" transform="translate(0,0)" style="color: rgb(102, 102, 102); cursor: default; font-size: 11px; fill: rgb(102, 102, 102);" y="368" opacity="1">750k</text><text x="68" text-anchor="end" transform="translate(0,0)" style="color: rgb(102, 102, 102); cursor: default; font-size: 11px; fill: rgb(102, 102, 102);" y="317" opacity="1">1 000k</text><text x="68" text-anchor="end" transform="translate(0,0)" style="color: rgb(102, 102, 102); cursor: default; font-size: 11px; fill: rgb(102, 102, 102);" y="267" opacity="1">1 250k</text><text x="68" text-anchor="end" transform="translate(0,0)" style="color: rgb(102, 102, 102); cursor: default; font-size: 11px; fill: rgb(102, 102, 102);" y="216" opacity="1">1 500k</text><text x="68" text-anchor="end" transform="translate(0,0)" style="color: rgb(102, 102, 102); cursor: default; font-size: 11px; fill: rgb(102, 102, 102);" y="165" opacity="1">1 750k</text><text x="68" text-anchor="end" transform="translate(0,0)" style="color: rgb(102, 102, 102); cursor: default; font-size: 11px; fill: rgb(102, 102, 102);" y="115" opacity="1">2 000k</text><text x="68" text-anchor="end" transform="translate(0,0)" style="color: rgb(102, 102, 102); cursor: default; font-size: 11px; fill: rgb(102, 102, 102);" y="64" opacity="1">2 250k</text></g></svg>