<svg width="256" height="256" viewBox="0 0 256 256" fill="none" xmlns="http://www.w3.org/2000/svg">
<style>
@media (prefers-color-scheme: dark) {
  .dark { fill: #0D9488 }
}
</style>
<path class="dark" d="M222.542 93.2969C230.567 112.466 231.155 134.033 224.186 153.626C217.216 173.221 203.209 189.383 185.001 198.842C166.792 208.301 145.738 210.346 126.105 204.57C106.473 198.794 89.724 185.63 79.2484 167.734L133.105 112.79L148.022 156.113C148.458 157.367 149.201 158.487 150.178 159.37C151.154 160.253 152.336 160.874 153.61 161.162C154.886 161.425 156.211 161.35 157.453 160.948C158.694 160.546 159.817 159.829 160.711 158.862L222.542 93.2969Z" fill="#0F5E59"/>
<path class="dark" d="M111.945 52.2818C129.362 43.2699 149.394 41.0139 168.318 45.9389C187.24 50.8638 203.764 62.6322 214.82 79.0539L158.253 139.019L143.494 95.9402C143.072 94.6954 142.344 93.5826 141.382 92.7042C140.419 91.8258 139.253 91.2098 137.994 90.9186C136.733 90.6242 135.414 90.6585 134.172 91.0257C132.931 91.3921 131.803 92.0769 130.892 93.0113L72.3487 152.777C65.8913 133.975 66.3411 113.418 73.6248 94.9329C80.908 76.4482 94.528 61.294 111.945 52.2818Z" fill="#0F5E59"/>
<path class="dark" fill-rule="evenodd" clip-rule="evenodd" d="M150.322 16.0166C172.904 16.4178 194.789 24.0588 212.874 37.86C230.958 51.6608 244.324 70.9189 251.078 92.904C257.832 114.89 257.63 138.486 250.502 160.348C243.372 182.21 229.678 201.23 211.36 214.706C193.041 228.183 171.026 235.43 148.44 235.429V235.393C132.969 235.426 117.673 232.036 103.61 225.457C89.5464 218.878 77.0469 209.261 66.9774 197.278L36.5811 223.728C34.3626 225.656 31.7911 227.121 29.0182 228.035C26.247 228.95 23.3274 229.301 20.4242 229.064C17.5192 228.827 14.6846 228.01 12.0897 226.657C9.49512 225.304 7.18776 223.441 5.29809 221.178C3.4082 218.915 1.97018 216.293 1.07318 213.464C0.176556 210.636 -0.161126 207.655 0.0710279 204.692C0.303445 201.729 1.10244 198.839 2.42862 196.192C3.75492 193.545 5.58172 191.191 7.79987 189.263L45.2761 156.706C38.8971 134.605 39.5003 111.014 46.9992 89.2824C54.4991 67.55 68.5189 48.7747 87.064 35.6242C105.609 22.4739 127.741 15.6157 150.322 16.0166ZM181.108 30.0098C157.699 21.641 132.07 22.5039 109.255 32.4313C86.44 42.3592 68.0871 60.6329 57.8066 83.6608C47.5268 106.69 46.0613 132.809 53.6971 156.884L54.6127 159.777L52.1398 161.484C51.7217 161.789 51.3051 162.096 50.9069 162.442L12.9837 195.47C11.421 196.655 10.1116 198.156 9.14088 199.878C8.17088 201.599 7.55617 203.505 7.33845 205.478C7.12083 207.453 7.30702 209.457 7.87918 211.357C8.45144 213.255 9.40288 215.012 10.6694 216.521C11.9358 218.03 13.4895 219.259 15.2403 220.128C16.9922 220.998 18.9033 221.486 20.8495 221.571C22.7944 221.655 24.7356 221.334 26.5524 220.621C28.3703 219.907 30.0308 218.815 31.419 217.421L68.0156 185.678L70.5895 188.934C86.068 208.707 108.237 221.858 132.738 225.807C157.239 229.754 182.305 224.215 203.004 210.271C223.702 196.326 238.542 174.986 244.604 150.448C250.665 125.911 247.513 99.9464 235.765 77.6608C224.016 55.3747 204.517 38.3793 181.108 30.0098Z" fill="#0F5E59"/>
</svg>
