<svg width="32" height="32" viewBox="0 0 32 32" fill="none" xmlns="http://www.w3.org/2000/svg">
<style>
:root {
  color: #0F5E59;
}
@media (prefers-color-scheme: dark) {
  :root {
    color: #0D9488;
  }
}
</style>
<path d="M27.8178 11.6621C28.8209 14.0583 28.8944 16.7541 28.0232 19.2033C27.152 21.6526 25.4011 23.6729 23.1251 24.8553C20.849 26.0376 18.2172 26.2933 15.7631 25.5713C13.3091 24.8493 11.2155 23.2037 9.90605 20.9668L16.6381 14.0988L18.5028 19.5141C18.5572 19.6709 18.6501 19.8109 18.7722 19.9212C18.8943 20.0316 19.042 20.1092 19.2012 20.1453C19.3608 20.1781 19.5264 20.1688 19.6816 20.1185C19.8367 20.0682 19.9771 19.9786 20.0889 19.8578L27.8178 11.6621Z" fill="currentColor"/>
<path d="M13.9931 6.53521C16.1702 5.40872 18.6743 5.12672 21.0397 5.74234C23.405 6.35795 25.4705 7.82901 26.8525 9.88172L19.7816 17.3774L17.9368 11.9925C17.884 11.8369 17.793 11.6978 17.6727 11.588C17.5524 11.4782 17.4066 11.4012 17.2492 11.3648C17.0916 11.328 16.9268 11.3323 16.7715 11.3782C16.6164 11.424 16.4754 11.5096 16.3615 11.6264L9.04359 19.0971C8.23641 16.7468 8.29264 14.1772 9.2031 11.8666C10.1135 9.55601 11.816 7.66173 13.9931 6.53521Z" fill="currentColor"/>
<path fill-rule="evenodd" clip-rule="evenodd" d="M18.7903 2.00208C21.613 2.05222 24.3486 3.00735 26.6092 4.7325C28.8698 6.4576 30.5405 8.86486 31.3848 11.613C32.229 14.3612 32.2038 17.3108 31.3127 20.0435C30.4215 22.7763 28.7098 25.1538 26.42 26.8383C24.1301 28.5229 21.3782 29.4288 18.555 29.4286V29.4241C16.6211 29.4283 14.7091 29.0045 12.9513 28.1821C11.1933 27.3597 9.63086 26.1576 8.37218 24.6597L4.57264 27.966C4.29532 28.207 3.97389 28.3901 3.62727 28.5044C3.28087 28.6187 2.91592 28.6626 2.55302 28.633C2.1899 28.6034 1.83557 28.5012 1.51121 28.3321C1.18689 28.163 0.89847 27.9301 0.662261 27.6473C0.426025 27.3644 0.246273 27.0366 0.134148 26.683C0.0220695 26.3295 -0.0201408 25.9569 0.00887848 25.5865C0.0379306 25.2161 0.137805 24.8549 0.303577 24.524C0.469365 24.1931 0.697715 23.8989 0.974984 23.6579L5.65951 19.5882C4.86214 16.8256 4.93754 13.8768 5.8749 11.1603C6.81239 8.44375 8.56486 6.09684 10.883 4.45303C13.2011 2.80924 15.9676 1.95196 18.7903 2.00208ZM22.6385 3.75122C19.7124 2.70513 16.5088 2.81299 13.6569 4.05391C10.805 5.2949 8.51089 7.57912 7.22583 10.4576C5.94085 13.3362 5.75766 16.6011 6.71214 19.6105L6.82659 19.9721L6.51747 20.1855C6.46521 20.2236 6.41314 20.262 6.36336 20.3052L1.62296 24.4338C1.42763 24.5819 1.26395 24.7695 1.14261 24.9847C1.02136 25.1999 0.944521 25.4381 0.917306 25.6847C0.890104 25.9316 0.913377 26.1821 0.984897 26.4196C1.05643 26.6569 1.17536 26.8765 1.33367 27.0651C1.49198 27.2537 1.68619 27.4074 1.90504 27.516C2.12403 27.6247 2.36291 27.6858 2.60619 27.6964C2.8493 27.7069 3.09195 27.6668 3.31905 27.5776C3.54629 27.4884 3.75385 27.3519 3.92737 27.1776L8.50195 23.2097L8.82369 23.6168C10.7585 26.0884 13.5296 27.7323 16.5922 28.2259C19.6549 28.7193 22.7881 28.0269 25.3755 26.2839C27.9628 24.5408 29.8178 21.8732 30.5755 18.806C31.3331 15.7389 30.9391 12.4933 29.4706 9.7076C28.002 6.92184 25.5646 4.79741 22.6385 3.75122Z" fill="currentColor"/>
</svg>
