<svg width="113" height="25" viewBox="0 0 113 25" fill="none" xmlns="http://www.w3.org/2000/svg">
<path d="M17.3439 0.460938C15.4363 0.460914 13.5557 0.909526 11.8557 1.77017C10.1556 2.63081 8.68415 3.87909 7.56143 5.41316C6.43871 6.94723 5.69651 8.72361 5.3954 10.5974C5.0943 12.4711 5.24281 14.3891 5.82882 16.1949C5.76483 16.2377 5.70336 16.2842 5.64471 16.334L1.21441 20.0919C1.0023 20.2724 0.828012 20.4927 0.701503 20.7402C0.574994 20.9878 0.498741 21.2576 0.4771 21.5345C0.455459 21.8113 0.488853 22.0897 0.575375 22.3537C0.661897 22.6177 0.799852 22.8622 0.981362 23.0731C1.16283 23.2841 1.38431 23.4575 1.63314 23.5834C1.88198 23.7092 2.1533 23.785 2.43161 23.8066C2.70991 23.8281 2.98976 23.7949 3.25516 23.7088C3.52056 23.6228 3.76632 23.4855 3.97839 23.305L7.882 19.9945C9.15772 21.587 10.8188 22.8315 12.7098 23.6114C14.6008 24.3913 16.6598 24.6811 18.6941 24.4537C20.7284 24.2263 22.6714 23.4892 24.3412 22.3112C26.011 21.1333 27.3531 19.5532 28.2417 17.7187C29.1303 15.8842 29.5364 13.8555 29.4219 11.8223C29.3075 9.78921 28.6763 7.81821 27.5874 6.09387C26.4986 4.36952 24.9876 2.94824 23.1961 1.96306C21.4045 0.977888 19.3909 0.461051 17.3439 0.460938Z" fill="white"/>
<path d="M17.344 24.9954C15.5362 24.9992 13.7492 24.613 12.106 23.8634C10.4629 23.1138 9.00268 22.0186 7.82617 20.6533L4.27448 23.667C4.01526 23.8867 3.71508 24.0534 3.39109 24.1576C3.0671 24.2619 2.72564 24.3016 2.38621 24.2746C2.04677 24.2476 1.71601 24.1543 1.4128 24.0002C1.1096 23.846 0.839892 23.6339 0.61908 23.3761C0.398267 23.1182 0.230674 22.8196 0.12587 22.4973C0.0210652 22.175 -0.0188983 21.8354 0.00826084 21.4977C0.03542 21.1601 0.12917 20.8311 0.284158 20.5294C0.439146 20.2278 0.652337 19.9595 0.911559 19.7399L5.29058 16.0307C4.54523 13.5126 4.61569 10.8251 5.49197 8.34909C6.36825 5.87311 8.00588 3.73436 10.1726 2.23613C12.3394 0.737889 14.9253 -0.0438016 17.5638 0.00189523C20.2022 0.0475921 22.7592 0.918357 24.8722 2.49072C26.9852 4.06308 28.547 6.25724 29.3361 8.76207C30.1252 11.2669 30.1016 13.9553 29.2685 16.446C28.4355 18.9367 26.8354 21.1034 24.695 22.6387C22.5547 24.1741 19.9828 25.0002 17.344 25V24.9954ZM7.94736 19.3319L8.248 19.7028C10.0565 21.9556 12.6466 23.4541 15.5094 23.9039C18.3721 24.3536 21.3004 23.7221 23.7189 22.1334C26.1373 20.5447 27.871 18.1137 28.5793 15.3182C29.2875 12.5226 28.9191 9.56463 27.5464 7.02554C26.1737 4.48645 23.896 2.54984 21.1609 1.59629C18.4258 0.642741 15.4311 0.741207 12.7653 1.87234C10.0995 3.00347 7.9553 5.08547 6.75416 7.70919C5.55303 10.3329 5.38177 13.3086 6.27406 16.0516L6.38126 16.3807L6.09228 16.5755C6.04334 16.6103 5.9944 16.645 5.94778 16.6844L1.51749 20.447C1.33476 20.5819 1.1819 20.7529 1.06841 20.9491C0.954926 21.1454 0.883241 21.3628 0.857815 21.5877C0.83239 21.8127 0.853767 22.0405 0.920617 22.2569C0.987468 22.4734 1.09836 22.6738 1.24641 22.8458C1.39445 23.0177 1.57647 23.1576 1.78116 23.2566C1.98585 23.3556 2.20883 23.4116 2.43622 23.4212C2.66362 23.4309 2.89058 23.3938 3.10298 23.3125C3.31538 23.2311 3.50869 23.1072 3.67088 22.9484L7.94736 19.3319Z" fill="#033F40"/>
<path d="M17.3443 21.866C22.5455 21.866 26.7619 17.6718 26.7619 12.4979C26.7619 7.3241 22.5455 3.12988 17.3443 3.12988C12.1432 3.12988 7.92676 7.3241 7.92676 12.4979C7.92676 17.6718 12.1432 21.866 17.3443 21.866Z" fill="white"/>
<path d="M17.9479 16.538C17.7991 16.505 17.6611 16.435 17.5469 16.3344C17.4328 16.2338 17.3462 16.1061 17.2954 15.9631L15.5521 11.0275L9.25977 17.2868C10.4838 19.3258 12.4407 20.8261 14.7347 21.4842C17.0286 22.1422 19.4882 21.9088 21.6157 20.8312C23.7432 19.7536 25.3797 17.9123 26.194 15.6799C27.0084 13.4475 26.9398 10.9907 26.0021 8.80664L18.7776 16.276C18.673 16.3862 18.5419 16.468 18.3968 16.5138C18.2517 16.5596 18.0972 16.568 17.9479 16.538Z" fill="#033F40"/>
<path d="M16.1231 8.53617C16.2704 8.56932 16.4068 8.6393 16.5194 8.73949C16.6319 8.83969 16.7169 8.96679 16.7663 9.10878L18.4909 14.0165L25.1002 7.18463C23.8085 5.31361 21.8776 3.9729 19.6666 3.4118C17.4556 2.85069 15.1151 3.10736 13.0801 4.1341C11.0451 5.16083 9.4542 6.88776 8.60318 8.99376C7.75215 11.0998 7.69894 13.4415 8.45342 15.5837L15.2935 8.77495C15.4 8.66838 15.5321 8.59055 15.6772 8.54878C15.8224 8.507 15.9758 8.50267 16.1231 8.53617Z" fill="#033F40"/>
<path d="M47.976 8.05371H43.3662V8.82105H47.976V8.05371Z" fill="white"/>
<path d="M43.3662 11.1973V15.289H47.976V14.5147H44.2029V12.0179H47.7243V11.1973H43.3662Z" fill="white"/>
<path d="M49.4189 15.289H50.3115L52.6933 9.06447H53.1058L55.4876 15.289H56.3406L53.5323 8.05371H52.2272L49.4189 15.289Z" fill="white"/>
<path d="M58.249 7.70312V8.49133H61.4045C62.9916 8.49133 63.0219 9.93792 63.0219 10.1396C63.0219 10.3413 63.0056 11.5769 61.4977 11.5769H58.249V15.2537H59.1439V12.284H60.0365C60.2742 12.273 60.5102 12.3293 60.717 12.4463C60.8048 12.501 60.8834 12.569 60.9501 12.648C61.1715 12.9238 62.7213 14.95 62.7213 14.95C62.9517 15.1508 63.2469 15.2626 63.5532 15.2653C63.7029 15.2519 63.8534 15.2519 64.003 15.2653L61.7611 12.284C61.7611 12.284 63.9121 12.1078 63.9098 10.1744C63.9075 8.24096 62.5698 7.73558 61.3836 7.72167C60.1973 7.70776 58.249 7.70312 58.249 7.70312Z" fill="white"/>
<path d="M34.9951 15.2983V8.16504H36.3375L40.8726 14.6167V8.16504H41.6767V15.2983H40.4135L35.7991 8.82574V15.2983H34.9951Z" fill="white"/>
<path d="M66.2637 7.87988H70.8664C71.1058 7.87949 71.3417 7.93676 71.5539 8.0468C71.7721 8.1639 71.9659 8.32125 72.1249 8.51045C72.2946 8.71173 72.4265 8.94184 72.5141 9.1897C72.6135 9.46075 72.6632 9.74734 72.6609 10.0359C72.6621 10.1928 72.6401 10.349 72.5957 10.4995C72.5551 10.642 72.4989 10.7797 72.4279 10.9098C72.3614 11.0328 72.2834 11.1492 72.1948 11.2576C72.1086 11.3619 72.027 11.4546 71.9618 11.5311C72.0394 11.6161 72.1171 11.7089 72.1948 11.8093C72.2818 11.9147 72.3598 12.0271 72.4279 12.1455C72.4988 12.2709 72.5573 12.4029 72.6026 12.5396C72.6496 12.6817 72.6732 12.8304 72.6726 12.98C72.6749 13.2686 72.6251 13.5551 72.5257 13.8262C72.4387 14.0736 72.3068 14.303 72.1365 14.5031C71.9719 14.687 71.7723 14.8367 71.5493 14.9436C71.3376 15.0554 71.1014 15.1135 70.8618 15.1128H66.2637V7.87988ZM71.1344 11.1254C71.3216 10.9843 71.4798 10.8088 71.6005 10.6085C71.7224 10.4284 71.7911 10.218 71.7986 10.0011C71.7973 9.83744 71.7713 9.67491 71.7217 9.51889C71.6753 9.35406 71.6029 9.19757 71.5073 9.05524C71.4177 8.9243 71.3029 8.81239 71.1694 8.72605C71.0339 8.63991 70.8757 8.59555 70.7149 8.59854H67.0793V14.371H70.7382C70.903 14.3763 71.0655 14.3319 71.2043 14.2435C71.3374 14.158 71.4502 14.0449 71.5353 13.912C71.6289 13.7697 71.6982 13.6131 71.7404 13.4483C71.7857 13.2923 71.8093 13.1308 71.8103 12.9684C71.8051 12.749 71.7363 12.5357 71.6122 12.3541C71.4863 12.1527 71.3244 11.9759 71.1344 11.8325H69.6779V11.1254H71.1344Z" fill="white"/>
<path d="M74.1992 15.1128V7.87988H75.0149V14.3826H79.7342V15.1128H74.1992Z" fill="white"/>
<path d="M80.596 10.0749C80.9683 9.19828 81.6711 8.50168 82.5537 8.13453C83.0111 7.94325 83.5023 7.84473 83.9986 7.84473C84.4948 7.84473 84.986 7.94325 85.4435 8.13453C86.3248 8.50355 87.027 9.19954 87.4011 10.0749C87.5934 10.5239 87.6925 11.0068 87.6925 11.4948C87.6925 11.9828 87.5934 12.4658 87.4011 12.9148C87.0262 13.7902 86.3244 14.4866 85.4435 14.8575C84.986 15.0487 84.4948 15.1473 83.9986 15.1473C83.5023 15.1473 83.0111 15.0487 82.5537 14.8575C81.6716 14.4883 80.9692 13.7913 80.596 12.9148C80.4038 12.4658 80.3047 11.9828 80.3047 11.4948C80.3047 11.0068 80.4038 10.5239 80.596 10.0749ZM81.3185 12.6018C81.6257 13.2891 82.1801 13.8374 82.8729 14.1388C83.2279 14.2917 83.6106 14.3706 83.9974 14.3706C84.3842 14.3706 84.7669 14.2917 85.1219 14.1388C85.4684 13.9884 85.7843 13.7763 86.0541 13.5129C86.3242 13.2521 86.5424 12.943 86.6973 12.6018C86.8522 12.2577 86.9317 11.8846 86.9303 11.5076C86.9297 11.13 86.8504 10.7566 86.6973 10.411C86.5476 10.0656 86.3341 9.75107 86.0681 9.48375C85.7981 9.21881 85.4823 9.00443 85.1359 8.85087C84.7824 8.69461 84.3993 8.61556 84.0126 8.61904C83.6236 8.61606 83.2383 8.69507 82.8823 8.85087C82.5351 9.00312 82.2191 9.21765 81.9501 9.48375C81.6834 9.75061 81.4699 10.0652 81.3208 10.411C81.1666 10.7562 81.0872 11.1299 81.0878 11.5076C81.0846 11.8846 81.1633 12.2578 81.3185 12.6018Z" fill="white"/>
<path d="M89.3127 10.0756C89.4992 9.64371 89.7656 9.25052 90.0981 8.91644C90.4332 8.58492 90.8286 8.31979 91.2633 8.13519C91.8206 7.89582 92.4292 7.79905 93.0337 7.85372C93.6382 7.90839 94.2194 8.11275 94.7241 8.44816C95.0111 8.64131 95.2713 8.87125 95.4978 9.13204C95.7249 9.39103 95.9154 9.6796 96.0642 9.98979L95.4116 10.4071C95.2945 10.1558 95.1432 9.92177 94.9618 9.7116C94.7804 9.49593 94.5712 9.30497 94.3396 9.14363C94.105 8.98076 93.8474 8.85341 93.5752 8.76576C92.9226 8.55892 92.2166 8.59601 91.5896 8.87008C91.2432 9.02257 90.9281 9.2371 90.6597 9.50296C90.3923 9.76921 90.1787 10.084 90.0305 10.4303C89.8763 10.7755 89.7969 11.1491 89.7974 11.5268C89.795 11.904 89.8745 12.2772 90.0305 12.621C90.1828 12.9548 90.3961 13.2574 90.6597 13.5135C90.9284 13.7782 91.2446 13.9905 91.5919 14.1395C91.9466 14.2945 92.3301 14.3735 92.7175 14.3713C92.9856 14.3717 93.2524 14.3343 93.5099 14.26C93.7611 14.1902 94.0017 14.0873 94.2254 13.954C94.4461 13.8253 94.6497 13.6695 94.8313 13.4904C95.0152 13.3112 95.1721 13.1066 95.2974 12.883L95.8567 13.4509C95.5302 13.9609 95.0839 14.3841 94.5563 14.6842C93.998 15 93.3644 15.1602 92.7222 15.1479C92.2257 15.1509 91.7339 15.0522 91.2773 14.8581C90.3952 14.489 89.6929 13.7919 89.3197 12.9154C89.1274 12.4665 89.0283 11.9835 89.0283 11.4955C89.0283 11.0075 89.1274 10.5245 89.3197 10.0756H89.3127Z" fill="white"/>
<path d="M97.6094 15.1128V7.87988H98.4251V11.1602H100.895V11.8905H98.4251V15.1128H97.6094ZM104.659 7.87988L102.876 11.5311L104.659 15.1128H103.774L101.967 11.5311L103.774 7.87988H104.659Z" fill="white"/>
<path d="M108.712 8.62199C108.54 8.61078 108.367 8.63713 108.206 8.69919C108.045 8.76126 107.899 8.85754 107.78 8.98132C107.561 9.24002 107.449 9.57115 107.465 9.90862C107.455 10.1951 107.532 10.4781 107.687 10.72C107.771 10.8334 107.877 10.9288 107.999 11.0004C108.121 11.0721 108.257 11.1187 108.397 11.1373V11.8907C108.161 11.8918 107.927 11.8361 107.717 11.7284C107.503 11.621 107.311 11.4756 107.151 11.2996C106.984 11.1164 106.854 10.9042 106.766 10.6736C106.672 10.4296 106.624 10.1701 106.626 9.90862C106.623 9.62816 106.67 9.34937 106.766 9.08564C106.851 8.85144 106.981 8.63632 107.151 8.45276C107.312 8.28096 107.506 8.14301 107.721 8.04707C107.942 7.95137 108.18 7.90241 108.421 7.90333H112.907V8.62199H108.712ZM110.914 14.3944C111.087 14.4056 111.259 14.3793 111.42 14.3172C111.581 14.2552 111.727 14.1589 111.846 14.0351C112.062 13.7794 112.174 13.4529 112.161 13.1194C112.172 12.8343 112.095 12.5526 111.94 12.3126C111.855 12.2007 111.748 12.1068 111.626 12.0364C111.504 11.9659 111.369 11.9203 111.229 11.9023V11.1373C111.466 11.1359 111.701 11.1916 111.912 11.2996C112.124 11.4071 112.316 11.5525 112.476 11.7284C112.643 11.9126 112.773 12.1265 112.86 12.359C112.953 12.6018 113.001 12.8596 113 13.1194C113.004 13.4003 112.955 13.6795 112.856 13.9424C112.767 14.1754 112.634 14.3894 112.464 14.5729C112.304 14.746 112.11 14.8841 111.893 14.9786C111.674 15.0776 111.435 15.1274 111.194 15.1247H106.74V14.3944H110.914Z" fill="white"/>
</svg>
