<svg width="975" height="650" viewBox="0 0 975 650" fill="none" xmlns="http://www.w3.org/2000/svg">
<g clip-path="url(#clip0_3275_6)">
<rect width="975" height="650" fill="white"/>
<rect x="56.198" y="215.302" width="855.156" height="190.938" rx="12.381" fill="#EFF2F5"/>
<rect x="56.198" y="427.229" width="413.021" height="266.094" rx="12.381" fill="#EFF2F5"/>
<rect x="494.947" y="427.229" width="413.021" height="266.094" rx="12.381" fill="#EFF2F5"/>
<rect x="54.1672" y="13.2012" width="37.2396" height="7.10938" rx="3.55469" fill="#EFF2F5"/>
<rect x="94.1155" y="13.2012" width="35.2083" height="7.10938" rx="3.55469" fill="#EFF2F5"/>
<rect x="132.032" y="13.2012" width="25.7292" height="7.10938" rx="3.55469" fill="#EFF2F5"/>
<rect x="165.886" y="14.5552" width="8.125" height="7.10938" rx="3.55469" fill="#EFF2F5"/>
<rect x="176.719" y="13.2012" width="16.25" height="7.10938" rx="3.55469" fill="#EFF2F5"/>
<rect x="195.678" y="13.2012" width="29.1146" height="7.10938" rx="3.55469" fill="#EFF2F5"/>
<rect x="547" y="12.999" width="13" height="8" rx="4" fill="#EFF2F5"/>
<rect x="563" y="12.999" width="280" height="8" rx="4" fill="#EFF2F5"/>
<rect x="904.812" y="13.354" width="7.44792" height="7.10938" rx="3.55469" fill="#EFF2F5"/>
<rect x="852" y="12.6089" width="49.4271" height="8.88672" rx="4.44336" fill="#EFF2F5"/>
<svg  x="31.198" y="37.302" width="234" height="44" viewBox="0 0 234 54" fill="none" xmlns="http://www.w3.org/2000/svg">
<path d="M35.9155 0.996582C31.9653 0.996531 28.0711 1.96553 24.5506 3.82452C21.03 5.6835 17.983 8.3798 15.6581 11.6934C13.3331 15.007 11.7962 18.844 11.1727 22.8912C10.5491 26.9385 10.8567 31.0815 12.0702 34.9819C11.9377 35.0744 11.8104 35.1748 11.6889 35.2824L2.51468 43.3994C2.07544 43.7893 1.71452 44.2652 1.45255 44.7998C1.19058 45.3345 1.03267 45.9175 0.987856 46.5154C0.943042 47.1134 1.01219 47.7147 1.19136 48.285C1.37053 48.8552 1.65621 49.3833 2.03208 49.8389C2.40787 50.2947 2.8665 50.6692 3.38179 50.941C3.89708 51.2128 4.45892 51.3767 5.03524 51.4232C5.61156 51.4697 6.19106 51.3979 6.74065 51.212C7.29025 51.0261 7.79916 50.7297 8.23833 50.3397L16.3219 43.1891C18.9637 46.629 22.4035 49.317 26.3194 51.0016C30.2352 52.6862 34.499 53.3122 38.7116 52.821C42.9242 52.3299 46.9478 50.7376 50.4056 48.1932C53.8635 45.6489 56.6426 42.2358 58.4827 38.2733C60.3228 34.3109 61.1637 29.9288 60.9268 25.5372C60.6898 21.1456 59.3828 16.8883 57.1279 13.1637C54.8731 9.43913 51.7442 6.36914 48.0343 4.24117C44.3243 2.11319 40.1546 0.996827 35.9155 0.996582Z" fill="white"/>
<path d="M35.9159 53.99C32.1724 53.9983 28.4718 53.1641 25.0691 51.5449C21.6665 49.9257 18.6427 47.5601 16.2064 44.6111L8.85159 51.1207C8.31479 51.5952 7.69319 51.9553 7.02227 52.1805C6.35135 52.4057 5.64425 52.4915 4.94135 52.4332C4.23845 52.3748 3.55351 52.1734 2.92563 51.8404C2.29776 51.5073 1.73925 51.0493 1.28199 50.4923C0.824731 49.9353 0.47768 49.2904 0.260651 48.5942C0.0436218 47.8981 -0.0391346 47.1644 0.0171065 46.4351C0.0733477 45.7058 0.267485 44.9951 0.588434 44.3436C0.909383 43.6921 1.35086 43.1126 1.88765 42.6382L10.9557 34.6263C9.41226 29.1873 9.55817 23.3822 11.3728 18.034C13.1874 12.6859 16.5786 8.06623 21.0655 4.83003C25.5524 1.59384 30.9074 -0.0946115 36.371 0.00409369C41.8346 0.102799 47.1297 1.98365 51.5053 5.37995C55.8809 8.77626 59.1151 13.5156 60.7491 18.9261C62.3832 24.3365 62.3343 30.1434 60.6092 35.5233C58.8842 40.9033 55.5707 45.5832 51.1385 48.8996C46.7063 52.216 41.3803 54.0005 35.9159 54V53.99ZM16.4574 41.7569L17.0799 42.5581C20.825 47.4241 26.1886 50.6609 32.1168 51.6324C38.0449 52.6039 44.1089 51.2398 49.117 47.8082C54.1251 44.3766 57.7152 39.1256 59.1819 33.0872C60.6485 27.0488 59.8856 20.6596 57.043 15.1752C54.2005 9.69073 49.4838 5.50765 43.82 3.44798C38.1562 1.38832 31.9547 1.60101 26.4343 4.04425C20.914 6.48749 16.4738 10.9846 13.9865 16.6518C11.4992 22.3191 11.1446 28.7466 12.9923 34.6714L13.2143 35.3824L12.6159 35.803C12.5145 35.8782 12.4132 35.9533 12.3167 36.0384L3.14242 44.1654C2.76402 44.457 2.44747 44.8262 2.21247 45.2501C1.97746 45.674 1.82901 46.1436 1.77636 46.6295C1.72371 47.1155 1.76798 47.6075 1.90641 48.075C2.04485 48.5425 2.27449 48.9754 2.58105 49.3468C2.88762 49.7183 3.26456 50.0203 3.68843 50.2342C4.1123 50.448 4.57404 50.5691 5.04493 50.5899C5.51583 50.6107 5.98581 50.5307 6.42565 50.355C6.86549 50.1793 7.26579 49.9115 7.60165 49.5684L16.4574 41.7569Z" fill="#033F40"/>
<path d="M35.916 47.2302C46.6866 47.2302 55.4179 38.1707 55.4179 26.9952C55.4179 15.8198 46.6866 6.76025 35.916 6.76025C25.1454 6.76025 16.4141 15.8198 16.4141 26.9952C16.4141 38.1707 25.1454 47.2302 35.916 47.2302Z" fill="white"/>
<path d="M37.1662 35.7227C36.858 35.6515 36.5723 35.5002 36.3359 35.2829C36.0995 35.0657 35.9202 34.7897 35.8149 34.4809L32.205 23.8201L19.1748 37.3401C21.7094 41.7443 25.7619 44.985 30.5122 46.4064C35.2625 47.8277 40.3558 47.3236 44.7614 44.996C49.167 42.6684 52.5559 38.6912 54.2423 33.8691C55.9287 29.0471 55.7866 23.7404 53.8449 19.0229L38.8842 35.1569C38.6677 35.3947 38.3963 35.5714 38.0958 35.6704C37.7952 35.7694 37.4753 35.7874 37.1662 35.7227Z" fill="#033F40"/>
<path d="M33.3873 18.4373C33.6924 18.5089 33.9748 18.66 34.2079 18.8765C34.4409 19.0929 34.617 19.3674 34.7193 19.6741L38.2905 30.2748L51.9771 15.518C49.3021 11.4766 45.3036 8.58063 40.7251 7.36864C36.1467 6.15665 31.2998 6.71107 27.0858 8.92881C22.8717 11.1466 19.5773 14.8767 17.815 19.4257C16.0527 23.9747 15.9425 29.0329 17.5049 33.6598L31.6692 18.9531C31.8899 18.7229 32.1634 18.5547 32.4639 18.4645C32.7645 18.3743 33.0823 18.3649 33.3873 18.4373Z" fill="#033F40"/>
<path d="M99.3486 17.396H89.8027V19.0535H99.3486V17.396Z" fill="#033F40"/>
<path d="M89.8027 24.186V33.0241H99.3486V31.3516H91.5353V25.9587H98.8274V24.186H89.8027Z" fill="#2A323A"/>
<path d="M102.336 33.0241H104.184L109.116 19.5792H109.971L114.903 33.0241H116.669L110.854 17.396H108.151L102.336 33.0241Z" fill="#2A323A"/>
<path d="M120.622 16.6396V18.3422H127.156C130.443 18.3422 130.506 21.4668 130.506 21.9024C130.506 22.3381 130.472 25.007 127.35 25.007H120.622V32.9488H122.475V26.5343H124.324C124.816 26.5106 125.304 26.6321 125.733 26.8848C125.915 27.003 126.077 27.15 126.215 27.3205C126.674 27.9164 129.883 32.2928 129.883 32.2928C130.36 32.7265 130.972 32.9682 131.606 32.9738C131.916 32.945 132.228 32.945 132.537 32.9738L127.895 26.5343C127.895 26.5343 132.349 26.1537 132.344 21.9776C132.34 17.8014 129.57 16.7098 127.113 16.6797C124.657 16.6497 120.622 16.6396 120.622 16.6396Z" fill="#2A323A"/>
<path d="M72.4678 33.0441V17.6362H75.2476L84.639 31.5719V17.6362H86.3039V33.0441H83.6882L74.1328 19.0633V33.0441H72.4678Z" fill="#2A323A"/>
<path d="M137.219 17.02H146.75C147.246 17.0192 147.734 17.1429 148.174 17.3806C148.626 17.6335 149.027 17.9734 149.356 18.382C149.708 18.8168 149.981 19.3138 150.162 19.8492C150.368 20.4347 150.471 21.0537 150.466 21.6769C150.469 22.0158 150.423 22.3532 150.331 22.6784C150.247 22.9863 150.131 23.2835 149.984 23.5647C149.846 23.8303 149.684 24.0818 149.501 24.3158C149.322 24.5412 149.153 24.7415 149.018 24.9067C149.179 25.0903 149.34 25.2906 149.501 25.5076C149.681 25.7352 149.843 25.978 149.984 26.2337C150.13 26.5047 150.252 26.7897 150.346 27.0849C150.443 27.3919 150.492 27.7132 150.49 28.0363C150.495 28.6595 150.392 29.2786 150.186 29.8641C150.006 30.3985 149.733 30.894 149.38 31.3262C149.039 31.7234 148.626 32.0467 148.164 32.2776C147.726 32.5192 147.237 32.6447 146.74 32.6432H137.219V17.02ZM147.305 24.0304C147.693 23.7256 148.02 23.3466 148.27 22.9138C148.523 22.5249 148.665 22.0704 148.681 21.6018C148.678 21.2483 148.624 20.8973 148.521 20.5603C148.425 20.2042 148.275 19.8662 148.077 19.5588C147.892 19.276 147.654 19.0342 147.378 18.8477C147.097 18.6617 146.769 18.5658 146.436 18.5723H138.908V31.0408H146.485C146.826 31.0523 147.162 30.9563 147.45 30.7654C147.725 30.5807 147.959 30.3364 148.135 30.0493C148.329 29.7421 148.473 29.4037 148.56 29.0478C148.654 28.7109 148.703 28.3621 148.705 28.0113C148.694 27.5372 148.551 27.0765 148.294 26.6843C148.034 26.2492 147.698 25.8673 147.305 25.5577H144.289V24.0304H147.305Z" fill="#033F40"/>
<path d="M153.651 32.6432V17.02H155.34V31.0658H165.113V32.6432H153.651Z" fill="#033F40"/>
<path d="M166.898 21.762C167.669 19.8685 169.124 18.3638 170.952 17.5708C171.899 17.1576 172.917 16.9448 173.944 16.9448C174.972 16.9448 175.989 17.1576 176.936 17.5708C178.761 18.3679 180.215 19.8712 180.99 21.762C181.388 22.7318 181.593 23.775 181.593 24.829C181.593 25.8831 181.388 26.9263 180.99 27.8961C180.214 29.787 178.761 31.2914 176.936 32.0923C175.989 32.5055 174.972 32.7183 173.944 32.7183C172.917 32.7183 171.899 32.5055 170.952 32.0923C169.126 31.2949 167.671 29.7894 166.898 27.8961C166.5 26.9263 166.295 25.8831 166.295 24.829C166.295 23.775 166.5 22.7318 166.898 21.762ZM168.394 27.2201C169.03 28.7048 170.179 29.889 171.613 30.54C172.348 30.8703 173.141 31.0408 173.942 31.0408C174.743 31.0408 175.535 30.8703 176.27 30.54C176.988 30.2152 177.642 29.757 178.201 29.188C178.76 28.6248 179.212 27.9571 179.533 27.2201C179.854 26.4768 180.018 25.671 180.015 24.8566C180.014 24.041 179.85 23.2345 179.533 22.4881C179.223 21.7419 178.781 21.0625 178.23 20.4851C177.671 19.9129 177.017 19.4498 176.299 19.1181C175.567 18.7806 174.774 18.6098 173.973 18.6173C173.168 18.6109 172.37 18.7816 171.633 19.1181C170.914 19.4469 170.259 19.9103 169.702 20.4851C169.15 21.0615 168.708 21.7411 168.399 22.4881C168.08 23.2337 167.915 24.0407 167.917 24.8566C167.91 25.6709 168.073 26.4771 168.394 27.2201Z" fill="#033F40"/>
<path d="M184.948 21.7624C185.335 20.8296 185.886 19.9803 186.575 19.2587C187.269 18.5426 188.087 17.97 188.988 17.5712C190.142 17.0542 191.402 16.8452 192.654 16.9632C193.906 17.0813 195.109 17.5227 196.154 18.2472C196.748 18.6644 197.287 19.1611 197.756 19.7244C198.227 20.2838 198.621 20.9071 198.929 21.5771L197.578 22.4785C197.335 21.9357 197.022 21.4302 196.646 20.9763C196.271 20.5104 195.837 20.0979 195.358 19.7494C194.872 19.3976 194.339 19.1226 193.775 18.9332C192.424 18.4865 190.962 18.5666 189.663 19.1586C188.946 19.488 188.293 19.9513 187.738 20.5256C187.184 21.1007 186.742 21.7806 186.435 22.5286C186.115 23.2742 185.951 24.0812 185.952 24.8971C185.947 25.7118 186.112 26.518 186.435 27.2606C186.75 27.9815 187.192 28.6352 187.738 29.1884C188.294 29.7602 188.949 30.2187 189.668 30.5404C190.403 30.8753 191.197 31.0459 191.999 31.0412C192.554 31.0421 193.107 30.9612 193.64 30.8008C194.16 30.6501 194.658 30.4278 195.121 30.1398C195.578 29.8619 196 29.5254 196.376 29.1383C196.757 28.7513 197.082 28.3095 197.341 27.8264L198.5 29.0532C197.823 30.1546 196.899 31.0689 195.807 31.7172C194.65 32.3992 193.338 32.7451 192.009 32.7187C190.98 32.725 189.962 32.512 189.017 32.0927C187.19 31.2953 185.736 29.7898 184.963 27.8965C184.565 26.9267 184.359 25.8835 184.359 24.8295C184.359 23.7754 184.565 22.7322 184.963 21.7624H184.948Z" fill="#033F40"/>
<path d="M202.129 32.6432V17.02H203.818V24.1055H208.934V25.6829H203.818V32.6432H202.129ZM216.728 17.02L213.036 24.9067L216.728 32.6432H214.894L211.154 24.9067L214.894 17.02H216.728Z" fill="#033F40"/>
<path d="M225.119 18.6226C224.763 18.5984 224.405 18.6553 224.072 18.7894C223.738 18.9235 223.437 19.1314 223.189 19.3988C222.737 19.9576 222.504 20.6728 222.538 21.4018C222.516 22.0206 222.676 22.6318 222.996 23.1544C223.171 23.3993 223.391 23.6052 223.644 23.7601C223.897 23.9149 224.177 24.0154 224.468 24.0557V25.6831C223.978 25.6854 223.495 25.5652 223.059 25.3326C222.617 25.1004 222.219 24.7865 221.886 24.4062C221.542 24.0106 221.272 23.5521 221.09 23.0542C220.894 22.5271 220.796 21.9665 220.8 21.4018C220.793 20.796 220.891 20.1938 221.09 19.6241C221.265 19.1182 221.536 18.6536 221.886 18.2571C222.22 17.886 222.622 17.588 223.068 17.3808C223.525 17.1741 224.018 17.0684 224.516 17.0703H233.806V18.6226H225.119ZM229.68 31.0911C230.037 31.1153 230.394 31.0584 230.728 30.9244C231.061 30.7903 231.363 30.5823 231.61 30.315C232.057 29.7626 232.289 29.0575 232.262 28.337C232.285 27.7211 232.125 27.1128 231.803 26.5944C231.627 26.3527 231.406 26.1499 231.153 25.9977C230.901 25.8455 230.621 25.7471 230.332 25.7081V24.0557C230.823 24.0528 231.308 24.173 231.746 24.4062C232.186 24.6385 232.582 24.9524 232.913 25.3326C233.259 25.7303 233.53 26.1925 233.71 26.6946C233.902 27.2191 234 27.7758 233.999 28.337C234.008 28.9438 233.907 29.5469 233.7 30.1147C233.516 30.6181 233.241 31.0803 232.889 31.4767C232.558 31.8504 232.155 32.1488 231.707 32.353C231.252 32.5667 230.758 32.6744 230.259 32.6684H221.037V31.0911H229.68Z" fill="#033F40"/>
</svg>
<rect x="461.812" y="51.356" width="7.44792" height="7.10938" rx="3.55469" fill="#EFF2F5"/>
<rect x="409" y="50.6108" width="49.4271" height="8.88672" rx="4.44336" fill="#EFF2F5"/>
<rect x="538.738" y="51.3569" width="7.44792" height="7.10938" rx="3.55469" fill="#EFF2F5"/>
<rect x="485.926" y="50.6118" width="49.4271" height="8.88672" rx="4.44336" fill="#EFF2F5"/>
<rect x="607.738" y="51.3569" width="7.44792" height="7.10938" rx="3.55469" fill="#EFF2F5"/>
<rect x="554.926" y="50.6118" width="49.4271" height="8.88672" rx="4.44336" fill="#EFF2F5"/>
<rect x="678.812" y="51.3569" width="7.44792" height="7.10938" rx="3.55469" fill="#EFF2F5"/>
<rect x="626" y="50.6118" width="49.4271" height="8.88672" rx="4.44336" fill="#EFF2F5"/>
<rect x="749.738" y="51.3569" width="7.44792" height="7.10938" rx="3.55469" fill="#EFF2F5"/>
<rect x="696.926" y="50.6118" width="49.4271" height="8.88672" rx="4.44336" fill="#EFF2F5"/>
<rect x="826.812" y="51.3569" width="7.44792" height="7.10938" rx="3.55469" fill="#EFF2F5"/>
<rect x="774" y="50.6118" width="49.4271" height="8.88672" rx="4.44336" fill="#EFF2F5"/>
<line x1="843.275" y1="52.9966" x2="843.275" y2="62.4757" stroke="#EFF2F5" stroke-width="0.677083"/>
<rect x="904.738" y="51.3569" width="7.44792" height="7.10938" rx="3.55469" fill="#EFF2F5"/>
<rect x="851.926" y="50.6118" width="49.4271" height="8.88672" rx="4.44336" fill="#EFF2F5"/>
<rect x="364.915" y="50.6118" width="27.0833" height="8.88672" rx="4.44336" fill="#EFF2F5"/>
<rect x="54" y="115" width="261" height="16" rx="4" fill="#EFF2F5"/>
<rect x="54" y="137" width="195" height="16" rx="4" fill="#EFF2F5"/>
<rect x="54" y="159" width="78" height="16" rx="4" fill="#EFF2F5"/>
<g clip-path="url(#clip2_3275_6)">
<rect x="616" y="97" width="292" height="97" rx="5.13997" fill="#495057"/>
<rect width="80.614" height="74.456" rx="0.843277" transform="matrix(0.982 -0.188879 0.501622 0.865087 805.01 164.186)" fill="white"/>
<path d="M845.271 180.523C844.668 180.639 844.451 181.161 844.747 181.672C845.055 182.203 845.762 182.525 846.365 182.41C846.945 182.298 847.196 181.791 846.889 181.26C846.592 180.749 845.851 180.411 845.271 180.523ZM850.849 177.528L842.282 179.175C841.502 179.326 841.185 180.02 841.584 180.708L845.231 186.997C845.641 187.704 846.607 188.13 847.388 187.98L855.954 186.332C856.735 186.182 857.063 185.507 856.653 184.8L853.006 178.511C852.607 177.823 851.652 177.373 850.849 177.528ZM855.514 184.888L850.338 181.82C850.214 181.735 850.068 181.697 849.934 181.723C849.778 181.753 849.701 181.833 849.668 181.949L848.945 185.234L847.595 184.488C847.46 184.427 847.314 184.39 847.181 184.415C847.047 184.441 846.969 184.521 846.926 184.617L846.324 186.786L842.655 180.502C842.564 180.345 842.651 180.153 842.829 180.119L851.396 178.471C851.597 178.432 851.844 178.56 851.935 178.717L855.514 184.888Z" fill="#334155"/>
<g filter="url(#filter0_d_3275_6)">
<rect width="80.614" height="74.456" rx="0.843277" transform="matrix(0.982 -0.188879 0.501622 0.865087 838.488 128.816)" fill="white"/>
<path d="M878.749 145.153C878.147 145.269 877.929 145.792 878.225 146.303C878.533 146.833 879.241 147.156 879.843 147.04C880.423 146.928 880.675 146.421 880.367 145.891C880.071 145.38 879.329 145.042 878.749 145.153ZM884.328 142.158L875.761 143.806C874.98 143.956 874.664 144.65 875.063 145.338L878.709 151.627C879.119 152.335 880.085 152.76 880.866 152.61L889.433 150.962C890.214 150.812 890.542 150.138 890.131 149.43L886.485 143.141C886.086 142.453 885.131 142.004 884.328 142.158ZM888.992 149.518L883.816 146.451C883.692 146.365 883.547 146.328 883.413 146.353C883.257 146.383 883.179 146.464 883.147 146.579L882.423 149.864L881.074 149.119C880.939 149.057 880.793 149.02 880.659 149.046C880.525 149.071 880.448 149.152 880.404 149.248L879.802 151.417L876.133 145.132C876.042 144.975 876.129 144.783 876.308 144.749L884.875 143.101C885.075 143.063 885.323 143.19 885.414 143.347L888.992 149.518Z" fill="#334155"/>
</g>
<g filter="url(#filter1_d_3275_6)">
<rect x="627" y="159.986" width="40" height="15" rx="3" fill="white" shape-rendering="crispEdges"/>
<path d="M634.893 167.929C634.893 167.853 634.88 167.785 634.853 167.726C634.829 167.667 634.784 167.613 634.719 167.564C634.655 167.515 634.563 167.467 634.445 167.422C634.329 167.374 634.181 167.326 634 167.277C633.803 167.223 633.62 167.163 633.453 167.097C633.287 167.03 633.143 166.952 633.019 166.864C632.896 166.775 632.8 166.672 632.731 166.558C632.663 166.441 632.628 166.307 632.628 166.155C632.628 166.004 632.664 165.867 632.734 165.744C632.806 165.621 632.908 165.514 633.039 165.425C633.172 165.334 633.329 165.263 633.51 165.214C633.69 165.164 633.89 165.138 634.109 165.138C634.417 165.138 634.682 165.189 634.905 165.29C635.129 165.392 635.301 165.528 635.421 165.698C635.543 165.869 635.604 166.057 635.604 166.264H634.893C634.893 166.142 634.864 166.035 634.805 165.942C634.748 165.847 634.66 165.773 634.542 165.719C634.426 165.665 634.279 165.638 634.1 165.638C633.931 165.638 633.79 165.66 633.678 165.706C633.566 165.752 633.482 165.813 633.427 165.891C633.372 165.969 633.344 166.057 633.344 166.155C633.344 166.224 633.362 166.287 633.399 166.345C633.435 166.4 633.49 166.453 633.564 166.502C633.638 166.549 633.731 166.594 633.844 166.636C633.956 166.678 634.088 166.719 634.24 166.758C634.47 166.819 634.671 166.886 634.842 166.96C635.013 167.033 635.156 167.116 635.27 167.209C635.384 167.302 635.47 167.407 635.527 167.526C635.584 167.642 635.612 167.775 635.612 167.923C635.612 168.079 635.577 168.219 635.507 168.344C635.436 168.467 635.335 168.573 635.204 168.661C635.075 168.747 634.919 168.814 634.736 168.861C634.556 168.907 634.354 168.93 634.132 168.93C633.932 168.93 633.735 168.906 633.541 168.859C633.349 168.811 633.174 168.739 633.016 168.643C632.858 168.545 632.733 168.424 632.64 168.278C632.547 168.131 632.5 167.96 632.5 167.764H633.216C633.216 167.884 633.239 167.986 633.284 168.07C633.332 168.155 633.398 168.224 633.481 168.278C633.565 168.331 633.662 168.37 633.772 168.395C633.884 168.42 634.004 168.433 634.132 168.433C634.299 168.433 634.439 168.412 634.551 168.37C634.665 168.327 634.751 168.268 634.808 168.192C634.865 168.116 634.893 168.028 634.893 167.929Z" fill="#1F2937"/>
<path d="M637.533 166.137V166.583H635.793V166.137H637.533ZM636.295 165.465H636.983V168.121C636.983 168.206 636.996 168.271 637.023 168.316C637.051 168.36 637.09 168.39 637.14 168.405C637.189 168.42 637.247 168.428 637.314 168.428C637.361 168.428 637.407 168.425 637.451 168.42C637.494 168.415 637.53 168.41 637.556 168.405L637.559 168.871C637.502 168.886 637.436 168.9 637.359 168.912C637.285 168.924 637.2 168.93 637.103 168.93C636.945 168.93 636.805 168.905 636.683 168.856C636.562 168.805 636.467 168.723 636.398 168.61C636.33 168.497 636.295 168.347 636.295 168.159V165.465Z" fill="#1F2937"/>
<path d="M639.746 168.329V167.021C639.746 166.923 639.726 166.839 639.686 166.768C639.646 166.697 639.585 166.642 639.503 166.603C639.423 166.564 639.323 166.545 639.201 166.545C639.089 166.545 638.992 166.562 638.91 166.596C638.828 166.629 638.764 166.675 638.719 166.732C638.673 166.79 638.65 166.855 638.65 166.928H637.966C637.966 166.819 637.995 166.715 638.054 166.613C638.113 166.512 638.199 166.422 638.311 166.342C638.423 166.263 638.557 166.2 638.713 166.155C638.869 166.109 639.044 166.086 639.238 166.086C639.47 166.086 639.675 166.121 639.854 166.19C640.035 166.259 640.176 166.364 640.279 166.504C640.384 166.643 640.436 166.817 640.436 167.026V168.245C640.436 168.37 640.446 168.483 640.465 168.582C640.485 168.68 640.515 168.766 640.553 168.838V168.879H639.848C639.816 168.813 639.79 168.729 639.771 168.628C639.754 168.525 639.746 168.425 639.746 168.329ZM639.846 167.211L639.851 167.589H639.358C639.23 167.589 639.118 167.6 639.021 167.622C638.924 167.642 638.843 167.673 638.779 167.713C638.714 167.754 638.666 167.803 638.633 167.86C638.601 167.918 638.585 167.983 638.585 168.055C638.585 168.128 638.604 168.195 638.642 168.255C638.68 168.315 638.735 168.361 638.807 168.395C638.881 168.429 638.971 168.446 639.075 168.446C639.216 168.446 639.339 168.42 639.443 168.37C639.55 168.317 639.633 168.254 639.694 168.179C639.755 168.103 639.788 168.032 639.791 167.964L640.014 168.235C639.991 168.304 639.952 168.379 639.897 168.458C639.842 168.538 639.769 168.614 639.68 168.686C639.593 168.757 639.487 168.816 639.363 168.861C639.242 168.907 639.101 168.93 638.941 168.93C638.74 168.93 638.56 168.894 638.402 168.823C638.244 168.75 638.121 168.653 638.031 168.532C637.942 168.408 637.897 168.269 637.897 168.114C637.897 167.968 637.928 167.84 637.988 167.728C638.051 167.615 638.143 167.521 638.262 167.445C638.384 167.368 638.532 167.311 638.707 167.272C638.882 167.232 639.082 167.211 639.306 167.211H639.846Z" fill="#1F2937"/>
<path d="M641.787 166.659V168.879H641.099V166.137H641.755L641.787 166.659ZM642.731 166.119L642.725 166.687C642.683 166.68 642.638 166.675 642.588 166.672C642.541 166.668 642.493 166.667 642.446 166.667C642.328 166.667 642.224 166.682 642.135 166.712C642.045 166.741 641.97 166.783 641.909 166.839C641.85 166.893 641.805 166.959 641.773 167.037C641.74 167.114 641.721 167.201 641.715 167.298L641.559 167.308C641.559 167.135 641.578 166.976 641.616 166.829C641.654 166.682 641.711 166.552 641.787 166.441C641.865 166.329 641.962 166.242 642.078 166.18C642.196 166.117 642.332 166.086 642.486 166.086C642.528 166.086 642.572 166.09 642.62 166.096C642.669 166.103 642.706 166.111 642.731 166.119Z" fill="#1F2937"/>
<path d="M644.661 166.137V166.583H642.921V166.137H644.661ZM643.423 165.465H644.11V168.121C644.11 168.206 644.124 168.271 644.15 168.316C644.179 168.36 644.218 168.39 644.267 168.405C644.317 168.42 644.375 168.428 644.441 168.428C644.489 168.428 644.534 168.425 644.578 168.42C644.622 168.415 644.657 168.41 644.684 168.405L644.686 168.871C644.629 168.886 644.563 168.9 644.487 168.912C644.413 168.924 644.327 168.93 644.23 168.93C644.072 168.93 643.932 168.905 643.811 168.856C643.689 168.805 643.594 168.723 643.525 168.61C643.457 168.497 643.423 168.347 643.423 168.159V165.465Z" fill="#1F2937"/>
<path d="M648.17 165.189V168.879H647.459V165.189H648.17ZM649.473 165.189V165.696H646.167V165.189H649.473Z" fill="#1F2937"/>
<path d="M649.363 167.538V167.48C649.363 167.282 649.396 167.099 649.46 166.93C649.525 166.759 649.618 166.612 649.74 166.487C649.864 166.36 650.014 166.262 650.191 166.193C650.369 166.122 650.571 166.086 650.795 166.086C651.022 166.086 651.223 166.122 651.4 166.193C651.579 166.262 651.73 166.36 651.854 166.487C651.977 166.612 652.072 166.759 652.136 166.93C652.201 167.099 652.233 167.282 652.233 167.48V167.538C652.233 167.736 652.201 167.919 652.136 168.088C652.072 168.257 651.977 168.405 651.854 168.532C651.73 168.657 651.58 168.755 651.403 168.826C651.226 168.895 651.026 168.93 650.801 168.93C650.575 168.93 650.372 168.895 650.194 168.826C650.017 168.755 649.866 168.657 649.743 168.532C649.619 168.405 649.525 168.257 649.46 168.088C649.396 167.919 649.363 167.736 649.363 167.538ZM650.051 167.48V167.538C650.051 167.662 650.065 167.778 650.094 167.888C650.122 167.998 650.167 168.094 650.228 168.177C650.289 168.26 650.367 168.325 650.462 168.372C650.557 168.419 650.67 168.443 650.801 168.443C650.929 168.443 651.039 168.419 651.132 168.372C651.227 168.325 651.305 168.26 651.366 168.177C651.427 168.094 651.472 167.998 651.5 167.888C651.531 167.778 651.546 167.662 651.546 167.538V167.48C651.546 167.358 651.531 167.243 651.5 167.135C651.472 167.026 651.426 166.928 651.363 166.844C651.302 166.759 651.224 166.694 651.129 166.646C651.036 166.597 650.925 166.573 650.795 166.573C650.666 166.573 650.554 166.597 650.459 166.646C650.366 166.694 650.289 166.759 650.228 166.844C650.167 166.928 650.122 167.026 650.094 167.135C650.065 167.243 650.051 167.358 650.051 167.48Z" fill="#1F2937"/>
<path d="M654.634 168.311V164.986H655.324V168.879H654.699L654.634 168.311ZM652.625 167.538V167.485C652.625 167.277 652.653 167.088 652.708 166.917C652.763 166.745 652.843 166.597 652.948 166.474C653.052 166.349 653.18 166.253 653.33 166.188C653.48 166.12 653.65 166.086 653.838 166.086C654.024 166.086 654.188 166.118 654.328 166.182C654.469 166.247 654.589 166.339 654.688 166.459C654.787 166.577 654.866 166.719 654.925 166.884C654.984 167.048 655.025 167.231 655.05 167.432V167.602C655.025 167.798 654.984 167.977 654.925 168.139C654.866 168.301 654.787 168.441 654.688 168.56C654.589 168.678 654.468 168.769 654.326 168.833C654.185 168.897 654.02 168.93 653.832 168.93C653.646 168.93 653.477 168.895 653.327 168.826C653.179 168.756 653.052 168.659 652.948 168.534C652.843 168.409 652.763 168.262 652.708 168.093C652.653 167.923 652.625 167.738 652.625 167.538ZM653.313 167.485V167.538C653.313 167.663 653.325 167.78 653.35 167.888C653.377 167.996 653.418 168.092 653.473 168.174C653.528 168.255 653.599 168.32 653.687 168.367C653.776 168.413 653.883 168.435 654.006 168.435C654.162 168.435 654.29 168.405 654.391 168.344C654.492 168.283 654.571 168.201 654.628 168.098C654.687 167.994 654.727 167.877 654.748 167.749V167.29C654.736 167.19 654.713 167.097 654.676 167.011C654.642 166.925 654.596 166.85 654.537 166.786C654.478 166.72 654.405 166.669 654.317 166.634C654.231 166.596 654.13 166.578 654.012 166.578C653.886 166.578 653.78 166.601 653.692 166.649C653.605 166.696 653.533 166.761 653.476 166.844C653.42 166.927 653.38 167.023 653.353 167.133C653.326 167.243 653.313 167.36 653.313 167.485Z" fill="#1F2937"/>
<path d="M657.725 168.329V167.021C657.725 166.923 657.705 166.839 657.665 166.768C657.625 166.697 657.564 166.642 657.482 166.603C657.402 166.564 657.301 166.545 657.18 166.545C657.067 166.545 656.971 166.562 656.889 166.596C656.807 166.629 656.743 166.675 656.698 166.732C656.652 166.79 656.629 166.855 656.629 166.928H655.945C655.945 166.819 655.974 166.715 656.033 166.613C656.092 166.512 656.177 166.422 656.29 166.342C656.402 166.263 656.536 166.2 656.692 166.155C656.848 166.109 657.023 166.086 657.217 166.086C657.449 166.086 657.654 166.121 657.833 166.19C658.014 166.259 658.155 166.364 658.258 166.504C658.363 166.643 658.415 166.817 658.415 167.026V168.245C658.415 168.37 658.424 168.483 658.443 168.582C658.464 168.68 658.494 168.766 658.532 168.838V168.879H657.827C657.795 168.813 657.769 168.729 657.75 168.628C657.733 168.525 657.725 168.425 657.725 168.329ZM657.824 167.211L657.83 167.589H657.337C657.209 167.589 657.097 167.6 657 167.622C656.903 167.642 656.822 167.673 656.758 167.713C656.693 167.754 656.644 167.803 656.612 167.86C656.58 167.918 656.564 167.983 656.564 168.055C656.564 168.128 656.583 168.195 656.621 168.255C656.659 168.315 656.714 168.361 656.786 168.395C656.86 168.429 656.95 168.446 657.054 168.446C657.195 168.446 657.318 168.42 657.422 168.37C657.529 168.317 657.612 168.254 657.673 168.179C657.734 168.103 657.766 168.032 657.77 167.964L657.993 168.235C657.97 168.304 657.931 168.379 657.876 168.458C657.821 168.538 657.748 168.614 657.659 168.686C657.571 168.757 657.466 168.816 657.342 168.861C657.221 168.907 657.08 168.93 656.92 168.93C656.719 168.93 656.539 168.894 656.381 168.823C656.223 168.75 656.1 168.653 656.01 168.532C655.921 168.408 655.876 168.269 655.876 168.114C655.876 167.968 655.906 167.84 655.967 167.728C656.03 167.615 656.121 167.521 656.241 167.445C656.363 167.368 656.511 167.311 656.686 167.272C656.861 167.232 657.061 167.211 657.285 167.211H657.824Z" fill="#1F2937"/>
<path d="M659.925 168.58L660.764 166.137H661.5L660.262 169.297C660.233 169.365 660.196 169.438 660.151 169.517C660.105 169.597 660.045 169.672 659.971 169.743C659.899 169.816 659.808 169.874 659.7 169.918C659.592 169.964 659.46 169.986 659.306 169.986C659.246 169.986 659.187 169.981 659.129 169.971C659.074 169.963 659.022 169.953 658.973 169.943L658.97 169.477C658.989 169.479 659.012 169.48 659.038 169.482C659.067 169.484 659.09 169.485 659.107 169.485C659.221 169.485 659.316 169.472 659.392 169.447C659.468 169.423 659.53 169.384 659.577 169.33C659.627 169.276 659.669 169.203 659.703 169.112L659.925 168.58ZM659.452 166.137L660.185 168.19L660.308 168.833L659.831 168.942L658.71 166.137H659.452Z" fill="#1F2937"/>
<rect x="627.5" y="160.486" width="39" height="14" rx="2.5" stroke="#E5E7EB" shape-rendering="crispEdges"/>
</g>
<path d="M633.041 113.869L629.695 124.394H627L631.571 111.698H633.286L633.041 113.869ZM635.821 124.394L632.467 113.869L632.196 111.698H633.929L638.525 124.394H635.821ZM635.669 119.668V121.717H629.172V119.668H635.669Z" fill="white"/>
<path d="M644.74 122.336V111H647.19V124.394H644.985L644.74 122.336ZM638.961 119.79V119.607C638.961 118.886 639.039 118.232 639.197 117.645C639.355 117.052 639.586 116.543 639.89 116.119C640.194 115.694 640.569 115.366 641.014 115.133C641.459 114.901 641.966 114.785 642.535 114.785C643.07 114.785 643.537 114.901 643.937 115.133C644.343 115.366 644.687 115.697 644.968 116.128C645.255 116.552 645.486 117.055 645.661 117.636C645.836 118.212 645.962 118.843 646.041 119.529V119.93C645.962 120.587 645.836 121.197 645.661 121.761C645.486 122.325 645.255 122.819 644.968 123.243C644.687 123.662 644.343 123.988 643.937 124.22C643.532 124.453 643.059 124.569 642.518 124.569C641.949 124.569 641.442 124.45 640.997 124.211C640.558 123.973 640.186 123.639 639.882 123.208C639.583 122.778 639.355 122.273 639.197 121.691C639.039 121.11 638.961 120.476 638.961 119.79ZM641.394 119.607V119.79C641.394 120.18 641.422 120.543 641.479 120.88C641.54 121.217 641.639 121.517 641.774 121.778C641.915 122.034 642.095 122.235 642.315 122.38C642.54 122.52 642.814 122.589 643.135 122.589C643.551 122.589 643.895 122.493 644.165 122.302C644.436 122.104 644.641 121.834 644.782 121.491C644.929 121.148 645.013 120.752 645.036 120.305V119.162C645.019 118.796 644.968 118.468 644.884 118.177C644.805 117.88 644.687 117.627 644.529 117.418C644.377 117.209 644.185 117.046 643.954 116.93C643.729 116.814 643.461 116.755 643.152 116.755C642.836 116.755 642.566 116.831 642.34 116.982C642.115 117.127 641.932 117.328 641.791 117.584C641.656 117.84 641.555 118.142 641.487 118.491C641.425 118.834 641.394 119.206 641.394 119.607Z" fill="white"/>
<path d="M652.028 122.563L654.056 114.959H656.599L653.515 124.394H651.977L652.028 122.563ZM650.634 114.959L652.67 122.572L652.712 124.394H651.166L648.082 114.959H650.634Z" fill="white"/>
<path d="M661.606 124.569C660.896 124.569 660.259 124.453 659.696 124.22C659.133 123.982 658.654 123.653 658.26 123.235C657.871 122.816 657.572 122.331 657.364 121.778C657.156 121.22 657.051 120.627 657.051 119.999V119.651C657.051 118.936 657.15 118.281 657.347 117.689C657.544 117.096 657.826 116.581 658.192 116.145C658.564 115.709 659.015 115.375 659.544 115.142C660.074 114.904 660.671 114.785 661.335 114.785C661.983 114.785 662.558 114.895 663.059 115.116C663.56 115.337 663.98 115.651 664.318 116.058C664.662 116.465 664.921 116.953 665.095 117.523C665.27 118.087 665.357 118.715 665.357 119.406V120.453H658.091V118.779H662.966V118.587C662.966 118.238 662.904 117.927 662.78 117.654C662.662 117.375 662.482 117.154 662.239 116.991C661.997 116.828 661.687 116.747 661.31 116.747C660.989 116.747 660.713 116.819 660.482 116.965C660.251 117.11 660.062 117.314 659.916 117.575C659.775 117.837 659.668 118.145 659.595 118.5C659.527 118.848 659.493 119.232 659.493 119.651V119.999C659.493 120.377 659.544 120.726 659.645 121.046C659.752 121.366 659.902 121.642 660.093 121.874C660.29 122.107 660.527 122.287 660.803 122.415C661.085 122.543 661.403 122.607 661.758 122.607C662.197 122.607 662.606 122.52 662.983 122.345C663.366 122.165 663.696 121.895 663.972 121.534L665.155 122.86C664.963 123.145 664.701 123.418 664.369 123.679C664.042 123.941 663.648 124.156 663.186 124.325C662.724 124.487 662.197 124.569 661.606 124.569Z" fill="white"/>
<path d="M669.004 117.017V124.394H666.57V114.959H668.86L669.004 117.017ZM671.758 114.898L671.716 117.226C671.598 117.209 671.454 117.194 671.285 117.183C671.122 117.165 670.972 117.157 670.837 117.157C670.493 117.157 670.195 117.203 669.941 117.296C669.694 117.383 669.485 117.514 669.316 117.689C669.153 117.863 669.029 118.075 668.944 118.325C668.865 118.575 668.82 118.86 668.809 119.18L668.319 119.023C668.319 118.412 668.378 117.851 668.497 117.34C668.615 116.822 668.787 116.372 669.012 115.988C669.243 115.604 669.525 115.308 669.857 115.099C670.189 114.889 670.569 114.785 670.998 114.785C671.133 114.785 671.271 114.796 671.412 114.82C671.552 114.837 671.668 114.863 671.758 114.898Z" fill="white"/>
<path d="M677.635 114.959V116.738H672.312V114.959H677.635ZM673.63 112.631H676.063V121.552C676.063 121.825 676.097 122.034 676.165 122.179C676.238 122.325 676.345 122.427 676.486 122.485C676.627 122.537 676.804 122.563 677.018 122.563C677.17 122.563 677.305 122.557 677.424 122.546C677.548 122.528 677.652 122.511 677.736 122.493L677.745 124.342C677.536 124.412 677.311 124.467 677.069 124.508C676.827 124.549 676.559 124.569 676.266 124.569C675.731 124.569 675.263 124.479 674.863 124.299C674.469 124.113 674.165 123.816 673.951 123.409C673.737 123.002 673.63 122.467 673.63 121.805V112.631Z" fill="white"/>
<path d="M681.416 114.959V124.394H678.974V114.959H681.416ZM678.822 112.5C678.822 112.134 678.946 111.831 679.194 111.593C679.442 111.355 679.774 111.235 680.191 111.235C680.602 111.235 680.932 111.355 681.18 111.593C681.433 111.831 681.56 112.134 681.56 112.5C681.56 112.866 681.433 113.168 681.18 113.407C680.932 113.645 680.602 113.764 680.191 113.764C679.774 113.764 679.442 113.645 679.194 113.407C678.946 113.168 678.822 112.866 678.822 112.5Z" fill="white"/>
<path d="M688.197 121.787C688.197 121.607 688.147 121.444 688.045 121.299C687.944 121.153 687.755 121.02 687.479 120.898C687.209 120.77 686.817 120.653 686.305 120.549C685.843 120.444 685.412 120.313 685.012 120.156C684.617 119.994 684.274 119.799 683.981 119.572C683.694 119.345 683.468 119.078 683.305 118.77C683.142 118.456 683.06 118.098 683.06 117.697C683.06 117.302 683.142 116.93 683.305 116.581C683.474 116.232 683.713 115.924 684.023 115.657C684.339 115.383 684.722 115.171 685.172 115.02C685.629 114.863 686.141 114.785 686.71 114.785C687.504 114.785 688.186 114.915 688.755 115.177C689.329 115.439 689.769 115.799 690.073 116.258C690.383 116.712 690.538 117.229 690.538 117.811H688.104C688.104 117.566 688.054 117.348 687.952 117.157C687.856 116.959 687.704 116.805 687.496 116.694C687.293 116.578 687.028 116.52 686.702 116.52C686.431 116.52 686.197 116.569 686 116.668C685.803 116.761 685.651 116.889 685.544 117.052C685.443 117.209 685.392 117.383 685.392 117.575C685.392 117.72 685.42 117.851 685.476 117.968C685.538 118.078 685.637 118.18 685.772 118.273C685.907 118.366 686.082 118.453 686.296 118.534C686.516 118.61 686.786 118.68 687.107 118.744C687.766 118.883 688.355 119.066 688.873 119.293C689.391 119.514 689.803 119.816 690.107 120.2C690.411 120.578 690.563 121.075 690.563 121.691C690.563 122.11 690.473 122.493 690.293 122.842C690.112 123.191 689.853 123.496 689.515 123.758C689.177 124.014 688.772 124.214 688.299 124.36C687.831 124.499 687.304 124.569 686.719 124.569C685.868 124.569 685.147 124.412 684.555 124.098C683.97 123.784 683.525 123.386 683.22 122.903C682.922 122.415 682.773 121.915 682.773 121.403H685.079C685.091 121.746 685.175 122.023 685.333 122.232C685.496 122.441 685.702 122.592 685.95 122.685C686.203 122.778 686.476 122.825 686.769 122.825C687.085 122.825 687.347 122.781 687.555 122.694C687.763 122.601 687.921 122.479 688.028 122.328C688.141 122.171 688.197 121.991 688.197 121.787Z" fill="white"/>
<path d="M696.178 124.569C695.468 124.569 694.832 124.453 694.268 124.22C693.705 123.982 693.226 123.653 692.832 123.235C692.443 122.816 692.145 122.331 691.936 121.778C691.728 121.22 691.624 120.627 691.624 119.999V119.651C691.624 118.936 691.722 118.281 691.919 117.689C692.117 117.096 692.398 116.581 692.764 116.145C693.136 115.709 693.587 115.375 694.116 115.142C694.646 114.904 695.243 114.785 695.908 114.785C696.555 114.785 697.13 114.895 697.631 115.116C698.133 115.337 698.552 115.651 698.89 116.058C699.234 116.465 699.493 116.953 699.668 117.523C699.842 118.087 699.93 118.715 699.93 119.406V120.453H692.663V118.779H697.538V118.587C697.538 118.238 697.476 117.927 697.352 117.654C697.234 117.375 697.054 117.154 696.812 116.991C696.57 116.828 696.26 116.747 695.882 116.747C695.561 116.747 695.285 116.819 695.054 116.965C694.823 117.11 694.635 117.314 694.488 117.575C694.347 117.837 694.24 118.145 694.167 118.5C694.099 118.848 694.066 119.232 694.066 119.651V119.999C694.066 120.377 694.116 120.726 694.218 121.046C694.325 121.366 694.474 121.642 694.666 121.874C694.863 122.107 695.099 122.287 695.375 122.415C695.657 122.543 695.975 122.607 696.33 122.607C696.769 122.607 697.178 122.52 697.555 122.345C697.938 122.165 698.268 121.895 698.544 121.534L699.727 122.86C699.535 123.145 699.273 123.418 698.941 123.679C698.614 123.941 698.22 124.156 697.758 124.325C697.296 124.487 696.769 124.569 696.178 124.569Z" fill="white"/>
<path d="M707.991 123.331L710.416 114.959H713.027L709.351 125.816C709.272 126.054 709.165 126.31 709.03 126.583C708.901 126.857 708.723 127.115 708.498 127.359C708.278 127.609 707.999 127.813 707.661 127.97C707.329 128.127 706.921 128.205 706.436 128.205C706.205 128.205 706.016 128.191 705.87 128.162C705.724 128.133 705.549 128.092 705.346 128.04V126.2C705.408 126.2 705.473 126.2 705.54 126.2C705.608 126.205 705.673 126.208 705.735 126.208C706.056 126.208 706.318 126.171 706.521 126.095C706.723 126.019 706.887 125.903 707.011 125.746C707.135 125.595 707.233 125.397 707.306 125.153L707.991 123.331ZM706.977 114.959L708.963 121.796L709.309 124.456L707.653 124.639L704.366 114.959H706.977Z" fill="white"/>
<path d="M713.302 119.773V119.59C713.302 118.898 713.397 118.261 713.589 117.68C713.78 117.093 714.059 116.584 714.425 116.154C714.792 115.724 715.242 115.389 715.777 115.151C716.312 114.907 716.926 114.785 717.619 114.785C718.312 114.785 718.929 114.907 719.47 115.151C720.011 115.389 720.464 115.724 720.83 116.154C721.202 116.584 721.484 117.093 721.675 117.68C721.867 118.261 721.962 118.898 721.962 119.59V119.773C721.962 120.459 721.867 121.095 721.675 121.682C721.484 122.264 721.202 122.772 720.83 123.208C720.464 123.639 720.013 123.973 719.478 124.211C718.943 124.45 718.329 124.569 717.636 124.569C716.943 124.569 716.327 124.45 715.786 124.211C715.251 123.973 714.797 123.639 714.425 123.208C714.059 122.772 713.78 122.264 713.589 121.682C713.397 121.095 713.302 120.459 713.302 119.773ZM715.735 119.59V119.773C715.735 120.168 715.769 120.537 715.836 120.88C715.904 121.223 716.011 121.525 716.158 121.787C716.31 122.043 716.507 122.243 716.749 122.389C716.991 122.534 717.287 122.607 717.636 122.607C717.974 122.607 718.264 122.534 718.507 122.389C718.749 122.243 718.943 122.043 719.09 121.787C719.236 121.525 719.343 121.223 719.411 120.88C719.484 120.537 719.52 120.168 719.52 119.773V119.59C719.52 119.206 719.484 118.845 719.411 118.508C719.343 118.165 719.233 117.863 719.081 117.601C718.935 117.334 718.74 117.125 718.498 116.973C718.256 116.822 717.963 116.747 717.619 116.747C717.276 116.747 716.983 116.822 716.741 116.973C716.504 117.125 716.31 117.334 716.158 117.601C716.011 117.863 715.904 118.165 715.836 118.508C715.769 118.845 715.735 119.206 715.735 119.59Z" fill="white"/>
<path d="M728.693 122.136V114.959H731.126V124.394H728.836L728.693 122.136ZM728.963 120.2L729.681 120.183C729.681 120.81 729.611 121.395 729.47 121.935C729.329 122.47 729.118 122.935 728.836 123.331C728.555 123.72 728.2 124.025 727.772 124.246C727.344 124.461 726.839 124.569 726.259 124.569C725.814 124.569 725.403 124.505 725.026 124.377C724.654 124.243 724.333 124.037 724.062 123.758C723.798 123.473 723.589 123.11 723.437 122.668C723.291 122.22 723.217 121.682 723.217 121.055V114.959H725.651V121.072C725.651 121.351 725.682 121.587 725.744 121.778C725.811 121.97 725.904 122.127 726.023 122.249C726.141 122.371 726.279 122.459 726.437 122.511C726.6 122.563 726.78 122.589 726.977 122.589C727.479 122.589 727.873 122.485 728.16 122.275C728.453 122.066 728.659 121.781 728.777 121.421C728.901 121.055 728.963 120.648 728.963 120.2Z" fill="white"/>
<path d="M735.245 117.017V124.394H732.812V114.959H735.102L735.245 117.017ZM738 114.898L737.958 117.226C737.839 117.209 737.696 117.194 737.527 117.183C737.363 117.165 737.214 117.157 737.079 117.157C736.735 117.157 736.437 117.203 736.183 117.296C735.935 117.383 735.727 117.514 735.558 117.689C735.395 117.863 735.271 118.075 735.186 118.325C735.107 118.575 735.062 118.86 735.051 119.18L734.561 119.023C734.561 118.412 734.62 117.851 734.738 117.34C734.857 116.822 735.029 116.372 735.254 115.988C735.485 115.604 735.767 115.308 736.099 115.099C736.431 114.889 736.811 114.785 737.24 114.785C737.375 114.785 737.513 114.796 737.654 114.82C737.794 114.837 737.91 114.863 738 114.898Z" fill="white"/>
<path d="M627.887 132.431H630.321V143.663L630.076 145.826H627.887V132.431ZM636.109 141.012V141.195C636.109 141.899 636.035 142.544 635.889 143.131C635.748 143.718 635.528 144.227 635.23 144.657C634.931 145.081 634.56 145.413 634.115 145.651C633.675 145.884 633.157 146 632.56 146C632.002 146 631.518 145.884 631.106 145.651C630.701 145.419 630.36 145.09 630.084 144.666C629.808 144.241 629.586 143.744 629.417 143.175C629.248 142.605 629.121 141.983 629.036 141.308V140.907C629.121 140.233 629.248 139.611 629.417 139.041C629.586 138.471 629.808 137.974 630.084 137.55C630.36 137.126 630.701 136.797 631.106 136.565C631.512 136.332 631.991 136.216 632.543 136.216C633.146 136.216 633.67 136.335 634.115 136.573C634.565 136.806 634.937 137.137 635.23 137.567C635.528 137.992 635.748 138.498 635.889 139.085C636.035 139.666 636.109 140.309 636.109 141.012ZM633.675 141.195V141.012C633.675 140.628 633.647 140.268 633.591 139.931C633.54 139.588 633.45 139.288 633.32 139.032C633.191 138.771 633.013 138.564 632.788 138.413C632.568 138.262 632.284 138.187 631.935 138.187C631.602 138.187 631.321 138.245 631.09 138.361C630.859 138.477 630.667 138.64 630.515 138.849C630.369 139.059 630.259 139.309 630.185 139.599C630.112 139.884 630.067 140.198 630.05 140.541V141.683C630.067 142.143 630.14 142.55 630.27 142.904C630.405 143.253 630.608 143.529 630.878 143.733C631.154 143.93 631.512 144.029 631.951 144.029C632.295 144.029 632.58 143.959 632.805 143.82C633.03 143.68 633.205 143.483 633.329 143.227C633.458 142.971 633.548 142.672 633.599 142.329C633.65 141.98 633.675 141.602 633.675 141.195Z" fill="white"/>
<path d="M639.882 138.448V145.826H637.448V136.39H639.738L639.882 138.448ZM642.636 136.329L642.594 138.657C642.476 138.64 642.332 138.625 642.163 138.614C642 138.596 641.85 138.588 641.715 138.588C641.371 138.588 641.073 138.634 640.819 138.727C640.572 138.814 640.363 138.945 640.194 139.12C640.031 139.294 639.907 139.506 639.822 139.756C639.744 140.006 639.698 140.291 639.687 140.611L639.197 140.454C639.197 139.843 639.256 139.282 639.375 138.771C639.493 138.253 639.665 137.803 639.89 137.419C640.121 137.035 640.403 136.739 640.735 136.53C641.067 136.32 641.448 136.216 641.876 136.216C642.011 136.216 642.149 136.227 642.29 136.251C642.43 136.268 642.546 136.294 642.636 136.329Z" fill="white"/>
<path d="M648.259 143.698V139.495C648.259 139.192 648.212 138.934 648.116 138.719C648.02 138.498 647.871 138.326 647.668 138.204C647.471 138.082 647.215 138.021 646.899 138.021C646.629 138.021 646.395 138.07 646.198 138.169C646.001 138.262 645.849 138.399 645.741 138.579C645.634 138.753 645.581 138.96 645.581 139.198H643.147C643.147 138.797 643.238 138.416 643.418 138.056C643.598 137.695 643.86 137.378 644.204 137.105C644.547 136.826 644.956 136.608 645.429 136.451C645.908 136.294 646.443 136.216 647.034 136.216C647.744 136.216 648.375 136.338 648.927 136.582C649.479 136.826 649.913 137.192 650.228 137.681C650.549 138.169 650.71 138.78 650.71 139.512V143.55C650.71 144.067 650.741 144.491 650.803 144.823C650.865 145.148 650.955 145.433 651.073 145.677V145.826H648.614C648.496 145.57 648.406 145.25 648.344 144.866C648.288 144.477 648.259 144.087 648.259 143.698ZM648.581 140.079L648.597 141.5H647.237C646.916 141.5 646.637 141.538 646.401 141.614C646.164 141.689 645.97 141.797 645.818 141.936C645.665 142.07 645.553 142.227 645.48 142.407C645.412 142.587 645.378 142.785 645.378 143C645.378 143.215 645.426 143.41 645.522 143.584C645.618 143.753 645.756 143.887 645.936 143.986C646.116 144.079 646.327 144.125 646.57 144.125C646.936 144.125 647.254 144.05 647.524 143.898C647.795 143.747 648.003 143.561 648.15 143.34C648.302 143.119 648.381 142.91 648.386 142.712L649.028 143.776C648.938 144.015 648.814 144.262 648.657 144.518C648.505 144.773 648.31 145.015 648.074 145.241C647.837 145.462 647.553 145.645 647.22 145.791C646.888 145.93 646.494 146 646.037 146C645.457 146 644.93 145.881 644.457 145.642C643.99 145.398 643.618 145.064 643.342 144.64C643.071 144.209 642.936 143.721 642.936 143.175C642.936 142.68 643.026 142.242 643.207 141.858C643.387 141.474 643.652 141.151 644.001 140.89C644.356 140.622 644.798 140.422 645.327 140.288C645.857 140.149 646.471 140.079 647.169 140.079H648.581Z" fill="white"/>
<path d="M654.795 138.405V145.826H652.362V136.39H654.643L654.795 138.405ZM654.44 140.777H653.781C653.781 140.079 653.869 139.451 654.043 138.893C654.218 138.329 654.463 137.849 654.778 137.454C655.094 137.053 655.469 136.748 655.902 136.538C656.342 136.323 656.832 136.216 657.372 136.216C657.801 136.216 658.192 136.28 658.547 136.408C658.902 136.536 659.206 136.739 659.46 137.018C659.719 137.297 659.916 137.666 660.051 138.126C660.192 138.585 660.262 139.146 660.262 139.809V145.826H657.812V139.8C657.812 139.381 657.756 139.056 657.643 138.823C657.53 138.591 657.364 138.428 657.144 138.335C656.93 138.236 656.666 138.187 656.35 138.187C656.023 138.187 655.739 138.253 655.497 138.387C655.26 138.521 655.063 138.707 654.905 138.945C654.753 139.178 654.638 139.451 654.559 139.765C654.48 140.079 654.44 140.416 654.44 140.777Z" fill="white"/>
<path d="M667.339 143.768V132.431H669.789V145.826H667.584L667.339 143.768ZM661.559 141.221V141.038C661.559 140.317 661.638 139.663 661.796 139.076C661.954 138.483 662.185 137.974 662.489 137.55C662.793 137.126 663.168 136.797 663.613 136.565C664.058 136.332 664.565 136.216 665.134 136.216C665.669 136.216 666.136 136.332 666.536 136.565C666.942 136.797 667.285 137.128 667.567 137.559C667.854 137.983 668.085 138.486 668.26 139.067C668.435 139.643 668.561 140.274 668.64 140.96V141.361C668.561 142.018 668.435 142.628 668.26 143.192C668.085 143.756 667.854 144.25 667.567 144.675C667.285 145.093 666.942 145.419 666.536 145.651C666.131 145.884 665.657 146 665.117 146C664.548 146 664.041 145.881 663.596 145.642C663.156 145.404 662.785 145.07 662.48 144.64C662.182 144.209 661.954 143.704 661.796 143.122C661.638 142.541 661.559 141.907 661.559 141.221ZM663.993 141.038V141.221C663.993 141.611 664.021 141.974 664.077 142.311C664.139 142.648 664.238 142.948 664.373 143.209C664.514 143.465 664.694 143.666 664.914 143.811C665.139 143.951 665.412 144.02 665.734 144.02C666.15 144.02 666.494 143.925 666.764 143.733C667.035 143.535 667.24 143.265 667.381 142.922C667.528 142.579 667.612 142.183 667.635 141.736V140.593C667.618 140.227 667.567 139.899 667.483 139.608C667.404 139.311 667.285 139.059 667.128 138.849C666.976 138.64 666.784 138.477 666.553 138.361C666.328 138.245 666.06 138.187 665.75 138.187C665.435 138.187 665.165 138.262 664.939 138.413C664.714 138.559 664.531 138.759 664.39 139.015C664.255 139.271 664.153 139.573 664.086 139.922C664.024 140.265 663.993 140.637 663.993 141.038Z" fill="white"/>
<path d="M678.028 132.431V145.826H675.595V132.431H678.028ZM677.682 140.777H677.014C677.02 140.12 677.104 139.515 677.268 138.963C677.431 138.405 677.665 137.922 677.969 137.515C678.273 137.102 678.636 136.783 679.059 136.556C679.487 136.329 679.96 136.216 680.478 136.216C680.929 136.216 681.337 136.283 681.704 136.416C682.075 136.544 682.394 136.754 682.658 137.044C682.929 137.329 683.137 137.704 683.284 138.169C683.43 138.634 683.503 139.198 683.503 139.861V145.826H681.053V139.843C681.053 139.425 680.994 139.096 680.875 138.858C680.763 138.614 680.597 138.442 680.377 138.344C680.163 138.239 679.898 138.187 679.583 138.187C679.233 138.187 678.935 138.253 678.687 138.387C678.445 138.521 678.25 138.707 678.104 138.945C677.958 139.178 677.851 139.451 677.783 139.765C677.715 140.079 677.682 140.416 677.682 140.777Z" fill="white"/>
<path d="M689.389 146C688.679 146 688.042 145.884 687.479 145.651C686.916 145.413 686.437 145.084 686.043 144.666C685.654 144.247 685.355 143.762 685.147 143.209C684.938 142.651 684.834 142.058 684.834 141.431V141.082C684.834 140.367 684.933 139.713 685.13 139.12C685.327 138.527 685.609 138.012 685.975 137.576C686.347 137.14 686.797 136.806 687.327 136.573C687.856 136.335 688.454 136.216 689.118 136.216C689.766 136.216 690.341 136.326 690.842 136.547C691.343 136.768 691.763 137.082 692.101 137.489C692.445 137.896 692.704 138.384 692.878 138.954C693.053 139.518 693.14 140.146 693.14 140.838V141.884H685.874V140.21H690.749V140.018C690.749 139.669 690.687 139.358 690.563 139.085C690.445 138.806 690.265 138.585 690.022 138.422C689.78 138.259 689.47 138.178 689.093 138.178C688.772 138.178 688.496 138.251 688.265 138.396C688.034 138.541 687.845 138.745 687.699 139.006C687.558 139.268 687.451 139.576 687.378 139.931C687.31 140.279 687.276 140.663 687.276 141.082V141.431C687.276 141.808 687.327 142.157 687.428 142.477C687.535 142.797 687.685 143.073 687.876 143.305C688.073 143.538 688.31 143.718 688.586 143.846C688.868 143.974 689.186 144.038 689.541 144.038C689.98 144.038 690.388 143.951 690.766 143.776C691.149 143.596 691.478 143.326 691.754 142.965L692.937 144.291C692.746 144.576 692.484 144.849 692.152 145.111C691.825 145.372 691.431 145.587 690.969 145.756C690.507 145.919 689.98 146 689.389 146Z" fill="white"/>
<path d="M696.786 138.448V145.826H694.353V136.39H696.643L696.786 138.448ZM699.541 136.329L699.499 138.657C699.38 138.64 699.237 138.625 699.068 138.614C698.904 138.596 698.755 138.588 698.62 138.588C698.276 138.588 697.978 138.634 697.724 138.727C697.476 138.814 697.268 138.945 697.099 139.12C696.936 139.294 696.812 139.506 696.727 139.756C696.648 140.006 696.603 140.291 696.592 140.611L696.102 140.454C696.102 139.843 696.161 139.282 696.279 138.771C696.398 138.253 696.57 137.803 696.795 137.419C697.026 137.035 697.307 136.739 697.64 136.53C697.972 136.32 698.352 136.216 698.78 136.216C698.916 136.216 699.054 136.227 699.195 136.251C699.335 136.268 699.451 136.294 699.541 136.329Z" fill="white"/>
<path d="M704.556 146C703.846 146 703.21 145.884 702.646 145.651C702.083 145.413 701.604 145.084 701.21 144.666C700.821 144.247 700.523 143.762 700.314 143.209C700.106 142.651 700.002 142.058 700.002 141.431V141.082C700.002 140.367 700.1 139.713 700.297 139.12C700.494 138.527 700.776 138.012 701.142 137.576C701.514 137.14 701.965 136.806 702.494 136.573C703.024 136.335 703.621 136.216 704.286 136.216C704.933 136.216 705.508 136.326 706.009 136.547C706.511 136.768 706.93 137.082 707.268 137.489C707.612 137.896 707.871 138.384 708.046 138.954C708.22 139.518 708.308 140.146 708.308 140.838V141.884H701.041V140.21H705.916V140.018C705.916 139.669 705.854 139.358 705.73 139.085C705.612 138.806 705.432 138.585 705.19 138.422C704.947 138.259 704.638 138.178 704.26 138.178C703.939 138.178 703.663 138.251 703.432 138.396C703.201 138.541 703.012 138.745 702.866 139.006C702.725 139.268 702.618 139.576 702.545 139.931C702.477 140.279 702.444 140.663 702.444 141.082V141.431C702.444 141.808 702.494 142.157 702.596 142.477C702.703 142.797 702.852 143.073 703.043 143.305C703.241 143.538 703.477 143.718 703.753 143.846C704.035 143.974 704.353 144.038 704.708 144.038C705.147 144.038 705.556 143.951 705.933 143.776C706.316 143.596 706.646 143.326 706.922 142.965L708.105 144.291C707.913 144.576 707.651 144.849 707.319 145.111C706.992 145.372 706.598 145.587 706.136 145.756C705.674 145.919 705.147 146 704.556 146Z" fill="white"/>
</g>
</g>
<defs>
<filter id="filter0_d_3275_6" x="837.645" y="113.169" width="118.198" height="81.3238" filterUnits="userSpaceOnUse" color-interpolation-filters="sRGB">
<feFlood flood-opacity="0" result="BackgroundImageFix"/>
<feColorMatrix in="SourceAlpha" type="matrix" values="0 0 0 0 0 0 0 0 0 0 0 0 0 0 0 0 0 0 127 0" result="hardAlpha"/>
<feOffset dy="0.421638"/>
<feGaussianBlur stdDeviation="0.421638"/>
<feComposite in2="hardAlpha" operator="out"/>
<feColorMatrix type="matrix" values="0 0 0 0 0 0 0 0 0 0 0 0 0 0 0 0 0 0 0.05 0"/>
<feBlend mode="normal" in2="BackgroundImageFix" result="effect1_dropShadow_3275_6"/>
<feBlend mode="normal" in="SourceGraphic" in2="effect1_dropShadow_3275_6" result="shape"/>
</filter>
<filter id="filter1_d_3275_6" x="625" y="158.986" width="44" height="19" filterUnits="userSpaceOnUse" color-interpolation-filters="sRGB">
<feFlood flood-opacity="0" result="BackgroundImageFix"/>
<feColorMatrix in="SourceAlpha" type="matrix" values="0 0 0 0 0 0 0 0 0 0 0 0 0 0 0 0 0 0 127 0" result="hardAlpha"/>
<feOffset dy="1"/>
<feGaussianBlur stdDeviation="1"/>
<feComposite in2="hardAlpha" operator="out"/>
<feColorMatrix type="matrix" values="0 0 0 0 0 0 0 0 0 0 0 0 0 0 0 0 0 0 0.05 0"/>
<feBlend mode="normal" in2="BackgroundImageFix" result="effect1_dropShadow_3275_6"/>
<feBlend mode="normal" in="SourceGraphic" in2="effect1_dropShadow_3275_6" result="shape"/>
</filter>
<clipPath id="clip0_3275_6">
<rect width="975" height="650" fill="white"/>
</clipPath>
<clipPath id="clip1_3275_6">
<rect width="108.301" height="24.7474" fill="white" transform="translate(54.1667 45.3643)"/>
</clipPath>
<clipPath id="clip2_3275_6">
<rect x="616" y="97" width="292" height="97" rx="5.13997" fill="white"/>
</clipPath>
</defs>
</svg>
