<svg width="30" height="30" viewBox="0 0 30 30" fill="none" xmlns="http://www.w3.org/2000/svg">
<path d="M21.5022 8.73825L12.1663 18.0741L7.08051 13.0024L5.08301 14.9999L12.1663 22.0833L23.4997 10.7499L21.5022 8.73825ZM14.9997 0.833252C7.17967 0.833252 0.833008 7.17992 0.833008 14.9999C0.833008 22.8199 7.17967 29.1666 14.9997 29.1666C22.8197 29.1666 29.1663 22.8199 29.1663 14.9999C29.1663 7.17992 22.8197 0.833252 14.9997 0.833252ZM14.9997 26.3333C8.73801 26.3333 3.66634 21.2616 3.66634 14.9999C3.66634 8.73825 8.73801 3.66659 14.9997 3.66659C21.2613 3.66659 26.333 8.73825 26.333 14.9999C26.333 21.2616 21.2613 26.3333 14.9997 26.3333Z" fill="#0173CD"/>
</svg>
