<svg width="15" height="15" viewBox="0 0 15 15" fill="none" xmlns="http://www.w3.org/2000/svg">
<g clip-path="url(#clip0_673_4533)">
<path d="M7.42968 -0.0722104C3.26899 -0.0511968 -0.0931812 3.33724 -0.0721677 7.49793C-0.0511541 11.6586 3.33729 15.0208 7.49797 14.9998C11.6587 14.9788 15.0208 11.5903 14.9998 7.42964C14.9841 3.26895 11.5956 -0.0879705 7.42968 -0.0722104ZM6.47356 7.09867C5.72758 7.09867 5.12344 6.49453 5.12344 5.74855C5.12344 5.00257 5.72758 4.39843 6.47356 4.39843C7.21954 4.39843 7.82368 5.00257 7.82368 5.74855C7.82368 6.49453 7.21954 7.09867 6.47356 7.09867ZM7.55051 8.55386L7.55576 8.54336L7.56101 8.53285C7.94451 8.77976 8.3858 8.86907 8.82183 8.87957C9.26311 8.89008 9.70965 8.85856 10.1509 8.76925C10.5922 8.67995 11.023 8.54336 11.4433 8.37C11.6797 8.27543 11.9108 8.17037 12.1315 8.04428C12.1315 8.04428 12.1367 8.04428 12.1367 8.03903C12.2733 7.95498 12.4099 7.86567 12.5412 7.77636C12.5675 7.75535 12.599 7.73433 12.6253 7.71332L12.6305 7.71857L12.641 7.73433C12.3048 8.04429 11.9003 8.27018 11.4853 8.47506C11.0703 8.66944 10.6395 8.83229 10.193 8.94787C9.74643 9.06344 9.28413 9.1475 8.81132 9.10547C8.34902 9.0687 7.86046 8.90584 7.55051 8.55386ZM11.0072 7.09867C11.0072 6.93582 11.1386 6.80448 11.2962 6.80448C11.459 6.80448 11.5904 6.93582 11.5904 7.09342C11.5904 7.25628 11.459 7.38761 11.3014 7.38761C11.1438 7.38761 11.0125 7.25628 11.0072 7.09867ZM8.701 14.3273C8.41206 12.289 10.193 10.2875 11.1964 9.26833C11.4223 9.03718 11.7742 8.71672 12.1052 8.37525C13.408 7.15646 13.6707 5.70127 11.002 4.97105C10.4977 4.82395 9.97232 4.61907 9.44173 4.40894C9.42597 4.36166 9.40496 4.31437 9.38394 4.27235C9.3209 4.16728 9.21583 4.04645 9.05298 3.90986C8.70625 3.61042 8.05483 3.61567 7.49272 3.75226C6.87282 3.60517 6.25817 3.55263 5.66979 3.69447C3.09038 4.40368 2.67536 5.6645 2.57554 7.18273C2.43896 8.82179 2.36015 10.0406 1.74025 11.438C0.968005 10.319 0.510959 8.96888 0.505706 7.50319C0.474185 3.64719 3.58419 0.510916 7.43493 0.495156C11.2857 0.479396 14.4219 3.58415 14.4377 7.43489C14.4482 10.8759 11.9739 13.7442 8.701 14.3273Z" fill="#57697A"/>
<path d="M7.4248 5.75909C7.4248 6.28443 6.99927 6.7047 6.47918 6.7047C5.95385 6.7047 5.52832 6.27917 5.52832 5.75909C5.52832 5.239 5.95385 4.81348 6.47918 4.81348C6.99927 4.81348 7.4248 5.239 7.4248 5.75909Z" fill="#57697A"/>
</g>
<defs>
<clipPath id="clip0_673_4533">
<rect width="15" height="15" fill="white"/>
</clipPath>
</defs>
</svg>
