<svg xmlns="http://www.w3.org/2000/svg" viewBox="0 0 500 500">
  <g transform="matrix(0.4754730463027954, 0, 0, 0.4521059989929199, 436.0450439453125, 268.1068725585937)" style="">
    <g>
      <path class="st0" d="M64,28" style="fill: rgb(255, 255, 255);"/>
    </g>
  </g>
  <g transform="matrix(1.7734999656677246, 0, 0, 1.6957769393920898, 85.48931884765625, 204.1752166748047)" style="">
    <g>
      <path class="st0" d="M64,72.4l38.2-32.7c-0.6-0.4-1.4-0.7-2.2-0.7H28c-0.8,0-1.6,0.3-2.2,0.7L64,72.4z" style="fill: rgb(255, 255, 255); stroke-width: 5.79828px;"/>
    </g>
    <g>
      <path class="st0" d="M66.6,75.4c-1.5,1.3-3.7,1.3-5.2,0L24,43.5V85c0,2.2,1.8,4,4,4h72c2.2,0,4-1.8,4-4V43.4L66.6,75.4z" style="fill: rgb(255, 255, 255); stroke-width: 5.79828px;"/>
    </g>
  </g>
  <circle cx="261.671" cy="262.638" r="342.366" style="fill: rgb(255, 255, 255); stroke: rgb(233, 236, 239); stroke-width: 14.3761px;" transform="matrix(0.7043429613113403, 0, 0, 0.6949150562286377, 65.9481201171875, 65.79527282714844)"/>
  <path d="M 337.175 171.22 C 321.51 164.397 304.979 159.533 287.996 156.748 C 287.678 156.689 287.359 156.833 287.203 157.102 C 284.948 160.98 282.901 164.964 281.069 169.039 C 262.763 166.401 244.141 166.401 225.836 169.039 C 223.996 164.954 221.92 160.969 219.616 157.102 C 219.455 156.839 219.14 156.698 218.824 156.748 C 201.845 159.528 185.319 164.393 169.664 171.22 C 169.529 171.274 169.415 171.365 169.338 171.483 C 138.019 215.89 129.441 259.204 133.65 301.972 C 133.674 302.184 133.789 302.378 133.967 302.509 C 152.204 315.328 172.603 325.114 194.295 331.448 C 194.609 331.537 194.948 331.431 195.146 331.184 C 199.804 325.167 203.93 318.797 207.485 312.136 C 207.69 311.748 207.494 311.277 207.065 311.128 C 200.556 308.769 194.253 305.924 188.218 302.62 C 187.744 302.356 187.703 301.718 188.142 301.403 C 189.407 300.507 190.677 299.567 191.884 298.617 C 192.104 298.446 192.405 298.409 192.663 298.519 C 232.2 315.65 275.01 315.65 314.081 298.519 C 314.341 298.4 314.65 298.436 314.874 298.609 C 316.082 299.552 317.351 300.503 318.65 301.403 C 319.09 301.716 319.055 302.353 318.583 302.62 C 312.556 305.956 306.241 308.801 299.707 311.128 C 299.276 311.283 299.084 311.761 299.298 312.15 C 302.912 318.773 307.033 325.137 311.627 331.189 C 311.819 331.444 312.16 331.555 312.476 331.463 C 334.199 325.146 354.624 315.359 372.876 302.522 C 373.058 302.397 373.172 302.204 373.194 301.994 C 378.232 252.54 364.755 209.581 337.472 171.502 C 337.411 171.377 337.306 171.278 337.175 171.22 Z M 213.383 275.934 C 201.477 275.934 191.676 265.562 191.676 252.828 C 191.676 240.093 201.293 229.722 213.383 229.722 C 225.571 229.722 235.288 240.182 235.09 252.828 C 235.099 265.562 225.478 275.934 213.383 275.934 Z M 293.663 275.934 C 281.758 275.934 271.958 265.562 271.958 252.828 C 271.958 240.093 281.574 229.722 293.663 229.722 C 305.852 229.722 315.568 240.182 315.369 252.828 C 315.374 265.562 305.852 275.934 293.663 275.934 Z" style="fill: rgb(26, 32, 44); stroke-width: 10px;"/>
</svg>