<svg xmlns="http://www.w3.org/2000/svg" viewBox="0 0 500 500">
  <g transform="matrix(3.758413076400757, 0, 0, 3.787086009979248, 9.506404876708984, 7.5932159423828125)" style="">
    <circle cx="64" cy="64" r="64" style="stroke-width: 3px; stroke: rgb(255, 255, 255);"/>
  </g>
  <g transform="matrix(3.758413076400757, 0, 0, 3.787086009979248, 9.506404876708984, 7.5932159423828125)" style="">
    <g>
      <path class="st0" d="M64,72.4l38.2-32.7c-0.6-0.4-1.4-0.7-2.2-0.7H28c-0.8,0-1.6,0.3-2.2,0.7L64,72.4z" style="fill: rgb(255, 255, 255);"/>
    </g>
    <g>
      <path class="st0" d="M66.6,75.4c-1.5,1.3-3.7,1.3-5.2,0L24,43.5V85c0,2.2,1.8,4,4,4h72c2.2,0,4-1.8,4-4V43.4L66.6,75.4z" style="fill: rgb(255, 255, 255);"/>
    </g>
  </g>
</svg>