<svg width="14" height="14" viewBox="0 0 14 14" fill="none" xmlns="http://www.w3.org/2000/svg">
<g clip-path="url(#clip0_3521_881)">
<path d="M13.7812 7C13.7812 10.7452 10.7452 13.7812 7 13.7812C3.25481 13.7812 0.21875 10.7452 0.21875 7C0.21875 3.25481 3.25481 0.21875 7 0.21875C10.7452 0.21875 13.7812 3.25481 13.7812 7ZM6.21562 10.5906L11.2469 5.55937C11.4177 5.38852 11.4177 5.1115 11.2469 4.94066L10.6282 4.32195C10.4573 4.15108 10.1803 4.15108 10.0094 4.32195L5.90625 8.4251L3.99057 6.50943C3.81973 6.33858 3.54271 6.33858 3.37184 6.50943L2.75313 7.12813C2.58229 7.29898 2.58229 7.576 2.75313 7.74684L5.59688 10.5906C5.76775 10.7615 6.04475 10.7615 6.21562 10.5906Z" fill="#5AC4AC"/>
</g>
<defs>
<clipPath id="clip0_3521_881">
<rect width="14" height="14" fill="white"/>
</clipPath>
</defs>
</svg>
