<svg width="33" height="31" viewBox="0 0 33 31" fill="none" xmlns="http://www.w3.org/2000/svg">
<g clip-path="url(#clip0_740_3270)">
<g opacity="0.5">
<path opacity="0.5" d="M8.87161 30.6549H1.73846C0.972317 30.6549 0.349609 30.0408 0.349609 29.2852V28.1432C0.349609 27.3876 0.972317 26.7734 1.73846 26.7734H8.87161C9.63775 26.7734 10.2605 27.3876 10.2605 28.1432V29.2852C10.2605 30.0408 9.63775 30.6549 8.87161 30.6549ZM1.73846 27.2944C1.26618 27.2944 0.88136 27.6739 0.88136 28.1397V29.2817C0.88136 29.7475 1.26618 30.127 1.73846 30.127H8.87161C9.34389 30.127 9.7287 29.7475 9.7287 29.2817V28.1397C9.7287 27.6739 9.34389 27.2944 8.87161 27.2944H1.73846V27.2944Z" fill="#033F40"/>
<path opacity="0.5" d="M8.87183 31.0002H1.73868C0.780133 31.0002 0 30.2308 0 29.2855V28.1435C0 27.1981 0.780133 26.4287 1.73868 26.4287H8.87183C9.83038 26.4287 10.6105 27.1981 10.6105 28.1435V29.2855C10.6105 30.2308 9.83038 31.0002 8.87183 31.0002ZM1.73868 27.6397C1.45881 27.6397 1.23142 27.864 1.23142 28.14V29.282C1.23142 29.558 1.45881 29.7823 1.73868 29.7823H8.87183C9.1517 29.7823 9.37909 29.558 9.37909 29.282V28.14C9.37909 27.864 9.1517 27.6397 8.87183 27.6397H1.73868V27.6397Z" fill="#033F40"/>
</g>
<g opacity="0.5">
<path opacity="0.5" d="M19.9234 30.6549H12.7902C12.0241 30.6549 11.4014 30.0408 11.4014 29.2852V28.1432C11.4014 27.3876 12.0241 26.7734 12.7902 26.7734H19.9234C20.6895 26.7734 21.3122 27.3876 21.3122 28.1432V29.2852C21.3122 30.0408 20.6895 30.6549 19.9234 30.6549ZM12.7902 27.2944C12.3179 27.2944 11.9331 27.6739 11.9331 28.1397V29.2817C11.9331 29.7475 12.3179 30.127 12.7902 30.127H19.9234C20.3956 30.127 20.7805 29.7475 20.7805 29.2817V28.1397C20.7805 27.6739 20.3956 27.2944 19.9234 27.2944H12.7902Z" fill="#033F40"/>
<path opacity="0.5" d="M19.9236 31.0002H12.7904C11.8319 31.0002 11.0518 30.2308 11.0518 29.2855V28.1435C11.0518 27.1981 11.8319 26.4287 12.7904 26.4287H19.9236C20.8821 26.4287 21.6623 27.1981 21.6623 28.1435V29.2855C21.6623 30.2308 20.8821 31.0002 19.9236 31.0002ZM12.7904 27.6397C12.5106 27.6397 12.2832 27.864 12.2832 28.14V29.282C12.2832 29.558 12.5106 29.7823 12.7904 29.7823H19.9236C20.2035 29.7823 20.4309 29.558 20.4309 29.282V28.14C20.4309 27.864 20.2035 27.6397 19.9236 27.6397H12.7904Z" fill="#033F40"/>
</g>
<g opacity="0.5">
<path opacity="0.5" d="M19.9234 25.1588H12.7902C12.0241 25.1588 11.4014 24.5447 11.4014 23.7891V22.6471C11.4014 21.8915 12.0241 21.2773 12.7902 21.2773H19.9234C20.6895 21.2773 21.3122 21.8915 21.3122 22.6471V23.7891C21.3122 24.5447 20.6895 25.1588 19.9234 25.1588ZM12.7902 21.7983C12.3179 21.7983 11.9331 22.1778 11.9331 22.6436V23.7856C11.9331 24.2514 12.3179 24.6309 12.7902 24.6309H19.9234C20.3956 24.6309 20.7805 24.2514 20.7805 23.7856V22.6436C20.7805 22.1778 20.3956 21.7983 19.9234 21.7983H12.7902V21.7983Z" fill="#033F40"/>
<path opacity="0.5" d="M19.9236 25.5041H12.7904C11.8319 25.5041 11.0518 24.7347 11.0518 23.7894V22.6474C11.0518 21.702 11.8319 20.9326 12.7904 20.9326H19.9236C20.8821 20.9326 21.6623 21.702 21.6623 22.6474V23.7894C21.6623 24.7347 20.8821 25.5041 19.9236 25.5041ZM12.7904 22.1436C12.5106 22.1436 12.2832 22.3679 12.2832 22.6439V23.7859C12.2832 24.0619 12.5106 24.2862 12.7904 24.2862H19.9236C20.2035 24.2862 20.4309 24.0619 20.4309 23.7859V22.6439C20.4309 22.3679 20.2035 22.1436 19.9236 22.1436H12.7904Z" fill="#033F40"/>
</g>
<g opacity="0.5">
<path opacity="0.5" d="M31.2573 25.1588H24.1242C23.3581 25.1588 22.7354 24.5447 22.7354 23.7891V22.6471C22.7354 21.8915 23.3581 21.2773 24.1242 21.2773H31.2573C32.0235 21.2773 32.6462 21.8915 32.6462 22.6471V23.7891C32.6462 24.5447 32.0235 25.1588 31.2573 25.1588ZM24.1242 21.7983C23.6519 21.7983 23.2671 22.1778 23.2671 22.6436V23.7856C23.2671 24.2514 23.6519 24.6309 24.1242 24.6309H31.2573C31.7296 24.6309 32.1144 24.2514 32.1144 23.7856V22.6436C32.1144 22.1778 31.7296 21.7983 31.2573 21.7983H24.1242V21.7983Z" fill="#033F40"/>
<path opacity="0.5" d="M31.2576 25.5041H24.1244C23.1659 25.5041 22.3857 24.7347 22.3857 23.7894V22.6474C22.3857 21.702 23.1659 20.9326 24.1244 20.9326H31.2576C32.2161 20.9326 32.9963 21.702 32.9963 22.6474V23.7894C32.9963 24.7347 32.2161 25.5041 31.2576 25.5041ZM24.1244 22.1436C23.8446 22.1436 23.6172 22.3679 23.6172 22.6439V23.7859C23.6172 24.0619 23.8446 24.2862 24.1244 24.2862H31.2576C31.5374 24.2862 31.7648 24.0619 31.7648 23.7859V22.6439C31.7648 22.3679 31.5374 22.1436 31.2576 22.1436H24.1244Z" fill="#033F40"/>
</g>
<g opacity="0.5">
<path opacity="0.5" d="M31.2573 30.6549H24.1242C23.3581 30.6549 22.7354 30.0408 22.7354 29.2852V28.1432C22.7354 27.3876 23.3581 26.7734 24.1242 26.7734H31.2573C32.0235 26.7734 32.6462 27.3876 32.6462 28.1432V29.2852C32.6462 30.0408 32.0235 30.6549 31.2573 30.6549ZM24.1242 27.2944C23.6519 27.2944 23.2671 27.6739 23.2671 28.1397V29.2817C23.2671 29.7475 23.6519 30.127 24.1242 30.127H31.2573C31.7296 30.127 32.1144 29.7475 32.1144 29.2817V28.1397C32.1144 27.6739 31.7296 27.2944 31.2573 27.2944H24.1242Z" fill="#033F40"/>
<path opacity="0.5" d="M31.2576 31.0002H24.1244C23.1659 31.0002 22.3857 30.2308 22.3857 29.2855V28.1435C22.3857 27.1981 23.1659 26.4287 24.1244 26.4287H31.2576C32.2161 26.4287 32.9963 27.1981 32.9963 28.1435V29.2855C32.9963 30.2308 32.2161 31.0002 31.2576 31.0002ZM24.1244 27.6397C23.8446 27.6397 23.6172 27.864 23.6172 28.14V29.282C23.6172 29.558 23.8446 29.7823 24.1244 29.7823H31.2576C31.5374 29.7823 31.7648 29.558 31.7648 29.282V28.14C31.7648 27.864 31.5374 27.6397 31.2576 27.6397H24.1244Z" fill="#033F40"/>
</g>
<g opacity="0.5">
<path opacity="0.5" d="M31.2573 19.6627H24.1242C23.3581 19.6627 22.7354 19.0486 22.7354 18.293V17.151C22.7354 16.3954 23.3581 15.7812 24.1242 15.7812H31.2573C32.0235 15.7812 32.6462 16.3954 32.6462 17.151V18.293C32.6462 19.0486 32.0235 19.6627 31.2573 19.6627ZM24.1242 16.3022C23.6519 16.3022 23.2671 16.6818 23.2671 17.1475V18.2895C23.2671 18.7553 23.6519 19.1348 24.1242 19.1348H31.2573C31.7296 19.1348 32.1144 18.7553 32.1144 18.2895V17.1475C32.1144 16.6818 31.7296 16.3022 31.2573 16.3022H24.1242Z" fill="#033F40"/>
<path opacity="0.5" d="M31.2576 20.008H24.1244C23.1659 20.008 22.3857 19.2386 22.3857 18.2933V17.1513C22.3857 16.2059 23.1659 15.4365 24.1244 15.4365H31.2576C32.2161 15.4365 32.9963 16.2059 32.9963 17.1513V18.2933C32.9963 19.2386 32.2161 20.008 31.2576 20.008ZM24.1244 16.6475C23.8446 16.6475 23.6172 16.8718 23.6172 17.1478V18.2898C23.6172 18.5658 23.8446 18.7901 24.1244 18.7901H31.2576C31.5374 18.7901 31.7648 18.5658 31.7648 18.2898V17.1478C31.7648 16.8718 31.5374 16.6475 31.2576 16.6475H24.1244Z" fill="#033F40"/>
</g>
<path d="M26.811 5.85194L18.24 14.3049C18.0511 14.4912 17.8027 14.5913 17.5368 14.5913C17.271 14.5913 17.0191 14.4912 16.8337 14.3049L13.6711 11.1859L3.19007 21.5193C3.00466 21.7056 2.75278 21.8091 2.4869 21.8091C2.22103 21.8091 1.97264 21.7056 1.78373 21.5193C1.39891 21.1398 1.39891 20.5153 1.78373 20.1323L12.968 9.10547C13.1604 8.91571 13.4158 8.81911 13.6711 8.81911C13.9265 8.81911 14.1784 8.91571 14.3743 9.10547L17.5368 12.2245L25.4046 4.46496C25.793 4.08199 26.4227 4.08199 26.811 4.46496C27.1993 4.84793 27.1993 5.46897 26.811 5.85194V5.85194Z" fill="#033F40"/>
<path d="M31.5164 0.979855V6.41046C31.5164 6.94869 31.0721 7.39032 30.5229 7.39032C29.9736 7.39032 29.5294 6.94869 29.5294 6.41046V1.95971H25.2719C24.7226 1.95971 24.2783 1.52154 24.2783 0.979855C24.2783 0.438175 24.7226 0 25.2719 0H30.5229C31.0721 0 31.5164 0.438175 31.5164 0.979855Z" fill="#033F40"/>
</g>
<defs>
<clipPath id="clip0_740_3270">
<rect width="33" height="31" fill="white"/>
</clipPath>
</defs>
</svg>
