<svg width="30" height="29" viewBox="0 0 30 29" fill="none" xmlns="http://www.w3.org/2000/svg">
<g opacity="0.5">
<path opacity="0.5" d="M8.06547 27.8713H1.58011C0.88354 27.8713 0.317383 27.3129 0.317383 26.6259V25.5876C0.317383 24.9006 0.88354 24.3423 1.58011 24.3423H8.06547C8.76204 24.3423 9.3282 24.9006 9.3282 25.5876V26.6259C9.3282 27.3129 8.76204 27.8713 8.06547 27.8713ZM1.58011 24.816C1.15072 24.816 0.800843 25.161 0.800843 25.5845V26.6228C0.800843 27.0463 1.15072 27.3913 1.58011 27.3913H8.06547C8.49486 27.3913 8.84474 27.0463 8.84474 26.6228V25.5845C8.84474 25.161 8.49486 24.816 8.06547 24.816H1.58011Z" fill="#31766A"/>
<path opacity="0.5" d="M8.06616 28.1852H1.58079C0.709287 28.1852 0 27.4856 0 26.6261V25.5878C0 24.7283 0.709287 24.0288 1.58079 24.0288H8.06616C8.93766 24.0288 9.64695 24.7283 9.64695 25.5878V26.6261C9.64695 27.4856 8.93766 28.1852 8.06616 28.1852ZM1.58079 25.1299C1.32634 25.1299 1.11959 25.3337 1.11959 25.5847V26.623C1.11959 26.874 1.32634 27.0779 1.58079 27.0779H8.06616C8.32061 27.0779 8.52735 26.874 8.52735 26.623V25.5847C8.52735 25.3337 8.32061 25.1299 8.06616 25.1299H1.58079Z" fill="#31766A"/>
</g>
<g opacity="0.5">
<path opacity="0.5" d="M18.1143 27.8713H11.6289C10.9324 27.8713 10.3662 27.3129 10.3662 26.6259V25.5876C10.3662 24.9006 10.9324 24.3423 11.6289 24.3423H18.1143C18.8109 24.3423 19.377 24.9006 19.377 25.5876V26.6259C19.377 27.3129 18.8109 27.8713 18.1143 27.8713ZM11.6289 24.816C11.1995 24.816 10.8497 25.161 10.8497 25.5845V26.6228C10.8497 27.0463 11.1995 27.3913 11.6289 27.3913H18.1143C18.5437 27.3913 18.8936 27.0463 18.8936 26.6228V25.5845C18.8936 25.161 18.5437 24.816 18.1143 24.816H11.6289Z" fill="#31766A"/>
<path opacity="0.5" d="M18.115 28.1852H11.6296C10.7581 28.1852 10.0488 27.4856 10.0488 26.6261V25.5878C10.0488 24.7283 10.7581 24.0288 11.6296 24.0288H18.115C18.9865 24.0288 19.6958 24.7283 19.6958 25.5878V26.6261C19.6958 27.4856 18.9865 28.1852 18.115 28.1852ZM11.6296 25.1299C11.3752 25.1299 11.1684 25.3337 11.1684 25.5847V26.623C11.1684 26.874 11.3752 27.0779 11.6296 27.0779H18.115C18.3694 27.0779 18.5762 26.874 18.5762 26.623V25.5847C18.5762 25.3337 18.3694 25.1299 18.115 25.1299H11.6296Z" fill="#31766A"/>
</g>
<g opacity="0.5">
<path opacity="0.5" d="M18.1143 22.8747H11.6289C10.9324 22.8747 10.3662 22.3163 10.3662 21.6293V20.591C10.3662 19.9041 10.9324 19.3457 11.6289 19.3457H18.1143C18.8109 19.3457 19.377 19.9041 19.377 20.591V21.6293C19.377 22.3163 18.8109 22.8747 18.1143 22.8747ZM11.6289 19.8194C11.1995 19.8194 10.8497 20.1644 10.8497 20.5879V21.6262C10.8497 22.0497 11.1995 22.3947 11.6289 22.3947H18.1143C18.5437 22.3947 18.8936 22.0497 18.8936 21.6262V20.5879C18.8936 20.1644 18.5437 19.8194 18.1143 19.8194H11.6289Z" fill="#31766A"/>
<path opacity="0.5" d="M18.115 23.1886H11.6296C10.7581 23.1886 10.0488 22.4891 10.0488 21.6296V20.5913C10.0488 19.7318 10.7581 19.0322 11.6296 19.0322H18.115C18.9865 19.0322 19.6958 19.7318 19.6958 20.5913V21.6296C19.6958 22.4891 18.9865 23.1886 18.115 23.1886ZM11.6296 20.1333C11.3752 20.1333 11.1684 20.3372 11.1684 20.5881V21.6264C11.1684 21.8774 11.3752 22.0813 11.6296 22.0813H18.115C18.3694 22.0813 18.5762 21.8774 18.5762 21.6264V20.5881C18.5762 20.3372 18.3694 20.1333 18.115 20.1333H11.6296Z" fill="#31766A"/>
</g>
<g opacity="0.5">
<path opacity="0.5" d="M28.419 22.8747H21.9336C21.2371 22.8747 20.6709 22.3163 20.6709 21.6293V20.591C20.6709 19.9041 21.2371 19.3457 21.9336 19.3457H28.419C29.1156 19.3457 29.6817 19.9041 29.6817 20.591V21.6293C29.6817 22.3163 29.1156 22.8747 28.419 22.8747ZM21.9336 19.8194C21.5042 19.8194 21.1544 20.1644 21.1544 20.5879V21.6262C21.1544 22.0497 21.5042 22.3947 21.9336 22.3947H28.419C28.8484 22.3947 29.1983 22.0497 29.1983 21.6262V20.5879C29.1983 20.1644 28.8484 19.8194 28.419 19.8194H21.9336Z" fill="#31766A"/>
<path opacity="0.5" d="M28.4197 23.1886H21.9343C21.0628 23.1886 20.3535 22.4891 20.3535 21.6296V20.5913C20.3535 19.7318 21.0628 19.0322 21.9343 19.0322H28.4197C29.2912 19.0322 30.0005 19.7318 30.0005 20.5913V21.6296C30.0005 22.4891 29.2912 23.1886 28.4197 23.1886ZM21.9343 20.1333C21.6799 20.1333 21.4731 20.3372 21.4731 20.5881V21.6264C21.4731 21.8774 21.6799 22.0813 21.9343 22.0813H28.4197C28.6741 22.0813 28.8809 21.8774 28.8809 21.6264V20.5881C28.8809 20.3372 28.6741 20.1333 28.4197 20.1333H21.9343Z" fill="#31766A"/>
</g>
<g opacity="0.5">
<path opacity="0.5" d="M28.419 27.8713H21.9336C21.2371 27.8713 20.6709 27.3129 20.6709 26.6259V25.5876C20.6709 24.9006 21.2371 24.3423 21.9336 24.3423H28.419C29.1156 24.3423 29.6817 24.9006 29.6817 25.5876V26.6259C29.6817 27.3129 29.1156 27.8713 28.419 27.8713ZM21.9336 24.816C21.5042 24.816 21.1544 25.161 21.1544 25.5845V26.6228C21.1544 27.0463 21.5042 27.3913 21.9336 27.3913H28.419C28.8484 27.3913 29.1983 27.0463 29.1983 26.6228V25.5845C29.1983 25.161 28.8484 24.816 28.419 24.816H21.9336Z" fill="#31766A"/>
<path opacity="0.5" d="M28.4197 28.1852H21.9343C21.0628 28.1852 20.3535 27.4856 20.3535 26.6261V25.5878C20.3535 24.7283 21.0628 24.0288 21.9343 24.0288H28.4197C29.2912 24.0288 30.0005 24.7283 30.0005 25.5878V26.6261C30.0005 27.4856 29.2912 28.1852 28.4197 28.1852ZM21.9343 25.1299C21.6799 25.1299 21.4731 25.3337 21.4731 25.5847V26.623C21.4731 26.874 21.6799 27.0779 21.9343 27.0779H28.4197C28.6741 27.0779 28.8809 26.874 28.8809 26.623V25.5847C28.8809 25.3337 28.6741 25.1299 28.4197 25.1299H21.9343Z" fill="#31766A"/>
</g>
<g opacity="0.5">
<path opacity="0.5" d="M28.419 17.8766H21.9336C21.2371 17.8766 20.6709 17.3183 20.6709 16.6313V15.593C20.6709 14.906 21.2371 14.3477 21.9336 14.3477H28.419C29.1156 14.3477 29.6817 14.906 29.6817 15.593V16.6313C29.6817 17.3183 29.1156 17.8766 28.419 17.8766ZM21.9336 14.8213C21.5042 14.8213 21.1544 15.1664 21.1544 15.5899V16.6282C21.1544 17.0516 21.5042 17.3967 21.9336 17.3967H28.419C28.8484 17.3967 29.1983 17.0516 29.1983 16.6282V15.5899C29.1983 15.1664 28.8484 14.8213 28.419 14.8213H21.9336Z" fill="#31766A"/>
<path opacity="0.5" d="M28.4197 18.1905H21.9343C21.0628 18.1905 20.3535 17.491 20.3535 16.6315V15.5932C20.3535 14.7337 21.0628 14.0342 21.9343 14.0342H28.4197C29.2912 14.0342 30.0005 14.7337 30.0005 15.5932V16.6315C30.0005 17.491 29.2912 18.1905 28.4197 18.1905ZM21.9343 15.1352C21.6799 15.1352 21.4731 15.3391 21.4731 15.5901V16.6284C21.4731 16.8793 21.6799 17.0832 21.9343 17.0832H28.4197C28.6741 17.0832 28.8809 16.8793 28.8809 16.6284V15.5901C28.8809 15.3391 28.6741 15.1352 28.4197 15.1352H21.9343Z" fill="#31766A"/>
</g>
<path d="M24.3762 5.32051L16.5836 13.0058C16.4119 13.1752 16.186 13.2662 15.9443 13.2662C15.7026 13.2662 15.4736 13.1752 15.305 13.0058L12.4297 10.1701L2.90041 19.565C2.73183 19.7344 2.50282 19.8285 2.26109 19.8285C2.01936 19.8285 1.79354 19.7344 1.62178 19.565C1.27191 19.22 1.27191 18.6522 1.62178 18.304L11.7904 8.27858C11.9653 8.10605 12.1975 8.01822 12.4297 8.01822C12.6619 8.01822 12.8909 8.10605 13.069 8.27858L15.9443 11.1143L23.0976 4.05948C23.4507 3.71129 24.0232 3.71129 24.3762 4.05948C24.7293 4.40768 24.7293 4.97231 24.3762 5.32051Z" fill="#31766A"/>
<path d="M28.654 0.890872V5.82831C28.654 6.31766 28.2501 6.71918 27.7507 6.71918C27.2514 6.71918 26.8474 6.31766 26.8474 5.82831V1.78174H22.9765C22.4772 1.78174 22.0732 1.38336 22.0732 0.890872C22.0732 0.398383 22.4772 0 22.9765 0H27.7507C28.2501 0 28.654 0.398383 28.654 0.890872Z" fill="#31766A"/>
</svg>
