<svg xmlns="http://www.w3.org/2000/svg" width="549" height="125" viewBox="0 0 549 125" fill="none">
<path d="M84.1419 2.30322C74.8876 2.3031 65.7643 4.54284 57.5167 8.83967C49.269 13.1365 42.1305 19.3687 36.6838 27.0276C31.2371 34.6866 27.6364 43.5554 26.1757 52.9102C24.7149 62.2651 25.4354 71.841 28.2783 80.8565C27.9679 81.0703 27.6696 81.3021 27.3851 81.5509L5.89218 100.312C4.86315 101.214 4.01761 102.314 3.40387 103.549C2.79013 104.785 2.4202 106.133 2.31521 107.515C2.21022 108.897 2.37223 110.287 2.79198 111.605C3.21173 112.923 3.881 114.143 4.76157 115.197V115.197C5.64195 116.25 6.71641 117.116 7.9236 117.744C9.13078 118.372 10.447 118.751 11.7972 118.858C13.1474 118.966 14.505 118.8 15.7926 118.37C17.0801 117.941 18.2724 117.256 19.3012 116.354L38.239 99.8264C44.428 107.777 52.4867 113.99 61.6605 117.884C70.8344 121.778 80.8234 123.225 90.6924 122.089C100.561 120.954 109.988 117.274 118.089 111.393C126.189 105.512 132.7 97.6229 137.011 88.4642C141.322 79.3054 143.292 69.1767 142.737 59.0261C142.182 48.8755 139.12 39.0351 133.837 30.4261C128.555 21.8172 121.224 14.7213 112.533 9.80272C103.842 4.88414 94.073 2.30379 84.1419 2.30322V2.30322Z" fill="#0d0d0d"/>
<path d="M84.1418 124.792C75.3718 124.811 66.7022 122.883 58.7306 119.14C50.759 115.398 43.6752 109.93 37.9676 103.113L20.737 118.16C19.4795 119.256 18.0232 120.089 16.4514 120.609C14.8796 121.13 13.2231 121.328 11.5763 121.193C9.92961 121.058 8.32497 120.593 6.85402 119.823C5.38307 119.053 4.07462 117.995 3.00338 116.707C1.93214 115.42 1.11908 113.929 0.610639 112.32C0.102195 110.711 -0.0916825 109.015 0.0400763 107.329C0.171835 105.644 0.62665 104.001 1.37855 102.495C2.13045 100.989 3.16472 99.6499 4.4223 98.5533L25.6665 80.0347C22.0505 67.4631 22.3924 54.0452 26.6435 41.6836C30.8947 29.322 38.8394 18.6442 49.3511 11.1641C59.8628 3.68398 72.4081 -0.218684 85.208 0.0094621C98.0079 0.237608 110.413 4.58498 120.664 12.4351C130.915 20.2853 138.492 31.2398 142.32 43.7454C146.148 56.251 146.033 69.673 141.992 82.1081C137.951 94.5433 130.188 105.36 119.804 113.026C109.421 120.691 96.9436 124.816 84.1418 124.815V124.792ZM38.5555 96.5162L40.014 98.3681C48.7877 109.615 61.3533 117.097 75.2414 119.342C89.1295 121.588 103.336 118.435 115.069 110.503C126.801 102.571 135.212 90.4345 138.648 76.4774C142.084 62.5203 140.297 47.7523 133.637 35.0757C126.978 22.399 115.928 12.7303 102.659 7.96962C89.3902 3.20895 74.8618 3.70054 61.929 9.34781C48.9961 14.9951 38.594 25.3897 32.7669 38.4888C26.9397 51.588 26.1089 66.4446 30.4377 80.1389L30.9578 81.7824L29.5558 82.7546C29.3184 82.9283 29.0809 83.1019 28.8548 83.2986L7.36189 102.083C6.4754 102.757 5.73381 103.611 5.18325 104.59C4.63269 105.57 4.28492 106.656 4.16157 107.779C4.03822 108.902 4.14193 110.039 4.46624 111.12C4.79056 112.2 5.32855 113.201 6.04676 114.06C6.76497 114.918 7.64804 115.616 8.64106 116.111C9.63408 116.605 10.7158 116.885 11.819 116.933C12.9222 116.981 14.0232 116.796 15.0537 116.39C16.0841 115.984 17.0219 115.365 17.8087 114.572L38.5555 96.5162Z" fill="#31766A"/>
<path d="M87.0701 82.5694C86.3481 82.4049 85.6787 82.0551 85.125 81.553C84.5712 81.0509 84.1512 80.413 83.9044 79.6991L75.4474 55.0579L44.9209 86.3079C50.8589 96.4878 60.3529 103.978 71.4816 107.264C82.6103 110.549 94.5426 109.384 104.864 104.004C115.185 98.6237 123.124 89.4308 127.075 78.2852C131.026 67.1396 130.693 54.8738 126.144 43.9699L91.0951 81.2616C90.5878 81.8113 89.9521 82.2198 89.2479 82.4486C88.5438 82.6774 87.7943 82.719 87.0701 82.5694V82.5694Z" fill="#31766A"/>
<path d="M78.2174 42.6157C78.9321 42.7812 79.5938 43.1306 80.1398 43.6308C80.6858 44.1311 81.0982 44.7656 81.3379 45.4745L89.7044 69.9768L121.769 35.868C115.502 26.5268 106.134 19.8332 95.4081 17.0318C84.6819 14.2304 73.327 15.5119 63.4546 20.638C53.5821 25.764 45.8641 34.3859 41.7355 44.9003C37.6068 55.4147 37.3487 67.1062 41.0089 77.8009L74.1924 43.8079C74.7093 43.2758 75.35 42.8872 76.0542 42.6787C76.7584 42.4701 77.5028 42.4484 78.2174 42.6157V42.6157Z" fill="#31766A"/>
<path d="M232.749 40.2084H210.386V44.0394H232.749V40.2084Z" fill="#C5CDD5"/>
<path d="M210.386 55.9028V76.331H232.749V72.4653H214.445V60H231.528V55.9028H210.386Z" fill="#C5CDD5"/>
<path d="M239.748 76.3311H244.078L255.633 45.2547H257.634L269.189 76.3311H273.327L259.703 40.2084H253.372L239.748 76.3311Z" fill="#C5CDD5"/>
<path d="M282.587 38.4607V42.3959H297.895C305.595 42.3959 305.742 49.6181 305.742 50.625C305.742 51.632 305.663 57.801 298.348 57.801H282.587V76.1574H286.928V61.3311H291.259C292.412 61.2762 293.557 61.5571 294.56 62.1412C294.986 62.4145 295.367 62.7542 295.691 63.1482C296.765 64.5255 304.283 74.6412 304.283 74.6412C305.401 75.6437 306.834 76.2022 308.32 76.2153C309.046 76.1487 309.776 76.1487 310.502 76.2153L299.625 61.3311C299.625 61.3311 310.061 60.4514 310.05 50.7987C310.038 41.1459 303.548 38.6227 297.794 38.5533C292.039 38.4838 282.587 38.4607 282.587 38.4607Z" fill="#C5CDD5"/>
<path d="M169.774 76.3773V40.7639H176.287L198.288 72.9746V40.7639H202.189V76.3773H196.061L173.675 44.0625V76.3773H169.774Z" fill="#C5CDD5"/>
<path d="M321.469 39.3403H343.798C344.959 39.3383 346.104 39.6242 347.133 40.1736C348.192 40.7582 349.132 41.5438 349.903 42.4884C350.727 43.4934 351.367 44.6422 351.792 45.8796C352.274 47.2329 352.515 48.6637 352.504 50.1042C352.51 50.8875 352.403 51.6674 352.187 52.419C351.991 53.1306 351.718 53.8176 351.373 54.4676C351.051 55.0815 350.672 55.6628 350.243 56.2037C349.824 56.7245 349.429 57.1875 349.112 57.5694C349.489 57.9938 349.866 58.4568 350.243 58.9583C350.665 59.4843 351.043 60.0457 351.373 60.6366C351.717 61.2629 352.001 61.9219 352.221 62.6042C352.449 63.3138 352.564 64.0563 352.56 64.8032C352.572 66.2437 352.33 67.6745 351.848 69.0278C351.426 70.263 350.786 71.4085 349.96 72.4074C349.161 73.3255 348.193 74.0728 347.111 74.6065C346.084 75.1647 344.938 75.455 343.775 75.4514H321.469V39.3403ZM345.098 55.544C346.006 54.8396 346.774 53.9634 347.36 52.963C347.951 52.0642 348.284 51.0135 348.321 49.9306C348.314 49.1136 348.188 48.3021 347.947 47.5232C347.722 46.7002 347.371 45.919 346.907 45.2083C346.473 44.5546 345.915 43.9959 345.268 43.5648C344.61 43.1348 343.843 42.9133 343.063 42.9282H325.426V71.7477H343.176C343.976 71.7743 344.764 71.5523 345.438 71.1111C346.083 70.6842 346.63 70.1196 347.043 69.456C347.497 68.7459 347.833 67.9637 348.038 67.1412C348.258 66.3624 348.372 65.5562 348.377 64.7454C348.352 63.6496 348.018 62.5846 347.416 61.6782C346.805 60.6725 346.02 59.7898 345.098 59.0741H338.032V55.544H345.098Z" fill="#31766A"/>
<path d="M359.966 75.4514V39.3403H363.923V71.8056H386.818V75.4514H359.966Z" fill="#31766A"/>
<path d="M391.001 50.3009C392.807 45.9243 396.217 42.4465 400.498 40.6134C402.718 39.6585 405.101 39.1666 407.508 39.1666C409.916 39.1666 412.299 39.6585 414.518 40.6134C418.794 42.4558 422.2 45.9306 424.015 50.3009C424.948 52.5424 425.429 54.9537 425.429 57.39C425.429 59.8264 424.948 62.2377 424.015 64.4792C422.197 68.8497 418.792 72.3269 414.518 74.1782C412.299 75.1332 409.916 75.6251 407.508 75.6251C405.101 75.6251 402.718 75.1332 400.498 74.1782C396.219 72.3352 392.812 68.8553 391.001 64.4792C390.069 62.2377 389.588 59.8264 389.588 57.39C389.588 54.9537 390.069 52.5424 391.001 50.3009V50.3009ZM394.506 62.9167C395.996 66.3483 398.686 69.0855 402.047 70.5903C403.769 71.3538 405.626 71.7477 407.503 71.7477C409.379 71.7477 411.236 71.3538 412.958 70.5903C414.639 69.8394 416.171 68.7803 417.48 67.4653C418.791 66.1635 419.849 64.6203 420.601 62.9167C421.352 61.1986 421.738 59.3362 421.731 57.4537C421.728 55.5685 421.343 53.7044 420.601 51.9792C419.874 50.2544 418.839 48.6842 417.548 47.3495C416.238 46.0268 414.706 44.9565 413.026 44.1898C411.311 43.4097 409.453 43.015 407.576 43.0324C405.689 43.0175 403.82 43.412 402.093 44.1898C400.408 44.9499 398.875 46.021 397.57 47.3495C396.277 48.6819 395.241 50.2527 394.517 51.9792C393.77 53.7026 393.384 55.5679 393.387 57.4537C393.372 59.3359 393.753 61.1993 394.506 62.9167V62.9167Z" fill="#31766A"/>
<path d="M433.286 50.301C434.191 48.1449 435.484 46.1818 437.096 44.5139C438.722 42.8588 440.641 41.5351 442.749 40.6135C445.453 39.4184 448.406 38.9353 451.338 39.2082C454.271 39.4811 457.09 40.5014 459.539 42.176C460.931 43.1403 462.193 44.2883 463.293 45.5903C464.394 46.8833 465.319 48.3241 466.04 49.8727L462.874 51.9561C462.306 50.7015 461.572 49.5331 460.692 48.4838C459.812 47.4071 458.797 46.4537 457.673 45.6482C456.535 44.835 455.286 44.1992 453.965 43.7616C450.799 42.7289 447.374 42.9141 444.332 44.2824C442.652 45.0438 441.123 46.1148 439.821 47.4422C438.524 48.7715 437.488 50.343 436.768 52.0718C436.021 53.7952 435.635 55.6605 435.638 57.5463C435.626 59.4294 436.012 61.2929 436.768 63.0093C437.507 64.6755 438.543 66.1866 439.821 67.4653C441.125 68.7868 442.659 69.8467 444.344 70.5903C446.064 71.3643 447.925 71.7586 449.804 71.7477C451.105 71.7499 452.399 71.5629 453.649 71.1922C454.867 70.8437 456.034 70.3299 457.119 69.6644C458.19 69.0219 459.178 68.2442 460.059 67.3496C460.951 66.4551 461.713 65.4338 462.32 64.3172L465.034 67.1528C463.45 69.6986 461.285 71.8118 458.725 73.3102C456.016 74.8866 452.942 75.6862 449.827 75.625C447.418 75.6398 445.032 75.1473 442.817 74.1783C438.538 72.3352 435.131 68.8553 433.32 64.4792C432.387 62.2377 431.907 59.8264 431.907 57.3901C431.907 54.9537 432.387 52.5425 433.32 50.301H433.286Z" fill="#31766A"/>
<path d="M473.536 75.4514V39.3403H477.493V55.7176H489.478V59.3635H477.493V75.4514H473.536ZM507.737 39.3403L499.088 57.5695L507.737 75.4514H503.441L494.678 57.5695L503.441 39.3403H507.737Z" fill="#31766A"/>
<path d="M527.398 43.044C526.562 42.988 525.724 43.1195 524.943 43.4294C524.162 43.7393 523.457 44.22 522.876 44.8379C521.816 46.1295 521.271 47.7827 521.349 49.4676C521.299 50.898 521.673 52.3106 522.423 53.5185C522.833 54.0846 523.349 54.5607 523.941 54.9186C524.533 55.2765 525.19 55.5088 525.872 55.6018V59.3634C524.724 59.3688 523.591 59.0909 522.57 58.5532C521.535 58.0167 520.604 57.291 519.823 56.412C519.018 55.4976 518.385 54.438 517.958 53.287C517.5 52.0686 517.27 50.773 517.279 49.4676C517.262 48.0674 517.492 46.6755 517.958 45.3588C518.369 44.1895 519.003 43.1155 519.823 42.1991C520.605 41.3413 521.547 40.6526 522.593 40.1736C523.663 39.6958 524.818 39.4514 525.985 39.456H547.749V43.044H527.398ZM538.082 71.8634C538.918 71.9194 539.756 71.7878 540.537 71.478C541.318 71.1681 542.024 70.6874 542.605 70.0694C543.651 68.7928 544.195 67.1629 544.131 65.4977C544.185 64.0741 543.81 62.6679 543.057 61.4699C542.644 60.9112 542.126 60.4423 541.534 60.0905C540.942 59.7388 540.288 59.5113 539.609 59.4213V55.6018C540.761 55.5951 541.897 55.873 542.921 56.412C543.953 56.9489 544.881 57.6746 545.658 58.5532C546.468 59.4726 547.101 60.5408 547.523 61.7014C547.974 62.9137 548.204 64.2004 548.201 65.4977C548.222 66.9002 547.985 68.2942 547.5 69.6065C547.069 70.77 546.424 71.8385 545.601 72.7546C544.824 73.6185 543.881 74.3081 542.831 74.7801C541.766 75.2741 540.608 75.523 539.439 75.5092H517.833V71.8634H538.082Z" fill="#31766A"/>
<rect x="156" y="87" width="120" height="35" rx="17.5" fill="#05EB97"/>
<path d="M172.516 114.448C167.868 114.448 164.872 110.976 164.872 106.552C164.872 102.1 167.868 98.656 172.516 98.656C177.164 98.656 180.104 102.1 180.104 106.552C180.104 110.976 177.164 114.448 172.516 114.448ZM172.488 111.76C175.092 111.76 176.492 109.548 176.492 106.552C176.492 103.528 175.092 101.288 172.488 101.288C169.856 101.288 168.484 103.528 168.484 106.552C168.484 109.548 169.856 111.76 172.488 111.76ZM186.08 99.048V101.232H186.164C187.144 99.58 188.712 98.656 190.812 98.656C194.032 98.656 195.964 100.644 195.964 103.864V114H192.408V104.452C192.408 102.688 191.372 101.596 189.552 101.596C187.564 101.596 186.164 103.108 186.164 105.236V114H182.608V99.048H186.08ZM206.515 114V93.168H215.951C218.107 93.168 219.759 93.7 220.851 94.764C221.887 95.716 222.447 96.976 222.447 98.572C222.447 100.728 221.271 102.156 219.031 102.828V102.912C221.635 103.528 223.287 105.32 223.287 107.952C223.287 109.8 222.615 111.256 221.439 112.264C220.235 113.384 218.499 114 216.259 114H206.515ZM210.351 101.764H215.391C217.407 101.764 218.667 100.784 218.667 98.992C218.667 97.284 217.491 96.276 215.587 96.276H210.351V101.764ZM210.351 110.836H215.923C217.099 110.836 217.995 110.5 218.555 109.94C219.087 109.436 219.395 108.708 219.395 107.812C219.395 105.684 217.883 104.648 215.811 104.648H210.351V110.836ZM235.556 114.476C229.256 114.476 225.308 109.856 225.308 103.64C225.308 97.396 229.256 92.776 235.556 92.776C241.856 92.776 245.804 97.396 245.804 103.64C245.804 109.856 241.856 114.476 235.556 114.476ZM235.584 111.2C239.7 111.2 241.828 107.952 241.828 103.64C241.828 99.3 239.7 95.968 235.584 95.968C231.44 95.968 229.256 99.3 229.256 103.64C229.256 107.952 231.44 111.2 235.584 111.2ZM256.794 114.476C251.082 114.476 247.862 111.592 247.694 107.336H251.586C251.866 110.024 253.63 111.368 256.822 111.368C259.09 111.368 260.966 110.388 260.966 108.316C260.966 106.076 258.894 105.572 255.59 104.816C251.698 103.948 248.45 102.912 248.45 98.74C248.45 94.792 251.698 92.804 256.15 92.804C260.994 92.804 263.794 95.128 264.186 98.964H260.406C260.098 96.92 258.558 95.772 256.094 95.772C253.77 95.772 252.23 96.752 252.23 98.404C252.23 100.336 254.246 100.84 257.466 101.512C261.33 102.352 264.886 103.5 264.886 108.008C264.886 112.152 261.414 114.476 256.794 114.476Z" fill="black"/>
</svg>