<svg width="234" height="54" viewBox="0 0 234 54" fill="none" xmlns="http://www.w3.org/2000/svg">
<path d="M35.9155 0.996582C31.9653 0.996531 28.0711 1.96553 24.5506 3.82452C21.03 5.6835 17.983 8.3798 15.6581 11.6934C13.3331 15.007 11.7962 18.844 11.1727 22.8912C10.5491 26.9385 10.8567 31.0815 12.0702 34.9819C11.9377 35.0744 11.8104 35.1748 11.6889 35.2824L2.51468 43.3994C2.07544 43.7893 1.71452 44.2652 1.45255 44.7998C1.19058 45.3345 1.03267 45.9175 0.987856 46.5154C0.943042 47.1134 1.01219 47.7147 1.19136 48.285C1.37053 48.8552 1.65621 49.3833 2.03208 49.8389C2.40787 50.2947 2.8665 50.6692 3.38179 50.941C3.89708 51.2128 4.45892 51.3767 5.03524 51.4232C5.61156 51.4697 6.19106 51.3979 6.74065 51.212C7.29025 51.0261 7.79916 50.7297 8.23833 50.3397L16.3219 43.1891C18.9637 46.629 22.4035 49.317 26.3194 51.0016C30.2352 52.6862 34.499 53.3122 38.7116 52.821C42.9242 52.3299 46.9478 50.7376 50.4056 48.1932C53.8635 45.6489 56.6426 42.2358 58.4827 38.2733C60.3228 34.3109 61.1637 29.9288 60.9268 25.5372C60.6898 21.1456 59.3828 16.8883 57.1279 13.1637C54.8731 9.43913 51.7442 6.36914 48.0343 4.24117C44.3243 2.11319 40.1546 0.996827 35.9155 0.996582Z" fill="#0D0D0D"/>
<path d="M35.9159 53.99C32.1724 53.9983 28.4718 53.1641 25.0691 51.5449C21.6665 49.9257 18.6427 47.5601 16.2064 44.6111L8.85159 51.1207C8.31479 51.5952 7.69319 51.9553 7.02227 52.1805C6.35135 52.4057 5.64425 52.4915 4.94135 52.4332C4.23845 52.3748 3.55351 52.1734 2.92563 51.8404C2.29776 51.5073 1.73925 51.0493 1.28199 50.4923C0.824731 49.9353 0.47768 49.2904 0.260651 48.5942C0.0436218 47.8981 -0.0391346 47.1644 0.0171065 46.4351C0.0733477 45.7058 0.267485 44.9951 0.588434 44.3436C0.909383 43.6921 1.35086 43.1126 1.88765 42.6382L10.9557 34.6263C9.41226 29.1873 9.55817 23.3822 11.3728 18.034C13.1874 12.6859 16.5786 8.06623 21.0655 4.83003C25.5524 1.59384 30.9074 -0.0946115 36.371 0.00409369C41.8346 0.102799 47.1297 1.98365 51.5053 5.37995C55.8809 8.77626 59.1151 13.5156 60.7491 18.9261C62.3832 24.3365 62.3343 30.1434 60.6092 35.5233C58.8842 40.9033 55.5707 45.5832 51.1385 48.8996C46.7063 52.216 41.3803 54.0005 35.9159 54V53.99ZM16.4574 41.7569L17.0799 42.5581C20.825 47.4241 26.1886 50.6609 32.1168 51.6324C38.0449 52.6039 44.1089 51.2398 49.117 47.8082C54.1251 44.3766 57.7152 39.1256 59.1819 33.0872C60.6485 27.0488 59.8856 20.6596 57.043 15.1752C54.2005 9.69073 49.4838 5.50765 43.82 3.44798C38.1562 1.38832 31.9547 1.60101 26.4343 4.04425C20.914 6.48749 16.4738 10.9846 13.9865 16.6518C11.4992 22.3191 11.1446 28.7466 12.9923 34.6714L13.2143 35.3824L12.6159 35.803C12.5145 35.8782 12.4132 35.9533 12.3167 36.0384L3.14242 44.1654C2.76402 44.457 2.44747 44.8262 2.21247 45.2501C1.97746 45.674 1.82901 46.1436 1.77636 46.6295C1.72371 47.1155 1.76798 47.6075 1.90641 48.075C2.04485 48.5425 2.27449 48.9754 2.58105 49.3468C2.88762 49.7183 3.26456 50.0203 3.68843 50.2342C4.1123 50.448 4.57404 50.5691 5.04493 50.5899C5.51583 50.6107 5.98581 50.5307 6.42565 50.355C6.86549 50.1793 7.26579 49.9115 7.60165 49.5684L16.4574 41.7569Z" fill="#31766A"/>
<path d="M35.916 47.2302C46.6866 47.2302 55.4179 38.1707 55.4179 26.9952C55.4179 15.8198 46.6866 6.76025 35.916 6.76025C25.1454 6.76025 16.4141 15.8198 16.4141 26.9952C16.4141 38.1707 25.1454 47.2302 35.916 47.2302Z" fill="#0D0D0D"/>
<path d="M37.1662 35.7227C36.858 35.6515 36.5723 35.5002 36.3359 35.2829C36.0995 35.0657 35.9202 34.7897 35.8149 34.4809L32.205 23.8201L19.1748 37.3401C21.7094 41.7443 25.7619 44.985 30.5122 46.4064C35.2625 47.8277 40.3558 47.3236 44.7614 44.996C49.167 42.6684 52.5559 38.6912 54.2423 33.8691C55.9287 29.0471 55.7866 23.7404 53.8449 19.0229L38.8842 35.1569C38.6677 35.3947 38.3963 35.5714 38.0958 35.6704C37.7952 35.7694 37.4753 35.7874 37.1662 35.7227Z" fill="#31766A"/>
<path d="M33.3873 18.4373C33.6924 18.5089 33.9748 18.66 34.2079 18.8765C34.4409 19.0929 34.617 19.3674 34.7193 19.6741L38.2905 30.2748L51.9771 15.518C49.3021 11.4766 45.3036 8.58063 40.7251 7.36864C36.1467 6.15665 31.2998 6.71107 27.0858 8.92881C22.8717 11.1466 19.5773 14.8767 17.815 19.4257C16.0527 23.9747 15.9425 29.0329 17.5049 33.6598L31.6692 18.9531C31.8899 18.7229 32.1634 18.5547 32.4639 18.4645C32.7645 18.3743 33.0823 18.3649 33.3873 18.4373Z" fill="#31766A"/>
<path d="M99.3486 17.396H89.8027V19.0535H99.3486V17.396Z" fill="white"/>
<path d="M89.8027 24.186V33.0241H99.3486V31.3516H91.5353V25.9587H98.8274V24.186H89.8027Z" fill="#C5CDD5"/>
<path d="M102.336 33.0241H104.184L109.116 19.5792H109.971L114.903 33.0241H116.669L110.854 17.396H108.151L102.336 33.0241Z" fill="#C5CDD5"/>
<path d="M120.622 16.6396V18.3422H127.156C130.443 18.3422 130.506 21.4668 130.506 21.9024C130.506 22.3381 130.472 25.007 127.35 25.007H120.622V32.9488H122.475V26.5343H124.324C124.816 26.5106 125.304 26.6321 125.733 26.8848C125.915 27.003 126.077 27.15 126.215 27.3205C126.674 27.9164 129.883 32.2928 129.883 32.2928C130.36 32.7265 130.972 32.9682 131.606 32.9738C131.916 32.945 132.228 32.945 132.537 32.9738L127.895 26.5343C127.895 26.5343 132.349 26.1537 132.344 21.9776C132.34 17.8014 129.57 16.7098 127.113 16.6797C124.657 16.6497 120.622 16.6396 120.622 16.6396Z" fill="#C5CDD5"/>
<path d="M72.4678 33.0441V17.6362H75.2476L84.639 31.5719V17.6362H86.3039V33.0441H83.6882L74.1328 19.0633V33.0441H72.4678Z" fill="#C5CDD5"/>
<path d="M137.219 17.02H146.75C147.246 17.0192 147.734 17.1429 148.174 17.3806C148.626 17.6335 149.027 17.9734 149.356 18.382C149.708 18.8168 149.981 19.3138 150.162 19.8492C150.368 20.4347 150.471 21.0537 150.466 21.6769C150.469 22.0158 150.423 22.3532 150.331 22.6784C150.247 22.9863 150.131 23.2835 149.984 23.5647C149.846 23.8303 149.684 24.0818 149.501 24.3158C149.322 24.5412 149.153 24.7415 149.018 24.9067C149.179 25.0903 149.34 25.2906 149.501 25.5076C149.681 25.7352 149.843 25.978 149.984 26.2337C150.13 26.5047 150.252 26.7897 150.346 27.0849C150.443 27.3919 150.492 27.7132 150.49 28.0363C150.495 28.6595 150.392 29.2786 150.186 29.8641C150.006 30.3985 149.733 30.894 149.38 31.3262C149.039 31.7234 148.626 32.0467 148.164 32.2776C147.726 32.5192 147.237 32.6447 146.74 32.6432H137.219V17.02ZM147.305 24.0304C147.693 23.7256 148.02 23.3466 148.27 22.9138C148.523 22.5249 148.665 22.0704 148.681 21.6018C148.678 21.2483 148.624 20.8973 148.521 20.5603C148.425 20.2042 148.275 19.8662 148.077 19.5588C147.892 19.276 147.654 19.0342 147.378 18.8477C147.097 18.6617 146.769 18.5658 146.436 18.5723H138.908V31.0408H146.485C146.826 31.0523 147.162 30.9563 147.45 30.7654C147.725 30.5807 147.959 30.3364 148.135 30.0493C148.329 29.7421 148.473 29.4037 148.56 29.0478C148.654 28.7109 148.703 28.3621 148.705 28.0113C148.694 27.5372 148.551 27.0765 148.294 26.6843C148.034 26.2492 147.698 25.8673 147.305 25.5577H144.289V24.0304H147.305Z" fill="#31766A"/>
<path d="M153.651 32.6432V17.02H155.34V31.0658H165.113V32.6432H153.651Z" fill="#31766A"/>
<path d="M166.898 21.762C167.669 19.8685 169.124 18.3638 170.952 17.5708C171.899 17.1576 172.917 16.9448 173.944 16.9448C174.972 16.9448 175.989 17.1576 176.936 17.5708C178.761 18.3679 180.215 19.8712 180.99 21.762C181.388 22.7318 181.593 23.775 181.593 24.829C181.593 25.8831 181.388 26.9263 180.99 27.8961C180.214 29.787 178.761 31.2914 176.936 32.0923C175.989 32.5055 174.972 32.7183 173.944 32.7183C172.917 32.7183 171.899 32.5055 170.952 32.0923C169.126 31.2949 167.671 29.7894 166.898 27.8961C166.5 26.9263 166.295 25.8831 166.295 24.829C166.295 23.775 166.5 22.7318 166.898 21.762ZM168.394 27.2201C169.03 28.7048 170.179 29.889 171.613 30.54C172.348 30.8703 173.141 31.0408 173.942 31.0408C174.743 31.0408 175.535 30.8703 176.27 30.54C176.988 30.2152 177.642 29.757 178.201 29.188C178.76 28.6248 179.212 27.9571 179.533 27.2201C179.854 26.4768 180.018 25.671 180.015 24.8566C180.014 24.041 179.85 23.2345 179.533 22.4881C179.223 21.7419 178.781 21.0625 178.23 20.4851C177.671 19.9129 177.017 19.4498 176.299 19.1181C175.567 18.7806 174.774 18.6098 173.973 18.6173C173.168 18.6109 172.37 18.7816 171.633 19.1181C170.914 19.4469 170.259 19.9103 169.702 20.4851C169.15 21.0615 168.708 21.7411 168.399 22.4881C168.08 23.2337 167.915 24.0407 167.917 24.8566C167.91 25.6709 168.073 26.4771 168.394 27.2201Z" fill="#31766A"/>
<path d="M184.948 21.7624C185.335 20.8296 185.886 19.9803 186.575 19.2587C187.269 18.5426 188.087 17.97 188.988 17.5712C190.142 17.0542 191.402 16.8452 192.654 16.9632C193.906 17.0813 195.109 17.5227 196.154 18.2472C196.748 18.6644 197.287 19.1611 197.756 19.7244C198.227 20.2838 198.621 20.9071 198.929 21.5771L197.578 22.4785C197.335 21.9357 197.022 21.4302 196.646 20.9763C196.271 20.5104 195.837 20.0979 195.358 19.7494C194.872 19.3976 194.339 19.1226 193.775 18.9332C192.424 18.4865 190.962 18.5666 189.663 19.1586C188.946 19.488 188.293 19.9513 187.738 20.5256C187.184 21.1007 186.742 21.7806 186.435 22.5286C186.115 23.2742 185.951 24.0812 185.952 24.8971C185.947 25.7118 186.112 26.518 186.435 27.2606C186.75 27.9815 187.192 28.6352 187.738 29.1884C188.294 29.7602 188.949 30.2187 189.668 30.5404C190.403 30.8753 191.197 31.0459 191.999 31.0412C192.554 31.0421 193.107 30.9612 193.64 30.8008C194.16 30.6501 194.658 30.4278 195.121 30.1398C195.578 29.8619 196 29.5254 196.376 29.1383C196.757 28.7513 197.082 28.3095 197.341 27.8264L198.5 29.0532C197.823 30.1546 196.899 31.0689 195.807 31.7172C194.65 32.3992 193.338 32.7451 192.009 32.7187C190.98 32.725 189.962 32.512 189.017 32.0927C187.19 31.2953 185.736 29.7898 184.963 27.8965C184.565 26.9267 184.359 25.8835 184.359 24.8295C184.359 23.7754 184.565 22.7322 184.963 21.7624H184.948Z" fill="#31766A"/>
<path d="M202.129 32.6432V17.02H203.818V24.1055H208.934V25.6829H203.818V32.6432H202.129ZM216.728 17.02L213.036 24.9067L216.728 32.6432H214.894L211.154 24.9067L214.894 17.02H216.728Z" fill="#31766A"/>
<path d="M225.119 18.6226C224.763 18.5984 224.405 18.6553 224.072 18.7894C223.738 18.9235 223.437 19.1314 223.189 19.3988C222.737 19.9576 222.504 20.6728 222.538 21.4018C222.516 22.0206 222.676 22.6318 222.996 23.1544C223.171 23.3993 223.391 23.6052 223.644 23.7601C223.897 23.9149 224.177 24.0154 224.468 24.0557V25.6831C223.978 25.6854 223.495 25.5652 223.059 25.3326C222.617 25.1004 222.219 24.7865 221.886 24.4062C221.542 24.0106 221.272 23.5521 221.09 23.0542C220.894 22.5271 220.796 21.9665 220.8 21.4018C220.793 20.796 220.891 20.1938 221.09 19.6241C221.265 19.1182 221.536 18.6536 221.886 18.2571C222.22 17.886 222.622 17.588 223.068 17.3808C223.525 17.1741 224.018 17.0684 224.516 17.0703H233.806V18.6226H225.119ZM229.68 31.0911C230.037 31.1153 230.394 31.0584 230.728 30.9244C231.061 30.7903 231.363 30.5823 231.61 30.315C232.057 29.7626 232.289 29.0575 232.262 28.337C232.285 27.7211 232.125 27.1128 231.803 26.5944C231.627 26.3527 231.406 26.1499 231.153 25.9977C230.901 25.8455 230.621 25.7471 230.332 25.7081V24.0557C230.823 24.0528 231.308 24.173 231.746 24.4062C232.186 24.6385 232.582 24.9524 232.913 25.3326C233.259 25.7303 233.53 26.1925 233.71 26.6946C233.902 27.2191 234 27.7758 233.999 28.337C234.008 28.9438 233.907 29.5469 233.7 30.1147C233.516 30.6181 233.241 31.0803 232.889 31.4767C232.558 31.8504 232.155 32.1488 231.707 32.353C231.252 32.5667 230.758 32.6744 230.259 32.6684H221.037V31.0911H229.68Z" fill="#31766A"/>
</svg>
