<svg width="30" height="30" viewBox="0 0 30 30" fill="none" xmlns="http://www.w3.org/2000/svg">
<path d="M20.4023 19.7461V10.7324C20.2485 10.8293 20.1182 10.8928 20.0112 10.9831C19.0384 11.819 18.0689 12.6615 17.0994 13.504C16.9323 13.6478 16.7651 13.7782 16.5478 13.5943C16.3205 13.4037 16.4041 13.2098 16.5412 13.0059C17.2733 11.9226 18.002 10.8327 18.7308 9.74607C19.0651 9.24457 19.3994 8.74306 19.7404 8.24824C20.2118 7.55617 20.9572 7.27867 21.6894 7.50936C22.4282 7.74339 22.8628 8.37529 22.8628 9.22116C22.8628 13.2566 22.8628 17.292 22.8628 21.3275C22.8628 22.2101 22.5017 22.7919 21.7863 23.066C20.9706 23.377 20.0613 23.173 19.5298 22.5411C17.5942 20.2342 15.6653 17.9206 13.7364 15.607C12.4694 14.0891 11.1991 12.5746 9.93541 11.0533C9.86186 10.9664 9.84515 10.8327 9.80169 10.719L9.61448 10.8594V19.8765C9.77494 19.7695 9.90866 19.706 10.019 19.609C10.9316 18.8233 11.8409 18.0309 12.7502 17.2419C12.8003 17.1984 12.8505 17.1583 12.8973 17.1115C13.0745 16.9443 13.3051 16.8273 13.4689 17.048C13.5559 17.1683 13.5425 17.4626 13.4556 17.5963C12.3825 19.2245 11.2927 20.8427 10.1861 22.4475C10.0223 22.6815 9.76491 22.8922 9.50416 23.0125C8.37089 23.5341 7.14401 22.7284 7.14067 21.4746C7.13398 18.84 7.14067 16.2088 7.14067 13.5742C7.14067 12.1065 7.14067 10.6387 7.14067 9.17101C7.14067 8.13457 7.82598 7.48596 8.85896 7.43915C9.64122 7.40237 10.1895 7.70662 10.6809 8.29839C13.7966 12.0597 16.9356 15.8009 20.0647 19.5522C20.1382 19.6391 20.1716 19.7594 20.2251 19.8664L20.4023 19.7394V19.7461Z" fill="#31766A"/>
<path opacity="0.5" d="M15 30C6.72944 30 0 23.2732 0 15.0017C0 6.73019 6.72944 0 15 0C23.2706 0 30 6.73019 30 15.0017C30 23.2732 23.2706 30.0033 15 30.0033V30ZM15 0.909395C7.23089 0.909395 0.909294 7.2317 0.909294 15.0017C0.909294 22.7717 7.23089 29.0906 14.9967 29.0906C22.7624 29.0906 29.084 22.7683 29.084 15.0017C29.084 7.23504 22.7691 0.909395 15 0.909395Z" fill="#31766A"/>
</svg>
