<svg width="38" height="38" viewBox="0 0 38 38" fill="none" xmlns="http://www.w3.org/2000/svg">
<g clip-path="url(#clip0_740_3265)">
<path d="M25.8429 25.0119V13.5945C25.6481 13.7173 25.4829 13.7978 25.3474 13.9121C24.1152 14.9709 22.8872 16.0381 21.6592 17.1053C21.4475 17.2874 21.2358 17.4525 20.9605 17.2196C20.6726 16.9782 20.7785 16.7326 20.9521 16.4743C21.8794 15.1022 22.8025 13.7216 23.7256 12.3452C24.1491 11.71 24.5725 11.0747 25.0044 10.448C25.6015 9.57134 26.5458 9.21984 27.4731 9.51205C28.4089 9.8085 28.9594 10.6089 28.9594 11.6803C28.9594 16.7919 28.9594 21.9035 28.9594 27.015C28.9594 28.133 28.5021 28.8699 27.5959 29.2172C26.5627 29.611 25.4109 29.3527 24.7377 28.5523C22.2859 25.6302 19.8426 22.6996 17.3994 19.769C15.7945 17.8464 14.1854 15.928 12.5848 14.0011C12.4916 13.891 12.4705 13.7216 12.4154 13.5776L12.1783 13.7554V25.177C12.3815 25.0415 12.5509 24.9611 12.6906 24.8383C13.8467 23.843 14.9984 22.8394 16.1502 21.8399C16.2137 21.7849 16.2772 21.7341 16.3365 21.6748C16.5609 21.463 16.8531 21.3148 17.0606 21.5943C17.1707 21.7468 17.1538 22.1194 17.0437 22.2888C15.6844 24.3512 14.304 26.4009 12.9024 28.4337C12.6949 28.7302 12.3688 28.997 12.0385 29.1494C10.6031 29.8101 9.04901 28.7894 9.04478 27.2013C9.03631 23.8642 9.04478 20.5313 9.04478 17.1942C9.04478 15.3351 9.04478 13.4759 9.04478 11.6168C9.04478 10.304 9.91284 9.48241 11.2213 9.42312C12.2122 9.37653 12.9066 9.76191 13.5291 10.5115C17.4756 15.2758 21.4517 20.0147 25.4152 24.7663C25.5083 24.8764 25.5507 25.0288 25.6184 25.1643L25.8429 25.0034V25.0119Z" fill="#033F40"/>
<path opacity="0.5" d="M19 38C8.52396 38 0 29.4793 0 19.0021C0 8.52491 8.52396 0 19 0C29.476 0 38 8.52491 38 19.0021C38 29.4793 29.476 38.0042 19 38.0042V38ZM19 1.1519C9.15913 1.1519 1.15177 9.16015 1.15177 19.0021C1.15177 28.8441 9.15913 36.8481 18.9958 36.8481C28.8324 36.8481 36.8398 28.8399 36.8398 19.0021C36.8398 9.16438 28.8409 1.1519 19 1.1519V1.1519Z" fill="#033F40"/>
</g>
<defs>
<clipPath id="clip0_740_3265">
<rect width="38" height="38" fill="white"/>
</clipPath>
</defs>
</svg>
