<svg width="24" height="24" viewBox="0 0 24 24" fill="none" xmlns="http://www.w3.org/2000/svg">
<rect x="0.5" y="0.5" width="23" height="23" rx="11.5" fill="white" stroke="#E9ECEF"/>
<g clip-path="url(#clip0_1907_733)">
<path fill-rule="evenodd" clip-rule="evenodd" d="M14.7242 18.2878C14.9121 18.4208 15.1541 18.4541 15.37 18.3724C15.5858 18.2902 15.7445 18.1058 15.7923 17.8824C16.2992 15.5001 17.5289 9.47017 17.9903 7.30309C18.0253 7.13975 17.967 6.97 17.8386 6.86092C17.7103 6.75184 17.5324 6.72034 17.3737 6.77925C14.9278 7.68459 7.39523 10.5108 4.3164 11.6501C4.12098 11.7224 3.99382 11.9103 4.00023 12.1162C4.00723 12.3227 4.14607 12.5018 4.34615 12.5618C5.7269 12.9748 7.53932 13.5494 7.53932 13.5494C7.53932 13.5494 8.38632 16.1073 8.8279 17.4082C8.88332 17.5715 9.01107 17.6998 9.17965 17.7442C9.34765 17.7879 9.52732 17.7418 9.65273 17.6234C10.3621 16.9538 11.4587 15.9183 11.4587 15.9183C11.4587 15.9183 13.5424 17.4461 14.7242 18.2878ZM8.30173 13.2263L9.28115 16.4568L9.49873 14.411C9.49873 14.411 13.2828 10.9979 15.44 9.0525C15.503 8.99534 15.5117 8.89967 15.4592 8.83259C15.4073 8.7655 15.3116 8.74975 15.2399 8.79525C12.7397 10.3918 8.30173 13.2263 8.30173 13.2263Z" fill="#1A202C"/>
</g>
<defs>
<clipPath id="clip0_1907_733">
<rect width="14" height="14" fill="white" transform="translate(4 5)"/>
</clipPath>
</defs>
</svg>
