<svg width="15" height="15" viewBox="0 0 15 15" fill="none" xmlns="http://www.w3.org/2000/svg">
<path fill="white" d="M12.0396 0.761458L8.90417 5.41667C8.85951 5.48371 8.84064 5.56465 8.85105 5.64453C8.86146 5.72441 8.90044 5.79781 8.96079 5.85117C9.02113 5.90453 9.09876 5.93423 9.17931 5.93478C9.25986 5.93533 9.33789 5.9067 9.39896 5.85417L12.4854 3.17708C12.5035 3.1609 12.5259 3.15033 12.5499 3.14667C12.5739 3.14301 12.5984 3.14642 12.6205 3.15647C12.6426 3.16652 12.6613 3.18278 12.6743 3.20328C12.6873 3.22377 12.6941 3.24761 12.6937 3.27188V11.6531C12.6937 11.6788 12.6858 11.7038 12.6711 11.7248C12.6564 11.7458 12.6355 11.7618 12.6114 11.7706C12.5873 11.7793 12.5611 11.7805 12.5363 11.7738C12.5115 11.7671 12.4894 11.753 12.4729 11.7333L3.14375 0.565625C2.99369 0.388432 2.80685 0.246047 2.5962 0.148368C2.38555 0.0506887 2.15615 5.94732e-05 1.92396 5.52071e-08H1.59792C1.17412 5.52071e-08 0.767686 0.168351 0.468019 0.468019C0.168351 0.767686 0 1.17412 0 1.59792V13.4021C0 13.8259 0.168351 14.2323 0.468019 14.532C0.767686 14.8316 1.17412 15 1.59792 15C1.87116 15.0001 2.13987 14.9301 2.37839 14.7968C2.61691 14.6635 2.8173 14.4713 2.96042 14.2385L6.09583 9.58333C6.14049 9.51629 6.15936 9.43535 6.14895 9.35547C6.13854 9.27559 6.09956 9.20218 6.03921 9.14883C5.97886 9.09547 5.90124 9.06577 5.82069 9.06522C5.74014 9.06467 5.66211 9.0933 5.60104 9.14583L2.51458 11.8229C2.4965 11.8391 2.47409 11.8497 2.45009 11.8533C2.4261 11.857 2.40156 11.8536 2.37947 11.8435C2.35738 11.8335 2.33869 11.8172 2.32569 11.7967C2.31269 11.7762 2.30593 11.7524 2.30625 11.7281V3.34479C2.30626 3.31913 2.31416 3.2941 2.32889 3.27309C2.34362 3.25208 2.36446 3.23611 2.38858 3.22735C2.41269 3.21859 2.43892 3.21746 2.4637 3.22412C2.48848 3.23079 2.51061 3.24491 2.52708 3.26458L11.8552 14.4344C12.0053 14.6116 12.1921 14.754 12.4028 14.8516C12.6134 14.9493 12.8428 14.9999 13.075 15H13.401C13.611 15.0001 13.8189 14.9589 14.0129 14.8787C14.2068 14.7984 14.3831 14.6807 14.5316 14.5323C14.6801 14.384 14.7979 14.2078 14.8783 14.0138C14.9586 13.8199 15 13.612 15 13.4021V1.59792C15 1.17412 14.8316 0.767686 14.532 0.468019C14.2323 0.168351 13.8259 5.52071e-08 13.4021 5.52071e-08C13.1288 -7.17393e-05 12.8601 0.069882 12.6216 0.203185C12.3831 0.336488 12.1827 0.528693 12.0396 0.761458Z"/>
</svg>
