<svg width="36" height="35" viewBox="0 0 36 35" fill="none" xmlns="http://www.w3.org/2000/svg">
<path d="M35.5108 18.7859C35.4015 18.2318 35.2766 17.6815 35.1088 17.143C34.3205 14.6025 32.9742 12.343 31.3742 10.2318C31.2727 10.0991 31.1752 9.96255 31.0776 9.82597C31.1401 9.74792 31.1986 9.68158 31.2493 9.61914L27.585 13.2367C27.6474 13.2016 27.7098 13.1625 27.7684 13.1196C27.823 13.182 27.862 13.2211 27.8972 13.264C29.4581 15.1645 30.8435 17.1859 31.9283 19.3947C32.8571 21.2874 33.5986 23.2464 33.7937 25.3693C33.821 25.6737 33.9732 25.8922 34.2737 25.9546C34.4922 26.0015 34.6756 25.9351 34.8005 25.7946C34.8005 25.7946 34.8044 25.7946 34.8044 25.7985C34.8083 25.7907 34.8161 25.7829 34.82 25.7751C34.8239 25.7751 34.8239 25.7712 34.8278 25.7712C35.343 25.1859 35.7488 24.2493 35.8893 23.4727C36.2795 21.2796 35.5108 18.7859 35.5108 18.7859Z" fill="#4F4F4F"/>
<path d="M25.985 4.64744C24.6503 3.81233 23.3196 2.91087 21.9186 2.13819C19.7723 0.959662 17.4777 0.17918 15.0075 0.0230832C13.3802 -0.082282 11.8192 0.155765 10.3636 0.936248C10.0748 1.09234 9.87189 1.29137 9.94604 1.63088C10.0202 1.97039 10.2855 2.06014 10.6055 2.11868C11.5265 2.29039 12.467 2.43087 13.3607 2.70404C15.6123 3.38696 17.6845 4.47574 19.6318 5.78304C20.7128 6.50499 21.743 7.30889 22.8201 8.09327L26.3128 4.91281L25.9811 4.64744H25.985ZM25.1694 5.61524H25.1733L25.1772 5.62305L25.1694 5.61524Z" fill="#4F4F4F"/>
<path opacity="0.5" d="M31.2888 9.57627C31.8703 8.86603 31.8976 7.93725 31.2771 7.27774C30.4147 6.36068 29.5093 5.47873 28.6039 4.60069C28.2176 4.22996 27.6635 4.08167 27.1522 4.23777C27.1054 4.25337 27.0547 4.26898 27.0079 4.28459L26.3171 4.91288L22.8245 8.09335C22.4381 8.60066 22.2898 9.12749 22.4615 9.67383C22.5513 9.96651 22.4771 10.1187 22.282 10.3138C15.4762 17.104 8.68212 23.902 1.88802 30.6961C1.77485 30.8093 1.66168 30.9225 1.56022 31.0434C0.729002 32.0151 0.82266 33.4981 1.80997 34.3059C2.08704 34.5322 2.43826 34.661 2.77387 34.8093C3.01972 34.8405 3.37874 34.8912 3.62069 34.9263C4.42459 34.7585 4.97873 34.2473 5.52897 33.6932C12.2216 26.9888 18.9221 20.2962 25.6186 13.5958C25.6732 13.5411 25.724 13.4748 25.7903 13.4318C25.841 13.3967 25.923 13.3577 25.9659 13.3772C26.5435 13.5958 27.082 13.5294 27.5854 13.2367L31.2498 9.61919C31.2498 9.61919 31.2771 9.59188 31.2888 9.57627ZM24.7445 12.827C17.9386 19.6328 11.1367 26.4347 4.33093 33.2444C4.02264 33.5527 3.67923 33.7829 3.22264 33.7244C2.76996 33.6659 2.43826 33.4317 2.26265 33.0064C2.08314 32.5771 2.15338 32.1829 2.43045 31.82C2.51241 31.7147 2.60997 31.6171 2.70753 31.5195L23.0469 11.1802C23.1289 11.0982 23.2108 11.0241 23.3006 10.9382L24.9591 12.5967C24.8927 12.667 24.8225 12.7489 24.7445 12.827ZM30.3132 8.91286C29.2634 9.97821 28.202 11.0397 27.1366 12.0933C26.7893 12.4367 26.4849 12.4289 26.1337 12.0816C25.3571 11.3167 24.5884 10.5441 23.8196 9.77139C23.4371 9.38505 23.4606 9.07676 23.8898 8.67871C24.8888 7.75384 25.9191 6.84848 26.7854 5.79873C27.2381 5.24849 27.5737 5.19386 28.0069 5.62312C28.7639 6.37629 29.521 7.12555 30.2664 7.89042C30.4069 8.03481 30.4966 8.23384 30.6215 8.42505C30.5044 8.61627 30.4342 8.79188 30.3132 8.91286Z" fill="#4F4F4F"/>
<path d="M30.4846 7.94427L27.9873 5.447C27.7511 5.21078 27.3681 5.21078 27.1319 5.447L23.6853 8.89352C23.4491 9.12973 23.4491 9.51272 23.6853 9.74894L26.1826 12.2462C26.4188 12.4824 26.8018 12.4824 27.038 12.2462L30.4846 8.7997C30.7208 8.56348 30.7208 8.18049 30.4846 7.94427Z" fill="white"/>
</svg>
