<svg width="30" height="30" viewBox="0 0 30 30" fill="none" xmlns="http://www.w3.org/2000/svg">
<path d="M29.581 16.1011C29.4874 15.6262 29.3803 15.1546 29.2365 14.6931C28.5609 12.5157 27.407 10.5792 26.0357 8.76973C25.9488 8.65602 25.8651 8.53896 25.7815 8.42189C25.835 8.355 25.8852 8.29814 25.9287 8.24463L22.7881 11.3451C22.8416 11.315 22.8951 11.2815 22.9453 11.2448C22.9921 11.2983 23.0256 11.3317 23.0557 11.3685C24.3935 12.9973 25.5808 14.7299 26.5107 16.6229C27.3067 18.245 27.9422 19.9241 28.1094 21.7435C28.1328 22.0044 28.2632 22.1917 28.5208 22.2452C28.7081 22.2854 28.8653 22.2285 28.9723 22.1081C28.9723 22.1081 28.9756 22.1081 28.9756 22.1114C28.979 22.1047 28.9857 22.0981 28.989 22.0914C28.9924 22.0914 28.9924 22.088 28.9957 22.088C29.4372 21.5863 29.785 20.7836 29.9054 20.118C30.2399 18.2384 29.581 16.1011 29.581 16.1011Z" fill="#31766A"/>
<path d="M21.4168 3.98358C20.2729 3.26783 19.1324 2.49522 17.9317 1.83299C16.0922 0.822912 14.1255 0.153987 12.0084 0.0202023C10.6137 -0.0701025 9.27582 0.133919 8.02828 0.802844C7.78078 0.936629 7.60686 1.1072 7.6704 1.39819C7.73395 1.68917 7.96139 1.7661 8.23564 1.81626C9.02498 1.96343 9.83103 2.08383 10.5969 2.31796C12.5268 2.90327 14.3028 3.83642 15.9718 4.95686C16.8982 5.57562 17.7812 6.26461 18.7043 6.93688L21.6978 4.21101L21.4135 3.98358H21.4168ZM20.7178 4.81305H20.7211L20.7245 4.81974L20.7178 4.81305Z" fill="#31766A"/>
<path opacity="0.5" d="M25.962 8.20774C26.4603 7.59902 26.4837 6.803 25.952 6.23776C25.2128 5.45177 24.4368 4.69589 23.6609 3.94335C23.3298 3.62561 22.8548 3.49851 22.4167 3.6323C22.3766 3.64567 22.3331 3.65905 22.2929 3.67243L21.7009 4.21092L18.7075 6.93678C18.3764 7.37158 18.2493 7.82311 18.3965 8.29135C18.4734 8.5422 18.4098 8.67264 18.2426 8.83987C12.4096 14.6595 6.58659 20.4858 0.763601 26.3088C0.666607 26.4058 0.569613 26.5028 0.482653 26.6065C-0.229752 27.4393 -0.149481 28.7103 0.696709 29.4026C0.934177 29.5966 1.23519 29.707 1.52283 29.8341C1.73354 29.8608 2.04125 29.9043 2.24861 29.9344C2.93761 29.7906 3.41254 29.3524 3.88413 28.8775C9.62016 23.1314 15.3629 17.3954 21.1022 11.6527C21.1491 11.6059 21.1926 11.549 21.2494 11.5122C21.2929 11.4821 21.3631 11.4487 21.3999 11.4654C21.8949 11.6527 22.3565 11.5958 22.7879 11.345L25.9285 8.24453C25.9285 8.24453 25.952 8.22112 25.962 8.20774ZM20.3531 10.9938C14.52 16.8268 8.69036 22.6565 2.85733 28.4929C2.59311 28.7571 2.29878 28.9544 1.90746 28.9043C1.51949 28.8541 1.23519 28.6534 1.08468 28.2889C0.930832 27.9209 0.991035 27.5831 1.2285 27.2721C1.29874 27.1818 1.38236 27.0982 1.46597 27.0145L18.8981 9.58238C18.9684 9.51214 19.0386 9.44859 19.1155 9.37501L20.537 10.7965C20.4802 10.8567 20.4199 10.9269 20.3531 10.9938ZM25.1258 7.63915C24.2261 8.55224 23.3164 9.46197 22.4033 10.365C22.1056 10.6593 21.8448 10.6527 21.5437 10.355C20.8782 9.69944 20.2193 9.03721 19.5604 8.37497C19.2326 8.04385 19.2527 7.77963 19.6206 7.43848C20.4768 6.6458 21.3598 5.86985 22.1023 4.97014C22.4903 4.49855 22.7779 4.45173 23.1492 4.81964C23.798 5.46515 24.4469 6.10732 25.0857 6.76286C25.2061 6.88661 25.283 7.05719 25.3901 7.22108C25.2897 7.38496 25.2295 7.53547 25.1258 7.63915Z" fill="#31766A"/>
<path d="M25.2725 6.80915L23.1322 4.66882C22.9297 4.46637 22.6015 4.46637 22.399 4.66882L19.4452 7.62271C19.2427 7.82517 19.2427 8.15341 19.4452 8.35587L21.5855 10.4962C21.7879 10.6986 22.1162 10.6986 22.3186 10.4962L25.2725 7.5423C25.475 7.33985 25.475 7.01161 25.2725 6.80915Z" fill="#31766A"/>
</svg>
