<svg width="975" height="650" viewBox="0 0 975 650" fill="none" xmlns="http://www.w3.org/2000/svg">
<g clip-path="url(#clip0_4144_17620)">
<rect width="975" height="650" fill="white" style="fill:white;fill:white;fill-opacity:1;"/>
<rect x="54.1671" y="13.2012" width="37.2396" height="7.10938" rx="3.55469" fill="#EFF2F5" style="fill:#EFF2F5;fill:color(display-p3 0.9373 0.9490 0.9608);fill-opacity:1;"/>
<rect x="94.1155" y="13.2012" width="35.2083" height="7.10938" rx="3.55469" fill="#EFF2F5" style="fill:#EFF2F5;fill:color(display-p3 0.9373 0.9490 0.9608);fill-opacity:1;"/>
<rect x="132.032" y="13.2012" width="25.7292" height="7.10938" rx="3.55469" fill="#EFF2F5" style="fill:#EFF2F5;fill:color(display-p3 0.9373 0.9490 0.9608);fill-opacity:1;"/>
<rect x="165.886" y="14.5557" width="8.125" height="7.10938" rx="3.55469" fill="#EFF2F5" style="fill:#EFF2F5;fill:color(display-p3 0.9373 0.9490 0.9608);fill-opacity:1;"/>
<rect x="176.719" y="13.2012" width="16.25" height="7.10938" rx="3.55469" fill="#EFF2F5" style="fill:#EFF2F5;fill:color(display-p3 0.9373 0.9490 0.9608);fill-opacity:1;"/>
<rect x="195.678" y="13.2012" width="29.1146" height="7.10938" rx="3.55469" fill="#EFF2F5" style="fill:#EFF2F5;fill:color(display-p3 0.9373 0.9490 0.9608);fill-opacity:1;"/>
<rect x="547" y="12.998" width="13" height="8" rx="4" fill="#EFF2F5" style="fill:#EFF2F5;fill:color(display-p3 0.9373 0.9490 0.9608);fill-opacity:1;"/>
<rect x="563" y="12.998" width="280" height="8" rx="4" fill="#EFF2F5" style="fill:#EFF2F5;fill:color(display-p3 0.9373 0.9490 0.9608);fill-opacity:1;"/>
<rect x="904.812" y="13.3535" width="7.44792" height="7.10938" rx="3.55469" fill="#EFF2F5" style="fill:#EFF2F5;fill:color(display-p3 0.9373 0.9490 0.9608);fill-opacity:1;"/>
<rect x="852" y="12.6084" width="49.4271" height="8.88672" rx="4.44336" fill="#EFF2F5" style="fill:#EFF2F5;fill:color(display-p3 0.9373 0.9490 0.9608);fill-opacity:1;"/>
<svg x="31.1155" y="37.2012" width="234" height="44" viewBox="0 0 234 54" fill="none" xmlns="http://www.w3.org/2000/svg">
<path d="M35.9155 0.996582C31.9653 0.996531 28.0711 1.96553 24.5506 3.82452C21.03 5.6835 17.983 8.3798 15.6581 11.6934C13.3331 15.007 11.7962 18.844 11.1727 22.8912C10.5491 26.9385 10.8567 31.0815 12.0702 34.9819C11.9377 35.0744 11.8104 35.1748 11.6889 35.2824L2.51468 43.3994C2.07544 43.7893 1.71452 44.2652 1.45255 44.7998C1.19058 45.3345 1.03267 45.9175 0.987856 46.5154C0.943042 47.1134 1.01219 47.7147 1.19136 48.285C1.37053 48.8552 1.65621 49.3833 2.03208 49.8389C2.40787 50.2947 2.8665 50.6692 3.38179 50.941C3.89708 51.2128 4.45892 51.3767 5.03524 51.4232C5.61156 51.4697 6.19106 51.3979 6.74065 51.212C7.29025 51.0261 7.79916 50.7297 8.23833 50.3397L16.3219 43.1891C18.9637 46.629 22.4035 49.317 26.3194 51.0016C30.2352 52.6862 34.499 53.3122 38.7116 52.821C42.9242 52.3299 46.9478 50.7376 50.4056 48.1932C53.8635 45.6489 56.6426 42.2358 58.4827 38.2733C60.3228 34.3109 61.1637 29.9288 60.9268 25.5372C60.6898 21.1456 59.3828 16.8883 57.1279 13.1637C54.8731 9.43913 51.7442 6.36914 48.0343 4.24117C44.3243 2.11319 40.1546 0.996827 35.9155 0.996582Z" fill="white"/>
<path d="M35.9159 53.99C32.1724 53.9983 28.4718 53.1641 25.0691 51.5449C21.6665 49.9257 18.6427 47.5601 16.2064 44.6111L8.85159 51.1207C8.31479 51.5952 7.69319 51.9553 7.02227 52.1805C6.35135 52.4057 5.64425 52.4915 4.94135 52.4332C4.23845 52.3748 3.55351 52.1734 2.92563 51.8404C2.29776 51.5073 1.73925 51.0493 1.28199 50.4923C0.824731 49.9353 0.47768 49.2904 0.260651 48.5942C0.0436218 47.8981 -0.0391346 47.1644 0.0171065 46.4351C0.0733477 45.7058 0.267485 44.9951 0.588434 44.3436C0.909383 43.6921 1.35086 43.1126 1.88765 42.6382L10.9557 34.6263C9.41226 29.1873 9.55817 23.3822 11.3728 18.034C13.1874 12.6859 16.5786 8.06623 21.0655 4.83003C25.5524 1.59384 30.9074 -0.0946115 36.371 0.00409369C41.8346 0.102799 47.1297 1.98365 51.5053 5.37995C55.8809 8.77626 59.1151 13.5156 60.7491 18.9261C62.3832 24.3365 62.3343 30.1434 60.6092 35.5233C58.8842 40.9033 55.5707 45.5832 51.1385 48.8996C46.7063 52.216 41.3803 54.0005 35.9159 54V53.99ZM16.4574 41.7569L17.0799 42.5581C20.825 47.4241 26.1886 50.6609 32.1168 51.6324C38.0449 52.6039 44.1089 51.2398 49.117 47.8082C54.1251 44.3766 57.7152 39.1256 59.1819 33.0872C60.6485 27.0488 59.8856 20.6596 57.043 15.1752C54.2005 9.69073 49.4838 5.50765 43.82 3.44798C38.1562 1.38832 31.9547 1.60101 26.4343 4.04425C20.914 6.48749 16.4738 10.9846 13.9865 16.6518C11.4992 22.3191 11.1446 28.7466 12.9923 34.6714L13.2143 35.3824L12.6159 35.803C12.5145 35.8782 12.4132 35.9533 12.3167 36.0384L3.14242 44.1654C2.76402 44.457 2.44747 44.8262 2.21247 45.2501C1.97746 45.674 1.82901 46.1436 1.77636 46.6295C1.72371 47.1155 1.76798 47.6075 1.90641 48.075C2.04485 48.5425 2.27449 48.9754 2.58105 49.3468C2.88762 49.7183 3.26456 50.0203 3.68843 50.2342C4.1123 50.448 4.57404 50.5691 5.04493 50.5899C5.51583 50.6107 5.98581 50.5307 6.42565 50.355C6.86549 50.1793 7.26579 49.9115 7.60165 49.5684L16.4574 41.7569Z" fill="#033F40"/>
<path d="M35.916 47.2302C46.6866 47.2302 55.4179 38.1707 55.4179 26.9952C55.4179 15.8198 46.6866 6.76025 35.916 6.76025C25.1454 6.76025 16.4141 15.8198 16.4141 26.9952C16.4141 38.1707 25.1454 47.2302 35.916 47.2302Z" fill="white"/>
<path d="M37.1662 35.7227C36.858 35.6515 36.5723 35.5002 36.3359 35.2829C36.0995 35.0657 35.9202 34.7897 35.8149 34.4809L32.205 23.8201L19.1748 37.3401C21.7094 41.7443 25.7619 44.985 30.5122 46.4064C35.2625 47.8277 40.3558 47.3236 44.7614 44.996C49.167 42.6684 52.5559 38.6912 54.2423 33.8691C55.9287 29.0471 55.7866 23.7404 53.8449 19.0229L38.8842 35.1569C38.6677 35.3947 38.3963 35.5714 38.0958 35.6704C37.7952 35.7694 37.4753 35.7874 37.1662 35.7227Z" fill="#033F40"/>
<path d="M33.3873 18.4373C33.6924 18.5089 33.9748 18.66 34.2079 18.8765C34.4409 19.0929 34.617 19.3674 34.7193 19.6741L38.2905 30.2748L51.9771 15.518C49.3021 11.4766 45.3036 8.58063 40.7251 7.36864C36.1467 6.15665 31.2998 6.71107 27.0858 8.92881C22.8717 11.1466 19.5773 14.8767 17.815 19.4257C16.0527 23.9747 15.9425 29.0329 17.5049 33.6598L31.6692 18.9531C31.8899 18.7229 32.1634 18.5547 32.4639 18.4645C32.7645 18.3743 33.0823 18.3649 33.3873 18.4373Z" fill="#033F40"/>
<path d="M99.3486 17.396H89.8027V19.0535H99.3486V17.396Z" fill="#033F40"/>
<path d="M89.8027 24.186V33.0241H99.3486V31.3516H91.5353V25.9587H98.8274V24.186H89.8027Z" fill="#2A323A"/>
<path d="M102.336 33.0241H104.184L109.116 19.5792H109.971L114.903 33.0241H116.669L110.854 17.396H108.151L102.336 33.0241Z" fill="#2A323A"/>
<path d="M120.622 16.6396V18.3422H127.156C130.443 18.3422 130.506 21.4668 130.506 21.9024C130.506 22.3381 130.472 25.007 127.35 25.007H120.622V32.9488H122.475V26.5343H124.324C124.816 26.5106 125.304 26.6321 125.733 26.8848C125.915 27.003 126.077 27.15 126.215 27.3205C126.674 27.9164 129.883 32.2928 129.883 32.2928C130.36 32.7265 130.972 32.9682 131.606 32.9738C131.916 32.945 132.228 32.945 132.537 32.9738L127.895 26.5343C127.895 26.5343 132.349 26.1537 132.344 21.9776C132.34 17.8014 129.57 16.7098 127.113 16.6797C124.657 16.6497 120.622 16.6396 120.622 16.6396Z" fill="#2A323A"/>
<path d="M72.4678 33.0441V17.6362H75.2476L84.639 31.5719V17.6362H86.3039V33.0441H83.6882L74.1328 19.0633V33.0441H72.4678Z" fill="#2A323A"/>
<path d="M137.219 17.02H146.75C147.246 17.0192 147.734 17.1429 148.174 17.3806C148.626 17.6335 149.027 17.9734 149.356 18.382C149.708 18.8168 149.981 19.3138 150.162 19.8492C150.368 20.4347 150.471 21.0537 150.466 21.6769C150.469 22.0158 150.423 22.3532 150.331 22.6784C150.247 22.9863 150.131 23.2835 149.984 23.5647C149.846 23.8303 149.684 24.0818 149.501 24.3158C149.322 24.5412 149.153 24.7415 149.018 24.9067C149.179 25.0903 149.34 25.2906 149.501 25.5076C149.681 25.7352 149.843 25.978 149.984 26.2337C150.13 26.5047 150.252 26.7897 150.346 27.0849C150.443 27.3919 150.492 27.7132 150.49 28.0363C150.495 28.6595 150.392 29.2786 150.186 29.8641C150.006 30.3985 149.733 30.894 149.38 31.3262C149.039 31.7234 148.626 32.0467 148.164 32.2776C147.726 32.5192 147.237 32.6447 146.74 32.6432H137.219V17.02ZM147.305 24.0304C147.693 23.7256 148.02 23.3466 148.27 22.9138C148.523 22.5249 148.665 22.0704 148.681 21.6018C148.678 21.2483 148.624 20.8973 148.521 20.5603C148.425 20.2042 148.275 19.8662 148.077 19.5588C147.892 19.276 147.654 19.0342 147.378 18.8477C147.097 18.6617 146.769 18.5658 146.436 18.5723H138.908V31.0408H146.485C146.826 31.0523 147.162 30.9563 147.45 30.7654C147.725 30.5807 147.959 30.3364 148.135 30.0493C148.329 29.7421 148.473 29.4037 148.56 29.0478C148.654 28.7109 148.703 28.3621 148.705 28.0113C148.694 27.5372 148.551 27.0765 148.294 26.6843C148.034 26.2492 147.698 25.8673 147.305 25.5577H144.289V24.0304H147.305Z" fill="#033F40"/>
<path d="M153.651 32.6432V17.02H155.34V31.0658H165.113V32.6432H153.651Z" fill="#033F40"/>
<path d="M166.898 21.762C167.669 19.8685 169.124 18.3638 170.952 17.5708C171.899 17.1576 172.917 16.9448 173.944 16.9448C174.972 16.9448 175.989 17.1576 176.936 17.5708C178.761 18.3679 180.215 19.8712 180.99 21.762C181.388 22.7318 181.593 23.775 181.593 24.829C181.593 25.8831 181.388 26.9263 180.99 27.8961C180.214 29.787 178.761 31.2914 176.936 32.0923C175.989 32.5055 174.972 32.7183 173.944 32.7183C172.917 32.7183 171.899 32.5055 170.952 32.0923C169.126 31.2949 167.671 29.7894 166.898 27.8961C166.5 26.9263 166.295 25.8831 166.295 24.829C166.295 23.775 166.5 22.7318 166.898 21.762ZM168.394 27.2201C169.03 28.7048 170.179 29.889 171.613 30.54C172.348 30.8703 173.141 31.0408 173.942 31.0408C174.743 31.0408 175.535 30.8703 176.27 30.54C176.988 30.2152 177.642 29.757 178.201 29.188C178.76 28.6248 179.212 27.9571 179.533 27.2201C179.854 26.4768 180.018 25.671 180.015 24.8566C180.014 24.041 179.85 23.2345 179.533 22.4881C179.223 21.7419 178.781 21.0625 178.23 20.4851C177.671 19.9129 177.017 19.4498 176.299 19.1181C175.567 18.7806 174.774 18.6098 173.973 18.6173C173.168 18.6109 172.37 18.7816 171.633 19.1181C170.914 19.4469 170.259 19.9103 169.702 20.4851C169.15 21.0615 168.708 21.7411 168.399 22.4881C168.08 23.2337 167.915 24.0407 167.917 24.8566C167.91 25.6709 168.073 26.4771 168.394 27.2201Z" fill="#033F40"/>
<path d="M184.948 21.7624C185.335 20.8296 185.886 19.9803 186.575 19.2587C187.269 18.5426 188.087 17.97 188.988 17.5712C190.142 17.0542 191.402 16.8452 192.654 16.9632C193.906 17.0813 195.109 17.5227 196.154 18.2472C196.748 18.6644 197.287 19.1611 197.756 19.7244C198.227 20.2838 198.621 20.9071 198.929 21.5771L197.578 22.4785C197.335 21.9357 197.022 21.4302 196.646 20.9763C196.271 20.5104 195.837 20.0979 195.358 19.7494C194.872 19.3976 194.339 19.1226 193.775 18.9332C192.424 18.4865 190.962 18.5666 189.663 19.1586C188.946 19.488 188.293 19.9513 187.738 20.5256C187.184 21.1007 186.742 21.7806 186.435 22.5286C186.115 23.2742 185.951 24.0812 185.952 24.8971C185.947 25.7118 186.112 26.518 186.435 27.2606C186.75 27.9815 187.192 28.6352 187.738 29.1884C188.294 29.7602 188.949 30.2187 189.668 30.5404C190.403 30.8753 191.197 31.0459 191.999 31.0412C192.554 31.0421 193.107 30.9612 193.64 30.8008C194.16 30.6501 194.658 30.4278 195.121 30.1398C195.578 29.8619 196 29.5254 196.376 29.1383C196.757 28.7513 197.082 28.3095 197.341 27.8264L198.5 29.0532C197.823 30.1546 196.899 31.0689 195.807 31.7172C194.65 32.3992 193.338 32.7451 192.009 32.7187C190.98 32.725 189.962 32.512 189.017 32.0927C187.19 31.2953 185.736 29.7898 184.963 27.8965C184.565 26.9267 184.359 25.8835 184.359 24.8295C184.359 23.7754 184.565 22.7322 184.963 21.7624H184.948Z" fill="#033F40"/>
<path d="M202.129 32.6432V17.02H203.818V24.1055H208.934V25.6829H203.818V32.6432H202.129ZM216.728 17.02L213.036 24.9067L216.728 32.6432H214.894L211.154 24.9067L214.894 17.02H216.728Z" fill="#033F40"/>
<path d="M225.119 18.6226C224.763 18.5984 224.405 18.6553 224.072 18.7894C223.738 18.9235 223.437 19.1314 223.189 19.3988C222.737 19.9576 222.504 20.6728 222.538 21.4018C222.516 22.0206 222.676 22.6318 222.996 23.1544C223.171 23.3993 223.391 23.6052 223.644 23.7601C223.897 23.9149 224.177 24.0154 224.468 24.0557V25.6831C223.978 25.6854 223.495 25.5652 223.059 25.3326C222.617 25.1004 222.219 24.7865 221.886 24.4062C221.542 24.0106 221.272 23.5521 221.09 23.0542C220.894 22.5271 220.796 21.9665 220.8 21.4018C220.793 20.796 220.891 20.1938 221.09 19.6241C221.265 19.1182 221.536 18.6536 221.886 18.2571C222.22 17.886 222.622 17.588 223.068 17.3808C223.525 17.1741 224.018 17.0684 224.516 17.0703H233.806V18.6226H225.119ZM229.68 31.0911C230.037 31.1153 230.394 31.0584 230.728 30.9244C231.061 30.7903 231.363 30.5823 231.61 30.315C232.057 29.7626 232.289 29.0575 232.262 28.337C232.285 27.7211 232.125 27.1128 231.803 26.5944C231.627 26.3527 231.406 26.1499 231.153 25.9977C230.901 25.8455 230.621 25.7471 230.332 25.7081V24.0557C230.823 24.0528 231.308 24.173 231.746 24.4062C232.186 24.6385 232.582 24.9524 232.913 25.3326C233.259 25.7303 233.53 26.1925 233.71 26.6946C233.902 27.2191 234 27.7758 233.999 28.337C234.008 28.9438 233.907 29.5469 233.7 30.1147C233.516 30.6181 233.241 31.0803 232.889 31.4767C232.558 31.8504 232.155 32.1488 231.707 32.353C231.252 32.5667 230.758 32.6744 230.259 32.6684H221.037V31.0911H229.68Z" fill="#033F40"/>
</svg>

<rect x="461.812" y="51.3555" width="7.44792" height="7.10938" rx="3.55469" fill="#EFF2F5" style="fill:#EFF2F5;fill:color(display-p3 0.9373 0.9490 0.9608);fill-opacity:1;"/>
<rect x="409" y="50.6104" width="49.4271" height="8.88672" rx="4.44336" fill="#EFF2F5" style="fill:#EFF2F5;fill:color(display-p3 0.9373 0.9490 0.9608);fill-opacity:1;"/>
<rect x="538.738" y="51.3564" width="7.44792" height="7.10938" rx="3.55469" fill="#EFF2F5" style="fill:#EFF2F5;fill:color(display-p3 0.9373 0.9490 0.9608);fill-opacity:1;"/>
<rect x="485.926" y="50.6113" width="49.4271" height="8.88672" rx="4.44336" fill="#EFF2F5" style="fill:#EFF2F5;fill:color(display-p3 0.9373 0.9490 0.9608);fill-opacity:1;"/>
<rect x="607.738" y="51.3564" width="7.44792" height="7.10938" rx="3.55469" fill="#EFF2F5" style="fill:#EFF2F5;fill:color(display-p3 0.9373 0.9490 0.9608);fill-opacity:1;"/>
<rect x="554.926" y="50.6113" width="49.4271" height="8.88672" rx="4.44336" fill="#EFF2F5" style="fill:#EFF2F5;fill:color(display-p3 0.9373 0.9490 0.9608);fill-opacity:1;"/>
<rect x="678.812" y="51.3564" width="7.44792" height="7.10938" rx="3.55469" fill="#EFF2F5" style="fill:#EFF2F5;fill:color(display-p3 0.9373 0.9490 0.9608);fill-opacity:1;"/>
<rect x="626" y="50.6113" width="49.4271" height="8.88672" rx="4.44336" fill="#EFF2F5" style="fill:#EFF2F5;fill:color(display-p3 0.9373 0.9490 0.9608);fill-opacity:1;"/>
<rect x="749.738" y="51.3564" width="7.44792" height="7.10938" rx="3.55469" fill="#EFF2F5" style="fill:#EFF2F5;fill:color(display-p3 0.9373 0.9490 0.9608);fill-opacity:1;"/>
<rect x="696.926" y="50.6113" width="49.4271" height="8.88672" rx="4.44336" fill="#EFF2F5" style="fill:#EFF2F5;fill:color(display-p3 0.9373 0.9490 0.9608);fill-opacity:1;"/>
<rect x="826.812" y="51.3564" width="7.44792" height="7.10938" rx="3.55469" fill="#EFF2F5" style="fill:#EFF2F5;fill:color(display-p3 0.9373 0.9490 0.9608);fill-opacity:1;"/>
<rect x="774" y="50.6113" width="49.4271" height="8.88672" rx="4.44336" fill="#EFF2F5" style="fill:#EFF2F5;fill:color(display-p3 0.9373 0.9490 0.9608);fill-opacity:1;"/>
<line x1="843.275" y1="52.9961" x2="843.275" y2="62.4753" stroke="#EFF2F5" style="stroke:#EFF2F5;stroke:color(display-p3 0.9373 0.9490 0.9608);stroke-opacity:1;" strokeWidth="0.677083"/>
<rect x="904.738" y="51.3564" width="7.44792" height="7.10938" rx="3.55469" fill="#EFF2F5" style="fill:#EFF2F5;fill:color(display-p3 0.9373 0.9490 0.9608);fill-opacity:1;"/>
<rect x="851.926" y="50.6113" width="49.4271" height="8.88672" rx="4.44336" fill="#EFF2F5" style="fill:#EFF2F5;fill:color(display-p3 0.9373 0.9490 0.9608);fill-opacity:1;"/>
<rect x="364.915" y="50.6113" width="27.0833" height="8.88672" rx="4.44336" fill="#EFF2F5" style="fill:#EFF2F5;fill:color(display-p3 0.9373 0.9490 0.9608);fill-opacity:1;"/>
<rect x="54" y="95" width="261" height="16" rx="4" fill="#EFF2F5" style="fill:#EFF2F5;fill:color(display-p3 0.9373 0.9490 0.9608);fill-opacity:1;"/>
<rect x="54" y="389" width="858" height="265" rx="12.381" fill="#EFF2F5" style="fill:#EFF2F5;fill:color(display-p3 0.9384 0.9505 0.9625);fill-opacity:1;"/>
<rect x="54" y="361" width="60" height="16" rx="4" fill="#EFF2F5" style="fill:#EFF2F5;fill:color(display-p3 0.9373 0.9490 0.9608);fill-opacity:1;"/>
<rect x="122" y="361" width="60" height="16" rx="4" fill="#EFF2F5" style="fill:#EFF2F5;fill:color(display-p3 0.9373 0.9490 0.9608);fill-opacity:1;"/>
<rect x="190" y="361" width="60" height="16" rx="4" fill="#EFF2F5" style="fill:#EFF2F5;fill:color(display-p3 0.9373 0.9490 0.9608);fill-opacity:1;"/>
<rect x="258" y="361" width="60" height="16" rx="4" fill="#EFF2F5" style="fill:#EFF2F5;fill:color(display-p3 0.9373 0.9490 0.9608);fill-opacity:1;"/>
<rect x="326" y="361" width="60" height="16" rx="4" fill="#EFF2F5" style="fill:#EFF2F5;fill:color(display-p3 0.9373 0.9490 0.9608);fill-opacity:1;"/>
<rect x="896" y="361" width="16" height="16" rx="4" fill="#EFF2F5" style="fill:#EFF2F5;fill:color(display-p3 0.9373 0.9490 0.9608);fill-opacity:1;"/>
<path d="M324.343 134H63.3239C58.7268 134 55 139.543 55 146.381V320.619C55 327.457 58.7268 333 63.3239 333H324.343C328.94 333 332.667 327.457 332.667 320.619V146.381C332.667 139.543 328.94 134 324.343 134Z" fill="#EFF2F5" style="fill:#EFF2F5;fill:color(display-p3 0.9373 0.9490 0.9608);fill-opacity:1;"/>
<path d="M614.009 134H352.991C348.393 134 344.667 139.543 344.667 146.381V320.619C344.667 327.457 348.393 333 352.991 333H614.009C618.607 333 622.333 327.457 622.333 320.619V146.381C622.333 139.543 618.607 134 614.009 134Z" fill="#EFF2F5" style="fill:#EFF2F5;fill:color(display-p3 0.9373 0.9490 0.9608);fill-opacity:1;"/>
<path d="M903.676 134H642.657C638.06 134 634.333 139.543 634.333 146.381V320.619C634.333 327.457 638.06 333 642.657 333H903.676C908.273 333 912 327.457 912 320.619V146.381C912 139.543 908.273 134 903.676 134Z" fill="#EFF2F5" style="fill:#EFF2F5;fill:color(display-p3 0.9373 0.9490 0.9608);fill-opacity:1;"/>
<rect x="728" y="95" width="40" height="16" rx="4" fill="#EFF2F5" style="fill:#EFF2F5;fill:color(display-p3 0.9373 0.9490 0.9608);fill-opacity:1;"/>
<rect x="776" y="95" width="40" height="16" rx="4" fill="#EFF2F5" style="fill:#EFF2F5;fill:color(display-p3 0.9373 0.9490 0.9608);fill-opacity:1;"/>
<rect x="824" y="95" width="40" height="16" rx="4" fill="#EFF2F5" style="fill:#EFF2F5;fill:color(display-p3 0.9373 0.9490 0.9608);fill-opacity:1;"/>
<rect x="872" y="95" width="40" height="16" rx="4" fill="#EFF2F5" style="fill:#EFF2F5;fill:color(display-p3 0.9373 0.9490 0.9608);fill-opacity:1;"/>
<g filter="url(#filter0_dd_4144_17620)">
<g clip-path="url(#clip2_4144_17620)">
<rect x="444" y="31" width="400" height="320" rx="12" fill="white" style="fill:white;fill:white;fill-opacity:1;"/>
<rect x="460" y="47" width="368" height="38" rx="6" fill="#495057" style="fill:#495057;fill:color(display-p3 0.2863 0.3137 0.3412);fill-opacity:1;"/>
<circle cx="477" cy="66" r="11" fill="#CED4DA" style="fill:#CED4DA;fill:color(display-p3 0.8078 0.8314 0.8549);fill-opacity:1;"/>
<path d="M499.103 62.5576L496.266 71H494.277L497.995 61.0469H499.267L499.103 62.5576ZM501.475 71L498.624 62.5576L498.453 61.0469H499.732L503.471 71H501.475ZM501.345 67.3018V68.7852H496.006V67.3018H501.345ZM508.656 69.4277V60.5H510.475V71H508.834L508.656 69.4277ZM503.905 67.3906V67.2471C503.905 66.682 503.969 66.1693 504.097 65.709C504.229 65.2441 504.42 64.8454 504.671 64.5127C504.922 64.18 505.225 63.9225 505.58 63.7402C505.94 63.5579 506.348 63.4668 506.804 63.4668C507.246 63.4668 507.631 63.5557 507.959 63.7334C508.292 63.9111 508.574 64.1641 508.807 64.4922C509.044 64.8203 509.233 65.21 509.374 65.6611C509.515 66.1077 509.618 66.5999 509.682 67.1377V67.5273C509.618 68.0514 509.515 68.5322 509.374 68.9697C509.233 69.4072 509.044 69.79 508.807 70.1182C508.574 70.4417 508.292 70.6924 507.959 70.8701C507.626 71.0479 507.237 71.1367 506.79 71.1367C506.339 71.1367 505.933 71.0433 505.573 70.8564C505.218 70.6696 504.915 70.4076 504.664 70.0703C504.418 69.7331 504.229 69.3366 504.097 68.8809C503.969 68.4251 503.905 67.9284 503.905 67.3906ZM505.717 67.2471V67.3906C505.717 67.7096 505.744 68.0081 505.799 68.2861C505.853 68.5641 505.942 68.8102 506.065 69.0244C506.188 69.234 506.346 69.3981 506.537 69.5166C506.733 69.6351 506.97 69.6943 507.248 69.6943C507.603 69.6943 507.895 69.6169 508.123 69.4619C508.355 69.3024 508.535 69.0859 508.663 68.8125C508.791 68.5345 508.873 68.2223 508.909 67.876V66.8027C508.891 66.5293 508.843 66.2764 508.766 66.0439C508.693 65.8115 508.588 65.611 508.451 65.4424C508.319 65.2738 508.155 65.1416 507.959 65.0459C507.763 64.9502 507.531 64.9023 507.262 64.9023C506.984 64.9023 506.747 64.9639 506.551 65.0869C506.355 65.2054 506.195 65.3717 506.072 65.5859C505.949 65.8001 505.858 66.0485 505.799 66.3311C505.744 66.6136 505.717 66.9189 505.717 67.2471ZM514.422 69.6328L516.145 63.6035H518.032L515.496 71H514.347L514.422 69.6328ZM513.165 63.6035L514.908 69.6465L514.969 71H513.814L511.271 63.6035H513.165ZM522.069 71.1367C521.508 71.1367 521.004 71.0456 520.558 70.8633C520.111 70.681 519.731 70.4281 519.416 70.1045C519.106 69.7764 518.867 69.3958 518.698 68.9629C518.534 68.5254 518.452 68.056 518.452 67.5547V67.2812C518.452 66.7116 518.534 66.1943 518.698 65.7295C518.863 65.2601 519.095 64.8568 519.396 64.5195C519.697 64.1823 520.057 63.9225 520.476 63.7402C520.895 63.5579 521.358 63.4668 521.864 63.4668C522.388 63.4668 522.85 63.5557 523.251 63.7334C523.652 63.9066 523.987 64.1527 524.256 64.4717C524.525 64.7907 524.728 65.1735 524.864 65.6201C525.001 66.0622 525.07 66.5521 525.07 67.0898V67.8486H519.273V66.6045H523.292V66.4678C523.283 66.1807 523.228 65.9186 523.128 65.6816C523.028 65.4401 522.873 65.2487 522.663 65.1074C522.454 64.9616 522.183 64.8887 521.85 64.8887C521.581 64.8887 521.346 64.9479 521.146 65.0664C520.95 65.1803 520.786 65.3444 520.654 65.5586C520.526 65.7682 520.43 66.0189 520.366 66.3105C520.303 66.6022 520.271 66.9258 520.271 67.2812V67.5547C520.271 67.8646 520.312 68.1517 520.394 68.416C520.48 68.6803 520.606 68.9105 520.77 69.1064C520.938 69.2979 521.139 69.4482 521.371 69.5576C521.608 69.6624 521.877 69.7148 522.178 69.7148C522.556 69.7148 522.898 69.6419 523.203 69.4961C523.513 69.3457 523.782 69.1247 524.01 68.833L524.919 69.7764C524.764 70.0042 524.555 70.223 524.29 70.4326C524.031 70.6423 523.716 70.8132 523.347 70.9453C522.978 71.0729 522.552 71.1367 522.069 71.1367ZM527.944 65.1143V71H526.14V63.6035H527.849L527.944 65.1143ZM530.193 63.5557L530.166 65.2373C530.066 65.2191 529.952 65.2054 529.824 65.1963C529.701 65.1872 529.585 65.1826 529.475 65.1826C529.197 65.1826 528.954 65.2214 528.744 65.2988C528.534 65.3717 528.359 65.4788 528.218 65.6201C528.081 65.7614 527.976 65.9346 527.903 66.1396C527.83 66.3402 527.789 66.568 527.78 66.8232L527.391 66.7754C527.391 66.306 527.438 65.8708 527.534 65.4697C527.63 65.0687 527.769 64.7178 527.951 64.417C528.133 64.1162 528.361 63.8838 528.635 63.7197C528.913 63.5511 529.232 63.4668 529.592 63.4668C529.692 63.4668 529.799 63.4759 529.913 63.4941C530.031 63.5078 530.125 63.5283 530.193 63.5557ZM534.886 63.6035V64.9023H530.648V63.6035H534.886ZM531.783 61.7852H533.594V68.8672C533.594 69.0859 533.624 69.2546 533.683 69.373C533.742 69.4915 533.831 69.5713 533.95 69.6123C534.068 69.6533 534.209 69.6738 534.374 69.6738C534.492 69.6738 534.601 69.667 534.702 69.6533C534.802 69.6396 534.886 69.626 534.955 69.6123L534.961 70.9658C534.811 71.016 534.64 71.057 534.449 71.0889C534.262 71.1208 534.05 71.1367 533.813 71.1367C533.407 71.1367 533.052 71.0684 532.747 70.9316C532.441 70.7904 532.204 70.5648 532.036 70.2549C531.867 69.9404 531.783 69.5257 531.783 69.0107V61.7852ZM537.863 63.6035V71H536.052V63.6035H537.863ZM535.929 61.6689C535.929 61.4001 536.02 61.1768 536.202 60.999C536.389 60.8213 536.64 60.7324 536.954 60.7324C537.269 60.7324 537.517 60.8213 537.699 60.999C537.886 61.1768 537.98 61.4001 537.98 61.6689C537.98 61.9333 537.886 62.1543 537.699 62.332C537.517 62.5098 537.269 62.5986 536.954 62.5986C536.64 62.5986 536.389 62.5098 536.202 62.332C536.02 62.1543 535.929 61.9333 535.929 61.6689ZM543.513 68.9766C543.513 68.8216 543.472 68.6826 543.39 68.5596C543.308 68.4365 543.153 68.3249 542.926 68.2246C542.702 68.1198 542.374 68.0218 541.941 67.9307C541.558 67.8486 541.205 67.7461 540.882 67.623C540.558 67.5 540.28 67.3519 540.048 67.1787C539.815 67.001 539.633 66.7936 539.501 66.5566C539.373 66.3151 539.309 66.0371 539.309 65.7227C539.309 65.4173 539.375 65.1302 539.508 64.8613C539.64 64.5879 539.831 64.3486 540.082 64.1436C540.332 63.9339 540.638 63.7699 540.998 63.6514C541.358 63.5283 541.763 63.4668 542.215 63.4668C542.844 63.4668 543.384 63.5693 543.835 63.7744C544.29 63.9795 544.639 64.262 544.881 64.6221C545.122 64.9775 545.243 65.3786 545.243 65.8252H543.438C543.438 65.6292 543.393 65.4515 543.302 65.292C543.215 65.1325 543.081 65.0049 542.898 64.9092C542.716 64.8089 542.486 64.7588 542.208 64.7588C541.957 64.7588 541.745 64.7998 541.572 64.8818C541.403 64.9639 541.276 65.071 541.189 65.2031C541.103 65.3353 541.059 65.4811 541.059 65.6406C541.059 65.7591 541.082 65.8662 541.128 65.9619C541.178 66.0531 541.258 66.1374 541.367 66.2148C541.476 66.2923 541.624 66.363 541.811 66.4268C542.003 66.4906 542.237 66.5521 542.515 66.6113C543.067 66.7207 543.548 66.8665 543.958 67.0488C544.373 67.2266 544.696 67.4635 544.929 67.7598C545.161 68.056 545.277 68.4342 545.277 68.8945C545.277 69.2227 545.207 69.5234 545.065 69.7969C544.924 70.0658 544.719 70.3005 544.45 70.501C544.181 70.7015 543.86 70.8587 543.486 70.9727C543.112 71.082 542.691 71.1367 542.221 71.1367C541.542 71.1367 540.968 71.016 540.499 70.7744C540.029 70.5283 539.674 70.2184 539.432 69.8447C539.191 69.4665 539.07 69.0745 539.07 68.6689H540.8C540.813 68.9561 540.891 69.1862 541.032 69.3594C541.173 69.5326 541.351 69.6579 541.565 69.7354C541.784 69.8083 542.014 69.8447 542.256 69.8447C542.529 69.8447 542.759 69.8083 542.946 69.7354C543.133 69.6579 543.274 69.5553 543.37 69.4277C543.466 69.2956 543.513 69.1452 543.513 68.9766ZM549.833 71.1367C549.273 71.1367 548.769 71.0456 548.323 70.8633C547.876 70.681 547.496 70.4281 547.181 70.1045C546.871 69.7764 546.632 69.3958 546.463 68.9629C546.299 68.5254 546.217 68.056 546.217 67.5547V67.2812C546.217 66.7116 546.299 66.1943 546.463 65.7295C546.627 65.2601 546.86 64.8568 547.161 64.5195C547.461 64.1823 547.821 63.9225 548.241 63.7402C548.66 63.5579 549.123 63.4668 549.628 63.4668C550.152 63.4668 550.615 63.5557 551.016 63.7334C551.417 63.9066 551.752 64.1527 552.021 64.4717C552.29 64.7907 552.493 65.1735 552.629 65.6201C552.766 66.0622 552.834 66.5521 552.834 67.0898V67.8486H547.038V66.6045H551.057V66.4678C551.048 66.1807 550.993 65.9186 550.893 65.6816C550.793 65.4401 550.638 65.2487 550.428 65.1074C550.219 64.9616 549.947 64.8887 549.615 64.8887C549.346 64.8887 549.111 64.9479 548.911 65.0664C548.715 65.1803 548.551 65.3444 548.418 65.5586C548.291 65.7682 548.195 66.0189 548.131 66.3105C548.067 66.6022 548.036 66.9258 548.036 67.2812V67.5547C548.036 67.8646 548.077 68.1517 548.159 68.416C548.245 68.6803 548.371 68.9105 548.535 69.1064C548.703 69.2979 548.904 69.4482 549.136 69.5576C549.373 69.6624 549.642 69.7148 549.943 69.7148C550.321 69.7148 550.663 69.6419 550.968 69.4961C551.278 69.3457 551.547 69.1247 551.775 68.833L552.684 69.7764C552.529 70.0042 552.319 70.223 552.055 70.4326C551.795 70.6423 551.481 70.8132 551.112 70.9453C550.743 71.0729 550.317 71.1367 549.833 71.1367ZM559.418 70.1797L561.4 63.6035H563.335L560.368 72.1211C560.3 72.3034 560.211 72.5016 560.101 72.7158C559.996 72.93 559.855 73.1328 559.677 73.3242C559.5 73.5202 559.276 73.6797 559.008 73.8027C558.743 73.9258 558.422 73.9873 558.044 73.9873C557.88 73.9873 557.734 73.9759 557.606 73.9531C557.479 73.9303 557.344 73.9007 557.203 73.8643V72.5107C557.248 72.5153 557.301 72.5176 557.36 72.5176C557.424 72.5221 557.479 72.5244 557.524 72.5244C557.788 72.5244 558.007 72.4925 558.18 72.4287C558.354 72.3695 558.493 72.2715 558.597 72.1348C558.707 72.0026 558.798 71.8294 558.871 71.6152L559.418 70.1797ZM558.44 63.6035L560.115 69.0518L560.409 70.959L559.165 71.1846L556.492 63.6035H558.44ZM563.639 67.377V67.2334C563.639 66.6911 563.716 66.1921 563.871 65.7363C564.026 65.276 564.252 64.8773 564.548 64.54C564.844 64.2028 565.207 63.9408 565.635 63.7539C566.064 63.5625 566.551 63.4668 567.098 63.4668C567.654 63.4668 568.146 63.5625 568.575 63.7539C569.008 63.9408 569.372 64.2028 569.668 64.54C569.965 64.8773 570.19 65.276 570.345 65.7363C570.5 66.1921 570.577 66.6911 570.577 67.2334V67.377C570.577 67.9147 570.5 68.4137 570.345 68.874C570.19 69.3298 569.965 69.7285 569.668 70.0703C569.372 70.4076 569.01 70.6696 568.581 70.8564C568.153 71.0433 567.663 71.1367 567.112 71.1367C566.565 71.1367 566.075 71.0433 565.642 70.8564C565.209 70.6696 564.844 70.4076 564.548 70.0703C564.252 69.7285 564.026 69.3298 563.871 68.874C563.716 68.4137 563.639 67.9147 563.639 67.377ZM565.444 67.2334V67.377C565.444 67.7005 565.476 68.0036 565.539 68.2861C565.603 68.5687 565.701 68.8171 565.833 69.0312C565.966 69.2454 566.136 69.4141 566.346 69.5371C566.56 69.6556 566.815 69.7148 567.112 69.7148C567.403 69.7148 567.654 69.6556 567.864 69.5371C568.073 69.4141 568.244 69.2454 568.376 69.0312C568.513 68.8171 568.613 68.5687 568.677 68.2861C568.741 68.0036 568.773 67.7005 568.773 67.377V67.2334C568.773 66.9144 568.741 66.6159 568.677 66.3379C568.613 66.0553 568.513 65.807 568.376 65.5928C568.244 65.374 568.071 65.2031 567.857 65.0801C567.647 64.9525 567.394 64.8887 567.098 64.8887C566.806 64.8887 566.556 64.9525 566.346 65.0801C566.136 65.2031 565.966 65.374 565.833 65.5928C565.701 65.807 565.603 66.0553 565.539 66.3379C565.476 66.6159 565.444 66.9144 565.444 67.2334ZM576.152 69.2432V63.6035H577.971V71H576.262L576.152 69.2432ZM576.385 67.7119L576.945 67.6982C576.945 68.195 576.891 68.653 576.781 69.0723C576.672 69.4915 576.501 69.8561 576.269 70.166C576.041 70.4714 575.751 70.7106 575.4 70.8838C575.049 71.0524 574.635 71.1367 574.156 71.1367C573.792 71.1367 573.459 71.0866 573.158 70.9863C572.857 70.8815 572.598 70.7197 572.379 70.501C572.165 70.2777 571.998 69.9928 571.88 69.6465C571.761 69.2956 571.702 68.874 571.702 68.3818V63.6035H573.507V68.3955C573.507 68.6416 573.534 68.8467 573.589 69.0107C573.648 69.1748 573.728 69.3092 573.828 69.4141C573.933 69.5143 574.054 69.5872 574.19 69.6328C574.332 69.6738 574.482 69.6943 574.642 69.6943C575.079 69.6943 575.423 69.6077 575.674 69.4346C575.929 69.2568 576.111 69.0199 576.221 68.7236C576.33 68.4229 576.385 68.0856 576.385 67.7119ZM581.235 65.1143V71H579.43V63.6035H581.139L581.235 65.1143ZM583.484 63.5557L583.457 65.2373C583.356 65.2191 583.242 65.2054 583.115 65.1963C582.992 65.1872 582.876 65.1826 582.766 65.1826C582.488 65.1826 582.244 65.2214 582.035 65.2988C581.825 65.3717 581.65 65.4788 581.508 65.6201C581.372 65.7614 581.267 65.9346 581.194 66.1396C581.121 66.3402 581.08 66.568 581.071 66.8232L580.681 66.7754C580.681 66.306 580.729 65.8708 580.825 65.4697C580.921 65.0687 581.06 64.7178 581.242 64.417C581.424 64.1162 581.652 63.8838 581.925 63.7197C582.203 63.5511 582.522 63.4668 582.882 63.4668C582.983 63.4668 583.09 63.4759 583.204 63.4941C583.322 63.5078 583.416 63.5283 583.484 63.5557ZM587.675 60.5H589.486V69.3662L589.309 71H587.675V60.5ZM594.244 67.2266V67.3701C594.244 67.9215 594.183 68.4274 594.059 68.8877C593.941 69.348 593.761 69.7467 593.519 70.084C593.278 70.4167 592.977 70.6764 592.617 70.8633C592.262 71.0456 591.845 71.1367 591.366 71.1367C590.91 71.1367 590.514 71.0479 590.177 70.8701C589.844 70.6924 589.564 70.4417 589.336 70.1182C589.108 69.79 588.926 69.4049 588.789 68.9629C588.652 68.5163 588.55 68.0286 588.481 67.5V67.1104C588.55 66.5771 588.652 66.0895 588.789 65.6475C588.926 65.2054 589.108 64.8203 589.336 64.4922C589.564 64.1641 589.844 63.9111 590.177 63.7334C590.509 63.5557 590.901 63.4668 591.352 63.4668C591.836 63.4668 592.257 63.5602 592.617 63.7471C592.982 63.9294 593.282 64.1891 593.519 64.5264C593.761 64.859 593.941 65.2555 594.059 65.7158C594.183 66.1715 594.244 66.6751 594.244 67.2266ZM592.433 67.3701V67.2266C592.433 66.9121 592.407 66.6159 592.357 66.3379C592.307 66.0553 592.225 65.807 592.111 65.5928C591.997 65.3786 591.842 65.21 591.646 65.0869C591.45 64.9639 591.204 64.9023 590.908 64.9023C590.626 64.9023 590.384 64.9502 590.184 65.0459C589.988 65.1416 589.823 65.2738 589.691 65.4424C589.564 65.611 589.463 65.8092 589.391 66.0371C589.322 66.265 589.277 66.5111 589.254 66.7754V67.8418C589.286 68.1927 589.361 68.5094 589.479 68.792C589.598 69.07 589.773 69.291 590.006 69.4551C590.243 69.6191 590.548 69.7012 590.922 69.7012C591.213 69.7012 591.457 69.6442 591.653 69.5303C591.849 69.4118 592.004 69.2477 592.118 69.0381C592.232 68.8239 592.312 68.5755 592.357 68.293C592.407 68.0104 592.433 67.7028 592.433 67.3701ZM597.221 65.1143V71H595.417V63.6035H597.126L597.221 65.1143ZM599.47 63.5557L599.443 65.2373C599.343 65.2191 599.229 65.2054 599.101 65.1963C598.978 65.1872 598.862 65.1826 598.753 65.1826C598.475 65.1826 598.231 65.2214 598.021 65.2988C597.811 65.3717 597.636 65.4788 597.495 65.6201C597.358 65.7614 597.253 65.9346 597.18 66.1396C597.107 66.3402 597.066 66.568 597.057 66.8232L596.668 66.7754C596.668 66.306 596.715 65.8708 596.811 65.4697C596.907 65.0687 597.046 64.7178 597.228 64.417C597.41 64.1162 597.638 63.8838 597.912 63.7197C598.19 63.5511 598.509 63.4668 598.869 63.4668C598.969 63.4668 599.076 63.4759 599.19 63.4941C599.308 63.5078 599.402 63.5283 599.47 63.5557ZM604.163 69.4277V66.0166C604.163 65.766 604.12 65.5495 604.033 65.3672C603.947 65.1849 603.815 65.0436 603.637 64.9434C603.459 64.8431 603.234 64.793 602.96 64.793C602.719 64.793 602.507 64.834 602.324 64.916C602.147 64.998 602.01 65.1143 601.914 65.2646C601.819 65.4105 601.771 65.5791 601.771 65.7705H599.959C599.959 65.4652 600.032 65.1758 600.178 64.9023C600.324 64.6243 600.531 64.3783 600.8 64.1641C601.073 63.9453 601.399 63.7744 601.778 63.6514C602.16 63.5283 602.589 63.4668 603.063 63.4668C603.623 63.4668 604.122 63.5625 604.56 63.7539C605.002 63.9408 605.348 64.2233 605.599 64.6016C605.854 64.9798 605.982 65.4561 605.982 66.0303V69.2568C605.982 69.626 606.004 69.9427 606.05 70.207C606.1 70.4668 606.173 70.6924 606.269 70.8838V71H604.43C604.343 70.8132 604.277 70.5762 604.232 70.2891C604.186 69.9974 604.163 69.7103 604.163 69.4277ZM604.416 66.4951L604.43 67.5684H603.288C603.006 67.5684 602.757 67.598 602.543 67.6572C602.329 67.7119 602.154 67.7939 602.017 67.9033C601.88 68.0081 601.778 68.1357 601.709 68.2861C601.641 68.432 601.607 68.5983 601.607 68.7852C601.607 68.9674 601.648 69.1315 601.73 69.2773C601.816 69.4232 601.939 69.5394 602.099 69.626C602.263 69.708 602.454 69.749 602.673 69.749C602.992 69.749 603.27 69.6852 603.507 69.5576C603.744 69.4255 603.929 69.266 604.061 69.0791C604.193 68.8923 604.264 68.7145 604.273 68.5459L604.792 69.3252C604.728 69.512 604.633 69.7103 604.505 69.9199C604.377 70.1296 604.213 70.3255 604.013 70.5078C603.812 70.6901 603.571 70.8405 603.288 70.959C603.006 71.0775 602.678 71.1367 602.304 71.1367C601.825 71.1367 601.397 71.041 601.019 70.8496C600.64 70.6582 600.342 70.3962 600.123 70.0635C599.904 69.7308 599.795 69.3525 599.795 68.9287C599.795 68.5368 599.868 68.1904 600.014 67.8896C600.16 67.5889 600.376 67.3359 600.663 67.1309C600.95 66.9212 601.306 66.764 601.73 66.6592C602.158 66.5498 602.648 66.4951 603.199 66.4951H604.416ZM609.239 65.1826V71H607.434V63.6035H609.13L609.239 65.1826ZM608.952 67.0352H608.419C608.423 66.4974 608.496 66.0098 608.638 65.5723C608.779 65.1348 608.977 64.7588 609.232 64.4443C609.492 64.1299 609.8 63.8883 610.155 63.7197C610.511 63.5511 610.907 63.4668 611.345 63.4668C611.7 63.4668 612.021 63.5169 612.308 63.6172C612.596 63.7174 612.842 63.877 613.047 64.0957C613.256 64.3145 613.416 64.6016 613.525 64.957C613.639 65.3079 613.696 65.7409 613.696 66.2559V71H611.878V66.2422C611.878 65.9049 611.828 65.6383 611.727 65.4424C611.632 65.2464 611.49 65.1074 611.304 65.0254C611.121 64.9434 610.896 64.9023 610.627 64.9023C610.349 64.9023 610.105 64.9593 609.895 65.0732C609.69 65.1826 609.517 65.3353 609.376 65.5312C609.239 65.7272 609.134 65.9528 609.061 66.208C608.988 66.4632 608.952 66.7389 608.952 67.0352ZM619.585 69.4277V60.5H621.404V71H619.763L619.585 69.4277ZM614.834 67.3906V67.2471C614.834 66.682 614.898 66.1693 615.026 65.709C615.158 65.2441 615.349 64.8454 615.6 64.5127C615.851 64.18 616.154 63.9225 616.509 63.7402C616.869 63.5579 617.277 63.4668 617.733 63.4668C618.175 63.4668 618.56 63.5557 618.888 63.7334C619.221 63.9111 619.503 64.1641 619.736 64.4922C619.973 64.8203 620.162 65.21 620.303 65.6611C620.444 66.1077 620.547 66.5999 620.611 67.1377V67.5273C620.547 68.0514 620.444 68.5322 620.303 68.9697C620.162 69.4072 619.973 69.79 619.736 70.1182C619.503 70.4417 619.221 70.6924 618.888 70.8701C618.555 71.0479 618.166 71.1367 617.719 71.1367C617.268 71.1367 616.862 71.0433 616.502 70.8564C616.147 70.6696 615.844 70.4076 615.593 70.0703C615.347 69.7331 615.158 69.3366 615.026 68.8809C614.898 68.4251 614.834 67.9284 614.834 67.3906ZM616.646 67.2471V67.3906C616.646 67.7096 616.673 68.0081 616.728 68.2861C616.783 68.5641 616.872 68.8102 616.995 69.0244C617.118 69.234 617.275 69.3981 617.466 69.5166C617.662 69.6351 617.899 69.6943 618.177 69.6943C618.533 69.6943 618.824 69.6169 619.052 69.4619C619.285 69.3024 619.465 69.0859 619.592 68.8125C619.72 68.5345 619.802 68.2223 619.838 67.876V66.8027C619.82 66.5293 619.772 66.2764 619.695 66.0439C619.622 65.8115 619.517 65.611 619.38 65.4424C619.248 65.2738 619.084 65.1416 618.888 65.0459C618.692 64.9502 618.46 64.9023 618.191 64.9023C617.913 64.9023 617.676 64.9639 617.48 65.0869C617.284 65.2054 617.124 65.3717 617.001 65.5859C616.878 65.8001 616.787 66.0485 616.728 66.3311C616.673 66.6136 616.646 66.9189 616.646 67.2471ZM628.014 60.5V71H626.203V60.5H628.014ZM627.727 67.0352H627.194C627.194 66.5202 627.262 66.0462 627.399 65.6133C627.536 65.1803 627.73 64.8044 627.98 64.4854C628.231 64.1618 628.529 63.9111 628.876 63.7334C629.227 63.5557 629.614 63.4668 630.038 63.4668C630.402 63.4668 630.733 63.5192 631.029 63.624C631.33 63.7243 631.587 63.8861 631.802 64.1094C632.016 64.3327 632.18 64.6243 632.294 64.9844C632.412 65.3398 632.471 65.7728 632.471 66.2832V71H630.653V66.2695C630.653 65.9277 630.603 65.6589 630.503 65.4629C630.402 65.2624 630.259 65.1188 630.072 65.0322C629.89 64.9456 629.664 64.9023 629.395 64.9023C629.104 64.9023 628.853 64.9593 628.643 65.0732C628.434 65.1826 628.26 65.3353 628.124 65.5312C627.992 65.7272 627.891 65.9528 627.823 66.208C627.759 66.4632 627.727 66.7389 627.727 67.0352ZM637.246 71.1367C636.686 71.1367 636.182 71.0456 635.736 70.8633C635.289 70.681 634.909 70.4281 634.594 70.1045C634.284 69.7764 634.045 69.3958 633.876 68.9629C633.712 68.5254 633.63 68.056 633.63 67.5547V67.2812C633.63 66.7116 633.712 66.1943 633.876 65.7295C634.04 65.2601 634.273 64.8568 634.574 64.5195C634.874 64.1823 635.234 63.9225 635.654 63.7402C636.073 63.5579 636.536 63.4668 637.041 63.4668C637.566 63.4668 638.028 63.5557 638.429 63.7334C638.83 63.9066 639.165 64.1527 639.434 64.4717C639.703 64.7907 639.906 65.1735 640.042 65.6201C640.179 66.0622 640.247 66.5521 640.247 67.0898V67.8486H634.451V66.6045H638.47V66.4678C638.461 66.1807 638.406 65.9186 638.306 65.6816C638.206 65.4401 638.051 65.2487 637.841 65.1074C637.632 64.9616 637.36 64.8887 637.028 64.8887C636.759 64.8887 636.524 64.9479 636.324 65.0664C636.128 65.1803 635.964 65.3444 635.831 65.5586C635.704 65.7682 635.608 66.0189 635.544 66.3105C635.481 66.6022 635.449 66.9258 635.449 67.2812V67.5547C635.449 67.8646 635.49 68.1517 635.572 68.416C635.658 68.6803 635.784 68.9105 635.948 69.1064C636.116 69.2979 636.317 69.4482 636.549 69.5576C636.786 69.6624 637.055 69.7148 637.356 69.7148C637.734 69.7148 638.076 69.6419 638.381 69.4961C638.691 69.3457 638.96 69.1247 639.188 68.833L640.097 69.7764C639.942 70.0042 639.732 70.223 639.468 70.4326C639.208 70.6423 638.894 70.8132 638.525 70.9453C638.156 71.0729 637.73 71.1367 637.246 71.1367ZM643.122 65.1143V71H641.317V63.6035H643.026L643.122 65.1143ZM645.371 63.5557L645.344 65.2373C645.244 65.2191 645.13 65.2054 645.002 65.1963C644.879 65.1872 644.763 65.1826 644.653 65.1826C644.375 65.1826 644.132 65.2214 643.922 65.2988C643.712 65.3717 643.537 65.4788 643.396 65.6201C643.259 65.7614 643.154 65.9346 643.081 66.1396C643.008 66.3402 642.967 66.568 642.958 66.8232L642.568 66.7754C642.568 66.306 642.616 65.8708 642.712 65.4697C642.808 65.0687 642.947 64.7178 643.129 64.417C643.311 64.1162 643.539 63.8838 643.813 63.7197C644.091 63.5511 644.41 63.4668 644.77 63.4668C644.87 63.4668 644.977 63.4759 645.091 63.4941C645.209 63.5078 645.303 63.5283 645.371 63.5557ZM649.408 71.1367C648.847 71.1367 648.344 71.0456 647.897 70.8633C647.451 70.681 647.07 70.4281 646.756 70.1045C646.446 69.7764 646.206 69.3958 646.038 68.9629C645.874 68.5254 645.792 68.056 645.792 67.5547V67.2812C645.792 66.7116 645.874 66.1943 646.038 65.7295C646.202 65.2601 646.434 64.8568 646.735 64.5195C647.036 64.1823 647.396 63.9225 647.815 63.7402C648.234 63.5579 648.697 63.4668 649.203 63.4668C649.727 63.4668 650.189 63.5557 650.591 63.7334C650.992 63.9066 651.327 64.1527 651.595 64.4717C651.864 64.7907 652.067 65.1735 652.204 65.6201C652.341 66.0622 652.409 66.5521 652.409 67.0898V67.8486H646.612V66.6045H650.632V66.4678C650.622 66.1807 650.568 65.9186 650.467 65.6816C650.367 65.4401 650.212 65.2487 650.003 65.1074C649.793 64.9616 649.522 64.8887 649.189 64.8887C648.92 64.8887 648.686 64.9479 648.485 65.0664C648.289 65.1803 648.125 65.3444 647.993 65.5586C647.865 65.7682 647.77 66.0189 647.706 66.3105C647.642 66.6022 647.61 66.9258 647.61 67.2812V67.5547C647.61 67.8646 647.651 68.1517 647.733 68.416C647.82 68.6803 647.945 68.9105 648.109 69.1064C648.278 69.2979 648.478 69.4482 648.711 69.5576C648.948 69.6624 649.216 69.7148 649.517 69.7148C649.896 69.7148 650.237 69.6419 650.543 69.4961C650.853 69.3457 651.121 69.1247 651.349 68.833L652.258 69.7764C652.104 70.0042 651.894 70.223 651.63 70.4326C651.37 70.6423 651.055 70.8132 650.686 70.9453C650.317 71.0729 649.891 71.1367 649.408 71.1367Z" fill="white" style="fill:white;fill:white;fill-opacity:1;"/>
<rect x="663" y="57" width="44" height="18" rx="3" fill="white" style="fill:white;fill:white;fill-opacity:1;"/>
<path d="M671.223 66.5307C671.223 66.4394 671.208 66.3583 671.178 66.2874C671.15 66.2164 671.099 66.1515 671.025 66.0928C670.952 66.034 670.848 65.9772 670.714 65.9225C670.582 65.8657 670.413 65.8079 670.207 65.7491C669.982 65.6842 669.775 65.6123 669.584 65.5332C669.396 65.4521 669.231 65.3588 669.091 65.2534C668.95 65.146 668.841 65.0233 668.763 64.8855C668.685 64.7456 668.646 64.5844 668.646 64.4019C668.646 64.2215 668.686 64.0573 668.766 63.9093C668.848 63.7613 668.964 63.6336 669.114 63.5261C669.265 63.4166 669.444 63.3325 669.649 63.2737C669.855 63.2129 670.082 63.1825 670.331 63.1825C670.681 63.1825 670.983 63.2433 671.236 63.3649C671.492 63.4866 671.688 63.6498 671.824 63.8545C671.962 64.0593 672.032 64.2854 672.032 64.5327H671.223C671.223 64.3867 671.19 64.258 671.123 64.1465C671.058 64.0329 670.958 63.9437 670.824 63.8789C670.692 63.814 670.524 63.7816 670.321 63.7816C670.128 63.7816 669.968 63.8089 669.841 63.8637C669.713 63.9184 669.618 63.9924 669.555 64.0857C669.492 64.1789 669.461 64.2843 669.461 64.4019C669.461 64.485 669.481 64.5611 669.523 64.63C669.564 64.6969 669.626 64.7598 669.711 64.8186C669.795 64.8753 669.901 64.929 670.029 64.9797C670.157 65.0304 670.307 65.0791 670.48 65.1257C670.742 65.1987 670.97 65.2798 671.165 65.369C671.36 65.4562 671.522 65.5555 671.652 65.667C671.782 65.7785 671.879 65.9052 671.944 66.0471C672.009 66.187 672.041 66.3462 672.041 66.5246C672.041 66.7111 672.001 66.8794 671.921 67.0294C671.841 67.1774 671.727 67.3041 671.577 67.4095C671.43 67.5129 671.253 67.593 671.045 67.6498C670.839 67.7045 670.61 67.7319 670.357 67.7319C670.13 67.7319 669.906 67.7035 669.685 67.6467C669.466 67.59 669.267 67.5038 669.088 67.3882C668.908 67.2707 668.765 67.1247 668.659 66.9503C668.553 66.7739 668.5 66.5682 668.5 66.333H669.315C669.315 66.4769 669.341 66.5996 669.393 66.701C669.447 66.8023 669.521 66.8855 669.617 66.9503C669.712 67.0132 669.822 67.0598 669.948 67.0902C670.075 67.1206 670.212 67.1358 670.357 67.1358C670.547 67.1358 670.706 67.1105 670.834 67.0598C670.964 67.0091 671.061 66.9382 671.126 66.8469C671.191 66.7557 671.223 66.6503 671.223 66.5307Z" fill="#1F2937" style="fill:#1F2937;fill:color(display-p3 0.1216 0.1608 0.2157);fill-opacity:1;"/>
<path d="M674.228 64.3806V64.9159H672.248V64.3806H674.228ZM672.819 63.5748H673.601V66.7618C673.601 66.8632 673.616 66.9412 673.647 66.9959C673.679 67.0487 673.724 67.0841 673.78 67.1024C673.836 67.1206 673.902 67.1298 673.978 67.1298C674.032 67.1298 674.084 67.1267 674.134 67.1206C674.183 67.1145 674.223 67.1085 674.254 67.1024L674.257 67.6619C674.192 67.6802 674.116 67.6964 674.03 67.7106C673.945 67.7248 673.848 67.7319 673.738 67.7319C673.558 67.7319 673.399 67.7025 673.26 67.6437C673.122 67.5829 673.014 67.4845 672.936 67.3487C672.858 67.2129 672.819 67.0324 672.819 66.8074V63.5748Z" fill="#1F2937" style="fill:#1F2937;fill:color(display-p3 0.1216 0.1608 0.2157);fill-opacity:1;"/>
<path d="M676.745 67.0112V65.442C676.745 65.3244 676.722 65.223 676.677 65.1379C676.631 65.0527 676.562 64.9868 676.469 64.9402C676.378 64.8936 676.264 64.8702 676.125 64.8702C675.997 64.8702 675.887 64.8905 675.794 64.9311C675.701 64.9716 675.628 65.0264 675.577 65.0953C675.525 65.1642 675.499 65.2423 675.499 65.3294H674.72C674.72 65.1997 674.753 65.074 674.82 64.9524C674.887 64.8307 674.985 64.7223 675.112 64.627C675.24 64.5317 675.393 64.4567 675.57 64.4019C675.747 64.3472 675.947 64.3198 676.167 64.3198C676.431 64.3198 676.665 64.3614 676.868 64.4445C677.074 64.5276 677.235 64.6533 677.352 64.8216C677.471 64.9878 677.531 65.1967 677.531 65.448V66.9108C677.531 67.0608 677.541 67.1956 677.563 67.3153C677.587 67.4328 677.62 67.5352 677.664 67.6224V67.6711H676.862C676.825 67.592 676.796 67.4916 676.774 67.37C676.755 67.2463 676.745 67.1267 676.745 67.0112ZM676.859 65.67L676.865 66.1232H676.304C676.159 66.1232 676.031 66.1363 675.921 66.1627C675.81 66.187 675.718 66.2235 675.645 66.2722C675.571 66.3208 675.516 66.3796 675.479 66.4486C675.442 66.5175 675.424 66.5955 675.424 66.6827C675.424 66.7699 675.446 66.85 675.489 66.923C675.532 66.9939 675.595 67.0497 675.677 67.0902C675.762 67.1308 675.863 67.151 675.982 67.151C676.142 67.151 676.282 67.1206 676.401 67.0598C676.522 66.997 676.617 66.9209 676.687 66.8317C676.756 66.7405 676.793 66.6543 676.797 66.5732L677.05 66.8986C677.024 66.9818 676.98 67.071 676.917 67.1662C676.854 67.2615 676.772 67.3528 676.67 67.4399C676.571 67.5251 676.451 67.595 676.31 67.6498C676.172 67.7045 676.011 67.7319 675.83 67.7319C675.6 67.7319 675.396 67.6893 675.216 67.6042C675.037 67.517 674.896 67.4004 674.794 67.2544C674.693 67.1064 674.642 66.9392 674.642 66.7527C674.642 66.5783 674.676 66.4242 674.746 66.2904C674.817 66.1546 674.921 66.0411 675.057 65.9498C675.196 65.8586 675.364 65.7897 675.564 65.743C675.763 65.6944 675.99 65.67 676.245 65.67H676.859Z" fill="#1F2937" style="fill:#1F2937;fill:color(display-p3 0.1216 0.1608 0.2157);fill-opacity:1;"/>
<path d="M679.068 65.0071V67.6711H678.285V64.3806H679.032L679.068 65.0071ZM680.142 64.3594L680.136 65.0405C680.088 65.0324 680.036 65.0264 679.98 65.0223C679.926 65.0182 679.872 65.0162 679.818 65.0162C679.683 65.0162 679.565 65.0345 679.464 65.071C679.362 65.1054 679.277 65.1561 679.207 65.223C679.14 65.2879 679.088 65.367 679.051 65.4602C679.015 65.5535 678.993 65.6579 678.987 65.7734L678.808 65.7856C678.808 65.5788 678.83 65.3872 678.873 65.2108C678.916 65.0345 678.981 64.8794 679.068 64.7456C679.156 64.6118 679.267 64.5073 679.399 64.4323C679.533 64.3573 679.688 64.3198 679.863 64.3198C679.911 64.3198 679.961 64.3239 680.016 64.332C680.072 64.3401 680.114 64.3492 680.142 64.3594Z" fill="#1F2937" style="fill:#1F2937;fill:color(display-p3 0.1216 0.1608 0.2157);fill-opacity:1;"/>
<path d="M682.338 64.3806V64.9159H680.358V64.3806H682.338ZM680.929 63.5748H681.712V66.7618C681.712 66.8632 681.727 66.9412 681.757 66.9959C681.79 67.0487 681.834 67.0841 681.89 67.1024C681.946 67.1206 682.012 67.1298 682.088 67.1298C682.142 67.1298 682.194 67.1267 682.244 67.1206C682.294 67.1145 682.334 67.1085 682.364 67.1024L682.367 67.6619C682.302 67.6802 682.227 67.6964 682.14 67.7106C682.056 67.7248 681.958 67.7319 681.848 67.7319C681.668 67.7319 681.509 67.7025 681.371 67.6437C681.232 67.5829 681.124 67.4845 681.046 67.3487C680.968 67.2129 680.929 67.0324 680.929 66.8074V63.5748Z" fill="#1F2937" style="fill:#1F2937;fill:color(display-p3 0.1216 0.1608 0.2157);fill-opacity:1;"/>
<path d="M686.331 63.2433V67.6711H685.523V63.2433H686.331ZM687.814 63.2433V63.8515H684.052V63.2433H687.814Z" fill="#1F2937" style="fill:#1F2937;fill:color(display-p3 0.1216 0.1608 0.2157);fill-opacity:1;"/>
<path d="M687.689 66.0623V65.9924C687.689 65.7552 687.726 65.5352 687.8 65.3325C687.873 65.1277 687.979 64.9503 688.118 64.8003C688.259 64.6483 688.43 64.5307 688.631 64.4475C688.834 64.3624 689.064 64.3198 689.319 64.3198C689.577 64.3198 689.806 64.3624 690.007 64.4475C690.211 64.5307 690.383 64.6483 690.523 64.8003C690.664 64.9503 690.771 65.1277 690.845 65.3325C690.918 65.5352 690.955 65.7552 690.955 65.9924V66.0623C690.955 66.2995 690.918 66.5195 690.845 66.7223C690.771 66.925 690.664 67.1024 690.523 67.2544C690.383 67.4045 690.212 67.522 690.01 67.6072C689.809 67.6903 689.581 67.7319 689.325 67.7319C689.068 67.7319 688.838 67.6903 688.634 67.6072C688.433 67.522 688.262 67.4045 688.121 67.2544C687.981 67.1024 687.873 66.925 687.8 66.7223C687.726 66.5195 687.689 66.2995 687.689 66.0623ZM688.472 65.9924V66.0623C688.472 66.2103 688.488 66.3502 688.52 66.482C688.553 66.6138 688.604 66.7293 688.673 66.8287C688.742 66.928 688.831 67.0061 688.939 67.0628C689.047 67.1196 689.176 67.148 689.325 67.148C689.47 67.148 689.596 67.1196 689.702 67.0628C689.81 67.0061 689.899 66.928 689.968 66.8287C690.037 66.7293 690.088 66.6138 690.121 66.482C690.155 66.3502 690.173 66.2103 690.173 66.0623V65.9924C690.173 65.8464 690.155 65.7086 690.121 65.5788C690.088 65.447 690.036 65.3305 689.965 65.2291C689.896 65.1277 689.807 65.0487 689.699 64.9919C689.593 64.9331 689.466 64.9037 689.319 64.9037C689.172 64.9037 689.044 64.9331 688.936 64.9919C688.83 65.0487 688.742 65.1277 688.673 65.2291C688.604 65.3305 688.553 65.447 688.52 65.5788C688.488 65.7086 688.472 65.8464 688.472 65.9924Z" fill="#1F2937" style="fill:#1F2937;fill:color(display-p3 0.1216 0.1608 0.2157);fill-opacity:1;"/>
<path d="M693.687 66.9899V63H694.472V67.6711H693.761L693.687 66.9899ZM691.401 66.0623V65.9985C691.401 65.7491 691.433 65.522 691.496 65.3173C691.558 65.1105 691.649 64.9331 691.768 64.7851C691.887 64.6351 692.032 64.5205 692.203 64.4415C692.374 64.3604 692.567 64.3198 692.781 64.3198C692.993 64.3198 693.179 64.3583 693.339 64.4354C693.499 64.5124 693.636 64.6229 693.748 64.7669C693.861 64.9088 693.951 65.0791 694.018 65.2777C694.085 65.4744 694.132 65.6934 694.161 65.9346V66.1384C694.132 66.3735 694.085 66.5884 694.018 66.7831C693.951 66.9777 693.861 67.146 693.748 67.2879C693.636 67.4298 693.498 67.5393 693.336 67.6163C693.176 67.6934 692.989 67.7319 692.774 67.7319C692.562 67.7319 692.371 67.6903 692.2 67.6072C692.031 67.5241 691.887 67.4075 691.768 67.2575C691.649 67.1075 691.558 66.9311 691.496 66.7283C691.433 66.5236 691.401 66.3016 691.401 66.0623ZM692.184 65.9985V66.0623C692.184 66.2124 692.198 66.3523 692.226 66.482C692.256 66.6118 692.303 66.7263 692.365 66.8256C692.428 66.923 692.509 67 692.609 67.0568C692.711 67.1115 692.832 67.1389 692.972 67.1389C693.15 67.1389 693.296 67.1024 693.411 67.0294C693.525 66.9564 693.615 66.8581 693.68 66.7344C693.747 66.6087 693.793 66.4688 693.816 66.3147V65.7643C693.803 65.6447 693.776 65.5332 693.735 65.4298C693.696 65.3264 693.643 65.2362 693.576 65.1591C693.509 65.0801 693.426 65.0193 693.326 64.9767C693.229 64.9321 693.113 64.9098 692.979 64.9098C692.836 64.9098 692.715 64.9382 692.615 64.9949C692.516 65.0517 692.434 65.1298 692.369 65.2291C692.306 65.3284 692.259 65.444 692.229 65.5758C692.199 65.7076 692.184 65.8485 692.184 65.9985Z" fill="#1F2937" style="fill:#1F2937;fill:color(display-p3 0.1216 0.1608 0.2157);fill-opacity:1;"/>
<path d="M697.204 67.0112V65.442C697.204 65.3244 697.181 65.223 697.136 65.1379C697.09 65.0527 697.021 64.9868 696.928 64.9402C696.837 64.8936 696.722 64.8702 696.584 64.8702C696.456 64.8702 696.346 64.8905 696.253 64.9311C696.16 64.9716 696.087 65.0264 696.035 65.0953C695.983 65.1642 695.957 65.2423 695.957 65.3294H695.178C695.178 65.1997 695.212 65.074 695.279 64.9524C695.346 64.8307 695.443 64.7223 695.571 64.627C695.699 64.5317 695.851 64.4567 696.029 64.4019C696.206 64.3472 696.405 64.3198 696.626 64.3198C696.89 64.3198 697.124 64.3614 697.327 64.4445C697.533 64.5276 697.694 64.6533 697.811 64.8216C697.93 64.9878 697.989 65.1967 697.989 65.448V66.9108C697.989 67.0608 698 67.1956 698.022 67.3153C698.046 67.4328 698.079 67.5352 698.122 67.6224V67.6711H697.321C697.284 67.592 697.255 67.4916 697.233 67.37C697.214 67.2463 697.204 67.1267 697.204 67.0112ZM697.317 65.67L697.324 66.1232H696.762C696.617 66.1232 696.49 66.1363 696.379 66.1627C696.269 66.187 696.177 66.2235 696.103 66.2722C696.03 66.3208 695.975 66.3796 695.938 66.4486C695.901 66.5175 695.883 66.5955 695.883 66.6827C695.883 66.7699 695.904 66.85 695.948 66.923C695.991 66.9939 696.054 67.0497 696.136 67.0902C696.22 67.1308 696.322 67.151 696.441 67.151C696.601 67.151 696.741 67.1206 696.86 67.0598C696.981 66.997 697.076 66.9209 697.145 66.8317C697.215 66.7405 697.251 66.6543 697.256 66.5732L697.509 66.8986C697.483 66.9818 697.439 67.071 697.376 67.1662C697.313 67.2615 697.231 67.3528 697.129 67.4399C697.03 67.5251 696.909 67.595 696.769 67.6498C696.63 67.7045 696.47 67.7319 696.288 67.7319C696.059 67.7319 695.855 67.6893 695.675 67.6042C695.495 67.517 695.355 67.4004 695.253 67.2544C695.151 67.1064 695.1 66.9392 695.1 66.7527C695.1 66.5783 695.135 66.4242 695.204 66.2904C695.276 66.1546 695.38 66.0411 695.516 65.9498C695.654 65.8586 695.823 65.7897 696.022 65.743C696.221 65.6944 696.449 65.67 696.704 65.67H697.317Z" fill="#1F2937" style="fill:#1F2937;fill:color(display-p3 0.1216 0.1608 0.2157);fill-opacity:1;"/>
<path d="M699.708 67.3122L700.663 64.3806H701.5L700.091 68.1728C700.059 68.2539 700.017 68.3421 699.965 68.4374C699.913 68.5327 699.845 68.6229 699.76 68.7081C699.678 68.7952 699.575 68.8652 699.452 68.9179C699.328 68.9726 699.179 69 699.004 69C698.935 69 698.867 68.9939 698.803 68.9818C698.74 68.9716 698.68 68.9605 698.624 68.9483L698.621 68.3887C698.642 68.3908 698.668 68.3928 698.699 68.3948C698.731 68.3969 698.757 68.3979 698.777 68.3979C698.906 68.3979 699.015 68.3827 699.101 68.3523C699.188 68.3239 699.258 68.2772 699.312 68.2124C699.368 68.1475 699.416 68.0603 699.455 67.9508L699.708 67.3122ZM699.169 64.3806L700.004 66.8439L700.143 67.6163L699.601 67.7471L698.325 64.3806H699.169Z" fill="#1F2937" style="fill:#1F2937;fill:color(display-p3 0.1216 0.1608 0.2157);fill-opacity:1;"/>
<rect x="460" y="97" width="49.4271" height="8.88672" rx="4.44336" fill="#DEE2E6" style="fill:#DEE2E6;fill:color(display-p3 0.8706 0.8863 0.9020);fill-opacity:1;"/>
<rect x="517.427" y="97" width="49.4271" height="8.88672" rx="4.44336" fill="#DEE2E6" style="fill:#DEE2E6;fill:color(display-p3 0.8706 0.8863 0.9020);fill-opacity:1;"/>
<rect x="574.854" y="97" width="49.4271" height="8.88672" rx="4.44336" fill="#DEE2E6" style="fill:#DEE2E6;fill:color(display-p3 0.8706 0.8863 0.9020);fill-opacity:1;"/>
<rect x="632.281" y="97" width="49.4271" height="8.88672" rx="4.44336" fill="#DEE2E6" style="fill:#DEE2E6;fill:color(display-p3 0.8706 0.8863 0.9020);fill-opacity:1;"/>
<rect x="689.708" y="97" width="49.4271" height="8.88672" rx="4.44336" fill="#DEE2E6" style="fill:#DEE2E6;fill:color(display-p3 0.8706 0.8863 0.9020);fill-opacity:1;"/>
<circle cx="477" cy="133.887" r="11" fill="#DEE2E6" style="fill:#DEE2E6;fill:color(display-p3 0.8706 0.8863 0.9020);fill-opacity:1;"/>
<rect x="494" y="121.887" width="49.4271" height="6" rx="1" fill="#DEE2E6" style="fill:#DEE2E6;fill:color(display-p3 0.8706 0.8863 0.9020);fill-opacity:1;"/>
<rect x="494" y="131.887" width="242" height="6" rx="1" fill="#DEE2E6" style="fill:#DEE2E6;fill:color(display-p3 0.8706 0.8863 0.9020);fill-opacity:1;"/>
<rect x="494" y="139.887" width="45" height="6" rx="1" fill="#DEE2E6" style="fill:#DEE2E6;fill:color(display-p3 0.8706 0.8863 0.9020);fill-opacity:1;"/>
<circle cx="477" cy="181.887" r="11" fill="#DEE2E6" style="fill:#DEE2E6;fill:color(display-p3 0.8706 0.8863 0.9020);fill-opacity:1;"/>
<rect x="494" y="169.887" width="49.4271" height="6" rx="1" fill="#DEE2E6" style="fill:#DEE2E6;fill:color(display-p3 0.8706 0.8863 0.9020);fill-opacity:1;"/>
<rect x="494" y="179.887" width="242" height="6" rx="1" fill="#DEE2E6" style="fill:#DEE2E6;fill:color(display-p3 0.8706 0.8863 0.9020);fill-opacity:1;"/>
<rect x="494" y="187.887" width="45" height="6" rx="1" fill="#DEE2E6" style="fill:#DEE2E6;fill:color(display-p3 0.8706 0.8863 0.9020);fill-opacity:1;"/>
<circle cx="477" cy="229.887" r="11" fill="#DEE2E6" style="fill:#DEE2E6;fill:color(display-p3 0.8706 0.8863 0.9020);fill-opacity:1;"/>
<rect x="494" y="217.887" width="49.4271" height="6" rx="1" fill="#DEE2E6" style="fill:#DEE2E6;fill:color(display-p3 0.8706 0.8863 0.9020);fill-opacity:1;"/>
<rect x="494" y="227.887" width="242" height="6" rx="1" fill="#DEE2E6" style="fill:#DEE2E6;fill:color(display-p3 0.8706 0.8863 0.9020);fill-opacity:1;"/>
<rect x="494" y="235.887" width="45" height="6" rx="1" fill="#DEE2E6" style="fill:#DEE2E6;fill:color(display-p3 0.8706 0.8863 0.9020);fill-opacity:1;"/>
<circle cx="477" cy="277.887" r="11" fill="#DEE2E6" style="fill:#DEE2E6;fill:color(display-p3 0.8706 0.8863 0.9020);fill-opacity:1;"/>
<rect x="494" y="265.887" width="49.4271" height="6" rx="1" fill="#DEE2E6" style="fill:#DEE2E6;fill:color(display-p3 0.8706 0.8863 0.9020);fill-opacity:1;"/>
<rect x="494" y="275.887" width="242" height="6" rx="1" fill="#DEE2E6" style="fill:#DEE2E6;fill:color(display-p3 0.8706 0.8863 0.9020);fill-opacity:1;"/>
<rect x="494" y="283.887" width="45" height="6" rx="1" fill="#DEE2E6" style="fill:#DEE2E6;fill:color(display-p3 0.8706 0.8863 0.9020);fill-opacity:1;"/>
<circle cx="477" cy="325.887" r="11" fill="#DEE2E6" style="fill:#DEE2E6;fill:color(display-p3 0.8706 0.8863 0.9020);fill-opacity:1;"/>
<rect x="494" y="313.887" width="49.4271" height="6" rx="1" fill="#DEE2E6" style="fill:#DEE2E6;fill:color(display-p3 0.8706 0.8863 0.9020);fill-opacity:1;"/>
<rect x="494" y="323.887" width="242" height="6" rx="1" fill="#DEE2E6" style="fill:#DEE2E6;fill:color(display-p3 0.8706 0.8863 0.9020);fill-opacity:1;"/>
<rect x="494" y="331.887" width="45" height="6" rx="1" fill="#DEE2E6" style="fill:#DEE2E6;fill:color(display-p3 0.8706 0.8863 0.9020);fill-opacity:1;"/>
</g>
<rect x="444.5" y="31.5" width="399" height="319" rx="11.5" stroke="#E9ECEF" style="stroke:#E9ECEF;stroke:color(display-p3 0.9137 0.9255 0.9373);stroke-opacity:1;"/>
</g>
</g>
<defs>
<filter id="filter0_dd_4144_17620" x="441" y="31" width="406" height="327" filterUnits="userSpaceOnUse" color-interpolation-filters="sRGB">
<feFlood flood-opacity="0" result="BackgroundImageFix"/>
<feColorMatrix in="SourceAlpha" type="matrix" values="0 0 0 0 0 0 0 0 0 0 0 0 0 0 0 0 0 0 127 0" result="hardAlpha"/>
<feOffset dy="2"/>
<feGaussianBlur stdDeviation="1"/>
<feComposite in2="hardAlpha" operator="out"/>
<feColorMatrix type="matrix" values="0 0 0 0 0 0 0 0 0 0 0 0 0 0 0 0 0 0 0.06 0"/>
<feBlend mode="normal" in2="BackgroundImageFix" result="effect1_dropShadow_4144_17620"/>
<feColorMatrix in="SourceAlpha" type="matrix" values="0 0 0 0 0 0 0 0 0 0 0 0 0 0 0 0 0 0 127 0" result="hardAlpha"/>
<feOffset dy="4"/>
<feGaussianBlur stdDeviation="1.5"/>
<feComposite in2="hardAlpha" operator="out"/>
<feColorMatrix type="matrix" values="0 0 0 0 0 0 0 0 0 0 0 0 0 0 0 0 0 0 0.07 0"/>
<feBlend mode="normal" in2="effect1_dropShadow_4144_17620" result="effect2_dropShadow_4144_17620"/>
<feBlend mode="normal" in="SourceGraphic" in2="effect2_dropShadow_4144_17620" result="shape"/>
</filter>
<clipPath id="clip0_4144_17620">
<rect width="975" height="650" fill="white" style="fill:white;fill:white;fill-opacity:1;"/>
</clipPath>
<clipPath id="clip1_4144_17620">
<rect width="108.301" height="24.7474" fill="white" style="fill:white;fill:white;fill-opacity:1;" transform="translate(54.1667 45.3633)"/>
</clipPath>
<clipPath id="clip2_4144_17620">
<rect x="444" y="31" width="400" height="320" rx="12" fill="white" style="fill:white;fill:white;fill-opacity:1;"/>
</clipPath>
</defs>
</svg>
