<svg width="13" height="13" viewBox="0 0 13 13" fill="none" xmlns="http://www.w3.org/2000/svg">
<path fill-rule="evenodd" clip-rule="evenodd" d="M6.5 0C2.91092 0 0 2.90983 0 6.5C0 10.0896 2.91092 13 6.5 13C10.0896 13 13 10.0896 13 6.5C13 2.90983 10.0896 0 6.5 0ZM8.24633 9.68013C8.34817 9.75217 8.47925 9.77004 8.59625 9.72617C8.71271 9.68175 8.79883 9.58154 8.82483 9.46021C9.09946 8.16996 9.76571 4.90371 10.0154 3.73046C10.0344 3.64163 10.003 3.54954 9.93363 3.4905C9.86375 3.43146 9.76733 3.41467 9.68175 3.44608C8.35683 3.93683 4.27646 5.46758 2.60867 6.08454C2.50304 6.12408 2.43425 6.22538 2.4375 6.3375C2.44129 6.44908 2.51658 6.54604 2.62492 6.57854C3.37296 6.80225 4.35446 7.11371 4.35446 7.11371C4.35446 7.11371 4.81325 8.49929 5.05212 9.20346C5.08246 9.29229 5.15179 9.36162 5.24279 9.38546C5.33433 9.40929 5.43129 9.38437 5.49954 9.31992C5.88358 8.95754 6.47725 8.39692 6.47725 8.39692C6.47725 8.39692 7.60608 9.22404 8.24633 9.68013ZM4.76721 6.93821L5.29804 8.68833L5.41612 7.58008C5.41612 7.58008 7.46525 5.73138 8.63417 4.67783C8.66829 4.64696 8.67263 4.59496 8.64446 4.55867C8.61629 4.52238 8.56429 4.51371 8.52583 4.53863C7.17167 5.40312 4.76721 6.93821 4.76721 6.93821Z" fill="#4B5563"/>
</svg>
