<svg width="970" height="650" viewBox="0 0 970 650" fill="none" xmlns="http://www.w3.org/2000/svg">
<g clip-path="url(#clip0_3272_1912)" filter="url(#filter0_d_3272_1912)">
<rect width="975" height="650" fill="white"/>
<rect x="56.198" y="216.302" width="855.156" height="190.938" rx="12.381" fill="#EFF2F5"/>
<rect x="56.198" y="428.229" width="413.021" height="266.094" rx="12.381" fill="#EFF2F5"/>
<rect x="494.947" y="428.229" width="413.021" height="266.094" rx="12.381" fill="#EFF2F5"/>
<rect x="54.1672" y="13.2012" width="37.2396" height="7.10938" rx="3.55469" fill="#EFF2F5"/>
<rect x="94.1155" y="13.2012" width="35.2083" height="7.10938" rx="3.55469" fill="#EFF2F5"/>
<rect x="132.032" y="13.2012" width="25.7292" height="7.10938" rx="3.55469" fill="#EFF2F5"/>
<rect x="165.886" y="14.5552" width="8.125" height="7.10938" rx="3.55469" fill="#EFF2F5"/>
<rect x="176.719" y="13.2012" width="16.25" height="7.10938" rx="3.55469" fill="#EFF2F5"/>
<rect x="195.678" y="13.2012" width="29.1146" height="7.10938" rx="3.55469" fill="#EFF2F5"/>
<rect x="547" y="12.999" width="13" height="8" rx="4" fill="#EFF2F5"/>
<rect x="563" y="12.999" width="280" height="8" rx="4" fill="#EFF2F5"/>
<rect x="904.812" y="13.354" width="7.44792" height="7.10938" rx="3.55469" fill="#EFF2F5"/>
<rect x="852" y="12.6089" width="49.4271" height="8.88672" rx="4.44336" fill="#EFF2F5"/>
<svg x="31.1672" y="35.2012" width="234" height="44" viewBox="0 0 234 54" fill="none" xmlns="http://www.w3.org/2000/svg">
<path d="M35.9155 0.996582C31.9653 0.996531 28.0711 1.96553 24.5506 3.82452C21.03 5.6835 17.983 8.3798 15.6581 11.6934C13.3331 15.007 11.7962 18.844 11.1727 22.8912C10.5491 26.9385 10.8567 31.0815 12.0702 34.9819C11.9377 35.0744 11.8104 35.1748 11.6889 35.2824L2.51468 43.3994C2.07544 43.7893 1.71452 44.2652 1.45255 44.7998C1.19058 45.3345 1.03267 45.9175 0.987856 46.5154C0.943042 47.1134 1.01219 47.7147 1.19136 48.285C1.37053 48.8552 1.65621 49.3833 2.03208 49.8389C2.40787 50.2947 2.8665 50.6692 3.38179 50.941C3.89708 51.2128 4.45892 51.3767 5.03524 51.4232C5.61156 51.4697 6.19106 51.3979 6.74065 51.212C7.29025 51.0261 7.79916 50.7297 8.23833 50.3397L16.3219 43.1891C18.9637 46.629 22.4035 49.317 26.3194 51.0016C30.2352 52.6862 34.499 53.3122 38.7116 52.821C42.9242 52.3299 46.9478 50.7376 50.4056 48.1932C53.8635 45.6489 56.6426 42.2358 58.4827 38.2733C60.3228 34.3109 61.1637 29.9288 60.9268 25.5372C60.6898 21.1456 59.3828 16.8883 57.1279 13.1637C54.8731 9.43913 51.7442 6.36914 48.0343 4.24117C44.3243 2.11319 40.1546 0.996827 35.9155 0.996582Z" fill="white"/>
<path d="M35.9159 53.99C32.1724 53.9983 28.4718 53.1641 25.0691 51.5449C21.6665 49.9257 18.6427 47.5601 16.2064 44.6111L8.85159 51.1207C8.31479 51.5952 7.69319 51.9553 7.02227 52.1805C6.35135 52.4057 5.64425 52.4915 4.94135 52.4332C4.23845 52.3748 3.55351 52.1734 2.92563 51.8404C2.29776 51.5073 1.73925 51.0493 1.28199 50.4923C0.824731 49.9353 0.47768 49.2904 0.260651 48.5942C0.0436218 47.8981 -0.0391346 47.1644 0.0171065 46.4351C0.0733477 45.7058 0.267485 44.9951 0.588434 44.3436C0.909383 43.6921 1.35086 43.1126 1.88765 42.6382L10.9557 34.6263C9.41226 29.1873 9.55817 23.3822 11.3728 18.034C13.1874 12.6859 16.5786 8.06623 21.0655 4.83003C25.5524 1.59384 30.9074 -0.0946115 36.371 0.00409369C41.8346 0.102799 47.1297 1.98365 51.5053 5.37995C55.8809 8.77626 59.1151 13.5156 60.7491 18.9261C62.3832 24.3365 62.3343 30.1434 60.6092 35.5233C58.8842 40.9033 55.5707 45.5832 51.1385 48.8996C46.7063 52.216 41.3803 54.0005 35.9159 54V53.99ZM16.4574 41.7569L17.0799 42.5581C20.825 47.4241 26.1886 50.6609 32.1168 51.6324C38.0449 52.6039 44.1089 51.2398 49.117 47.8082C54.1251 44.3766 57.7152 39.1256 59.1819 33.0872C60.6485 27.0488 59.8856 20.6596 57.043 15.1752C54.2005 9.69073 49.4838 5.50765 43.82 3.44798C38.1562 1.38832 31.9547 1.60101 26.4343 4.04425C20.914 6.48749 16.4738 10.9846 13.9865 16.6518C11.4992 22.3191 11.1446 28.7466 12.9923 34.6714L13.2143 35.3824L12.6159 35.803C12.5145 35.8782 12.4132 35.9533 12.3167 36.0384L3.14242 44.1654C2.76402 44.457 2.44747 44.8262 2.21247 45.2501C1.97746 45.674 1.82901 46.1436 1.77636 46.6295C1.72371 47.1155 1.76798 47.6075 1.90641 48.075C2.04485 48.5425 2.27449 48.9754 2.58105 49.3468C2.88762 49.7183 3.26456 50.0203 3.68843 50.2342C4.1123 50.448 4.57404 50.5691 5.04493 50.5899C5.51583 50.6107 5.98581 50.5307 6.42565 50.355C6.86549 50.1793 7.26579 49.9115 7.60165 49.5684L16.4574 41.7569Z" fill="#033F40"/>
<path d="M35.916 47.2302C46.6866 47.2302 55.4179 38.1707 55.4179 26.9952C55.4179 15.8198 46.6866 6.76025 35.916 6.76025C25.1454 6.76025 16.4141 15.8198 16.4141 26.9952C16.4141 38.1707 25.1454 47.2302 35.916 47.2302Z" fill="white"/>
<path d="M37.1662 35.7227C36.858 35.6515 36.5723 35.5002 36.3359 35.2829C36.0995 35.0657 35.9202 34.7897 35.8149 34.4809L32.205 23.8201L19.1748 37.3401C21.7094 41.7443 25.7619 44.985 30.5122 46.4064C35.2625 47.8277 40.3558 47.3236 44.7614 44.996C49.167 42.6684 52.5559 38.6912 54.2423 33.8691C55.9287 29.0471 55.7866 23.7404 53.8449 19.0229L38.8842 35.1569C38.6677 35.3947 38.3963 35.5714 38.0958 35.6704C37.7952 35.7694 37.4753 35.7874 37.1662 35.7227Z" fill="#033F40"/>
<path d="M33.3873 18.4373C33.6924 18.5089 33.9748 18.66 34.2079 18.8765C34.4409 19.0929 34.617 19.3674 34.7193 19.6741L38.2905 30.2748L51.9771 15.518C49.3021 11.4766 45.3036 8.58063 40.7251 7.36864C36.1467 6.15665 31.2998 6.71107 27.0858 8.92881C22.8717 11.1466 19.5773 14.8767 17.815 19.4257C16.0527 23.9747 15.9425 29.0329 17.5049 33.6598L31.6692 18.9531C31.8899 18.7229 32.1634 18.5547 32.4639 18.4645C32.7645 18.3743 33.0823 18.3649 33.3873 18.4373Z" fill="#033F40"/>
<path d="M99.3486 17.396H89.8027V19.0535H99.3486V17.396Z" fill="#033F40"/>
<path d="M89.8027 24.186V33.0241H99.3486V31.3516H91.5353V25.9587H98.8274V24.186H89.8027Z" fill="#2A323A"/>
<path d="M102.336 33.0241H104.184L109.116 19.5792H109.971L114.903 33.0241H116.669L110.854 17.396H108.151L102.336 33.0241Z" fill="#2A323A"/>
<path d="M120.622 16.6396V18.3422H127.156C130.443 18.3422 130.506 21.4668 130.506 21.9024C130.506 22.3381 130.472 25.007 127.35 25.007H120.622V32.9488H122.475V26.5343H124.324C124.816 26.5106 125.304 26.6321 125.733 26.8848C125.915 27.003 126.077 27.15 126.215 27.3205C126.674 27.9164 129.883 32.2928 129.883 32.2928C130.36 32.7265 130.972 32.9682 131.606 32.9738C131.916 32.945 132.228 32.945 132.537 32.9738L127.895 26.5343C127.895 26.5343 132.349 26.1537 132.344 21.9776C132.34 17.8014 129.57 16.7098 127.113 16.6797C124.657 16.6497 120.622 16.6396 120.622 16.6396Z" fill="#2A323A"/>
<path d="M72.4678 33.0441V17.6362H75.2476L84.639 31.5719V17.6362H86.3039V33.0441H83.6882L74.1328 19.0633V33.0441H72.4678Z" fill="#2A323A"/>
<path d="M137.219 17.02H146.75C147.246 17.0192 147.734 17.1429 148.174 17.3806C148.626 17.6335 149.027 17.9734 149.356 18.382C149.708 18.8168 149.981 19.3138 150.162 19.8492C150.368 20.4347 150.471 21.0537 150.466 21.6769C150.469 22.0158 150.423 22.3532 150.331 22.6784C150.247 22.9863 150.131 23.2835 149.984 23.5647C149.846 23.8303 149.684 24.0818 149.501 24.3158C149.322 24.5412 149.153 24.7415 149.018 24.9067C149.179 25.0903 149.34 25.2906 149.501 25.5076C149.681 25.7352 149.843 25.978 149.984 26.2337C150.13 26.5047 150.252 26.7897 150.346 27.0849C150.443 27.3919 150.492 27.7132 150.49 28.0363C150.495 28.6595 150.392 29.2786 150.186 29.8641C150.006 30.3985 149.733 30.894 149.38 31.3262C149.039 31.7234 148.626 32.0467 148.164 32.2776C147.726 32.5192 147.237 32.6447 146.74 32.6432H137.219V17.02ZM147.305 24.0304C147.693 23.7256 148.02 23.3466 148.27 22.9138C148.523 22.5249 148.665 22.0704 148.681 21.6018C148.678 21.2483 148.624 20.8973 148.521 20.5603C148.425 20.2042 148.275 19.8662 148.077 19.5588C147.892 19.276 147.654 19.0342 147.378 18.8477C147.097 18.6617 146.769 18.5658 146.436 18.5723H138.908V31.0408H146.485C146.826 31.0523 147.162 30.9563 147.45 30.7654C147.725 30.5807 147.959 30.3364 148.135 30.0493C148.329 29.7421 148.473 29.4037 148.56 29.0478C148.654 28.7109 148.703 28.3621 148.705 28.0113C148.694 27.5372 148.551 27.0765 148.294 26.6843C148.034 26.2492 147.698 25.8673 147.305 25.5577H144.289V24.0304H147.305Z" fill="#033F40"/>
<path d="M153.651 32.6432V17.02H155.34V31.0658H165.113V32.6432H153.651Z" fill="#033F40"/>
<path d="M166.898 21.762C167.669 19.8685 169.124 18.3638 170.952 17.5708C171.899 17.1576 172.917 16.9448 173.944 16.9448C174.972 16.9448 175.989 17.1576 176.936 17.5708C178.761 18.3679 180.215 19.8712 180.99 21.762C181.388 22.7318 181.593 23.775 181.593 24.829C181.593 25.8831 181.388 26.9263 180.99 27.8961C180.214 29.787 178.761 31.2914 176.936 32.0923C175.989 32.5055 174.972 32.7183 173.944 32.7183C172.917 32.7183 171.899 32.5055 170.952 32.0923C169.126 31.2949 167.671 29.7894 166.898 27.8961C166.5 26.9263 166.295 25.8831 166.295 24.829C166.295 23.775 166.5 22.7318 166.898 21.762ZM168.394 27.2201C169.03 28.7048 170.179 29.889 171.613 30.54C172.348 30.8703 173.141 31.0408 173.942 31.0408C174.743 31.0408 175.535 30.8703 176.27 30.54C176.988 30.2152 177.642 29.757 178.201 29.188C178.76 28.6248 179.212 27.9571 179.533 27.2201C179.854 26.4768 180.018 25.671 180.015 24.8566C180.014 24.041 179.85 23.2345 179.533 22.4881C179.223 21.7419 178.781 21.0625 178.23 20.4851C177.671 19.9129 177.017 19.4498 176.299 19.1181C175.567 18.7806 174.774 18.6098 173.973 18.6173C173.168 18.6109 172.37 18.7816 171.633 19.1181C170.914 19.4469 170.259 19.9103 169.702 20.4851C169.15 21.0615 168.708 21.7411 168.399 22.4881C168.08 23.2337 167.915 24.0407 167.917 24.8566C167.91 25.6709 168.073 26.4771 168.394 27.2201Z" fill="#033F40"/>
<path d="M184.948 21.7624C185.335 20.8296 185.886 19.9803 186.575 19.2587C187.269 18.5426 188.087 17.97 188.988 17.5712C190.142 17.0542 191.402 16.8452 192.654 16.9632C193.906 17.0813 195.109 17.5227 196.154 18.2472C196.748 18.6644 197.287 19.1611 197.756 19.7244C198.227 20.2838 198.621 20.9071 198.929 21.5771L197.578 22.4785C197.335 21.9357 197.022 21.4302 196.646 20.9763C196.271 20.5104 195.837 20.0979 195.358 19.7494C194.872 19.3976 194.339 19.1226 193.775 18.9332C192.424 18.4865 190.962 18.5666 189.663 19.1586C188.946 19.488 188.293 19.9513 187.738 20.5256C187.184 21.1007 186.742 21.7806 186.435 22.5286C186.115 23.2742 185.951 24.0812 185.952 24.8971C185.947 25.7118 186.112 26.518 186.435 27.2606C186.75 27.9815 187.192 28.6352 187.738 29.1884C188.294 29.7602 188.949 30.2187 189.668 30.5404C190.403 30.8753 191.197 31.0459 191.999 31.0412C192.554 31.0421 193.107 30.9612 193.64 30.8008C194.16 30.6501 194.658 30.4278 195.121 30.1398C195.578 29.8619 196 29.5254 196.376 29.1383C196.757 28.7513 197.082 28.3095 197.341 27.8264L198.5 29.0532C197.823 30.1546 196.899 31.0689 195.807 31.7172C194.65 32.3992 193.338 32.7451 192.009 32.7187C190.98 32.725 189.962 32.512 189.017 32.0927C187.19 31.2953 185.736 29.7898 184.963 27.8965C184.565 26.9267 184.359 25.8835 184.359 24.8295C184.359 23.7754 184.565 22.7322 184.963 21.7624H184.948Z" fill="#033F40"/>
<path d="M202.129 32.6432V17.02H203.818V24.1055H208.934V25.6829H203.818V32.6432H202.129ZM216.728 17.02L213.036 24.9067L216.728 32.6432H214.894L211.154 24.9067L214.894 17.02H216.728Z" fill="#033F40"/>
<path d="M225.119 18.6226C224.763 18.5984 224.405 18.6553 224.072 18.7894C223.738 18.9235 223.437 19.1314 223.189 19.3988C222.737 19.9576 222.504 20.6728 222.538 21.4018C222.516 22.0206 222.676 22.6318 222.996 23.1544C223.171 23.3993 223.391 23.6052 223.644 23.7601C223.897 23.9149 224.177 24.0154 224.468 24.0557V25.6831C223.978 25.6854 223.495 25.5652 223.059 25.3326C222.617 25.1004 222.219 24.7865 221.886 24.4062C221.542 24.0106 221.272 23.5521 221.09 23.0542C220.894 22.5271 220.796 21.9665 220.8 21.4018C220.793 20.796 220.891 20.1938 221.09 19.6241C221.265 19.1182 221.536 18.6536 221.886 18.2571C222.22 17.886 222.622 17.588 223.068 17.3808C223.525 17.1741 224.018 17.0684 224.516 17.0703H233.806V18.6226H225.119ZM229.68 31.0911C230.037 31.1153 230.394 31.0584 230.728 30.9244C231.061 30.7903 231.363 30.5823 231.61 30.315C232.057 29.7626 232.289 29.0575 232.262 28.337C232.285 27.7211 232.125 27.1128 231.803 26.5944C231.627 26.3527 231.406 26.1499 231.153 25.9977C230.901 25.8455 230.621 25.7471 230.332 25.7081V24.0557C230.823 24.0528 231.308 24.173 231.746 24.4062C232.186 24.6385 232.582 24.9524 232.913 25.3326C233.259 25.7303 233.53 26.1925 233.71 26.6946C233.902 27.2191 234 27.7758 233.999 28.337C234.008 28.9438 233.907 29.5469 233.7 30.1147C233.516 30.6181 233.241 31.0803 232.889 31.4767C232.558 31.8504 232.155 32.1488 231.707 32.353C231.252 32.5667 230.758 32.6744 230.259 32.6684H221.037V31.0911H229.68Z" fill="#033F40"/>
</svg>

<rect x="461.812" y="51.356" width="7.44792" height="7.10938" rx="3.55469" fill="#EFF2F5"/>
<rect x="409" y="50.6108" width="49.4271" height="8.88672" rx="4.44336" fill="#EFF2F5"/>
<rect x="538.738" y="51.3569" width="7.44792" height="7.10938" rx="3.55469" fill="#EFF2F5"/>
<rect x="485.926" y="50.6118" width="49.4271" height="8.88672" rx="4.44336" fill="#EFF2F5"/>
<rect x="607.738" y="51.3569" width="7.44792" height="7.10938" rx="3.55469" fill="#EFF2F5"/>
<rect x="554.926" y="50.6118" width="49.4271" height="8.88672" rx="4.44336" fill="#EFF2F5"/>
<rect x="678.812" y="51.3569" width="7.44792" height="7.10938" rx="3.55469" fill="#EFF2F5"/>
<rect x="626" y="50.6118" width="49.4271" height="8.88672" rx="4.44336" fill="#EFF2F5"/>
<rect x="749.738" y="51.3569" width="7.44792" height="7.10938" rx="3.55469" fill="#EFF2F5"/>
<rect x="696.926" y="50.6118" width="49.4271" height="8.88672" rx="4.44336" fill="#EFF2F5"/>
<rect x="826.812" y="51.3569" width="7.44792" height="7.10938" rx="3.55469" fill="#EFF2F5"/>
<rect x="774" y="50.6118" width="49.4271" height="8.88672" rx="4.44336" fill="#EFF2F5"/>
<line x1="843.275" y1="52.9966" x2="843.275" y2="62.4757" stroke="#EFF2F5" stroke-width="0.677083"/>
<rect x="904.738" y="51.3569" width="7.44792" height="7.10938" rx="3.55469" fill="#EFF2F5"/>
<rect x="851.926" y="50.6118" width="49.4271" height="8.88672" rx="4.44336" fill="#EFF2F5"/>
<rect x="364.915" y="50.6118" width="27.0833" height="8.88672" rx="4.44336" fill="#EFF2F5"/>
<rect x="54" y="159" width="854" height="33" rx="4" fill="#495057"/>
<path d="M89.8811 173.15L87.5199 180H86.0923L89.0669 172.097H89.9788L89.8811 173.15ZM91.8569 180L89.4903 173.15L89.3871 172.097H90.3045L93.2899 180H91.8569ZM91.7429 177.069V178.149H87.4439V177.069H91.7429Z" fill="white"/>
<path d="M97.5158 178.784V171.663H98.8293V180H97.6406L97.5158 178.784ZM93.6944 177.129V177.015C93.6944 176.57 93.7469 176.164 93.8518 175.799C93.9568 175.43 94.1087 175.113 94.3078 174.849C94.5068 174.581 94.7493 174.377 95.0351 174.236C95.321 174.091 95.6431 174.018 96.0013 174.018C96.356 174.018 96.6672 174.087 96.935 174.225C97.2027 174.362 97.4307 174.559 97.6189 174.816C97.8071 175.07 97.9572 175.374 98.0694 175.728C98.1816 176.079 98.2612 176.47 98.3083 176.901V177.264C98.2612 177.684 98.1816 178.068 98.0694 178.415C97.9572 178.763 97.8071 179.063 97.6189 179.316C97.4307 179.569 97.2009 179.765 96.9295 179.902C96.6617 180.04 96.3487 180.109 95.9905 180.109C95.6358 180.109 95.3156 180.034 95.0297 179.886C94.7474 179.738 94.5068 179.53 94.3078 179.262C94.1087 178.994 93.9568 178.679 93.8518 178.317C93.7469 177.952 93.6944 177.556 93.6944 177.129ZM95.0026 177.015V177.129C95.0026 177.396 95.0261 177.646 95.0731 177.878C95.1238 178.109 95.2016 178.314 95.3065 178.491C95.4115 178.665 95.5472 178.802 95.7136 178.904C95.8837 179.001 96.0864 179.05 96.3216 179.05C96.6183 179.05 96.8626 178.985 97.0544 178.855C97.2462 178.725 97.3963 178.549 97.5049 178.328C97.6171 178.104 97.6931 177.854 97.7329 177.579V176.597C97.7112 176.383 97.6659 176.184 97.5972 176C97.532 175.815 97.4434 175.654 97.3312 175.517C97.219 175.375 97.0797 175.267 96.9132 175.191C96.7504 175.111 96.5568 175.071 96.3324 175.071C96.0936 175.071 95.891 175.122 95.7245 175.223C95.558 175.325 95.4205 175.464 95.312 175.641C95.207 175.819 95.1292 176.025 95.0786 176.26C95.0279 176.495 95.0026 176.747 95.0026 177.015Z" fill="white"/>
<path d="M101.997 178.963L103.435 174.127H104.792L102.751 180H101.904L101.997 178.963ZM100.895 174.127L102.36 178.985L102.431 180H101.584L99.5324 174.127H100.895Z" fill="white"/>
<path d="M108.003 180.109C107.569 180.109 107.176 180.038 106.825 179.897C106.478 179.752 106.181 179.551 105.935 179.294C105.692 179.038 105.506 178.735 105.376 178.388C105.246 178.041 105.18 177.666 105.18 177.264V177.047C105.18 176.588 105.247 176.172 105.381 175.799C105.515 175.426 105.701 175.108 105.94 174.843C106.179 174.576 106.461 174.371 106.787 174.23C107.113 174.089 107.466 174.018 107.846 174.018C108.265 174.018 108.633 174.089 108.947 174.23C109.262 174.371 109.523 174.57 109.729 174.827C109.939 175.08 110.095 175.383 110.196 175.734C110.301 176.085 110.353 176.472 110.353 176.895V177.454H105.815V176.515H109.061V176.412C109.054 176.177 109.007 175.956 108.92 175.75C108.837 175.544 108.709 175.377 108.535 175.251C108.361 175.124 108.13 175.061 107.84 175.061C107.623 175.061 107.429 175.108 107.259 175.202C107.093 175.292 106.954 175.424 106.841 175.598C106.729 175.772 106.642 175.982 106.581 176.228C106.523 176.47 106.494 176.743 106.494 177.047V177.264C106.494 177.521 106.528 177.76 106.597 177.981C106.669 178.198 106.774 178.388 106.912 178.551C107.049 178.714 107.216 178.842 107.411 178.936C107.607 179.027 107.829 179.072 108.079 179.072C108.394 179.072 108.674 179.009 108.92 178.882C109.166 178.755 109.38 178.576 109.561 178.345L110.25 179.012C110.124 179.197 109.959 179.374 109.756 179.544C109.554 179.711 109.306 179.846 109.013 179.951C108.723 180.056 108.387 180.109 108.003 180.109Z" fill="white"/>
<path d="M112.576 175.245V180H111.268V174.127H112.517L112.576 175.245ZM114.373 174.089L114.362 175.305C114.282 175.29 114.196 175.279 114.102 175.272C114.011 175.265 113.921 175.261 113.83 175.261C113.606 175.261 113.409 175.294 113.238 175.359C113.068 175.421 112.925 175.511 112.81 175.631C112.697 175.746 112.611 175.887 112.549 176.054C112.488 176.22 112.451 176.407 112.441 176.613L112.142 176.635C112.142 176.266 112.178 175.924 112.251 175.609C112.323 175.294 112.431 175.017 112.576 174.778C112.725 174.539 112.909 174.353 113.13 174.219C113.354 174.085 113.613 174.018 113.906 174.018C113.986 174.018 114.071 174.026 114.161 174.04C114.255 174.055 114.326 174.071 114.373 174.089Z" fill="white"/>
<path d="M118.045 174.127V175.082H114.734V174.127H118.045ZM115.689 172.689H116.998V178.377C116.998 178.558 117.023 178.697 117.074 178.795C117.128 178.889 117.202 178.952 117.296 178.985C117.39 179.018 117.501 179.034 117.627 179.034C117.718 179.034 117.804 179.028 117.888 179.018C117.971 179.007 118.038 178.996 118.089 178.985L118.094 179.984C117.985 180.016 117.859 180.045 117.714 180.071C117.573 180.096 117.41 180.109 117.225 180.109C116.925 180.109 116.659 180.056 116.428 179.951C116.196 179.843 116.015 179.667 115.885 179.425C115.754 179.182 115.689 178.86 115.689 178.459V172.689Z" fill="white"/>
<path d="M120.344 174.127V180H119.03V174.127H120.344ZM118.944 172.585C118.944 172.386 119.009 172.222 119.139 172.091C119.273 171.958 119.457 171.891 119.693 171.891C119.924 171.891 120.107 171.958 120.241 172.091C120.375 172.222 120.442 172.386 120.442 172.585C120.442 172.781 120.375 172.944 120.241 173.074C120.107 173.204 119.924 173.269 119.693 173.269C119.457 173.269 119.273 173.204 119.139 173.074C119.009 172.944 118.944 172.781 118.944 172.585Z" fill="white"/>
<path d="M124.961 178.41C124.961 178.279 124.928 178.162 124.863 178.057C124.798 177.948 124.673 177.851 124.488 177.764C124.308 177.677 124.04 177.597 123.685 177.525C123.374 177.456 123.088 177.375 122.827 177.281C122.571 177.183 122.35 177.065 122.165 176.928C121.981 176.79 121.838 176.627 121.736 176.439C121.635 176.251 121.584 176.034 121.584 175.788C121.584 175.549 121.637 175.323 121.742 175.109C121.847 174.896 121.997 174.708 122.192 174.545C122.388 174.382 122.625 174.254 122.903 174.16C123.186 174.065 123.501 174.018 123.848 174.018C124.34 174.018 124.762 174.102 125.113 174.268C125.467 174.431 125.739 174.653 125.927 174.936C126.115 175.214 126.209 175.529 126.209 175.88H124.901C124.901 175.725 124.861 175.58 124.782 175.446C124.706 175.308 124.59 175.198 124.434 175.115C124.279 175.028 124.083 174.985 123.848 174.985C123.624 174.985 123.437 175.021 123.289 175.093C123.144 175.162 123.036 175.252 122.963 175.365C122.894 175.477 122.86 175.6 122.86 175.734C122.86 175.831 122.878 175.92 122.914 176C122.954 176.076 123.019 176.146 123.11 176.211C123.2 176.273 123.323 176.331 123.479 176.385C123.638 176.439 123.837 176.492 124.076 176.542C124.525 176.637 124.91 176.758 125.232 176.906C125.558 177.051 125.807 177.239 125.981 177.471C126.155 177.699 126.242 177.988 126.242 178.339C126.242 178.6 126.186 178.838 126.073 179.056C125.965 179.269 125.806 179.455 125.596 179.615C125.386 179.77 125.134 179.892 124.841 179.978C124.552 180.065 124.226 180.109 123.864 180.109C123.332 180.109 122.882 180.015 122.513 179.826C122.144 179.635 121.863 179.39 121.671 179.094C121.483 178.793 121.389 178.482 121.389 178.16H122.654C122.668 178.402 122.735 178.596 122.855 178.741C122.978 178.882 123.13 178.985 123.311 179.05C123.495 179.112 123.685 179.142 123.881 179.142C124.116 179.142 124.313 179.112 124.472 179.05C124.631 178.985 124.753 178.898 124.836 178.79C124.919 178.677 124.961 178.551 124.961 178.41Z" fill="white"/>
<path d="M129.865 180.109C129.431 180.109 129.038 180.038 128.687 179.897C128.34 179.752 128.043 179.551 127.797 179.294C127.555 179.038 127.368 178.735 127.238 178.388C127.108 178.041 127.042 177.666 127.042 177.264V177.047C127.042 176.588 127.109 176.172 127.243 175.799C127.377 175.426 127.564 175.108 127.802 174.843C128.041 174.576 128.323 174.371 128.649 174.23C128.975 174.089 129.328 174.018 129.708 174.018C130.127 174.018 130.495 174.089 130.81 174.23C131.124 174.371 131.385 174.57 131.591 174.827C131.801 175.08 131.957 175.383 132.058 175.734C132.163 176.085 132.215 176.472 132.215 176.895V177.454H127.678V176.515H130.924V176.412C130.916 176.177 130.869 175.956 130.782 175.75C130.699 175.544 130.571 175.377 130.397 175.251C130.223 175.124 129.992 175.061 129.702 175.061C129.485 175.061 129.291 175.108 129.121 175.202C128.955 175.292 128.816 175.424 128.703 175.598C128.591 175.772 128.504 175.982 128.443 176.228C128.385 176.47 128.356 176.743 128.356 177.047V177.264C128.356 177.521 128.39 177.76 128.459 177.981C128.532 178.198 128.637 178.388 128.774 178.551C128.912 178.714 129.078 178.842 129.273 178.936C129.469 179.027 129.691 179.072 129.941 179.072C130.256 179.072 130.536 179.009 130.782 178.882C131.028 178.755 131.242 178.576 131.423 178.345L132.112 179.012C131.986 179.197 131.821 179.374 131.618 179.544C131.416 179.711 131.168 179.846 130.875 179.951C130.585 180.056 130.249 180.109 129.865 180.109Z" fill="white"/>
<path d="M137.486 179.36L139.082 174.127H140.483L138.127 180.896C138.073 181.04 138.002 181.198 137.915 181.368C137.828 181.538 137.714 181.699 137.573 181.851C137.436 182.007 137.264 182.132 137.057 182.226C136.851 182.323 136.602 182.372 136.308 182.372C136.193 182.372 136.08 182.361 135.972 182.34C135.867 182.322 135.767 182.302 135.673 182.28L135.668 181.281C135.704 181.285 135.747 181.288 135.798 181.292C135.852 181.296 135.896 181.297 135.928 181.297C136.146 181.297 136.326 181.27 136.471 181.216C136.616 181.165 136.734 181.082 136.824 180.966C136.918 180.851 136.998 180.695 137.063 180.499L137.486 179.36ZM136.585 174.127L137.98 178.524L138.214 179.902L137.307 180.136L135.174 174.127H136.585Z" fill="white"/>
<path d="M140.784 177.129V177.004C140.784 176.58 140.845 176.188 140.968 175.826C141.092 175.46 141.269 175.144 141.5 174.876C141.736 174.605 142.022 174.395 142.358 174.246C142.698 174.094 143.082 174.018 143.509 174.018C143.939 174.018 144.323 174.094 144.66 174.246C145 174.395 145.287 174.605 145.523 174.876C145.758 175.144 145.937 175.46 146.06 175.826C146.183 176.188 146.245 176.58 146.245 177.004V177.129C146.245 177.552 146.183 177.945 146.06 178.307C145.937 178.668 145.758 178.985 145.523 179.256C145.287 179.524 145.002 179.734 144.665 179.886C144.328 180.034 143.947 180.109 143.52 180.109C143.089 180.109 142.704 180.034 142.364 179.886C142.027 179.734 141.741 179.524 141.506 179.256C141.271 178.985 141.092 178.668 140.968 178.307C140.845 177.945 140.784 177.552 140.784 177.129ZM142.092 177.004V177.129C142.092 177.393 142.119 177.643 142.174 177.878C142.228 178.113 142.313 178.319 142.429 178.497C142.544 178.674 142.693 178.813 142.874 178.914C143.055 179.016 143.27 179.066 143.52 179.066C143.762 179.066 143.972 179.016 144.149 178.914C144.33 178.813 144.479 178.674 144.594 178.497C144.71 178.319 144.795 178.113 144.85 177.878C144.907 177.643 144.936 177.393 144.936 177.129V177.004C144.936 176.743 144.907 176.497 144.85 176.266C144.795 176.03 144.708 175.822 144.589 175.641C144.473 175.46 144.325 175.319 144.144 175.218C143.967 175.113 143.755 175.061 143.509 175.061C143.263 175.061 143.049 175.113 142.868 175.218C142.691 175.319 142.544 175.46 142.429 175.641C142.313 175.822 142.228 176.03 142.174 176.266C142.119 176.497 142.092 176.743 142.092 177.004Z" fill="white"/>
<path d="M150.764 178.616V174.127H152.077V180H150.84L150.764 178.616ZM150.948 177.395L151.388 177.384C151.388 177.778 151.344 178.142 151.257 178.475C151.171 178.804 151.037 179.092 150.856 179.338C150.675 179.58 150.443 179.77 150.161 179.908C149.879 180.042 149.54 180.109 149.146 180.109C148.86 180.109 148.598 180.067 148.359 179.984C148.12 179.901 147.914 179.772 147.74 179.598C147.57 179.425 147.438 179.199 147.344 178.92C147.25 178.641 147.203 178.308 147.203 177.921V174.127H148.511V177.932C148.511 178.146 148.536 178.325 148.587 178.469C148.638 178.611 148.706 178.725 148.793 178.811C148.88 178.898 148.981 178.96 149.097 178.996C149.213 179.032 149.336 179.05 149.466 179.05C149.839 179.05 150.132 178.978 150.346 178.833C150.563 178.685 150.717 178.486 150.807 178.236C150.901 177.986 150.948 177.706 150.948 177.395Z" fill="white"/>
<path d="M154.62 175.245V180H153.312V174.127H154.561L154.62 175.245ZM156.417 174.089L156.406 175.305C156.327 175.29 156.24 175.279 156.146 175.272C156.055 175.265 155.965 175.261 155.874 175.261C155.65 175.261 155.453 175.294 155.283 175.359C155.112 175.421 154.969 175.511 154.854 175.631C154.742 175.746 154.655 175.887 154.593 176.054C154.532 176.22 154.495 176.407 154.485 176.613L154.186 176.635C154.186 176.266 154.222 175.924 154.295 175.609C154.367 175.294 154.476 175.017 154.62 174.778C154.769 174.539 154.953 174.353 155.174 174.219C155.398 174.085 155.657 174.018 155.95 174.018C156.03 174.018 156.115 174.026 156.205 174.04C156.299 174.055 156.37 174.071 156.417 174.089Z" fill="white"/>
<path d="M159.788 171.663H161.096V178.746L160.971 180H159.788V171.663ZM164.928 177.009V177.123C164.928 177.557 164.88 177.957 164.782 178.323C164.688 178.685 164.543 179 164.348 179.267C164.156 179.535 163.917 179.743 163.631 179.892C163.349 180.036 163.021 180.109 162.649 180.109C162.283 180.109 161.965 180.04 161.693 179.902C161.422 179.765 161.194 179.569 161.009 179.316C160.828 179.063 160.682 178.761 160.57 178.41C160.457 178.059 160.378 177.671 160.331 177.248V176.884C160.378 176.457 160.457 176.07 160.57 175.723C160.682 175.372 160.828 175.07 161.009 174.816C161.194 174.559 161.42 174.362 161.688 174.225C161.959 174.087 162.276 174.018 162.638 174.018C163.014 174.018 163.345 174.091 163.631 174.236C163.921 174.38 164.161 174.587 164.353 174.854C164.545 175.118 164.688 175.433 164.782 175.799C164.88 176.164 164.928 176.568 164.928 177.009ZM163.62 177.123V177.009C163.62 176.745 163.599 176.497 163.555 176.266C163.512 176.03 163.439 175.824 163.338 175.647C163.24 175.469 163.106 175.33 162.936 175.229C162.77 175.124 162.562 175.071 162.312 175.071C162.08 175.071 161.881 175.111 161.715 175.191C161.549 175.27 161.409 175.379 161.297 175.517C161.185 175.654 161.096 175.813 161.031 175.994C160.97 176.175 160.928 176.371 160.906 176.58V177.563C160.939 177.834 161.008 178.084 161.112 178.312C161.221 178.536 161.373 178.717 161.568 178.855C161.764 178.989 162.015 179.056 162.323 179.056C162.565 179.056 162.77 179.007 162.936 178.909C163.103 178.811 163.235 178.676 163.333 178.502C163.434 178.325 163.506 178.118 163.55 177.883C163.597 177.648 163.62 177.395 163.62 177.123Z" fill="white"/>
<path d="M167.238 175.245V180H165.93V174.127H167.178L167.238 175.245ZM169.035 174.089L169.024 175.305C168.944 175.29 168.858 175.279 168.763 175.272C168.673 175.265 168.583 175.261 168.492 175.261C168.268 175.261 168.07 175.294 167.9 175.359C167.73 175.421 167.587 175.511 167.472 175.631C167.359 175.746 167.273 175.887 167.211 176.054C167.149 176.22 167.113 176.407 167.102 176.613L166.804 176.635C166.804 176.266 166.84 175.924 166.912 175.609C166.985 175.294 167.093 175.017 167.238 174.778C167.387 174.539 167.571 174.353 167.792 174.219C168.016 174.085 168.275 174.018 168.568 174.018C168.648 174.018 168.733 174.026 168.823 174.04C168.917 174.055 168.988 174.071 169.035 174.089Z" fill="white"/>
<path d="M172.859 178.822V176.021C172.859 175.811 172.821 175.631 172.745 175.479C172.669 175.327 172.553 175.209 172.398 175.126C172.246 175.042 172.054 175.001 171.822 175.001C171.609 175.001 171.424 175.037 171.269 175.109C171.113 175.182 170.992 175.279 170.905 175.403C170.818 175.526 170.775 175.665 170.775 175.82H169.472C169.472 175.589 169.528 175.365 169.64 175.147C169.752 174.93 169.915 174.737 170.129 174.567C170.342 174.397 170.597 174.263 170.894 174.165C171.191 174.067 171.524 174.018 171.893 174.018C172.334 174.018 172.725 174.093 173.065 174.241C173.409 174.389 173.679 174.614 173.874 174.914C174.073 175.211 174.173 175.583 174.173 176.032V178.643C174.173 178.911 174.191 179.152 174.227 179.365C174.267 179.575 174.323 179.758 174.395 179.913V180H173.054C172.993 179.859 172.944 179.68 172.908 179.463C172.875 179.242 172.859 179.028 172.859 178.822ZM173.049 176.428L173.06 177.237H172.121C171.878 177.237 171.665 177.261 171.48 177.308C171.296 177.351 171.142 177.416 171.019 177.503C170.896 177.59 170.804 177.695 170.742 177.818C170.681 177.941 170.65 178.08 170.65 178.236C170.65 178.392 170.686 178.535 170.758 178.665C170.831 178.791 170.936 178.891 171.073 178.963C171.214 179.036 171.384 179.072 171.583 179.072C171.851 179.072 172.085 179.018 172.284 178.909C172.486 178.797 172.646 178.661 172.761 178.502C172.877 178.339 172.939 178.185 172.946 178.041L173.369 178.621C173.326 178.77 173.252 178.929 173.147 179.099C173.042 179.269 172.904 179.432 172.734 179.588C172.568 179.74 172.367 179.864 172.132 179.962C171.9 180.06 171.632 180.109 171.328 180.109C170.945 180.109 170.603 180.033 170.302 179.881C170.002 179.725 169.767 179.517 169.597 179.256C169.427 178.992 169.342 178.694 169.342 178.361C169.342 178.05 169.4 177.775 169.515 177.536C169.635 177.293 169.808 177.091 170.036 176.928C170.268 176.765 170.55 176.642 170.883 176.559C171.216 176.472 171.596 176.428 172.023 176.428H173.049Z" fill="white"/>
<path d="M176.727 175.381V180H175.418V174.127H176.651L176.727 175.381ZM176.493 176.846L176.07 176.841C176.073 176.425 176.131 176.043 176.244 175.696C176.359 175.348 176.519 175.05 176.721 174.8C176.927 174.55 177.174 174.359 177.459 174.225C177.745 174.087 178.064 174.018 178.415 174.018C178.697 174.018 178.952 174.058 179.18 174.138C179.412 174.214 179.609 174.339 179.772 174.512C179.938 174.686 180.065 174.912 180.152 175.191C180.239 175.466 180.282 175.804 180.282 176.206V180H178.968V176.2C178.968 175.918 178.927 175.696 178.844 175.533C178.764 175.366 178.646 175.249 178.491 175.18C178.339 175.108 178.149 175.071 177.921 175.071C177.696 175.071 177.496 175.118 177.318 175.213C177.141 175.307 176.991 175.435 176.868 175.598C176.748 175.761 176.656 175.949 176.591 176.162C176.526 176.376 176.493 176.604 176.493 176.846Z" fill="white"/>
<path d="M185.089 178.784V171.663H186.402V180H185.214L185.089 178.784ZM181.267 177.129V177.015C181.267 176.57 181.32 176.164 181.425 175.799C181.53 175.43 181.682 175.113 181.881 174.849C182.08 174.581 182.322 174.377 182.608 174.236C182.894 174.091 183.216 174.018 183.574 174.018C183.929 174.018 184.24 174.087 184.508 174.225C184.776 174.362 185.004 174.559 185.192 174.816C185.38 175.07 185.53 175.374 185.642 175.728C185.755 176.079 185.834 176.47 185.881 176.901V177.264C185.834 177.684 185.755 178.068 185.642 178.415C185.53 178.763 185.38 179.063 185.192 179.316C185.004 179.569 184.774 179.765 184.502 179.902C184.235 180.04 183.922 180.109 183.563 180.109C183.209 180.109 182.888 180.034 182.603 179.886C182.32 179.738 182.08 179.53 181.881 179.262C181.682 178.994 181.53 178.679 181.425 178.317C181.32 177.952 181.267 177.556 181.267 177.129ZM182.575 177.015V177.129C182.575 177.396 182.599 177.646 182.646 177.878C182.697 178.109 182.775 178.314 182.879 178.491C182.984 178.665 183.12 178.802 183.287 178.904C183.457 179.001 183.659 179.05 183.895 179.05C184.191 179.05 184.435 178.985 184.627 178.855C184.819 178.725 184.969 178.549 185.078 178.328C185.19 178.104 185.266 177.854 185.306 177.579V176.597C185.284 176.383 185.239 176.184 185.17 176C185.105 175.815 185.016 175.654 184.904 175.517C184.792 175.375 184.653 175.267 184.486 175.191C184.323 175.111 184.13 175.071 183.905 175.071C183.667 175.071 183.464 175.122 183.297 175.223C183.131 175.325 182.993 175.464 182.885 175.641C182.78 175.819 182.702 176.025 182.651 176.26C182.601 176.495 182.575 176.747 182.575 177.015Z" fill="white"/>
<path d="M193.008 174.127V175.082H189.697V174.127H193.008ZM190.653 172.689H191.961V178.377C191.961 178.558 191.986 178.697 192.037 178.795C192.091 178.889 192.165 178.952 192.259 178.985C192.353 179.018 192.464 179.034 192.59 179.034C192.681 179.034 192.768 179.028 192.851 179.018C192.934 179.007 193.001 178.996 193.052 178.985L193.057 179.984C192.949 180.016 192.822 180.045 192.677 180.071C192.536 180.096 192.373 180.109 192.189 180.109C191.888 180.109 191.622 180.056 191.391 179.951C191.159 179.843 190.978 179.667 190.848 179.425C190.718 179.182 190.653 178.86 190.653 178.459V172.689Z" fill="white"/>
<path d="M196.496 180.109C196.062 180.109 195.669 180.038 195.318 179.897C194.971 179.752 194.674 179.551 194.428 179.294C194.186 179.038 193.999 178.735 193.869 178.388C193.739 178.041 193.673 177.666 193.673 177.264V177.047C193.673 176.588 193.74 176.172 193.874 175.799C194.008 175.426 194.195 175.108 194.433 174.843C194.672 174.576 194.954 174.371 195.28 174.23C195.606 174.089 195.959 174.018 196.339 174.018C196.758 174.018 197.126 174.089 197.441 174.23C197.755 174.371 198.016 174.57 198.222 174.827C198.432 175.08 198.588 175.383 198.689 175.734C198.794 176.085 198.846 176.472 198.846 176.895V177.454H194.309V176.515H197.555V176.412C197.547 176.177 197.5 175.956 197.413 175.75C197.33 175.544 197.202 175.377 197.028 175.251C196.854 175.124 196.623 175.061 196.333 175.061C196.116 175.061 195.923 175.108 195.752 175.202C195.586 175.292 195.447 175.424 195.334 175.598C195.222 175.772 195.135 175.982 195.074 176.228C195.016 176.47 194.987 176.743 194.987 177.047V177.264C194.987 177.521 195.021 177.76 195.09 177.981C195.163 178.198 195.268 178.388 195.405 178.551C195.543 178.714 195.709 178.842 195.904 178.936C196.1 179.027 196.322 179.072 196.572 179.072C196.887 179.072 197.167 179.009 197.413 178.882C197.659 178.755 197.873 178.576 198.054 178.345L198.743 179.012C198.617 179.197 198.452 179.374 198.249 179.544C198.047 179.711 197.799 179.846 197.506 179.951C197.216 180.056 196.88 180.109 196.496 180.109Z" fill="white"/>
<path d="M200.754 174.127L201.873 176.076L203.013 174.127H204.451L202.671 177.009L204.522 180H203.083L201.889 177.97L200.695 180H199.251L201.096 177.009L199.321 174.127H200.754Z" fill="white"/>
<path d="M207.928 174.127V175.082H204.617V174.127H207.928ZM205.572 172.689H206.88V178.377C206.88 178.558 206.906 178.697 206.956 178.795C207.01 178.889 207.085 178.952 207.179 178.985C207.273 179.018 207.383 179.034 207.51 179.034C207.6 179.034 207.687 179.028 207.77 179.018C207.854 179.007 207.921 178.996 207.971 178.985L207.977 179.984C207.868 180.016 207.741 180.045 207.597 180.071C207.456 180.096 207.293 180.109 207.108 180.109C206.808 180.109 206.542 180.056 206.31 179.951C206.079 179.843 205.898 179.667 205.767 179.425C205.637 179.182 205.572 178.86 205.572 178.459V172.689Z" fill="white"/>
<path d="M212.775 171.663V180H211.473V171.663H212.775ZM212.547 176.846L212.124 176.841C212.128 176.436 212.184 176.061 212.292 175.717C212.404 175.374 212.56 175.075 212.759 174.822C212.962 174.565 213.204 174.368 213.486 174.23C213.769 174.089 214.082 174.018 214.425 174.018C214.715 174.018 214.975 174.058 215.207 174.138C215.442 174.217 215.645 174.346 215.815 174.523C215.985 174.697 216.114 174.925 216.2 175.207C216.291 175.486 216.336 175.826 216.336 176.228V180H215.022V176.217C215.022 175.934 214.981 175.71 214.898 175.544C214.818 175.377 214.7 175.258 214.545 175.185C214.389 175.109 214.199 175.071 213.975 175.071C213.74 175.071 213.532 175.118 213.351 175.213C213.173 175.307 213.025 175.435 212.906 175.598C212.786 175.761 212.696 175.949 212.634 176.162C212.576 176.376 212.547 176.604 212.547 176.846Z" fill="white"/>
<path d="M220.139 180.109C219.704 180.109 219.312 180.038 218.961 179.897C218.613 179.752 218.317 179.551 218.07 179.294C217.828 179.038 217.642 178.735 217.511 178.388C217.381 178.041 217.316 177.666 217.316 177.264V177.047C217.316 176.588 217.383 176.172 217.517 175.799C217.651 175.426 217.837 175.108 218.076 174.843C218.315 174.576 218.597 174.371 218.923 174.23C219.248 174.089 219.601 174.018 219.981 174.018C220.401 174.018 220.768 174.089 221.083 174.23C221.398 174.371 221.658 174.57 221.865 174.827C222.075 175.08 222.23 175.383 222.331 175.734C222.436 176.085 222.489 176.472 222.489 176.895V177.454H217.951V176.515H221.197V176.412C221.19 176.177 221.143 175.956 221.056 175.75C220.973 175.544 220.844 175.377 220.67 175.251C220.497 175.124 220.265 175.061 219.976 175.061C219.759 175.061 219.565 175.108 219.395 175.202C219.228 175.292 219.089 175.424 218.977 175.598C218.865 175.772 218.778 175.982 218.716 176.228C218.658 176.47 218.63 176.743 218.63 177.047V177.264C218.63 177.521 218.664 177.76 218.733 177.981C218.805 178.198 218.91 178.388 219.048 178.551C219.185 178.714 219.351 178.842 219.547 178.936C219.742 179.027 219.965 179.072 220.215 179.072C220.529 179.072 220.81 179.009 221.056 178.882C221.302 178.755 221.515 178.576 221.696 178.345L222.386 179.012C222.259 179.197 222.094 179.374 221.892 179.544C221.689 179.711 221.441 179.846 221.148 179.951C220.859 180.056 220.522 180.109 220.139 180.109Z" fill="white"/>
<path d="M224.712 175.245V180H223.404V174.127H224.652L224.712 175.245ZM226.508 174.089L226.498 175.305C226.418 175.29 226.331 175.279 226.237 175.272C226.147 175.265 226.056 175.261 225.966 175.261C225.741 175.261 225.544 175.294 225.374 175.359C225.204 175.421 225.061 175.511 224.945 175.631C224.833 175.746 224.746 175.887 224.685 176.054C224.623 176.22 224.587 176.407 224.576 176.613L224.278 176.635C224.278 176.266 224.314 175.924 224.386 175.609C224.458 175.294 224.567 175.017 224.712 174.778C224.86 174.539 225.045 174.353 225.265 174.219C225.49 174.085 225.749 174.018 226.042 174.018C226.121 174.018 226.206 174.026 226.297 174.04C226.391 174.055 226.461 174.071 226.508 174.089Z" fill="white"/>
<path d="M229.698 180.109C229.263 180.109 228.871 180.038 228.52 179.897C228.172 179.752 227.876 179.551 227.629 179.294C227.387 179.038 227.201 178.735 227.07 178.388C226.94 178.041 226.875 177.666 226.875 177.264V177.047C226.875 176.588 226.942 176.172 227.076 175.799C227.21 175.426 227.396 175.108 227.635 174.843C227.874 174.576 228.156 174.371 228.482 174.23C228.807 174.089 229.16 174.018 229.54 174.018C229.96 174.018 230.327 174.089 230.642 174.23C230.957 174.371 231.217 174.57 231.424 174.827C231.634 175.08 231.789 175.383 231.891 175.734C231.995 176.085 232.048 176.472 232.048 176.895V177.454H227.51V176.515H230.756V176.412C230.749 176.177 230.702 175.956 230.615 175.75C230.532 175.544 230.403 175.377 230.23 175.251C230.056 175.124 229.824 175.061 229.535 175.061C229.318 175.061 229.124 175.108 228.954 175.202C228.787 175.292 228.648 175.424 228.536 175.598C228.424 175.772 228.337 175.982 228.275 176.228C228.218 176.47 228.189 176.743 228.189 177.047V177.264C228.189 177.521 228.223 177.76 228.292 177.981C228.364 178.198 228.469 178.388 228.607 178.551C228.744 178.714 228.911 178.842 229.106 178.936C229.301 179.027 229.524 179.072 229.774 179.072C230.088 179.072 230.369 179.009 230.615 178.882C230.861 178.755 231.074 178.576 231.255 178.345L231.945 179.012C231.818 179.197 231.653 179.374 231.451 179.544C231.248 179.711 231 179.846 230.707 179.951C230.418 180.056 230.081 180.109 229.698 180.109Z" fill="white"/>
<rect x="242" y="167" width="44" height="18" rx="3" fill="white"/>
<path d="M250.223 176.531C250.223 176.439 250.208 176.358 250.178 176.287C250.15 176.216 250.099 176.152 250.025 176.093C249.952 176.034 249.848 175.977 249.714 175.922C249.582 175.866 249.413 175.808 249.207 175.749C248.982 175.684 248.775 175.612 248.584 175.533C248.396 175.452 248.231 175.359 248.091 175.253C247.95 175.146 247.841 175.023 247.763 174.885C247.685 174.746 247.646 174.584 247.646 174.402C247.646 174.221 247.686 174.057 247.766 173.909C247.848 173.761 247.964 173.634 248.114 173.526C248.265 173.417 248.444 173.332 248.649 173.274C248.855 173.213 249.082 173.182 249.331 173.182C249.681 173.182 249.983 173.243 250.236 173.365C250.492 173.487 250.688 173.65 250.824 173.855C250.962 174.059 251.032 174.285 251.032 174.533H250.223C250.223 174.387 250.19 174.258 250.123 174.146C250.058 174.033 249.958 173.944 249.824 173.879C249.692 173.814 249.524 173.782 249.321 173.782C249.128 173.782 248.968 173.809 248.841 173.864C248.713 173.918 248.618 173.992 248.555 174.086C248.492 174.179 248.461 174.284 248.461 174.402C248.461 174.485 248.481 174.561 248.523 174.63C248.564 174.697 248.626 174.76 248.711 174.819C248.795 174.875 248.901 174.929 249.029 174.98C249.157 175.03 249.307 175.079 249.48 175.126C249.742 175.199 249.97 175.28 250.165 175.369C250.36 175.456 250.522 175.555 250.652 175.667C250.782 175.779 250.879 175.905 250.944 176.047C251.009 176.187 251.041 176.346 251.041 176.525C251.041 176.711 251.001 176.879 250.921 177.029C250.841 177.177 250.727 177.304 250.577 177.41C250.43 177.513 250.253 177.593 250.045 177.65C249.839 177.705 249.61 177.732 249.357 177.732C249.13 177.732 248.906 177.703 248.685 177.647C248.466 177.59 248.267 177.504 248.088 177.388C247.908 177.271 247.765 177.125 247.659 176.95C247.553 176.774 247.5 176.568 247.5 176.333H248.315C248.315 176.477 248.341 176.6 248.393 176.701C248.447 176.802 248.521 176.885 248.617 176.95C248.712 177.013 248.822 177.06 248.948 177.09C249.075 177.121 249.212 177.136 249.357 177.136C249.547 177.136 249.706 177.11 249.834 177.06C249.964 177.009 250.061 176.938 250.126 176.847C250.191 176.756 250.223 176.65 250.223 176.531Z" fill="#1F2937"/>
<path d="M253.228 174.381V174.916H251.248V174.381H253.228ZM251.819 173.575H252.601V176.762C252.601 176.863 252.616 176.941 252.647 176.996C252.679 177.049 252.724 177.084 252.78 177.102C252.836 177.121 252.902 177.13 252.978 177.13C253.032 177.13 253.084 177.127 253.134 177.121C253.183 177.115 253.223 177.108 253.254 177.102L253.257 177.662C253.192 177.68 253.116 177.696 253.03 177.711C252.945 177.725 252.848 177.732 252.738 177.732C252.558 177.732 252.399 177.702 252.26 177.644C252.122 177.583 252.014 177.485 251.936 177.349C251.858 177.213 251.819 177.032 251.819 176.807V173.575Z" fill="#1F2937"/>
<path d="M255.745 177.011V175.442C255.745 175.324 255.722 175.223 255.677 175.138C255.631 175.053 255.562 174.987 255.469 174.94C255.378 174.894 255.264 174.87 255.125 174.87C254.997 174.87 254.887 174.891 254.794 174.931C254.701 174.972 254.628 175.026 254.577 175.095C254.525 175.164 254.499 175.242 254.499 175.329H253.72C253.72 175.2 253.753 175.074 253.82 174.952C253.887 174.831 253.985 174.722 254.112 174.627C254.24 174.532 254.393 174.457 254.57 174.402C254.747 174.347 254.947 174.32 255.167 174.32C255.431 174.32 255.665 174.361 255.868 174.445C256.074 174.528 256.235 174.653 256.352 174.822C256.471 174.988 256.531 175.197 256.531 175.448V176.911C256.531 177.061 256.541 177.196 256.563 177.315C256.587 177.433 256.62 177.535 256.664 177.622V177.671H255.862C255.825 177.592 255.796 177.492 255.774 177.37C255.755 177.246 255.745 177.127 255.745 177.011ZM255.859 175.67L255.865 176.123H255.304C255.159 176.123 255.031 176.136 254.921 176.163C254.81 176.187 254.718 176.224 254.645 176.272C254.571 176.321 254.516 176.38 254.479 176.449C254.442 176.517 254.424 176.596 254.424 176.683C254.424 176.77 254.446 176.85 254.489 176.923C254.532 176.994 254.595 177.05 254.677 177.09C254.762 177.131 254.863 177.151 254.982 177.151C255.142 177.151 255.282 177.121 255.401 177.06C255.522 176.997 255.617 176.921 255.687 176.832C255.756 176.74 255.793 176.654 255.797 176.573L256.05 176.899C256.024 176.982 255.98 177.071 255.917 177.166C255.854 177.262 255.772 177.353 255.67 177.44C255.571 177.525 255.451 177.595 255.31 177.65C255.172 177.705 255.011 177.732 254.83 177.732C254.6 177.732 254.396 177.689 254.216 177.604C254.037 177.517 253.896 177.4 253.794 177.254C253.693 177.106 253.642 176.939 253.642 176.753C253.642 176.578 253.676 176.424 253.746 176.29C253.817 176.155 253.921 176.041 254.057 175.95C254.196 175.859 254.364 175.79 254.564 175.743C254.763 175.694 254.99 175.67 255.245 175.67H255.859Z" fill="#1F2937"/>
<path d="M258.068 175.007V177.671H257.285V174.381H258.032L258.068 175.007ZM259.142 174.359L259.136 175.041C259.088 175.032 259.036 175.026 258.98 175.022C258.926 175.018 258.872 175.016 258.818 175.016C258.683 175.016 258.565 175.034 258.464 175.071C258.362 175.105 258.277 175.156 258.207 175.223C258.14 175.288 258.088 175.367 258.051 175.46C258.015 175.553 257.993 175.658 257.987 175.773L257.808 175.786C257.808 175.579 257.83 175.387 257.873 175.211C257.916 175.034 257.981 174.879 258.068 174.746C258.156 174.612 258.267 174.507 258.399 174.432C258.533 174.357 258.688 174.32 258.863 174.32C258.911 174.32 258.961 174.324 259.016 174.332C259.072 174.34 259.114 174.349 259.142 174.359Z" fill="#1F2937"/>
<path d="M261.338 174.381V174.916H259.358V174.381H261.338ZM259.929 173.575H260.712V176.762C260.712 176.863 260.727 176.941 260.757 176.996C260.79 177.049 260.834 177.084 260.89 177.102C260.946 177.121 261.012 177.13 261.088 177.13C261.142 177.13 261.194 177.127 261.244 177.121C261.294 177.115 261.334 177.108 261.364 177.102L261.367 177.662C261.302 177.68 261.227 177.696 261.14 177.711C261.056 177.725 260.958 177.732 260.848 177.732C260.668 177.732 260.509 177.702 260.371 177.644C260.232 177.583 260.124 177.485 260.046 177.349C259.968 177.213 259.929 177.032 259.929 176.807V173.575Z" fill="#1F2937"/>
<path d="M265.331 173.243V177.671H264.523V173.243H265.331ZM266.814 173.243V173.851H263.052V173.243H266.814Z" fill="#1F2937"/>
<path d="M266.689 176.062V175.992C266.689 175.755 266.726 175.535 266.8 175.332C266.873 175.128 266.979 174.95 267.118 174.8C267.259 174.648 267.43 174.531 267.631 174.448C267.834 174.362 268.064 174.32 268.319 174.32C268.577 174.32 268.806 174.362 269.007 174.448C269.211 174.531 269.383 174.648 269.523 174.8C269.664 174.95 269.771 175.128 269.845 175.332C269.918 175.535 269.955 175.755 269.955 175.992V176.062C269.955 176.3 269.918 176.52 269.845 176.722C269.771 176.925 269.664 177.102 269.523 177.254C269.383 177.404 269.212 177.522 269.01 177.607C268.809 177.69 268.581 177.732 268.325 177.732C268.068 177.732 267.838 177.69 267.634 177.607C267.433 177.522 267.262 177.404 267.121 177.254C266.981 177.102 266.873 176.925 266.8 176.722C266.726 176.52 266.689 176.3 266.689 176.062ZM267.472 175.992V176.062C267.472 176.21 267.488 176.35 267.52 176.482C267.553 176.614 267.604 176.729 267.673 176.829C267.742 176.928 267.831 177.006 267.939 177.063C268.047 177.12 268.176 177.148 268.325 177.148C268.47 177.148 268.596 177.12 268.702 177.063C268.81 177.006 268.899 176.928 268.968 176.829C269.037 176.729 269.088 176.614 269.121 176.482C269.155 176.35 269.173 176.21 269.173 176.062V175.992C269.173 175.846 269.155 175.709 269.121 175.579C269.088 175.447 269.036 175.33 268.965 175.229C268.896 175.128 268.807 175.049 268.699 174.992C268.593 174.933 268.466 174.904 268.319 174.904C268.172 174.904 268.044 174.933 267.936 174.992C267.83 175.049 267.742 175.128 267.673 175.229C267.604 175.33 267.553 175.447 267.52 175.579C267.488 175.709 267.472 175.846 267.472 175.992Z" fill="#1F2937"/>
<path d="M272.687 176.99V173H273.472V177.671H272.761L272.687 176.99ZM270.401 176.062V175.998C270.401 175.749 270.433 175.522 270.496 175.317C270.558 175.11 270.649 174.933 270.768 174.785C270.887 174.635 271.032 174.521 271.203 174.441C271.374 174.36 271.567 174.32 271.781 174.32C271.993 174.32 272.179 174.358 272.339 174.435C272.499 174.512 272.636 174.623 272.748 174.767C272.861 174.909 272.951 175.079 273.018 175.278C273.085 175.474 273.132 175.693 273.161 175.935V176.138C273.132 176.374 273.085 176.588 273.018 176.783C272.951 176.978 272.861 177.146 272.748 177.288C272.636 177.43 272.498 177.539 272.336 177.616C272.176 177.693 271.989 177.732 271.774 177.732C271.562 177.732 271.371 177.69 271.2 177.607C271.031 177.524 270.887 177.408 270.768 177.257C270.649 177.107 270.558 176.931 270.496 176.728C270.433 176.524 270.401 176.302 270.401 176.062ZM271.184 175.998V176.062C271.184 176.212 271.198 176.352 271.226 176.482C271.256 176.612 271.303 176.726 271.365 176.826C271.428 176.923 271.509 177 271.609 177.057C271.711 177.112 271.832 177.139 271.972 177.139C272.15 177.139 272.296 177.102 272.411 177.029C272.525 176.956 272.615 176.858 272.68 176.734C272.747 176.609 272.793 176.469 272.816 176.315V175.764C272.803 175.645 272.776 175.533 272.735 175.43C272.696 175.326 272.643 175.236 272.576 175.159C272.509 175.08 272.426 175.019 272.326 174.977C272.229 174.932 272.113 174.91 271.979 174.91C271.836 174.91 271.715 174.938 271.615 174.995C271.516 175.052 271.434 175.13 271.369 175.229C271.306 175.328 271.259 175.444 271.229 175.576C271.199 175.708 271.184 175.848 271.184 175.998Z" fill="#1F2937"/>
<path d="M276.204 177.011V175.442C276.204 175.324 276.181 175.223 276.136 175.138C276.09 175.053 276.021 174.987 275.928 174.94C275.837 174.894 275.722 174.87 275.584 174.87C275.456 174.87 275.346 174.891 275.253 174.931C275.16 174.972 275.087 175.026 275.035 175.095C274.983 175.164 274.957 175.242 274.957 175.329H274.178C274.178 175.2 274.212 175.074 274.279 174.952C274.346 174.831 274.443 174.722 274.571 174.627C274.699 174.532 274.851 174.457 275.029 174.402C275.206 174.347 275.405 174.32 275.626 174.32C275.89 174.32 276.124 174.361 276.327 174.445C276.533 174.528 276.694 174.653 276.811 174.822C276.93 174.988 276.989 175.197 276.989 175.448V176.911C276.989 177.061 277 177.196 277.022 177.315C277.046 177.433 277.079 177.535 277.122 177.622V177.671H276.321C276.284 177.592 276.255 177.492 276.233 177.37C276.214 177.246 276.204 177.127 276.204 177.011ZM276.317 175.67L276.324 176.123H275.762C275.617 176.123 275.49 176.136 275.379 176.163C275.269 176.187 275.177 176.224 275.103 176.272C275.03 176.321 274.975 176.38 274.938 176.449C274.901 176.517 274.883 176.596 274.883 176.683C274.883 176.77 274.904 176.85 274.948 176.923C274.991 176.994 275.054 177.05 275.136 177.09C275.22 177.131 275.322 177.151 275.441 177.151C275.601 177.151 275.741 177.121 275.86 177.06C275.981 176.997 276.076 176.921 276.145 176.832C276.215 176.74 276.251 176.654 276.256 176.573L276.509 176.899C276.483 176.982 276.439 177.071 276.376 177.166C276.313 177.262 276.231 177.353 276.129 177.44C276.03 177.525 275.909 177.595 275.769 177.65C275.63 177.705 275.47 177.732 275.288 177.732C275.059 177.732 274.855 177.689 274.675 177.604C274.495 177.517 274.355 177.4 274.253 177.254C274.151 177.106 274.1 176.939 274.1 176.753C274.1 176.578 274.135 176.424 274.204 176.29C274.276 176.155 274.38 176.041 274.516 175.95C274.654 175.859 274.823 175.79 275.022 175.743C275.221 175.694 275.449 175.67 275.704 175.67H276.317Z" fill="#1F2937"/>
<path d="M278.708 177.312L279.663 174.381H280.5L279.091 178.173C279.059 178.254 279.017 178.342 278.965 178.437C278.913 178.533 278.845 178.623 278.76 178.708C278.678 178.795 278.575 178.865 278.452 178.918C278.328 178.973 278.179 179 278.004 179C277.935 179 277.867 178.994 277.803 178.982C277.74 178.972 277.68 178.96 277.624 178.948L277.621 178.389C277.642 178.391 277.668 178.393 277.699 178.395C277.731 178.397 277.757 178.398 277.777 178.398C277.906 178.398 278.015 178.383 278.101 178.352C278.188 178.324 278.258 178.277 278.312 178.212C278.368 178.147 278.416 178.06 278.455 177.951L278.708 177.312ZM278.169 174.381L279.004 176.844L279.143 177.616L278.601 177.747L277.325 174.381H278.169Z" fill="#1F2937"/>
<circle cx="70" cy="176" r="11" fill="white"/>
<rect x="54" y="106" width="160" height="16" rx="4" fill="#EFF2F5"/>
<rect x="54" y="126" width="113" height="8" rx="4" fill="#EFF2F5"/>
<rect x="819" y="104" width="89" height="32" rx="4" fill="#EFF2F5"/>
<rect x="819" y="104" width="89" height="32" rx="4" fill="#EFF2F5"/>
<rect x="722" y="104" width="89" height="32" rx="4" fill="#EFF2F5"/>
<rect x="625" y="104" width="89" height="32" rx="4" fill="#EFF2F5"/>
<rect x="528" y="104" width="89" height="32" rx="4" fill="#EFF2F5"/>
</g>
<defs>
<filter id="filter0_d_3272_1912" x="-25" y="0" width="1025" height="700" filterUnits="userSpaceOnUse" color-interpolation-filters="sRGB">
<feFlood flood-opacity="0" result="BackgroundImageFix"/>
<feColorMatrix in="SourceAlpha" type="matrix" values="0 0 0 0 0 0 0 0 0 0 0 0 0 0 0 0 0 0 127 0" result="hardAlpha"/>
<feOffset dy="25"/>
<feGaussianBlur stdDeviation="12.5"/>
<feComposite in2="hardAlpha" operator="out"/>
<feColorMatrix type="matrix" values="0 0 0 0 0 0 0 0 0 0 0 0 0 0 0 0 0 0 0.15 0"/>
<feBlend mode="normal" in2="BackgroundImageFix" result="effect1_dropShadow_3272_1912"/>
<feBlend mode="normal" in="SourceGraphic" in2="effect1_dropShadow_3272_1912" result="shape"/>
</filter>
<clipPath id="clip0_3272_1912">
<rect width="975" height="650" fill="white"/>
</clipPath>
<clipPath id="clip1_3272_1912">
<rect width="108.301" height="24.7474" fill="white" transform="translate(54.1667 45.3643)"/>
</clipPath>
</defs>
</svg>
