<svg width="89" height="89" viewBox="0 0 89 89" fill="none" xmlns="http://www.w3.org/2000/svg">
<g clip-path="url(#clip0_89_154)">
<path d="M60.8684 58.7585V31.4488C60.4542 31.6722 60.0574 31.9265 59.6815 32.2097C56.7293 34.7459 53.7873 37.282 50.8454 39.8487C50.3381 40.295 49.8309 40.6805 49.1715 40.1327C48.5121 39.5849 48.7353 38.9661 49.1715 38.3472C51.4101 35.0333 53.6183 31.7193 55.796 28.4054C56.8105 26.8837 57.825 25.3653 58.8394 23.8504C59.4372 22.8738 60.3426 22.1237 61.4132 21.7178C62.4838 21.312 63.6589 21.2735 64.7538 21.6084C65.8458 21.9463 66.7916 22.6432 67.4379 23.5859C68.0842 24.5287 68.3932 25.6622 68.3146 26.8025V63.557C68.3146 66.2352 67.219 68.0105 65.048 68.8323C63.8821 69.3076 62.5974 69.4098 61.371 69.1245C60.1446 68.8392 59.0368 68.1807 58.2003 67.2395C52.3637 60.2396 46.5203 53.2262 40.6702 46.1993C36.8152 41.6003 32.9703 36.9946 29.1356 32.3821C28.9477 32.0674 28.8108 31.7251 28.7298 31.3676L28.1617 31.7937V59.1846C28.5828 58.9378 28.9893 58.6669 29.379 58.373C32.1486 55.989 34.9079 53.5847 37.6673 51.1905L38.1137 50.805C38.6615 50.2876 39.3615 49.9326 39.8586 50.6123C39.9904 50.8698 40.0591 51.1549 40.0591 51.4441C40.0591 51.7334 39.9904 52.0185 39.8586 52.276C36.5649 57.2064 33.2408 62.0995 29.8863 66.9555C29.3686 67.6919 28.6698 68.2824 27.8573 68.6699C27.0823 69.0408 26.2249 69.2061 25.3675 69.1501C24.5101 69.094 23.6815 68.8185 22.9613 68.3499C22.2411 67.8813 21.6535 67.2354 21.2548 66.4742C20.8562 65.7131 20.66 64.8622 20.685 64.0033C20.685 56.0228 20.685 48.0321 20.685 40.0313C20.685 35.5777 20.685 31.1242 20.685 26.6808C20.685 23.5257 22.7139 21.5577 25.8994 21.4156C26.9664 21.3462 28.0335 21.549 29.0006 22.005C29.9677 22.4611 30.8031 23.1554 31.4283 24.0228C40.8697 35.4526 50.3449 46.8418 59.8539 58.1904C60.0508 58.4842 60.2109 58.8011 60.3307 59.1339L60.8684 58.7585Z" fill="#aaa"/>
<path d="M44.505 89C35.7018 89.002 27.0958 86.3933 19.7755 81.5038C12.4551 76.6143 6.7492 69.6637 3.37945 61.531C0.00971319 53.3983 -0.872491 44.449 0.844424 35.8149C2.56134 27.1809 6.80024 19.2499 13.025 13.0251C19.2498 6.80036 27.1807 2.56146 35.8148 0.844546C44.4489 -0.872369 53.3982 0.00983526 61.5309 3.37958C69.6635 6.74932 76.6142 12.4552 81.5037 19.7756C86.3932 27.096 89.0019 35.702 88.9999 44.5051C88.9865 56.3018 84.2943 67.6114 75.9528 75.9529C67.6113 84.2945 56.3017 88.9866 44.505 89ZM44.505 0.7406C35.8459 0.736586 27.3801 3.30077 20.1785 8.1088C12.9769 12.9168 7.36306 19.7527 4.04705 27.7517C0.731033 35.7507 -0.138154 44.5535 1.54943 53.0465C3.23702 61.5396 7.40555 69.3414 13.5278 75.465C19.65 81.5886 27.4508 85.759 35.9434 87.4485C44.4361 89.1381 53.2391 88.2709 61.2389 84.9568C69.2386 81.6426 76.0758 76.0303 80.8855 68.8299C85.6952 61.6294 88.2614 53.1642 88.2593 44.5051C88.2459 32.903 83.6324 21.7796 75.4304 13.5737C67.2284 5.36789 56.1071 0.749247 44.505 0.730455V0.7406Z" fill="#aaa"/>
</g>
<defs>
<clipPath id="clip0_89_154">
<rect width="89" height="89" fill="white"/>
</clipPath>
</defs>
</svg>
