<svg width="38" height="38" viewBox="0 0 38 38" fill="none" xmlns="http://www.w3.org/2000/svg">
<g clip-path="url(#clip0_740_3293)">
<path opacity="0.5" d="M19 38C8.52348 38 0 29.4765 0 19C0 8.52348 8.52348 0 19 0C29.4765 0 38 8.52348 38 19C38 29.4765 29.4765 38 19 38ZM19 1.1996C9.18432 1.1996 1.1996 9.18432 1.1996 19C1.1996 28.8157 9.18432 36.8004 19 36.8004C28.8157 36.8004 36.8004 28.8157 36.8004 19C36.8004 9.18432 28.8157 1.1996 19 1.1996V1.1996Z" fill="#033F40"/>
<path d="M28.3193 16.4324H9.67289C9.27723 16.4324 8.95312 16.1083 8.95312 15.7126C8.95312 15.317 9.27723 14.9929 9.67289 14.9929H26.5809L22.658 11.07C22.376 10.7879 22.376 10.3334 22.658 10.0514C22.9401 9.76934 23.3946 9.76934 23.6767 10.0514L28.8328 15.2075C29.0391 15.4138 29.1022 15.7253 28.9886 15.9904C28.8791 16.2598 28.614 16.4366 28.3235 16.4366L28.3193 16.4324Z" fill="#033F40"/>
<path d="M28.3188 17.0642H9.67242C8.9274 17.0642 8.32129 16.4581 8.32129 15.7131C8.32129 14.968 8.9274 14.3619 9.67242 14.3619H25.0568L22.2114 11.5166C21.9546 11.2598 21.8157 10.9231 21.8157 10.5611C21.8157 10.1991 21.9546 9.86237 22.2114 9.60561C22.7207 9.09631 23.613 9.09631 24.1224 9.60561L29.2743 14.7576C29.6616 15.1448 29.7794 15.7215 29.569 16.2308C29.3585 16.7359 28.8702 17.0642 28.3188 17.0642ZM9.67242 15.6247C9.62191 15.6247 9.58403 15.6625 9.58403 15.7131C9.58403 15.7636 9.62191 15.8014 9.67242 15.8014H28.3188C28.3525 15.8014 28.3862 15.7804 28.3988 15.7467C28.4115 15.7131 28.403 15.6752 28.3778 15.6499L23.2216 10.4937C23.1921 10.4643 23.1248 10.4643 23.0953 10.4937C23.0659 10.5232 23.0659 10.5905 23.0953 10.62L28.1 15.6247H9.67242V15.6247Z" fill="#033F40"/>
<path d="M14.8664 27.9111C14.6812 27.9111 14.496 27.8396 14.3571 27.7007L9.20096 22.5445C8.99472 22.3382 8.93158 22.0268 9.04522 21.7616C9.15466 21.4922 9.41984 21.3154 9.71027 21.3154H28.3567C28.7524 21.3154 29.0765 21.6395 29.0765 22.0352C29.0765 22.4308 28.7524 22.755 28.3567 22.755H11.4486L15.3715 26.6779C15.6536 26.9599 15.6536 27.4145 15.3715 27.6965C15.2326 27.8354 15.0474 27.9069 14.8622 27.9069L14.8664 27.9111Z" fill="#033F40"/>
<path d="M14.8669 28.5381C14.5049 28.5381 14.1682 28.3992 13.9115 28.1425L8.75527 22.9863C8.36803 22.599 8.25018 22.0224 8.46063 21.5131C8.67109 21.008 9.15935 20.6797 9.71074 20.6797H28.3572C29.1022 20.6797 29.7083 21.2858 29.7083 22.0308C29.7083 22.7758 29.1022 23.3819 28.3572 23.3819H12.9728L15.8182 26.2273C16.0749 26.4841 16.2138 26.8208 16.2138 27.1828C16.2138 27.5448 16.0749 27.8815 15.8182 28.1383C15.5614 28.395 15.2247 28.5339 14.8627 28.5339L14.8669 28.5381ZM9.71074 21.9424C9.67286 21.9424 9.6434 21.9635 9.62656 21.9971C9.61393 22.0308 9.62235 22.0687 9.64761 22.094L14.8038 27.2501C14.8459 27.2922 14.8838 27.2922 14.9301 27.2501C14.9595 27.2207 14.9595 27.1533 14.9301 27.1239L9.92541 22.1192H28.3572C28.4077 22.1192 28.4456 22.0813 28.4456 22.0308C28.4456 21.9803 28.4077 21.9424 28.3572 21.9424H9.71074Z" fill="#033F40"/>
</g>
<defs>
<clipPath id="clip0_740_3293">
<rect width="38" height="38" fill="white"/>
</clipPath>
</defs>
</svg>
