<svg width="30" height="30" viewBox="0 0 30 30" fill="none" xmlns="http://www.w3.org/2000/svg">
<path opacity="0.5" d="M15 30C6.72907 30 0 23.2709 0 15C0 6.72907 6.72907 0 15 0C23.2709 0 30 6.72907 30 15C30 23.2709 23.2709 30 15 30ZM15 0.947054C7.25078 0.947054 0.947054 7.25078 0.947054 15C0.947054 22.7492 7.25078 29.0529 15 29.0529C22.7492 29.0529 29.0529 22.7492 29.0529 15C29.0529 7.25078 22.7492 0.947054 15 0.947054Z" fill="#31766A"/>
<path d="M22.3565 12.9732H7.63561C7.32325 12.9732 7.06738 12.7173 7.06738 12.405C7.06738 12.0926 7.32325 11.8367 7.63561 11.8367H20.9841L17.8871 8.7397C17.6644 8.51706 17.6644 8.15818 17.8871 7.93554C18.1097 7.71289 18.4686 7.71289 18.6912 7.93554L22.7619 12.0062C22.9247 12.169 22.9746 12.4149 22.8848 12.6243C22.7984 12.837 22.5891 12.9765 22.3598 12.9765L22.3565 12.9732Z" fill="#31766A"/>
<path d="M22.3569 13.4716H7.63602C7.04785 13.4716 6.56934 12.9931 6.56934 12.405C6.56934 11.8168 7.04785 11.3383 7.63602 11.3383H19.7816L17.5352 9.09194C17.3325 8.88924 17.2229 8.6234 17.2229 8.33762C17.2229 8.05184 17.3325 7.786 17.5352 7.5833C17.9373 7.18122 18.6418 7.18122 19.0439 7.5833L23.1112 11.6506C23.4169 11.9564 23.51 12.4116 23.3438 12.8137C23.1777 13.2125 22.7922 13.4716 22.3569 13.4716ZM7.63602 12.3352C7.59614 12.3352 7.56623 12.3651 7.56623 12.405C7.56623 12.4448 7.59614 12.4748 7.63602 12.4748H22.3569C22.3835 12.4748 22.4101 12.4581 22.42 12.4316C22.43 12.405 22.4233 12.3751 22.4034 12.3551L18.3327 8.28445C18.3095 8.26119 18.2563 8.26119 18.233 8.28445C18.2098 8.30771 18.2098 8.36088 18.233 8.38414L22.1841 12.3352H7.63602Z" fill="#31766A"/>
<path d="M11.7366 22.0348C11.5904 22.0348 11.4441 21.9783 11.3345 21.8686L7.26382 17.798C7.10099 17.6351 7.05114 17.3892 7.14086 17.1799C7.22726 16.9672 7.43661 16.8276 7.6659 16.8276H22.3868C22.6991 16.8276 22.955 17.0835 22.955 17.3959C22.955 17.7082 22.6991 17.9641 22.3868 17.9641H9.03829L12.1353 21.0611C12.358 21.2838 12.358 21.6427 12.1353 21.8653C12.0257 21.975 11.8795 22.0314 11.7332 22.0314L11.7366 22.0348Z" fill="#31766A"/>
<path d="M11.7367 22.5297C11.451 22.5297 11.1851 22.4201 10.9824 22.2174L6.91175 18.1467C6.60603 17.841 6.51299 17.3857 6.67914 16.9836C6.84529 16.5849 7.23075 16.3257 7.66607 16.3257H22.3869C22.9751 16.3257 23.4536 16.8042 23.4536 17.3924C23.4536 17.9805 22.9751 18.459 22.3869 18.459H10.2414L12.4877 20.7054C12.6904 20.9081 12.8001 21.1739 12.8001 21.4597C12.8001 21.7455 12.6904 22.0113 12.4877 22.214C12.285 22.4167 12.0192 22.5264 11.7334 22.5264L11.7367 22.5297ZM7.66607 17.3226C7.63616 17.3226 7.6129 17.3392 7.59961 17.3658C7.58964 17.3924 7.59628 17.4223 7.61622 17.4422L11.6869 21.5129C11.7201 21.5461 11.75 21.5461 11.7866 21.5129C11.8098 21.4896 11.8098 21.4364 11.7866 21.4132L7.83554 17.4621H22.3869C22.4268 17.4621 22.4567 17.4322 22.4567 17.3924C22.4567 17.3525 22.4268 17.3226 22.3869 17.3226H7.66607Z" fill="#31766A"/>
</svg>
