<svg width="13" height="13" viewBox="0 0 13 13" fill="none" xmlns="http://www.w3.org/2000/svg">
<path d="M6.5 0C2.91038 0 0 2.91038 0 6.5C0 10.0896 2.91038 13 6.5 13C10.0896 13 13 10.0896 13 6.5C13 2.91038 10.0896 0 6.5 0ZM9.78575 5.22438C9.88488 7.41271 8.25283 9.85238 5.36358 9.85238C4.485 9.85238 3.66763 9.59454 2.97917 9.15308C3.80467 9.25058 4.62854 9.02092 5.28233 8.50904C4.602 8.49658 4.02729 8.04646 3.8285 7.42842C4.07279 7.475 4.31329 7.46146 4.53158 7.40188C3.78354 7.25129 3.26679 6.57746 3.28358 5.8565C3.49375 5.97296 3.73317 6.04283 3.98829 6.05096C3.2955 5.58783 3.09942 4.67296 3.50675 3.97367C4.27375 4.91508 5.42046 5.53421 6.71342 5.59921C6.48646 4.62638 7.22475 3.68875 8.22954 3.68875C8.67642 3.68875 9.08104 3.87779 9.36487 4.18004C9.71912 4.11071 10.0528 3.98071 10.3529 3.8025C10.2364 4.16596 9.98996 4.47038 9.66875 4.66321C9.98346 4.62529 10.2835 4.54188 10.562 4.41783C10.354 4.73092 10.0907 5.005 9.78575 5.22438Z" fill="#4B5563"/>
</svg>
