<svg xmlns="http://www.w3.org/2000/svg" viewBox="0 0 500 500">
  <g transform="matrix(0.4754730463027954, 0, 0, 0.4521059989929199, 436.0450439453125, 268.1068725585937)" style="">
    <g>
      <path class="st0" d="M64,28" style="fill: rgb(255, 255, 255);"/>
    </g>
  </g>
  <g transform="matrix(1.7734999656677246, 0, 0, 1.6957769393920898, 86.40890502929688, 204.1752166748047)" style="">
    <g>
      <path class="st0" d="M64,72.4l38.2-32.7c-0.6-0.4-1.4-0.7-2.2-0.7H28c-0.8,0-1.6,0.3-2.2,0.7L64,72.4z" style="fill: rgb(255, 255, 255); stroke-width: 5.79828px;"/>
    </g>
    <g>
      <path class="st0" d="M66.6,75.4c-1.5,1.3-3.7,1.3-5.2,0L24,43.5V85c0,2.2,1.8,4,4,4h72c2.2,0,4-1.8,4-4V43.4L66.6,75.4z" style="fill: rgb(255, 255, 255); stroke-width: 5.79828px;"/>
    </g>
  </g>
  <circle cx="261.671" cy="262.638" r="342.366" style="stroke-width: 14.3761px; stroke: rgb(255, 255, 255);" transform="matrix(0.7043429613113403, 0, 0, 0.6949150562286377, 65.94813537597656, 65.79527282714844)"/>
  <path d="M 249.791 86.627 C 163.766 86.627 94.027 158.629 94.027 247.45 C 94.027 336.271 163.766 408.273 249.791 408.273 C 335.819 408.273 405.557 336.271 405.557 247.45 C 405.557 158.629 335.819 86.627 249.791 86.627 Z M 348.529 178.346 L 320.135 178.346 C 316.871 164.203 312.636 151.199 307.609 139.703 C 317.215 145.216 326.136 152.141 334.12 160.383 C 339.516 165.956 344.325 171.972 348.529 178.346 Z M 369.05 247.45 C 369.05 258.198 367.716 268.732 365.148 278.861 L 326.187 278.861 C 327.158 268.702 327.675 258.202 327.675 247.45 C 327.675 236.698 327.158 226.199 326.187 216.04 L 365.148 216.04 C 367.716 226.169 369.05 236.701 369.05 247.45 Z M 249.791 370.58 C 246.627 370.58 236.984 364.158 227.375 344.313 C 223.393 336.091 219.977 326.726 217.181 316.554 L 282.401 316.554 C 279.608 326.725 276.192 336.091 272.209 344.313 C 262.6 364.158 252.956 370.58 249.791 370.58 Z M 210.129 278.861 C 209.005 268.654 208.416 258.111 208.416 247.45 C 208.416 236.789 209.005 226.246 210.129 216.04 L 289.456 216.04 C 290.579 226.246 291.167 236.789 291.167 247.45 C 291.167 258.111 290.579 268.654 289.456 278.861 L 210.129 278.861 Z M 130.534 247.45 C 130.534 236.701 131.868 226.169 134.436 216.04 L 173.397 216.04 C 172.423 226.199 171.908 236.698 171.908 247.45 C 171.908 258.202 172.423 268.702 173.397 278.861 L 134.436 278.861 C 131.868 268.732 130.534 258.198 130.534 247.45 Z M 249.791 124.32 C 252.956 124.32 262.6 130.742 272.209 150.587 C 276.192 158.809 279.608 168.174 282.403 178.346 L 217.181 178.346 C 219.977 168.175 223.393 158.809 227.375 150.587 C 236.984 130.742 246.627 124.32 249.791 124.32 Z M 191.975 139.703 C 186.947 151.199 182.714 164.202 179.448 178.346 L 151.056 178.346 C 155.259 171.972 160.069 165.956 165.465 160.383 C 173.449 152.141 182.37 145.216 191.975 139.703 Z M 151.056 316.554 L 179.448 316.554 C 182.714 330.696 186.947 343.7 191.975 355.197 C 182.37 349.684 173.449 342.76 165.465 334.517 C 160.069 328.944 155.259 322.928 151.056 316.554 Z M 307.609 355.197 C 312.638 343.7 316.871 330.698 320.135 316.554 L 348.529 316.554 C 344.325 322.928 339.516 328.944 334.12 334.517 C 326.134 342.76 317.215 349.684 307.609 355.197 Z" style="stroke-width: 0px; stroke-miterlimit: 1; fill: rgb(255, 255, 255);"/>
</svg>