<svg width="24" height="24" viewBox="0 0 24 24" fill="none" xmlns="http://www.w3.org/2000/svg">
<rect x="0.5" y="0.5" width="23" height="23" rx="11.5" fill="white" stroke="#E9ECEF"/>
<g clip-path="url(#clip0_2400_3348)">
<path d="M11.9994 6.1665C8.77643 6.1665 6.16602 8.77692 6.16602 11.9998C6.16535 13.2244 6.55032 14.4181 7.26631 15.4116C7.98229 16.405 8.99293 17.1478 10.1548 17.5345C10.4465 17.5853 10.5556 17.4103 10.5556 17.2568C10.5556 17.1186 10.548 16.6595 10.548 16.1707C9.08268 16.4408 8.70352 15.8137 8.58685 15.4853C8.52093 15.3173 8.23685 14.7998 7.98893 14.661C7.78477 14.5519 7.4931 14.2818 7.98135 14.2748C8.44102 14.2673 8.76885 14.6978 8.87852 14.8728C9.40352 15.7548 10.2423 15.5068 10.5772 15.354C10.6285 14.9748 10.7813 14.7199 10.9493 14.5741C9.65143 14.4283 8.29518 13.9248 8.29518 11.6936C8.29518 11.0589 8.52093 10.5345 8.8931 10.1256C8.83477 9.97975 8.6306 9.38184 8.95143 8.57975C8.95143 8.57975 9.43968 8.42692 10.5556 9.17825C11.0305 9.04646 11.5211 8.98012 12.0139 8.98109C12.5098 8.98109 13.0056 9.04642 13.4723 9.17767C14.5876 8.41934 15.0764 8.58034 15.0764 8.58034C15.3973 9.38242 15.1931 9.98034 15.1348 10.1262C15.5063 10.5345 15.7327 11.0519 15.7327 11.6936C15.7327 13.9324 14.3694 14.4283 13.0715 14.5741C13.2827 14.7561 13.4653 15.1061 13.4653 15.6533C13.4653 16.4332 13.4577 17.0603 13.4577 17.2574C13.4577 17.4103 13.5673 17.5923 13.859 17.5339C15.0169 17.143 16.0231 16.3988 16.736 15.406C17.4488 14.4133 17.8324 13.222 17.8327 11.9998C17.8327 8.77692 15.2223 6.1665 11.9994 6.1665Z" fill="#1A202C"/>
</g>
<defs>
<clipPath id="clip0_2400_3348">
<rect width="14" height="14" fill="white" transform="translate(5 5)"/>
</clipPath>
</defs>
</svg>
